<?xml version="1.0" encoding="utf-8" standalone="no"?>
<!DOCTYPE svg PUBLIC "-//W3C//DTD SVG 1.1//EN"
  "http://www.w3.org/Graphics/SVG/1.1/DTD/svg11.dtd">
<svg xmlns:xlink="http://www.w3.org/1999/xlink" width="504pt" height="360pt" viewBox="0 0 504 360" xmlns="http://www.w3.org/2000/svg" version="1.1">
 <metadata>
  <rdf:RDF xmlns:dc="http://purl.org/dc/elements/1.1/" xmlns:cc="http://creativecommons.org/ns#" xmlns:rdf="http://www.w3.org/1999/02/22-rdf-syntax-ns#">
   <cc:Work>
    <dc:type rdf:resource="http://purl.org/dc/dcmitype/StillImage"/>
    <dc:format>image/svg+xml</dc:format>
    <dc:creator>
     <cc:Agent>
      <dc:title>Matplotlib v3.10.9, https://matplotlib.org/</dc:title>
     </cc:Agent>
    </dc:creator>
   </cc:Work>
  </rdf:RDF>
 </metadata>
 <defs>
  <style type="text/css">*{stroke-linejoin: round; stroke-linecap: butt}</style>
 </defs>
 <g id="figure_1">
  <g id="patch_1">
   <path d="M 0 360 
L 504 360 
L 504 0 
L 0 0 
z
" style="fill: #ffffff"/>
  </g>
  <g id="axes_1">
   <g id="patch_2">
    <path d="M 0 360 
L 504 360 
L 504 0 
L 0 0 
z
" clip-path="url(#p401cb033e1)" style="fill: #ffffff; stroke: #ffffff; stroke-linejoin: miter"/>
   </g>
   <g id="patch_3">
    <path d="M 0 360 
Q 0 0 0 0 
L 504 0 
L 504 360 
z
" clip-path="url(#p401cb033e1)" style="fill: #ffffff"/>
   </g>
   <g id="patch_4">
    <path d="M 36 54 
Q 36 234 36 234 
L 504 234 
L 504 54 
z
" clip-path="url(#p401cb033e1)" style="fill: #ffffff"/>
   </g>
   <g id="patch_5">
    <path d="M 72 36 
Q 36 36 36 54 
L 504 54 
L 504 36 
z
" clip-path="url(#p401cb033e1)" style="fill: #ffffff"/>
   </g>
   <g id="patch_6">
    <path d="M 72 0 
Q 72 18 72 18 
L 504 18 
L 504 0 
z
" clip-path="url(#p401cb033e1)" style="fill: #ffffff"/>
   </g>
   <g id="patch_7">
    <path d="M 72 18 
Q 72 36 72 36 
L 504 36 
L 504 18 
z
" clip-path="url(#p401cb033e1)" style="fill: #ffffff"/>
   </g>
   <g id="patch_8">
    <path d="M 72 270 
Q 72 360 72 360 
L 504 360 
L 504 270 
z
" clip-path="url(#p401cb033e1)" style="fill: #ffffff"/>
   </g>
   <g id="patch_9">
    <path d="M 72 36 
Q 108 36 108 54 
L 504 54 
L 504 36 
z
" clip-path="url(#p401cb033e1)" style="fill: #ffffff"/>
   </g>
   <g id="patch_10">
    <path d="M 108 54 
Q 108 144 108 144 
L 504 144 
L 504 54 
z
" clip-path="url(#p401cb033e1)" style="fill: #ffffff"/>
   </g>
   <g id="patch_11">
    <path d="M 108 216 
Q 108 234 108 234 
L 504 234 
L 504 216 
z
" clip-path="url(#p401cb033e1)" style="fill: #ffffff"/>
   </g>
   <g id="patch_12">
    <path d="M 144 180 
Q 108 180 108 216 
L 504 216 
L 504 180 
z
" clip-path="url(#p401cb033e1)" style="fill: #ffffff"/>
   </g>
   <g id="patch_13">
    <path d="M 108 144 
Q 108 180 144 180 
L 504 180 
L 504 144 
z
" clip-path="url(#p401cb033e1)" style="fill: #ffffff"/>
   </g>
   <g id="patch_14">
    <path d="M 126 234 
Q 126 270 126 270 
L 504 270 
L 504 234 
z
" clip-path="url(#p401cb033e1)" style="fill: #ffffff"/>
   </g>
   <g id="patch_15">
    <path d="M 144 180 
Q 180 180 180 216 
L 504 216 
L 504 180 
z
" clip-path="url(#p401cb033e1)" style="fill: #ffffff"/>
   </g>
   <g id="patch_16">
    <path d="M 180 144 
Q 180 180 144 180 
L 504 180 
L 504 144 
z
" clip-path="url(#p401cb033e1)" style="fill: #ffffff"/>
   </g>
   <g id="patch_17">
    <path d="M 180 126 
Q 180 144 180 144 
L 504 144 
L 504 126 
z
" clip-path="url(#p401cb033e1)" style="fill: #ffffff"/>
   </g>
   <g id="patch_18">
    <path d="M 180 216 
Q 180 306 180 306 
L 504 306 
L 504 216 
z
" clip-path="url(#p401cb033e1)" style="fill: #ffffff"/>
   </g>
   <g id="patch_19">
    <path d="M 216 108 
Q 180 108 180 126 
L 504 126 
L 504 108 
z
" clip-path="url(#p401cb033e1)" style="fill: #ffffff"/>
   </g>
   <g id="patch_20">
    <path d="M 216 0 
Q 216 90 216 90 
L 504 90 
L 504 0 
z
" clip-path="url(#p401cb033e1)" style="fill: #ffffff"/>
   </g>
   <g id="patch_21">
    <path d="M 216 90 
Q 216 108 216 108 
L 504 108 
L 504 90 
z
" clip-path="url(#p401cb033e1)" style="fill: #ffffff"/>
   </g>
   <g id="patch_22">
    <path d="M 216 342 
Q 216 360 216 360 
L 504 360 
L 504 342 
z
" clip-path="url(#p401cb033e1)" style="fill: #ffffff"/>
   </g>
   <g id="patch_23">
    <path d="M 216 108 
Q 252 108 252 126 
L 504 126 
L 504 108 
z
" clip-path="url(#p401cb033e1)" style="fill: #ffffff"/>
   </g>
   <g id="patch_24">
    <path d="M 252 126 
Q 252 306 252 306 
L 504 306 
L 504 126 
z
" clip-path="url(#p401cb033e1)" style="fill: #ffffff"/>
   </g>
   <g id="patch_25">
    <path d="M 270 306 
Q 270 342 270 342 
L 504 342 
L 504 306 
z
" clip-path="url(#p401cb033e1)" style="fill: #ffffff"/>
   </g>
   <g id="patch_26">
    <path d="M 396 0 
Q 396 126 396 126 
L 504 126 
L 504 0 
z
" clip-path="url(#p401cb033e1)" style="fill: #ffffff"/>
   </g>
   <g id="patch_27">
    <path d="M 396 234 
Q 396 360 396 360 
L 504 360 
L 504 234 
z
" clip-path="url(#p401cb033e1)" style="fill: #ffffff"/>
   </g>
   <g id="patch_28">
    <path d="M 432 216 
Q 396 216 396 234 
L 504 234 
L 504 216 
z
" clip-path="url(#p401cb033e1)" style="fill: #ffffff"/>
   </g>
   <g id="patch_29">
    <path d="M 432 162 
Q 432 198 432 198 
L 504 198 
L 504 162 
z
" clip-path="url(#p401cb033e1)" style="fill: #ffffff"/>
   </g>
   <g id="patch_30">
    <path d="M 432 198 
Q 432 216 432 216 
L 504 216 
L 504 198 
z
" clip-path="url(#p401cb033e1)" style="fill: #ffffff"/>
   </g>
   <g id="patch_31">
    <path d="M 432 216 
Q 468 216 468 234 
L 504 234 
L 504 216 
z
" clip-path="url(#p401cb033e1)" style="fill: #ffffff"/>
   </g>
   <g id="patch_32">
    <path d="M 468 0 
Q 468 126 468 126 
L 504 126 
L 504 0 
z
" clip-path="url(#p401cb033e1)" style="fill: #ffffff"/>
   </g>
   <g id="patch_33">
    <path d="M 468 234 
Q 468 360 468 360 
L 504 360 
L 504 234 
z
" clip-path="url(#p401cb033e1)" style="fill: #ffffff"/>
   </g>
   <g id="patch_34">
    <path d="M 486 126 
Q 486 162 486 162 
L 504 162 
L 504 126 
z
" clip-path="url(#p401cb033e1)" style="fill: #ffffff"/>
   </g>
   <g id="patch_35">
    <path d="M 108 144 
C 108 180 180 180 180 216 
" clip-path="url(#p401cb033e1)" style="fill: none; stroke: #000000; stroke-linejoin: miter"/>
   </g>
   <g id="patch_36">
    <path d="M 180 144 
C 180 180 108 180 108 216 
" clip-path="url(#p401cb033e1)" style="fill: none; stroke: #000000; stroke-linejoin: miter"/>
   </g>
   <g id="patch_37">
    <path d="M 72 36 
Q 36 36 36 54 
" clip-path="url(#p401cb033e1)" style="fill: none; stroke: #000000; stroke-linejoin: miter"/>
   </g>
   <g id="patch_38">
    <path d="M 72 36 
Q 108 36 108 54 
" clip-path="url(#p401cb033e1)" style="fill: none; stroke: #000000; stroke-linejoin: miter"/>
   </g>
   <g id="patch_39">
    <path d="M 72 0 
Q 72 18 72 18 
" clip-path="url(#p401cb033e1)" style="fill: none; stroke: #000000; stroke-linejoin: miter"/>
   </g>
   <g id="patch_40">
    <path d="M 72 18 
Q 72 36 72 36 
" clip-path="url(#p401cb033e1)" style="fill: none; stroke: #000000; stroke-linejoin: miter"/>
   </g>
   <g id="patch_41">
    <path d="M 36 54 
Q 36 234 36 234 
" clip-path="url(#p401cb033e1)" style="fill: none; stroke: #000000; stroke-linejoin: miter"/>
   </g>
   <g id="patch_42">
    <path d="M 108 54 
Q 108 144 108 144 
" clip-path="url(#p401cb033e1)" style="fill: none; stroke: #000000; stroke-linejoin: miter"/>
   </g>
   <g id="patch_43">
    <path d="M 216 0 
Q 216 90 216 90 
" clip-path="url(#p401cb033e1)" style="fill: none; stroke: #000000; stroke-linejoin: miter"/>
   </g>
   <g id="patch_44">
    <path d="M 216 108 
Q 180 108 180 126 
" clip-path="url(#p401cb033e1)" style="fill: none; stroke: #000000; stroke-linejoin: miter"/>
   </g>
   <g id="patch_45">
    <path d="M 216 108 
Q 252 108 252 126 
" clip-path="url(#p401cb033e1)" style="fill: none; stroke: #000000; stroke-linejoin: miter"/>
   </g>
   <g id="patch_46">
    <path d="M 216 90 
Q 216 108 216 108 
" clip-path="url(#p401cb033e1)" style="fill: none; stroke: #000000; stroke-linejoin: miter"/>
   </g>
   <g id="patch_47">
    <path d="M 180 126 
Q 180 144 180 144 
" clip-path="url(#p401cb033e1)" style="fill: none; stroke: #000000; stroke-linejoin: miter"/>
   </g>
   <g id="patch_48">
    <path d="M 252 126 
Q 252 306 252 306 
" clip-path="url(#p401cb033e1)" style="fill: none; stroke: #000000; stroke-linejoin: miter"/>
   </g>
   <g id="patch_49">
    <path d="M 108 216 
Q 108 234 108 234 
" clip-path="url(#p401cb033e1)" style="fill: none; stroke: #000000; stroke-linejoin: miter"/>
   </g>
   <g id="patch_50">
    <path d="M 180 216 
Q 180 306 180 306 
" clip-path="url(#p401cb033e1)" style="fill: none; stroke: #000000; stroke-linejoin: miter"/>
   </g>
   <g id="patch_51">
    <path d="M 72 270 
Q 72 360 72 360 
" clip-path="url(#p401cb033e1)" style="fill: none; stroke: #000000; stroke-linejoin: miter"/>
   </g>
   <g id="patch_52">
    <path d="M 216 342 
Q 216 360 216 360 
" clip-path="url(#p401cb033e1)" style="fill: none; stroke: #000000; stroke-linejoin: miter"/>
   </g>
   <g id="patch_53">
    <path d="M 396 0 
Q 396 126 396 126 
" clip-path="url(#p401cb033e1)" style="fill: none; stroke: #000000; stroke-linejoin: miter"/>
   </g>
   <g id="patch_54">
    <path d="M 468 0 
Q 468 126 468 126 
" clip-path="url(#p401cb033e1)" style="fill: none; stroke: #000000; stroke-linejoin: miter"/>
   </g>
   <g id="patch_55">
    <path d="M 432 162 
Q 432 198 432 198 
" clip-path="url(#p401cb033e1)" style="fill: none; stroke: #000000; stroke-linejoin: miter"/>
   </g>
   <g id="patch_56">
    <path d="M 432 216 
Q 396 216 396 234 
" clip-path="url(#p401cb033e1)" style="fill: none; stroke: #000000; stroke-linejoin: miter"/>
   </g>
   <g id="patch_57">
    <path d="M 432 216 
Q 468 216 468 234 
" clip-path="url(#p401cb033e1)" style="fill: none; stroke: #000000; stroke-linejoin: miter"/>
   </g>
   <g id="patch_58">
    <path d="M 432 198 
Q 432 216 432 216 
" clip-path="url(#p401cb033e1)" style="fill: none; stroke: #000000; stroke-linejoin: miter"/>
   </g>
   <g id="patch_59">
    <path d="M 396 234 
Q 396 360 396 360 
" clip-path="url(#p401cb033e1)" style="fill: none; stroke: #000000; stroke-linejoin: miter"/>
   </g>
   <g id="patch_60">
    <path d="M 468 234 
Q 468 360 468 360 
" clip-path="url(#p401cb033e1)" style="fill: none; stroke: #000000; stroke-linejoin: miter"/>
   </g>
   <g id="patch_61">
    <path d="M 18 270 
L 18 234 
L 126 234 
L 126 270 
z
" clip-path="url(#p401cb033e1)" style="fill: #ffffff; stroke: #000000; stroke-linejoin: miter"/>
   </g>
   <g id="patch_62">
    <path d="M 162 342 
L 162 306 
L 270 306 
L 270 342 
z
" clip-path="url(#p401cb033e1)" style="fill: #ffffff; stroke: #000000; stroke-linejoin: miter"/>
   </g>
   <g id="patch_63">
    <path d="M 378 162 
L 378 126 
L 486 126 
L 486 162 
z
" clip-path="url(#p401cb033e1)" style="fill: #ffffff; stroke: #000000; stroke-linejoin: miter"/>
   </g>
   <g id="PathCollection_1">
    <defs>
     <path id="C0_0_a26f78e3fb" d="M 0 5.324472 
C 1.412066 5.324472 2.766488 4.763452 3.76497 3.76497 
C 4.763452 2.766488 5.324472 1.412066 5.324472 -0 
C 5.324472 -1.412066 4.763452 -2.766488 3.76497 -3.76497 
C 2.766488 -4.763452 1.412066 -5.324472 0 -5.324472 
C -1.412066 -5.324472 -2.766488 -4.763452 -3.76497 -3.76497 
C -4.763452 -2.766488 -5.324472 -1.412066 -5.324472 0 
C -5.324472 1.412066 -4.763452 2.766488 -3.76497 3.76497 
C -2.766488 4.763452 -1.412066 5.324472 0 5.324472 
z
"/>
    </defs>
    <g clip-path="url(#p401cb033e1)">
     <use xlink:href="#C0_0_a26f78e3fb" x="324" y="180" style="fill: #ffffff; stroke: #ffffff"/>
    </g>
    <g clip-path="url(#p401cb033e1)">
     <use xlink:href="#C0_0_a26f78e3fb" x="216" y="108" style="stroke: #000000"/>
    </g>
    <g clip-path="url(#p401cb033e1)">
     <use xlink:href="#C0_0_a26f78e3fb" x="72" y="36" style="stroke: #000000"/>
    </g>
    <g clip-path="url(#p401cb033e1)">
     <use xlink:href="#C0_0_a26f78e3fb" x="432" y="216" style="stroke: #000000"/>
    </g>
   </g>
   <g id="text_1">
    <!-- x -->
    <g transform="translate(76.5 12.098437) scale(0.1 -0.1)">
     <defs>
      <path id="DejaVuSans-78" d="M 3513 3500 
L 2247 1797 
L 3578 0 
L 2900 0 
L 1881 1375 
L 863 0 
L 184 0 
L 1544 1831 
L 300 3500 
L 978 3500 
L 1906 2253 
L 2834 3500 
L 3513 3500 
z
" transform="scale(0.015625)"/>
     </defs>
     <use xlink:href="#DejaVuSans-78"/>
    </g>
   </g>
   <g id="text_2">
    <!-- x -->
    <g transform="translate(40.5 66.098437) scale(0.1 -0.1)">
     <use xlink:href="#DejaVuSans-78"/>
    </g>
   </g>
   <g id="text_3">
    <!-- x -->
    <g transform="translate(112.5 66.098437) scale(0.1 -0.1)">
     <use xlink:href="#DejaVuSans-78"/>
    </g>
   </g>
   <g id="text_4">
    <!-- x -->
    <g transform="translate(220.5 12.098437) scale(0.1 -0.1)">
     <use xlink:href="#DejaVuSans-78"/>
    </g>
   </g>
   <g id="text_5">
    <!-- x -->
    <g transform="translate(184.5 138.098437) scale(0.1 -0.1)">
     <use xlink:href="#DejaVuSans-78"/>
    </g>
   </g>
   <g id="text_6">
    <!-- x -->
    <g transform="translate(256.5 138.098437) scale(0.1 -0.1)">
     <use xlink:href="#DejaVuSans-78"/>
    </g>
   </g>
   <g id="text_7">
    <!-- x -->
    <g transform="translate(112.5 210.098437) scale(0.1 -0.1)">
     <use xlink:href="#DejaVuSans-78"/>
    </g>
   </g>
   <g id="text_8">
    <!-- x -->
    <g transform="translate(184.5 210.098437) scale(0.1 -0.1)">
     <use xlink:href="#DejaVuSans-78"/>
    </g>
   </g>
   <g id="text_9">
    <!-- x -->
    <g transform="translate(76.5 282.098437) scale(0.1 -0.1)">
     <use xlink:href="#DejaVuSans-78"/>
    </g>
   </g>
   <g id="text_10">
    <!-- x -->
    <g transform="translate(220.5 354.098437) scale(0.1 -0.1)">
     <use xlink:href="#DejaVuSans-78"/>
    </g>
   </g>
   <g id="text_11">
    <!-- x -->
    <g transform="translate(400.5 12.098437) scale(0.1 -0.1)">
     <use xlink:href="#DejaVuSans-78"/>
    </g>
   </g>
   <g id="text_12">
    <!-- x -->
    <g transform="translate(472.5 12.098437) scale(0.1 -0.1)">
     <use xlink:href="#DejaVuSans-78"/>
    </g>
   </g>
   <g id="text_13">
    <!-- x -->
    <g transform="translate(436.5 174.098437) scale(0.1 -0.1)">
     <use xlink:href="#DejaVuSans-78"/>
    </g>
   </g>
   <g id="text_14">
    <!-- x -->
    <g transform="translate(400.5 246.098437) scale(0.1 -0.1)">
     <use xlink:href="#DejaVuSans-78"/>
    </g>
   </g>
   <g id="text_15">
    <!-- x -->
    <g transform="translate(472.5 246.098437) scale(0.1 -0.1)">
     <use xlink:href="#DejaVuSans-78"/>
    </g>
   </g>
   <g id="text_16">
    <!-- add -->
    <g transform="translate(62.5875 254.759375) scale(0.1 -0.1)">
     <defs>
      <path id="DejaVuSans-61" d="M 2194 1759 
Q 1497 1759 1228 1600 
Q 959 1441 959 1056 
Q 959 750 1161 570 
Q 1363 391 1709 391 
Q 2188 391 2477 730 
Q 2766 1069 2766 1631 
L 2766 1759 
L 2194 1759 
z
M 3341 1997 
L 3341 0 
L 2766 0 
L 2766 531 
Q 2569 213 2275 61 
Q 1981 -91 1556 -91 
Q 1019 -91 701 211 
Q 384 513 384 1019 
Q 384 1609 779 1909 
Q 1175 2209 1959 2209 
L 2766 2209 
L 2766 2266 
Q 2766 2663 2505 2880 
Q 2244 3097 1772 3097 
Q 1472 3097 1187 3025 
Q 903 2953 641 2809 
L 641 3341 
Q 956 3463 1253 3523 
Q 1550 3584 1831 3584 
Q 2591 3584 2966 3190 
Q 3341 2797 3341 1997 
z
" transform="scale(0.015625)"/>
      <path id="DejaVuSans-64" d="M 2906 2969 
L 2906 4863 
L 3481 4863 
L 3481 0 
L 2906 0 
L 2906 525 
Q 2725 213 2448 61 
Q 2172 -91 1784 -91 
Q 1150 -91 751 415 
Q 353 922 353 1747 
Q 353 2572 751 3078 
Q 1150 3584 1784 3584 
Q 2172 3584 2448 3432 
Q 2725 3281 2906 2969 
z
M 947 1747 
Q 947 1113 1208 752 
Q 1469 391 1925 391 
Q 2381 391 2643 752 
Q 2906 1113 2906 1747 
Q 2906 2381 2643 2742 
Q 2381 3103 1925 3103 
Q 1469 3103 1208 2742 
Q 947 2381 947 1747 
z
" transform="scale(0.015625)"/>
     </defs>
     <use xlink:href="#DejaVuSans-61"/>
     <use xlink:href="#DejaVuSans-64" transform="translate(61.279297 0)"/>
     <use xlink:href="#DejaVuSans-64" transform="translate(124.755859 0)"/>
    </g>
   </g>
   <g id="text_17">
    <!-- add -->
    <g transform="translate(206.5875 326.759375) scale(0.1 -0.1)">
     <use xlink:href="#DejaVuSans-61"/>
     <use xlink:href="#DejaVuSans-64" transform="translate(61.279297 0)"/>
     <use xlink:href="#DejaVuSans-64" transform="translate(124.755859 0)"/>
    </g>
   </g>
   <g id="text_18">
    <!-- add -->
    <g transform="translate(422.5875 146.759375) scale(0.1 -0.1)">
     <use xlink:href="#DejaVuSans-61"/>
     <use xlink:href="#DejaVuSans-64" transform="translate(61.279297 0)"/>
     <use xlink:href="#DejaVuSans-64" transform="translate(124.755859 0)"/>
    </g>
   </g>
   <g id="text_19">
    <g clip-path="url(#p401cb033e1)">
     <!-- = -->
     <g transform="translate(318.972188 183.31125) scale(0.12 -0.12)">
      <defs>
       <path id="DejaVuSans-3d" d="M 678 2906 
L 4684 2906 
L 4684 2381 
L 678 2381 
L 678 2906 
z
M 678 1631 
L 4684 1631 
L 4684 1100 
L 678 1100 
L 678 1631 
z
" transform="scale(0.015625)"/>
      </defs>
      <use xlink:href="#DejaVuSans-3d"/>
     </g>
    </g>
   </g>
  </g>
 </g>
 <defs>
  <clipPath id="p401cb033e1">
   <rect x="0" y="0" width="504" height="360"/>
  </clipPath>
 </defs>
</svg>
