<?xml version="1.0" encoding="utf-8" standalone="no"?>
<!DOCTYPE svg PUBLIC "-//W3C//DTD SVG 1.1//EN"
  "http://www.w3.org/Graphics/SVG/1.1/DTD/svg11.dtd">
<svg xmlns:xlink="http://www.w3.org/1999/xlink" width="360pt" height="216pt" viewBox="0 0 360 216" xmlns="http://www.w3.org/2000/svg" version="1.1">
 <metadata>
  <rdf:RDF xmlns:dc="http://purl.org/dc/elements/1.1/" xmlns:cc="http://creativecommons.org/ns#" xmlns:rdf="http://www.w3.org/1999/02/22-rdf-syntax-ns#">
   <cc:Work>
    <dc:type rdf:resource="http://purl.org/dc/dcmitype/StillImage"/>
    <dc:format>image/svg+xml</dc:format>
    <dc:creator>
     <cc:Agent>
      <dc:title>Matplotlib v3.10.9, https://matplotlib.org/</dc:title>
     </cc:Agent>
    </dc:creator>
   </cc:Work>
  </rdf:RDF>
 </metadata>
 <defs>
  <style type="text/css">*{stroke-linejoin: round; stroke-linecap: butt}</style>
 </defs>
 <g id="figure_1">
  <g id="patch_1">
   <path d="M 0 216 
L 360 216 
L 360 0 
L 0 0 
z
" style="fill: #ffffff"/>
  </g>
  <g id="axes_1">
   <g id="patch_2">
    <path d="M 0 216 
L 360 216 
L 360 0 
L 0 0 
z
" clip-path="url(#pd7ae8d8837)" style="fill: #ffffff; stroke: #ffffff; stroke-linejoin: miter"/>
   </g>
   <g id="patch_3">
    <path d="M 0 216 
Q 0 0 0 0 
L 360 0 
L 360 216 
z
" clip-path="url(#pd7ae8d8837)" style="fill: #ffffff"/>
   </g>
   <g id="patch_4">
    <path d="M 36 54 
Q 36 90 36 90 
L 360 90 
L 360 54 
z
" clip-path="url(#pd7ae8d8837)" style="fill: #ffffff"/>
   </g>
   <g id="patch_5">
    <path d="M 36 126 
Q 36 216 36 216 
L 360 216 
L 360 126 
z
" clip-path="url(#pd7ae8d8837)" style="fill: #ffffff"/>
   </g>
   <g id="patch_6">
    <path d="M 72 36 
Q 36 36 36 54 
L 360 54 
L 360 36 
z
" clip-path="url(#pd7ae8d8837)" style="fill: #ffffff"/>
   </g>
   <g id="patch_7">
    <path d="M 54 90 
Q 54 126 54 126 
L 360 126 
L 360 90 
z
" clip-path="url(#pd7ae8d8837)" style="fill: #ffffff"/>
   </g>
   <g id="patch_8">
    <path d="M 72 0 
Q 72 18 72 18 
L 360 18 
L 360 0 
z
" clip-path="url(#pd7ae8d8837)" style="fill: #ffffff"/>
   </g>
   <g id="patch_9">
    <path d="M 72 18 
Q 72 36 72 36 
L 360 36 
L 360 18 
z
" clip-path="url(#pd7ae8d8837)" style="fill: #ffffff"/>
   </g>
   <g id="patch_10">
    <path d="M 72 36 
Q 108 36 108 54 
L 360 54 
L 360 36 
z
" clip-path="url(#pd7ae8d8837)" style="fill: #ffffff"/>
   </g>
   <g id="patch_11">
    <path d="M 108 54 
Q 108 162 108 162 
L 360 162 
L 360 54 
z
" clip-path="url(#pd7ae8d8837)" style="fill: #ffffff"/>
   </g>
   <g id="patch_12">
    <path d="M 108 198 
Q 108 216 108 216 
L 360 216 
L 360 198 
z
" clip-path="url(#pd7ae8d8837)" style="fill: #ffffff"/>
   </g>
   <g id="patch_13">
    <path d="M 126 162 
Q 126 198 126 198 
L 360 198 
L 360 162 
z
" clip-path="url(#pd7ae8d8837)" style="fill: #ffffff"/>
   </g>
   <g id="patch_14">
    <path d="M 252 162 
Q 252 216 252 216 
L 360 216 
L 360 162 
z
" clip-path="url(#pd7ae8d8837)" style="fill: #ffffff"/>
   </g>
   <g id="patch_15">
    <path d="M 288 144 
Q 252 144 252 162 
L 360 162 
L 360 144 
z
" clip-path="url(#pd7ae8d8837)" style="fill: #ffffff"/>
   </g>
   <g id="patch_16">
    <path d="M 288 0 
Q 288 54 288 54 
L 360 54 
L 360 0 
z
" clip-path="url(#pd7ae8d8837)" style="fill: #ffffff"/>
   </g>
   <g id="patch_17">
    <path d="M 288 90 
Q 288 126 288 126 
L 360 126 
L 360 90 
z
" clip-path="url(#pd7ae8d8837)" style="fill: #ffffff"/>
   </g>
   <g id="patch_18">
    <path d="M 288 126 
Q 288 144 288 144 
L 360 144 
L 360 126 
z
" clip-path="url(#pd7ae8d8837)" style="fill: #ffffff"/>
   </g>
   <g id="patch_19">
    <path d="M 288 144 
Q 324 144 324 162 
L 360 162 
L 360 144 
z
" clip-path="url(#pd7ae8d8837)" style="fill: #ffffff"/>
   </g>
   <g id="patch_20">
    <path d="M 306 54 
Q 306 90 306 90 
L 360 90 
L 360 54 
z
" clip-path="url(#pd7ae8d8837)" style="fill: #ffffff"/>
   </g>
   <g id="patch_21">
    <path d="M 324 162 
Q 324 216 324 216 
L 360 216 
L 360 162 
z
" clip-path="url(#pd7ae8d8837)" style="fill: #ffffff"/>
   </g>
   <g id="patch_22">
    <path d="M 72 36 
Q 36 36 36 54 
" clip-path="url(#pd7ae8d8837)" style="fill: none; stroke: #000000; stroke-linejoin: miter"/>
   </g>
   <g id="patch_23">
    <path d="M 72 36 
Q 108 36 108 54 
" clip-path="url(#pd7ae8d8837)" style="fill: none; stroke: #000000; stroke-linejoin: miter"/>
   </g>
   <g id="patch_24">
    <path d="M 72 0 
Q 72 18 72 18 
" clip-path="url(#pd7ae8d8837)" style="fill: none; stroke: #000000; stroke-linejoin: miter"/>
   </g>
   <g id="patch_25">
    <path d="M 72 18 
Q 72 36 72 36 
" clip-path="url(#pd7ae8d8837)" style="fill: none; stroke: #000000; stroke-linejoin: miter"/>
   </g>
   <g id="patch_26">
    <path d="M 36 54 
Q 36 90 36 90 
" clip-path="url(#pd7ae8d8837)" style="fill: none; stroke: #000000; stroke-linejoin: miter"/>
   </g>
   <g id="patch_27">
    <path d="M 108 54 
Q 108 162 108 162 
" clip-path="url(#pd7ae8d8837)" style="fill: none; stroke: #000000; stroke-linejoin: miter"/>
   </g>
   <g id="patch_28">
    <path d="M 36 126 
Q 36 216 36 216 
" clip-path="url(#pd7ae8d8837)" style="fill: none; stroke: #000000; stroke-linejoin: miter"/>
   </g>
   <g id="patch_29">
    <path d="M 108 198 
Q 108 216 108 216 
" clip-path="url(#pd7ae8d8837)" style="fill: none; stroke: #000000; stroke-linejoin: miter"/>
   </g>
   <g id="patch_30">
    <path d="M 288 0 
Q 288 54 288 54 
" clip-path="url(#pd7ae8d8837)" style="fill: none; stroke: #000000; stroke-linejoin: miter"/>
   </g>
   <g id="patch_31">
    <path d="M 288 90 
Q 288 126 288 126 
" clip-path="url(#pd7ae8d8837)" style="fill: none; stroke: #000000; stroke-linejoin: miter"/>
   </g>
   <g id="patch_32">
    <path d="M 288 144 
Q 252 144 252 162 
" clip-path="url(#pd7ae8d8837)" style="fill: none; stroke: #000000; stroke-linejoin: miter"/>
   </g>
   <g id="patch_33">
    <path d="M 288 144 
Q 324 144 324 162 
" clip-path="url(#pd7ae8d8837)" style="fill: none; stroke: #000000; stroke-linejoin: miter"/>
   </g>
   <g id="patch_34">
    <path d="M 288 126 
Q 288 144 288 144 
" clip-path="url(#pd7ae8d8837)" style="fill: none; stroke: #000000; stroke-linejoin: miter"/>
   </g>
   <g id="patch_35">
    <path d="M 252 162 
Q 252 216 252 216 
" clip-path="url(#pd7ae8d8837)" style="fill: none; stroke: #000000; stroke-linejoin: miter"/>
   </g>
   <g id="patch_36">
    <path d="M 324 162 
Q 324 216 324 216 
" clip-path="url(#pd7ae8d8837)" style="fill: none; stroke: #000000; stroke-linejoin: miter"/>
   </g>
   <g id="patch_37">
    <path d="M 18 126 
L 18 90 
L 54 90 
L 54 126 
z
" clip-path="url(#pd7ae8d8837)" style="fill: #ffffff; stroke: #000000; stroke-linejoin: miter"/>
   </g>
   <g id="patch_38">
    <path d="M 90 198 
L 90 162 
L 126 162 
L 126 198 
z
" clip-path="url(#pd7ae8d8837)" style="fill: #ffffff; stroke: #000000; stroke-linejoin: miter"/>
   </g>
   <g id="patch_39">
    <path d="M 270 90 
L 270 54 
L 306 54 
L 306 90 
z
" clip-path="url(#pd7ae8d8837)" style="fill: #ffffff; stroke: #000000; stroke-linejoin: miter"/>
   </g>
   <g id="PathCollection_1">
    <defs>
     <path id="C0_0_93796da981" d="M 0 5.790078 
C 1.535547 5.790078 3.008408 5.179999 4.094203 4.094203 
C 5.179999 3.008408 5.790078 1.535547 5.790078 -0 
C 5.790078 -1.535547 5.179999 -3.008408 4.094203 -4.094203 
C 3.008408 -5.179999 1.535547 -5.790078 0 -5.790078 
C -1.535547 -5.790078 -3.008408 -5.179999 -4.094203 -4.094203 
C -5.179999 -3.008408 -5.790078 -1.535547 -5.790078 0 
C -5.790078 1.535547 -5.179999 3.008408 -4.094203 4.094203 
C -3.008408 5.179999 -1.535547 5.790078 0 5.790078 
z
"/>
    </defs>
    <g clip-path="url(#pd7ae8d8837)">
     <use xlink:href="#C0_0_93796da981" x="72" y="36" style="stroke: #000000"/>
    </g>
    <g clip-path="url(#pd7ae8d8837)">
     <use xlink:href="#C0_0_93796da981" x="180" y="108" style="fill: #ffffff; stroke: #ffffff"/>
    </g>
    <g clip-path="url(#pd7ae8d8837)">
     <use xlink:href="#C0_0_93796da981" x="288" y="144" style="stroke: #000000"/>
    </g>
   </g>
   <g id="text_1">
    <!-- x -->
    <g transform="translate(76.5 12.098437) scale(0.1 -0.1)">
     <defs>
      <path id="DejaVuSans-78" d="M 3513 3500 
L 2247 1797 
L 3578 0 
L 2900 0 
L 1881 1375 
L 863 0 
L 184 0 
L 1544 1831 
L 300 3500 
L 978 3500 
L 1906 2253 
L 2834 3500 
L 3513 3500 
z
" transform="scale(0.015625)"/>
     </defs>
     <use xlink:href="#DejaVuSans-78"/>
    </g>
   </g>
   <g id="text_2">
    <!-- x -->
    <g transform="translate(40.5 66.098437) scale(0.1 -0.1)">
     <use xlink:href="#DejaVuSans-78"/>
    </g>
   </g>
   <g id="text_3">
    <!-- x -->
    <g transform="translate(112.5 66.098437) scale(0.1 -0.1)">
     <use xlink:href="#DejaVuSans-78"/>
    </g>
   </g>
   <g id="text_4">
    <!-- x -->
    <g transform="translate(40.5 138.098437) scale(0.1 -0.1)">
     <use xlink:href="#DejaVuSans-78"/>
    </g>
   </g>
   <g id="text_5">
    <!-- x -->
    <g transform="translate(112.5 210.098437) scale(0.1 -0.1)">
     <use xlink:href="#DejaVuSans-78"/>
    </g>
   </g>
   <g id="text_6">
    <!-- x -->
    <g transform="translate(292.5 12.098437) scale(0.1 -0.1)">
     <use xlink:href="#DejaVuSans-78"/>
    </g>
   </g>
   <g id="text_7">
    <!-- x -->
    <g transform="translate(292.5 102.098438) scale(0.1 -0.1)">
     <use xlink:href="#DejaVuSans-78"/>
    </g>
   </g>
   <g id="text_8">
    <!-- x -->
    <g transform="translate(256.5 174.098437) scale(0.1 -0.1)">
     <use xlink:href="#DejaVuSans-78"/>
    </g>
   </g>
   <g id="text_9">
    <!-- x -->
    <g transform="translate(328.5 174.098437) scale(0.1 -0.1)">
     <use xlink:href="#DejaVuSans-78"/>
    </g>
   </g>
   <g id="text_10">
    <!-- f -->
    <g transform="translate(34.239844 110.759375) scale(0.1 -0.1)">
     <defs>
      <path id="DejaVuSans-66" d="M 2375 4863 
L 2375 4384 
L 1825 4384 
Q 1516 4384 1395 4259 
Q 1275 4134 1275 3809 
L 1275 3500 
L 2222 3500 
L 2222 3053 
L 1275 3053 
L 1275 0 
L 697 0 
L 697 3053 
L 147 3053 
L 147 3500 
L 697 3500 
L 697 3744 
Q 697 4328 969 4595 
Q 1241 4863 1831 4863 
L 2375 4863 
z
" transform="scale(0.015625)"/>
     </defs>
     <use xlink:href="#DejaVuSans-66"/>
    </g>
   </g>
   <g id="text_11">
    <!-- f -->
    <g transform="translate(106.239844 182.759375) scale(0.1 -0.1)">
     <use xlink:href="#DejaVuSans-66"/>
    </g>
   </g>
   <g id="text_12">
    <!-- f -->
    <g transform="translate(286.239844 74.759375) scale(0.1 -0.1)">
     <use xlink:href="#DejaVuSans-66"/>
    </g>
   </g>
   <g id="text_13">
    <g clip-path="url(#pd7ae8d8837)">
     <!-- $\neq$ -->
     <g transform="translate(172.62 111.31125) scale(0.12 -0.12)">
      <defs>
       <path id="DejaVuSans-2260" d="M 678 2906 
L 3091 2906 
L 3891 3891 
L 4281 3572 
L 3738 2906 
L 4684 2906 
L 4684 2381 
L 3309 2381 
L 2700 1631 
L 4684 1631 
L 4684 1100 
L 2266 1100 
L 1459 122 
L 1069 441 
L 1613 1100 
L 678 1100 
L 678 1631 
L 2047 1631 
L 2656 2381 
L 678 2381 
L 678 2906 
z
" transform="scale(0.015625)"/>
      </defs>
      <use xlink:href="#DejaVuSans-2260" transform="translate(19.482422 0.203125)"/>
     </g>
    </g>
   </g>
  </g>
 </g>
 <defs>
  <clipPath id="pd7ae8d8837">
   <rect x="0" y="0" width="360" height="216"/>
  </clipPath>
 </defs>
</svg>
