<?xml version="1.0" encoding="utf-8" standalone="no"?>
<!DOCTYPE svg PUBLIC "-//W3C//DTD SVG 1.1//EN"
  "http://www.w3.org/Graphics/SVG/1.1/DTD/svg11.dtd">
<svg xmlns:xlink="http://www.w3.org/1999/xlink" width="290.88pt" height="504pt" viewBox="0 0 290.88 504" xmlns="http://www.w3.org/2000/svg" version="1.1">
 <metadata>
  <rdf:RDF xmlns:dc="http://purl.org/dc/elements/1.1/" xmlns:cc="http://creativecommons.org/ns#" xmlns:rdf="http://www.w3.org/1999/02/22-rdf-syntax-ns#">
   <cc:Work>
    <dc:type rdf:resource="http://purl.org/dc/dcmitype/StillImage"/>
    <dc:format>image/svg+xml</dc:format>
    <dc:creator>
     <cc:Agent>
      <dc:title>Matplotlib v3.10.9, https://matplotlib.org/</dc:title>
     </cc:Agent>
    </dc:creator>
   </cc:Work>
  </rdf:RDF>
 </metadata>
 <defs>
  <style type="text/css">*{stroke-linejoin: round; stroke-linecap: butt}</style>
 </defs>
 <g id="figure_1">
  <g id="patch_1">
   <path d="M 0 504 
L 290.88 504 
L 290.88 0 
L 0 0 
z
" style="fill: #ffffff"/>
  </g>
  <g id="axes_1">
   <g id="patch_2">
    <path d="M 0 503.501976 
L 290.88 503.501976 
L 290.88 0.498024 
L 0 0.498024 
z
" clip-path="url(#pa139ca4555)" style="fill: #ffffff; stroke: #ffffff; stroke-linejoin: miter"/>
   </g>
   <g id="patch_3">
    <path d="M 0 503.501976 
Q 0 0.498024 0 0.498024 
L 290.88 0.498024 
L 290.88 503.501976 
z
" clip-path="url(#pa139ca4555)" style="fill: #ffffff"/>
   </g>
   <g id="patch_4">
    <path d="M 35.928854 198.106719 
Q 35.928854 305.893281 35.928854 305.893281 
L 290.88 305.893281 
L 290.88 198.106719 
z
" clip-path="url(#pa139ca4555)" style="fill: #ffffff"/>
   </g>
   <g id="patch_5">
    <path d="M 53.893281 162.177866 
Q 53.893281 198.106719 53.893281 198.106719 
L 290.88 198.106719 
L 290.88 162.177866 
z
" clip-path="url(#pa139ca4555)" style="fill: #ffffff"/>
   </g>
   <g id="patch_6">
    <path d="M 55.617866 413.679842 
Q 55.617866 503.501976 55.617866 503.501976 
L 290.88 503.501976 
L 290.88 413.679842 
z
" clip-path="url(#pa139ca4555)" style="fill: #ffffff"/>
   </g>
   <g id="patch_7">
    <path d="M 91.546719 395.715415 
Q 55.617866 395.715415 55.617866 413.679842 
L 290.88 413.679842 
L 290.88 395.715415 
z
" clip-path="url(#pa139ca4555)" style="fill: #ffffff"/>
   </g>
   <g id="patch_8">
    <path d="M 91.546719 341.822134 
Q 91.546719 377.750988 91.546719 377.750988 
L 290.88 377.750988 
L 290.88 341.822134 
z
" clip-path="url(#pa139ca4555)" style="fill: #ffffff"/>
   </g>
   <g id="patch_9">
    <path d="M 91.546719 377.750988 
Q 91.546719 395.715415 91.546719 395.715415 
L 290.88 395.715415 
L 290.88 377.750988 
z
" clip-path="url(#pa139ca4555)" style="fill: #ffffff"/>
   </g>
   <g id="patch_10">
    <path d="M 91.546719 395.715415 
Q 127.475573 395.715415 127.475573 413.679842 
L 290.88 413.679842 
L 290.88 395.715415 
z
" clip-path="url(#pa139ca4555)" style="fill: #ffffff"/>
   </g>
   <g id="patch_11">
    <path d="M 111.235731 126.249012 
Q 111.235731 234.035573 111.235731 234.035573 
L 290.88 234.035573 
L 290.88 126.249012 
z
" clip-path="url(#pa139ca4555)" style="fill: #ffffff"/>
   </g>
   <g id="patch_12">
    <path d="M 127.475573 413.679842 
Q 127.475573 431.644269 127.475573 431.644269 
L 290.88 431.644269 
L 290.88 413.679842 
z
" clip-path="url(#pa139ca4555)" style="fill: #ffffff"/>
   </g>
   <g id="patch_13">
    <path d="M 129.200158 90.320158 
Q 129.200158 126.249012 129.200158 126.249012 
L 290.88 126.249012 
L 290.88 90.320158 
z
" clip-path="url(#pa139ca4555)" style="fill: #ffffff"/>
   </g>
   <g id="patch_14">
    <path d="M 147.164585 269.964427 
Q 147.164585 305.893281 147.164585 305.893281 
L 290.88 305.893281 
L 290.88 269.964427 
z
" clip-path="url(#pa139ca4555)" style="fill: #ffffff"/>
   </g>
   <g id="patch_15">
    <path d="M 127.475573 431.644269 
Q 127.475573 467.573123 191.21336 467.573123 
L 290.88 467.573123 
L 290.88 431.644269 
z
" clip-path="url(#pa139ca4555)" style="fill: #ffffff"/>
   </g>
   <g id="patch_16">
    <path d="M 165.129012 305.893281 
Q 165.129012 341.822134 165.129012 341.822134 
L 290.88 341.822134 
L 290.88 305.893281 
z
" clip-path="url(#pa139ca4555)" style="fill: #ffffff"/>
   </g>
   <g id="patch_17">
    <path d="M 183.093439 72.355731 
Q 183.093439 234.035573 183.093439 234.035573 
L 290.88 234.035573 
L 290.88 72.355731 
z
" clip-path="url(#pa139ca4555)" style="fill: #ffffff"/>
   </g>
   <g id="patch_18">
    <path d="M 219.022292 36.426877 
Q 183.093439 36.426877 183.093439 72.355731 
L 290.88 72.355731 
L 290.88 36.426877 
z
" clip-path="url(#pa139ca4555)" style="fill: #ffffff"/>
   </g>
   <g id="patch_19">
    <path d="M 201.057866 234.035573 
Q 201.057866 269.964427 201.057866 269.964427 
L 290.88 269.964427 
L 290.88 234.035573 
z
" clip-path="url(#pa139ca4555)" style="fill: #ffffff"/>
   </g>
   <g id="patch_20">
    <path d="M 254.951146 431.644269 
Q 254.951146 467.573123 191.21336 467.573123 
L 290.88 467.573123 
L 290.88 431.644269 
z
" clip-path="url(#pa139ca4555)" style="fill: #ffffff"/>
   </g>
   <g id="patch_21">
    <path d="M 219.022292 36.426877 
Q 254.951146 36.426877 254.951146 72.355731 
L 290.88 72.355731 
L 290.88 36.426877 
z
" clip-path="url(#pa139ca4555)" style="fill: #ffffff"/>
   </g>
   <g id="patch_22">
    <path d="M 254.951146 72.355731 
Q 254.951146 431.644269 254.951146 431.644269 
L 290.88 431.644269 
L 290.88 72.355731 
z
" clip-path="url(#pa139ca4555)" style="fill: #ffffff"/>
   </g>
   <g id="patch_23">
    <path d="M 219.022292 36.426877 
Q 183.093439 36.426877 183.093439 72.355731 
" clip-path="url(#pa139ca4555)" style="fill: none; stroke: #000000; stroke-linejoin: miter"/>
   </g>
   <g id="patch_24">
    <path d="M 219.022292 36.426877 
Q 254.951146 36.426877 254.951146 72.355731 
" clip-path="url(#pa139ca4555)" style="fill: none; stroke: #000000; stroke-linejoin: miter"/>
   </g>
   <g id="patch_25">
    <path d="M 183.093439 72.355731 
Q 183.093439 234.035573 183.093439 234.035573 
" clip-path="url(#pa139ca4555)" style="fill: none; stroke: #000000; stroke-linejoin: miter"/>
   </g>
   <g id="patch_26">
    <path d="M 254.951146 72.355731 
Q 254.951146 431.644269 254.951146 431.644269 
" clip-path="url(#pa139ca4555)" style="fill: none; stroke: #000000; stroke-linejoin: miter"/>
   </g>
   <g id="patch_27">
    <path d="M 111.235731 126.249012 
Q 111.235731 234.035573 111.235731 234.035573 
" clip-path="url(#pa139ca4555)" style="fill: none; stroke: #000000; stroke-linejoin: miter"/>
   </g>
   <g id="patch_28">
    <path d="M 35.928854 198.106719 
Q 35.928854 305.893281 35.928854 305.893281 
" clip-path="url(#pa139ca4555)" style="fill: none; stroke: #000000; stroke-linejoin: miter"/>
   </g>
   <g id="patch_29">
    <path d="M 147.164585 269.964427 
Q 147.164585 305.893281 147.164585 305.893281 
" clip-path="url(#pa139ca4555)" style="fill: none; stroke: #000000; stroke-linejoin: miter"/>
   </g>
   <g id="patch_30">
    <path d="M 91.546719 341.822134 
Q 91.546719 377.750988 91.546719 377.750988 
" clip-path="url(#pa139ca4555)" style="fill: none; stroke: #000000; stroke-linejoin: miter"/>
   </g>
   <g id="patch_31">
    <path d="M 91.546719 395.715415 
Q 55.617866 395.715415 55.617866 413.679842 
" clip-path="url(#pa139ca4555)" style="fill: none; stroke: #000000; stroke-linejoin: miter"/>
   </g>
   <g id="patch_32">
    <path d="M 91.546719 395.715415 
Q 127.475573 395.715415 127.475573 413.679842 
" clip-path="url(#pa139ca4555)" style="fill: none; stroke: #000000; stroke-linejoin: miter"/>
   </g>
   <g id="patch_33">
    <path d="M 91.546719 377.750988 
Q 91.546719 395.715415 91.546719 395.715415 
" clip-path="url(#pa139ca4555)" style="fill: none; stroke: #000000; stroke-linejoin: miter"/>
   </g>
   <g id="patch_34">
    <path d="M 55.617866 413.679842 
Q 55.617866 503.501976 55.617866 503.501976 
" clip-path="url(#pa139ca4555)" style="fill: none; stroke: #000000; stroke-linejoin: miter"/>
   </g>
   <g id="patch_35">
    <path d="M 127.475573 413.679842 
Q 127.475573 431.644269 127.475573 431.644269 
" clip-path="url(#pa139ca4555)" style="fill: none; stroke: #000000; stroke-linejoin: miter"/>
   </g>
   <g id="patch_36">
    <path d="M 127.475573 431.644269 
Q 127.475573 467.573123 191.21336 467.573123 
" clip-path="url(#pa139ca4555)" style="fill: none; stroke: #000000; stroke-linejoin: miter"/>
   </g>
   <g id="patch_37">
    <path d="M 254.951146 431.644269 
Q 254.951146 467.573123 191.21336 467.573123 
" clip-path="url(#pa139ca4555)" style="fill: none; stroke: #000000; stroke-linejoin: miter"/>
   </g>
   <g id="patch_38">
    <path d="M 93.271304 126.249012 
L 93.271304 90.320158 
L 129.200158 90.320158 
L 129.200158 126.249012 
z
" clip-path="url(#pa139ca4555)" style="fill: #ffffff; stroke: #000000; stroke-linejoin: miter"/>
   </g>
   <g id="patch_39">
    <path d="M 17.964427 198.106719 
L 17.964427 162.177866 
L 53.893281 162.177866 
L 53.893281 198.106719 
z
" clip-path="url(#pa139ca4555)" style="fill: #ffffff; stroke: #000000; stroke-linejoin: miter"/>
   </g>
   <g id="patch_40">
    <path d="M 93.271304 269.964427 
L 93.271304 234.035573 
L 201.057866 234.035573 
L 201.057866 269.964427 
z
" clip-path="url(#pa139ca4555)" style="fill: #ffffff; stroke: #000000; stroke-linejoin: miter"/>
   </g>
   <g id="patch_41">
    <path d="M 17.964427 341.822134 
L 17.964427 305.893281 
L 165.129012 305.893281 
L 165.129012 341.822134 
z
" clip-path="url(#pa139ca4555)" style="fill: #ffffff; stroke: #000000; stroke-linejoin: miter"/>
   </g>
   <g id="PathCollection_1">
    <defs>
     <path id="mca696b156f" d="M 0 5.324472 
C 1.412066 5.324472 2.766488 4.763452 3.76497 3.76497 
C 4.763452 2.766488 5.324472 1.412066 5.324472 0 
C 5.324472 -1.412066 4.763452 -2.766488 3.76497 -3.76497 
C 2.766488 -4.763452 1.412066 -5.324472 0 -5.324472 
C -1.412066 -5.324472 -2.766488 -4.763452 -3.76497 -3.76497 
C -4.763452 -2.766488 -5.324472 -1.412066 -5.324472 0 
C -5.324472 1.412066 -4.763452 2.766488 -3.76497 3.76497 
C -2.766488 4.763452 -1.412066 5.324472 0 5.324472 
z
" style="stroke: #000000"/>
    </defs>
    <g clip-path="url(#pa139ca4555)">
     <use xlink:href="#mca696b156f" x="91.546719" y="395.715415" style="stroke: #000000"/>
    </g>
   </g>
   <g id="text_1">
    <!-- x.d -->
    <g transform="translate(187.584545 66.480849) scale(0.1 -0.1)">
     <defs>
      <path id="DejaVuSans-78" d="M 3513 3500 
L 2247 1797 
L 3578 0 
L 2900 0 
L 1881 1375 
L 863 0 
L 184 0 
L 1544 1831 
L 300 3500 
L 978 3500 
L 1906 2253 
L 2834 3500 
L 3513 3500 
z
" transform="scale(0.015625)"/>
      <path id="DejaVuSans-2e" d="M 684 794 
L 1344 794 
L 1344 0 
L 684 0 
L 684 794 
z
" transform="scale(0.015625)"/>
      <path id="DejaVuSans-64" d="M 2906 2969 
L 2906 4863 
L 3481 4863 
L 3481 0 
L 2906 0 
L 2906 525 
Q 2725 213 2448 61 
Q 2172 -91 1784 -91 
Q 1150 -91 751 415 
Q 353 922 353 1747 
Q 353 2572 751 3078 
Q 1150 3584 1784 3584 
Q 2172 3584 2448 3432 
Q 2725 3281 2906 2969 
z
M 947 1747 
Q 947 1113 1208 752 
Q 1469 391 1925 391 
Q 2381 391 2643 752 
Q 2906 1113 2906 1747 
Q 2906 2381 2643 2742 
Q 2381 3103 1925 3103 
Q 1469 3103 1208 2742 
Q 947 2381 947 1747 
z
" transform="scale(0.015625)"/>
     </defs>
     <use xlink:href="#DejaVuSans-78"/>
     <use xlink:href="#DejaVuSans-2e" transform="translate(59.179688 0)"/>
     <use xlink:href="#DejaVuSans-64" transform="translate(90.966797 0)"/>
    </g>
   </g>
   <g id="text_2">
    <!-- x.d -->
    <g transform="translate(259.442253 66.480849) scale(0.1 -0.1)">
     <use xlink:href="#DejaVuSans-78"/>
     <use xlink:href="#DejaVuSans-2e" transform="translate(59.179688 0)"/>
     <use xlink:href="#DejaVuSans-64" transform="translate(90.966797 0)"/>
    </g>
   </g>
   <g id="text_3">
    <!-- x.d -->
    <g transform="translate(115.726838 138.338556) scale(0.1 -0.1)">
     <use xlink:href="#DejaVuSans-78"/>
     <use xlink:href="#DejaVuSans-2e" transform="translate(59.179688 0)"/>
     <use xlink:href="#DejaVuSans-64" transform="translate(90.966797 0)"/>
    </g>
   </g>
   <g id="text_4">
    <!-- x.head -->
    <g transform="translate(40.41996 210.196264) scale(0.1 -0.1)">
     <defs>
      <path id="DejaVuSans-68" d="M 3513 2113 
L 3513 0 
L 2938 0 
L 2938 2094 
Q 2938 2591 2744 2837 
Q 2550 3084 2163 3084 
Q 1697 3084 1428 2787 
Q 1159 2491 1159 1978 
L 1159 0 
L 581 0 
L 581 4863 
L 1159 4863 
L 1159 2956 
Q 1366 3272 1645 3428 
Q 1925 3584 2291 3584 
Q 2894 3584 3203 3211 
Q 3513 2838 3513 2113 
z
" transform="scale(0.015625)"/>
      <path id="DejaVuSans-65" d="M 3597 1894 
L 3597 1613 
L 953 1613 
Q 991 1019 1311 708 
Q 1631 397 2203 397 
Q 2534 397 2845 478 
Q 3156 559 3463 722 
L 3463 178 
Q 3153 47 2828 -22 
Q 2503 -91 2169 -91 
Q 1331 -91 842 396 
Q 353 884 353 1716 
Q 353 2575 817 3079 
Q 1281 3584 2069 3584 
Q 2775 3584 3186 3129 
Q 3597 2675 3597 1894 
z
M 3022 2063 
Q 3016 2534 2758 2815 
Q 2500 3097 2075 3097 
Q 1594 3097 1305 2825 
Q 1016 2553 972 2059 
L 3022 2063 
z
" transform="scale(0.015625)"/>
      <path id="DejaVuSans-61" d="M 2194 1759 
Q 1497 1759 1228 1600 
Q 959 1441 959 1056 
Q 959 750 1161 570 
Q 1363 391 1709 391 
Q 2188 391 2477 730 
Q 2766 1069 2766 1631 
L 2766 1759 
L 2194 1759 
z
M 3341 1997 
L 3341 0 
L 2766 0 
L 2766 531 
Q 2569 213 2275 61 
Q 1981 -91 1556 -91 
Q 1019 -91 701 211 
Q 384 513 384 1019 
Q 384 1609 779 1909 
Q 1175 2209 1959 2209 
L 2766 2209 
L 2766 2266 
Q 2766 2663 2505 2880 
Q 2244 3097 1772 3097 
Q 1472 3097 1187 3025 
Q 903 2953 641 2809 
L 641 3341 
Q 956 3463 1253 3523 
Q 1550 3584 1831 3584 
Q 2591 3584 2966 3190 
Q 3341 2797 3341 1997 
z
" transform="scale(0.015625)"/>
     </defs>
     <use xlink:href="#DejaVuSans-78"/>
     <use xlink:href="#DejaVuSans-2e" transform="translate(59.179688 0)"/>
     <use xlink:href="#DejaVuSans-68" transform="translate(90.966797 0)"/>
     <use xlink:href="#DejaVuSans-65" transform="translate(154.345703 0)"/>
     <use xlink:href="#DejaVuSans-61" transform="translate(215.869141 0)"/>
     <use xlink:href="#DejaVuSans-64" transform="translate(277.148438 0)"/>
    </g>
   </g>
   <g id="text_5">
    <!-- x.d -->
    <g transform="translate(151.655692 282.053971) scale(0.1 -0.1)">
     <use xlink:href="#DejaVuSans-78"/>
     <use xlink:href="#DejaVuSans-2e" transform="translate(59.179688 0)"/>
     <use xlink:href="#DejaVuSans-64" transform="translate(90.966797 0)"/>
    </g>
   </g>
   <g id="text_6">
    <!-- x -->
    <g transform="translate(96.037826 353.911679) scale(0.1 -0.1)">
     <use xlink:href="#DejaVuSans-78"/>
    </g>
   </g>
   <g id="text_7">
    <!-- x -->
    <g transform="translate(60.108972 425.769386) scale(0.1 -0.1)">
     <use xlink:href="#DejaVuSans-78"/>
    </g>
   </g>
   <g id="text_8">
    <!-- x -->
    <g transform="translate(131.96668 425.769386) scale(0.1 -0.1)">
     <use xlink:href="#DejaVuSans-78"/>
    </g>
   </g>
   <g id="text_9">
    <!-- rand.d -->
    <g transform="translate(95.00995 111.04396) scale(0.1 -0.1)">
     <defs>
      <path id="DejaVuSans-72" d="M 2631 2963 
Q 2534 3019 2420 3045 
Q 2306 3072 2169 3072 
Q 1681 3072 1420 2755 
Q 1159 2438 1159 1844 
L 1159 0 
L 581 0 
L 581 3500 
L 1159 3500 
L 1159 2956 
Q 1341 3275 1631 3429 
Q 1922 3584 2338 3584 
Q 2397 3584 2469 3576 
Q 2541 3569 2628 3553 
L 2631 2963 
z
" transform="scale(0.015625)"/>
      <path id="DejaVuSans-6e" d="M 3513 2113 
L 3513 0 
L 2938 0 
L 2938 2094 
Q 2938 2591 2744 2837 
Q 2550 3084 2163 3084 
Q 1697 3084 1428 2787 
Q 1159 2491 1159 1978 
L 1159 0 
L 581 0 
L 581 3500 
L 1159 3500 
L 1159 2956 
Q 1366 3272 1645 3428 
Q 1925 3584 2291 3584 
Q 2894 3584 3203 3211 
Q 3513 2838 3513 2113 
z
" transform="scale(0.015625)"/>
     </defs>
     <use xlink:href="#DejaVuSans-72"/>
     <use xlink:href="#DejaVuSans-61" transform="translate(41.113281 0)"/>
     <use xlink:href="#DejaVuSans-6e" transform="translate(102.392578 0)"/>
     <use xlink:href="#DejaVuSans-64" transform="translate(165.771484 0)"/>
     <use xlink:href="#DejaVuSans-2e" transform="translate(229.248047 0)"/>
     <use xlink:href="#DejaVuSans-64" transform="translate(261.035156 0)"/>
    </g>
   </g>
   <g id="text_10">
    <!-- 0 -->
    <g transform="translate(32.747604 182.901667) scale(0.1 -0.1)">
     <defs>
      <path id="DejaVuSans-30" d="M 2034 4250 
Q 1547 4250 1301 3770 
Q 1056 3291 1056 2328 
Q 1056 1369 1301 889 
Q 1547 409 2034 409 
Q 2525 409 2770 889 
Q 3016 1369 3016 2328 
Q 3016 3291 2770 3770 
Q 2525 4250 2034 4250 
z
M 2034 4750 
Q 2819 4750 3233 4129 
Q 3647 3509 3647 2328 
Q 3647 1150 3233 529 
Q 2819 -91 2034 -91 
Q 1250 -91 836 529 
Q 422 1150 422 2328 
Q 422 3509 836 4129 
Q 1250 4750 2034 4750 
z
" transform="scale(0.015625)"/>
     </defs>
     <use xlink:href="#DejaVuSans-30"/>
    </g>
   </g>
   <g id="text_11">
    <!-- +.d -->
    <g transform="translate(138.21146 254.759375) scale(0.1 -0.1)">
     <defs>
      <path id="DejaVuSans-2b" d="M 2944 4013 
L 2944 2272 
L 4684 2272 
L 4684 1741 
L 2944 1741 
L 2944 0 
L 2419 0 
L 2419 1741 
L 678 1741 
L 678 2272 
L 2419 2272 
L 2419 4013 
L 2944 4013 
z
" transform="scale(0.015625)"/>
     </defs>
     <use xlink:href="#DejaVuSans-2b"/>
     <use xlink:href="#DejaVuSans-2e" transform="translate(83.789062 0)"/>
     <use xlink:href="#DejaVuSans-64" transform="translate(115.576172 0)"/>
    </g>
   </g>
   <g id="text_12">
    <!-- FollowedBy(x) -->
    <g transform="translate(56.364688 326.617083) scale(0.1 -0.1)">
     <defs>
      <path id="DejaVuSans-46" d="M 628 4666 
L 3309 4666 
L 3309 4134 
L 1259 4134 
L 1259 2759 
L 3109 2759 
L 3109 2228 
L 1259 2228 
L 1259 0 
L 628 0 
L 628 4666 
z
" transform="scale(0.015625)"/>
      <path id="DejaVuSans-6f" d="M 1959 3097 
Q 1497 3097 1228 2736 
Q 959 2375 959 1747 
Q 959 1119 1226 758 
Q 1494 397 1959 397 
Q 2419 397 2687 759 
Q 2956 1122 2956 1747 
Q 2956 2369 2687 2733 
Q 2419 3097 1959 3097 
z
M 1959 3584 
Q 2709 3584 3137 3096 
Q 3566 2609 3566 1747 
Q 3566 888 3137 398 
Q 2709 -91 1959 -91 
Q 1206 -91 779 398 
Q 353 888 353 1747 
Q 353 2609 779 3096 
Q 1206 3584 1959 3584 
z
" transform="scale(0.015625)"/>
      <path id="DejaVuSans-6c" d="M 603 4863 
L 1178 4863 
L 1178 0 
L 603 0 
L 603 4863 
z
" transform="scale(0.015625)"/>
      <path id="DejaVuSans-77" d="M 269 3500 
L 844 3500 
L 1563 769 
L 2278 3500 
L 2956 3500 
L 3675 769 
L 4391 3500 
L 4966 3500 
L 4050 0 
L 3372 0 
L 2619 2869 
L 1863 0 
L 1184 0 
L 269 3500 
z
" transform="scale(0.015625)"/>
      <path id="DejaVuSans-42" d="M 1259 2228 
L 1259 519 
L 2272 519 
Q 2781 519 3026 730 
Q 3272 941 3272 1375 
Q 3272 1813 3026 2020 
Q 2781 2228 2272 2228 
L 1259 2228 
z
M 1259 4147 
L 1259 2741 
L 2194 2741 
Q 2656 2741 2882 2914 
Q 3109 3088 3109 3444 
Q 3109 3797 2882 3972 
Q 2656 4147 2194 4147 
L 1259 4147 
z
M 628 4666 
L 2241 4666 
Q 2963 4666 3353 4366 
Q 3744 4066 3744 3513 
Q 3744 3084 3544 2831 
Q 3344 2578 2956 2516 
Q 3422 2416 3680 2098 
Q 3938 1781 3938 1306 
Q 3938 681 3513 340 
Q 3088 0 2303 0 
L 628 0 
L 628 4666 
z
" transform="scale(0.015625)"/>
      <path id="DejaVuSans-79" d="M 2059 -325 
Q 1816 -950 1584 -1140 
Q 1353 -1331 966 -1331 
L 506 -1331 
L 506 -850 
L 844 -850 
Q 1081 -850 1212 -737 
Q 1344 -625 1503 -206 
L 1606 56 
L 191 3500 
L 800 3500 
L 1894 763 
L 2988 3500 
L 3597 3500 
L 2059 -325 
z
" transform="scale(0.015625)"/>
      <path id="DejaVuSans-28" d="M 1984 4856 
Q 1566 4138 1362 3434 
Q 1159 2731 1159 2009 
Q 1159 1288 1364 580 
Q 1569 -128 1984 -844 
L 1484 -844 
Q 1016 -109 783 600 
Q 550 1309 550 2009 
Q 550 2706 781 3412 
Q 1013 4119 1484 4856 
L 1984 4856 
z
" transform="scale(0.015625)"/>
      <path id="DejaVuSans-29" d="M 513 4856 
L 1013 4856 
Q 1481 4119 1714 3412 
Q 1947 2706 1947 2009 
Q 1947 1309 1714 600 
Q 1481 -109 1013 -844 
L 513 -844 
Q 928 -128 1133 580 
Q 1338 1288 1338 2009 
Q 1338 2731 1133 3434 
Q 928 4138 513 4856 
z
" transform="scale(0.015625)"/>
     </defs>
     <use xlink:href="#DejaVuSans-46"/>
     <use xlink:href="#DejaVuSans-6f" transform="translate(53.894531 0)"/>
     <use xlink:href="#DejaVuSans-6c" transform="translate(115.076172 0)"/>
     <use xlink:href="#DejaVuSans-6c" transform="translate(142.859375 0)"/>
     <use xlink:href="#DejaVuSans-6f" transform="translate(170.642578 0)"/>
     <use xlink:href="#DejaVuSans-77" transform="translate(231.824219 0)"/>
     <use xlink:href="#DejaVuSans-65" transform="translate(313.611328 0)"/>
     <use xlink:href="#DejaVuSans-64" transform="translate(375.134766 0)"/>
     <use xlink:href="#DejaVuSans-42" transform="translate(438.611328 0)"/>
     <use xlink:href="#DejaVuSans-79" transform="translate(507.214844 0)"/>
     <use xlink:href="#DejaVuSans-28" transform="translate(566.394531 0)"/>
     <use xlink:href="#DejaVuSans-78" transform="translate(605.408203 0)"/>
     <use xlink:href="#DejaVuSans-29" transform="translate(664.587891 0)"/>
    </g>
   </g>
  </g>
 </g>
 <defs>
  <clipPath id="pa139ca4555">
   <rect x="0" y="0.498024" width="290.88" height="503.003953"/>
  </clipPath>
 </defs>
</svg>
