<?xml version="1.0" encoding="utf-8" standalone="no"?>
<!DOCTYPE svg PUBLIC "-//W3C//DTD SVG 1.1//EN"
  "http://www.w3.org/Graphics/SVG/1.1/DTD/svg11.dtd">
<svg xmlns:xlink="http://www.w3.org/1999/xlink" width="504pt" height="288pt" viewBox="0 0 504 288" xmlns="http://www.w3.org/2000/svg" version="1.1">
 <metadata>
  <rdf:RDF xmlns:dc="http://purl.org/dc/elements/1.1/" xmlns:cc="http://creativecommons.org/ns#" xmlns:rdf="http://www.w3.org/1999/02/22-rdf-syntax-ns#">
   <cc:Work>
    <dc:type rdf:resource="http://purl.org/dc/dcmitype/StillImage"/>
    <dc:format>image/svg+xml</dc:format>
    <dc:creator>
     <cc:Agent>
      <dc:title>Matplotlib v3.10.9, https://matplotlib.org/</dc:title>
     </cc:Agent>
    </dc:creator>
   </cc:Work>
  </rdf:RDF>
 </metadata>
 <defs>
  <style type="text/css">*{stroke-linejoin: round; stroke-linecap: butt}</style>
 </defs>
 <g id="figure_1">
  <g id="patch_1">
   <path d="M 0 288 
L 504 288 
L 504 0 
L 0 0 
z
" style="fill: #ffffff"/>
  </g>
  <g id="axes_1">
   <g id="patch_2">
    <path d="M 0 288 
L 504 288 
L 504 0 
L 0 0 
z
" clip-path="url(#p4ebe773069)" style="fill: #ffffff; stroke: #ffffff; stroke-linejoin: miter"/>
   </g>
   <g id="patch_3">
    <path d="M 0 288 
Q 0 0 0 0 
L 504 0 
L 504 288 
z
" clip-path="url(#p4ebe773069)" style="fill: #ffffff"/>
   </g>
   <g id="patch_4">
    <path d="M 36 0 
Q 36 90 36 90 
L 504 90 
L 504 0 
z
" clip-path="url(#p4ebe773069)" style="fill: #ffffff"/>
   </g>
   <g id="patch_5">
    <path d="M 36 126 
Q 36 288 36 288 
L 504 288 
L 504 126 
z
" clip-path="url(#p4ebe773069)" style="fill: #ffffff"/>
   </g>
   <g id="patch_6">
    <path d="M 108 72 
Q 108 90 108 90 
L 504 90 
L 504 72 
z
" clip-path="url(#p4ebe773069)" style="fill: #ffffff"/>
   </g>
   <g id="patch_7">
    <path d="M 108 126 
Q 108 162 108 162 
L 504 162 
L 504 126 
z
" clip-path="url(#p4ebe773069)" style="fill: #ffffff"/>
   </g>
   <g id="patch_8">
    <path d="M 108 198 
Q 108 216 108 216 
L 504 216 
L 504 198 
z
" clip-path="url(#p4ebe773069)" style="fill: #ffffff"/>
   </g>
   <g id="patch_9">
    <path d="M 144 36 
Q 108 36 108 72 
L 504 72 
L 504 36 
z
" clip-path="url(#p4ebe773069)" style="fill: #ffffff"/>
   </g>
   <g id="patch_10">
    <path d="M 108 216 
Q 108 252 144 252 
L 504 252 
L 504 216 
z
" clip-path="url(#p4ebe773069)" style="fill: #ffffff"/>
   </g>
   <g id="patch_11">
    <path d="M 126 90 
Q 126 126 126 126 
L 504 126 
L 504 90 
z
" clip-path="url(#p4ebe773069)" style="fill: #ffffff"/>
   </g>
   <g id="patch_12">
    <path d="M 126 162 
Q 126 198 126 198 
L 504 198 
L 504 162 
z
" clip-path="url(#p4ebe773069)" style="fill: #ffffff"/>
   </g>
   <g id="patch_13">
    <path d="M 144 36 
Q 180 36 180 72 
L 504 72 
L 504 36 
z
" clip-path="url(#p4ebe773069)" style="fill: #ffffff"/>
   </g>
   <g id="patch_14">
    <path d="M 180 216 
Q 180 252 144 252 
L 504 252 
L 504 216 
z
" clip-path="url(#p4ebe773069)" style="fill: #ffffff"/>
   </g>
   <g id="patch_15">
    <path d="M 180 72 
Q 180 216 180 216 
L 504 216 
L 504 72 
z
" clip-path="url(#p4ebe773069)" style="fill: #ffffff"/>
   </g>
   <g id="patch_16">
    <path d="M 324 0 
Q 324 162 324 162 
L 504 162 
L 504 0 
z
" clip-path="url(#p4ebe773069)" style="fill: #ffffff"/>
   </g>
   <g id="patch_17">
    <path d="M 324 198 
Q 324 288 324 288 
L 504 288 
L 504 198 
z
" clip-path="url(#p4ebe773069)" style="fill: #ffffff"/>
   </g>
   <g id="patch_18">
    <path d="M 396 72 
Q 396 90 396 90 
L 504 90 
L 504 72 
z
" clip-path="url(#p4ebe773069)" style="fill: #ffffff"/>
   </g>
   <g id="patch_19">
    <path d="M 396 126 
Q 396 162 396 162 
L 504 162 
L 504 126 
z
" clip-path="url(#p4ebe773069)" style="fill: #ffffff"/>
   </g>
   <g id="patch_20">
    <path d="M 396 198 
Q 396 216 396 216 
L 504 216 
L 504 198 
z
" clip-path="url(#p4ebe773069)" style="fill: #ffffff"/>
   </g>
   <g id="patch_21">
    <path d="M 432 36 
Q 396 36 396 72 
L 504 72 
L 504 36 
z
" clip-path="url(#p4ebe773069)" style="fill: #ffffff"/>
   </g>
   <g id="patch_22">
    <path d="M 396 216 
Q 396 252 432 252 
L 504 252 
L 504 216 
z
" clip-path="url(#p4ebe773069)" style="fill: #ffffff"/>
   </g>
   <g id="patch_23">
    <path d="M 414 90 
Q 414 126 414 126 
L 504 126 
L 504 90 
z
" clip-path="url(#p4ebe773069)" style="fill: #ffffff"/>
   </g>
   <g id="patch_24">
    <path d="M 414 162 
Q 414 198 414 198 
L 504 198 
L 504 162 
z
" clip-path="url(#p4ebe773069)" style="fill: #ffffff"/>
   </g>
   <g id="patch_25">
    <path d="M 432 36 
Q 468 36 468 72 
L 504 72 
L 504 36 
z
" clip-path="url(#p4ebe773069)" style="fill: #ffffff"/>
   </g>
   <g id="patch_26">
    <path d="M 468 216 
Q 468 252 432 252 
L 504 252 
L 504 216 
z
" clip-path="url(#p4ebe773069)" style="fill: #ffffff"/>
   </g>
   <g id="patch_27">
    <path d="M 468 72 
Q 468 216 468 216 
L 504 216 
L 504 72 
z
" clip-path="url(#p4ebe773069)" style="fill: #ffffff"/>
   </g>
   <g id="patch_28">
    <path d="M 36 0 
Q 36 90 36 90 
" clip-path="url(#p4ebe773069)" style="fill: none; stroke: #000000; stroke-linejoin: miter"/>
   </g>
   <g id="patch_29">
    <path d="M 144 36 
Q 108 36 108 72 
" clip-path="url(#p4ebe773069)" style="fill: none; stroke: #000000; stroke-linejoin: miter"/>
   </g>
   <g id="patch_30">
    <path d="M 144 36 
Q 180 36 180 72 
" clip-path="url(#p4ebe773069)" style="fill: none; stroke: #000000; stroke-linejoin: miter"/>
   </g>
   <g id="patch_31">
    <path d="M 108 72 
Q 108 90 108 90 
" clip-path="url(#p4ebe773069)" style="fill: none; stroke: #000000; stroke-linejoin: miter"/>
   </g>
   <g id="patch_32">
    <path d="M 180 72 
Q 180 216 180 216 
" clip-path="url(#p4ebe773069)" style="fill: none; stroke: #000000; stroke-linejoin: miter"/>
   </g>
   <g id="patch_33">
    <path d="M 36 126 
Q 36 288 36 288 
" clip-path="url(#p4ebe773069)" style="fill: none; stroke: #000000; stroke-linejoin: miter"/>
   </g>
   <g id="patch_34">
    <path d="M 108 126 
Q 108 162 108 162 
" clip-path="url(#p4ebe773069)" style="fill: none; stroke: #000000; stroke-linejoin: miter"/>
   </g>
   <g id="patch_35">
    <path d="M 108 198 
Q 108 216 108 216 
" clip-path="url(#p4ebe773069)" style="fill: none; stroke: #000000; stroke-linejoin: miter"/>
   </g>
   <g id="patch_36">
    <path d="M 108 216 
Q 108 252 144 252 
" clip-path="url(#p4ebe773069)" style="fill: none; stroke: #000000; stroke-linejoin: miter"/>
   </g>
   <g id="patch_37">
    <path d="M 180 216 
Q 180 252 144 252 
" clip-path="url(#p4ebe773069)" style="fill: none; stroke: #000000; stroke-linejoin: miter"/>
   </g>
   <g id="patch_38">
    <path d="M 324 0 
Q 324 162 324 162 
" clip-path="url(#p4ebe773069)" style="fill: none; stroke: #000000; stroke-linejoin: miter"/>
   </g>
   <g id="patch_39">
    <path d="M 432 36 
Q 396 36 396 72 
" clip-path="url(#p4ebe773069)" style="fill: none; stroke: #000000; stroke-linejoin: miter"/>
   </g>
   <g id="patch_40">
    <path d="M 432 36 
Q 468 36 468 72 
" clip-path="url(#p4ebe773069)" style="fill: none; stroke: #000000; stroke-linejoin: miter"/>
   </g>
   <g id="patch_41">
    <path d="M 396 72 
Q 396 90 396 90 
" clip-path="url(#p4ebe773069)" style="fill: none; stroke: #000000; stroke-linejoin: miter"/>
   </g>
   <g id="patch_42">
    <path d="M 468 72 
Q 468 216 468 216 
" clip-path="url(#p4ebe773069)" style="fill: none; stroke: #000000; stroke-linejoin: miter"/>
   </g>
   <g id="patch_43">
    <path d="M 396 126 
Q 396 162 396 162 
" clip-path="url(#p4ebe773069)" style="fill: none; stroke: #000000; stroke-linejoin: miter"/>
   </g>
   <g id="patch_44">
    <path d="M 324 198 
Q 324 288 324 288 
" clip-path="url(#p4ebe773069)" style="fill: none; stroke: #000000; stroke-linejoin: miter"/>
   </g>
   <g id="patch_45">
    <path d="M 396 198 
Q 396 216 396 216 
" clip-path="url(#p4ebe773069)" style="fill: none; stroke: #000000; stroke-linejoin: miter"/>
   </g>
   <g id="patch_46">
    <path d="M 396 216 
Q 396 252 432 252 
" clip-path="url(#p4ebe773069)" style="fill: none; stroke: #000000; stroke-linejoin: miter"/>
   </g>
   <g id="patch_47">
    <path d="M 468 216 
Q 468 252 432 252 
" clip-path="url(#p4ebe773069)" style="fill: none; stroke: #000000; stroke-linejoin: miter"/>
   </g>
   <g id="patch_48">
    <path d="M 18 126 
L 18 90 
L 126 90 
L 126 126 
z
" clip-path="url(#p4ebe773069)" style="fill: #ffffff; stroke: #000000; stroke-linejoin: miter"/>
   </g>
   <g id="patch_49">
    <path d="M 90 198 
L 90 162 
L 126 162 
L 126 198 
z
" clip-path="url(#p4ebe773069)" style="fill: #ffffff; stroke: #000000; stroke-linejoin: miter"/>
   </g>
   <g id="patch_50">
    <path d="M 378 126 
L 378 90 
L 414 90 
L 414 126 
z
" clip-path="url(#p4ebe773069)" style="fill: #ffffff; stroke: #000000; stroke-linejoin: miter"/>
   </g>
   <g id="patch_51">
    <path d="M 306 198 
L 306 162 
L 414 162 
L 414 198 
z
" clip-path="url(#p4ebe773069)" style="fill: #ffffff; stroke: #000000; stroke-linejoin: miter"/>
   </g>
   <g id="PathCollection_1">
    <defs>
     <path id="mdff8cb2796" d="M 0 5.324472 
C 1.412066 5.324472 2.766488 4.763452 3.76497 3.76497 
C 4.763452 2.766488 5.324472 1.412066 5.324472 0 
C 5.324472 -1.412066 4.763452 -2.766488 3.76497 -3.76497 
C 2.766488 -4.763452 1.412066 -5.324472 0 -5.324472 
C -1.412066 -5.324472 -2.766488 -4.763452 -3.76497 -3.76497 
C -4.763452 -2.766488 -5.324472 -1.412066 -5.324472 0 
C -5.324472 1.412066 -4.763452 2.766488 -3.76497 3.76497 
C -2.766488 4.763452 -1.412066 5.324472 0 5.324472 
z
" style="stroke: #ffffff"/>
    </defs>
    <g clip-path="url(#p4ebe773069)">
     <use xlink:href="#mdff8cb2796" x="252" y="144" style="fill: #ffffff; stroke: #ffffff"/>
    </g>
   </g>
   <g id="text_1">
    <!-- f -->
    <g transform="translate(70.239844 110.759375) scale(0.1 -0.1)">
     <defs>
      <path id="DejaVuSans-66" d="M 2375 4863 
L 2375 4384 
L 1825 4384 
Q 1516 4384 1395 4259 
Q 1275 4134 1275 3809 
L 1275 3500 
L 2222 3500 
L 2222 3053 
L 1275 3053 
L 1275 0 
L 697 0 
L 697 3053 
L 147 3053 
L 147 3500 
L 697 3500 
L 697 3744 
Q 697 4328 969 4595 
Q 1241 4863 1831 4863 
L 2375 4863 
z
" transform="scale(0.015625)"/>
     </defs>
     <use xlink:href="#DejaVuSans-66"/>
    </g>
   </g>
   <g id="text_2">
    <!-- h -->
    <g transform="translate(104.83125 182.759375) scale(0.1 -0.1)">
     <defs>
      <path id="DejaVuSans-68" d="M 3513 2113 
L 3513 0 
L 2938 0 
L 2938 2094 
Q 2938 2591 2744 2837 
Q 2550 3084 2163 3084 
Q 1697 3084 1428 2787 
Q 1159 2491 1159 1978 
L 1159 0 
L 581 0 
L 581 4863 
L 1159 4863 
L 1159 2956 
Q 1366 3272 1645 3428 
Q 1925 3584 2291 3584 
Q 2894 3584 3203 3211 
Q 3513 2838 3513 2113 
z
" transform="scale(0.015625)"/>
     </defs>
     <use xlink:href="#DejaVuSans-68"/>
    </g>
   </g>
   <g id="text_3">
    <!-- h.d -->
    <g transform="translate(388.067969 110.759375) scale(0.1 -0.1)">
     <defs>
      <path id="DejaVuSans-2e" d="M 684 794 
L 1344 794 
L 1344 0 
L 684 0 
L 684 794 
z
" transform="scale(0.015625)"/>
      <path id="DejaVuSans-64" d="M 2906 2969 
L 2906 4863 
L 3481 4863 
L 3481 0 
L 2906 0 
L 2906 525 
Q 2725 213 2448 61 
Q 2172 -91 1784 -91 
Q 1150 -91 751 415 
Q 353 922 353 1747 
Q 353 2572 751 3078 
Q 1150 3584 1784 3584 
Q 2172 3584 2448 3432 
Q 2725 3281 2906 2969 
z
M 947 1747 
Q 947 1113 1208 752 
Q 1469 391 1925 391 
Q 2381 391 2643 752 
Q 2906 1113 2906 1747 
Q 2906 2381 2643 2742 
Q 2381 3103 1925 3103 
Q 1469 3103 1208 2742 
Q 947 2381 947 1747 
z
" transform="scale(0.015625)"/>
     </defs>
     <use xlink:href="#DejaVuSans-68"/>
     <use xlink:href="#DejaVuSans-2e" transform="translate(63.378906 0)"/>
     <use xlink:href="#DejaVuSans-64" transform="translate(95.166016 0)"/>
    </g>
   </g>
   <g id="text_4">
    <!-- f -->
    <g transform="translate(358.239844 182.759375) scale(0.1 -0.1)">
     <use xlink:href="#DejaVuSans-66"/>
    </g>
   </g>
   <g id="text_5">
    <g clip-path="url(#p4ebe773069)">
     <!-- = -->
     <g transform="translate(246.972187 147.31125) scale(0.12 -0.12)">
      <defs>
       <path id="DejaVuSans-3d" d="M 678 2906 
L 4684 2906 
L 4684 2381 
L 678 2381 
L 678 2906 
z
M 678 1631 
L 4684 1631 
L 4684 1100 
L 678 1100 
L 678 1631 
z
" transform="scale(0.015625)"/>
      </defs>
      <use xlink:href="#DejaVuSans-3d"/>
     </g>
    </g>
   </g>
  </g>
 </g>
 <defs>
  <clipPath id="p4ebe773069">
   <rect x="0" y="0" width="504" height="288"/>
  </clipPath>
 </defs>
</svg>
