<?xml version="1.0" encoding="utf-8" standalone="no"?>
<!DOCTYPE svg PUBLIC "-//W3C//DTD SVG 1.1//EN"
  "http://www.w3.org/Graphics/SVG/1.1/DTD/svg11.dtd">
<svg xmlns:xlink="http://www.w3.org/1999/xlink" width="648pt" height="576pt" viewBox="0 0 648 576" xmlns="http://www.w3.org/2000/svg" version="1.1">
 <metadata>
  <rdf:RDF xmlns:dc="http://purl.org/dc/elements/1.1/" xmlns:cc="http://creativecommons.org/ns#" xmlns:rdf="http://www.w3.org/1999/02/22-rdf-syntax-ns#">
   <cc:Work>
    <dc:type rdf:resource="http://purl.org/dc/dcmitype/StillImage"/>
    <dc:format>image/svg+xml</dc:format>
    <dc:creator>
     <cc:Agent>
      <dc:title>Matplotlib v3.10.9, https://matplotlib.org/</dc:title>
     </cc:Agent>
    </dc:creator>
   </cc:Work>
  </rdf:RDF>
 </metadata>
 <defs>
  <style type="text/css">*{stroke-linejoin: round; stroke-linecap: butt}</style>
 </defs>
 <g id="figure_1">
  <g id="patch_1">
   <path d="M 0 576 
L 648 576 
L 648 0 
L 0 0 
z
" style="fill: #ffffff"/>
  </g>
  <g id="axes_1">
   <g id="patch_2">
    <path d="M 0 576 
L 648 576 
L 648 0 
L 0 0 
z
" clip-path="url(#pe38bc47f55)" style="fill: #ffffff; stroke: #ffffff; stroke-linejoin: miter"/>
   </g>
   <g id="patch_3">
    <path d="M 0 576 
Q 0 0 0 0 
L 648 0 
L 648 576 
z
" clip-path="url(#pe38bc47f55)" style="fill: #ffffff"/>
   </g>
   <g id="patch_4">
    <path d="M 36 54 
Q 36 576 36 576 
L 648 576 
L 648 54 
z
" clip-path="url(#pe38bc47f55)" style="fill: #ffffff"/>
   </g>
   <g id="patch_5">
    <path d="M 72 0 
Q 72 18 72 18 
L 648 18 
L 648 0 
z
" clip-path="url(#pe38bc47f55)" style="fill: #ffffff"/>
   </g>
   <g id="patch_6">
    <path d="M 108 54 
Q 108 90 108 90 
L 648 90 
L 648 54 
z
" clip-path="url(#pe38bc47f55)" style="fill: #ffffff"/>
   </g>
   <g id="patch_7">
    <path d="M 108 126 
Q 108 144 108 144 
L 648 144 
L 648 126 
z
" clip-path="url(#pe38bc47f55)" style="fill: #ffffff"/>
   </g>
   <g id="patch_8">
    <path d="M 108 216 
Q 108 234 108 234 
L 648 234 
L 648 216 
z
" clip-path="url(#pe38bc47f55)" style="fill: #ffffff"/>
   </g>
   <g id="patch_9">
    <path d="M 108 270 
Q 108 576 108 576 
L 648 576 
L 648 270 
z
" clip-path="url(#pe38bc47f55)" style="fill: #ffffff"/>
   </g>
   <g id="patch_10">
    <path d="M 144 180 
Q 108 180 108 216 
L 648 216 
L 648 180 
z
" clip-path="url(#pe38bc47f55)" style="fill: #ffffff"/>
   </g>
   <g id="patch_11">
    <path d="M 108 144 
Q 108 180 144 180 
L 648 180 
L 648 144 
z
" clip-path="url(#pe38bc47f55)" style="fill: #ffffff"/>
   </g>
   <g id="patch_12">
    <path d="M 126 18 
Q 126 54 126 54 
L 648 54 
L 648 18 
z
" clip-path="url(#pe38bc47f55)" style="fill: #ffffff"/>
   </g>
   <g id="patch_13">
    <path d="M 126 90 
Q 126 126 126 126 
L 648 126 
L 648 90 
z
" clip-path="url(#pe38bc47f55)" style="fill: #ffffff"/>
   </g>
   <g id="patch_14">
    <path d="M 144 180 
Q 180 180 180 216 
L 648 216 
L 648 180 
z
" clip-path="url(#pe38bc47f55)" style="fill: #ffffff"/>
   </g>
   <g id="patch_15">
    <path d="M 180 144 
Q 180 180 144 180 
L 648 180 
L 648 144 
z
" clip-path="url(#pe38bc47f55)" style="fill: #ffffff"/>
   </g>
   <g id="patch_16">
    <path d="M 180 0 
Q 180 144 180 144 
L 648 144 
L 648 0 
z
" clip-path="url(#pe38bc47f55)" style="fill: #ffffff"/>
   </g>
   <g id="patch_17">
    <path d="M 180 216 
Q 180 234 180 234 
L 648 234 
L 648 216 
z
" clip-path="url(#pe38bc47f55)" style="fill: #ffffff"/>
   </g>
   <g id="patch_18">
    <path d="M 180 270 
Q 180 306 180 306 
L 648 306 
L 648 270 
z
" clip-path="url(#pe38bc47f55)" style="fill: #ffffff"/>
   </g>
   <g id="patch_19">
    <path d="M 180 342 
Q 180 360 180 360 
L 648 360 
L 648 342 
z
" clip-path="url(#pe38bc47f55)" style="fill: #ffffff"/>
   </g>
   <g id="patch_20">
    <path d="M 180 432 
Q 180 450 180 450 
L 648 450 
L 648 432 
z
" clip-path="url(#pe38bc47f55)" style="fill: #ffffff"/>
   </g>
   <g id="patch_21">
    <path d="M 180 486 
Q 180 576 180 576 
L 648 576 
L 648 486 
z
" clip-path="url(#pe38bc47f55)" style="fill: #ffffff"/>
   </g>
   <g id="patch_22">
    <path d="M 216 396 
Q 180 396 180 432 
L 648 432 
L 648 396 
z
" clip-path="url(#pe38bc47f55)" style="fill: #ffffff"/>
   </g>
   <g id="patch_23">
    <path d="M 180 360 
Q 180 396 216 396 
L 648 396 
L 648 360 
z
" clip-path="url(#pe38bc47f55)" style="fill: #ffffff"/>
   </g>
   <g id="patch_24">
    <path d="M 198 234 
Q 198 270 198 270 
L 648 270 
L 648 234 
z
" clip-path="url(#pe38bc47f55)" style="fill: #ffffff"/>
   </g>
   <g id="patch_25">
    <path d="M 198 306 
Q 198 342 198 342 
L 648 342 
L 648 306 
z
" clip-path="url(#pe38bc47f55)" style="fill: #ffffff"/>
   </g>
   <g id="patch_26">
    <path d="M 216 396 
Q 252 396 252 432 
L 648 432 
L 648 396 
z
" clip-path="url(#pe38bc47f55)" style="fill: #ffffff"/>
   </g>
   <g id="patch_27">
    <path d="M 252 360 
Q 252 396 216 396 
L 648 396 
L 648 360 
z
" clip-path="url(#pe38bc47f55)" style="fill: #ffffff"/>
   </g>
   <g id="patch_28">
    <path d="M 252 0 
Q 252 360 252 360 
L 648 360 
L 648 0 
z
" clip-path="url(#pe38bc47f55)" style="fill: #ffffff"/>
   </g>
   <g id="patch_29">
    <path d="M 252 432 
Q 252 450 252 450 
L 648 450 
L 648 432 
z
" clip-path="url(#pe38bc47f55)" style="fill: #ffffff"/>
   </g>
   <g id="patch_30">
    <path d="M 252 486 
Q 252 522 252 522 
L 648 522 
L 648 486 
z
" clip-path="url(#pe38bc47f55)" style="fill: #ffffff"/>
   </g>
   <g id="patch_31">
    <path d="M 252 558 
Q 252 576 252 576 
L 648 576 
L 648 558 
z
" clip-path="url(#pe38bc47f55)" style="fill: #ffffff"/>
   </g>
   <g id="patch_32">
    <path d="M 270 450 
Q 270 486 270 486 
L 648 486 
L 648 450 
z
" clip-path="url(#pe38bc47f55)" style="fill: #ffffff"/>
   </g>
   <g id="patch_33">
    <path d="M 270 522 
Q 270 558 270 558 
L 648 558 
L 648 522 
z
" clip-path="url(#pe38bc47f55)" style="fill: #ffffff"/>
   </g>
   <g id="patch_34">
    <path d="M 396 90 
Q 396 576 396 576 
L 648 576 
L 648 90 
z
" clip-path="url(#pe38bc47f55)" style="fill: #ffffff"/>
   </g>
   <g id="patch_35">
    <path d="M 432 0 
Q 432 54 432 54 
L 648 54 
L 648 0 
z
" clip-path="url(#pe38bc47f55)" style="fill: #ffffff"/>
   </g>
   <g id="patch_36">
    <path d="M 468 90 
Q 468 108 468 108 
L 648 108 
L 648 90 
z
" clip-path="url(#pe38bc47f55)" style="fill: #ffffff"/>
   </g>
   <g id="patch_37">
    <path d="M 468 180 
Q 468 270 468 270 
L 648 270 
L 648 180 
z
" clip-path="url(#pe38bc47f55)" style="fill: #ffffff"/>
   </g>
   <g id="patch_38">
    <path d="M 468 306 
Q 468 576 468 576 
L 648 576 
L 648 306 
z
" clip-path="url(#pe38bc47f55)" style="fill: #ffffff"/>
   </g>
   <g id="patch_39">
    <path d="M 504 144 
Q 468 144 468 180 
L 648 180 
L 648 144 
z
" clip-path="url(#pe38bc47f55)" style="fill: #ffffff"/>
   </g>
   <g id="patch_40">
    <path d="M 468 108 
Q 468 144 504 144 
L 648 144 
L 648 108 
z
" clip-path="url(#pe38bc47f55)" style="fill: #ffffff"/>
   </g>
   <g id="patch_41">
    <path d="M 486 54 
Q 486 90 486 90 
L 648 90 
L 648 54 
z
" clip-path="url(#pe38bc47f55)" style="fill: #ffffff"/>
   </g>
   <g id="patch_42">
    <path d="M 504 144 
Q 540 144 540 180 
L 648 180 
L 648 144 
z
" clip-path="url(#pe38bc47f55)" style="fill: #ffffff"/>
   </g>
   <g id="patch_43">
    <path d="M 540 108 
Q 540 144 504 144 
L 648 144 
L 648 108 
z
" clip-path="url(#pe38bc47f55)" style="fill: #ffffff"/>
   </g>
   <g id="patch_44">
    <path d="M 540 0 
Q 540 108 540 108 
L 648 108 
L 648 0 
z
" clip-path="url(#pe38bc47f55)" style="fill: #ffffff"/>
   </g>
   <g id="patch_45">
    <path d="M 540 180 
Q 540 198 540 198 
L 648 198 
L 648 180 
z
" clip-path="url(#pe38bc47f55)" style="fill: #ffffff"/>
   </g>
   <g id="patch_46">
    <path d="M 540 234 
Q 540 270 540 270 
L 648 270 
L 648 234 
z
" clip-path="url(#pe38bc47f55)" style="fill: #ffffff"/>
   </g>
   <g id="patch_47">
    <path d="M 540 306 
Q 540 324 540 324 
L 648 324 
L 648 306 
z
" clip-path="url(#pe38bc47f55)" style="fill: #ffffff"/>
   </g>
   <g id="patch_48">
    <path d="M 540 396 
Q 540 486 540 486 
L 648 486 
L 648 396 
z
" clip-path="url(#pe38bc47f55)" style="fill: #ffffff"/>
   </g>
   <g id="patch_49">
    <path d="M 540 522 
Q 540 576 540 576 
L 648 576 
L 648 522 
z
" clip-path="url(#pe38bc47f55)" style="fill: #ffffff"/>
   </g>
   <g id="patch_50">
    <path d="M 576 360 
Q 540 360 540 396 
L 648 396 
L 648 360 
z
" clip-path="url(#pe38bc47f55)" style="fill: #ffffff"/>
   </g>
   <g id="patch_51">
    <path d="M 540 324 
Q 540 360 576 360 
L 648 360 
L 648 324 
z
" clip-path="url(#pe38bc47f55)" style="fill: #ffffff"/>
   </g>
   <g id="patch_52">
    <path d="M 558 198 
Q 558 234 558 234 
L 648 234 
L 648 198 
z
" clip-path="url(#pe38bc47f55)" style="fill: #ffffff"/>
   </g>
   <g id="patch_53">
    <path d="M 558 270 
Q 558 306 558 306 
L 648 306 
L 648 270 
z
" clip-path="url(#pe38bc47f55)" style="fill: #ffffff"/>
   </g>
   <g id="patch_54">
    <path d="M 576 360 
Q 612 360 612 396 
L 648 396 
L 648 360 
z
" clip-path="url(#pe38bc47f55)" style="fill: #ffffff"/>
   </g>
   <g id="patch_55">
    <path d="M 612 324 
Q 612 360 576 360 
L 648 360 
L 648 324 
z
" clip-path="url(#pe38bc47f55)" style="fill: #ffffff"/>
   </g>
   <g id="patch_56">
    <path d="M 612 0 
Q 612 324 612 324 
L 648 324 
L 648 0 
z
" clip-path="url(#pe38bc47f55)" style="fill: #ffffff"/>
   </g>
   <g id="patch_57">
    <path d="M 612 396 
Q 612 414 612 414 
L 648 414 
L 648 396 
z
" clip-path="url(#pe38bc47f55)" style="fill: #ffffff"/>
   </g>
   <g id="patch_58">
    <path d="M 612 450 
Q 612 486 612 486 
L 648 486 
L 648 450 
z
" clip-path="url(#pe38bc47f55)" style="fill: #ffffff"/>
   </g>
   <g id="patch_59">
    <path d="M 612 522 
Q 612 576 612 576 
L 648 576 
L 648 522 
z
" clip-path="url(#pe38bc47f55)" style="fill: #ffffff"/>
   </g>
   <g id="patch_60">
    <path d="M 630 414 
Q 630 450 630 450 
L 648 450 
L 648 414 
z
" clip-path="url(#pe38bc47f55)" style="fill: #ffffff"/>
   </g>
   <g id="patch_61">
    <path d="M 630 486 
Q 630 522 630 522 
L 648 522 
L 648 486 
z
" clip-path="url(#pe38bc47f55)" style="fill: #ffffff"/>
   </g>
   <g id="patch_62">
    <path d="M 108 144 
C 108 180 180 180 180 216 
" clip-path="url(#pe38bc47f55)" style="fill: none; stroke: #000000; stroke-linejoin: miter"/>
   </g>
   <g id="patch_63">
    <path d="M 180 144 
C 180 180 108 180 108 216 
" clip-path="url(#pe38bc47f55)" style="fill: none; stroke: #000000; stroke-linejoin: miter"/>
   </g>
   <g id="patch_64">
    <path d="M 180 360 
C 180 396 252 396 252 432 
" clip-path="url(#pe38bc47f55)" style="fill: none; stroke: #000000; stroke-linejoin: miter"/>
   </g>
   <g id="patch_65">
    <path d="M 252 360 
C 252 396 180 396 180 432 
" clip-path="url(#pe38bc47f55)" style="fill: none; stroke: #000000; stroke-linejoin: miter"/>
   </g>
   <g id="patch_66">
    <path d="M 468 108 
C 468 144 540 144 540 180 
" clip-path="url(#pe38bc47f55)" style="fill: none; stroke: #000000; stroke-linejoin: miter"/>
   </g>
   <g id="patch_67">
    <path d="M 540 108 
C 540 144 468 144 468 180 
" clip-path="url(#pe38bc47f55)" style="fill: none; stroke: #000000; stroke-linejoin: miter"/>
   </g>
   <g id="patch_68">
    <path d="M 540 324 
C 540 360 612 360 612 396 
" clip-path="url(#pe38bc47f55)" style="fill: none; stroke: #000000; stroke-linejoin: miter"/>
   </g>
   <g id="patch_69">
    <path d="M 612 324 
C 612 360 540 360 540 396 
" clip-path="url(#pe38bc47f55)" style="fill: none; stroke: #000000; stroke-linejoin: miter"/>
   </g>
   <g id="patch_70">
    <path d="M 72 0 
Q 72 18 72 18 
" clip-path="url(#pe38bc47f55)" style="fill: none; stroke: #000000; stroke-linejoin: miter"/>
   </g>
   <g id="patch_71">
    <path d="M 36 54 
Q 36 576 36 576 
" clip-path="url(#pe38bc47f55)" style="fill: none; stroke: #000000; stroke-linejoin: miter"/>
   </g>
   <g id="patch_72">
    <path d="M 108 54 
Q 108 90 108 90 
" clip-path="url(#pe38bc47f55)" style="fill: none; stroke: #000000; stroke-linejoin: miter"/>
   </g>
   <g id="patch_73">
    <path d="M 180 0 
Q 180 144 180 144 
" clip-path="url(#pe38bc47f55)" style="fill: none; stroke: #000000; stroke-linejoin: miter"/>
   </g>
   <g id="patch_74">
    <path d="M 252 0 
Q 252 360 252 360 
" clip-path="url(#pe38bc47f55)" style="fill: none; stroke: #000000; stroke-linejoin: miter"/>
   </g>
   <g id="patch_75">
    <path d="M 108 126 
Q 108 144 108 144 
" clip-path="url(#pe38bc47f55)" style="fill: none; stroke: #000000; stroke-linejoin: miter"/>
   </g>
   <g id="patch_76">
    <path d="M 108 216 
Q 108 234 108 234 
" clip-path="url(#pe38bc47f55)" style="fill: none; stroke: #000000; stroke-linejoin: miter"/>
   </g>
   <g id="patch_77">
    <path d="M 180 216 
Q 180 234 180 234 
" clip-path="url(#pe38bc47f55)" style="fill: none; stroke: #000000; stroke-linejoin: miter"/>
   </g>
   <g id="patch_78">
    <path d="M 108 270 
Q 108 576 108 576 
" clip-path="url(#pe38bc47f55)" style="fill: none; stroke: #000000; stroke-linejoin: miter"/>
   </g>
   <g id="patch_79">
    <path d="M 180 270 
Q 180 306 180 306 
" clip-path="url(#pe38bc47f55)" style="fill: none; stroke: #000000; stroke-linejoin: miter"/>
   </g>
   <g id="patch_80">
    <path d="M 180 342 
Q 180 360 180 360 
" clip-path="url(#pe38bc47f55)" style="fill: none; stroke: #000000; stroke-linejoin: miter"/>
   </g>
   <g id="patch_81">
    <path d="M 180 432 
Q 180 450 180 450 
" clip-path="url(#pe38bc47f55)" style="fill: none; stroke: #000000; stroke-linejoin: miter"/>
   </g>
   <g id="patch_82">
    <path d="M 252 432 
Q 252 450 252 450 
" clip-path="url(#pe38bc47f55)" style="fill: none; stroke: #000000; stroke-linejoin: miter"/>
   </g>
   <g id="patch_83">
    <path d="M 180 486 
Q 180 576 180 576 
" clip-path="url(#pe38bc47f55)" style="fill: none; stroke: #000000; stroke-linejoin: miter"/>
   </g>
   <g id="patch_84">
    <path d="M 252 486 
Q 252 522 252 522 
" clip-path="url(#pe38bc47f55)" style="fill: none; stroke: #000000; stroke-linejoin: miter"/>
   </g>
   <g id="patch_85">
    <path d="M 252 558 
Q 252 576 252 576 
" clip-path="url(#pe38bc47f55)" style="fill: none; stroke: #000000; stroke-linejoin: miter"/>
   </g>
   <g id="patch_86">
    <path d="M 432 0 
Q 432 54 432 54 
" clip-path="url(#pe38bc47f55)" style="fill: none; stroke: #000000; stroke-linejoin: miter"/>
   </g>
   <g id="patch_87">
    <path d="M 396 90 
Q 396 576 396 576 
" clip-path="url(#pe38bc47f55)" style="fill: none; stroke: #000000; stroke-linejoin: miter"/>
   </g>
   <g id="patch_88">
    <path d="M 468 90 
Q 468 108 468 108 
" clip-path="url(#pe38bc47f55)" style="fill: none; stroke: #000000; stroke-linejoin: miter"/>
   </g>
   <g id="patch_89">
    <path d="M 540 0 
Q 540 108 540 108 
" clip-path="url(#pe38bc47f55)" style="fill: none; stroke: #000000; stroke-linejoin: miter"/>
   </g>
   <g id="patch_90">
    <path d="M 612 0 
Q 612 324 612 324 
" clip-path="url(#pe38bc47f55)" style="fill: none; stroke: #000000; stroke-linejoin: miter"/>
   </g>
   <g id="patch_91">
    <path d="M 468 180 
Q 468 270 468 270 
" clip-path="url(#pe38bc47f55)" style="fill: none; stroke: #000000; stroke-linejoin: miter"/>
   </g>
   <g id="patch_92">
    <path d="M 540 180 
Q 540 198 540 198 
" clip-path="url(#pe38bc47f55)" style="fill: none; stroke: #000000; stroke-linejoin: miter"/>
   </g>
   <g id="patch_93">
    <path d="M 540 234 
Q 540 270 540 270 
" clip-path="url(#pe38bc47f55)" style="fill: none; stroke: #000000; stroke-linejoin: miter"/>
   </g>
   <g id="patch_94">
    <path d="M 468 306 
Q 468 576 468 576 
" clip-path="url(#pe38bc47f55)" style="fill: none; stroke: #000000; stroke-linejoin: miter"/>
   </g>
   <g id="patch_95">
    <path d="M 540 306 
Q 540 324 540 324 
" clip-path="url(#pe38bc47f55)" style="fill: none; stroke: #000000; stroke-linejoin: miter"/>
   </g>
   <g id="patch_96">
    <path d="M 540 396 
Q 540 486 540 486 
" clip-path="url(#pe38bc47f55)" style="fill: none; stroke: #000000; stroke-linejoin: miter"/>
   </g>
   <g id="patch_97">
    <path d="M 612 396 
Q 612 414 612 414 
" clip-path="url(#pe38bc47f55)" style="fill: none; stroke: #000000; stroke-linejoin: miter"/>
   </g>
   <g id="patch_98">
    <path d="M 612 450 
Q 612 486 612 486 
" clip-path="url(#pe38bc47f55)" style="fill: none; stroke: #000000; stroke-linejoin: miter"/>
   </g>
   <g id="patch_99">
    <path d="M 540 522 
Q 540 576 540 576 
" clip-path="url(#pe38bc47f55)" style="fill: none; stroke: #000000; stroke-linejoin: miter"/>
   </g>
   <g id="patch_100">
    <path d="M 612 522 
Q 612 576 612 576 
" clip-path="url(#pe38bc47f55)" style="fill: none; stroke: #000000; stroke-linejoin: miter"/>
   </g>
   <g id="patch_101">
    <path d="M 18 54 
L 18 18 
L 126 18 
L 126 54 
z
" clip-path="url(#pe38bc47f55)" style="fill: #ffffff; stroke: #000000; stroke-linejoin: miter"/>
   </g>
   <g id="patch_102">
    <path d="M 90 126 
L 90 90 
L 126 90 
L 126 126 
z
" clip-path="url(#pe38bc47f55)" style="fill: #ffffff; stroke: #000000; stroke-linejoin: miter"/>
   </g>
   <g id="patch_103">
    <path d="M 90 270 
L 90 234 
L 198 234 
L 198 270 
z
" clip-path="url(#pe38bc47f55)" style="fill: #ffffff; stroke: #000000; stroke-linejoin: miter"/>
   </g>
   <g id="patch_104">
    <path d="M 162 342 
L 162 306 
L 198 306 
L 198 342 
z
" clip-path="url(#pe38bc47f55)" style="fill: #ffffff; stroke: #000000; stroke-linejoin: miter"/>
   </g>
   <g id="patch_105">
    <path d="M 162 486 
L 162 450 
L 270 450 
L 270 486 
z
" clip-path="url(#pe38bc47f55)" style="fill: #ffffff; stroke: #000000; stroke-linejoin: miter"/>
   </g>
   <g id="patch_106">
    <path d="M 234 558 
L 234 522 
L 270 522 
L 270 558 
z
" clip-path="url(#pe38bc47f55)" style="fill: #ffffff; stroke: #000000; stroke-linejoin: miter"/>
   </g>
   <g id="patch_107">
    <path d="M 378 90 
L 378 54 
L 486 54 
L 486 90 
z
" clip-path="url(#pe38bc47f55)" style="fill: #ffffff; stroke: #000000; stroke-linejoin: miter"/>
   </g>
   <g id="patch_108">
    <path d="M 522 234 
L 522 198 
L 558 198 
L 558 234 
z
" clip-path="url(#pe38bc47f55)" style="fill: #ffffff; stroke: #000000; stroke-linejoin: miter"/>
   </g>
   <g id="patch_109">
    <path d="M 450 306 
L 450 270 
L 558 270 
L 558 306 
z
" clip-path="url(#pe38bc47f55)" style="fill: #ffffff; stroke: #000000; stroke-linejoin: miter"/>
   </g>
   <g id="patch_110">
    <path d="M 594 450 
L 594 414 
L 630 414 
L 630 450 
z
" clip-path="url(#pe38bc47f55)" style="fill: #ffffff; stroke: #000000; stroke-linejoin: miter"/>
   </g>
   <g id="patch_111">
    <path d="M 522 522 
L 522 486 
L 630 486 
L 630 522 
z
" clip-path="url(#pe38bc47f55)" style="fill: #ffffff; stroke: #000000; stroke-linejoin: miter"/>
   </g>
   <g id="PathCollection_1">
    <defs>
     <path id="m9d962a009b" d="M 0 4.997499 
C 1.325352 4.997499 2.5966 4.470931 3.533766 3.533766 
C 4.470931 2.5966 4.997499 1.325352 4.997499 0 
C 4.997499 -1.325352 4.470931 -2.5966 3.533766 -3.533766 
C 2.5966 -4.470931 1.325352 -4.997499 0 -4.997499 
C -1.325352 -4.997499 -2.5966 -4.470931 -3.533766 -3.533766 
C -4.470931 -2.5966 -4.997499 -1.325352 -4.997499 0 
C -4.997499 1.325352 -4.470931 2.5966 -3.533766 3.533766 
C -2.5966 4.470931 -1.325352 4.997499 0 4.997499 
z
" style="stroke: #ffffff"/>
    </defs>
    <g clip-path="url(#pe38bc47f55)">
     <use xlink:href="#m9d962a009b" x="324" y="288" style="fill: #ffffff; stroke: #ffffff"/>
    </g>
   </g>
   <g id="text_1">
    <!-- x0 -->
    <g transform="translate(76.5 12.098438) scale(0.1 -0.1)">
     <defs>
      <path id="DejaVuSans-78" d="M 3513 3500 
L 2247 1797 
L 3578 0 
L 2900 0 
L 1881 1375 
L 863 0 
L 184 0 
L 1544 1831 
L 300 3500 
L 978 3500 
L 1906 2253 
L 2834 3500 
L 3513 3500 
z
" transform="scale(0.015625)"/>
      <path id="DejaVuSans-30" d="M 2034 4250 
Q 1547 4250 1301 3770 
Q 1056 3291 1056 2328 
Q 1056 1369 1301 889 
Q 1547 409 2034 409 
Q 2525 409 2770 889 
Q 3016 1369 3016 2328 
Q 3016 3291 2770 3770 
Q 2525 4250 2034 4250 
z
M 2034 4750 
Q 2819 4750 3233 4129 
Q 3647 3509 3647 2328 
Q 3647 1150 3233 529 
Q 2819 -91 2034 -91 
Q 1250 -91 836 529 
Q 422 1150 422 2328 
Q 422 3509 836 4129 
Q 1250 4750 2034 4750 
z
" transform="scale(0.015625)"/>
     </defs>
     <use xlink:href="#DejaVuSans-78"/>
     <use xlink:href="#DejaVuSans-30" transform="translate(59.179688 0)"/>
    </g>
   </g>
   <g id="text_2">
    <!-- y0 -->
    <g transform="translate(40.5 66.098437) scale(0.1 -0.1)">
     <defs>
      <path id="DejaVuSans-79" d="M 2059 -325 
Q 1816 -950 1584 -1140 
Q 1353 -1331 966 -1331 
L 506 -1331 
L 506 -850 
L 844 -850 
Q 1081 -850 1212 -737 
Q 1344 -625 1503 -206 
L 1606 56 
L 191 3500 
L 800 3500 
L 1894 763 
L 2988 3500 
L 3597 3500 
L 2059 -325 
z
" transform="scale(0.015625)"/>
     </defs>
     <use xlink:href="#DejaVuSans-79"/>
     <use xlink:href="#DejaVuSans-30" transform="translate(59.179688 0)"/>
    </g>
   </g>
   <g id="text_3">
    <!-- m0 -->
    <g transform="translate(112.5 66.098437) scale(0.1 -0.1)">
     <defs>
      <path id="DejaVuSans-6d" d="M 3328 2828 
Q 3544 3216 3844 3400 
Q 4144 3584 4550 3584 
Q 5097 3584 5394 3201 
Q 5691 2819 5691 2113 
L 5691 0 
L 5113 0 
L 5113 2094 
Q 5113 2597 4934 2840 
Q 4756 3084 4391 3084 
Q 3944 3084 3684 2787 
Q 3425 2491 3425 1978 
L 3425 0 
L 2847 0 
L 2847 2094 
Q 2847 2600 2669 2842 
Q 2491 3084 2119 3084 
Q 1678 3084 1418 2786 
Q 1159 2488 1159 1978 
L 1159 0 
L 581 0 
L 581 3500 
L 1159 3500 
L 1159 2956 
Q 1356 3278 1631 3431 
Q 1906 3584 2284 3584 
Q 2666 3584 2933 3390 
Q 3200 3197 3328 2828 
z
" transform="scale(0.015625)"/>
     </defs>
     <use xlink:href="#DejaVuSans-6d"/>
     <use xlink:href="#DejaVuSans-30" transform="translate(97.412109 0)"/>
    </g>
   </g>
   <g id="text_4">
    <!-- x1 -->
    <g transform="translate(184.5 12.098438) scale(0.1 -0.1)">
     <defs>
      <path id="DejaVuSans-31" d="M 794 531 
L 1825 531 
L 1825 4091 
L 703 3866 
L 703 4441 
L 1819 4666 
L 2450 4666 
L 2450 531 
L 3481 531 
L 3481 0 
L 794 0 
L 794 531 
z
" transform="scale(0.015625)"/>
     </defs>
     <use xlink:href="#DejaVuSans-78"/>
     <use xlink:href="#DejaVuSans-31" transform="translate(59.179688 0)"/>
    </g>
   </g>
   <g id="text_5">
    <!-- x2 -->
    <g transform="translate(256.5 12.098438) scale(0.1 -0.1)">
     <defs>
      <path id="DejaVuSans-32" d="M 1228 531 
L 3431 531 
L 3431 0 
L 469 0 
L 469 531 
Q 828 903 1448 1529 
Q 2069 2156 2228 2338 
Q 2531 2678 2651 2914 
Q 2772 3150 2772 3378 
Q 2772 3750 2511 3984 
Q 2250 4219 1831 4219 
Q 1534 4219 1204 4116 
Q 875 4013 500 3803 
L 500 4441 
Q 881 4594 1212 4672 
Q 1544 4750 1819 4750 
Q 2544 4750 2975 4387 
Q 3406 4025 3406 3419 
Q 3406 3131 3298 2873 
Q 3191 2616 2906 2266 
Q 2828 2175 2409 1742 
Q 1991 1309 1228 531 
z
" transform="scale(0.015625)"/>
     </defs>
     <use xlink:href="#DejaVuSans-78"/>
     <use xlink:href="#DejaVuSans-32" transform="translate(59.179688 0)"/>
    </g>
   </g>
   <g id="text_6">
    <!-- n0 -->
    <g transform="translate(112.5 138.098437) scale(0.1 -0.1)">
     <defs>
      <path id="DejaVuSans-6e" d="M 3513 2113 
L 3513 0 
L 2938 0 
L 2938 2094 
Q 2938 2591 2744 2837 
Q 2550 3084 2163 3084 
Q 1697 3084 1428 2787 
Q 1159 2491 1159 1978 
L 1159 0 
L 581 0 
L 581 3500 
L 1159 3500 
L 1159 2956 
Q 1366 3272 1645 3428 
Q 1925 3584 2291 3584 
Q 2894 3584 3203 3211 
Q 3513 2838 3513 2113 
z
" transform="scale(0.015625)"/>
     </defs>
     <use xlink:href="#DejaVuSans-6e"/>
     <use xlink:href="#DejaVuSans-30" transform="translate(63.378906 0)"/>
    </g>
   </g>
   <g id="text_7">
    <!-- x1 -->
    <g transform="translate(112.5 210.098437) scale(0.1 -0.1)">
     <use xlink:href="#DejaVuSans-78"/>
     <use xlink:href="#DejaVuSans-31" transform="translate(59.179688 0)"/>
    </g>
   </g>
   <g id="text_8">
    <!-- n0 -->
    <g transform="translate(184.5 210.098437) scale(0.1 -0.1)">
     <use xlink:href="#DejaVuSans-6e"/>
     <use xlink:href="#DejaVuSans-30" transform="translate(63.378906 0)"/>
    </g>
   </g>
   <g id="text_9">
    <!-- y1 -->
    <g transform="translate(112.5 282.098437) scale(0.1 -0.1)">
     <use xlink:href="#DejaVuSans-79"/>
     <use xlink:href="#DejaVuSans-31" transform="translate(59.179688 0)"/>
    </g>
   </g>
   <g id="text_10">
    <!-- m1 -->
    <g transform="translate(184.5 282.098437) scale(0.1 -0.1)">
     <use xlink:href="#DejaVuSans-6d"/>
     <use xlink:href="#DejaVuSans-31" transform="translate(97.412109 0)"/>
    </g>
   </g>
   <g id="text_11">
    <!-- n1 -->
    <g transform="translate(184.5 354.098437) scale(0.1 -0.1)">
     <use xlink:href="#DejaVuSans-6e"/>
     <use xlink:href="#DejaVuSans-31" transform="translate(63.378906 0)"/>
    </g>
   </g>
   <g id="text_12">
    <!-- x2 -->
    <g transform="translate(184.5 426.098437) scale(0.1 -0.1)">
     <use xlink:href="#DejaVuSans-78"/>
     <use xlink:href="#DejaVuSans-32" transform="translate(59.179688 0)"/>
    </g>
   </g>
   <g id="text_13">
    <!-- n1 -->
    <g transform="translate(256.5 426.098437) scale(0.1 -0.1)">
     <use xlink:href="#DejaVuSans-6e"/>
     <use xlink:href="#DejaVuSans-31" transform="translate(63.378906 0)"/>
    </g>
   </g>
   <g id="text_14">
    <!-- y2 -->
    <g transform="translate(184.5 498.098437) scale(0.1 -0.1)">
     <use xlink:href="#DejaVuSans-79"/>
     <use xlink:href="#DejaVuSans-32" transform="translate(59.179688 0)"/>
    </g>
   </g>
   <g id="text_15">
    <!-- m2 -->
    <g transform="translate(256.5 498.098437) scale(0.1 -0.1)">
     <use xlink:href="#DejaVuSans-6d"/>
     <use xlink:href="#DejaVuSans-32" transform="translate(97.412109 0)"/>
    </g>
   </g>
   <g id="text_16">
    <!-- n2 -->
    <g transform="translate(256.5 570.098438) scale(0.1 -0.1)">
     <use xlink:href="#DejaVuSans-6e"/>
     <use xlink:href="#DejaVuSans-32" transform="translate(63.378906 0)"/>
    </g>
   </g>
   <g id="text_17">
    <!-- x0 -->
    <g transform="translate(436.5 12.098438) scale(0.1 -0.1)">
     <use xlink:href="#DejaVuSans-78"/>
     <use xlink:href="#DejaVuSans-30" transform="translate(59.179688 0)"/>
    </g>
   </g>
   <g id="text_18">
    <!-- y0 -->
    <g transform="translate(400.5 102.098437) scale(0.1 -0.1)">
     <use xlink:href="#DejaVuSans-79"/>
     <use xlink:href="#DejaVuSans-30" transform="translate(59.179688 0)"/>
    </g>
   </g>
   <g id="text_19">
    <!-- m0 -->
    <g transform="translate(472.5 102.098437) scale(0.1 -0.1)">
     <use xlink:href="#DejaVuSans-6d"/>
     <use xlink:href="#DejaVuSans-30" transform="translate(97.412109 0)"/>
    </g>
   </g>
   <g id="text_20">
    <!-- x1 -->
    <g transform="translate(544.5 12.098438) scale(0.1 -0.1)">
     <use xlink:href="#DejaVuSans-78"/>
     <use xlink:href="#DejaVuSans-31" transform="translate(59.179688 0)"/>
    </g>
   </g>
   <g id="text_21">
    <!-- x2 -->
    <g transform="translate(616.5 12.098438) scale(0.1 -0.1)">
     <use xlink:href="#DejaVuSans-78"/>
     <use xlink:href="#DejaVuSans-32" transform="translate(59.179688 0)"/>
    </g>
   </g>
   <g id="text_22">
    <!-- x1 -->
    <g transform="translate(472.5 174.098437) scale(0.1 -0.1)">
     <use xlink:href="#DejaVuSans-78"/>
     <use xlink:href="#DejaVuSans-31" transform="translate(59.179688 0)"/>
    </g>
   </g>
   <g id="text_23">
    <!-- m0 -->
    <g transform="translate(544.5 174.098437) scale(0.1 -0.1)">
     <use xlink:href="#DejaVuSans-6d"/>
     <use xlink:href="#DejaVuSans-30" transform="translate(97.412109 0)"/>
    </g>
   </g>
   <g id="text_24">
    <!-- n0 -->
    <g transform="translate(544.5 246.098437) scale(0.1 -0.1)">
     <use xlink:href="#DejaVuSans-6e"/>
     <use xlink:href="#DejaVuSans-30" transform="translate(63.378906 0)"/>
    </g>
   </g>
   <g id="text_25">
    <!-- y1 -->
    <g transform="translate(472.5 318.098437) scale(0.1 -0.1)">
     <use xlink:href="#DejaVuSans-79"/>
     <use xlink:href="#DejaVuSans-31" transform="translate(59.179688 0)"/>
    </g>
   </g>
   <g id="text_26">
    <!-- m1 -->
    <g transform="translate(544.5 318.098437) scale(0.1 -0.1)">
     <use xlink:href="#DejaVuSans-6d"/>
     <use xlink:href="#DejaVuSans-31" transform="translate(97.412109 0)"/>
    </g>
   </g>
   <g id="text_27">
    <!-- x2 -->
    <g transform="translate(544.5 390.098437) scale(0.1 -0.1)">
     <use xlink:href="#DejaVuSans-78"/>
     <use xlink:href="#DejaVuSans-32" transform="translate(59.179688 0)"/>
    </g>
   </g>
   <g id="text_28">
    <!-- m1 -->
    <g transform="translate(616.5 390.098437) scale(0.1 -0.1)">
     <use xlink:href="#DejaVuSans-6d"/>
     <use xlink:href="#DejaVuSans-31" transform="translate(97.412109 0)"/>
    </g>
   </g>
   <g id="text_29">
    <!-- n1 -->
    <g transform="translate(616.5 462.098437) scale(0.1 -0.1)">
     <use xlink:href="#DejaVuSans-6e"/>
     <use xlink:href="#DejaVuSans-31" transform="translate(63.378906 0)"/>
    </g>
   </g>
   <g id="text_30">
    <!-- y2 -->
    <g transform="translate(544.5 534.098438) scale(0.1 -0.1)">
     <use xlink:href="#DejaVuSans-79"/>
     <use xlink:href="#DejaVuSans-32" transform="translate(59.179688 0)"/>
    </g>
   </g>
   <g id="text_31">
    <!-- m2 -->
    <g transform="translate(616.5 534.098438) scale(0.1 -0.1)">
     <use xlink:href="#DejaVuSans-6d"/>
     <use xlink:href="#DejaVuSans-32" transform="translate(97.412109 0)"/>
    </g>
   </g>
   <g id="text_32">
    <!-- f0 -->
    <g transform="translate(67.058594 38.759375) scale(0.1 -0.1)">
     <defs>
      <path id="DejaVuSans-66" d="M 2375 4863 
L 2375 4384 
L 1825 4384 
Q 1516 4384 1395 4259 
Q 1275 4134 1275 3809 
L 1275 3500 
L 2222 3500 
L 2222 3053 
L 1275 3053 
L 1275 0 
L 697 0 
L 697 3053 
L 147 3053 
L 147 3500 
L 697 3500 
L 697 3744 
Q 697 4328 969 4595 
Q 1241 4863 1831 4863 
L 2375 4863 
z
" transform="scale(0.015625)"/>
     </defs>
     <use xlink:href="#DejaVuSans-66"/>
     <use xlink:href="#DejaVuSans-30" transform="translate(35.205078 0)"/>
    </g>
   </g>
   <g id="text_33">
    <!-- h0 -->
    <g transform="translate(101.65 110.759375) scale(0.1 -0.1)">
     <defs>
      <path id="DejaVuSans-68" d="M 3513 2113 
L 3513 0 
L 2938 0 
L 2938 2094 
Q 2938 2591 2744 2837 
Q 2550 3084 2163 3084 
Q 1697 3084 1428 2787 
Q 1159 2491 1159 1978 
L 1159 0 
L 581 0 
L 581 4863 
L 1159 4863 
L 1159 2956 
Q 1366 3272 1645 3428 
Q 1925 3584 2291 3584 
Q 2894 3584 3203 3211 
Q 3513 2838 3513 2113 
z
" transform="scale(0.015625)"/>
     </defs>
     <use xlink:href="#DejaVuSans-68"/>
     <use xlink:href="#DejaVuSans-30" transform="translate(63.378906 0)"/>
    </g>
   </g>
   <g id="text_34">
    <!-- f1 -->
    <g transform="translate(139.058594 254.759375) scale(0.1 -0.1)">
     <use xlink:href="#DejaVuSans-66"/>
     <use xlink:href="#DejaVuSans-31" transform="translate(35.205078 0)"/>
    </g>
   </g>
   <g id="text_35">
    <!-- h1 -->
    <g transform="translate(173.65 326.759375) scale(0.1 -0.1)">
     <use xlink:href="#DejaVuSans-68"/>
     <use xlink:href="#DejaVuSans-31" transform="translate(63.378906 0)"/>
    </g>
   </g>
   <g id="text_36">
    <!-- f2 -->
    <g transform="translate(211.058594 470.759375) scale(0.1 -0.1)">
     <use xlink:href="#DejaVuSans-66"/>
     <use xlink:href="#DejaVuSans-32" transform="translate(35.205078 0)"/>
    </g>
   </g>
   <g id="text_37">
    <!-- h2 -->
    <g transform="translate(245.65 542.759375) scale(0.1 -0.1)">
     <use xlink:href="#DejaVuSans-68"/>
     <use xlink:href="#DejaVuSans-32" transform="translate(63.378906 0)"/>
    </g>
   </g>
   <g id="text_38">
    <!-- f0 -->
    <g transform="translate(427.058594 74.759375) scale(0.1 -0.1)">
     <use xlink:href="#DejaVuSans-66"/>
     <use xlink:href="#DejaVuSans-30" transform="translate(35.205078 0)"/>
    </g>
   </g>
   <g id="text_39">
    <!-- h0 -->
    <g transform="translate(533.65 218.759375) scale(0.1 -0.1)">
     <use xlink:href="#DejaVuSans-68"/>
     <use xlink:href="#DejaVuSans-30" transform="translate(63.378906 0)"/>
    </g>
   </g>
   <g id="text_40">
    <!-- f1 -->
    <g transform="translate(499.058594 290.759375) scale(0.1 -0.1)">
     <use xlink:href="#DejaVuSans-66"/>
     <use xlink:href="#DejaVuSans-31" transform="translate(35.205078 0)"/>
    </g>
   </g>
   <g id="text_41">
    <!-- h1 -->
    <g transform="translate(605.65 434.759375) scale(0.1 -0.1)">
     <use xlink:href="#DejaVuSans-68"/>
     <use xlink:href="#DejaVuSans-31" transform="translate(63.378906 0)"/>
    </g>
   </g>
   <g id="text_42">
    <!-- f2 -->
    <g transform="translate(571.058594 506.759375) scale(0.1 -0.1)">
     <use xlink:href="#DejaVuSans-66"/>
     <use xlink:href="#DejaVuSans-32" transform="translate(35.205078 0)"/>
    </g>
   </g>
   <g id="text_43">
    <g clip-path="url(#pe38bc47f55)">
     <!-- $\sim$ -->
     <g transform="translate(316.62 291.31125) scale(0.12 -0.12)">
      <defs>
       <path id="DejaVuSans-223c" d="M 4684 2556 
L 4684 1997 
Q 4356 1753 4076 1645 
Q 3797 1538 3494 1538 
Q 3150 1538 2694 1722 
Q 2663 1734 2641 1744 
Q 2622 1750 2575 1769 
Q 2091 1959 1797 1959 
Q 1522 1959 1253 1840 
Q 984 1722 678 1459 
L 678 2019 
Q 1006 2263 1286 2370 
Q 1566 2478 1869 2478 
Q 2213 2478 2672 2294 
Q 2706 2278 2722 2272 
Q 2741 2266 2788 2247 
Q 3272 2056 3566 2056 
Q 3834 2056 4098 2173 
Q 4363 2291 4684 2556 
z
" transform="scale(0.015625)"/>
      </defs>
      <use xlink:href="#DejaVuSans-223c" transform="translate(19.482422 0.0625)"/>
     </g>
    </g>
   </g>
  </g>
 </g>
 <defs>
  <clipPath id="pe38bc47f55">
   <rect x="0" y="0" width="648" height="576"/>
  </clipPath>
 </defs>
</svg>
