<?xml version="1.0" encoding="utf-8" standalone="no"?>
<!DOCTYPE svg PUBLIC "-//W3C//DTD SVG 1.1//EN"
  "http://www.w3.org/Graphics/SVG/1.1/DTD/svg11.dtd">
<svg xmlns:xlink="http://www.w3.org/1999/xlink" width="216pt" height="216pt" viewBox="0 0 216 216" xmlns="http://www.w3.org/2000/svg" version="1.1">
 <metadata>
  <rdf:RDF xmlns:dc="http://purl.org/dc/elements/1.1/" xmlns:cc="http://creativecommons.org/ns#" xmlns:rdf="http://www.w3.org/1999/02/22-rdf-syntax-ns#">
   <cc:Work>
    <dc:type rdf:resource="http://purl.org/dc/dcmitype/StillImage"/>
    <dc:format>image/svg+xml</dc:format>
    <dc:creator>
     <cc:Agent>
      <dc:title>Matplotlib v3.10.9, https://matplotlib.org/</dc:title>
     </cc:Agent>
    </dc:creator>
   </cc:Work>
  </rdf:RDF>
 </metadata>
 <defs>
  <style type="text/css">*{stroke-linejoin: round; stroke-linecap: butt}</style>
 </defs>
 <g id="figure_1">
  <g id="patch_1">
   <path d="M 0 216 
L 216 216 
L 216 0 
L 0 0 
z
" style="fill: #ffffff"/>
  </g>
  <g id="axes_1">
   <g id="patch_2">
    <path d="M 0 216 
L 216 216 
L 216 0 
L 0 0 
z
" clip-path="url(#pafddef305a)" style="fill: #ffffff; stroke: #ffffff; stroke-linejoin: miter"/>
   </g>
   <g id="patch_3">
    <path d="M 0 216 
Q 0 0 0 0 
L 216 0 
L 216 216 
z
" clip-path="url(#pafddef305a)" style="fill: #ffffff"/>
   </g>
   <g id="patch_4">
    <path d="M 36 0 
Q 36 72 36 72 
L 216 72 
L 216 0 
z
" clip-path="url(#pafddef305a)" style="fill: #ffffff"/>
   </g>
   <g id="patch_5">
    <path d="M 36 144 
Q 36 216 36 216 
L 216 216 
L 216 144 
z
" clip-path="url(#pafddef305a)" style="fill: #ffffff"/>
   </g>
   <g id="patch_6">
    <path d="M 72 108 
Q 36 108 36 144 
L 216 144 
L 216 108 
z
" clip-path="url(#pafddef305a)" style="fill: #ffffff"/>
   </g>
   <g id="patch_7">
    <path d="M 36 72 
Q 36 108 72 108 
L 216 108 
L 216 72 
z
" clip-path="url(#pafddef305a)" style="fill: #ffffff"/>
   </g>
   <g id="patch_8">
    <path d="M 72 108 
Q 108 108 108 144 
L 216 144 
L 216 108 
z
" clip-path="url(#pafddef305a)" style="fill: #ffffff"/>
   </g>
   <g id="patch_9">
    <path d="M 108 72 
Q 108 108 72 108 
L 216 108 
L 216 72 
z
" clip-path="url(#pafddef305a)" style="fill: #ffffff"/>
   </g>
   <g id="patch_10">
    <path d="M 144 36 
Q 108 36 108 72 
L 216 72 
L 216 36 
z
" clip-path="url(#pafddef305a)" style="fill: #ffffff"/>
   </g>
   <g id="patch_11">
    <path d="M 108 144 
Q 108 180 144 180 
L 216 180 
L 216 144 
z
" clip-path="url(#pafddef305a)" style="fill: #ffffff"/>
   </g>
   <g id="patch_12">
    <path d="M 144 36 
Q 180 36 180 72 
L 216 72 
L 216 36 
z
" clip-path="url(#pafddef305a)" style="fill: #ffffff"/>
   </g>
   <g id="patch_13">
    <path d="M 180 144 
Q 180 180 144 180 
L 216 180 
L 216 144 
z
" clip-path="url(#pafddef305a)" style="fill: #ffffff"/>
   </g>
   <g id="patch_14">
    <path d="M 180 72 
Q 180 144 180 144 
L 216 144 
L 216 72 
z
" clip-path="url(#pafddef305a)" style="fill: #ffffff"/>
   </g>
   <g id="patch_15">
    <path d="M 36 72 
C 36 108 108 108 108 144 
" clip-path="url(#pafddef305a)" style="fill: none; stroke: #000000; stroke-linejoin: miter"/>
   </g>
   <g id="patch_16">
    <path d="M 108 72 
C 108 108 36 108 36 144 
" clip-path="url(#pafddef305a)" style="fill: none; stroke: #000000; stroke-linejoin: miter"/>
   </g>
   <g id="patch_17">
    <path d="M 36 0 
Q 36 72 36 72 
" clip-path="url(#pafddef305a)" style="fill: none; stroke: #000000; stroke-linejoin: miter"/>
   </g>
   <g id="patch_18">
    <path d="M 144 36 
Q 108 36 108 72 
" clip-path="url(#pafddef305a)" style="fill: none; stroke: #000000; stroke-linejoin: miter"/>
   </g>
   <g id="patch_19">
    <path d="M 144 36 
Q 180 36 180 72 
" clip-path="url(#pafddef305a)" style="fill: none; stroke: #000000; stroke-linejoin: miter"/>
   </g>
   <g id="patch_20">
    <path d="M 180 72 
Q 180 144 180 144 
" clip-path="url(#pafddef305a)" style="fill: none; stroke: #000000; stroke-linejoin: miter"/>
   </g>
   <g id="patch_21">
    <path d="M 36 144 
Q 36 216 36 216 
" clip-path="url(#pafddef305a)" style="fill: none; stroke: #000000; stroke-linejoin: miter"/>
   </g>
   <g id="patch_22">
    <path d="M 108 144 
Q 108 180 144 180 
" clip-path="url(#pafddef305a)" style="fill: none; stroke: #000000; stroke-linejoin: miter"/>
   </g>
   <g id="patch_23">
    <path d="M 180 144 
Q 180 180 144 180 
" clip-path="url(#pafddef305a)" style="fill: none; stroke: #000000; stroke-linejoin: miter"/>
   </g>
   <g id="text_1">
    <!-- x -->
    <g transform="translate(40.5 12.098437) scale(0.1 -0.1)">
     <defs>
      <path id="DejaVuSans-78" d="M 3513 3500 
L 2247 1797 
L 3578 0 
L 2900 0 
L 1881 1375 
L 863 0 
L 184 0 
L 1544 1831 
L 300 3500 
L 978 3500 
L 1906 2253 
L 2834 3500 
L 3513 3500 
z
" transform="scale(0.015625)"/>
     </defs>
     <use xlink:href="#DejaVuSans-78"/>
    </g>
   </g>
   <g id="text_2">
    <!-- x.d -->
    <g transform="translate(112.5 66.098437) scale(0.1 -0.1)">
     <defs>
      <path id="DejaVuSans-2e" d="M 684 794 
L 1344 794 
L 1344 0 
L 684 0 
L 684 794 
z
" transform="scale(0.015625)"/>
      <path id="DejaVuSans-64" d="M 2906 2969 
L 2906 4863 
L 3481 4863 
L 3481 0 
L 2906 0 
L 2906 525 
Q 2725 213 2448 61 
Q 2172 -91 1784 -91 
Q 1150 -91 751 415 
Q 353 922 353 1747 
Q 353 2572 751 3078 
Q 1150 3584 1784 3584 
Q 2172 3584 2448 3432 
Q 2725 3281 2906 2969 
z
M 947 1747 
Q 947 1113 1208 752 
Q 1469 391 1925 391 
Q 2381 391 2643 752 
Q 2906 1113 2906 1747 
Q 2906 2381 2643 2742 
Q 2381 3103 1925 3103 
Q 1469 3103 1208 2742 
Q 947 2381 947 1747 
z
" transform="scale(0.015625)"/>
     </defs>
     <use xlink:href="#DejaVuSans-78"/>
     <use xlink:href="#DejaVuSans-2e" transform="translate(59.179688 0)"/>
     <use xlink:href="#DejaVuSans-64" transform="translate(90.966797 0)"/>
    </g>
   </g>
   <g id="text_3">
    <!-- x.d -->
    <g transform="translate(184.5 66.098437) scale(0.1 -0.1)">
     <use xlink:href="#DejaVuSans-78"/>
     <use xlink:href="#DejaVuSans-2e" transform="translate(59.179688 0)"/>
     <use xlink:href="#DejaVuSans-64" transform="translate(90.966797 0)"/>
    </g>
   </g>
   <g id="text_4">
    <!-- x.d -->
    <g transform="translate(40.5 138.098437) scale(0.1 -0.1)">
     <use xlink:href="#DejaVuSans-78"/>
     <use xlink:href="#DejaVuSans-2e" transform="translate(59.179688 0)"/>
     <use xlink:href="#DejaVuSans-64" transform="translate(90.966797 0)"/>
    </g>
   </g>
   <g id="text_5">
    <!-- x -->
    <g transform="translate(112.5 138.098437) scale(0.1 -0.1)">
     <use xlink:href="#DejaVuSans-78"/>
    </g>
   </g>
  </g>
 </g>
 <defs>
  <clipPath id="pafddef305a">
   <rect x="0" y="0" width="216" height="216"/>
  </clipPath>
 </defs>
</svg>
