<?xml version="1.0" encoding="utf-8" standalone="no"?>
<!DOCTYPE svg PUBLIC "-//W3C//DTD SVG 1.1//EN"
  "http://www.w3.org/Graphics/SVG/1.1/DTD/svg11.dtd">
<svg xmlns:xlink="http://www.w3.org/1999/xlink" width="216pt" height="144pt" viewBox="0 0 216 144" xmlns="http://www.w3.org/2000/svg" version="1.1"><style>@media (prefers-color-scheme: dark) { [id^="dark-stroke"], [id^="dark-stroke"] * { stroke: #ffffff !important; } [id^="dark-fill"], [id^="dark-fill"] * { fill: #ffffff !important; } }</style>
 <defs>
  <style type="text/css">*{stroke-linejoin: round; stroke-linecap: butt}</style>
 </defs>
 <g id="figure_1">
  <g id="patch_1">
   <path d="M 0 144 
L 216 144 
L 216 0 
L 0 0 
L 0 144 
z
" style="fill: none"/>
  </g>
  <g id="axes_1">
   <g id="patch_2">
    <path d="M 0 144 
L 216 144 
L 216 0 
L 0 0 
L 0 144 
z
" clip-path="url(#p73fb16c204)" style="fill: none"/>
   </g>
   <g id="dark-stroke-2">
    <path d="M 36 0 
Q 36 18 36 18 
" clip-path="url(#p73fb16c204)" style="fill: none; stroke: #ffffff; stroke-width: 3; stroke-linejoin: miter"/>
    <path d="M 36 0 
Q 36 18 36 18 
" clip-path="url(#p73fb16c204)" style="fill: none; stroke: #000000; stroke-linejoin: miter"/>
   </g>
   <g id="dark-stroke-4">
    <path d="M 108 0 
Q 108 18 108 18 
" clip-path="url(#p73fb16c204)" style="fill: none; stroke: #ffffff; stroke-width: 3; stroke-linejoin: miter"/>
    <path d="M 108 0 
Q 108 18 108 18 
" clip-path="url(#p73fb16c204)" style="fill: none; stroke: #000000; stroke-linejoin: miter"/>
   </g>
   <g id="dark-stroke-6">
    <path d="M 72 54 
Q 72 90 72 90 
" clip-path="url(#p73fb16c204)" style="fill: none; stroke: #ffffff; stroke-width: 3; stroke-linejoin: miter"/>
    <path d="M 72 54 
Q 72 90 72 90 
" clip-path="url(#p73fb16c204)" style="fill: none; stroke: #000000; stroke-linejoin: miter"/>
   </g>
   <g id="dark-stroke-8">
    <path d="M 180 0 
Q 180 90 180 90 
" clip-path="url(#p73fb16c204)" style="fill: none; stroke: #ffffff; stroke-width: 3; stroke-linejoin: miter"/>
    <path d="M 180 0 
Q 180 90 180 90 
" clip-path="url(#p73fb16c204)" style="fill: none; stroke: #000000; stroke-linejoin: miter"/>
   </g>
   <g id="dark-stroke-10">
    <path d="M 126 126 
Q 126 144 126 144 
" clip-path="url(#p73fb16c204)" style="fill: none; stroke: #ffffff; stroke-width: 3; stroke-linejoin: miter"/>
    <path d="M 126 126 
Q 126 144 126 144 
" clip-path="url(#p73fb16c204)" style="fill: none; stroke: #000000; stroke-linejoin: miter"/>
   </g>
   <g id="patch_3">
    <path d="M 18 54 
L 18 18 
L 126 18 
L 126 54 
z
" clip-path="url(#p73fb16c204)" style="fill: #ffffff; stroke: #000000; stroke-linejoin: miter"/>
   </g>
   <g id="patch_4">
    <path d="M 54 126 
L 54 90 
L 198 90 
L 198 126 
z
" clip-path="url(#p73fb16c204)" style="fill: #ffffff; stroke: #000000; stroke-linejoin: miter"/>
   </g>
   <g id="dark-fill-1">
    <path d="M 45.989063 6.629687 
L 44.010937 9.290625 
L 46.090625 12.098437 
L 45.03125 12.098437 
L 43.439062 9.95 
L 41.848438 12.098437 
L 40.7875 12.098437 
L 42.9125 9.2375 
L 40.96875 6.629687 
L 42.028125 6.629687 
L 43.478125 8.578125 
L 44.928125 6.629687 
L 45.989063 6.629687 
z
" style="stroke: #ffffff; stroke-width: 2"/>
    <path d="M 45.989063 6.629687 
L 44.010937 9.290625 
L 46.090625 12.098437 
L 45.03125 12.098437 
L 43.439062 9.95 
L 41.848438 12.098437 
L 40.7875 12.098437 
L 42.9125 9.2375 
L 40.96875 6.629687 
L 42.028125 6.629687 
L 43.478125 8.578125 
L 44.928125 6.629687 
L 45.989063 6.629687 
z
"/>
   </g>
   <g id="dark-fill-3">
    <path d="M 114.310937 11.278125 
L 114.310937 14.178125 
L 113.407813 14.178125 
L 113.407813 6.629687 
L 114.310937 6.629687 
L 114.310937 7.459375 
Q 114.595313 6.971875 115.026562 6.735937 
Q 115.459375 6.498437 116.059375 6.498437 
Q 117.05625 6.498437 117.678125 7.289062 
Q 118.301563 8.079687 118.301563 9.36875 
Q 118.301563 10.657812 117.678125 11.45 
Q 117.05625 12.240625 116.059375 12.240625 
Q 115.459375 12.240625 115.026562 12.003125 
Q 114.595313 11.765625 114.310937 11.278125 
z
M 117.36875 9.36875 
Q 117.36875 8.378125 116.960938 7.814062 
Q 116.553125 7.25 115.840625 7.25 
Q 115.126563 7.25 114.71875 7.814062 
Q 114.310937 8.378125 114.310937 9.36875 
Q 114.310937 10.359375 114.71875 10.923437 
Q 115.126563 11.4875 115.840625 11.4875 
Q 116.553125 11.4875 116.960938 10.923437 
Q 117.36875 10.359375 117.36875 9.36875 
z
" style="stroke: #ffffff; stroke-width: 2"/>
    <path d="M 114.310937 11.278125 
L 114.310937 14.178125 
L 113.407813 14.178125 
L 113.407813 6.629687 
L 114.310937 6.629687 
L 114.310937 7.459375 
Q 114.595313 6.971875 115.026562 6.735937 
Q 115.459375 6.498437 116.059375 6.498437 
Q 117.05625 6.498437 117.678125 7.289062 
Q 118.301563 8.079687 118.301563 9.36875 
Q 118.301563 10.657812 117.678125 11.45 
Q 117.05625 12.240625 116.059375 12.240625 
Q 115.459375 12.240625 115.026562 12.003125 
Q 114.595313 11.765625 114.310937 11.278125 
z
M 117.36875 9.36875 
Q 117.36875 8.378125 116.960938 7.814062 
Q 116.553125 7.25 115.840625 7.25 
Q 115.126563 7.25 114.71875 7.814062 
Q 114.310937 8.378125 114.310937 9.36875 
Q 114.310937 10.359375 114.71875 10.923437 
Q 115.126563 11.4875 115.840625 11.4875 
Q 116.553125 11.4875 116.960938 10.923437 
Q 117.36875 10.359375 117.36875 9.36875 
z
"/>
   </g>
   <g id="dark-fill-5">
    <path d="M 79.717187 66.60625 
Q 79.3375 67.582813 78.975 67.879688 
Q 78.614063 68.178125 78.009375 68.178125 
L 77.290625 68.178125 
L 77.290625 67.426563 
L 77.81875 67.426563 
Q 78.189063 67.426563 78.39375 67.25 
Q 78.6 67.075 78.848438 66.420313 
L 79.009375 66.010937 
L 76.798438 60.629688 
L 77.75 60.629688 
L 79.459375 64.90625 
L 81.16875 60.629688 
L 82.120312 60.629688 
L 79.717187 66.60625 
z
" style="stroke: #ffffff; stroke-width: 2"/>
    <path d="M 79.717187 66.60625 
Q 79.3375 67.582813 78.975 67.879688 
Q 78.614063 68.178125 78.009375 68.178125 
L 77.290625 68.178125 
L 77.290625 67.426563 
L 77.81875 67.426563 
Q 78.189063 67.426563 78.39375 67.25 
Q 78.6 67.075 78.848438 66.420313 
L 79.009375 66.010937 
L 76.798438 60.629688 
L 77.75 60.629688 
L 79.459375 64.90625 
L 81.16875 60.629688 
L 82.120312 60.629688 
L 79.717187 66.60625 
z
"/>
   </g>
   <g id="dark-fill-7">
    <path d="M 185.979688 9.36875 
Q 185.979688 10.359375 186.3875 10.923437 
Q 186.795312 11.4875 187.507812 11.4875 
Q 188.220313 11.4875 188.629687 10.923437 
Q 189.040625 10.359375 189.040625 9.36875 
Q 189.040625 8.378125 188.629687 7.814062 
Q 188.220313 7.25 187.507812 7.25 
Q 186.795312 7.25 186.3875 7.814062 
Q 185.979688 8.378125 185.979688 9.36875 
z
M 189.040625 11.278125 
Q 188.757812 11.765625 188.325 12.003125 
Q 187.89375 12.240625 187.2875 12.240625 
Q 186.296875 12.240625 185.673438 11.45 
Q 185.051562 10.657812 185.051562 9.36875 
Q 185.051562 8.079687 185.673438 7.289062 
Q 186.296875 6.498437 187.2875 6.498437 
Q 187.89375 6.498437 188.325 6.735937 
Q 188.757812 6.971875 189.040625 7.459375 
L 189.040625 6.629687 
L 189.939063 6.629687 
L 189.939063 14.178125 
L 189.040625 14.178125 
L 189.040625 11.278125 
z
" style="stroke: #ffffff; stroke-width: 2"/>
    <path d="M 185.979688 9.36875 
Q 185.979688 10.359375 186.3875 10.923437 
Q 186.795312 11.4875 187.507812 11.4875 
Q 188.220313 11.4875 188.629687 10.923437 
Q 189.040625 10.359375 189.040625 9.36875 
Q 189.040625 8.378125 188.629687 7.814062 
Q 188.220313 7.25 187.507812 7.25 
Q 186.795312 7.25 186.3875 7.814062 
Q 185.979688 8.378125 185.979688 9.36875 
z
M 189.040625 11.278125 
Q 188.757812 11.765625 188.325 12.003125 
Q 187.89375 12.240625 187.2875 12.240625 
Q 186.296875 12.240625 185.673438 11.45 
Q 185.051562 10.657812 185.051562 9.36875 
Q 185.051562 8.079687 185.673438 7.289062 
Q 186.296875 6.498437 187.2875 6.498437 
Q 187.89375 6.498437 188.325 6.735937 
Q 188.757812 6.971875 189.040625 7.459375 
L 189.040625 6.629687 
L 189.939063 6.629687 
L 189.939063 14.178125 
L 189.040625 14.178125 
L 189.040625 11.278125 
z
"/>
   </g>
   <g id="dark-fill-9">
    <path d="M 131.051562 132.629687 
L 135.31875 132.629687 
L 135.31875 133.45 
L 131.940625 137.38125 
L 135.31875 137.38125 
L 135.31875 138.098437 
L 130.929688 138.098437 
L 130.929688 137.278125 
L 134.309375 133.346875 
L 131.051562 133.346875 
L 131.051562 132.629687 
z
" style="stroke: #ffffff; stroke-width: 2"/>
    <path d="M 131.051562 132.629687 
L 135.31875 132.629687 
L 135.31875 133.45 
L 131.940625 137.38125 
L 135.31875 137.38125 
L 135.31875 138.098437 
L 130.929688 138.098437 
L 130.929688 137.278125 
L 134.309375 133.346875 
L 131.051562 133.346875 
L 131.051562 132.629687 
z
"/>
   </g>
   <g id="text_1">
    <!-- f -->
    <g transform="translate(70.239844 38.759375) scale(0.1 -0.1)">
     <defs>
      <path id="DejaVuSans-66" d="M 2375 4863 
L 2375 4384 
L 1825 4384 
Q 1516 4384 1395 4259 
Q 1275 4134 1275 3809 
L 1275 3500 
L 2222 3500 
L 2222 3053 
L 1275 3053 
L 1275 0 
L 697 0 
L 697 3053 
L 147 3053 
L 147 3500 
L 697 3500 
L 697 3744 
Q 697 4328 969 4595 
Q 1241 4863 1831 4863 
L 2375 4863 
z
" transform="scale(0.015625)"/>
     </defs>
     <use xlink:href="#DejaVuSans-66"/>
    </g>
   </g>
   <g id="text_2">
    <!-- g -->
    <g transform="translate(122.825781 110.759375) scale(0.1 -0.1)">
     <defs>
      <path id="DejaVuSans-67" d="M 2906 1791 
Q 2906 2416 2648 2759 
Q 2391 3103 1925 3103 
Q 1463 3103 1205 2759 
Q 947 2416 947 1791 
Q 947 1169 1205 825 
Q 1463 481 1925 481 
Q 2391 481 2648 825 
Q 2906 1169 2906 1791 
z
M 3481 434 
Q 3481 -459 3084 -895 
Q 2688 -1331 1869 -1331 
Q 1566 -1331 1297 -1286 
Q 1028 -1241 775 -1147 
L 775 -588 
Q 1028 -725 1275 -790 
Q 1522 -856 1778 -856 
Q 2344 -856 2625 -561 
Q 2906 -266 2906 331 
L 2906 616 
Q 2728 306 2450 153 
Q 2172 0 1784 0 
Q 1141 0 747 490 
Q 353 981 353 1791 
Q 353 2603 747 3093 
Q 1141 3584 1784 3584 
Q 2172 3584 2450 3431 
Q 2728 3278 2906 2969 
L 2906 3500 
L 3481 3500 
L 3481 434 
z
" transform="scale(0.015625)"/>
     </defs>
     <use xlink:href="#DejaVuSans-67"/>
    </g>
   </g>
  </g>
 </g>
 <defs>
  <clipPath id="p73fb16c204">
   <rect x="0" y="0" width="216" height="144"/>
  </clipPath>
 </defs>
</svg>
