<?xml version="1.0" encoding="utf-8" standalone="no"?>
<!DOCTYPE svg PUBLIC "-//W3C//DTD SVG 1.1//EN"
  "http://www.w3.org/Graphics/SVG/1.1/DTD/svg11.dtd">
<svg xmlns:xlink="http://www.w3.org/1999/xlink" width="720pt" height="144pt" viewBox="0 0 720 144" xmlns="http://www.w3.org/2000/svg" version="1.1">
 <metadata>
  <rdf:RDF xmlns:dc="http://purl.org/dc/elements/1.1/" xmlns:cc="http://creativecommons.org/ns#" xmlns:rdf="http://www.w3.org/1999/02/22-rdf-syntax-ns#">
   <cc:Work>
    <dc:type rdf:resource="http://purl.org/dc/dcmitype/StillImage"/>
    <dc:format>image/svg+xml</dc:format>
    <dc:creator>
     <cc:Agent>
      <dc:title>Matplotlib v3.10.9, https://matplotlib.org/</dc:title>
     </cc:Agent>
    </dc:creator>
   </cc:Work>
  </rdf:RDF>
 </metadata>
 <defs>
  <style type="text/css">*{stroke-linejoin: round; stroke-linecap: butt}</style>
 </defs>
 <g id="figure_1">
  <g id="patch_1">
   <path d="M 0 144 
L 720 144 
L 720 0 
L 0 0 
z
" style="fill: #ffffff"/>
  </g>
  <g id="axes_1">
   <g id="patch_2">
    <path d="M 0 144 
L 720 144 
L 720 0 
L 0 0 
z
" clip-path="url(#p4e02c2beb7)" style="fill: #ffffff; stroke: #ffffff; stroke-linejoin: miter"/>
   </g>
   <g id="patch_3">
    <path d="M 0 144 
Q 0 0 0 0 
L 720 0 
L 720 144 
z
" clip-path="url(#p4e02c2beb7)" style="fill: #ffffff"/>
   </g>
   <g id="patch_4">
    <path d="M 36 54 
Q 36 144 36 144 
L 720 144 
L 720 54 
z
" clip-path="url(#p4e02c2beb7)" style="fill: #ffffff"/>
   </g>
   <g id="patch_5">
    <path d="M 72 36 
Q 36 36 36 54 
L 720 54 
L 720 36 
z
" clip-path="url(#p4e02c2beb7)" style="fill: #ffffff"/>
   </g>
   <g id="patch_6">
    <path d="M 72 0 
Q 72 18 72 18 
L 720 18 
L 720 0 
z
" clip-path="url(#p4e02c2beb7)" style="fill: #ffffff"/>
   </g>
   <g id="patch_7">
    <path d="M 72 18 
Q 72 36 72 36 
L 720 36 
L 720 18 
z
" clip-path="url(#p4e02c2beb7)" style="fill: #ffffff"/>
   </g>
   <g id="patch_8">
    <path d="M 72 36 
Q 108 36 108 54 
L 720 54 
L 720 36 
z
" clip-path="url(#p4e02c2beb7)" style="fill: #ffffff"/>
   </g>
   <g id="patch_9">
    <path d="M 108 54 
Q 108 90 108 90 
L 720 90 
L 720 54 
z
" clip-path="url(#p4e02c2beb7)" style="fill: #ffffff"/>
   </g>
   <g id="patch_10">
    <path d="M 108 90 
Q 108 108 144 108 
L 720 108 
L 720 90 
z
" clip-path="url(#p4e02c2beb7)" style="fill: #ffffff"/>
   </g>
   <g id="patch_11">
    <path d="M 144 108 
Q 144 108 144 126 
L 720 126 
L 720 108 
z
" clip-path="url(#p4e02c2beb7)" style="fill: #ffffff"/>
   </g>
   <g id="patch_12">
    <path d="M 144 126 
Q 144 144 144 144 
L 720 144 
L 720 126 
z
" clip-path="url(#p4e02c2beb7)" style="fill: #ffffff"/>
   </g>
   <g id="patch_13">
    <path d="M 180 90 
Q 180 108 144 108 
L 720 108 
L 720 90 
z
" clip-path="url(#p4e02c2beb7)" style="fill: #ffffff"/>
   </g>
   <g id="patch_14">
    <path d="M 180 0 
Q 180 90 180 90 
L 720 90 
L 720 0 
z
" clip-path="url(#p4e02c2beb7)" style="fill: #ffffff"/>
   </g>
   <g id="patch_15">
    <path d="M 324 0 
Q 324 18 324 18 
L 720 18 
L 720 0 
z
" clip-path="url(#p4e02c2beb7)" style="fill: #ffffff"/>
   </g>
   <g id="patch_16">
    <path d="M 324 126 
Q 324 144 324 144 
L 720 144 
L 720 126 
z
" clip-path="url(#p4e02c2beb7)" style="fill: #ffffff"/>
   </g>
   <g id="patch_17">
    <path d="M 324 18 
Q 324 36 360 36 
L 720 36 
L 720 18 
z
" clip-path="url(#p4e02c2beb7)" style="fill: #ffffff"/>
   </g>
   <g id="patch_18">
    <path d="M 360 108 
Q 324 108 324 126 
L 720 126 
L 720 108 
z
" clip-path="url(#p4e02c2beb7)" style="fill: #ffffff"/>
   </g>
   <g id="patch_19">
    <path d="M 360 36 
Q 360 36 360 54 
L 720 54 
L 720 36 
z
" clip-path="url(#p4e02c2beb7)" style="fill: #ffffff"/>
   </g>
   <g id="patch_20">
    <path d="M 360 54 
Q 360 90 360 90 
L 720 90 
L 720 54 
z
" clip-path="url(#p4e02c2beb7)" style="fill: #ffffff"/>
   </g>
   <g id="patch_21">
    <path d="M 360 90 
Q 360 108 360 108 
L 720 108 
L 720 90 
z
" clip-path="url(#p4e02c2beb7)" style="fill: #ffffff"/>
   </g>
   <g id="patch_22">
    <path d="M 396 18 
Q 396 36 360 36 
L 720 36 
L 720 18 
z
" clip-path="url(#p4e02c2beb7)" style="fill: #ffffff"/>
   </g>
   <g id="patch_23">
    <path d="M 360 108 
Q 396 108 396 126 
L 720 126 
L 720 108 
z
" clip-path="url(#p4e02c2beb7)" style="fill: #ffffff"/>
   </g>
   <g id="patch_24">
    <path d="M 396 0 
Q 396 18 396 18 
L 720 18 
L 720 0 
z
" clip-path="url(#p4e02c2beb7)" style="fill: #ffffff"/>
   </g>
   <g id="patch_25">
    <path d="M 396 126 
Q 396 144 396 144 
L 720 144 
L 720 126 
z
" clip-path="url(#p4e02c2beb7)" style="fill: #ffffff"/>
   </g>
   <g id="patch_26">
    <path d="M 540 0 
Q 540 90 540 90 
L 720 90 
L 720 0 
z
" clip-path="url(#p4e02c2beb7)" style="fill: #ffffff"/>
   </g>
   <g id="patch_27">
    <path d="M 540 90 
Q 540 108 576 108 
L 720 108 
L 720 90 
z
" clip-path="url(#p4e02c2beb7)" style="fill: #ffffff"/>
   </g>
   <g id="patch_28">
    <path d="M 576 108 
Q 576 108 576 126 
L 720 126 
L 720 108 
z
" clip-path="url(#p4e02c2beb7)" style="fill: #ffffff"/>
   </g>
   <g id="patch_29">
    <path d="M 576 126 
Q 576 144 576 144 
L 720 144 
L 720 126 
z
" clip-path="url(#p4e02c2beb7)" style="fill: #ffffff"/>
   </g>
   <g id="patch_30">
    <path d="M 612 90 
Q 612 108 576 108 
L 720 108 
L 720 90 
z
" clip-path="url(#p4e02c2beb7)" style="fill: #ffffff"/>
   </g>
   <g id="patch_31">
    <path d="M 612 54 
Q 612 90 612 90 
L 720 90 
L 720 54 
z
" clip-path="url(#p4e02c2beb7)" style="fill: #ffffff"/>
   </g>
   <g id="patch_32">
    <path d="M 648 36 
Q 612 36 612 54 
L 720 54 
L 720 36 
z
" clip-path="url(#p4e02c2beb7)" style="fill: #ffffff"/>
   </g>
   <g id="patch_33">
    <path d="M 648 0 
Q 648 18 648 18 
L 720 18 
L 720 0 
z
" clip-path="url(#p4e02c2beb7)" style="fill: #ffffff"/>
   </g>
   <g id="patch_34">
    <path d="M 648 18 
Q 648 36 648 36 
L 720 36 
L 720 18 
z
" clip-path="url(#p4e02c2beb7)" style="fill: #ffffff"/>
   </g>
   <g id="patch_35">
    <path d="M 648 36 
Q 684 36 684 54 
L 720 54 
L 720 36 
z
" clip-path="url(#p4e02c2beb7)" style="fill: #ffffff"/>
   </g>
   <g id="patch_36">
    <path d="M 684 54 
Q 684 144 684 144 
L 720 144 
L 720 54 
z
" clip-path="url(#p4e02c2beb7)" style="fill: #ffffff"/>
   </g>
   <g id="patch_37">
    <path d="M 72 36 
Q 36 36 36 54 
" clip-path="url(#p4e02c2beb7)" style="fill: none; stroke: #000000; stroke-linejoin: miter"/>
   </g>
   <g id="patch_38">
    <path d="M 72 36 
Q 108 36 108 54 
" clip-path="url(#p4e02c2beb7)" style="fill: none; stroke: #000000; stroke-linejoin: miter"/>
   </g>
   <g id="patch_39">
    <path d="M 72 0 
Q 72 18 72 18 
" clip-path="url(#p4e02c2beb7)" style="fill: none; stroke: #000000; stroke-linejoin: miter"/>
   </g>
   <g id="patch_40">
    <path d="M 72 18 
Q 72 36 72 36 
" clip-path="url(#p4e02c2beb7)" style="fill: none; stroke: #000000; stroke-linejoin: miter"/>
   </g>
   <g id="patch_41">
    <path d="M 36 54 
Q 36 144 36 144 
" clip-path="url(#p4e02c2beb7)" style="fill: none; stroke: #000000; stroke-linejoin: miter"/>
   </g>
   <g id="patch_42">
    <path d="M 108 54 
Q 108 90 108 90 
" clip-path="url(#p4e02c2beb7)" style="fill: none; stroke: #000000; stroke-linejoin: miter"/>
   </g>
   <g id="patch_43">
    <path d="M 180 0 
Q 180 90 180 90 
" clip-path="url(#p4e02c2beb7)" style="fill: none; stroke: #000000; stroke-linejoin: miter"/>
   </g>
   <g id="patch_44">
    <path d="M 144 108 
Q 144 108 144 126 
" clip-path="url(#p4e02c2beb7)" style="fill: none; stroke: #000000; stroke-linejoin: miter"/>
   </g>
   <g id="patch_45">
    <path d="M 108 90 
Q 108 108 144 108 
" clip-path="url(#p4e02c2beb7)" style="fill: none; stroke: #000000; stroke-linejoin: miter"/>
   </g>
   <g id="patch_46">
    <path d="M 180 90 
Q 180 108 144 108 
" clip-path="url(#p4e02c2beb7)" style="fill: none; stroke: #000000; stroke-linejoin: miter"/>
   </g>
   <g id="patch_47">
    <path d="M 144 126 
Q 144 144 144 144 
" clip-path="url(#p4e02c2beb7)" style="fill: none; stroke: #000000; stroke-linejoin: miter"/>
   </g>
   <g id="patch_48">
    <path d="M 360 36 
Q 360 36 360 54 
" clip-path="url(#p4e02c2beb7)" style="fill: none; stroke: #000000; stroke-linejoin: miter"/>
   </g>
   <g id="patch_49">
    <path d="M 324 0 
Q 324 18 324 18 
" clip-path="url(#p4e02c2beb7)" style="fill: none; stroke: #000000; stroke-linejoin: miter"/>
   </g>
   <g id="patch_50">
    <path d="M 324 18 
Q 324 36 360 36 
" clip-path="url(#p4e02c2beb7)" style="fill: none; stroke: #000000; stroke-linejoin: miter"/>
   </g>
   <g id="patch_51">
    <path d="M 396 0 
Q 396 18 396 18 
" clip-path="url(#p4e02c2beb7)" style="fill: none; stroke: #000000; stroke-linejoin: miter"/>
   </g>
   <g id="patch_52">
    <path d="M 396 18 
Q 396 36 360 36 
" clip-path="url(#p4e02c2beb7)" style="fill: none; stroke: #000000; stroke-linejoin: miter"/>
   </g>
   <g id="patch_53">
    <path d="M 360 54 
Q 360 90 360 90 
" clip-path="url(#p4e02c2beb7)" style="fill: none; stroke: #000000; stroke-linejoin: miter"/>
   </g>
   <g id="patch_54">
    <path d="M 360 108 
Q 324 108 324 126 
" clip-path="url(#p4e02c2beb7)" style="fill: none; stroke: #000000; stroke-linejoin: miter"/>
   </g>
   <g id="patch_55">
    <path d="M 360 108 
Q 396 108 396 126 
" clip-path="url(#p4e02c2beb7)" style="fill: none; stroke: #000000; stroke-linejoin: miter"/>
   </g>
   <g id="patch_56">
    <path d="M 360 90 
Q 360 108 360 108 
" clip-path="url(#p4e02c2beb7)" style="fill: none; stroke: #000000; stroke-linejoin: miter"/>
   </g>
   <g id="patch_57">
    <path d="M 324 126 
Q 324 144 324 144 
" clip-path="url(#p4e02c2beb7)" style="fill: none; stroke: #000000; stroke-linejoin: miter"/>
   </g>
   <g id="patch_58">
    <path d="M 396 126 
Q 396 144 396 144 
" clip-path="url(#p4e02c2beb7)" style="fill: none; stroke: #000000; stroke-linejoin: miter"/>
   </g>
   <g id="patch_59">
    <path d="M 540 0 
Q 540 90 540 90 
" clip-path="url(#p4e02c2beb7)" style="fill: none; stroke: #000000; stroke-linejoin: miter"/>
   </g>
   <g id="patch_60">
    <path d="M 648 36 
Q 612 36 612 54 
" clip-path="url(#p4e02c2beb7)" style="fill: none; stroke: #000000; stroke-linejoin: miter"/>
   </g>
   <g id="patch_61">
    <path d="M 648 36 
Q 684 36 684 54 
" clip-path="url(#p4e02c2beb7)" style="fill: none; stroke: #000000; stroke-linejoin: miter"/>
   </g>
   <g id="patch_62">
    <path d="M 648 0 
Q 648 18 648 18 
" clip-path="url(#p4e02c2beb7)" style="fill: none; stroke: #000000; stroke-linejoin: miter"/>
   </g>
   <g id="patch_63">
    <path d="M 648 18 
Q 648 36 648 36 
" clip-path="url(#p4e02c2beb7)" style="fill: none; stroke: #000000; stroke-linejoin: miter"/>
   </g>
   <g id="patch_64">
    <path d="M 612 54 
Q 612 90 612 90 
" clip-path="url(#p4e02c2beb7)" style="fill: none; stroke: #000000; stroke-linejoin: miter"/>
   </g>
   <g id="patch_65">
    <path d="M 684 54 
Q 684 144 684 144 
" clip-path="url(#p4e02c2beb7)" style="fill: none; stroke: #000000; stroke-linejoin: miter"/>
   </g>
   <g id="patch_66">
    <path d="M 576 108 
Q 576 108 576 126 
" clip-path="url(#p4e02c2beb7)" style="fill: none; stroke: #000000; stroke-linejoin: miter"/>
   </g>
   <g id="patch_67">
    <path d="M 540 90 
Q 540 108 576 108 
" clip-path="url(#p4e02c2beb7)" style="fill: none; stroke: #000000; stroke-linejoin: miter"/>
   </g>
   <g id="patch_68">
    <path d="M 612 90 
Q 612 108 576 108 
" clip-path="url(#p4e02c2beb7)" style="fill: none; stroke: #000000; stroke-linejoin: miter"/>
   </g>
   <g id="patch_69">
    <path d="M 576 126 
Q 576 144 576 144 
" clip-path="url(#p4e02c2beb7)" style="fill: none; stroke: #000000; stroke-linejoin: miter"/>
   </g>
   <g id="PathCollection_1">
    <defs>
     <path id="C0_0_e4afccc1e4" d="M 0 4.868265 
C 1.291079 4.868265 2.529452 4.355314 3.442383 3.442383 
C 4.355314 2.529452 4.868265 1.291079 4.868265 -0 
C 4.868265 -1.291079 4.355314 -2.529452 3.442383 -3.442383 
C 2.529452 -4.355314 1.291079 -4.868265 0 -4.868265 
C -1.291079 -4.868265 -2.529452 -4.355314 -3.442383 -3.442383 
C -4.355314 -2.529452 -4.868265 -1.291079 -4.868265 0 
C -4.868265 1.291079 -4.355314 2.529452 -3.442383 3.442383 
C -2.529452 4.355314 -1.291079 4.868265 0 4.868265 
z
"/>
    </defs>
    <g clip-path="url(#p4e02c2beb7)">
     <use xlink:href="#C0_0_e4afccc1e4" x="468" y="72" style="fill: #ffffff; stroke: #ffffff"/>
    </g>
    <g clip-path="url(#p4e02c2beb7)">
     <use xlink:href="#C0_0_e4afccc1e4" x="72" y="36" style="stroke: #000000"/>
    </g>
    <g clip-path="url(#p4e02c2beb7)">
     <use xlink:href="#C0_0_e4afccc1e4" x="252" y="72" style="fill: #ffffff; stroke: #ffffff"/>
    </g>
    <g clip-path="url(#p4e02c2beb7)">
     <use xlink:href="#C0_0_e4afccc1e4" x="144" y="108" style="stroke: #000000"/>
    </g>
    <g clip-path="url(#p4e02c2beb7)">
     <use xlink:href="#C0_0_e4afccc1e4" x="648" y="36" style="stroke: #000000"/>
    </g>
    <g clip-path="url(#p4e02c2beb7)">
     <use xlink:href="#C0_0_e4afccc1e4" x="576" y="108" style="stroke: #000000"/>
    </g>
    <g clip-path="url(#p4e02c2beb7)">
     <use xlink:href="#C0_0_e4afccc1e4" x="360" y="108" style="stroke: #000000"/>
    </g>
    <g clip-path="url(#p4e02c2beb7)">
     <use xlink:href="#C0_0_e4afccc1e4" x="360" y="36" style="stroke: #000000"/>
    </g>
   </g>
   <g id="text_1">
    <!-- x -->
    <g transform="translate(76.5 12.098437) scale(0.1 -0.1)">
     <defs>
      <path id="DejaVuSans-78" d="M 3513 3500 
L 2247 1797 
L 3578 0 
L 2900 0 
L 1881 1375 
L 863 0 
L 184 0 
L 1544 1831 
L 300 3500 
L 978 3500 
L 1906 2253 
L 2834 3500 
L 3513 3500 
z
" transform="scale(0.015625)"/>
     </defs>
     <use xlink:href="#DejaVuSans-78"/>
    </g>
   </g>
   <g id="text_2">
    <!-- x -->
    <g transform="translate(40.5 66.098438) scale(0.1 -0.1)">
     <use xlink:href="#DejaVuSans-78"/>
    </g>
   </g>
   <g id="text_3">
    <!-- x -->
    <g transform="translate(112.5 66.098438) scale(0.1 -0.1)">
     <use xlink:href="#DejaVuSans-78"/>
    </g>
   </g>
   <g id="text_4">
    <!-- x -->
    <g transform="translate(184.5 12.098437) scale(0.1 -0.1)">
     <use xlink:href="#DejaVuSans-78"/>
    </g>
   </g>
   <g id="text_5">
    <!-- x -->
    <g transform="translate(148.5 138.098437) scale(0.1 -0.1)">
     <use xlink:href="#DejaVuSans-78"/>
    </g>
   </g>
   <g id="text_6">
    <!-- x -->
    <g transform="translate(328.5 12.098437) scale(0.1 -0.1)">
     <use xlink:href="#DejaVuSans-78"/>
    </g>
   </g>
   <g id="text_7">
    <!-- x -->
    <g transform="translate(400.5 12.098437) scale(0.1 -0.1)">
     <use xlink:href="#DejaVuSans-78"/>
    </g>
   </g>
   <g id="text_8">
    <!-- x -->
    <g transform="translate(364.5 66.098438) scale(0.1 -0.1)">
     <use xlink:href="#DejaVuSans-78"/>
    </g>
   </g>
   <g id="text_9">
    <!-- x -->
    <g transform="translate(328.5 138.098437) scale(0.1 -0.1)">
     <use xlink:href="#DejaVuSans-78"/>
    </g>
   </g>
   <g id="text_10">
    <!-- x -->
    <g transform="translate(400.5 138.098437) scale(0.1 -0.1)">
     <use xlink:href="#DejaVuSans-78"/>
    </g>
   </g>
   <g id="text_11">
    <!-- x -->
    <g transform="translate(544.5 12.098437) scale(0.1 -0.1)">
     <use xlink:href="#DejaVuSans-78"/>
    </g>
   </g>
   <g id="text_12">
    <!-- x -->
    <g transform="translate(652.5 12.098437) scale(0.1 -0.1)">
     <use xlink:href="#DejaVuSans-78"/>
    </g>
   </g>
   <g id="text_13">
    <!-- x -->
    <g transform="translate(616.5 66.098438) scale(0.1 -0.1)">
     <use xlink:href="#DejaVuSans-78"/>
    </g>
   </g>
   <g id="text_14">
    <!-- x -->
    <g transform="translate(688.5 66.098438) scale(0.1 -0.1)">
     <use xlink:href="#DejaVuSans-78"/>
    </g>
   </g>
   <g id="text_15">
    <!-- x -->
    <g transform="translate(580.5 138.098437) scale(0.1 -0.1)">
     <use xlink:href="#DejaVuSans-78"/>
    </g>
   </g>
   <g id="text_16">
    <g clip-path="url(#p4e02c2beb7)">
     <!-- = -->
     <g transform="translate(462.972188 75.31125) scale(0.12 -0.12)">
      <defs>
       <path id="DejaVuSans-3d" d="M 678 2906 
L 4684 2906 
L 4684 2381 
L 678 2381 
L 678 2906 
z
M 678 1631 
L 4684 1631 
L 4684 1100 
L 678 1100 
L 678 1631 
z
" transform="scale(0.015625)"/>
      </defs>
      <use xlink:href="#DejaVuSans-3d"/>
     </g>
    </g>
   </g>
   <g id="text_17">
    <g clip-path="url(#p4e02c2beb7)">
     <!-- = -->
     <g transform="translate(246.972187 75.31125) scale(0.12 -0.12)">
      <use xlink:href="#DejaVuSans-3d"/>
     </g>
    </g>
   </g>
  </g>
 </g>
 <defs>
  <clipPath id="p4e02c2beb7">
   <rect x="0" y="0" width="720" height="144"/>
  </clipPath>
 </defs>
</svg>
