<?xml version="1.0" encoding="utf-8" standalone="no"?>
<!DOCTYPE svg PUBLIC "-//W3C//DTD SVG 1.1//EN"
  "http://www.w3.org/Graphics/SVG/1.1/DTD/svg11.dtd">
<svg xmlns:xlink="http://www.w3.org/1999/xlink" width="414pt" height="144pt" viewBox="0 0 414 144" xmlns="http://www.w3.org/2000/svg" version="1.1">
 <defs>
  <style type="text/css">*{stroke-linejoin: round; stroke-linecap: butt}</style>
 </defs>
 <g id="figure_1">
  <g id="patch_1">
   <path d="M 0 144 
L 414 144 
L 414 0 
L 0 0 
L 0 144 
z
" style="fill: none"/>
  </g>
  <g id="axes_1">
   <g id="PathCollection_1">
    <defs>
     <path id="m58a52cefd2" d="M 0 6.478632 
C 1.718153 6.478632 3.366167 5.796003 4.581085 4.581085 
C 5.796003 3.366167 6.478632 1.718153 6.478632 0 
C 6.478632 -1.718153 5.796003 -3.366167 4.581085 -4.581085 
C 3.366167 -5.796003 1.718153 -6.478632 0 -6.478632 
C -1.718153 -6.478632 -3.366167 -5.796003 -4.581085 -4.581085 
C -5.796003 -3.366167 -6.478632 -1.718153 -6.478632 0 
C -6.478632 1.718153 -5.796003 3.366167 -4.581085 4.581085 
C -3.366167 5.796003 -1.718153 6.478632 0 6.478632 
z
" style="stroke: #ffffff"/>
    </defs>
    <g clip-path="url(#pb608f8dd4e)">
     <use xlink:href="#m58a52cefd2" x="72" y="36" style="fill: #ffffff; stroke: #ffffff"/>
     <use xlink:href="#m58a52cefd2" x="72" y="108" style="fill: #ffffff; stroke: #ffffff"/>
     <use xlink:href="#m58a52cefd2" x="252" y="72" style="fill: #ffffff; stroke: #ffffff"/>
    </g>
   </g>
   <g id="patch_2">
    <path d="M 0 144 
L 414 144 
L 414 0 
L 0 0 
L 0 144 
z
" clip-path="url(#pb608f8dd4e)" style="fill: none"/>
   </g>
   <g id="patch_3">
    <path d="M 72 36 
Q 36 36 36 54 
" clip-path="url(#pb608f8dd4e)" style="fill: none; stroke: #ffffff; stroke-width: 3; stroke-linejoin: miter"/>
    <path d="M 72 36 
Q 36 36 36 54 
" clip-path="url(#pb608f8dd4e)" style="fill: none; stroke: #000000; stroke-linejoin: miter"/>
   </g>
   <g id="patch_4">
    <path d="M 72 36 
Q 108 36 108 54 
" clip-path="url(#pb608f8dd4e)" style="fill: none; stroke: #ffffff; stroke-width: 3; stroke-linejoin: miter"/>
    <path d="M 72 36 
Q 108 36 108 54 
" clip-path="url(#pb608f8dd4e)" style="fill: none; stroke: #000000; stroke-linejoin: miter"/>
   </g>
   <g id="patch_5">
    <path d="M 72 0 
Q 72 18 72 18 
" clip-path="url(#pb608f8dd4e)" style="fill: none; stroke: #ffffff; stroke-width: 3; stroke-linejoin: miter"/>
    <path d="M 72 0 
Q 72 18 72 18 
" clip-path="url(#pb608f8dd4e)" style="fill: none; stroke: #000000; stroke-linejoin: miter"/>
   </g>
   <g id="patch_6">
    <path d="M 72 18 
Q 72 36 72 36 
" clip-path="url(#pb608f8dd4e)" style="fill: none; stroke: #ffffff; stroke-width: 3; stroke-linejoin: miter"/>
    <path d="M 72 18 
Q 72 36 72 36 
" clip-path="url(#pb608f8dd4e)" style="fill: none; stroke: #000000; stroke-linejoin: miter"/>
   </g>
   <g id="patch_7">
    <path d="M 36 54 
Q 36 90 36 90 
" clip-path="url(#pb608f8dd4e)" style="fill: none; stroke: #ffffff; stroke-width: 3; stroke-linejoin: miter"/>
    <path d="M 36 54 
Q 36 90 36 90 
" clip-path="url(#pb608f8dd4e)" style="fill: none; stroke: #000000; stroke-linejoin: miter"/>
   </g>
   <g id="patch_8">
    <path d="M 108 54 
Q 108 90 108 90 
" clip-path="url(#pb608f8dd4e)" style="fill: none; stroke: #ffffff; stroke-width: 3; stroke-linejoin: miter"/>
    <path d="M 108 54 
Q 108 90 108 90 
" clip-path="url(#pb608f8dd4e)" style="fill: none; stroke: #000000; stroke-linejoin: miter"/>
   </g>
   <g id="patch_9">
    <path d="M 72 108 
Q 72 108 72 126 
" clip-path="url(#pb608f8dd4e)" style="fill: none; stroke: #ffffff; stroke-width: 3; stroke-linejoin: miter"/>
    <path d="M 72 108 
Q 72 108 72 126 
" clip-path="url(#pb608f8dd4e)" style="fill: none; stroke: #000000; stroke-linejoin: miter"/>
   </g>
   <g id="patch_10">
    <path d="M 36 90 
Q 36 108 72 108 
" clip-path="url(#pb608f8dd4e)" style="fill: none; stroke: #ffffff; stroke-width: 3; stroke-linejoin: miter"/>
    <path d="M 36 90 
Q 36 108 72 108 
" clip-path="url(#pb608f8dd4e)" style="fill: none; stroke: #000000; stroke-linejoin: miter"/>
   </g>
   <g id="patch_11">
    <path d="M 108 90 
Q 108 108 72 108 
" clip-path="url(#pb608f8dd4e)" style="fill: none; stroke: #ffffff; stroke-width: 3; stroke-linejoin: miter"/>
    <path d="M 108 90 
Q 108 108 72 108 
" clip-path="url(#pb608f8dd4e)" style="fill: none; stroke: #000000; stroke-linejoin: miter"/>
   </g>
   <g id="patch_12">
    <path d="M 72 126 
Q 72 144 72 144 
" clip-path="url(#pb608f8dd4e)" style="fill: none; stroke: #ffffff; stroke-width: 3; stroke-linejoin: miter"/>
    <path d="M 72 126 
Q 72 144 72 144 
" clip-path="url(#pb608f8dd4e)" style="fill: none; stroke: #000000; stroke-linejoin: miter"/>
   </g>
   <g id="patch_13">
    <path d="M 252 72 
Q 252 72 252 90 
" clip-path="url(#pb608f8dd4e)" style="fill: none; stroke: #ffffff; stroke-width: 3; stroke-linejoin: miter"/>
    <path d="M 252 72 
Q 252 72 252 90 
" clip-path="url(#pb608f8dd4e)" style="fill: none; stroke: #000000; stroke-linejoin: miter"/>
   </g>
   <g id="patch_14">
    <path d="M 252 0 
Q 252 54 252 54 
" clip-path="url(#pb608f8dd4e)" style="fill: none; stroke: #ffffff; stroke-width: 3; stroke-linejoin: miter"/>
    <path d="M 252 0 
Q 252 54 252 54 
" clip-path="url(#pb608f8dd4e)" style="fill: none; stroke: #000000; stroke-linejoin: miter"/>
   </g>
   <g id="patch_15">
    <path d="M 252 54 
Q 252 72 252 72 
" clip-path="url(#pb608f8dd4e)" style="fill: none; stroke: #ffffff; stroke-width: 3; stroke-linejoin: miter"/>
    <path d="M 252 54 
Q 252 72 252 72 
" clip-path="url(#pb608f8dd4e)" style="fill: none; stroke: #000000; stroke-linejoin: miter"/>
   </g>
   <g id="patch_16">
    <path d="M 252 90 
Q 252 144 252 144 
" clip-path="url(#pb608f8dd4e)" style="fill: none; stroke: #ffffff; stroke-width: 3; stroke-linejoin: miter"/>
    <path d="M 252 90 
Q 252 144 252 144 
" clip-path="url(#pb608f8dd4e)" style="fill: none; stroke: #000000; stroke-linejoin: miter"/>
   </g>
   <g id="patch_17">
    <path d="M 396 0 
Q 396 144 396 144 
" clip-path="url(#pb608f8dd4e)" style="fill: none; stroke: #ffffff; stroke-width: 3; stroke-linejoin: miter"/>
    <path d="M 396 0 
Q 396 144 396 144 
" clip-path="url(#pb608f8dd4e)" style="fill: none; stroke: #000000; stroke-linejoin: miter"/>
   </g>
   <g id="PathCollection_2">
    <defs>
     <path id="C0_0_42e322a767" d="M 0 5.592406 
C 1.483123 5.592406 2.905701 5.003154 3.954428 3.954428 
C 5.003154 2.905701 5.592406 1.483123 5.592406 -0 
C 5.592406 -1.483123 5.003154 -2.905701 3.954428 -3.954428 
C 2.905701 -5.003154 1.483123 -5.592406 0 -5.592406 
C -1.483123 -5.592406 -2.905701 -5.003154 -3.954428 -3.954428 
C -5.003154 -2.905701 -5.592406 -1.483123 -5.592406 0 
C -5.592406 1.483123 -5.003154 2.905701 -3.954428 3.954428 
C -2.905701 5.003154 -1.483123 5.592406 0 5.592406 
z
"/>
    </defs>
    <g clip-path="url(#pb608f8dd4e)">
     <use xlink:href="#C0_0_42e322a767" x="72" y="36" style="stroke: #000000"/>
    </g>
    <g clip-path="url(#pb608f8dd4e)">
     <use xlink:href="#C0_0_42e322a767" x="72" y="108" style="stroke: #000000"/>
    </g>
    <g clip-path="url(#pb608f8dd4e)">
     <use xlink:href="#C0_0_42e322a767" x="180" y="72" style="fill: none"/>
    </g>
    <g clip-path="url(#pb608f8dd4e)">
     <use xlink:href="#C0_0_42e322a767" x="252" y="72" style="stroke: #000000"/>
    </g>
    <g clip-path="url(#pb608f8dd4e)">
     <use xlink:href="#C0_0_42e322a767" x="324" y="72" style="fill: none"/>
    </g>
   </g>
   <g id="text_1">
    <!-- x -->
    <g transform="translate(76.5 12.098437) scale(0.1 -0.1)">
     <defs>
      <path id="DejaVuSans-78" d="M 3513 3500 
L 2247 1797 
L 3578 0 
L 2900 0 
L 1881 1375 
L 863 0 
L 184 0 
L 1544 1831 
L 300 3500 
L 978 3500 
L 1906 2253 
L 2834 3500 
L 3513 3500 
z
" transform="scale(0.015625)"/>
     </defs>
     <use xlink:href="#DejaVuSans-78"/>
    </g>
   </g>
   <g id="text_2">
    <!-- x -->
    <g transform="translate(40.5 66.098438) scale(0.1 -0.1)">
     <use xlink:href="#DejaVuSans-78"/>
    </g>
   </g>
   <g id="text_3">
    <!-- x -->
    <g transform="translate(112.5 66.098438) scale(0.1 -0.1)">
     <use xlink:href="#DejaVuSans-78"/>
    </g>
   </g>
   <g id="text_4">
    <!-- x -->
    <g transform="translate(76.5 138.098437) scale(0.1 -0.1)">
     <use xlink:href="#DejaVuSans-78"/>
    </g>
   </g>
   <g id="text_5">
    <!-- x -->
    <g transform="translate(256.5 12.098437) scale(0.1 -0.1)">
     <use xlink:href="#DejaVuSans-78"/>
    </g>
   </g>
   <g id="text_6">
    <!-- x -->
    <g transform="translate(256.5 102.098438) scale(0.1 -0.1)">
     <use xlink:href="#DejaVuSans-78"/>
    </g>
   </g>
   <g id="text_7">
    <!-- x -->
    <g transform="translate(400.5 12.098437) scale(0.1 -0.1)">
     <use xlink:href="#DejaVuSans-78"/>
    </g>
   </g>
   <g id="text_8">
    <g clip-path="url(#pb608f8dd4e)">
     <!-- = -->
     <g transform="translate(174.972187 75.31125) scale(0.12 -0.12)">
      <defs>
       <path id="DejaVuSans-3d" d="M 678 2906 
L 4684 2906 
L 4684 2381 
L 678 2381 
L 678 2906 
z
M 678 1631 
L 4684 1631 
L 4684 1100 
L 678 1100 
L 678 1631 
z
" transform="scale(0.015625)"/>
      </defs>
      <use xlink:href="#DejaVuSans-3d"/>
     </g>
    </g>
   </g>
   <g id="text_9">
    <g clip-path="url(#pb608f8dd4e)">
     <!-- = -->
     <g transform="translate(318.972188 75.31125) scale(0.12 -0.12)">
      <use xlink:href="#DejaVuSans-3d"/>
     </g>
    </g>
   </g>
  </g>
 </g>
 <defs>
  <clipPath id="pb608f8dd4e">
   <rect x="0" y="0" width="414" height="144"/>
  </clipPath>
 </defs>
</svg>
