<?xml version="1.0" encoding="utf-8" standalone="no"?>
<!DOCTYPE svg PUBLIC "-//W3C//DTD SVG 1.1//EN"
  "http://www.w3.org/Graphics/SVG/1.1/DTD/svg11.dtd">
<svg xmlns:xlink="http://www.w3.org/1999/xlink" width="1008pt" height="576pt" viewBox="0 0 1008 576" xmlns="http://www.w3.org/2000/svg" version="1.1">
 <metadata>
  <rdf:RDF xmlns:dc="http://purl.org/dc/elements/1.1/" xmlns:cc="http://creativecommons.org/ns#" xmlns:rdf="http://www.w3.org/1999/02/22-rdf-syntax-ns#">
   <cc:Work>
    <dc:type rdf:resource="http://purl.org/dc/dcmitype/StillImage"/>
    <dc:format>image/svg+xml</dc:format>
    <dc:creator>
     <cc:Agent>
      <dc:title>Matplotlib v3.10.9, https://matplotlib.org/</dc:title>
     </cc:Agent>
    </dc:creator>
   </cc:Work>
  </rdf:RDF>
 </metadata>
 <defs>
  <style type="text/css">*{stroke-linejoin: round; stroke-linecap: butt}</style>
 </defs>
 <g id="figure_1">
  <g id="patch_1">
   <path d="M 0 576 
L 1008 576 
L 1008 0 
L 0 0 
z
" style="fill: #ffffff"/>
  </g>
  <g id="axes_1">
   <g id="patch_2">
    <path d="M 0 576 
L 1008 576 
L 1008 0 
L 0 0 
z
" clip-path="url(#p0692df82d4)" style="fill: #ffffff; stroke: #ffffff; stroke-linejoin: miter"/>
   </g>
   <g id="patch_3">
    <path d="M 0 576 
Q 0 0 0 0 
L 1008 0 
L 1008 576 
z
" clip-path="url(#p0692df82d4)" style="fill: #ffffff"/>
   </g>
   <g id="patch_4">
    <path d="M 36 54 
Q 36 288 36 288 
L 1008 288 
L 1008 54 
z
" clip-path="url(#p0692df82d4)" style="fill: #ffffff"/>
   </g>
   <g id="patch_5">
    <path d="M 36 288 
Q 36 324 72 324 
L 1008 324 
L 1008 288 
z
" clip-path="url(#p0692df82d4)" style="fill: #ffffff"/>
   </g>
   <g id="patch_6">
    <path d="M 54 18 
Q 54 54 54 54 
L 1008 54 
L 1008 18 
z
" clip-path="url(#p0692df82d4)" style="fill: #ffffff"/>
   </g>
   <g id="patch_7">
    <path d="M 108 288 
Q 108 324 72 324 
L 1008 324 
L 1008 288 
z
" clip-path="url(#p0692df82d4)" style="fill: #ffffff"/>
   </g>
   <g id="patch_8">
    <path d="M 108 126 
Q 108 288 108 288 
L 1008 288 
L 1008 126 
z
" clip-path="url(#p0692df82d4)" style="fill: #ffffff"/>
   </g>
   <g id="patch_9">
    <path d="M 180 126 
Q 180 576 180 576 
L 1008 576 
L 1008 126 
z
" clip-path="url(#p0692df82d4)" style="fill: #ffffff"/>
   </g>
   <g id="patch_10">
    <path d="M 252 126 
Q 252 432 252 432 
L 1008 432 
L 1008 126 
z
" clip-path="url(#p0692df82d4)" style="fill: #ffffff"/>
   </g>
   <g id="patch_11">
    <path d="M 252 432 
Q 252 468 360 468 
L 1008 468 
L 1008 432 
z
" clip-path="url(#p0692df82d4)" style="fill: #ffffff"/>
   </g>
   <g id="patch_12">
    <path d="M 324 126 
Q 324 360 324 360 
L 1008 360 
L 1008 126 
z
" clip-path="url(#p0692df82d4)" style="fill: #ffffff"/>
   </g>
   <g id="patch_13">
    <path d="M 324 360 
Q 324 396 360 396 
L 1008 396 
L 1008 360 
z
" clip-path="url(#p0692df82d4)" style="fill: #ffffff"/>
   </g>
   <g id="patch_14">
    <path d="M 342 90 
Q 342 126 342 126 
L 1008 126 
L 1008 90 
z
" clip-path="url(#p0692df82d4)" style="fill: #ffffff"/>
   </g>
   <g id="patch_15">
    <path d="M 396 360 
Q 396 396 360 396 
L 1008 396 
L 1008 360 
z
" clip-path="url(#p0692df82d4)" style="fill: #ffffff"/>
   </g>
   <g id="patch_16">
    <path d="M 396 198 
Q 396 360 396 360 
L 1008 360 
L 1008 198 
z
" clip-path="url(#p0692df82d4)" style="fill: #ffffff"/>
   </g>
   <g id="patch_17">
    <path d="M 468 432 
Q 468 468 360 468 
L 1008 468 
L 1008 432 
z
" clip-path="url(#p0692df82d4)" style="fill: #ffffff"/>
   </g>
   <g id="patch_18">
    <path d="M 468 198 
Q 468 432 468 432 
L 1008 432 
L 1008 198 
z
" clip-path="url(#p0692df82d4)" style="fill: #ffffff"/>
   </g>
   <g id="patch_19">
    <path d="M 540 198 
Q 540 504 540 504 
L 1008 504 
L 1008 198 
z
" clip-path="url(#p0692df82d4)" style="fill: #ffffff"/>
   </g>
   <g id="patch_20">
    <path d="M 540 504 
Q 540 540 576 540 
L 1008 540 
L 1008 504 
z
" clip-path="url(#p0692df82d4)" style="fill: #ffffff"/>
   </g>
   <g id="patch_21">
    <path d="M 558 162 
Q 558 198 558 198 
L 1008 198 
L 1008 162 
z
" clip-path="url(#p0692df82d4)" style="fill: #ffffff"/>
   </g>
   <g id="patch_22">
    <path d="M 612 504 
Q 612 540 576 540 
L 1008 540 
L 1008 504 
z
" clip-path="url(#p0692df82d4)" style="fill: #ffffff"/>
   </g>
   <g id="patch_23">
    <path d="M 612 270 
Q 612 504 612 504 
L 1008 504 
L 1008 270 
z
" clip-path="url(#p0692df82d4)" style="fill: #ffffff"/>
   </g>
   <g id="patch_24">
    <path d="M 630 234 
Q 630 270 630 270 
L 1008 270 
L 1008 234 
z
" clip-path="url(#p0692df82d4)" style="fill: #ffffff"/>
   </g>
   <g id="patch_25">
    <path d="M 756 198 
Q 756 306 756 306 
L 1008 306 
L 1008 198 
z
" clip-path="url(#p0692df82d4)" style="fill: #ffffff"/>
   </g>
   <g id="patch_26">
    <path d="M 774 162 
Q 774 198 774 198 
L 1008 198 
L 1008 162 
z
" clip-path="url(#p0692df82d4)" style="fill: #ffffff"/>
   </g>
   <g id="patch_27">
    <path d="M 792 342 
Q 792 378 792 378 
L 1008 378 
L 1008 342 
z
" clip-path="url(#p0692df82d4)" style="fill: #ffffff"/>
   </g>
   <g id="patch_28">
    <path d="M 792 414 
Q 792 576 792 576 
L 1008 576 
L 1008 414 
z
" clip-path="url(#p0692df82d4)" style="fill: #ffffff"/>
   </g>
   <g id="patch_29">
    <path d="M 828 144 
Q 828 306 828 306 
L 1008 306 
L 1008 144 
z
" clip-path="url(#p0692df82d4)" style="fill: #ffffff"/>
   </g>
   <g id="patch_30">
    <path d="M 846 306 
Q 846 342 846 342 
L 1008 342 
L 1008 306 
z
" clip-path="url(#p0692df82d4)" style="fill: #ffffff"/>
   </g>
   <g id="patch_31">
    <path d="M 900 108 
Q 828 108 828 144 
L 1008 144 
L 1008 108 
z
" clip-path="url(#p0692df82d4)" style="fill: #ffffff"/>
   </g>
   <g id="patch_32">
    <path d="M 900 270 
Q 900 378 900 378 
L 1008 378 
L 1008 270 
z
" clip-path="url(#p0692df82d4)" style="fill: #ffffff"/>
   </g>
   <g id="patch_33">
    <path d="M 900 414 
Q 900 432 900 432 
L 1008 432 
L 1008 414 
z
" clip-path="url(#p0692df82d4)" style="fill: #ffffff"/>
   </g>
   <g id="patch_34">
    <path d="M 900 432 
Q 900 468 936 468 
L 1008 468 
L 1008 432 
z
" clip-path="url(#p0692df82d4)" style="fill: #ffffff"/>
   </g>
   <g id="patch_35">
    <path d="M 918 234 
Q 918 270 918 270 
L 1008 270 
L 1008 234 
z
" clip-path="url(#p0692df82d4)" style="fill: #ffffff"/>
   </g>
   <g id="patch_36">
    <path d="M 918 378 
Q 918 414 918 414 
L 1008 414 
L 1008 378 
z
" clip-path="url(#p0692df82d4)" style="fill: #ffffff"/>
   </g>
   <g id="patch_37">
    <path d="M 900 108 
Q 972 108 972 144 
L 1008 144 
L 1008 108 
z
" clip-path="url(#p0692df82d4)" style="fill: #ffffff"/>
   </g>
   <g id="patch_38">
    <path d="M 972 432 
Q 972 468 936 468 
L 1008 468 
L 1008 432 
z
" clip-path="url(#p0692df82d4)" style="fill: #ffffff"/>
   </g>
   <g id="patch_39">
    <path d="M 972 144 
Q 972 432 972 432 
L 1008 432 
L 1008 144 
z
" clip-path="url(#p0692df82d4)" style="fill: #ffffff"/>
   </g>
   <g id="patch_40">
    <path d="M 36 54 
Q 36 288 36 288 
" clip-path="url(#p0692df82d4)" style="fill: none; stroke: #000000; stroke-linejoin: miter"/>
   </g>
   <g id="patch_41">
    <path d="M 108 126 
Q 108 288 108 288 
" clip-path="url(#p0692df82d4)" style="fill: none; stroke: #000000; stroke-linejoin: miter"/>
   </g>
   <g id="patch_42">
    <path d="M 180 126 
Q 180 576 180 576 
" clip-path="url(#p0692df82d4)" style="fill: none; stroke: #000000; stroke-linejoin: miter"/>
   </g>
   <g id="patch_43">
    <path d="M 252 126 
Q 252 432 252 432 
" clip-path="url(#p0692df82d4)" style="fill: none; stroke: #000000; stroke-linejoin: miter"/>
   </g>
   <g id="patch_44">
    <path d="M 324 126 
Q 324 360 324 360 
" clip-path="url(#p0692df82d4)" style="fill: none; stroke: #000000; stroke-linejoin: miter"/>
   </g>
   <g id="patch_45">
    <path d="M 396 198 
Q 396 360 396 360 
" clip-path="url(#p0692df82d4)" style="fill: none; stroke: #000000; stroke-linejoin: miter"/>
   </g>
   <g id="patch_46">
    <path d="M 468 198 
Q 468 432 468 432 
" clip-path="url(#p0692df82d4)" style="fill: none; stroke: #000000; stroke-linejoin: miter"/>
   </g>
   <g id="patch_47">
    <path d="M 540 198 
Q 540 504 540 504 
" clip-path="url(#p0692df82d4)" style="fill: none; stroke: #000000; stroke-linejoin: miter"/>
   </g>
   <g id="patch_48">
    <path d="M 612 270 
Q 612 504 612 504 
" clip-path="url(#p0692df82d4)" style="fill: none; stroke: #000000; stroke-linejoin: miter"/>
   </g>
   <g id="patch_49">
    <path d="M 36 288 
Q 36 324 72 324 
" clip-path="url(#p0692df82d4)" style="fill: none; stroke: #000000; stroke-linejoin: miter"/>
   </g>
   <g id="patch_50">
    <path d="M 108 288 
Q 108 324 72 324 
" clip-path="url(#p0692df82d4)" style="fill: none; stroke: #000000; stroke-linejoin: miter"/>
   </g>
   <g id="patch_51">
    <path d="M 324 360 
Q 324 396 360 396 
" clip-path="url(#p0692df82d4)" style="fill: none; stroke: #000000; stroke-linejoin: miter"/>
   </g>
   <g id="patch_52">
    <path d="M 396 360 
Q 396 396 360 396 
" clip-path="url(#p0692df82d4)" style="fill: none; stroke: #000000; stroke-linejoin: miter"/>
   </g>
   <g id="patch_53">
    <path d="M 252 432 
Q 252 468 360 468 
" clip-path="url(#p0692df82d4)" style="fill: none; stroke: #000000; stroke-linejoin: miter"/>
   </g>
   <g id="patch_54">
    <path d="M 468 432 
Q 468 468 360 468 
" clip-path="url(#p0692df82d4)" style="fill: none; stroke: #000000; stroke-linejoin: miter"/>
   </g>
   <g id="patch_55">
    <path d="M 540 504 
Q 540 540 576 540 
" clip-path="url(#p0692df82d4)" style="fill: none; stroke: #000000; stroke-linejoin: miter"/>
   </g>
   <g id="patch_56">
    <path d="M 612 504 
Q 612 540 576 540 
" clip-path="url(#p0692df82d4)" style="fill: none; stroke: #000000; stroke-linejoin: miter"/>
   </g>
   <g id="patch_57">
    <path d="M 900 108 
Q 828 108 828 144 
" clip-path="url(#p0692df82d4)" style="fill: none; stroke: #000000; stroke-linejoin: miter"/>
   </g>
   <g id="patch_58">
    <path d="M 900 108 
Q 972 108 972 144 
" clip-path="url(#p0692df82d4)" style="fill: none; stroke: #000000; stroke-linejoin: miter"/>
   </g>
   <g id="patch_59">
    <path d="M 828 144 
Q 828 306 828 306 
" clip-path="url(#p0692df82d4)" style="fill: none; stroke: #000000; stroke-linejoin: miter"/>
   </g>
   <g id="patch_60">
    <path d="M 972 144 
Q 972 432 972 432 
" clip-path="url(#p0692df82d4)" style="fill: none; stroke: #000000; stroke-linejoin: miter"/>
   </g>
   <g id="patch_61">
    <path d="M 756 198 
Q 756 306 756 306 
" clip-path="url(#p0692df82d4)" style="fill: none; stroke: #000000; stroke-linejoin: miter"/>
   </g>
   <g id="patch_62">
    <path d="M 900 270 
Q 900 378 900 378 
" clip-path="url(#p0692df82d4)" style="fill: none; stroke: #000000; stroke-linejoin: miter"/>
   </g>
   <g id="patch_63">
    <path d="M 792 342 
Q 792 378 792 378 
" clip-path="url(#p0692df82d4)" style="fill: none; stroke: #000000; stroke-linejoin: miter"/>
   </g>
   <g id="patch_64">
    <path d="M 792 414 
Q 792 576 792 576 
" clip-path="url(#p0692df82d4)" style="fill: none; stroke: #000000; stroke-linejoin: miter"/>
   </g>
   <g id="patch_65">
    <path d="M 900 414 
Q 900 432 900 432 
" clip-path="url(#p0692df82d4)" style="fill: none; stroke: #000000; stroke-linejoin: miter"/>
   </g>
   <g id="patch_66">
    <path d="M 900 432 
Q 900 468 936 468 
" clip-path="url(#p0692df82d4)" style="fill: none; stroke: #000000; stroke-linejoin: miter"/>
   </g>
   <g id="patch_67">
    <path d="M 972 432 
Q 972 468 936 468 
" clip-path="url(#p0692df82d4)" style="fill: none; stroke: #000000; stroke-linejoin: miter"/>
   </g>
   <g id="patch_68">
    <path d="M 18 54 
L 18 18 
L 54 18 
L 54 54 
z
" clip-path="url(#p0692df82d4)" style="fill: #ffffff; stroke: #000000; stroke-linejoin: miter"/>
   </g>
   <g id="patch_69">
    <path d="M 90 126 
L 90 90 
L 342 90 
L 342 126 
z
" clip-path="url(#p0692df82d4)" style="fill: #ffffff; stroke: #000000; stroke-linejoin: miter"/>
   </g>
   <g id="patch_70">
    <path d="M 378 198 
L 378 162 
L 558 162 
L 558 198 
z
" clip-path="url(#p0692df82d4)" style="fill: #ffffff; stroke: #000000; stroke-linejoin: miter"/>
   </g>
   <g id="patch_71">
    <path d="M 594 270 
L 594 234 
L 630 234 
L 630 270 
z
" clip-path="url(#p0692df82d4)" style="fill: #ffffff; stroke: #000000; stroke-linejoin: miter"/>
   </g>
   <g id="patch_72">
    <path d="M 738 198 
L 738 162 
L 774 162 
L 774 198 
z
" clip-path="url(#p0692df82d4)" style="fill: #ffffff; stroke: #000000; stroke-linejoin: miter"/>
   </g>
   <g id="patch_73">
    <path d="M 882 270 
L 882 234 
L 918 234 
L 918 270 
z
" clip-path="url(#p0692df82d4)" style="fill: #ffffff; stroke: #000000; stroke-linejoin: miter"/>
   </g>
   <g id="patch_74">
    <path d="M 738 342 
L 738 306 
L 846 306 
L 846 342 
z
" clip-path="url(#p0692df82d4)" style="fill: #ffffff; stroke: #000000; stroke-linejoin: miter"/>
   </g>
   <g id="patch_75">
    <path d="M 774 414 
L 774 378 
L 918 378 
L 918 414 
z
" clip-path="url(#p0692df82d4)" style="fill: #ffffff; stroke: #000000; stroke-linejoin: miter"/>
   </g>
   <g id="PathCollection_1">
    <defs>
     <path id="mdcf1bf3d1b" d="M 0 4.47493 
C 1.186765 4.47493 2.325084 4.003423 3.164253 3.164253 
C 4.003423 2.325084 4.47493 1.186765 4.47493 0 
C 4.47493 -1.186765 4.003423 -2.325084 3.164253 -3.164253 
C 2.325084 -4.003423 1.186765 -4.47493 0 -4.47493 
C -1.186765 -4.47493 -2.325084 -4.003423 -3.164253 -3.164253 
C -4.003423 -2.325084 -4.47493 -1.186765 -4.47493 0 
C -4.47493 1.186765 -4.003423 2.325084 -3.164253 3.164253 
C -2.325084 4.003423 -1.186765 4.47493 0 4.47493 
z
" style="stroke: #ffffff"/>
    </defs>
    <g clip-path="url(#p0692df82d4)">
     <use xlink:href="#mdcf1bf3d1b" x="684" y="288" style="fill: #ffffff; stroke: #ffffff"/>
    </g>
   </g>
   <g id="text_1">
    <!-- n -->
    <g transform="translate(40.5 66.098437) scale(0.1 -0.1)">
     <defs>
      <path id="DejaVuSans-6e" d="M 3513 2113 
L 3513 0 
L 2938 0 
L 2938 2094 
Q 2938 2591 2744 2837 
Q 2550 3084 2163 3084 
Q 1697 3084 1428 2787 
Q 1159 2491 1159 1978 
L 1159 0 
L 581 0 
L 581 3500 
L 1159 3500 
L 1159 2956 
Q 1366 3272 1645 3428 
Q 1925 3584 2291 3584 
Q 2894 3584 3203 3211 
Q 3513 2838 3513 2113 
z
" transform="scale(0.015625)"/>
     </defs>
     <use xlink:href="#DejaVuSans-6e"/>
    </g>
   </g>
   <g id="text_2">
    <!-- n.r -->
    <g transform="translate(112.5 138.098437) scale(0.1 -0.1)">
     <defs>
      <path id="DejaVuSans-2e" d="M 684 794 
L 1344 794 
L 1344 0 
L 684 0 
L 684 794 
z
" transform="scale(0.015625)"/>
      <path id="DejaVuSans-72" d="M 2631 2963 
Q 2534 3019 2420 3045 
Q 2306 3072 2169 3072 
Q 1681 3072 1420 2755 
Q 1159 2438 1159 1844 
L 1159 0 
L 581 0 
L 581 3500 
L 1159 3500 
L 1159 2956 
Q 1341 3275 1631 3429 
Q 1922 3584 2338 3584 
Q 2397 3584 2469 3576 
Q 2541 3569 2628 3553 
L 2631 2963 
z
" transform="scale(0.015625)"/>
     </defs>
     <use xlink:href="#DejaVuSans-6e"/>
     <use xlink:href="#DejaVuSans-2e" transform="translate(63.378906 0)"/>
     <use xlink:href="#DejaVuSans-72" transform="translate(95.166016 0)"/>
    </g>
   </g>
   <g id="text_3">
    <!-- n -->
    <g transform="translate(184.5 138.098437) scale(0.1 -0.1)">
     <use xlink:href="#DejaVuSans-6e"/>
    </g>
   </g>
   <g id="text_4">
    <!-- s.l -->
    <g transform="translate(256.5 138.098437) scale(0.1 -0.1)">
     <defs>
      <path id="DejaVuSans-73" d="M 2834 3397 
L 2834 2853 
Q 2591 2978 2328 3040 
Q 2066 3103 1784 3103 
Q 1356 3103 1142 2972 
Q 928 2841 928 2578 
Q 928 2378 1081 2264 
Q 1234 2150 1697 2047 
L 1894 2003 
Q 2506 1872 2764 1633 
Q 3022 1394 3022 966 
Q 3022 478 2636 193 
Q 2250 -91 1575 -91 
Q 1294 -91 989 -36 
Q 684 19 347 128 
L 347 722 
Q 666 556 975 473 
Q 1284 391 1588 391 
Q 1994 391 2212 530 
Q 2431 669 2431 922 
Q 2431 1156 2273 1281 
Q 2116 1406 1581 1522 
L 1381 1569 
Q 847 1681 609 1914 
Q 372 2147 372 2553 
Q 372 3047 722 3315 
Q 1072 3584 1716 3584 
Q 2034 3584 2315 3537 
Q 2597 3491 2834 3397 
z
" transform="scale(0.015625)"/>
      <path id="DejaVuSans-6c" d="M 603 4863 
L 1178 4863 
L 1178 0 
L 603 0 
L 603 4863 
z
" transform="scale(0.015625)"/>
     </defs>
     <use xlink:href="#DejaVuSans-73"/>
     <use xlink:href="#DejaVuSans-2e" transform="translate(52.099609 0)"/>
     <use xlink:href="#DejaVuSans-6c" transform="translate(83.886719 0)"/>
    </g>
   </g>
   <g id="text_5">
    <!-- n -->
    <g transform="translate(328.5 138.098437) scale(0.1 -0.1)">
     <use xlink:href="#DejaVuSans-6e"/>
    </g>
   </g>
   <g id="text_6">
    <!-- n.r -->
    <g transform="translate(400.5 210.098437) scale(0.1 -0.1)">
     <use xlink:href="#DejaVuSans-6e"/>
     <use xlink:href="#DejaVuSans-2e" transform="translate(63.378906 0)"/>
     <use xlink:href="#DejaVuSans-72" transform="translate(95.166016 0)"/>
    </g>
   </g>
   <g id="text_7">
    <!-- s -->
    <g transform="translate(472.5 210.098437) scale(0.1 -0.1)">
     <use xlink:href="#DejaVuSans-73"/>
    </g>
   </g>
   <g id="text_8">
    <!-- n.l -->
    <g transform="translate(544.5 210.098437) scale(0.1 -0.1)">
     <use xlink:href="#DejaVuSans-6e"/>
     <use xlink:href="#DejaVuSans-2e" transform="translate(63.378906 0)"/>
     <use xlink:href="#DejaVuSans-6c" transform="translate(95.166016 0)"/>
    </g>
   </g>
   <g id="text_9">
    <!-- n -->
    <g transform="translate(616.5 282.098437) scale(0.1 -0.1)">
     <use xlink:href="#DejaVuSans-6e"/>
    </g>
   </g>
   <g id="text_10">
    <!-- N -->
    <g transform="translate(832.5 138.098437) scale(0.1 -0.1)">
     <defs>
      <path id="DejaVuSans-4e" d="M 628 4666 
L 1478 4666 
L 3547 763 
L 3547 4666 
L 4159 4666 
L 4159 0 
L 3309 0 
L 1241 3903 
L 1241 0 
L 628 0 
L 628 4666 
z
" transform="scale(0.015625)"/>
     </defs>
     <use xlink:href="#DejaVuSans-4e"/>
    </g>
   </g>
   <g id="text_11">
    <!-- N -->
    <g transform="translate(976.5 138.098437) scale(0.1 -0.1)">
     <use xlink:href="#DejaVuSans-4e"/>
    </g>
   </g>
   <g id="text_12">
    <!-- N -->
    <g transform="translate(760.5 210.098437) scale(0.1 -0.1)">
     <use xlink:href="#DejaVuSans-4e"/>
    </g>
   </g>
   <g id="text_13">
    <!-- N -->
    <g transform="translate(904.5 282.098437) scale(0.1 -0.1)">
     <use xlink:href="#DejaVuSans-4e"/>
    </g>
   </g>
   <g id="text_14">
    <!-- S -->
    <g transform="translate(796.5 354.098437) scale(0.1 -0.1)">
     <defs>
      <path id="DejaVuSans-53" d="M 3425 4513 
L 3425 3897 
Q 3066 4069 2747 4153 
Q 2428 4238 2131 4238 
Q 1616 4238 1336 4038 
Q 1056 3838 1056 3469 
Q 1056 3159 1242 3001 
Q 1428 2844 1947 2747 
L 2328 2669 
Q 3034 2534 3370 2195 
Q 3706 1856 3706 1288 
Q 3706 609 3251 259 
Q 2797 -91 1919 -91 
Q 1588 -91 1214 -16 
Q 841 59 441 206 
L 441 856 
Q 825 641 1194 531 
Q 1563 422 1919 422 
Q 2459 422 2753 634 
Q 3047 847 3047 1241 
Q 3047 1584 2836 1778 
Q 2625 1972 2144 2069 
L 1759 2144 
Q 1053 2284 737 2584 
Q 422 2884 422 3419 
Q 422 4038 858 4394 
Q 1294 4750 2059 4750 
Q 2388 4750 2728 4690 
Q 3069 4631 3425 4513 
z
" transform="scale(0.015625)"/>
     </defs>
     <use xlink:href="#DejaVuSans-53"/>
    </g>
   </g>
   <g id="text_15">
    <!-- N -->
    <g transform="translate(796.5 426.098437) scale(0.1 -0.1)">
     <use xlink:href="#DejaVuSans-4e"/>
    </g>
   </g>
   <g id="text_16">
    <!-- N -->
    <g transform="translate(904.5 426.098437) scale(0.1 -0.1)">
     <use xlink:href="#DejaVuSans-4e"/>
    </g>
   </g>
   <g id="text_17">
    <!-- Alice -->
    <g transform="translate(23.975781 38.759375) scale(0.1 -0.1)">
     <defs>
      <path id="DejaVuSans-41" d="M 2188 4044 
L 1331 1722 
L 3047 1722 
L 2188 4044 
z
M 1831 4666 
L 2547 4666 
L 4325 0 
L 3669 0 
L 3244 1197 
L 1141 1197 
L 716 0 
L 50 0 
L 1831 4666 
z
" transform="scale(0.015625)"/>
      <path id="DejaVuSans-69" d="M 603 3500 
L 1178 3500 
L 1178 0 
L 603 0 
L 603 3500 
z
M 603 4863 
L 1178 4863 
L 1178 4134 
L 603 4134 
L 603 4863 
z
" transform="scale(0.015625)"/>
      <path id="DejaVuSans-63" d="M 3122 3366 
L 3122 2828 
Q 2878 2963 2633 3030 
Q 2388 3097 2138 3097 
Q 1578 3097 1268 2742 
Q 959 2388 959 1747 
Q 959 1106 1268 751 
Q 1578 397 2138 397 
Q 2388 397 2633 464 
Q 2878 531 3122 666 
L 3122 134 
Q 2881 22 2623 -34 
Q 2366 -91 2075 -91 
Q 1284 -91 818 406 
Q 353 903 353 1747 
Q 353 2603 823 3093 
Q 1294 3584 2113 3584 
Q 2378 3584 2631 3529 
Q 2884 3475 3122 3366 
z
" transform="scale(0.015625)"/>
      <path id="DejaVuSans-65" d="M 3597 1894 
L 3597 1613 
L 953 1613 
Q 991 1019 1311 708 
Q 1631 397 2203 397 
Q 2534 397 2845 478 
Q 3156 559 3463 722 
L 3463 178 
Q 3153 47 2828 -22 
Q 2503 -91 2169 -91 
Q 1331 -91 842 396 
Q 353 884 353 1716 
Q 353 2575 817 3079 
Q 1281 3584 2069 3584 
Q 2775 3584 3186 3129 
Q 3597 2675 3597 1894 
z
M 3022 2063 
Q 3016 2534 2758 2815 
Q 2500 3097 2075 3097 
Q 1594 3097 1305 2825 
Q 1016 2553 972 2059 
L 3022 2063 
z
" transform="scale(0.015625)"/>
     </defs>
     <use xlink:href="#DejaVuSans-41"/>
     <use xlink:href="#DejaVuSans-6c" transform="translate(68.408203 0)"/>
     <use xlink:href="#DejaVuSans-69" transform="translate(96.191406 0)"/>
     <use xlink:href="#DejaVuSans-63" transform="translate(123.974609 0)"/>
     <use xlink:href="#DejaVuSans-65" transform="translate(178.955078 0)"/>
    </g>
   </g>
   <g id="text_18">
    <!-- who -->
    <g transform="translate(205.682813 110.759375) scale(0.1 -0.1)">
     <defs>
      <path id="DejaVuSans-77" d="M 269 3500 
L 844 3500 
L 1563 769 
L 2278 3500 
L 2956 3500 
L 3675 769 
L 4391 3500 
L 4966 3500 
L 4050 0 
L 3372 0 
L 2619 2869 
L 1863 0 
L 1184 0 
L 269 3500 
z
" transform="scale(0.015625)"/>
      <path id="DejaVuSans-68" d="M 3513 2113 
L 3513 0 
L 2938 0 
L 2938 2094 
Q 2938 2591 2744 2837 
Q 2550 3084 2163 3084 
Q 1697 3084 1428 2787 
Q 1159 2491 1159 1978 
L 1159 0 
L 581 0 
L 581 4863 
L 1159 4863 
L 1159 2956 
Q 1366 3272 1645 3428 
Q 1925 3584 2291 3584 
Q 2894 3584 3203 3211 
Q 3513 2838 3513 2113 
z
" transform="scale(0.015625)"/>
      <path id="DejaVuSans-6f" d="M 1959 3097 
Q 1497 3097 1228 2736 
Q 959 2375 959 1747 
Q 959 1119 1226 758 
Q 1494 397 1959 397 
Q 2419 397 2687 759 
Q 2956 1122 2956 1747 
Q 2956 2369 2687 2733 
Q 2419 3097 1959 3097 
z
M 1959 3584 
Q 2709 3584 3137 3096 
Q 3566 2609 3566 1747 
Q 3566 888 3137 398 
Q 2709 -91 1959 -91 
Q 1206 -91 779 398 
Q 353 888 353 1747 
Q 353 2609 779 3096 
Q 1206 3584 1959 3584 
z
" transform="scale(0.015625)"/>
     </defs>
     <use xlink:href="#DejaVuSans-77"/>
     <use xlink:href="#DejaVuSans-68" transform="translate(81.787109 0)"/>
     <use xlink:href="#DejaVuSans-6f" transform="translate(145.166016 0)"/>
    </g>
   </g>
   <g id="text_19">
    <!-- loves -->
    <g transform="translate(454.910937 182.759375) scale(0.1 -0.1)">
     <defs>
      <path id="DejaVuSans-76" d="M 191 3500 
L 800 3500 
L 1894 563 
L 2988 3500 
L 3597 3500 
L 2284 0 
L 1503 0 
L 191 3500 
z
" transform="scale(0.015625)"/>
     </defs>
     <use xlink:href="#DejaVuSans-6c"/>
     <use xlink:href="#DejaVuSans-6f" transform="translate(27.783203 0)"/>
     <use xlink:href="#DejaVuSans-76" transform="translate(88.964844 0)"/>
     <use xlink:href="#DejaVuSans-65" transform="translate(148.144531 0)"/>
     <use xlink:href="#DejaVuSans-73" transform="translate(209.667969 0)"/>
    </g>
   </g>
   <g id="text_20">
    <!-- Bob -->
    <g transform="translate(602.335938 254.759375) scale(0.1 -0.1)">
     <defs>
      <path id="DejaVuSans-42" d="M 1259 2228 
L 1259 519 
L 2272 519 
Q 2781 519 3026 730 
Q 3272 941 3272 1375 
Q 3272 1813 3026 2020 
Q 2781 2228 2272 2228 
L 1259 2228 
z
M 1259 4147 
L 1259 2741 
L 2194 2741 
Q 2656 2741 2882 2914 
Q 3109 3088 3109 3444 
Q 3109 3797 2882 3972 
Q 2656 4147 2194 4147 
L 1259 4147 
z
M 628 4666 
L 2241 4666 
Q 2963 4666 3353 4366 
Q 3744 4066 3744 3513 
Q 3744 3084 3544 2831 
Q 3344 2578 2956 2516 
Q 3422 2416 3680 2098 
Q 3938 1781 3938 1306 
Q 3938 681 3513 340 
Q 3088 0 2303 0 
L 628 0 
L 628 4666 
z
" transform="scale(0.015625)"/>
      <path id="DejaVuSans-62" d="M 3116 1747 
Q 3116 2381 2855 2742 
Q 2594 3103 2138 3103 
Q 1681 3103 1420 2742 
Q 1159 2381 1159 1747 
Q 1159 1113 1420 752 
Q 1681 391 2138 391 
Q 2594 391 2855 752 
Q 3116 1113 3116 1747 
z
M 1159 2969 
Q 1341 3281 1617 3432 
Q 1894 3584 2278 3584 
Q 2916 3584 3314 3078 
Q 3713 2572 3713 1747 
Q 3713 922 3314 415 
Q 2916 -91 2278 -91 
Q 1894 -91 1617 61 
Q 1341 213 1159 525 
L 1159 0 
L 581 0 
L 581 4863 
L 1159 4863 
L 1159 2969 
z
" transform="scale(0.015625)"/>
     </defs>
     <use xlink:href="#DejaVuSans-42"/>
     <use xlink:href="#DejaVuSans-6f" transform="translate(68.603516 0)"/>
     <use xlink:href="#DejaVuSans-62" transform="translate(129.785156 0)"/>
    </g>
   </g>
   <g id="text_21">
    <!-- B -->
    <g transform="translate(752.569531 182.759375) scale(0.1 -0.1)">
     <use xlink:href="#DejaVuSans-42"/>
    </g>
   </g>
   <g id="text_22">
    <!-- A -->
    <g transform="translate(896.579687 254.759375) scale(0.1 -0.1)">
     <use xlink:href="#DejaVuSans-41"/>
    </g>
   </g>
   <g id="text_23">
    <!-- L -->
    <g transform="translate(789.214062 326.759375) scale(0.1 -0.1)">
     <defs>
      <path id="DejaVuSans-4c" d="M 628 4666 
L 1259 4666 
L 1259 531 
L 3531 531 
L 3531 0 
L 628 0 
L 628 4666 
z
" transform="scale(0.015625)"/>
     </defs>
     <use xlink:href="#DejaVuSans-4c"/>
    </g>
   </g>
   <g id="text_24">
    <!-- W -->
    <g transform="translate(841.05625 398.759375) scale(0.1 -0.1)">
     <defs>
      <path id="DejaVuSans-57" d="M 213 4666 
L 850 4666 
L 1831 722 
L 2809 4666 
L 3519 4666 
L 4500 722 
L 5478 4666 
L 6119 4666 
L 4947 0 
L 4153 0 
L 3169 4050 
L 2175 0 
L 1381 0 
L 213 4666 
z
" transform="scale(0.015625)"/>
     </defs>
     <use xlink:href="#DejaVuSans-57"/>
    </g>
   </g>
   <g id="text_25">
    <g clip-path="url(#p0692df82d4)">
     <!-- $\mapsto$ -->
     <g transform="translate(676.62 291.31125) scale(0.12 -0.12)">
      <defs>
       <path id="DejaVuSans-21a6" d="M 4175 1741 
L 897 1741 
L 897 663 
L 366 663 
L 366 3350 
L 897 3350 
L 897 2272 
L 4175 2272 
L 3447 3000 
L 3822 3375 
L 5050 2147 
L 5050 1866 
L 3822 638 
L 3447 1013 
L 4175 1741 
z
" transform="scale(0.015625)"/>
      </defs>
      <use xlink:href="#DejaVuSans-21a6" transform="translate(19.482422 0.265625)"/>
     </g>
    </g>
   </g>
  </g>
 </g>
 <defs>
  <clipPath id="p0692df82d4">
   <rect x="0" y="0" width="1008" height="576"/>
  </clipPath>
 </defs>
</svg>
