<?xml version="1.0" encoding="utf-8" standalone="no"?>
<!DOCTYPE svg PUBLIC "-//W3C//DTD SVG 1.1//EN"
  "http://www.w3.org/Graphics/SVG/1.1/DTD/svg11.dtd">
<svg xmlns:xlink="http://www.w3.org/1999/xlink" width="360pt" height="72pt" viewBox="0 0 360 72" xmlns="http://www.w3.org/2000/svg" version="1.1">
 <metadata>
  <rdf:RDF xmlns:dc="http://purl.org/dc/elements/1.1/" xmlns:cc="http://creativecommons.org/ns#" xmlns:rdf="http://www.w3.org/1999/02/22-rdf-syntax-ns#">
   <cc:Work>
    <dc:type rdf:resource="http://purl.org/dc/dcmitype/StillImage"/>
    <dc:format>image/svg+xml</dc:format>
    <dc:creator>
     <cc:Agent>
      <dc:title>Matplotlib v3.10.9, https://matplotlib.org/</dc:title>
     </cc:Agent>
    </dc:creator>
   </cc:Work>
  </rdf:RDF>
 </metadata>
 <defs>
  <style type="text/css">*{stroke-linejoin: round; stroke-linecap: butt}</style>
 </defs>
 <g id="figure_1">
  <g id="patch_1">
   <path d="M 0 72 
L 360 72 
L 360 0 
L 0 0 
z
" style="fill: #ffffff"/>
  </g>
  <g id="axes_1">
   <g id="patch_2">
    <path d="M 0 72 
L 360 72 
L 360 0 
L 0 0 
z
" clip-path="url(#pa08b9faa61)" style="fill: #ffffff; stroke: #ffffff; stroke-linejoin: miter"/>
   </g>
   <g id="patch_3">
    <path d="M 0 72 
Q 0 0 0 0 
L 360 0 
L 360 72 
z
" clip-path="url(#pa08b9faa61)" style="fill: #ffffff"/>
   </g>
   <g id="patch_4">
    <path d="M 36 0 
Q 36 18 36 18 
L 360 18 
L 360 0 
z
" clip-path="url(#pa08b9faa61)" style="fill: #ffffff"/>
   </g>
   <g id="patch_5">
    <path d="M 36 54 
Q 36 72 36 72 
L 360 72 
L 360 54 
z
" clip-path="url(#pa08b9faa61)" style="fill: #ffffff"/>
   </g>
   <g id="patch_6">
    <path d="M 108 0 
Q 108 18 108 18 
L 360 18 
L 360 0 
z
" clip-path="url(#pa08b9faa61)" style="fill: #ffffff"/>
   </g>
   <g id="patch_7">
    <path d="M 108 54 
Q 108 72 108 72 
L 360 72 
L 360 54 
z
" clip-path="url(#pa08b9faa61)" style="fill: #ffffff"/>
   </g>
   <g id="patch_8">
    <path d="M 126 18 
Q 126 54 126 54 
L 360 54 
L 360 18 
z
" clip-path="url(#pa08b9faa61)" style="fill: #ffffff"/>
   </g>
   <g id="patch_9">
    <path d="M 252 0 
Q 252 18 252 18 
L 360 18 
L 360 0 
z
" clip-path="url(#pa08b9faa61)" style="fill: #ffffff"/>
   </g>
   <g id="patch_10">
    <path d="M 252 54 
Q 252 72 252 72 
L 360 72 
L 360 54 
z
" clip-path="url(#pa08b9faa61)" style="fill: #ffffff"/>
   </g>
   <g id="patch_11">
    <path d="M 324 0 
Q 324 18 324 18 
L 360 18 
L 360 0 
z
" clip-path="url(#pa08b9faa61)" style="fill: #ffffff"/>
   </g>
   <g id="patch_12">
    <path d="M 324 54 
Q 324 72 324 72 
L 360 72 
L 360 54 
z
" clip-path="url(#pa08b9faa61)" style="fill: #ffffff"/>
   </g>
   <g id="patch_13">
    <path d="M 342 18 
Q 342 54 342 54 
L 360 54 
L 360 18 
z
" clip-path="url(#pa08b9faa61)" style="fill: #ffffff"/>
   </g>
   <g id="patch_14">
    <path d="M 36 0 
Q 36 18 36 18 
" clip-path="url(#pa08b9faa61)" style="fill: none; stroke: #000000; stroke-linejoin: miter"/>
   </g>
   <g id="patch_15">
    <path d="M 108 0 
Q 108 18 108 18 
" clip-path="url(#pa08b9faa61)" style="fill: none; stroke: #000000; stroke-linejoin: miter"/>
   </g>
   <g id="patch_16">
    <path d="M 36 54 
Q 36 72 36 72 
" clip-path="url(#pa08b9faa61)" style="fill: none; stroke: #000000; stroke-linejoin: miter"/>
   </g>
   <g id="patch_17">
    <path d="M 108 54 
Q 108 72 108 72 
" clip-path="url(#pa08b9faa61)" style="fill: none; stroke: #000000; stroke-linejoin: miter"/>
   </g>
   <g id="patch_18">
    <path d="M 252 0 
Q 252 18 252 18 
" clip-path="url(#pa08b9faa61)" style="fill: none; stroke: #000000; stroke-linejoin: miter"/>
   </g>
   <g id="patch_19">
    <path d="M 324 0 
Q 324 18 324 18 
" clip-path="url(#pa08b9faa61)" style="fill: none; stroke: #000000; stroke-linejoin: miter"/>
   </g>
   <g id="patch_20">
    <path d="M 252 54 
Q 252 72 252 72 
" clip-path="url(#pa08b9faa61)" style="fill: none; stroke: #000000; stroke-linejoin: miter"/>
   </g>
   <g id="patch_21">
    <path d="M 324 54 
Q 324 72 324 72 
" clip-path="url(#pa08b9faa61)" style="fill: none; stroke: #000000; stroke-linejoin: miter"/>
   </g>
   <g id="patch_22">
    <path d="M 18 54 
L 18 18 
L 126 18 
L 135 54 
z
" clip-path="url(#pa08b9faa61)" style="fill: #ffffff; stroke: #000000; stroke-linejoin: miter"/>
   </g>
   <g id="patch_23">
    <path d="M 234 54 
L 234 18 
L 351 18 
L 342 54 
z
" clip-path="url(#pa08b9faa61)" style="fill: #ffffff; stroke: #000000; stroke-linejoin: miter"/>
   </g>
   <g id="PathCollection_1">
    <defs>
     <path id="m9f6934a06b" d="M 0 5.790078 
C 1.535547 5.790078 3.008408 5.179999 4.094203 4.094203 
C 5.179999 3.008408 5.790078 1.535547 5.790078 0 
C 5.790078 -1.535547 5.179999 -3.008408 4.094203 -4.094203 
C 3.008408 -5.179999 1.535547 -5.790078 0 -5.790078 
C -1.535547 -5.790078 -3.008408 -5.179999 -4.094203 -4.094203 
C -5.179999 -3.008408 -5.790078 -1.535547 -5.790078 0 
C -5.790078 1.535547 -5.179999 3.008408 -4.094203 4.094203 
C -3.008408 5.179999 -1.535547 5.790078 0 5.790078 
z
" style="stroke: #ffffff"/>
    </defs>
    <g clip-path="url(#pa08b9faa61)">
     <use xlink:href="#m9f6934a06b" x="180" y="36" style="fill: #ffffff; stroke: #ffffff"/>
    </g>
   </g>
   <g id="text_1">
    <!-- x -->
    <g transform="translate(40.5 12.098438) scale(0.1 -0.1)">
     <defs>
      <path id="DejaVuSans-78" d="M 3513 3500 
L 2247 1797 
L 3578 0 
L 2900 0 
L 1881 1375 
L 863 0 
L 184 0 
L 1544 1831 
L 300 3500 
L 978 3500 
L 1906 2253 
L 2834 3500 
L 3513 3500 
z
" transform="scale(0.015625)"/>
     </defs>
     <use xlink:href="#DejaVuSans-78"/>
    </g>
   </g>
   <g id="text_2">
    <!-- v -->
    <g transform="translate(112.5 12.098438) scale(0.1 -0.1)">
     <defs>
      <path id="DejaVuSans-76" d="M 191 3500 
L 800 3500 
L 1894 563 
L 2988 3500 
L 3597 3500 
L 2284 0 
L 1503 0 
L 191 3500 
z
" transform="scale(0.015625)"/>
     </defs>
     <use xlink:href="#DejaVuSans-76"/>
    </g>
   </g>
   <g id="text_3">
    <!-- y -->
    <g transform="translate(40.5 66.098438) scale(0.1 -0.1)">
     <defs>
      <path id="DejaVuSans-79" d="M 2059 -325 
Q 1816 -950 1584 -1140 
Q 1353 -1331 966 -1331 
L 506 -1331 
L 506 -850 
L 844 -850 
Q 1081 -850 1212 -737 
Q 1344 -625 1503 -206 
L 1606 56 
L 191 3500 
L 800 3500 
L 1894 763 
L 2988 3500 
L 3597 3500 
L 2059 -325 
z
" transform="scale(0.015625)"/>
     </defs>
     <use xlink:href="#DejaVuSans-79"/>
    </g>
   </g>
   <g id="text_4">
    <!-- u -->
    <g transform="translate(112.5 66.098438) scale(0.1 -0.1)">
     <defs>
      <path id="DejaVuSans-75" d="M 544 1381 
L 544 3500 
L 1119 3500 
L 1119 1403 
Q 1119 906 1312 657 
Q 1506 409 1894 409 
Q 2359 409 2629 706 
Q 2900 1003 2900 1516 
L 2900 3500 
L 3475 3500 
L 3475 0 
L 2900 0 
L 2900 538 
Q 2691 219 2414 64 
Q 2138 -91 1772 -91 
Q 1169 -91 856 284 
Q 544 659 544 1381 
z
M 1991 3584 
L 1991 3584 
z
" transform="scale(0.015625)"/>
     </defs>
     <use xlink:href="#DejaVuSans-75"/>
    </g>
   </g>
   <g id="text_5">
    <!-- y -->
    <g transform="translate(256.5 12.098438) scale(0.1 -0.1)">
     <use xlink:href="#DejaVuSans-79"/>
    </g>
   </g>
   <g id="text_6">
    <!-- u -->
    <g transform="translate(328.5 12.098438) scale(0.1 -0.1)">
     <use xlink:href="#DejaVuSans-75"/>
    </g>
   </g>
   <g id="text_7">
    <!-- x -->
    <g transform="translate(256.5 66.098438) scale(0.1 -0.1)">
     <use xlink:href="#DejaVuSans-78"/>
    </g>
   </g>
   <g id="text_8">
    <!-- v -->
    <g transform="translate(328.5 66.098438) scale(0.1 -0.1)">
     <use xlink:href="#DejaVuSans-76"/>
    </g>
   </g>
   <g id="text_9">
    <!-- f -->
    <g transform="translate(70.239844 38.759375) scale(0.1 -0.1)">
     <defs>
      <path id="DejaVuSans-66" d="M 2375 4863 
L 2375 4384 
L 1825 4384 
Q 1516 4384 1395 4259 
Q 1275 4134 1275 3809 
L 1275 3500 
L 2222 3500 
L 2222 3053 
L 1275 3053 
L 1275 0 
L 697 0 
L 697 3053 
L 147 3053 
L 147 3500 
L 697 3500 
L 697 3744 
Q 697 4328 969 4595 
Q 1241 4863 1831 4863 
L 2375 4863 
z
" transform="scale(0.015625)"/>
     </defs>
     <use xlink:href="#DejaVuSans-66"/>
    </g>
   </g>
   <g id="text_10">
    <!-- f -->
    <g transform="translate(286.239844 38.759375) scale(0.1 -0.1)">
     <use xlink:href="#DejaVuSans-66"/>
    </g>
   </g>
   <g id="text_11">
    <g clip-path="url(#pa08b9faa61)">
     <!-- $\mapsto$ -->
     <g transform="translate(172.62 39.31125) scale(0.12 -0.12)">
      <defs>
       <path id="DejaVuSans-21a6" d="M 4175 1741 
L 897 1741 
L 897 663 
L 366 663 
L 366 3350 
L 897 3350 
L 897 2272 
L 4175 2272 
L 3447 3000 
L 3822 3375 
L 5050 2147 
L 5050 1866 
L 3822 638 
L 3447 1013 
L 4175 1741 
z
" transform="scale(0.015625)"/>
      </defs>
      <use xlink:href="#DejaVuSans-21a6" transform="translate(19.482422 0.265625)"/>
     </g>
    </g>
   </g>
  </g>
 </g>
 <defs>
  <clipPath id="pa08b9faa61">
   <rect x="0" y="0" width="360" height="72"/>
  </clipPath>
 </defs>
</svg>
