<?xml version="1.0" encoding="utf-8" standalone="no"?>
<!DOCTYPE svg PUBLIC "-//W3C//DTD SVG 1.1//EN"
  "http://www.w3.org/Graphics/SVG/1.1/DTD/svg11.dtd">
<svg xmlns:xlink="http://www.w3.org/1999/xlink" width="288pt" height="504pt" viewBox="0 0 288 504" xmlns="http://www.w3.org/2000/svg" version="1.1"><style>@media (prefers-color-scheme: dark) { [id^="dark-stroke"], [id^="dark-stroke"] * { stroke: #ffffff !important; } [id^="dark-fill"], [id^="dark-fill"] * { fill: #ffffff !important; } }</style>
 <defs>
  <style type="text/css">*{stroke-linejoin: round; stroke-linecap: butt}</style>
 </defs>
 <g id="figure_1">
  <g id="patch_1">
   <path d="M 0 504 
L 288 504 
L 288 0 
L 0 0 
L 0 504 
z
" style="fill: none"/>
  </g>
  <g id="axes_1">
   <g id="patch_2">
    <path d="M 108 72 
C 108 86.4 119.52 95.04 133.344 102.528 
" clip-path="url(#pcbb5e6c3be)" style="fill: none; stroke: #ffffff; stroke-width: 3; stroke-linejoin: miter"/>
   </g>
   <g id="patch_3">
    <path d="M 154.656 113.472 
C 168.48 120.96 180 129.6 180 144 
" clip-path="url(#pcbb5e6c3be)" style="fill: none; stroke: #ffffff; stroke-width: 3; stroke-linejoin: miter"/>
   </g>
   <g id="patch_4">
    <path d="M 180 72 
C 180 108 108 108 108 144 
" clip-path="url(#pcbb5e6c3be)" style="fill: none; stroke: #ffffff; stroke-width: 3; stroke-linejoin: miter"/>
   </g>
   <g id="patch_5">
    <path d="M 180 216 
C 180 230.4 168.48 239.04 154.656 246.528 
" clip-path="url(#pcbb5e6c3be)" style="fill: none; stroke: #ffffff; stroke-width: 3; stroke-linejoin: miter"/>
   </g>
   <g id="patch_6">
    <path d="M 133.344 257.472 
C 119.52 264.96 108 273.6 108 288 
" clip-path="url(#pcbb5e6c3be)" style="fill: none; stroke: #ffffff; stroke-width: 3; stroke-linejoin: miter"/>
   </g>
   <g id="patch_7">
    <path d="M 108 216 
C 108 252 180 252 180 288 
" clip-path="url(#pcbb5e6c3be)" style="fill: none; stroke: #ffffff; stroke-width: 3; stroke-linejoin: miter"/>
   </g>
   <g id="patch_8">
    <path d="M 108 360 
C 108 374.4 119.52 383.04 133.344 390.528 
" clip-path="url(#pcbb5e6c3be)" style="fill: none; stroke: #ffffff; stroke-width: 3; stroke-linejoin: miter"/>
   </g>
   <g id="patch_9">
    <path d="M 154.656 401.472 
C 168.48 408.96 180 417.6 180 432 
" clip-path="url(#pcbb5e6c3be)" style="fill: none; stroke: #ffffff; stroke-width: 3; stroke-linejoin: miter"/>
   </g>
   <g id="patch_10">
    <path d="M 180 360 
C 180 396 108 396 108 432 
" clip-path="url(#pcbb5e6c3be)" style="fill: none; stroke: #ffffff; stroke-width: 3; stroke-linejoin: miter"/>
   </g>
   <g id="patch_11">
    <path d="M 0 504 
L 288 504 
L 288 0 
L 0 0 
L 0 504 
z
" clip-path="url(#pcbb5e6c3be)" style="fill: none"/>
   </g>
   <g id="dark-stroke-1">
    <path d="M 108 72 
C 108 86.4 119.52 95.04 133.344 102.528 
" clip-path="url(#pcbb5e6c3be)" style="fill: none; stroke: #000000; stroke-linejoin: miter"/>
   </g>
   <g id="dark-stroke-2">
    <path d="M 154.656 113.472 
C 168.48 120.96 180 129.6 180 144 
" clip-path="url(#pcbb5e6c3be)" style="fill: none; stroke: #000000; stroke-linejoin: miter"/>
   </g>
   <g id="dark-stroke-3">
    <path d="M 180 72 
C 180 108 108 108 108 144 
" clip-path="url(#pcbb5e6c3be)" style="fill: none; stroke: #000000; stroke-linejoin: miter"/>
   </g>
   <g id="dark-stroke-4">
    <path d="M 180 216 
C 180 230.4 168.48 239.04 154.656 246.528 
" clip-path="url(#pcbb5e6c3be)" style="fill: none; stroke: #000000; stroke-linejoin: miter"/>
   </g>
   <g id="dark-stroke-5">
    <path d="M 133.344 257.472 
C 119.52 264.96 108 273.6 108 288 
" clip-path="url(#pcbb5e6c3be)" style="fill: none; stroke: #000000; stroke-linejoin: miter"/>
   </g>
   <g id="dark-stroke-6">
    <path d="M 108 216 
C 108 252 180 252 180 288 
" clip-path="url(#pcbb5e6c3be)" style="fill: none; stroke: #000000; stroke-linejoin: miter"/>
   </g>
   <g id="dark-stroke-7">
    <path d="M 108 360 
C 108 374.4 119.52 383.04 133.344 390.528 
" clip-path="url(#pcbb5e6c3be)" style="fill: none; stroke: #000000; stroke-linejoin: miter"/>
   </g>
   <g id="dark-stroke-8">
    <path d="M 154.656 401.472 
C 168.48 408.96 180 417.6 180 432 
" clip-path="url(#pcbb5e6c3be)" style="fill: none; stroke: #000000; stroke-linejoin: miter"/>
   </g>
   <g id="dark-stroke-9">
    <path d="M 180 360 
C 180 396 108 396 108 432 
" clip-path="url(#pcbb5e6c3be)" style="fill: none; stroke: #000000; stroke-linejoin: miter"/>
   </g>
   <g id="dark-stroke-11">
    <path d="M 36 0 
Q 36 162 36 162 
" clip-path="url(#pcbb5e6c3be)" style="fill: none; stroke: #ffffff; stroke-width: 3; stroke-linejoin: miter"/>
    <path d="M 36 0 
Q 36 162 36 162 
" clip-path="url(#pcbb5e6c3be)" style="fill: none; stroke: #000000; stroke-linejoin: miter"/>
   </g>
   <g id="dark-stroke-13">
    <path d="M 108 0 
Q 108 72 108 72 
" clip-path="url(#pcbb5e6c3be)" style="fill: none; stroke: #ffffff; stroke-width: 3; stroke-linejoin: miter"/>
    <path d="M 108 0 
Q 108 72 108 72 
" clip-path="url(#pcbb5e6c3be)" style="fill: none; stroke: #000000; stroke-linejoin: miter"/>
   </g>
   <g id="dark-stroke-14">
    <path d="M 216 36 
Q 180 36 180 72 
" clip-path="url(#pcbb5e6c3be)" style="fill: none; stroke: #ffffff; stroke-width: 3; stroke-linejoin: miter"/>
    <path d="M 216 36 
Q 180 36 180 72 
" clip-path="url(#pcbb5e6c3be)" style="fill: none; stroke: #000000; stroke-linejoin: miter"/>
   </g>
   <g id="dark-stroke-15">
    <path d="M 216 36 
Q 252 36 252 72 
" clip-path="url(#pcbb5e6c3be)" style="fill: none; stroke: #ffffff; stroke-width: 3; stroke-linejoin: miter"/>
    <path d="M 216 36 
Q 252 36 252 72 
" clip-path="url(#pcbb5e6c3be)" style="fill: none; stroke: #000000; stroke-linejoin: miter"/>
   </g>
   <g id="dark-stroke-18">
    <path d="M 252 72 
Q 252 432 252 432 
" clip-path="url(#pcbb5e6c3be)" style="fill: none; stroke: #ffffff; stroke-width: 3; stroke-linejoin: miter"/>
    <path d="M 252 72 
Q 252 432 252 432 
" clip-path="url(#pcbb5e6c3be)" style="fill: none; stroke: #000000; stroke-linejoin: miter"/>
   </g>
   <g id="dark-stroke-20">
    <path d="M 108 144 
Q 108 162 108 162 
" clip-path="url(#pcbb5e6c3be)" style="fill: none; stroke: #ffffff; stroke-width: 3; stroke-linejoin: miter"/>
    <path d="M 108 144 
Q 108 162 108 162 
" clip-path="url(#pcbb5e6c3be)" style="fill: none; stroke: #000000; stroke-linejoin: miter"/>
   </g>
   <g id="dark-stroke-22">
    <path d="M 180 144 
Q 180 216 180 216 
" clip-path="url(#pcbb5e6c3be)" style="fill: none; stroke: #ffffff; stroke-width: 3; stroke-linejoin: miter"/>
    <path d="M 180 144 
Q 180 216 180 216 
" clip-path="url(#pcbb5e6c3be)" style="fill: none; stroke: #000000; stroke-linejoin: miter"/>
   </g>
   <g id="dark-stroke-24">
    <path d="M 36 198 
Q 36 504 36 504 
" clip-path="url(#pcbb5e6c3be)" style="fill: none; stroke: #ffffff; stroke-width: 3; stroke-linejoin: miter"/>
    <path d="M 36 198 
Q 36 504 36 504 
" clip-path="url(#pcbb5e6c3be)" style="fill: none; stroke: #000000; stroke-linejoin: miter"/>
   </g>
   <g id="dark-stroke-26">
    <path d="M 108 198 
Q 108 216 108 216 
" clip-path="url(#pcbb5e6c3be)" style="fill: none; stroke: #ffffff; stroke-width: 3; stroke-linejoin: miter"/>
    <path d="M 108 198 
Q 108 216 108 216 
" clip-path="url(#pcbb5e6c3be)" style="fill: none; stroke: #000000; stroke-linejoin: miter"/>
   </g>
   <g id="dark-stroke-28">
    <path d="M 108 288 
Q 108 306 108 306 
" clip-path="url(#pcbb5e6c3be)" style="fill: none; stroke: #ffffff; stroke-width: 3; stroke-linejoin: miter"/>
    <path d="M 108 288 
Q 108 306 108 306 
" clip-path="url(#pcbb5e6c3be)" style="fill: none; stroke: #000000; stroke-linejoin: miter"/>
   </g>
   <g id="dark-stroke-30">
    <path d="M 180 288 
Q 180 360 180 360 
" clip-path="url(#pcbb5e6c3be)" style="fill: none; stroke: #ffffff; stroke-width: 3; stroke-linejoin: miter"/>
    <path d="M 180 288 
Q 180 360 180 360 
" clip-path="url(#pcbb5e6c3be)" style="fill: none; stroke: #000000; stroke-linejoin: miter"/>
   </g>
   <g id="dark-stroke-32">
    <path d="M 108 342 
Q 108 360 108 360 
" clip-path="url(#pcbb5e6c3be)" style="fill: none; stroke: #ffffff; stroke-width: 3; stroke-linejoin: miter"/>
    <path d="M 108 342 
Q 108 360 108 360 
" clip-path="url(#pcbb5e6c3be)" style="fill: none; stroke: #000000; stroke-linejoin: miter"/>
   </g>
   <g id="dark-stroke-34">
    <path d="M 108 432 
Q 108 504 108 504 
" clip-path="url(#pcbb5e6c3be)" style="fill: none; stroke: #ffffff; stroke-width: 3; stroke-linejoin: miter"/>
    <path d="M 108 432 
Q 108 504 108 504 
" clip-path="url(#pcbb5e6c3be)" style="fill: none; stroke: #000000; stroke-linejoin: miter"/>
   </g>
   <g id="dark-stroke-36">
    <path d="M 180 432 
Q 180 468 216 468 
" clip-path="url(#pcbb5e6c3be)" style="fill: none; stroke: #ffffff; stroke-width: 3; stroke-linejoin: miter"/>
    <path d="M 180 432 
Q 180 468 216 468 
" clip-path="url(#pcbb5e6c3be)" style="fill: none; stroke: #000000; stroke-linejoin: miter"/>
   </g>
   <g id="dark-stroke-37">
    <path d="M 252 432 
Q 252 468 216 468 
" clip-path="url(#pcbb5e6c3be)" style="fill: none; stroke: #ffffff; stroke-width: 3; stroke-linejoin: miter"/>
    <path d="M 252 432 
Q 252 468 216 468 
" clip-path="url(#pcbb5e6c3be)" style="fill: none; stroke: #000000; stroke-linejoin: miter"/>
   </g>
   <g id="patch_12">
    <path d="M 18 198 
L 18 162 
L 126 162 
L 126 198 
z
" clip-path="url(#pcbb5e6c3be)" style="fill: #ffffff; stroke: #000000; stroke-linejoin: miter"/>
   </g>
   <g id="patch_13">
    <path d="M 90 342 
L 90 306 
L 126 306 
L 126 342 
z
" clip-path="url(#pcbb5e6c3be)" style="fill: #ffffff; stroke: #000000; stroke-linejoin: miter"/>
   </g>
   <g id="dark-fill-10">
    <path d="M 45.989063 6.629687 
L 44.010937 9.290625 
L 46.090625 12.098437 
L 45.03125 12.098437 
L 43.439062 9.95 
L 41.848438 12.098437 
L 40.7875 12.098437 
L 42.9125 9.2375 
L 40.96875 6.629687 
L 42.028125 6.629687 
L 43.478125 8.578125 
L 44.928125 6.629687 
L 45.989063 6.629687 
z
" style="stroke: #ffffff; stroke-width: 2"/>
    <path d="M 45.989063 6.629687 
L 44.010937 9.290625 
L 46.090625 12.098437 
L 45.03125 12.098437 
L 43.439062 9.95 
L 41.848438 12.098437 
L 40.7875 12.098437 
L 42.9125 9.2375 
L 40.96875 6.629687 
L 42.028125 6.629687 
L 43.478125 8.578125 
L 44.928125 6.629687 
L 45.989063 6.629687 
z
"/>
   </g>
   <g id="dark-fill-12">
    <path d="M 112.798438 6.629687 
L 113.75 6.629687 
L 115.459375 11.21875 
L 117.16875 6.629687 
L 118.120312 6.629687 
L 116.06875 12.098437 
L 114.848438 12.098437 
L 112.798438 6.629687 
z
" style="stroke: #ffffff; stroke-width: 2"/>
    <path d="M 112.798438 6.629687 
L 113.75 6.629687 
L 115.459375 11.21875 
L 117.16875 6.629687 
L 118.120312 6.629687 
L 116.06875 12.098437 
L 114.848438 12.098437 
L 112.798438 6.629687 
z
"/>
   </g>
   <g id="dark-fill-16">
    <path d="M 184.798438 60.629687 
L 185.75 60.629687 
L 187.459375 65.21875 
L 189.16875 60.629687 
L 190.120313 60.629687 
L 188.06875 66.098437 
L 186.848437 66.098437 
L 184.798438 60.629687 
z
" style="stroke: #ffffff; stroke-width: 2"/>
    <path d="M 184.798438 60.629687 
L 185.75 60.629687 
L 187.459375 65.21875 
L 189.16875 60.629687 
L 190.120313 60.629687 
L 188.06875 66.098437 
L 186.848437 66.098437 
L 184.798438 60.629687 
z
"/>
   </g>
   <g id="dark-fill-17">
    <path d="M 256.798437 60.629687 
L 257.75 60.629687 
L 259.459375 65.21875 
L 261.16875 60.629687 
L 262.120313 60.629687 
L 260.06875 66.098437 
L 258.848437 66.098437 
L 256.798437 60.629687 
z
M 262.711719 64.857812 
L 263.742969 64.857812 
L 263.742969 66.098437 
L 262.711719 66.098437 
L 262.711719 64.857812 
z
M 268.932617 61.46875 
Q 268.781055 61.38125 268.60293 61.340625 
Q 268.424805 61.298437 268.210742 61.298437 
Q 267.448242 61.298437 267.04043 61.79375 
Q 266.632617 62.289062 266.632617 63.217187 
L 266.632617 66.098437 
L 265.729492 66.098437 
L 265.729492 60.629687 
L 266.632617 60.629687 
L 266.632617 61.479687 
Q 266.916992 60.98125 267.370117 60.740625 
Q 267.824805 60.498437 268.474805 60.498437 
Q 268.566992 60.498437 268.679492 60.510937 
Q 268.791992 60.521875 268.92793 60.546875 
L 268.932617 61.46875 
z
" style="stroke: #ffffff; stroke-width: 2"/>
    <path d="M 256.798437 60.629687 
L 257.75 60.629687 
L 259.459375 65.21875 
L 261.16875 60.629687 
L 262.120313 60.629687 
L 260.06875 66.098437 
L 258.848437 66.098437 
L 256.798437 60.629687 
z
M 262.711719 64.857812 
L 263.742969 64.857812 
L 263.742969 66.098437 
L 262.711719 66.098437 
L 262.711719 64.857812 
z
M 268.932617 61.46875 
Q 268.781055 61.38125 268.60293 61.340625 
Q 268.424805 61.298437 268.210742 61.298437 
Q 267.448242 61.298437 267.04043 61.79375 
Q 266.632617 62.289062 266.632617 63.217187 
L 266.632617 66.098437 
L 265.729492 66.098437 
L 265.729492 60.629687 
L 266.632617 60.629687 
L 266.632617 61.479687 
Q 266.916992 60.98125 267.370117 60.740625 
Q 267.824805 60.498437 268.474805 60.498437 
Q 268.566992 60.498437 268.679492 60.510937 
Q 268.791992 60.521875 268.92793 60.546875 
L 268.932617 61.46875 
z
"/>
   </g>
   <g id="dark-fill-19">
    <path d="M 112.798438 132.629687 
L 113.75 132.629687 
L 115.459375 137.21875 
L 117.16875 132.629687 
L 118.120312 132.629687 
L 116.06875 138.098437 
L 114.848438 138.098437 
L 112.798438 132.629687 
z
" style="stroke: #ffffff; stroke-width: 2"/>
    <path d="M 112.798438 132.629687 
L 113.75 132.629687 
L 115.459375 137.21875 
L 117.16875 132.629687 
L 118.120312 132.629687 
L 116.06875 138.098437 
L 114.848438 138.098437 
L 112.798438 132.629687 
z
"/>
   </g>
   <g id="dark-fill-21">
    <path d="M 184.798438 132.629687 
L 185.75 132.629687 
L 187.459375 137.21875 
L 189.16875 132.629687 
L 190.120313 132.629687 
L 188.06875 138.098437 
L 186.848437 138.098437 
L 184.798438 132.629687 
z
" style="stroke: #ffffff; stroke-width: 2"/>
    <path d="M 184.798438 132.629687 
L 185.75 132.629687 
L 187.459375 137.21875 
L 189.16875 132.629687 
L 190.120313 132.629687 
L 188.06875 138.098437 
L 186.848437 138.098437 
L 184.798438 132.629687 
z
"/>
   </g>
   <g id="dark-fill-23">
    <path d="M 43.717188 210.60625 
Q 43.3375 211.582812 42.975 211.879687 
Q 42.614063 212.178125 42.009375 212.178125 
L 41.290625 212.178125 
L 41.290625 211.426562 
L 41.81875 211.426562 
Q 42.189062 211.426562 42.39375 211.25 
Q 42.6 211.075 42.848438 210.420312 
L 43.009375 210.010937 
L 40.798437 204.629687 
L 41.75 204.629687 
L 43.459375 208.90625 
L 45.16875 204.629687 
L 46.120312 204.629687 
L 43.717188 210.60625 
z
" style="stroke: #ffffff; stroke-width: 2"/>
    <path d="M 43.717188 210.60625 
Q 43.3375 211.582812 42.975 211.879687 
Q 42.614063 212.178125 42.009375 212.178125 
L 41.290625 212.178125 
L 41.290625 211.426562 
L 41.81875 211.426562 
Q 42.189062 211.426562 42.39375 211.25 
Q 42.6 211.075 42.848438 210.420312 
L 43.009375 210.010937 
L 40.798437 204.629687 
L 41.75 204.629687 
L 43.459375 208.90625 
L 45.16875 204.629687 
L 46.120312 204.629687 
L 43.717188 210.60625 
z
"/>
   </g>
   <g id="dark-fill-25">
    <path d="M 113.35 207.940625 
L 113.35 204.629687 
L 114.248437 204.629687 
L 114.248437 207.90625 
Q 114.248437 208.682812 114.55 209.071875 
Q 114.853125 209.459375 115.459375 209.459375 
Q 116.185937 209.459375 116.607812 208.995312 
Q 117.03125 208.53125 117.03125 207.729687 
L 117.03125 204.629687 
L 117.929688 204.629687 
L 117.929688 210.098437 
L 117.03125 210.098437 
L 117.03125 209.257812 
Q 116.704688 209.75625 116.271875 209.998437 
Q 115.840625 210.240625 115.26875 210.240625 
Q 114.326562 210.240625 113.8375 209.654687 
Q 113.35 209.06875 113.35 207.940625 
z
M 115.610938 204.498437 
L 115.610938 204.498437 
z
" style="stroke: #ffffff; stroke-width: 2"/>
    <path d="M 113.35 207.940625 
L 113.35 204.629687 
L 114.248437 204.629687 
L 114.248437 207.90625 
Q 114.248437 208.682812 114.55 209.071875 
Q 114.853125 209.459375 115.459375 209.459375 
Q 116.185937 209.459375 116.607812 208.995312 
Q 117.03125 208.53125 117.03125 207.729687 
L 117.03125 204.629687 
L 117.929688 204.629687 
L 117.929688 210.098437 
L 117.03125 210.098437 
L 117.03125 209.257812 
Q 116.704688 209.75625 116.271875 209.998437 
Q 115.840625 210.240625 115.26875 210.240625 
Q 114.326562 210.240625 113.8375 209.654687 
Q 113.35 209.06875 113.35 207.940625 
z
M 115.610938 204.498437 
L 115.610938 204.498437 
z
"/>
   </g>
   <g id="dark-fill-27">
    <path d="M 112.798438 276.629687 
L 113.75 276.629687 
L 115.459375 281.21875 
L 117.16875 276.629687 
L 118.120312 276.629687 
L 116.06875 282.098437 
L 114.848438 282.098437 
L 112.798438 276.629687 
z
" style="stroke: #ffffff; stroke-width: 2"/>
    <path d="M 112.798438 276.629687 
L 113.75 276.629687 
L 115.459375 281.21875 
L 117.16875 276.629687 
L 118.120312 276.629687 
L 116.06875 282.098437 
L 114.848438 282.098437 
L 112.798438 276.629687 
z
"/>
   </g>
   <g id="dark-fill-29">
    <path d="M 185.35 279.940625 
L 185.35 276.629687 
L 186.248437 276.629687 
L 186.248437 279.90625 
Q 186.248437 280.682813 186.55 281.071875 
Q 186.853125 281.459375 187.459375 281.459375 
Q 188.185937 281.459375 188.607812 280.995313 
Q 189.03125 280.53125 189.03125 279.729688 
L 189.03125 276.629687 
L 189.929688 276.629687 
L 189.929688 282.098437 
L 189.03125 282.098437 
L 189.03125 281.257812 
Q 188.704688 281.75625 188.271875 281.998437 
Q 187.840625 282.240625 187.26875 282.240625 
Q 186.326562 282.240625 185.8375 281.654687 
Q 185.35 281.06875 185.35 279.940625 
z
M 187.610938 276.498437 
L 187.610938 276.498437 
z
" style="stroke: #ffffff; stroke-width: 2"/>
    <path d="M 185.35 279.940625 
L 185.35 276.629687 
L 186.248437 276.629687 
L 186.248437 279.90625 
Q 186.248437 280.682813 186.55 281.071875 
Q 186.853125 281.459375 187.459375 281.459375 
Q 188.185937 281.459375 188.607812 280.995313 
Q 189.03125 280.53125 189.03125 279.729688 
L 189.03125 276.629687 
L 189.929688 276.629687 
L 189.929688 282.098437 
L 189.03125 282.098437 
L 189.03125 281.257812 
Q 188.704688 281.75625 188.271875 281.998437 
Q 187.840625 282.240625 187.26875 282.240625 
Q 186.326562 282.240625 185.8375 281.654687 
Q 185.35 281.06875 185.35 279.940625 
z
M 187.610938 276.498437 
L 187.610938 276.498437 
z
"/>
   </g>
   <g id="dark-fill-31">
    <path d="M 112.798438 348.629687 
L 113.75 348.629687 
L 115.459375 353.21875 
L 117.16875 348.629687 
L 118.120312 348.629687 
L 116.06875 354.098437 
L 114.848438 354.098437 
L 112.798438 348.629687 
z
" style="stroke: #ffffff; stroke-width: 2"/>
    <path d="M 112.798438 348.629687 
L 113.75 348.629687 
L 115.459375 353.21875 
L 117.16875 348.629687 
L 118.120312 348.629687 
L 116.06875 354.098437 
L 114.848438 354.098437 
L 112.798438 348.629687 
z
"/>
   </g>
   <g id="dark-fill-33">
    <path d="M 113.35 423.940625 
L 113.35 420.629687 
L 114.248437 420.629687 
L 114.248437 423.90625 
Q 114.248437 424.682813 114.55 425.071875 
Q 114.853125 425.459375 115.459375 425.459375 
Q 116.185937 425.459375 116.607812 424.995313 
Q 117.03125 424.53125 117.03125 423.729688 
L 117.03125 420.629687 
L 117.929688 420.629687 
L 117.929688 426.098437 
L 117.03125 426.098437 
L 117.03125 425.257812 
Q 116.704688 425.75625 116.271875 425.998437 
Q 115.840625 426.240625 115.26875 426.240625 
Q 114.326562 426.240625 113.8375 425.654687 
Q 113.35 425.06875 113.35 423.940625 
z
M 115.610938 420.498437 
L 115.610938 420.498437 
z
" style="stroke: #ffffff; stroke-width: 2"/>
    <path d="M 113.35 423.940625 
L 113.35 420.629687 
L 114.248437 420.629687 
L 114.248437 423.90625 
Q 114.248437 424.682813 114.55 425.071875 
Q 114.853125 425.459375 115.459375 425.459375 
Q 116.185937 425.459375 116.607812 424.995313 
Q 117.03125 424.53125 117.03125 423.729688 
L 117.03125 420.629687 
L 117.929688 420.629687 
L 117.929688 426.098437 
L 117.03125 426.098437 
L 117.03125 425.257812 
Q 116.704688 425.75625 116.271875 425.998437 
Q 115.840625 426.240625 115.26875 426.240625 
Q 114.326562 426.240625 113.8375 425.654687 
Q 113.35 425.06875 113.35 423.940625 
z
M 115.610938 420.498437 
L 115.610938 420.498437 
z
"/>
   </g>
   <g id="dark-fill-35">
    <path d="M 184.798438 420.629687 
L 185.75 420.629687 
L 187.459375 425.21875 
L 189.16875 420.629687 
L 190.120313 420.629687 
L 188.06875 426.098437 
L 186.848437 426.098437 
L 184.798438 420.629687 
z
" style="stroke: #ffffff; stroke-width: 2"/>
    <path d="M 184.798438 420.629687 
L 185.75 420.629687 
L 187.459375 425.21875 
L 189.16875 420.629687 
L 190.120313 420.629687 
L 188.06875 426.098437 
L 186.848437 426.098437 
L 184.798438 420.629687 
z
"/>
   </g>
   <g id="text_1">
    <!-- f -->
    <g transform="translate(70.239844 182.759375) scale(0.1 -0.1)">
     <defs>
      <path id="DejaVuSans-66" d="M 2375 4863 
L 2375 4384 
L 1825 4384 
Q 1516 4384 1395 4259 
Q 1275 4134 1275 3809 
L 1275 3500 
L 2222 3500 
L 2222 3053 
L 1275 3053 
L 1275 0 
L 697 0 
L 697 3053 
L 147 3053 
L 147 3500 
L 697 3500 
L 697 3744 
Q 697 4328 969 4595 
Q 1241 4863 1831 4863 
L 2375 4863 
z
" transform="scale(0.015625)"/>
     </defs>
     <use xlink:href="#DejaVuSans-66"/>
    </g>
   </g>
   <g id="text_2">
    <!-- Twist -->
    <g transform="translate(95.728125 326.759375) scale(0.1 -0.1)">
     <defs>
      <path id="DejaVuSans-54" d="M -19 4666 
L 3928 4666 
L 3928 4134 
L 2272 4134 
L 2272 0 
L 1638 0 
L 1638 4134 
L -19 4134 
L -19 4666 
z
" transform="scale(0.015625)"/>
      <path id="DejaVuSans-77" d="M 269 3500 
L 844 3500 
L 1563 769 
L 2278 3500 
L 2956 3500 
L 3675 769 
L 4391 3500 
L 4966 3500 
L 4050 0 
L 3372 0 
L 2619 2869 
L 1863 0 
L 1184 0 
L 269 3500 
z
" transform="scale(0.015625)"/>
      <path id="DejaVuSans-69" d="M 603 3500 
L 1178 3500 
L 1178 0 
L 603 0 
L 603 3500 
z
M 603 4863 
L 1178 4863 
L 1178 4134 
L 603 4134 
L 603 4863 
z
" transform="scale(0.015625)"/>
      <path id="DejaVuSans-73" d="M 2834 3397 
L 2834 2853 
Q 2591 2978 2328 3040 
Q 2066 3103 1784 3103 
Q 1356 3103 1142 2972 
Q 928 2841 928 2578 
Q 928 2378 1081 2264 
Q 1234 2150 1697 2047 
L 1894 2003 
Q 2506 1872 2764 1633 
Q 3022 1394 3022 966 
Q 3022 478 2636 193 
Q 2250 -91 1575 -91 
Q 1294 -91 989 -36 
Q 684 19 347 128 
L 347 722 
Q 666 556 975 473 
Q 1284 391 1588 391 
Q 1994 391 2212 530 
Q 2431 669 2431 922 
Q 2431 1156 2273 1281 
Q 2116 1406 1581 1522 
L 1381 1569 
Q 847 1681 609 1914 
Q 372 2147 372 2553 
Q 372 3047 722 3315 
Q 1072 3584 1716 3584 
Q 2034 3584 2315 3537 
Q 2597 3491 2834 3397 
z
" transform="scale(0.015625)"/>
      <path id="DejaVuSans-74" d="M 1172 4494 
L 1172 3500 
L 2356 3500 
L 2356 3053 
L 1172 3053 
L 1172 1153 
Q 1172 725 1289 603 
Q 1406 481 1766 481 
L 2356 481 
L 2356 0 
L 1766 0 
Q 1100 0 847 248 
Q 594 497 594 1153 
L 594 3053 
L 172 3053 
L 172 3500 
L 594 3500 
L 594 4494 
L 1172 4494 
z
" transform="scale(0.015625)"/>
     </defs>
     <use xlink:href="#DejaVuSans-54"/>
     <use xlink:href="#DejaVuSans-77" transform="translate(44.583984 0)"/>
     <use xlink:href="#DejaVuSans-69" transform="translate(126.371094 0)"/>
     <use xlink:href="#DejaVuSans-73" transform="translate(154.154297 0)"/>
     <use xlink:href="#DejaVuSans-74" transform="translate(206.253906 0)"/>
    </g>
   </g>
  </g>
 </g>
 <defs>
  <clipPath id="pcbb5e6c3be">
   <rect x="0" y="0" width="288" height="504"/>
  </clipPath>
 </defs>
</svg>
