<?xml version="1.0" encoding="utf-8" standalone="no"?>
<!DOCTYPE svg PUBLIC "-//W3C//DTD SVG 1.1//EN"
  "http://www.w3.org/Graphics/SVG/1.1/DTD/svg11.dtd">
<svg xmlns:xlink="http://www.w3.org/1999/xlink" width="432pt" height="216pt" viewBox="0 0 432 216" xmlns="http://www.w3.org/2000/svg" version="1.1">
 <metadata>
  <rdf:RDF xmlns:dc="http://purl.org/dc/elements/1.1/" xmlns:cc="http://creativecommons.org/ns#" xmlns:rdf="http://www.w3.org/1999/02/22-rdf-syntax-ns#">
   <cc:Work>
    <dc:type rdf:resource="http://purl.org/dc/dcmitype/StillImage"/>
    <dc:format>image/svg+xml</dc:format>
    <dc:creator>
     <cc:Agent>
      <dc:title>Matplotlib v3.10.9, https://matplotlib.org/</dc:title>
     </cc:Agent>
    </dc:creator>
   </cc:Work>
  </rdf:RDF>
 </metadata>
 <defs>
  <style type="text/css">*{stroke-linejoin: round; stroke-linecap: butt}</style>
 </defs>
 <g id="figure_1">
  <g id="patch_1">
   <path d="M 0 216 
L 432 216 
L 432 0 
L 0 0 
z
" style="fill: #ffffff"/>
  </g>
  <g id="axes_1">
   <g id="patch_2">
    <path d="M 0 216 
L 432 216 
L 432 0 
L 0 0 
z
" clip-path="url(#p970dbbc4f6)" style="fill: #ffffff; stroke: #ffffff; stroke-linejoin: miter"/>
   </g>
   <g id="patch_3">
    <path d="M 0 216 
Q 0 0 0 0 
L 432 0 
L 432 216 
z
" clip-path="url(#p970dbbc4f6)" style="fill: #ffffff"/>
   </g>
   <g id="patch_4">
    <path d="M 36 0 
Q 36 90 36 90 
L 432 90 
L 432 0 
z
" clip-path="url(#p970dbbc4f6)" style="fill: #ffffff"/>
   </g>
   <g id="patch_5">
    <path d="M 36 126 
Q 36 216 36 216 
L 432 216 
L 432 126 
z
" clip-path="url(#p970dbbc4f6)" style="fill: #ffffff"/>
   </g>
   <g id="patch_6">
    <path d="M 108 72 
Q 108 90 108 90 
L 432 90 
L 432 72 
z
" clip-path="url(#p970dbbc4f6)" style="fill: #ffffff"/>
   </g>
   <g id="patch_7">
    <path d="M 108 126 
Q 108 144 108 144 
L 432 144 
L 432 126 
z
" clip-path="url(#p970dbbc4f6)" style="fill: #ffffff"/>
   </g>
   <g id="patch_8">
    <path d="M 144 36 
Q 108 36 108 72 
L 432 72 
L 432 36 
z
" clip-path="url(#p970dbbc4f6)" style="fill: #ffffff"/>
   </g>
   <g id="patch_9">
    <path d="M 108 144 
Q 108 180 144 180 
L 432 180 
L 432 144 
z
" clip-path="url(#p970dbbc4f6)" style="fill: #ffffff"/>
   </g>
   <g id="patch_10">
    <path d="M 126 90 
Q 126 126 126 126 
L 432 126 
L 432 90 
z
" clip-path="url(#p970dbbc4f6)" style="fill: #ffffff"/>
   </g>
   <g id="patch_11">
    <path d="M 144 36 
Q 180 36 180 72 
L 432 72 
L 432 36 
z
" clip-path="url(#p970dbbc4f6)" style="fill: #ffffff"/>
   </g>
   <g id="patch_12">
    <path d="M 180 144 
Q 180 180 144 180 
L 432 180 
L 432 144 
z
" clip-path="url(#p970dbbc4f6)" style="fill: #ffffff"/>
   </g>
   <g id="patch_13">
    <path d="M 216 108 
Q 180 108 180 144 
L 432 144 
L 432 108 
z
" clip-path="url(#p970dbbc4f6)" style="fill: #ffffff"/>
   </g>
   <g id="patch_14">
    <path d="M 180 72 
Q 180 108 216 108 
L 432 108 
L 432 72 
z
" clip-path="url(#p970dbbc4f6)" style="fill: #ffffff"/>
   </g>
   <g id="patch_15">
    <path d="M 216 108 
Q 252 108 252 144 
L 432 144 
L 432 108 
z
" clip-path="url(#p970dbbc4f6)" style="fill: #ffffff"/>
   </g>
   <g id="patch_16">
    <path d="M 252 72 
Q 252 108 216 108 
L 432 108 
L 432 72 
z
" clip-path="url(#p970dbbc4f6)" style="fill: #ffffff"/>
   </g>
   <g id="patch_17">
    <path d="M 288 36 
Q 252 36 252 72 
L 432 72 
L 432 36 
z
" clip-path="url(#p970dbbc4f6)" style="fill: #ffffff"/>
   </g>
   <g id="patch_18">
    <path d="M 252 144 
Q 252 180 288 180 
L 432 180 
L 432 144 
z
" clip-path="url(#p970dbbc4f6)" style="fill: #ffffff"/>
   </g>
   <g id="patch_19">
    <path d="M 288 36 
Q 324 36 324 72 
L 432 72 
L 432 36 
z
" clip-path="url(#p970dbbc4f6)" style="fill: #ffffff"/>
   </g>
   <g id="patch_20">
    <path d="M 324 144 
Q 324 180 288 180 
L 432 180 
L 432 144 
z
" clip-path="url(#p970dbbc4f6)" style="fill: #ffffff"/>
   </g>
   <g id="patch_21">
    <path d="M 324 72 
Q 324 90 324 90 
L 432 90 
L 432 72 
z
" clip-path="url(#p970dbbc4f6)" style="fill: #ffffff"/>
   </g>
   <g id="patch_22">
    <path d="M 324 126 
Q 324 144 324 144 
L 432 144 
L 432 126 
z
" clip-path="url(#p970dbbc4f6)" style="fill: #ffffff"/>
   </g>
   <g id="patch_23">
    <path d="M 396 0 
Q 396 90 396 90 
L 432 90 
L 432 0 
z
" clip-path="url(#p970dbbc4f6)" style="fill: #ffffff"/>
   </g>
   <g id="patch_24">
    <path d="M 396 126 
Q 396 216 396 216 
L 432 216 
L 432 126 
z
" clip-path="url(#p970dbbc4f6)" style="fill: #ffffff"/>
   </g>
   <g id="patch_25">
    <path d="M 414 90 
Q 414 126 414 126 
L 432 126 
L 432 90 
z
" clip-path="url(#p970dbbc4f6)" style="fill: #ffffff"/>
   </g>
   <g id="patch_26">
    <path d="M 180 72 
C 180 108 252 108 252 144 
" clip-path="url(#p970dbbc4f6)" style="fill: none; stroke: #000000; stroke-linejoin: miter"/>
   </g>
   <g id="patch_27">
    <path d="M 252 72 
C 252 108 180 108 180 144 
" clip-path="url(#p970dbbc4f6)" style="fill: none; stroke: #000000; stroke-linejoin: miter"/>
   </g>
   <g id="patch_28">
    <path d="M 36 0 
Q 36 90 36 90 
" clip-path="url(#p970dbbc4f6)" style="fill: none; stroke: #000000; stroke-linejoin: miter"/>
   </g>
   <g id="patch_29">
    <path d="M 144 36 
Q 108 36 108 72 
" clip-path="url(#p970dbbc4f6)" style="fill: none; stroke: #000000; stroke-linejoin: miter"/>
   </g>
   <g id="patch_30">
    <path d="M 144 36 
Q 180 36 180 72 
" clip-path="url(#p970dbbc4f6)" style="fill: none; stroke: #000000; stroke-linejoin: miter"/>
   </g>
   <g id="patch_31">
    <path d="M 108 72 
Q 108 90 108 90 
" clip-path="url(#p970dbbc4f6)" style="fill: none; stroke: #000000; stroke-linejoin: miter"/>
   </g>
   <g id="patch_32">
    <path d="M 288 36 
Q 252 36 252 72 
" clip-path="url(#p970dbbc4f6)" style="fill: none; stroke: #000000; stroke-linejoin: miter"/>
   </g>
   <g id="patch_33">
    <path d="M 288 36 
Q 324 36 324 72 
" clip-path="url(#p970dbbc4f6)" style="fill: none; stroke: #000000; stroke-linejoin: miter"/>
   </g>
   <g id="patch_34">
    <path d="M 324 72 
Q 324 90 324 90 
" clip-path="url(#p970dbbc4f6)" style="fill: none; stroke: #000000; stroke-linejoin: miter"/>
   </g>
   <g id="patch_35">
    <path d="M 396 0 
Q 396 90 396 90 
" clip-path="url(#p970dbbc4f6)" style="fill: none; stroke: #000000; stroke-linejoin: miter"/>
   </g>
   <g id="patch_36">
    <path d="M 36 126 
Q 36 216 36 216 
" clip-path="url(#p970dbbc4f6)" style="fill: none; stroke: #000000; stroke-linejoin: miter"/>
   </g>
   <g id="patch_37">
    <path d="M 108 126 
Q 108 144 108 144 
" clip-path="url(#p970dbbc4f6)" style="fill: none; stroke: #000000; stroke-linejoin: miter"/>
   </g>
   <g id="patch_38">
    <path d="M 324 126 
Q 324 144 324 144 
" clip-path="url(#p970dbbc4f6)" style="fill: none; stroke: #000000; stroke-linejoin: miter"/>
   </g>
   <g id="patch_39">
    <path d="M 396 126 
Q 396 216 396 216 
" clip-path="url(#p970dbbc4f6)" style="fill: none; stroke: #000000; stroke-linejoin: miter"/>
   </g>
   <g id="patch_40">
    <path d="M 108 144 
Q 108 180 144 180 
" clip-path="url(#p970dbbc4f6)" style="fill: none; stroke: #000000; stroke-linejoin: miter"/>
   </g>
   <g id="patch_41">
    <path d="M 180 144 
Q 180 180 144 180 
" clip-path="url(#p970dbbc4f6)" style="fill: none; stroke: #000000; stroke-linejoin: miter"/>
   </g>
   <g id="patch_42">
    <path d="M 252 144 
Q 252 180 288 180 
" clip-path="url(#p970dbbc4f6)" style="fill: none; stroke: #000000; stroke-linejoin: miter"/>
   </g>
   <g id="patch_43">
    <path d="M 324 144 
Q 324 180 288 180 
" clip-path="url(#p970dbbc4f6)" style="fill: none; stroke: #000000; stroke-linejoin: miter"/>
   </g>
   <g id="patch_44">
    <path d="M 18 126 
L 18 90 
L 126 90 
L 126 126 
z
" clip-path="url(#p970dbbc4f6)" style="fill: #ffffff; stroke: #000000; stroke-linejoin: miter"/>
   </g>
   <g id="patch_45">
    <path d="M 306 126 
L 306 90 
L 414 90 
L 414 126 
z
" clip-path="url(#p970dbbc4f6)" style="fill: #ffffff; stroke: #000000; stroke-linejoin: miter"/>
   </g>
   <g id="text_1">
    <!-- x0 -->
    <g transform="translate(40.5 12.098437) scale(0.1 -0.1)">
     <defs>
      <path id="DejaVuSans-78" d="M 3513 3500 
L 2247 1797 
L 3578 0 
L 2900 0 
L 1881 1375 
L 863 0 
L 184 0 
L 1544 1831 
L 300 3500 
L 978 3500 
L 1906 2253 
L 2834 3500 
L 3513 3500 
z
" transform="scale(0.015625)"/>
      <path id="DejaVuSans-30" d="M 2034 4250 
Q 1547 4250 1301 3770 
Q 1056 3291 1056 2328 
Q 1056 1369 1301 889 
Q 1547 409 2034 409 
Q 2525 409 2770 889 
Q 3016 1369 3016 2328 
Q 3016 3291 2770 3770 
Q 2525 4250 2034 4250 
z
M 2034 4750 
Q 2819 4750 3233 4129 
Q 3647 3509 3647 2328 
Q 3647 1150 3233 529 
Q 2819 -91 2034 -91 
Q 1250 -91 836 529 
Q 422 1150 422 2328 
Q 422 3509 836 4129 
Q 1250 4750 2034 4750 
z
" transform="scale(0.015625)"/>
     </defs>
     <use xlink:href="#DejaVuSans-78"/>
     <use xlink:href="#DejaVuSans-30" transform="translate(59.179688 0)"/>
    </g>
   </g>
   <g id="text_2">
    <!-- y1 -->
    <g transform="translate(112.5 66.098437) scale(0.1 -0.1)">
     <defs>
      <path id="DejaVuSans-79" d="M 2059 -325 
Q 1816 -950 1584 -1140 
Q 1353 -1331 966 -1331 
L 506 -1331 
L 506 -850 
L 844 -850 
Q 1081 -850 1212 -737 
Q 1344 -625 1503 -206 
L 1606 56 
L 191 3500 
L 800 3500 
L 1894 763 
L 2988 3500 
L 3597 3500 
L 2059 -325 
z
" transform="scale(0.015625)"/>
      <path id="DejaVuSans-31" d="M 794 531 
L 1825 531 
L 1825 4091 
L 703 3866 
L 703 4441 
L 1819 4666 
L 2450 4666 
L 2450 531 
L 3481 531 
L 3481 0 
L 794 0 
L 794 531 
z
" transform="scale(0.015625)"/>
     </defs>
     <use xlink:href="#DejaVuSans-79"/>
     <use xlink:href="#DejaVuSans-31" transform="translate(59.179688 0)"/>
    </g>
   </g>
   <g id="text_3">
    <!-- y1.r -->
    <g transform="translate(184.5 66.098437) scale(0.1 -0.1)">
     <defs>
      <path id="DejaVuSans-2e" d="M 684 794 
L 1344 794 
L 1344 0 
L 684 0 
L 684 794 
z
" transform="scale(0.015625)"/>
      <path id="DejaVuSans-72" d="M 2631 2963 
Q 2534 3019 2420 3045 
Q 2306 3072 2169 3072 
Q 1681 3072 1420 2755 
Q 1159 2438 1159 1844 
L 1159 0 
L 581 0 
L 581 3500 
L 1159 3500 
L 1159 2956 
Q 1341 3275 1631 3429 
Q 1922 3584 2338 3584 
Q 2397 3584 2469 3576 
Q 2541 3569 2628 3553 
L 2631 2963 
z
" transform="scale(0.015625)"/>
     </defs>
     <use xlink:href="#DejaVuSans-79"/>
     <use xlink:href="#DejaVuSans-31" transform="translate(59.179688 0)"/>
     <use xlink:href="#DejaVuSans-2e" transform="translate(122.802734 0)"/>
     <use xlink:href="#DejaVuSans-72" transform="translate(154.589844 0)"/>
    </g>
   </g>
   <g id="text_4">
    <!-- y0.r -->
    <g transform="translate(256.5 66.098437) scale(0.1 -0.1)">
     <use xlink:href="#DejaVuSans-79"/>
     <use xlink:href="#DejaVuSans-30" transform="translate(59.179688 0)"/>
     <use xlink:href="#DejaVuSans-2e" transform="translate(122.802734 0)"/>
     <use xlink:href="#DejaVuSans-72" transform="translate(154.589844 0)"/>
    </g>
   </g>
   <g id="text_5">
    <!-- y0 -->
    <g transform="translate(328.5 66.098437) scale(0.1 -0.1)">
     <use xlink:href="#DejaVuSans-79"/>
     <use xlink:href="#DejaVuSans-30" transform="translate(59.179688 0)"/>
    </g>
   </g>
   <g id="text_6">
    <!-- z1 -->
    <g transform="translate(400.5 12.098437) scale(0.1 -0.1)">
     <defs>
      <path id="DejaVuSans-7a" d="M 353 3500 
L 3084 3500 
L 3084 2975 
L 922 459 
L 3084 459 
L 3084 0 
L 275 0 
L 275 525 
L 2438 3041 
L 353 3041 
L 353 3500 
z
" transform="scale(0.015625)"/>
     </defs>
     <use xlink:href="#DejaVuSans-7a"/>
     <use xlink:href="#DejaVuSans-31" transform="translate(52.490234 0)"/>
    </g>
   </g>
   <g id="text_7">
    <!-- x1 -->
    <g transform="translate(40.5 138.098437) scale(0.1 -0.1)">
     <use xlink:href="#DejaVuSans-78"/>
     <use xlink:href="#DejaVuSans-31" transform="translate(59.179688 0)"/>
    </g>
   </g>
   <g id="text_8">
    <!-- y0 -->
    <g transform="translate(112.5 138.098437) scale(0.1 -0.1)">
     <use xlink:href="#DejaVuSans-79"/>
     <use xlink:href="#DejaVuSans-30" transform="translate(59.179688 0)"/>
    </g>
   </g>
   <g id="text_9">
    <!-- y0.r -->
    <g transform="translate(184.5 138.098437) scale(0.1 -0.1)">
     <use xlink:href="#DejaVuSans-79"/>
     <use xlink:href="#DejaVuSans-30" transform="translate(59.179688 0)"/>
     <use xlink:href="#DejaVuSans-2e" transform="translate(122.802734 0)"/>
     <use xlink:href="#DejaVuSans-72" transform="translate(154.589844 0)"/>
    </g>
   </g>
   <g id="text_10">
    <!-- y1.r -->
    <g transform="translate(256.5 138.098437) scale(0.1 -0.1)">
     <use xlink:href="#DejaVuSans-79"/>
     <use xlink:href="#DejaVuSans-31" transform="translate(59.179688 0)"/>
     <use xlink:href="#DejaVuSans-2e" transform="translate(122.802734 0)"/>
     <use xlink:href="#DejaVuSans-72" transform="translate(154.589844 0)"/>
    </g>
   </g>
   <g id="text_11">
    <!-- y1 -->
    <g transform="translate(328.5 138.098437) scale(0.1 -0.1)">
     <use xlink:href="#DejaVuSans-79"/>
     <use xlink:href="#DejaVuSans-31" transform="translate(59.179688 0)"/>
    </g>
   </g>
   <g id="text_12">
    <!-- z0 -->
    <g transform="translate(400.5 138.098437) scale(0.1 -0.1)">
     <use xlink:href="#DejaVuSans-7a"/>
     <use xlink:href="#DejaVuSans-30" transform="translate(52.490234 0)"/>
    </g>
   </g>
   <g id="text_13">
    <!-- f -->
    <g transform="translate(70.239844 110.759375) scale(0.1 -0.1)">
     <defs>
      <path id="DejaVuSans-66" d="M 2375 4863 
L 2375 4384 
L 1825 4384 
Q 1516 4384 1395 4259 
Q 1275 4134 1275 3809 
L 1275 3500 
L 2222 3500 
L 2222 3053 
L 1275 3053 
L 1275 0 
L 697 0 
L 697 3053 
L 147 3053 
L 147 3500 
L 697 3500 
L 697 3744 
Q 697 4328 969 4595 
Q 1241 4863 1831 4863 
L 2375 4863 
z
" transform="scale(0.015625)"/>
     </defs>
     <use xlink:href="#DejaVuSans-66"/>
    </g>
   </g>
   <g id="text_14">
    <!-- g -->
    <g transform="translate(356.825781 110.759375) scale(0.1 -0.1)">
     <defs>
      <path id="DejaVuSans-67" d="M 2906 1791 
Q 2906 2416 2648 2759 
Q 2391 3103 1925 3103 
Q 1463 3103 1205 2759 
Q 947 2416 947 1791 
Q 947 1169 1205 825 
Q 1463 481 1925 481 
Q 2391 481 2648 825 
Q 2906 1169 2906 1791 
z
M 3481 434 
Q 3481 -459 3084 -895 
Q 2688 -1331 1869 -1331 
Q 1566 -1331 1297 -1286 
Q 1028 -1241 775 -1147 
L 775 -588 
Q 1028 -725 1275 -790 
Q 1522 -856 1778 -856 
Q 2344 -856 2625 -561 
Q 2906 -266 2906 331 
L 2906 616 
Q 2728 306 2450 153 
Q 2172 0 1784 0 
Q 1141 0 747 490 
Q 353 981 353 1791 
Q 353 2603 747 3093 
Q 1141 3584 1784 3584 
Q 2172 3584 2450 3431 
Q 2728 3278 2906 2969 
L 2906 3500 
L 3481 3500 
L 3481 434 
z
" transform="scale(0.015625)"/>
     </defs>
     <use xlink:href="#DejaVuSans-67"/>
    </g>
   </g>
  </g>
 </g>
 <defs>
  <clipPath id="p970dbbc4f6">
   <rect x="0" y="0" width="432" height="216"/>
  </clipPath>
 </defs>
</svg>
