<?xml version="1.0" encoding="utf-8" standalone="no"?>
<!DOCTYPE svg PUBLIC "-//W3C//DTD SVG 1.1//EN"
  "http://www.w3.org/Graphics/SVG/1.1/DTD/svg11.dtd">
<svg xmlns:xlink="http://www.w3.org/1999/xlink" width="381.672pt" height="216pt" viewBox="0 0 381.672 216" xmlns="http://www.w3.org/2000/svg" version="1.1">
 <metadata>
  <rdf:RDF xmlns:dc="http://purl.org/dc/elements/1.1/" xmlns:cc="http://creativecommons.org/ns#" xmlns:rdf="http://www.w3.org/1999/02/22-rdf-syntax-ns#">
   <cc:Work>
    <dc:type rdf:resource="http://purl.org/dc/dcmitype/StillImage"/>
    <dc:format>image/svg+xml</dc:format>
    <dc:creator>
     <cc:Agent>
      <dc:title>Matplotlib v3.10.9, https://matplotlib.org/</dc:title>
     </cc:Agent>
    </dc:creator>
   </cc:Work>
  </rdf:RDF>
 </metadata>
 <defs>
  <style type="text/css">*{stroke-linejoin: round; stroke-linecap: butt}</style>
 </defs>
 <g id="figure_1">
  <g id="patch_1">
   <path d="M 0 216 
L 381.672 216 
L 381.672 0 
L 0 0 
z
" style="fill: #ffffff"/>
  </g>
  <g id="axes_1">
   <g id="patch_2">
    <path d="M 0 216 
L 381.672 216 
L 381.672 0 
L 0 0 
z
" clip-path="url(#pd15db0df07)" style="fill: #ffffff; stroke: #ffffff; stroke-linejoin: miter"/>
   </g>
   <g id="patch_3">
    <path d="M 0 216 
Q 0 0 0 0 
L 381.672 0 
L 381.672 216 
z
" clip-path="url(#pd15db0df07)" style="fill: #ffffff"/>
   </g>
   <g id="patch_4">
    <path d="M 36 126 
Q 36 216 36 216 
L 381.672 216 
L 381.672 126 
z
" clip-path="url(#pd15db0df07)" style="fill: #ffffff"/>
   </g>
   <g id="patch_5">
    <path d="M 72 72 
Q 72 90 72 90 
L 381.672 90 
L 381.672 72 
z
" clip-path="url(#pd15db0df07)" style="fill: #ffffff"/>
   </g>
   <g id="patch_6">
    <path d="M 126 36 
Q 72 36 72 72 
L 381.672 72 
L 381.672 36 
z
" clip-path="url(#pd15db0df07)" style="fill: #ffffff"/>
   </g>
   <g id="patch_7">
    <path d="M 108 126 
Q 108 144 108 144 
L 381.672 144 
L 381.672 126 
z
" clip-path="url(#pd15db0df07)" style="fill: #ffffff"/>
   </g>
   <g id="patch_8">
    <path d="M 108 144 
Q 108 180 144 180 
L 381.672 180 
L 381.672 144 
z
" clip-path="url(#pd15db0df07)" style="fill: #ffffff"/>
   </g>
   <g id="patch_9">
    <path d="M 126 90 
Q 126 126 126 126 
L 381.672 126 
L 381.672 90 
z
" clip-path="url(#pd15db0df07)" style="fill: #ffffff"/>
   </g>
   <g id="patch_10">
    <path d="M 126 36 
Q 180 36 180 72 
L 381.672 72 
L 381.672 36 
z
" clip-path="url(#pd15db0df07)" style="fill: #ffffff"/>
   </g>
   <g id="patch_11">
    <path d="M 180 144 
Q 180 180 144 180 
L 381.672 180 
L 381.672 144 
z
" clip-path="url(#pd15db0df07)" style="fill: #ffffff"/>
   </g>
   <g id="patch_12">
    <path d="M 180 72 
Q 180 144 180 144 
L 381.672 144 
L 381.672 72 
z
" clip-path="url(#pd15db0df07)" style="fill: #ffffff"/>
   </g>
   <g id="patch_13">
    <path d="M 334.836 126 
Q 334.836 216 334.836 216 
L 381.672 216 
L 381.672 126 
z
" clip-path="url(#pd15db0df07)" style="fill: #ffffff"/>
   </g>
   <g id="patch_14">
    <path d="M 363.672 90 
Q 363.672 126 363.672 126 
L 381.672 126 
L 381.672 90 
z
" clip-path="url(#pd15db0df07)" style="fill: #ffffff"/>
   </g>
   <g id="patch_15">
    <path d="M 126 36 
Q 72 36 72 72 
" clip-path="url(#pd15db0df07)" style="fill: none; stroke: #000000; stroke-linejoin: miter"/>
   </g>
   <g id="patch_16">
    <path d="M 126 36 
Q 180 36 180 72 
" clip-path="url(#pd15db0df07)" style="fill: none; stroke: #000000; stroke-linejoin: miter"/>
   </g>
   <g id="patch_17">
    <path d="M 72 72 
Q 72 90 72 90 
" clip-path="url(#pd15db0df07)" style="fill: none; stroke: #000000; stroke-linejoin: miter"/>
   </g>
   <g id="patch_18">
    <path d="M 180 72 
Q 180 144 180 144 
" clip-path="url(#pd15db0df07)" style="fill: none; stroke: #000000; stroke-linejoin: miter"/>
   </g>
   <g id="patch_19">
    <path d="M 36 126 
Q 36 216 36 216 
" clip-path="url(#pd15db0df07)" style="fill: none; stroke: #000000; stroke-linejoin: miter"/>
   </g>
   <g id="patch_20">
    <path d="M 108 126 
Q 108 144 108 144 
" clip-path="url(#pd15db0df07)" style="fill: none; stroke: #000000; stroke-linejoin: miter"/>
   </g>
   <g id="patch_21">
    <path d="M 108 144 
Q 108 180 144 180 
" clip-path="url(#pd15db0df07)" style="fill: none; stroke: #000000; stroke-linejoin: miter"/>
   </g>
   <g id="patch_22">
    <path d="M 180 144 
Q 180 180 144 180 
" clip-path="url(#pd15db0df07)" style="fill: none; stroke: #000000; stroke-linejoin: miter"/>
   </g>
   <g id="patch_23">
    <path d="M 334.836 126 
Q 334.836 216 334.836 216 
" clip-path="url(#pd15db0df07)" style="fill: none; stroke: #000000; stroke-linejoin: miter"/>
   </g>
   <g id="patch_24">
    <path d="M 18 126 
L 18 90 
L 126 90 
L 126 126 
z
" clip-path="url(#pd15db0df07)" style="fill: #ffffff; stroke: #000000; stroke-linejoin: miter"/>
   </g>
   <g id="patch_25">
    <path d="M 306 126 
L 306 90 
L 363.672 90 
L 363.672 126 
z
" clip-path="url(#pd15db0df07)" style="fill: #ffffff; stroke: #000000; stroke-linejoin: miter"/>
   </g>
   <g id="PathCollection_1">
    <defs>
     <path id="m6fccc057d8" d="M 0 5.705261 
C 1.513053 5.705261 2.964339 5.104118 4.034229 4.034229 
C 5.104118 2.964339 5.705261 1.513053 5.705261 0 
C 5.705261 -1.513053 5.104118 -2.964339 4.034229 -4.034229 
C 2.964339 -5.104118 1.513053 -5.705261 0 -5.705261 
C -1.513053 -5.705261 -2.964339 -5.104118 -4.034229 -4.034229 
C -5.104118 -2.964339 -5.705261 -1.513053 -5.705261 0 
C -5.705261 1.513053 -5.104118 2.964339 -4.034229 4.034229 
C -2.964339 5.104118 -1.513053 5.705261 0 5.705261 
z
" style="stroke: #ffffff"/>
    </defs>
    <g clip-path="url(#pd15db0df07)">
     <use xlink:href="#m6fccc057d8" x="252" y="108" style="fill: #ffffff; stroke: #ffffff"/>
    </g>
   </g>
   <g id="text_1">
    <!-- $\mathbb{R}$ -->
    <g transform="translate(76.5 66.098437) scale(0.1 -0.1)">
     <defs>
      <path id="STIXGeneral-Italic-211d" d="M 1229 4179 
L 3360 4179 
Q 3827 4179 4108 3894 
Q 4390 3610 4390 3142 
Q 4390 2554 4060 2186 
Q 3731 1818 3149 1715 
L 4026 0 
L 2925 0 
L 2125 1690 
L 1549 1690 
L 1094 0 
L 109 0 
L 1229 4179 
z
M 3866 3821 
L 3392 2022 
Q 3770 2144 3962 2438 
Q 4154 2733 4154 3136 
Q 4154 3584 3866 3821 
z
M 3142 1978 
L 3648 3872 
Q 3450 3942 3296 3942 
L 2150 3942 
L 1613 1926 
L 2630 1926 
Q 2957 1926 3142 1978 
z
M 3629 237 
L 2899 1696 
Q 2829 1683 2682 1683 
Q 2630 1683 2531 1686 
Q 2432 1690 2387 1690 
L 3072 237 
L 3629 237 
z
M 1907 3942 
L 1408 3942 
L 416 237 
L 915 237 
L 1907 3942 
z
" transform="scale(0.015625)"/>
     </defs>
     <use xlink:href="#STIXGeneral-Italic-211d" transform="translate(0 0.703125)"/>
    </g>
   </g>
   <g id="text_2">
    <!-- $\mathbb{R}$ -->
    <g transform="translate(184.5 66.098437) scale(0.1 -0.1)">
     <use xlink:href="#STIXGeneral-Italic-211d" transform="translate(0 0.703125)"/>
    </g>
   </g>
   <g id="text_3">
    <!-- $\mathbb{R}$ -->
    <g transform="translate(40.5 138.098437) scale(0.1 -0.1)">
     <use xlink:href="#STIXGeneral-Italic-211d" transform="translate(0 0.703125)"/>
    </g>
   </g>
   <g id="text_4">
    <!-- $\mathbb{R}$ -->
    <g transform="translate(112.5 138.098437) scale(0.1 -0.1)">
     <use xlink:href="#STIXGeneral-Italic-211d" transform="translate(0 0.703125)"/>
    </g>
   </g>
   <g id="text_5">
    <!-- $\mathbb{R}$ -->
    <g transform="translate(339.336 138.098437) scale(0.1 -0.1)">
     <use xlink:href="#STIXGeneral-Italic-211d" transform="translate(0 0.703125)"/>
    </g>
   </g>
   <g id="text_6">
    <!-- $\lambda x . (x, 1 + 1 / x)$ -->
    <g transform="translate(36.95 110.759375) scale(0.1 -0.1)">
     <defs>
      <path id="DejaVuSans-Oblique-3bb" d="M 2350 4316 
L 3125 0 
L 2516 0 
L 2038 2588 
L 328 0 
L -281 0 
L 1903 3356 
L 1794 3975 
Q 1725 4369 1391 4369 
L 1091 4369 
L 1184 4863 
L 1550 4856 
Q 2253 4847 2350 4316 
z
" transform="scale(0.015625)"/>
      <path id="DejaVuSans-Oblique-78" d="M 3841 3500 
L 2234 1784 
L 3219 0 
L 2559 0 
L 1819 1388 
L 531 0 
L -166 0 
L 1556 1844 
L 641 3500 
L 1300 3500 
L 1972 2234 
L 3144 3500 
L 3841 3500 
z
" transform="scale(0.015625)"/>
      <path id="DejaVuSans-2e" d="M 684 794 
L 1344 794 
L 1344 0 
L 684 0 
L 684 794 
z
" transform="scale(0.015625)"/>
      <path id="DejaVuSans-28" d="M 1984 4856 
Q 1566 4138 1362 3434 
Q 1159 2731 1159 2009 
Q 1159 1288 1364 580 
Q 1569 -128 1984 -844 
L 1484 -844 
Q 1016 -109 783 600 
Q 550 1309 550 2009 
Q 550 2706 781 3412 
Q 1013 4119 1484 4856 
L 1984 4856 
z
" transform="scale(0.015625)"/>
      <path id="DejaVuSans-2c" d="M 750 794 
L 1409 794 
L 1409 256 
L 897 -744 
L 494 -744 
L 750 256 
L 750 794 
z
" transform="scale(0.015625)"/>
      <path id="DejaVuSans-31" d="M 794 531 
L 1825 531 
L 1825 4091 
L 703 3866 
L 703 4441 
L 1819 4666 
L 2450 4666 
L 2450 531 
L 3481 531 
L 3481 0 
L 794 0 
L 794 531 
z
" transform="scale(0.015625)"/>
      <path id="DejaVuSans-2b" d="M 2944 4013 
L 2944 2272 
L 4684 2272 
L 4684 1741 
L 2944 1741 
L 2944 0 
L 2419 0 
L 2419 1741 
L 678 1741 
L 678 2272 
L 2419 2272 
L 2419 4013 
L 2944 4013 
z
" transform="scale(0.015625)"/>
      <path id="DejaVuSans-2f" d="M 1625 4666 
L 2156 4666 
L 531 -594 
L 0 -594 
L 1625 4666 
z
" transform="scale(0.015625)"/>
      <path id="DejaVuSans-29" d="M 513 4856 
L 1013 4856 
Q 1481 4119 1714 3412 
Q 1947 2706 1947 2009 
Q 1947 1309 1714 600 
Q 1481 -109 1013 -844 
L 513 -844 
Q 928 -128 1133 580 
Q 1338 1288 1338 2009 
Q 1338 2731 1133 3434 
Q 928 4138 513 4856 
z
" transform="scale(0.015625)"/>
     </defs>
     <use xlink:href="#DejaVuSans-Oblique-3bb" transform="translate(0 0.015625)"/>
     <use xlink:href="#DejaVuSans-Oblique-78" transform="translate(59.179688 0.015625)"/>
     <use xlink:href="#DejaVuSans-2e" transform="translate(118.359375 0.015625)"/>
     <use xlink:href="#DejaVuSans-28" transform="translate(169.628906 0.015625)"/>
     <use xlink:href="#DejaVuSans-Oblique-78" transform="translate(208.642578 0.015625)"/>
     <use xlink:href="#DejaVuSans-2c" transform="translate(267.822266 0.015625)"/>
     <use xlink:href="#DejaVuSans-31" transform="translate(319.091797 0.015625)"/>
     <use xlink:href="#DejaVuSans-2b" transform="translate(402.197266 0.015625)"/>
     <use xlink:href="#DejaVuSans-31" transform="translate(505.46875 0.015625)"/>
     <use xlink:href="#DejaVuSans-2f" transform="translate(569.091797 0.015625)"/>
     <use xlink:href="#DejaVuSans-Oblique-78" transform="translate(602.783203 0.015625)"/>
     <use xlink:href="#DejaVuSans-29" transform="translate(661.962891 0.015625)"/>
    </g>
   </g>
   <g id="text_7">
    <!-- $\frac{1 + \sqrt{5}}{2}$ -->
    <g transform="translate(322.436 112.1) scale(0.1 -0.1)">
     <defs>
      <path id="STIXSizeOneSym-Regular-221a" d="M 6970 9933 
L 3373 -1888 
L 3104 -1888 
L 1626 2918 
Q 1555 3149 1465 3251 
Q 1376 3354 1229 3354 
Q 1011 3354 794 3181 
L 717 3309 
L 1766 4115 
L 1926 4115 
L 3379 -602 
L 3405 -602 
L 6605 9933 
L 6970 9933 
z
" transform="scale(0.015625)"/>
      <path id="DejaVuSans-35" d="M 691 4666 
L 3169 4666 
L 3169 4134 
L 1269 4134 
L 1269 2991 
Q 1406 3038 1543 3061 
Q 1681 3084 1819 3084 
Q 2600 3084 3056 2656 
Q 3513 2228 3513 1497 
Q 3513 744 3044 326 
Q 2575 -91 1722 -91 
Q 1428 -91 1123 -41 
Q 819 9 494 109 
L 494 744 
Q 775 591 1075 516 
Q 1375 441 1709 441 
Q 2250 441 2565 725 
Q 2881 1009 2881 1497 
Q 2881 1984 2565 2268 
Q 2250 2553 1709 2553 
Q 1456 2553 1204 2497 
Q 953 2441 691 2322 
L 691 4666 
z
" transform="scale(0.015625)"/>
      <path id="DejaVuSans-32" d="M 1228 531 
L 3431 531 
L 3431 0 
L 469 0 
L 469 531 
Q 828 903 1448 1529 
Q 2069 2156 2228 2338 
Q 2531 2678 2651 2914 
Q 2772 3150 2772 3378 
Q 2772 3750 2511 3984 
Q 2250 4219 1831 4219 
Q 1534 4219 1204 4116 
Q 875 4013 500 3803 
L 500 4441 
Q 881 4594 1212 4672 
Q 1544 4750 1819 4750 
Q 2544 4750 2975 4387 
Q 3406 4025 3406 3419 
Q 3406 3131 3298 2873 
Q 3191 2616 2906 2266 
Q 2828 2175 2409 1742 
Q 1991 1309 1228 531 
z
" transform="scale(0.015625)"/>
     </defs>
     <use xlink:href="#DejaVuSans-31" transform="translate(0 45.098438) scale(0.7)"/>
     <use xlink:href="#DejaVuSans-2b" transform="translate(58.173828 45.098438) scale(0.7)"/>
     <use xlink:href="#STIXSizeOneSym-Regular-221a" transform="translate(130.463867 55.871875) scale(0.400127)"/>
     <use xlink:href="#DejaVuSans-35" transform="translate(181.48065 45.590625) scale(0.7)"/>
     <use xlink:href="#DejaVuSans-32" transform="translate(95 -39.1) scale(0.7)"/>
     <path d="M 172.73065 113.25 
L 172.73065 117.625 
L 234.766783 117.625 
L 234.766783 113.25 
L 172.73065 113.25 
z
"/>
     <path d="M 0 19.103125 
L 0 25.353125 
L 234.766783 25.353125 
L 234.766783 19.103125 
L 0 19.103125 
z
"/>
    </g>
   </g>
   <g id="text_8">
    <g clip-path="url(#pd15db0df07)">
     <!-- = -->
     <g transform="translate(246.972187 111.31125) scale(0.12 -0.12)">
      <defs>
       <path id="DejaVuSans-3d" d="M 678 2906 
L 4684 2906 
L 4684 2381 
L 678 2381 
L 678 2906 
z
M 678 1631 
L 4684 1631 
L 4684 1100 
L 678 1100 
L 678 1631 
z
" transform="scale(0.015625)"/>
      </defs>
      <use xlink:href="#DejaVuSans-3d"/>
     </g>
    </g>
   </g>
  </g>
 </g>
 <defs>
  <clipPath id="pd15db0df07">
   <rect x="0" y="0" width="381.672" height="216"/>
  </clipPath>
 </defs>
</svg>
