<?xml version="1.0" encoding="utf-8" standalone="no"?>
<!DOCTYPE svg PUBLIC "-//W3C//DTD SVG 1.1//EN"
  "http://www.w3.org/Graphics/SVG/1.1/DTD/svg11.dtd">
<svg xmlns:xlink="http://www.w3.org/1999/xlink" width="504pt" height="288pt" viewBox="0 0 504 288" xmlns="http://www.w3.org/2000/svg" version="1.1">
 <metadata>
  <rdf:RDF xmlns:dc="http://purl.org/dc/elements/1.1/" xmlns:cc="http://creativecommons.org/ns#" xmlns:rdf="http://www.w3.org/1999/02/22-rdf-syntax-ns#">
   <cc:Work>
    <dc:type rdf:resource="http://purl.org/dc/dcmitype/StillImage"/>
    <dc:format>image/svg+xml</dc:format>
    <dc:creator>
     <cc:Agent>
      <dc:title>Matplotlib v3.10.9, https://matplotlib.org/</dc:title>
     </cc:Agent>
    </dc:creator>
   </cc:Work>
  </rdf:RDF>
 </metadata>
 <defs>
  <style type="text/css">*{stroke-linejoin: round; stroke-linecap: butt}</style>
 </defs>
 <g id="figure_1">
  <g id="patch_1">
   <path d="M 0 288 
L 504 288 
L 504 0 
L 0 0 
z
" style="fill: #ffffff"/>
  </g>
  <g id="axes_1">
   <g id="patch_2">
    <path d="M 0 288 
L 504 288 
L 504 0 
L 0 0 
z
" clip-path="url(#p4ebe773069)" style="fill: #ffffff; stroke: #ffffff; stroke-linejoin: miter"/>
   </g>
   <g id="patch_3">
    <path d="M 0 288 
Q 0 0 0 0 
L 504 0 
L 504 288 
z
" clip-path="url(#p4ebe773069)" style="fill: #ffffff"/>
   </g>
   <g id="patch_4">
    <path d="M 36 72 
Q 36 216 36 216 
L 504 216 
L 504 72 
z
" clip-path="url(#p4ebe773069)" style="fill: #ffffff"/>
   </g>
   <g id="patch_5">
    <path d="M 72 36 
Q 36 36 36 72 
L 504 72 
L 504 36 
z
" clip-path="url(#p4ebe773069)" style="fill: #ffffff"/>
   </g>
   <g id="patch_6">
    <path d="M 36 216 
Q 36 252 72 252 
L 504 252 
L 504 216 
z
" clip-path="url(#p4ebe773069)" style="fill: #ffffff"/>
   </g>
   <g id="patch_7">
    <path d="M 72 36 
Q 108 36 108 72 
L 504 72 
L 504 36 
z
" clip-path="url(#p4ebe773069)" style="fill: #ffffff"/>
   </g>
   <g id="patch_8">
    <path d="M 108 216 
Q 108 252 72 252 
L 504 252 
L 504 216 
z
" clip-path="url(#p4ebe773069)" style="fill: #ffffff"/>
   </g>
   <g id="patch_9">
    <path d="M 108 72 
Q 108 90 108 90 
L 504 90 
L 504 72 
z
" clip-path="url(#p4ebe773069)" style="fill: #ffffff"/>
   </g>
   <g id="patch_10">
    <path d="M 108 126 
Q 108 162 108 162 
L 504 162 
L 504 126 
z
" clip-path="url(#p4ebe773069)" style="fill: #ffffff"/>
   </g>
   <g id="patch_11">
    <path d="M 108 198 
Q 108 216 108 216 
L 504 216 
L 504 198 
z
" clip-path="url(#p4ebe773069)" style="fill: #ffffff"/>
   </g>
   <g id="patch_12">
    <path d="M 126 162 
Q 126 198 126 198 
L 504 198 
L 504 162 
z
" clip-path="url(#p4ebe773069)" style="fill: #ffffff"/>
   </g>
   <g id="patch_13">
    <path d="M 180 0 
Q 180 90 180 90 
L 504 90 
L 504 0 
z
" clip-path="url(#p4ebe773069)" style="fill: #ffffff"/>
   </g>
   <g id="patch_14">
    <path d="M 180 126 
Q 180 288 180 288 
L 504 288 
L 504 126 
z
" clip-path="url(#p4ebe773069)" style="fill: #ffffff"/>
   </g>
   <g id="patch_15">
    <path d="M 198 90 
Q 198 126 198 126 
L 504 126 
L 504 90 
z
" clip-path="url(#p4ebe773069)" style="fill: #ffffff"/>
   </g>
   <g id="patch_16">
    <path d="M 324 72 
Q 324 216 324 216 
L 504 216 
L 504 72 
z
" clip-path="url(#p4ebe773069)" style="fill: #ffffff"/>
   </g>
   <g id="patch_17">
    <path d="M 360 36 
Q 324 36 324 72 
L 504 72 
L 504 36 
z
" clip-path="url(#p4ebe773069)" style="fill: #ffffff"/>
   </g>
   <g id="patch_18">
    <path d="M 324 216 
Q 324 252 360 252 
L 504 252 
L 504 216 
z
" clip-path="url(#p4ebe773069)" style="fill: #ffffff"/>
   </g>
   <g id="patch_19">
    <path d="M 360 36 
Q 396 36 396 72 
L 504 72 
L 504 36 
z
" clip-path="url(#p4ebe773069)" style="fill: #ffffff"/>
   </g>
   <g id="patch_20">
    <path d="M 396 216 
Q 396 252 360 252 
L 504 252 
L 504 216 
z
" clip-path="url(#p4ebe773069)" style="fill: #ffffff"/>
   </g>
   <g id="patch_21">
    <path d="M 396 72 
Q 396 90 396 90 
L 504 90 
L 504 72 
z
" clip-path="url(#p4ebe773069)" style="fill: #ffffff"/>
   </g>
   <g id="patch_22">
    <path d="M 396 126 
Q 396 162 396 162 
L 504 162 
L 504 126 
z
" clip-path="url(#p4ebe773069)" style="fill: #ffffff"/>
   </g>
   <g id="patch_23">
    <path d="M 396 198 
Q 396 216 396 216 
L 504 216 
L 504 198 
z
" clip-path="url(#p4ebe773069)" style="fill: #ffffff"/>
   </g>
   <g id="patch_24">
    <path d="M 414 90 
Q 414 126 414 126 
L 504 126 
L 504 90 
z
" clip-path="url(#p4ebe773069)" style="fill: #ffffff"/>
   </g>
   <g id="patch_25">
    <path d="M 468 0 
Q 468 162 468 162 
L 504 162 
L 504 0 
z
" clip-path="url(#p4ebe773069)" style="fill: #ffffff"/>
   </g>
   <g id="patch_26">
    <path d="M 468 198 
Q 468 288 468 288 
L 504 288 
L 504 198 
z
" clip-path="url(#p4ebe773069)" style="fill: #ffffff"/>
   </g>
   <g id="patch_27">
    <path d="M 486 162 
Q 486 198 486 198 
L 504 198 
L 504 162 
z
" clip-path="url(#p4ebe773069)" style="fill: #ffffff"/>
   </g>
   <g id="patch_28">
    <path d="M 72 36 
Q 36 36 36 72 
" clip-path="url(#p4ebe773069)" style="fill: none; stroke: #000000; stroke-linejoin: miter"/>
   </g>
   <g id="patch_29">
    <path d="M 72 36 
Q 108 36 108 72 
" clip-path="url(#p4ebe773069)" style="fill: none; stroke: #000000; stroke-linejoin: miter"/>
   </g>
   <g id="patch_30">
    <path d="M 36 72 
Q 36 216 36 216 
" clip-path="url(#p4ebe773069)" style="fill: none; stroke: #000000; stroke-linejoin: miter"/>
   </g>
   <g id="patch_31">
    <path d="M 108 72 
Q 108 90 108 90 
" clip-path="url(#p4ebe773069)" style="fill: none; stroke: #000000; stroke-linejoin: miter"/>
   </g>
   <g id="patch_32">
    <path d="M 180 0 
Q 180 90 180 90 
" clip-path="url(#p4ebe773069)" style="fill: none; stroke: #000000; stroke-linejoin: miter"/>
   </g>
   <g id="patch_33">
    <path d="M 108 126 
Q 108 162 108 162 
" clip-path="url(#p4ebe773069)" style="fill: none; stroke: #000000; stroke-linejoin: miter"/>
   </g>
   <g id="patch_34">
    <path d="M 180 126 
Q 180 288 180 288 
" clip-path="url(#p4ebe773069)" style="fill: none; stroke: #000000; stroke-linejoin: miter"/>
   </g>
   <g id="patch_35">
    <path d="M 108 198 
Q 108 216 108 216 
" clip-path="url(#p4ebe773069)" style="fill: none; stroke: #000000; stroke-linejoin: miter"/>
   </g>
   <g id="patch_36">
    <path d="M 36 216 
Q 36 252 72 252 
" clip-path="url(#p4ebe773069)" style="fill: none; stroke: #000000; stroke-linejoin: miter"/>
   </g>
   <g id="patch_37">
    <path d="M 108 216 
Q 108 252 72 252 
" clip-path="url(#p4ebe773069)" style="fill: none; stroke: #000000; stroke-linejoin: miter"/>
   </g>
   <g id="patch_38">
    <path d="M 360 36 
Q 324 36 324 72 
" clip-path="url(#p4ebe773069)" style="fill: none; stroke: #000000; stroke-linejoin: miter"/>
   </g>
   <g id="patch_39">
    <path d="M 360 36 
Q 396 36 396 72 
" clip-path="url(#p4ebe773069)" style="fill: none; stroke: #000000; stroke-linejoin: miter"/>
   </g>
   <g id="patch_40">
    <path d="M 324 72 
Q 324 216 324 216 
" clip-path="url(#p4ebe773069)" style="fill: none; stroke: #000000; stroke-linejoin: miter"/>
   </g>
   <g id="patch_41">
    <path d="M 396 72 
Q 396 90 396 90 
" clip-path="url(#p4ebe773069)" style="fill: none; stroke: #000000; stroke-linejoin: miter"/>
   </g>
   <g id="patch_42">
    <path d="M 468 0 
Q 468 162 468 162 
" clip-path="url(#p4ebe773069)" style="fill: none; stroke: #000000; stroke-linejoin: miter"/>
   </g>
   <g id="patch_43">
    <path d="M 396 126 
Q 396 162 396 162 
" clip-path="url(#p4ebe773069)" style="fill: none; stroke: #000000; stroke-linejoin: miter"/>
   </g>
   <g id="patch_44">
    <path d="M 396 198 
Q 396 216 396 216 
" clip-path="url(#p4ebe773069)" style="fill: none; stroke: #000000; stroke-linejoin: miter"/>
   </g>
   <g id="patch_45">
    <path d="M 468 198 
Q 468 288 468 288 
" clip-path="url(#p4ebe773069)" style="fill: none; stroke: #000000; stroke-linejoin: miter"/>
   </g>
   <g id="patch_46">
    <path d="M 324 216 
Q 324 252 360 252 
" clip-path="url(#p4ebe773069)" style="fill: none; stroke: #000000; stroke-linejoin: miter"/>
   </g>
   <g id="patch_47">
    <path d="M 396 216 
Q 396 252 360 252 
" clip-path="url(#p4ebe773069)" style="fill: none; stroke: #000000; stroke-linejoin: miter"/>
   </g>
   <g id="patch_48">
    <path d="M 90 126 
L 90 90 
L 198 90 
L 198 126 
z
" clip-path="url(#p4ebe773069)" style="fill: #ffffff; stroke: #000000; stroke-linejoin: miter"/>
   </g>
   <g id="patch_49">
    <path d="M 90 198 
L 90 162 
L 126 162 
L 126 198 
z
" clip-path="url(#p4ebe773069)" style="fill: #ffffff; stroke: #000000; stroke-linejoin: miter"/>
   </g>
   <g id="patch_50">
    <path d="M 378 126 
L 378 90 
L 414 90 
L 414 126 
z
" clip-path="url(#p4ebe773069)" style="fill: #ffffff; stroke: #000000; stroke-linejoin: miter"/>
   </g>
   <g id="patch_51">
    <path d="M 378 198 
L 378 162 
L 486 162 
L 486 198 
z
" clip-path="url(#p4ebe773069)" style="fill: #ffffff; stroke: #000000; stroke-linejoin: miter"/>
   </g>
   <g id="PathCollection_1">
    <defs>
     <path id="mdff8cb2796" d="M 0 5.324472 
C 1.412066 5.324472 2.766488 4.763452 3.76497 3.76497 
C 4.763452 2.766488 5.324472 1.412066 5.324472 0 
C 5.324472 -1.412066 4.763452 -2.766488 3.76497 -3.76497 
C 2.766488 -4.763452 1.412066 -5.324472 0 -5.324472 
C -1.412066 -5.324472 -2.766488 -4.763452 -3.76497 -3.76497 
C -4.763452 -2.766488 -5.324472 -1.412066 -5.324472 0 
C -5.324472 1.412066 -4.763452 2.766488 -3.76497 3.76497 
C -2.766488 4.763452 -1.412066 5.324472 0 5.324472 
z
" style="stroke: #ffffff"/>
    </defs>
    <g clip-path="url(#p4ebe773069)">
     <use xlink:href="#mdff8cb2796" x="252" y="144" style="fill: #ffffff; stroke: #ffffff"/>
    </g>
   </g>
   <g id="text_1">
    <!-- f -->
    <g transform="translate(142.239844 110.759375) scale(0.1 -0.1)">
     <defs>
      <path id="DejaVuSans-66" d="M 2375 4863 
L 2375 4384 
L 1825 4384 
Q 1516 4384 1395 4259 
Q 1275 4134 1275 3809 
L 1275 3500 
L 2222 3500 
L 2222 3053 
L 1275 3053 
L 1275 0 
L 697 0 
L 697 3053 
L 147 3053 
L 147 3500 
L 697 3500 
L 697 3744 
Q 697 4328 969 4595 
Q 1241 4863 1831 4863 
L 2375 4863 
z
" transform="scale(0.015625)"/>
     </defs>
     <use xlink:href="#DejaVuSans-66"/>
    </g>
   </g>
   <g id="text_2">
    <!-- g -->
    <g transform="translate(104.825781 182.759375) scale(0.1 -0.1)">
     <defs>
      <path id="DejaVuSans-67" d="M 2906 1791 
Q 2906 2416 2648 2759 
Q 2391 3103 1925 3103 
Q 1463 3103 1205 2759 
Q 947 2416 947 1791 
Q 947 1169 1205 825 
Q 1463 481 1925 481 
Q 2391 481 2648 825 
Q 2906 1169 2906 1791 
z
M 3481 434 
Q 3481 -459 3084 -895 
Q 2688 -1331 1869 -1331 
Q 1566 -1331 1297 -1286 
Q 1028 -1241 775 -1147 
L 775 -588 
Q 1028 -725 1275 -790 
Q 1522 -856 1778 -856 
Q 2344 -856 2625 -561 
Q 2906 -266 2906 331 
L 2906 616 
Q 2728 306 2450 153 
Q 2172 0 1784 0 
Q 1141 0 747 490 
Q 353 981 353 1791 
Q 353 2603 747 3093 
Q 1141 3584 1784 3584 
Q 2172 3584 2450 3431 
Q 2728 3278 2906 2969 
L 2906 3500 
L 3481 3500 
L 3481 434 
z
" transform="scale(0.015625)"/>
     </defs>
     <use xlink:href="#DejaVuSans-67"/>
    </g>
   </g>
   <g id="text_3">
    <!-- g -->
    <g transform="translate(392.825781 110.759375) scale(0.1 -0.1)">
     <use xlink:href="#DejaVuSans-67"/>
    </g>
   </g>
   <g id="text_4">
    <!-- f -->
    <g transform="translate(430.239844 182.759375) scale(0.1 -0.1)">
     <use xlink:href="#DejaVuSans-66"/>
    </g>
   </g>
   <g id="text_5">
    <g clip-path="url(#p4ebe773069)">
     <!-- = -->
     <g transform="translate(246.972187 147.31125) scale(0.12 -0.12)">
      <defs>
       <path id="DejaVuSans-3d" d="M 678 2906 
L 4684 2906 
L 4684 2381 
L 678 2381 
L 678 2906 
z
M 678 1631 
L 4684 1631 
L 4684 1100 
L 678 1100 
L 678 1631 
z
" transform="scale(0.015625)"/>
      </defs>
      <use xlink:href="#DejaVuSans-3d"/>
     </g>
    </g>
   </g>
  </g>
 </g>
 <defs>
  <clipPath id="p4ebe773069">
   <rect x="0" y="0" width="504" height="288"/>
  </clipPath>
 </defs>
</svg>
