<?xml version="1.0" encoding="utf-8" standalone="no"?>
<!DOCTYPE svg PUBLIC "-//W3C//DTD SVG 1.1//EN"
  "http://www.w3.org/Graphics/SVG/1.1/DTD/svg11.dtd">
<svg xmlns:xlink="http://www.w3.org/1999/xlink" width="720pt" height="216pt" viewBox="0 0 720 216" xmlns="http://www.w3.org/2000/svg" version="1.1">
 <metadata>
  <rdf:RDF xmlns:dc="http://purl.org/dc/elements/1.1/" xmlns:cc="http://creativecommons.org/ns#" xmlns:rdf="http://www.w3.org/1999/02/22-rdf-syntax-ns#">
   <cc:Work>
    <dc:type rdf:resource="http://purl.org/dc/dcmitype/StillImage"/>
    <dc:format>image/svg+xml</dc:format>
    <dc:creator>
     <cc:Agent>
      <dc:title>Matplotlib v3.10.9, https://matplotlib.org/</dc:title>
     </cc:Agent>
    </dc:creator>
   </cc:Work>
  </rdf:RDF>
 </metadata>
 <defs>
  <style type="text/css">*{stroke-linejoin: round; stroke-linecap: butt}</style>
 </defs>
 <g id="figure_1">
  <g id="patch_1">
   <path d="M 0 216 
L 720 216 
L 720 0 
L 0 0 
z
" style="fill: #ffffff"/>
  </g>
  <g id="axes_1">
   <g id="patch_2">
    <path d="M 0 216 
L 720 216 
L 720 0 
L 0 0 
z
" clip-path="url(#pd3ba3cf658)" style="fill: #ffffff; stroke: #ffffff; stroke-linejoin: miter"/>
   </g>
   <g id="patch_3">
    <path d="M 0 216 
Q 0 0 0 0 
L 720 0 
L 720 216 
z
" clip-path="url(#pd3ba3cf658)" style="fill: #ffffff"/>
   </g>
   <g id="patch_4">
    <path d="M 36 72 
Q 36 144 36 144 
L 720 144 
L 720 72 
z
" clip-path="url(#pd3ba3cf658)" style="fill: #ffffff"/>
   </g>
   <g id="patch_5">
    <path d="M 72 36 
Q 36 36 36 72 
L 720 72 
L 720 36 
z
" clip-path="url(#pd3ba3cf658)" style="fill: #ffffff"/>
   </g>
   <g id="patch_6">
    <path d="M 36 144 
Q 36 180 72 180 
L 720 180 
L 720 144 
z
" clip-path="url(#pd3ba3cf658)" style="fill: #ffffff"/>
   </g>
   <g id="patch_7">
    <path d="M 72 36 
Q 108 36 108 72 
L 720 72 
L 720 36 
z
" clip-path="url(#pd3ba3cf658)" style="fill: #ffffff"/>
   </g>
   <g id="patch_8">
    <path d="M 108 144 
Q 108 180 72 180 
L 720 180 
L 720 144 
z
" clip-path="url(#pd3ba3cf658)" style="fill: #ffffff"/>
   </g>
   <g id="patch_9">
    <path d="M 108 72 
Q 108 90 108 90 
L 720 90 
L 720 72 
z
" clip-path="url(#pd3ba3cf658)" style="fill: #ffffff"/>
   </g>
   <g id="patch_10">
    <path d="M 108 126 
Q 108 144 108 144 
L 720 144 
L 720 126 
z
" clip-path="url(#pd3ba3cf658)" style="fill: #ffffff"/>
   </g>
   <g id="patch_11">
    <path d="M 180 0 
Q 180 90 180 90 
L 720 90 
L 720 0 
z
" clip-path="url(#pd3ba3cf658)" style="fill: #ffffff"/>
   </g>
   <g id="patch_12">
    <path d="M 180 126 
Q 180 216 180 216 
L 720 216 
L 720 126 
z
" clip-path="url(#pd3ba3cf658)" style="fill: #ffffff"/>
   </g>
   <g id="patch_13">
    <path d="M 198 90 
Q 198 126 198 126 
L 720 126 
L 720 90 
z
" clip-path="url(#pd3ba3cf658)" style="fill: #ffffff"/>
   </g>
   <g id="patch_14">
    <path d="M 324 0 
Q 324 90 324 90 
L 720 90 
L 720 0 
z
" clip-path="url(#pd3ba3cf658)" style="fill: #ffffff"/>
   </g>
   <g id="patch_15">
    <path d="M 324 126 
Q 324 216 324 216 
L 720 216 
L 720 126 
z
" clip-path="url(#pd3ba3cf658)" style="fill: #ffffff"/>
   </g>
   <g id="patch_16">
    <path d="M 396 0 
Q 396 90 396 90 
L 720 90 
L 720 0 
z
" clip-path="url(#pd3ba3cf658)" style="fill: #ffffff"/>
   </g>
   <g id="patch_17">
    <path d="M 396 126 
Q 396 216 396 216 
L 720 216 
L 720 126 
z
" clip-path="url(#pd3ba3cf658)" style="fill: #ffffff"/>
   </g>
   <g id="patch_18">
    <path d="M 414 90 
Q 414 126 414 126 
L 720 126 
L 720 90 
z
" clip-path="url(#pd3ba3cf658)" style="fill: #ffffff"/>
   </g>
   <g id="patch_19">
    <path d="M 540 0 
Q 540 90 540 90 
L 720 90 
L 720 0 
z
" clip-path="url(#pd3ba3cf658)" style="fill: #ffffff"/>
   </g>
   <g id="patch_20">
    <path d="M 540 126 
Q 540 216 540 216 
L 720 216 
L 720 126 
z
" clip-path="url(#pd3ba3cf658)" style="fill: #ffffff"/>
   </g>
   <g id="patch_21">
    <path d="M 612 72 
Q 612 90 612 90 
L 720 90 
L 720 72 
z
" clip-path="url(#pd3ba3cf658)" style="fill: #ffffff"/>
   </g>
   <g id="patch_22">
    <path d="M 612 126 
Q 612 144 612 144 
L 720 144 
L 720 126 
z
" clip-path="url(#pd3ba3cf658)" style="fill: #ffffff"/>
   </g>
   <g id="patch_23">
    <path d="M 648 36 
Q 612 36 612 72 
L 720 72 
L 720 36 
z
" clip-path="url(#pd3ba3cf658)" style="fill: #ffffff"/>
   </g>
   <g id="patch_24">
    <path d="M 612 144 
Q 612 180 648 180 
L 720 180 
L 720 144 
z
" clip-path="url(#pd3ba3cf658)" style="fill: #ffffff"/>
   </g>
   <g id="patch_25">
    <path d="M 630 90 
Q 630 126 630 126 
L 720 126 
L 720 90 
z
" clip-path="url(#pd3ba3cf658)" style="fill: #ffffff"/>
   </g>
   <g id="patch_26">
    <path d="M 648 36 
Q 684 36 684 72 
L 720 72 
L 720 36 
z
" clip-path="url(#pd3ba3cf658)" style="fill: #ffffff"/>
   </g>
   <g id="patch_27">
    <path d="M 684 144 
Q 684 180 648 180 
L 720 180 
L 720 144 
z
" clip-path="url(#pd3ba3cf658)" style="fill: #ffffff"/>
   </g>
   <g id="patch_28">
    <path d="M 684 72 
Q 684 144 684 144 
L 720 144 
L 720 72 
z
" clip-path="url(#pd3ba3cf658)" style="fill: #ffffff"/>
   </g>
   <g id="patch_29">
    <path d="M 72 36 
Q 36 36 36 72 
" clip-path="url(#pd3ba3cf658)" style="fill: none; stroke: #000000; stroke-linejoin: miter"/>
   </g>
   <g id="patch_30">
    <path d="M 72 36 
Q 108 36 108 72 
" clip-path="url(#pd3ba3cf658)" style="fill: none; stroke: #000000; stroke-linejoin: miter"/>
   </g>
   <g id="patch_31">
    <path d="M 36 72 
Q 36 144 36 144 
" clip-path="url(#pd3ba3cf658)" style="fill: none; stroke: #000000; stroke-linejoin: miter"/>
   </g>
   <g id="patch_32">
    <path d="M 108 72 
Q 108 90 108 90 
" clip-path="url(#pd3ba3cf658)" style="fill: none; stroke: #000000; stroke-linejoin: miter"/>
   </g>
   <g id="patch_33">
    <path d="M 180 0 
Q 180 90 180 90 
" clip-path="url(#pd3ba3cf658)" style="fill: none; stroke: #000000; stroke-linejoin: miter"/>
   </g>
   <g id="patch_34">
    <path d="M 108 126 
Q 108 144 108 144 
" clip-path="url(#pd3ba3cf658)" style="fill: none; stroke: #000000; stroke-linejoin: miter"/>
   </g>
   <g id="patch_35">
    <path d="M 180 126 
Q 180 216 180 216 
" clip-path="url(#pd3ba3cf658)" style="fill: none; stroke: #000000; stroke-linejoin: miter"/>
   </g>
   <g id="patch_36">
    <path d="M 36 144 
Q 36 180 72 180 
" clip-path="url(#pd3ba3cf658)" style="fill: none; stroke: #000000; stroke-linejoin: miter"/>
   </g>
   <g id="patch_37">
    <path d="M 108 144 
Q 108 180 72 180 
" clip-path="url(#pd3ba3cf658)" style="fill: none; stroke: #000000; stroke-linejoin: miter"/>
   </g>
   <g id="patch_38">
    <path d="M 324 0 
Q 324 90 324 90 
" clip-path="url(#pd3ba3cf658)" style="fill: none; stroke: #000000; stroke-linejoin: miter"/>
   </g>
   <g id="patch_39">
    <path d="M 396 0 
Q 396 90 396 90 
" clip-path="url(#pd3ba3cf658)" style="fill: none; stroke: #000000; stroke-linejoin: miter"/>
   </g>
   <g id="patch_40">
    <path d="M 324 126 
Q 324 216 324 216 
" clip-path="url(#pd3ba3cf658)" style="fill: none; stroke: #000000; stroke-linejoin: miter"/>
   </g>
   <g id="patch_41">
    <path d="M 396 126 
Q 396 216 396 216 
" clip-path="url(#pd3ba3cf658)" style="fill: none; stroke: #000000; stroke-linejoin: miter"/>
   </g>
   <g id="patch_42">
    <path d="M 540 0 
Q 540 90 540 90 
" clip-path="url(#pd3ba3cf658)" style="fill: none; stroke: #000000; stroke-linejoin: miter"/>
   </g>
   <g id="patch_43">
    <path d="M 648 36 
Q 612 36 612 72 
" clip-path="url(#pd3ba3cf658)" style="fill: none; stroke: #000000; stroke-linejoin: miter"/>
   </g>
   <g id="patch_44">
    <path d="M 648 36 
Q 684 36 684 72 
" clip-path="url(#pd3ba3cf658)" style="fill: none; stroke: #000000; stroke-linejoin: miter"/>
   </g>
   <g id="patch_45">
    <path d="M 612 72 
Q 612 90 612 90 
" clip-path="url(#pd3ba3cf658)" style="fill: none; stroke: #000000; stroke-linejoin: miter"/>
   </g>
   <g id="patch_46">
    <path d="M 684 72 
Q 684 144 684 144 
" clip-path="url(#pd3ba3cf658)" style="fill: none; stroke: #000000; stroke-linejoin: miter"/>
   </g>
   <g id="patch_47">
    <path d="M 540 126 
Q 540 216 540 216 
" clip-path="url(#pd3ba3cf658)" style="fill: none; stroke: #000000; stroke-linejoin: miter"/>
   </g>
   <g id="patch_48">
    <path d="M 612 126 
Q 612 144 612 144 
" clip-path="url(#pd3ba3cf658)" style="fill: none; stroke: #000000; stroke-linejoin: miter"/>
   </g>
   <g id="patch_49">
    <path d="M 612 144 
Q 612 180 648 180 
" clip-path="url(#pd3ba3cf658)" style="fill: none; stroke: #000000; stroke-linejoin: miter"/>
   </g>
   <g id="patch_50">
    <path d="M 684 144 
Q 684 180 648 180 
" clip-path="url(#pd3ba3cf658)" style="fill: none; stroke: #000000; stroke-linejoin: miter"/>
   </g>
   <g id="patch_51">
    <path d="M 90 126 
L 90 90 
L 198 90 
L 198 126 
z
" clip-path="url(#pd3ba3cf658)" style="fill: #ffffff; stroke: #000000; stroke-linejoin: miter"/>
   </g>
   <g id="patch_52">
    <path d="M 306 126 
L 306 90 
L 414 90 
L 414 126 
z
" clip-path="url(#pd3ba3cf658)" style="fill: #ffffff; stroke: #000000; stroke-linejoin: miter"/>
   </g>
   <g id="patch_53">
    <path d="M 522 126 
L 522 90 
L 630 90 
L 630 126 
z
" clip-path="url(#pd3ba3cf658)" style="fill: #ffffff; stroke: #000000; stroke-linejoin: miter"/>
   </g>
   <g id="PathCollection_1">
    <defs>
     <path id="C0_0_e4afccc1e4" d="M 0 4.868265 
C 1.291079 4.868265 2.529452 4.355314 3.442383 3.442383 
C 4.355314 2.529452 4.868265 1.291079 4.868265 -0 
C 4.868265 -1.291079 4.355314 -2.529452 3.442383 -3.442383 
C 2.529452 -4.355314 1.291079 -4.868265 0 -4.868265 
C -1.291079 -4.868265 -2.529452 -4.355314 -3.442383 -3.442383 
C -4.355314 -2.529452 -4.868265 -1.291079 -4.868265 0 
C -4.868265 1.291079 -4.355314 2.529452 -3.442383 3.442383 
C -2.529452 4.355314 -1.291079 4.868265 0 4.868265 
z
"/>
    </defs>
    <g clip-path="url(#pd3ba3cf658)">
     <use xlink:href="#C0_0_e4afccc1e4" x="252" y="108" style="fill: #ffffff; stroke: #ffffff"/>
    </g>
    <g clip-path="url(#pd3ba3cf658)">
     <use xlink:href="#C0_0_e4afccc1e4" x="468" y="108" style="fill: #ffffff; stroke: #ffffff"/>
    </g>
   </g>
   <g id="text_1">
    <!-- x -->
    <g transform="translate(40.5 66.098437) scale(0.1 -0.1)">
     <defs>
      <path id="DejaVuSans-78" d="M 3513 3500 
L 2247 1797 
L 3578 0 
L 2900 0 
L 1881 1375 
L 863 0 
L 184 0 
L 1544 1831 
L 300 3500 
L 978 3500 
L 1906 2253 
L 2834 3500 
L 3513 3500 
z
" transform="scale(0.015625)"/>
     </defs>
     <use xlink:href="#DejaVuSans-78"/>
    </g>
   </g>
   <g id="text_2">
    <!-- x -->
    <g transform="translate(112.5 66.098437) scale(0.1 -0.1)">
     <use xlink:href="#DejaVuSans-78"/>
    </g>
   </g>
   <g id="text_3">
    <!-- x -->
    <g transform="translate(184.5 12.098437) scale(0.1 -0.1)">
     <use xlink:href="#DejaVuSans-78"/>
    </g>
   </g>
   <g id="text_4">
    <!-- x -->
    <g transform="translate(112.5 138.098437) scale(0.1 -0.1)">
     <use xlink:href="#DejaVuSans-78"/>
    </g>
   </g>
   <g id="text_5">
    <!-- x -->
    <g transform="translate(184.5 138.098437) scale(0.1 -0.1)">
     <use xlink:href="#DejaVuSans-78"/>
    </g>
   </g>
   <g id="text_6">
    <!-- x -->
    <g transform="translate(328.5 12.098437) scale(0.1 -0.1)">
     <use xlink:href="#DejaVuSans-78"/>
    </g>
   </g>
   <g id="text_7">
    <!-- x -->
    <g transform="translate(400.5 12.098437) scale(0.1 -0.1)">
     <use xlink:href="#DejaVuSans-78"/>
    </g>
   </g>
   <g id="text_8">
    <!-- x -->
    <g transform="translate(328.5 138.098437) scale(0.1 -0.1)">
     <use xlink:href="#DejaVuSans-78"/>
    </g>
   </g>
   <g id="text_9">
    <!-- x -->
    <g transform="translate(400.5 138.098437) scale(0.1 -0.1)">
     <use xlink:href="#DejaVuSans-78"/>
    </g>
   </g>
   <g id="text_10">
    <!-- x -->
    <g transform="translate(544.5 12.098437) scale(0.1 -0.1)">
     <use xlink:href="#DejaVuSans-78"/>
    </g>
   </g>
   <g id="text_11">
    <!-- x -->
    <g transform="translate(616.5 66.098437) scale(0.1 -0.1)">
     <use xlink:href="#DejaVuSans-78"/>
    </g>
   </g>
   <g id="text_12">
    <!-- x -->
    <g transform="translate(688.5 66.098437) scale(0.1 -0.1)">
     <use xlink:href="#DejaVuSans-78"/>
    </g>
   </g>
   <g id="text_13">
    <!-- x -->
    <g transform="translate(544.5 138.098437) scale(0.1 -0.1)">
     <use xlink:href="#DejaVuSans-78"/>
    </g>
   </g>
   <g id="text_14">
    <!-- x -->
    <g transform="translate(616.5 138.098437) scale(0.1 -0.1)">
     <use xlink:href="#DejaVuSans-78"/>
    </g>
   </g>
   <g id="text_15">
    <!-- f -->
    <g transform="translate(142.239844 110.759375) scale(0.1 -0.1)">
     <defs>
      <path id="DejaVuSans-66" d="M 2375 4863 
L 2375 4384 
L 1825 4384 
Q 1516 4384 1395 4259 
Q 1275 4134 1275 3809 
L 1275 3500 
L 2222 3500 
L 2222 3053 
L 1275 3053 
L 1275 0 
L 697 0 
L 697 3053 
L 147 3053 
L 147 3500 
L 697 3500 
L 697 3744 
Q 697 4328 969 4595 
Q 1241 4863 1831 4863 
L 2375 4863 
z
" transform="scale(0.015625)"/>
     </defs>
     <use xlink:href="#DejaVuSans-66"/>
    </g>
   </g>
   <g id="text_16">
    <!-- f -->
    <g transform="translate(358.239844 110.759375) scale(0.1 -0.1)">
     <use xlink:href="#DejaVuSans-66"/>
    </g>
   </g>
   <g id="text_17">
    <!-- f -->
    <g transform="translate(574.239844 110.759375) scale(0.1 -0.1)">
     <use xlink:href="#DejaVuSans-66"/>
    </g>
   </g>
   <g id="text_18">
    <g clip-path="url(#pd3ba3cf658)">
     <!-- $\mapsfrom$ -->
     <g transform="translate(244.62 111.31125) scale(0.12 -0.12)">
      <defs>
       <path id="DejaVuSans-21a4" d="M 4466 1741 
L 1188 1741 
L 1916 1013 
L 1541 638 
L 313 1866 
L 313 2147 
L 1541 3375 
L 1916 3000 
L 1188 2272 
L 4466 2272 
L 4466 3350 
L 4997 3350 
L 4997 663 
L 4466 663 
L 4466 1741 
z
" transform="scale(0.015625)"/>
      </defs>
      <use xlink:href="#DejaVuSans-21a4" transform="translate(19.482422 0.265625)"/>
     </g>
    </g>
   </g>
   <g id="text_19">
    <g clip-path="url(#pd3ba3cf658)">
     <!-- $\mapsto$ -->
     <g transform="translate(460.62 111.31125) scale(0.12 -0.12)">
      <defs>
       <path id="DejaVuSans-21a6" d="M 4175 1741 
L 897 1741 
L 897 663 
L 366 663 
L 366 3350 
L 897 3350 
L 897 2272 
L 4175 2272 
L 3447 3000 
L 3822 3375 
L 5050 2147 
L 5050 1866 
L 3822 638 
L 3447 1013 
L 4175 1741 
z
" transform="scale(0.015625)"/>
      </defs>
      <use xlink:href="#DejaVuSans-21a6" transform="translate(19.482422 0.265625)"/>
     </g>
    </g>
   </g>
  </g>
 </g>
 <defs>
  <clipPath id="pd3ba3cf658">
   <rect x="0" y="0" width="720" height="216"/>
  </clipPath>
 </defs>
</svg>
