<?xml version="1.0" encoding="utf-8" standalone="no"?>
<!DOCTYPE svg PUBLIC "-//W3C//DTD SVG 1.1//EN"
  "http://www.w3.org/Graphics/SVG/1.1/DTD/svg11.dtd">
<svg xmlns:xlink="http://www.w3.org/1999/xlink" width="288pt" height="72pt" viewBox="0 0 288 72" xmlns="http://www.w3.org/2000/svg" version="1.1">
 <metadata>
  <rdf:RDF xmlns:dc="http://purl.org/dc/elements/1.1/" xmlns:cc="http://creativecommons.org/ns#" xmlns:rdf="http://www.w3.org/1999/02/22-rdf-syntax-ns#">
   <cc:Work>
    <dc:type rdf:resource="http://purl.org/dc/dcmitype/StillImage"/>
    <dc:format>image/svg+xml</dc:format>
    <dc:creator>
     <cc:Agent>
      <dc:title>Matplotlib v3.10.9, https://matplotlib.org/</dc:title>
     </cc:Agent>
    </dc:creator>
   </cc:Work>
  </rdf:RDF>
 </metadata>
 <defs>
  <style type="text/css">*{stroke-linejoin: round; stroke-linecap: butt}</style>
 </defs>
 <g id="figure_1">
  <g id="patch_1">
   <path d="M 0 72 
L 288 72 
L 288 0 
L 0 0 
z
" style="fill: #ffffff"/>
  </g>
  <g id="axes_1">
   <g id="patch_2">
    <path d="M 0 72 
L 288 72 
L 288 0 
L 0 0 
z
" clip-path="url(#pd708c80fa6)" style="fill: #ffffff; stroke: #ffffff; stroke-linejoin: miter"/>
   </g>
   <g id="patch_3">
    <path d="M 0 72 
Q 0 0 0 0 
L 288 0 
L 288 72 
z
" clip-path="url(#pd708c80fa6)" style="fill: #ffffff"/>
   </g>
   <g id="patch_4">
    <path d="M 15.567568 24 
Q 15.567568 48 15.567568 48 
L 288 48 
L 288 24 
z
" clip-path="url(#pd708c80fa6)" style="fill: #ffffff"/>
   </g>
   <g id="patch_5">
    <path d="M 31.135135 12 
Q 15.567568 12 15.567568 24 
L 288 24 
L 288 12 
z
" clip-path="url(#pd708c80fa6)" style="fill: #ffffff"/>
   </g>
   <g id="patch_6">
    <path d="M 15.567568 48 
Q 15.567568 60 31.135135 60 
L 288 60 
L 288 48 
z
" clip-path="url(#pd708c80fa6)" style="fill: #ffffff"/>
   </g>
   <g id="patch_7">
    <path d="M 31.135135 12 
Q 46.702703 12 46.702703 24 
L 288 24 
L 288 12 
z
" clip-path="url(#pd708c80fa6)" style="fill: #ffffff"/>
   </g>
   <g id="patch_8">
    <path d="M 46.702703 48 
Q 46.702703 60 31.135135 60 
L 288 60 
L 288 48 
z
" clip-path="url(#pd708c80fa6)" style="fill: #ffffff"/>
   </g>
   <g id="patch_9">
    <path d="M 62.27027 36 
Q 46.702703 36 46.702703 48 
L 288 48 
L 288 36 
z
" clip-path="url(#pd708c80fa6)" style="fill: #ffffff"/>
   </g>
   <g id="patch_10">
    <path d="M 46.702703 24 
Q 46.702703 36 62.27027 36 
L 288 36 
L 288 24 
z
" clip-path="url(#pd708c80fa6)" style="fill: #ffffff"/>
   </g>
   <g id="patch_11">
    <path d="M 62.27027 36 
Q 77.837838 36 77.837838 48 
L 288 48 
L 288 36 
z
" clip-path="url(#pd708c80fa6)" style="fill: #ffffff"/>
   </g>
   <g id="patch_12">
    <path d="M 77.837838 24 
Q 77.837838 36 62.27027 36 
L 288 36 
L 288 24 
z
" clip-path="url(#pd708c80fa6)" style="fill: #ffffff"/>
   </g>
   <g id="patch_13">
    <path d="M 77.837838 0 
Q 77.837838 24 77.837838 24 
L 288 24 
L 288 0 
z
" clip-path="url(#pd708c80fa6)" style="fill: #ffffff"/>
   </g>
   <g id="patch_14">
    <path d="M 77.837838 48 
Q 77.837838 72 77.837838 72 
L 288 72 
L 288 48 
z
" clip-path="url(#pd708c80fa6)" style="fill: #ffffff"/>
   </g>
   <g id="patch_15">
    <path d="M 140.108108 0 
Q 140.108108 72 140.108108 72 
L 288 72 
L 288 0 
z
" clip-path="url(#pd708c80fa6)" style="fill: #ffffff"/>
   </g>
   <g id="patch_16">
    <path d="M 210.162162 0 
Q 210.162162 24 210.162162 24 
L 288 24 
L 288 0 
z
" clip-path="url(#pd708c80fa6)" style="fill: #ffffff"/>
   </g>
   <g id="patch_17">
    <path d="M 210.162162 48 
Q 210.162162 72 210.162162 72 
L 288 72 
L 288 48 
z
" clip-path="url(#pd708c80fa6)" style="fill: #ffffff"/>
   </g>
   <g id="patch_18">
    <path d="M 225.72973 36 
Q 210.162162 36 210.162162 48 
L 288 48 
L 288 36 
z
" clip-path="url(#pd708c80fa6)" style="fill: #ffffff"/>
   </g>
   <g id="patch_19">
    <path d="M 210.162162 24 
Q 210.162162 36 225.72973 36 
L 288 36 
L 288 24 
z
" clip-path="url(#pd708c80fa6)" style="fill: #ffffff"/>
   </g>
   <g id="patch_20">
    <path d="M 225.72973 36 
Q 241.297297 36 241.297297 48 
L 288 48 
L 288 36 
z
" clip-path="url(#pd708c80fa6)" style="fill: #ffffff"/>
   </g>
   <g id="patch_21">
    <path d="M 241.297297 24 
Q 241.297297 36 225.72973 36 
L 288 36 
L 288 24 
z
" clip-path="url(#pd708c80fa6)" style="fill: #ffffff"/>
   </g>
   <g id="patch_22">
    <path d="M 256.864865 12 
Q 241.297297 12 241.297297 24 
L 288 24 
L 288 12 
z
" clip-path="url(#pd708c80fa6)" style="fill: #ffffff"/>
   </g>
   <g id="patch_23">
    <path d="M 241.297297 48 
Q 241.297297 60 256.864865 60 
L 288 60 
L 288 48 
z
" clip-path="url(#pd708c80fa6)" style="fill: #ffffff"/>
   </g>
   <g id="patch_24">
    <path d="M 256.864865 12 
Q 272.432432 12 272.432432 24 
L 288 24 
L 288 12 
z
" clip-path="url(#pd708c80fa6)" style="fill: #ffffff"/>
   </g>
   <g id="patch_25">
    <path d="M 272.432432 48 
Q 272.432432 60 256.864865 60 
L 288 60 
L 288 48 
z
" clip-path="url(#pd708c80fa6)" style="fill: #ffffff"/>
   </g>
   <g id="patch_26">
    <path d="M 272.432432 24 
Q 272.432432 48 272.432432 48 
L 288 48 
L 288 24 
z
" clip-path="url(#pd708c80fa6)" style="fill: #ffffff"/>
   </g>
   <g id="patch_27">
    <path d="M 46.702703 24 
C 46.702703 36 77.837838 36 77.837838 48 
" clip-path="url(#pd708c80fa6)" style="fill: none; stroke: #000000; stroke-linejoin: miter"/>
   </g>
   <g id="patch_28">
    <path d="M 77.837838 24 
C 77.837838 36 46.702703 36 46.702703 48 
" clip-path="url(#pd708c80fa6)" style="fill: none; stroke: #000000; stroke-linejoin: miter"/>
   </g>
   <g id="patch_29">
    <path d="M 210.162162 24 
C 210.162162 36 241.297297 36 241.297297 48 
" clip-path="url(#pd708c80fa6)" style="fill: none; stroke: #000000; stroke-linejoin: miter"/>
   </g>
   <g id="patch_30">
    <path d="M 241.297297 24 
C 241.297297 36 210.162162 36 210.162162 48 
" clip-path="url(#pd708c80fa6)" style="fill: none; stroke: #000000; stroke-linejoin: miter"/>
   </g>
   <g id="patch_31">
    <path d="M 31.135135 12 
Q 15.567568 12 15.567568 24 
" clip-path="url(#pd708c80fa6)" style="fill: none; stroke: #000000; stroke-linejoin: miter"/>
   </g>
   <g id="patch_32">
    <path d="M 31.135135 12 
Q 46.702703 12 46.702703 24 
" clip-path="url(#pd708c80fa6)" style="fill: none; stroke: #000000; stroke-linejoin: miter"/>
   </g>
   <g id="patch_33">
    <path d="M 15.567568 24 
Q 15.567568 48 15.567568 48 
" clip-path="url(#pd708c80fa6)" style="fill: none; stroke: #000000; stroke-linejoin: miter"/>
   </g>
   <g id="patch_34">
    <path d="M 77.837838 0 
Q 77.837838 24 77.837838 24 
" clip-path="url(#pd708c80fa6)" style="fill: none; stroke: #000000; stroke-linejoin: miter"/>
   </g>
   <g id="patch_35">
    <path d="M 77.837838 48 
Q 77.837838 72 77.837838 72 
" clip-path="url(#pd708c80fa6)" style="fill: none; stroke: #000000; stroke-linejoin: miter"/>
   </g>
   <g id="patch_36">
    <path d="M 15.567568 48 
Q 15.567568 60 31.135135 60 
" clip-path="url(#pd708c80fa6)" style="fill: none; stroke: #000000; stroke-linejoin: miter"/>
   </g>
   <g id="patch_37">
    <path d="M 46.702703 48 
Q 46.702703 60 31.135135 60 
" clip-path="url(#pd708c80fa6)" style="fill: none; stroke: #000000; stroke-linejoin: miter"/>
   </g>
   <g id="patch_38">
    <path d="M 140.108108 0 
Q 140.108108 72 140.108108 72 
" clip-path="url(#pd708c80fa6)" style="fill: none; stroke: #000000; stroke-linejoin: miter"/>
   </g>
   <g id="patch_39">
    <path d="M 210.162162 0 
Q 210.162162 24 210.162162 24 
" clip-path="url(#pd708c80fa6)" style="fill: none; stroke: #000000; stroke-linejoin: miter"/>
   </g>
   <g id="patch_40">
    <path d="M 256.864865 12 
Q 241.297297 12 241.297297 24 
" clip-path="url(#pd708c80fa6)" style="fill: none; stroke: #000000; stroke-linejoin: miter"/>
   </g>
   <g id="patch_41">
    <path d="M 256.864865 12 
Q 272.432432 12 272.432432 24 
" clip-path="url(#pd708c80fa6)" style="fill: none; stroke: #000000; stroke-linejoin: miter"/>
   </g>
   <g id="patch_42">
    <path d="M 272.432432 24 
Q 272.432432 48 272.432432 48 
" clip-path="url(#pd708c80fa6)" style="fill: none; stroke: #000000; stroke-linejoin: miter"/>
   </g>
   <g id="patch_43">
    <path d="M 210.162162 48 
Q 210.162162 72 210.162162 72 
" clip-path="url(#pd708c80fa6)" style="fill: none; stroke: #000000; stroke-linejoin: miter"/>
   </g>
   <g id="patch_44">
    <path d="M 241.297297 48 
Q 241.297297 60 256.864865 60 
" clip-path="url(#pd708c80fa6)" style="fill: none; stroke: #000000; stroke-linejoin: miter"/>
   </g>
   <g id="patch_45">
    <path d="M 272.432432 48 
Q 272.432432 60 256.864865 60 
" clip-path="url(#pd708c80fa6)" style="fill: none; stroke: #000000; stroke-linejoin: miter"/>
   </g>
   <g id="PathCollection_1">
    <defs>
     <path id="C0_0_c069b3fa76" d="M 0 4.967394 
C 1.317368 4.967394 2.580958 4.443998 3.512478 3.512478 
C 4.443998 2.580958 4.967394 1.317368 4.967394 -0 
C 4.967394 -1.317368 4.443998 -2.580958 3.512478 -3.512478 
C 2.580958 -4.443998 1.317368 -4.967394 0 -4.967394 
C -1.317368 -4.967394 -2.580958 -4.443998 -3.512478 -3.512478 
C -4.443998 -2.580958 -4.967394 -1.317368 -4.967394 0 
C -4.967394 1.317368 -4.443998 2.580958 -3.512478 3.512478 
C -2.580958 4.443998 -1.317368 4.967394 0 4.967394 
z
"/>
    </defs>
    <g clip-path="url(#pd708c80fa6)">
     <use xlink:href="#C0_0_c069b3fa76" x="171.243243" y="36" style="fill: #ffffff; stroke: #ffffff"/>
    </g>
    <g clip-path="url(#pd708c80fa6)">
     <use xlink:href="#C0_0_c069b3fa76" x="108.972973" y="36" style="fill: #ffffff; stroke: #ffffff"/>
    </g>
   </g>
   <g id="text_1">
    <g clip-path="url(#pd708c80fa6)">
     <!-- = -->
     <g transform="translate(166.215431 39.31125) scale(0.12 -0.12)">
      <defs>
       <path id="DejaVuSans-3d" d="M 678 2906 
L 4684 2906 
L 4684 2381 
L 678 2381 
L 678 2906 
z
M 678 1631 
L 4684 1631 
L 4684 1100 
L 678 1100 
L 678 1631 
z
" transform="scale(0.015625)"/>
      </defs>
      <use xlink:href="#DejaVuSans-3d"/>
     </g>
    </g>
   </g>
   <g id="text_2">
    <g clip-path="url(#pd708c80fa6)">
     <!-- = -->
     <g transform="translate(103.94516 39.31125) scale(0.12 -0.12)">
      <use xlink:href="#DejaVuSans-3d"/>
     </g>
    </g>
   </g>
  </g>
 </g>
 <defs>
  <clipPath id="pd708c80fa6">
   <rect x="0" y="0" width="288" height="72"/>
  </clipPath>
 </defs>
</svg>
