<?xml version="1.0" encoding="utf-8" standalone="no"?>
<!DOCTYPE svg PUBLIC "-//W3C//DTD SVG 1.1//EN"
  "http://www.w3.org/Graphics/SVG/1.1/DTD/svg11.dtd">
<svg xmlns:xlink="http://www.w3.org/1999/xlink" width="144pt" height="432pt" viewBox="0 0 144 432" xmlns="http://www.w3.org/2000/svg" version="1.1">
 <metadata>
  <rdf:RDF xmlns:dc="http://purl.org/dc/elements/1.1/" xmlns:cc="http://creativecommons.org/ns#" xmlns:rdf="http://www.w3.org/1999/02/22-rdf-syntax-ns#">
   <cc:Work>
    <dc:type rdf:resource="http://purl.org/dc/dcmitype/StillImage"/>
    <dc:format>image/svg+xml</dc:format>
    <dc:creator>
     <cc:Agent>
      <dc:title>Matplotlib v3.10.9, https://matplotlib.org/</dc:title>
     </cc:Agent>
    </dc:creator>
   </cc:Work>
  </rdf:RDF>
 </metadata>
 <defs>
  <style type="text/css">*{stroke-linejoin: round; stroke-linecap: butt}</style>
 </defs>
 <g id="figure_1">
  <g id="patch_1">
   <path d="M 0 432 
L 144 432 
L 144 0 
L 0 0 
z
" style="fill: #ffffff"/>
  </g>
  <g id="axes_1">
   <g id="patch_2">
    <path d="M 0 432 
L 144 432 
L 144 0 
L 0 0 
z
" clip-path="url(#pe8f51a9293)" style="fill: #ffffff; stroke: #ffffff; stroke-linejoin: miter"/>
   </g>
   <g id="patch_3">
    <path d="M 0 432 
Q 0 0 0 0 
L 144 0 
L 144 432 
z
" clip-path="url(#pe8f51a9293)" style="fill: #ffffff"/>
   </g>
   <g id="patch_4">
    <path d="M 36 54 
Q 36 90 36 90 
L 144 90 
L 144 54 
z
" clip-path="url(#pe8f51a9293)" style="fill: #ffffff"/>
   </g>
   <g id="patch_5">
    <path d="M 36 126 
Q 36 162 36 162 
L 144 162 
L 144 126 
z
" clip-path="url(#pe8f51a9293)" style="fill: #ffffff"/>
   </g>
   <g id="patch_6">
    <path d="M 36 198 
Q 36 234 36 234 
L 144 234 
L 144 198 
z
" clip-path="url(#pe8f51a9293)" style="fill: #ffffff"/>
   </g>
   <g id="patch_7">
    <path d="M 36 270 
Q 36 306 36 306 
L 144 306 
L 144 270 
z
" clip-path="url(#pe8f51a9293)" style="fill: #ffffff"/>
   </g>
   <g id="patch_8">
    <path d="M 36 342 
Q 36 378 36 378 
L 144 378 
L 144 342 
z
" clip-path="url(#pe8f51a9293)" style="fill: #ffffff"/>
   </g>
   <g id="patch_9">
    <path d="M 36 414 
Q 36 432 36 432 
L 144 432 
L 144 414 
z
" clip-path="url(#pe8f51a9293)" style="fill: #ffffff"/>
   </g>
   <g id="patch_10">
    <path d="M 54 90 
Q 54 126 54 126 
L 144 126 
L 144 90 
z
" clip-path="url(#pe8f51a9293)" style="fill: #ffffff"/>
   </g>
   <g id="patch_11">
    <path d="M 54 234 
Q 54 270 54 270 
L 144 270 
L 144 234 
z
" clip-path="url(#pe8f51a9293)" style="fill: #ffffff"/>
   </g>
   <g id="patch_12">
    <path d="M 54 378 
Q 54 414 54 414 
L 144 414 
L 144 378 
z
" clip-path="url(#pe8f51a9293)" style="fill: #ffffff"/>
   </g>
   <g id="patch_13">
    <path d="M 72 0 
Q 72 18 72 18 
L 144 18 
L 144 0 
z
" clip-path="url(#pe8f51a9293)" style="fill: #ffffff"/>
   </g>
   <g id="patch_14">
    <path d="M 108 54 
Q 108 90 108 90 
L 144 90 
L 144 54 
z
" clip-path="url(#pe8f51a9293)" style="fill: #ffffff"/>
   </g>
   <g id="patch_15">
    <path d="M 108 126 
Q 108 162 108 162 
L 144 162 
L 144 126 
z
" clip-path="url(#pe8f51a9293)" style="fill: #ffffff"/>
   </g>
   <g id="patch_16">
    <path d="M 108 198 
Q 108 234 108 234 
L 144 234 
L 144 198 
z
" clip-path="url(#pe8f51a9293)" style="fill: #ffffff"/>
   </g>
   <g id="patch_17">
    <path d="M 108 270 
Q 108 306 108 306 
L 144 306 
L 144 270 
z
" clip-path="url(#pe8f51a9293)" style="fill: #ffffff"/>
   </g>
   <g id="patch_18">
    <path d="M 108 342 
Q 108 378 108 378 
L 144 378 
L 144 342 
z
" clip-path="url(#pe8f51a9293)" style="fill: #ffffff"/>
   </g>
   <g id="patch_19">
    <path d="M 108 414 
Q 108 432 108 432 
L 144 432 
L 144 414 
z
" clip-path="url(#pe8f51a9293)" style="fill: #ffffff"/>
   </g>
   <g id="patch_20">
    <path d="M 126 18 
Q 126 54 126 54 
L 144 54 
L 144 18 
z
" clip-path="url(#pe8f51a9293)" style="fill: #ffffff"/>
   </g>
   <g id="patch_21">
    <path d="M 126 90 
Q 126 126 126 126 
L 144 126 
L 144 90 
z
" clip-path="url(#pe8f51a9293)" style="fill: #ffffff"/>
   </g>
   <g id="patch_22">
    <path d="M 126 162 
Q 126 198 126 198 
L 144 198 
L 144 162 
z
" clip-path="url(#pe8f51a9293)" style="fill: #ffffff"/>
   </g>
   <g id="patch_23">
    <path d="M 126 234 
Q 126 270 126 270 
L 144 270 
L 144 234 
z
" clip-path="url(#pe8f51a9293)" style="fill: #ffffff"/>
   </g>
   <g id="patch_24">
    <path d="M 126 306 
Q 126 342 126 342 
L 144 342 
L 144 306 
z
" clip-path="url(#pe8f51a9293)" style="fill: #ffffff"/>
   </g>
   <g id="patch_25">
    <path d="M 126 378 
Q 126 414 126 414 
L 144 414 
L 144 378 
z
" clip-path="url(#pe8f51a9293)" style="fill: #ffffff"/>
   </g>
   <g id="patch_26">
    <path d="M 72 0 
Q 72 18 72 18 
" clip-path="url(#pe8f51a9293)" style="fill: none; stroke: #000000; stroke-linejoin: miter"/>
   </g>
   <g id="patch_27">
    <path d="M 36 54 
Q 36 90 36 90 
" clip-path="url(#pe8f51a9293)" style="fill: none; stroke: #000000; stroke-linejoin: miter"/>
   </g>
   <g id="patch_28">
    <path d="M 108 54 
Q 108 90 108 90 
" clip-path="url(#pe8f51a9293)" style="fill: none; stroke: #000000; stroke-linejoin: miter"/>
   </g>
   <g id="patch_29">
    <path d="M 36 126 
Q 36 162 36 162 
" clip-path="url(#pe8f51a9293)" style="fill: none; stroke: #000000; stroke-linejoin: miter"/>
   </g>
   <g id="patch_30">
    <path d="M 108 126 
Q 108 162 108 162 
" clip-path="url(#pe8f51a9293)" style="fill: none; stroke: #000000; stroke-linejoin: miter"/>
   </g>
   <g id="patch_31">
    <path d="M 36 198 
Q 36 234 36 234 
" clip-path="url(#pe8f51a9293)" style="fill: none; stroke: #000000; stroke-linejoin: miter"/>
   </g>
   <g id="patch_32">
    <path d="M 108 198 
Q 108 234 108 234 
" clip-path="url(#pe8f51a9293)" style="fill: none; stroke: #000000; stroke-linejoin: miter"/>
   </g>
   <g id="patch_33">
    <path d="M 36 270 
Q 36 306 36 306 
" clip-path="url(#pe8f51a9293)" style="fill: none; stroke: #000000; stroke-linejoin: miter"/>
   </g>
   <g id="patch_34">
    <path d="M 108 270 
Q 108 306 108 306 
" clip-path="url(#pe8f51a9293)" style="fill: none; stroke: #000000; stroke-linejoin: miter"/>
   </g>
   <g id="patch_35">
    <path d="M 36 342 
Q 36 378 36 378 
" clip-path="url(#pe8f51a9293)" style="fill: none; stroke: #000000; stroke-linejoin: miter"/>
   </g>
   <g id="patch_36">
    <path d="M 108 342 
Q 108 378 108 378 
" clip-path="url(#pe8f51a9293)" style="fill: none; stroke: #000000; stroke-linejoin: miter"/>
   </g>
   <g id="patch_37">
    <path d="M 36 414 
Q 36 432 36 432 
" clip-path="url(#pe8f51a9293)" style="fill: none; stroke: #000000; stroke-linejoin: miter"/>
   </g>
   <g id="patch_38">
    <path d="M 108 414 
Q 108 432 108 432 
" clip-path="url(#pe8f51a9293)" style="fill: none; stroke: #000000; stroke-linejoin: miter"/>
   </g>
   <g id="patch_39">
    <path d="M 18 54 
L 18 18 
L 126 18 
L 126 54 
z
" clip-path="url(#pe8f51a9293)" style="fill: #ffffff; stroke: #000000; stroke-linejoin: miter"/>
   </g>
   <g id="patch_40">
    <path d="M 18 126 
L 18 90 
L 54 90 
L 54 126 
z
" clip-path="url(#pe8f51a9293)" style="fill: #ffffff; stroke: #000000; stroke-linejoin: miter"/>
   </g>
   <g id="patch_41">
    <path d="M 90 126 
L 90 90 
L 126 90 
L 126 126 
z
" clip-path="url(#pe8f51a9293)" style="fill: #ffffff; stroke: #000000; stroke-linejoin: miter"/>
   </g>
   <g id="patch_42">
    <path d="M 18 198 
L 18 162 
L 126 162 
L 126 198 
z
" clip-path="url(#pe8f51a9293)" style="fill: #ffffff; stroke: #000000; stroke-linejoin: miter"/>
   </g>
   <g id="patch_43">
    <path d="M 18 270 
L 18 234 
L 54 234 
L 54 270 
z
" clip-path="url(#pe8f51a9293)" style="fill: #ffffff; stroke: #000000; stroke-linejoin: miter"/>
   </g>
   <g id="patch_44">
    <path d="M 90 270 
L 90 234 
L 126 234 
L 126 270 
z
" clip-path="url(#pe8f51a9293)" style="fill: #ffffff; stroke: #000000; stroke-linejoin: miter"/>
   </g>
   <g id="patch_45">
    <path d="M 18 342 
L 18 306 
L 126 306 
L 126 342 
z
" clip-path="url(#pe8f51a9293)" style="fill: #ffffff; stroke: #000000; stroke-linejoin: miter"/>
   </g>
   <g id="patch_46">
    <path d="M 18 414 
L 18 378 
L 54 378 
L 54 414 
z
" clip-path="url(#pe8f51a9293)" style="fill: #ffffff; stroke: #000000; stroke-linejoin: miter"/>
   </g>
   <g id="patch_47">
    <path d="M 90 414 
L 90 378 
L 126 378 
L 126 414 
z
" clip-path="url(#pe8f51a9293)" style="fill: #ffffff; stroke: #000000; stroke-linejoin: miter"/>
   </g>
   <g id="text_1">
    <!-- S -->
    <g transform="translate(76.5 12.098437) scale(0.1 -0.1)">
     <defs>
      <path id="DejaVuSans-53" d="M 3425 4513 
L 3425 3897 
Q 3066 4069 2747 4153 
Q 2428 4238 2131 4238 
Q 1616 4238 1336 4038 
Q 1056 3838 1056 3469 
Q 1056 3159 1242 3001 
Q 1428 2844 1947 2747 
L 2328 2669 
Q 3034 2534 3370 2195 
Q 3706 1856 3706 1288 
Q 3706 609 3251 259 
Q 2797 -91 1919 -91 
Q 1588 -91 1214 -16 
Q 841 59 441 206 
L 441 856 
Q 825 641 1194 531 
Q 1563 422 1919 422 
Q 2459 422 2753 634 
Q 3047 847 3047 1241 
Q 3047 1584 2836 1778 
Q 2625 1972 2144 2069 
L 1759 2144 
Q 1053 2284 737 2584 
Q 422 2884 422 3419 
Q 422 4038 858 4394 
Q 1294 4750 2059 4750 
Q 2388 4750 2728 4690 
Q 3069 4631 3425 4513 
z
" transform="scale(0.015625)"/>
     </defs>
     <use xlink:href="#DejaVuSans-53"/>
    </g>
   </g>
   <g id="text_2">
    <!-- N -->
    <g transform="translate(40.5 66.098437) scale(0.1 -0.1)">
     <defs>
      <path id="DejaVuSans-4e" d="M 628 4666 
L 1478 4666 
L 3547 763 
L 3547 4666 
L 4159 4666 
L 4159 0 
L 3309 0 
L 1241 3903 
L 1241 0 
L 628 0 
L 628 4666 
z
" transform="scale(0.015625)"/>
     </defs>
     <use xlink:href="#DejaVuSans-4e"/>
    </g>
   </g>
   <g id="text_3">
    <!-- N -->
    <g transform="translate(112.5 66.098437) scale(0.1 -0.1)">
     <use xlink:href="#DejaVuSans-4e"/>
    </g>
   </g>
   <g id="text_4">
    <!-- N -->
    <g transform="translate(40.5 138.098437) scale(0.1 -0.1)">
     <use xlink:href="#DejaVuSans-4e"/>
    </g>
   </g>
   <g id="text_5">
    <!-- N -->
    <g transform="translate(112.5 138.098437) scale(0.1 -0.1)">
     <use xlink:href="#DejaVuSans-4e"/>
    </g>
   </g>
   <g id="text_6">
    <!-- N -->
    <g transform="translate(40.5 210.098437) scale(0.1 -0.1)">
     <use xlink:href="#DejaVuSans-4e"/>
    </g>
   </g>
   <g id="text_7">
    <!-- N -->
    <g transform="translate(112.5 210.098437) scale(0.1 -0.1)">
     <use xlink:href="#DejaVuSans-4e"/>
    </g>
   </g>
   <g id="text_8">
    <!-- N -->
    <g transform="translate(40.5 282.098437) scale(0.1 -0.1)">
     <use xlink:href="#DejaVuSans-4e"/>
    </g>
   </g>
   <g id="text_9">
    <!-- N -->
    <g transform="translate(112.5 282.098437) scale(0.1 -0.1)">
     <use xlink:href="#DejaVuSans-4e"/>
    </g>
   </g>
   <g id="text_10">
    <!-- N -->
    <g transform="translate(40.5 354.098437) scale(0.1 -0.1)">
     <use xlink:href="#DejaVuSans-4e"/>
    </g>
   </g>
   <g id="text_11">
    <!-- N -->
    <g transform="translate(112.5 354.098437) scale(0.1 -0.1)">
     <use xlink:href="#DejaVuSans-4e"/>
    </g>
   </g>
   <g id="text_12">
    <!-- N -->
    <g transform="translate(40.5 426.098437) scale(0.1 -0.1)">
     <use xlink:href="#DejaVuSans-4e"/>
    </g>
   </g>
   <g id="text_13">
    <!-- N -->
    <g transform="translate(112.5 426.098437) scale(0.1 -0.1)">
     <use xlink:href="#DejaVuSans-4e"/>
    </g>
   </g>
   <g id="text_14">
    <!-- L0 -->
    <g transform="translate(66.032813 38.759375) scale(0.1 -0.1)">
     <defs>
      <path id="DejaVuSans-4c" d="M 628 4666 
L 1259 4666 
L 1259 531 
L 3531 531 
L 3531 0 
L 628 0 
L 628 4666 
z
" transform="scale(0.015625)"/>
      <path id="DejaVuSans-30" d="M 2034 4250 
Q 1547 4250 1301 3770 
Q 1056 3291 1056 2328 
Q 1056 1369 1301 889 
Q 1547 409 2034 409 
Q 2525 409 2770 889 
Q 3016 1369 3016 2328 
Q 3016 3291 2770 3770 
Q 2525 4250 2034 4250 
z
M 2034 4750 
Q 2819 4750 3233 4129 
Q 3647 3509 3647 2328 
Q 3647 1150 3233 529 
Q 2819 -91 2034 -91 
Q 1250 -91 836 529 
Q 422 1150 422 2328 
Q 422 3509 836 4129 
Q 1250 4750 2034 4750 
z
" transform="scale(0.015625)"/>
     </defs>
     <use xlink:href="#DejaVuSans-4c"/>
     <use xlink:href="#DejaVuSans-30" transform="translate(55.712891 0)"/>
    </g>
   </g>
   <g id="text_15">
    <!-- A0 -->
    <g transform="translate(29.398438 110.759375) scale(0.1 -0.1)">
     <defs>
      <path id="DejaVuSans-41" d="M 2188 4044 
L 1331 1722 
L 3047 1722 
L 2188 4044 
z
M 1831 4666 
L 2547 4666 
L 4325 0 
L 3669 0 
L 3244 1197 
L 1141 1197 
L 716 0 
L 50 0 
L 1831 4666 
z
" transform="scale(0.015625)"/>
     </defs>
     <use xlink:href="#DejaVuSans-41"/>
     <use xlink:href="#DejaVuSans-30" transform="translate(68.408203 0)"/>
    </g>
   </g>
   <g id="text_16">
    <!-- B0 -->
    <g transform="translate(101.388281 110.759375) scale(0.1 -0.1)">
     <defs>
      <path id="DejaVuSans-42" d="M 1259 2228 
L 1259 519 
L 2272 519 
Q 2781 519 3026 730 
Q 3272 941 3272 1375 
Q 3272 1813 3026 2020 
Q 2781 2228 2272 2228 
L 1259 2228 
z
M 1259 4147 
L 1259 2741 
L 2194 2741 
Q 2656 2741 2882 2914 
Q 3109 3088 3109 3444 
Q 3109 3797 2882 3972 
Q 2656 4147 2194 4147 
L 1259 4147 
z
M 628 4666 
L 2241 4666 
Q 2963 4666 3353 4366 
Q 3744 4066 3744 3513 
Q 3744 3084 3544 2831 
Q 3344 2578 2956 2516 
Q 3422 2416 3680 2098 
Q 3938 1781 3938 1306 
Q 3938 681 3513 340 
Q 3088 0 2303 0 
L 628 0 
L 628 4666 
z
" transform="scale(0.015625)"/>
     </defs>
     <use xlink:href="#DejaVuSans-42"/>
     <use xlink:href="#DejaVuSans-30" transform="translate(68.603516 0)"/>
    </g>
   </g>
   <g id="text_17">
    <!-- L1 -->
    <g transform="translate(66.032813 182.759375) scale(0.1 -0.1)">
     <defs>
      <path id="DejaVuSans-31" d="M 794 531 
L 1825 531 
L 1825 4091 
L 703 3866 
L 703 4441 
L 1819 4666 
L 2450 4666 
L 2450 531 
L 3481 531 
L 3481 0 
L 794 0 
L 794 531 
z
" transform="scale(0.015625)"/>
     </defs>
     <use xlink:href="#DejaVuSans-4c"/>
     <use xlink:href="#DejaVuSans-31" transform="translate(55.712891 0)"/>
    </g>
   </g>
   <g id="text_18">
    <!-- A1 -->
    <g transform="translate(29.398438 254.759375) scale(0.1 -0.1)">
     <use xlink:href="#DejaVuSans-41"/>
     <use xlink:href="#DejaVuSans-31" transform="translate(68.408203 0)"/>
    </g>
   </g>
   <g id="text_19">
    <!-- B1 -->
    <g transform="translate(101.388281 254.759375) scale(0.1 -0.1)">
     <use xlink:href="#DejaVuSans-42"/>
     <use xlink:href="#DejaVuSans-31" transform="translate(68.603516 0)"/>
    </g>
   </g>
   <g id="text_20">
    <!-- L2 -->
    <g transform="translate(66.032813 326.759375) scale(0.1 -0.1)">
     <defs>
      <path id="DejaVuSans-32" d="M 1228 531 
L 3431 531 
L 3431 0 
L 469 0 
L 469 531 
Q 828 903 1448 1529 
Q 2069 2156 2228 2338 
Q 2531 2678 2651 2914 
Q 2772 3150 2772 3378 
Q 2772 3750 2511 3984 
Q 2250 4219 1831 4219 
Q 1534 4219 1204 4116 
Q 875 4013 500 3803 
L 500 4441 
Q 881 4594 1212 4672 
Q 1544 4750 1819 4750 
Q 2544 4750 2975 4387 
Q 3406 4025 3406 3419 
Q 3406 3131 3298 2873 
Q 3191 2616 2906 2266 
Q 2828 2175 2409 1742 
Q 1991 1309 1228 531 
z
" transform="scale(0.015625)"/>
     </defs>
     <use xlink:href="#DejaVuSans-4c"/>
     <use xlink:href="#DejaVuSans-32" transform="translate(55.712891 0)"/>
    </g>
   </g>
   <g id="text_21">
    <!-- A2 -->
    <g transform="translate(29.398438 398.759375) scale(0.1 -0.1)">
     <use xlink:href="#DejaVuSans-41"/>
     <use xlink:href="#DejaVuSans-32" transform="translate(68.408203 0)"/>
    </g>
   </g>
   <g id="text_22">
    <!-- B2 -->
    <g transform="translate(101.388281 398.759375) scale(0.1 -0.1)">
     <use xlink:href="#DejaVuSans-42"/>
     <use xlink:href="#DejaVuSans-32" transform="translate(68.603516 0)"/>
    </g>
   </g>
  </g>
 </g>
 <defs>
  <clipPath id="pe8f51a9293">
   <rect x="0" y="0" width="144" height="432"/>
  </clipPath>
 </defs>
</svg>
