<?xml version="1.0" encoding="utf-8" standalone="no"?>
<!DOCTYPE svg PUBLIC "-//W3C//DTD SVG 1.1//EN"
  "http://www.w3.org/Graphics/SVG/1.1/DTD/svg11.dtd">
<svg xmlns:xlink="http://www.w3.org/1999/xlink" width="792pt" height="360pt" viewBox="0 0 792 360" xmlns="http://www.w3.org/2000/svg" version="1.1">
 <metadata>
  <rdf:RDF xmlns:dc="http://purl.org/dc/elements/1.1/" xmlns:cc="http://creativecommons.org/ns#" xmlns:rdf="http://www.w3.org/1999/02/22-rdf-syntax-ns#">
   <cc:Work>
    <dc:type rdf:resource="http://purl.org/dc/dcmitype/StillImage"/>
    <dc:format>image/svg+xml</dc:format>
    <dc:creator>
     <cc:Agent>
      <dc:title>Matplotlib v3.10.9, https://matplotlib.org/</dc:title>
     </cc:Agent>
    </dc:creator>
   </cc:Work>
  </rdf:RDF>
 </metadata>
 <defs>
  <style type="text/css">*{stroke-linejoin: round; stroke-linecap: butt}</style>
 </defs>
 <g id="figure_1">
  <g id="patch_1">
   <path d="M 0 360 
L 792 360 
L 792 0 
L 0 0 
z
" style="fill: #ffffff"/>
  </g>
  <g id="axes_1">
   <g id="patch_2">
    <path d="M 0 360 
L 792 360 
L 792 0 
L 0 0 
z
" clip-path="url(#pcdbfedfe1c)" style="fill: #ffffff; stroke: #ffffff; stroke-linejoin: miter"/>
   </g>
   <g id="patch_3">
    <path d="M 0 360 
Q 0 0 0 0 
L 792 0 
L 792 360 
z
" clip-path="url(#pcdbfedfe1c)" style="fill: #ffffff"/>
   </g>
   <g id="patch_4">
    <path d="M 36 126 
Q 36 360 36 360 
L 792 360 
L 792 126 
z
" clip-path="url(#pcdbfedfe1c)" style="fill: #ffffff"/>
   </g>
   <g id="patch_5">
    <path d="M 72 0 
Q 72 90 72 90 
L 792 90 
L 792 0 
z
" clip-path="url(#pcdbfedfe1c)" style="fill: #ffffff"/>
   </g>
   <g id="patch_6">
    <path d="M 108 126 
Q 108 360 108 360 
L 792 360 
L 792 126 
z
" clip-path="url(#pcdbfedfe1c)" style="fill: #ffffff"/>
   </g>
   <g id="patch_7">
    <path d="M 126 90 
Q 126 126 126 126 
L 792 126 
L 792 90 
z
" clip-path="url(#pcdbfedfe1c)" style="fill: #ffffff"/>
   </g>
   <g id="patch_8">
    <path d="M 180 0 
Q 180 162 180 162 
L 792 162 
L 792 0 
z
" clip-path="url(#pcdbfedfe1c)" style="fill: #ffffff"/>
   </g>
   <g id="patch_9">
    <path d="M 180 198 
Q 180 360 180 360 
L 792 360 
L 792 198 
z
" clip-path="url(#pcdbfedfe1c)" style="fill: #ffffff"/>
   </g>
   <g id="patch_10">
    <path d="M 252 0 
Q 252 162 252 162 
L 792 162 
L 792 0 
z
" clip-path="url(#pcdbfedfe1c)" style="fill: #ffffff"/>
   </g>
   <g id="patch_11">
    <path d="M 252 198 
Q 252 360 252 360 
L 792 360 
L 792 198 
z
" clip-path="url(#pcdbfedfe1c)" style="fill: #ffffff"/>
   </g>
   <g id="patch_12">
    <path d="M 270 162 
Q 270 198 270 198 
L 792 198 
L 792 162 
z
" clip-path="url(#pcdbfedfe1c)" style="fill: #ffffff"/>
   </g>
   <g id="patch_13">
    <path d="M 324 0 
Q 324 234 324 234 
L 792 234 
L 792 0 
z
" clip-path="url(#pcdbfedfe1c)" style="fill: #ffffff"/>
   </g>
   <g id="patch_14">
    <path d="M 324 270 
Q 324 360 324 360 
L 792 360 
L 792 270 
z
" clip-path="url(#pcdbfedfe1c)" style="fill: #ffffff"/>
   </g>
   <g id="patch_15">
    <path d="M 396 0 
Q 396 234 396 234 
L 792 234 
L 792 0 
z
" clip-path="url(#pcdbfedfe1c)" style="fill: #ffffff"/>
   </g>
   <g id="patch_16">
    <path d="M 396 270 
Q 396 360 396 360 
L 792 360 
L 792 270 
z
" clip-path="url(#pcdbfedfe1c)" style="fill: #ffffff"/>
   </g>
   <g id="patch_17">
    <path d="M 414 234 
Q 414 270 414 270 
L 792 270 
L 792 234 
z
" clip-path="url(#pcdbfedfe1c)" style="fill: #ffffff"/>
   </g>
   <g id="patch_18">
    <path d="M 540 54 
Q 540 360 540 360 
L 792 360 
L 792 54 
z
" clip-path="url(#pcdbfedfe1c)" style="fill: #ffffff"/>
   </g>
   <g id="patch_19">
    <path d="M 576 0 
Q 576 18 576 18 
L 792 18 
L 792 0 
z
" clip-path="url(#pcdbfedfe1c)" style="fill: #ffffff"/>
   </g>
   <g id="patch_20">
    <path d="M 612 54 
Q 612 72 612 72 
L 792 72 
L 792 54 
z
" clip-path="url(#pcdbfedfe1c)" style="fill: #ffffff"/>
   </g>
   <g id="patch_21">
    <path d="M 612 144 
Q 612 162 612 162 
L 792 162 
L 792 144 
z
" clip-path="url(#pcdbfedfe1c)" style="fill: #ffffff"/>
   </g>
   <g id="patch_22">
    <path d="M 612 198 
Q 612 360 612 360 
L 792 360 
L 792 198 
z
" clip-path="url(#pcdbfedfe1c)" style="fill: #ffffff"/>
   </g>
   <g id="patch_23">
    <path d="M 648 108 
Q 612 108 612 144 
L 792 144 
L 792 108 
z
" clip-path="url(#pcdbfedfe1c)" style="fill: #ffffff"/>
   </g>
   <g id="patch_24">
    <path d="M 612 72 
Q 612 108 648 108 
L 792 108 
L 792 72 
z
" clip-path="url(#pcdbfedfe1c)" style="fill: #ffffff"/>
   </g>
   <g id="patch_25">
    <path d="M 630 18 
Q 630 54 630 54 
L 792 54 
L 792 18 
z
" clip-path="url(#pcdbfedfe1c)" style="fill: #ffffff"/>
   </g>
   <g id="patch_26">
    <path d="M 648 108 
Q 684 108 684 144 
L 792 144 
L 792 108 
z
" clip-path="url(#pcdbfedfe1c)" style="fill: #ffffff"/>
   </g>
   <g id="patch_27">
    <path d="M 684 72 
Q 684 108 648 108 
L 792 108 
L 792 72 
z
" clip-path="url(#pcdbfedfe1c)" style="fill: #ffffff"/>
   </g>
   <g id="patch_28">
    <path d="M 684 0 
Q 684 72 684 72 
L 792 72 
L 792 0 
z
" clip-path="url(#pcdbfedfe1c)" style="fill: #ffffff"/>
   </g>
   <g id="patch_29">
    <path d="M 684 144 
Q 684 162 684 162 
L 792 162 
L 792 144 
z
" clip-path="url(#pcdbfedfe1c)" style="fill: #ffffff"/>
   </g>
   <g id="patch_30">
    <path d="M 684 198 
Q 684 216 684 216 
L 792 216 
L 792 198 
z
" clip-path="url(#pcdbfedfe1c)" style="fill: #ffffff"/>
   </g>
   <g id="patch_31">
    <path d="M 684 288 
Q 684 306 684 306 
L 792 306 
L 792 288 
z
" clip-path="url(#pcdbfedfe1c)" style="fill: #ffffff"/>
   </g>
   <g id="patch_32">
    <path d="M 684 342 
Q 684 360 684 360 
L 792 360 
L 792 342 
z
" clip-path="url(#pcdbfedfe1c)" style="fill: #ffffff"/>
   </g>
   <g id="patch_33">
    <path d="M 720 252 
Q 684 252 684 288 
L 792 288 
L 792 252 
z
" clip-path="url(#pcdbfedfe1c)" style="fill: #ffffff"/>
   </g>
   <g id="patch_34">
    <path d="M 684 216 
Q 684 252 720 252 
L 792 252 
L 792 216 
z
" clip-path="url(#pcdbfedfe1c)" style="fill: #ffffff"/>
   </g>
   <g id="patch_35">
    <path d="M 702 162 
Q 702 198 702 198 
L 792 198 
L 792 162 
z
" clip-path="url(#pcdbfedfe1c)" style="fill: #ffffff"/>
   </g>
   <g id="patch_36">
    <path d="M 720 252 
Q 756 252 756 288 
L 792 288 
L 792 252 
z
" clip-path="url(#pcdbfedfe1c)" style="fill: #ffffff"/>
   </g>
   <g id="patch_37">
    <path d="M 756 216 
Q 756 252 720 252 
L 792 252 
L 792 216 
z
" clip-path="url(#pcdbfedfe1c)" style="fill: #ffffff"/>
   </g>
   <g id="patch_38">
    <path d="M 756 0 
Q 756 216 756 216 
L 792 216 
L 792 0 
z
" clip-path="url(#pcdbfedfe1c)" style="fill: #ffffff"/>
   </g>
   <g id="patch_39">
    <path d="M 756 288 
Q 756 306 756 306 
L 792 306 
L 792 288 
z
" clip-path="url(#pcdbfedfe1c)" style="fill: #ffffff"/>
   </g>
   <g id="patch_40">
    <path d="M 756 342 
Q 756 360 756 360 
L 792 360 
L 792 342 
z
" clip-path="url(#pcdbfedfe1c)" style="fill: #ffffff"/>
   </g>
   <g id="patch_41">
    <path d="M 774 306 
Q 774 342 774 342 
L 792 342 
L 792 306 
z
" clip-path="url(#pcdbfedfe1c)" style="fill: #ffffff"/>
   </g>
   <g id="patch_42">
    <path d="M 612 72 
C 612 108 684 108 684 144 
" clip-path="url(#pcdbfedfe1c)" style="fill: none; stroke: #000000; stroke-linejoin: miter"/>
   </g>
   <g id="patch_43">
    <path d="M 684 72 
C 684 108 612 108 612 144 
" clip-path="url(#pcdbfedfe1c)" style="fill: none; stroke: #000000; stroke-linejoin: miter"/>
   </g>
   <g id="patch_44">
    <path d="M 684 216 
C 684 252 756 252 756 288 
" clip-path="url(#pcdbfedfe1c)" style="fill: none; stroke: #000000; stroke-linejoin: miter"/>
   </g>
   <g id="patch_45">
    <path d="M 756 216 
C 756 252 684 252 684 288 
" clip-path="url(#pcdbfedfe1c)" style="fill: none; stroke: #000000; stroke-linejoin: miter"/>
   </g>
   <g id="patch_46">
    <path d="M 72 0 
Q 72 90 72 90 
" clip-path="url(#pcdbfedfe1c)" style="fill: none; stroke: #000000; stroke-linejoin: miter"/>
   </g>
   <g id="patch_47">
    <path d="M 36 126 
Q 36 360 36 360 
" clip-path="url(#pcdbfedfe1c)" style="fill: none; stroke: #000000; stroke-linejoin: miter"/>
   </g>
   <g id="patch_48">
    <path d="M 108 126 
Q 108 360 108 360 
" clip-path="url(#pcdbfedfe1c)" style="fill: none; stroke: #000000; stroke-linejoin: miter"/>
   </g>
   <g id="patch_49">
    <path d="M 180 0 
Q 180 162 180 162 
" clip-path="url(#pcdbfedfe1c)" style="fill: none; stroke: #000000; stroke-linejoin: miter"/>
   </g>
   <g id="patch_50">
    <path d="M 252 0 
Q 252 162 252 162 
" clip-path="url(#pcdbfedfe1c)" style="fill: none; stroke: #000000; stroke-linejoin: miter"/>
   </g>
   <g id="patch_51">
    <path d="M 324 0 
Q 324 234 324 234 
" clip-path="url(#pcdbfedfe1c)" style="fill: none; stroke: #000000; stroke-linejoin: miter"/>
   </g>
   <g id="patch_52">
    <path d="M 396 0 
Q 396 234 396 234 
" clip-path="url(#pcdbfedfe1c)" style="fill: none; stroke: #000000; stroke-linejoin: miter"/>
   </g>
   <g id="patch_53">
    <path d="M 180 198 
Q 180 360 180 360 
" clip-path="url(#pcdbfedfe1c)" style="fill: none; stroke: #000000; stroke-linejoin: miter"/>
   </g>
   <g id="patch_54">
    <path d="M 252 198 
Q 252 360 252 360 
" clip-path="url(#pcdbfedfe1c)" style="fill: none; stroke: #000000; stroke-linejoin: miter"/>
   </g>
   <g id="patch_55">
    <path d="M 324 270 
Q 324 360 324 360 
" clip-path="url(#pcdbfedfe1c)" style="fill: none; stroke: #000000; stroke-linejoin: miter"/>
   </g>
   <g id="patch_56">
    <path d="M 396 270 
Q 396 360 396 360 
" clip-path="url(#pcdbfedfe1c)" style="fill: none; stroke: #000000; stroke-linejoin: miter"/>
   </g>
   <g id="patch_57">
    <path d="M 576 0 
Q 576 18 576 18 
" clip-path="url(#pcdbfedfe1c)" style="fill: none; stroke: #000000; stroke-linejoin: miter"/>
   </g>
   <g id="patch_58">
    <path d="M 540 54 
Q 540 360 540 360 
" clip-path="url(#pcdbfedfe1c)" style="fill: none; stroke: #000000; stroke-linejoin: miter"/>
   </g>
   <g id="patch_59">
    <path d="M 612 54 
Q 612 72 612 72 
" clip-path="url(#pcdbfedfe1c)" style="fill: none; stroke: #000000; stroke-linejoin: miter"/>
   </g>
   <g id="patch_60">
    <path d="M 684 0 
Q 684 72 684 72 
" clip-path="url(#pcdbfedfe1c)" style="fill: none; stroke: #000000; stroke-linejoin: miter"/>
   </g>
   <g id="patch_61">
    <path d="M 756 0 
Q 756 216 756 216 
" clip-path="url(#pcdbfedfe1c)" style="fill: none; stroke: #000000; stroke-linejoin: miter"/>
   </g>
   <g id="patch_62">
    <path d="M 612 144 
Q 612 162 612 162 
" clip-path="url(#pcdbfedfe1c)" style="fill: none; stroke: #000000; stroke-linejoin: miter"/>
   </g>
   <g id="patch_63">
    <path d="M 684 144 
Q 684 162 684 162 
" clip-path="url(#pcdbfedfe1c)" style="fill: none; stroke: #000000; stroke-linejoin: miter"/>
   </g>
   <g id="patch_64">
    <path d="M 612 198 
Q 612 360 612 360 
" clip-path="url(#pcdbfedfe1c)" style="fill: none; stroke: #000000; stroke-linejoin: miter"/>
   </g>
   <g id="patch_65">
    <path d="M 684 198 
Q 684 216 684 216 
" clip-path="url(#pcdbfedfe1c)" style="fill: none; stroke: #000000; stroke-linejoin: miter"/>
   </g>
   <g id="patch_66">
    <path d="M 684 288 
Q 684 306 684 306 
" clip-path="url(#pcdbfedfe1c)" style="fill: none; stroke: #000000; stroke-linejoin: miter"/>
   </g>
   <g id="patch_67">
    <path d="M 756 288 
Q 756 306 756 306 
" clip-path="url(#pcdbfedfe1c)" style="fill: none; stroke: #000000; stroke-linejoin: miter"/>
   </g>
   <g id="patch_68">
    <path d="M 684 342 
Q 684 360 684 360 
" clip-path="url(#pcdbfedfe1c)" style="fill: none; stroke: #000000; stroke-linejoin: miter"/>
   </g>
   <g id="patch_69">
    <path d="M 756 342 
Q 756 360 756 360 
" clip-path="url(#pcdbfedfe1c)" style="fill: none; stroke: #000000; stroke-linejoin: miter"/>
   </g>
   <g id="patch_70">
    <path d="M 18 126 
L 18 90 
L 126 90 
L 126 126 
z
" clip-path="url(#pcdbfedfe1c)" style="fill: #ffffff; stroke: #000000; stroke-linejoin: miter"/>
   </g>
   <g id="patch_71">
    <path d="M 162 198 
L 162 162 
L 270 162 
L 270 198 
z
" clip-path="url(#pcdbfedfe1c)" style="fill: #ffffff; stroke: #000000; stroke-linejoin: miter"/>
   </g>
   <g id="patch_72">
    <path d="M 306 270 
L 306 234 
L 414 234 
L 414 270 
z
" clip-path="url(#pcdbfedfe1c)" style="fill: #ffffff; stroke: #000000; stroke-linejoin: miter"/>
   </g>
   <g id="patch_73">
    <path d="M 522 54 
L 522 18 
L 630 18 
L 630 54 
z
" clip-path="url(#pcdbfedfe1c)" style="fill: #ffffff; stroke: #000000; stroke-linejoin: miter"/>
   </g>
   <g id="patch_74">
    <path d="M 594 198 
L 594 162 
L 702 162 
L 702 198 
z
" clip-path="url(#pcdbfedfe1c)" style="fill: #ffffff; stroke: #000000; stroke-linejoin: miter"/>
   </g>
   <g id="patch_75">
    <path d="M 666 342 
L 666 306 
L 774 306 
L 774 342 
z
" clip-path="url(#pcdbfedfe1c)" style="fill: #ffffff; stroke: #000000; stroke-linejoin: miter"/>
   </g>
   <g id="PathCollection_1">
    <defs>
     <path id="m7df10be6e6" d="M 0 4.759202 
C 1.262155 4.759202 2.472785 4.257742 3.365264 3.365264 
C 4.257742 2.472785 4.759202 1.262155 4.759202 0 
C 4.759202 -1.262155 4.257742 -2.472785 3.365264 -3.365264 
C 2.472785 -4.257742 1.262155 -4.759202 0 -4.759202 
C -1.262155 -4.759202 -2.472785 -4.257742 -3.365264 -3.365264 
C -4.257742 -2.472785 -4.759202 -1.262155 -4.759202 0 
C -4.759202 1.262155 -4.257742 2.472785 -3.365264 3.365264 
C -2.472785 4.257742 -1.262155 4.759202 0 4.759202 
z
" style="stroke: #ffffff"/>
    </defs>
    <g clip-path="url(#pcdbfedfe1c)">
     <use xlink:href="#m7df10be6e6" x="468" y="180" style="fill: #ffffff; stroke: #ffffff"/>
    </g>
   </g>
   <g id="text_1">
    <!-- x0 -->
    <g transform="translate(76.5 12.098437) scale(0.1 -0.1)">
     <defs>
      <path id="DejaVuSans-78" d="M 3513 3500 
L 2247 1797 
L 3578 0 
L 2900 0 
L 1881 1375 
L 863 0 
L 184 0 
L 1544 1831 
L 300 3500 
L 978 3500 
L 1906 2253 
L 2834 3500 
L 3513 3500 
z
" transform="scale(0.015625)"/>
      <path id="DejaVuSans-30" d="M 2034 4250 
Q 1547 4250 1301 3770 
Q 1056 3291 1056 2328 
Q 1056 1369 1301 889 
Q 1547 409 2034 409 
Q 2525 409 2770 889 
Q 3016 1369 3016 2328 
Q 3016 3291 2770 3770 
Q 2525 4250 2034 4250 
z
M 2034 4750 
Q 2819 4750 3233 4129 
Q 3647 3509 3647 2328 
Q 3647 1150 3233 529 
Q 2819 -91 2034 -91 
Q 1250 -91 836 529 
Q 422 1150 422 2328 
Q 422 3509 836 4129 
Q 1250 4750 2034 4750 
z
" transform="scale(0.015625)"/>
     </defs>
     <use xlink:href="#DejaVuSans-78"/>
     <use xlink:href="#DejaVuSans-30" transform="translate(59.179688 0)"/>
    </g>
   </g>
   <g id="text_2">
    <!-- y0 -->
    <g transform="translate(40.5 138.098437) scale(0.1 -0.1)">
     <defs>
      <path id="DejaVuSans-79" d="M 2059 -325 
Q 1816 -950 1584 -1140 
Q 1353 -1331 966 -1331 
L 506 -1331 
L 506 -850 
L 844 -850 
Q 1081 -850 1212 -737 
Q 1344 -625 1503 -206 
L 1606 56 
L 191 3500 
L 800 3500 
L 1894 763 
L 2988 3500 
L 3597 3500 
L 2059 -325 
z
" transform="scale(0.015625)"/>
     </defs>
     <use xlink:href="#DejaVuSans-79"/>
     <use xlink:href="#DejaVuSans-30" transform="translate(59.179688 0)"/>
    </g>
   </g>
   <g id="text_3">
    <!-- m0 -->
    <g transform="translate(112.5 138.098437) scale(0.1 -0.1)">
     <defs>
      <path id="DejaVuSans-6d" d="M 3328 2828 
Q 3544 3216 3844 3400 
Q 4144 3584 4550 3584 
Q 5097 3584 5394 3201 
Q 5691 2819 5691 2113 
L 5691 0 
L 5113 0 
L 5113 2094 
Q 5113 2597 4934 2840 
Q 4756 3084 4391 3084 
Q 3944 3084 3684 2787 
Q 3425 2491 3425 1978 
L 3425 0 
L 2847 0 
L 2847 2094 
Q 2847 2600 2669 2842 
Q 2491 3084 2119 3084 
Q 1678 3084 1418 2786 
Q 1159 2488 1159 1978 
L 1159 0 
L 581 0 
L 581 3500 
L 1159 3500 
L 1159 2956 
Q 1356 3278 1631 3431 
Q 1906 3584 2284 3584 
Q 2666 3584 2933 3390 
Q 3200 3197 3328 2828 
z
" transform="scale(0.015625)"/>
     </defs>
     <use xlink:href="#DejaVuSans-6d"/>
     <use xlink:href="#DejaVuSans-30" transform="translate(97.412109 0)"/>
    </g>
   </g>
   <g id="text_4">
    <!-- x1 -->
    <g transform="translate(184.5 12.098437) scale(0.1 -0.1)">
     <defs>
      <path id="DejaVuSans-31" d="M 794 531 
L 1825 531 
L 1825 4091 
L 703 3866 
L 703 4441 
L 1819 4666 
L 2450 4666 
L 2450 531 
L 3481 531 
L 3481 0 
L 794 0 
L 794 531 
z
" transform="scale(0.015625)"/>
     </defs>
     <use xlink:href="#DejaVuSans-78"/>
     <use xlink:href="#DejaVuSans-31" transform="translate(59.179688 0)"/>
    </g>
   </g>
   <g id="text_5">
    <!-- m0 -->
    <g transform="translate(256.5 12.098437) scale(0.1 -0.1)">
     <use xlink:href="#DejaVuSans-6d"/>
     <use xlink:href="#DejaVuSans-30" transform="translate(97.412109 0)"/>
    </g>
   </g>
   <g id="text_6">
    <!-- x2 -->
    <g transform="translate(328.5 12.098437) scale(0.1 -0.1)">
     <defs>
      <path id="DejaVuSans-32" d="M 1228 531 
L 3431 531 
L 3431 0 
L 469 0 
L 469 531 
Q 828 903 1448 1529 
Q 2069 2156 2228 2338 
Q 2531 2678 2651 2914 
Q 2772 3150 2772 3378 
Q 2772 3750 2511 3984 
Q 2250 4219 1831 4219 
Q 1534 4219 1204 4116 
Q 875 4013 500 3803 
L 500 4441 
Q 881 4594 1212 4672 
Q 1544 4750 1819 4750 
Q 2544 4750 2975 4387 
Q 3406 4025 3406 3419 
Q 3406 3131 3298 2873 
Q 3191 2616 2906 2266 
Q 2828 2175 2409 1742 
Q 1991 1309 1228 531 
z
" transform="scale(0.015625)"/>
     </defs>
     <use xlink:href="#DejaVuSans-78"/>
     <use xlink:href="#DejaVuSans-32" transform="translate(59.179688 0)"/>
    </g>
   </g>
   <g id="text_7">
    <!-- m1 -->
    <g transform="translate(400.5 12.098437) scale(0.1 -0.1)">
     <use xlink:href="#DejaVuSans-6d"/>
     <use xlink:href="#DejaVuSans-31" transform="translate(97.412109 0)"/>
    </g>
   </g>
   <g id="text_8">
    <!-- y1 -->
    <g transform="translate(184.5 210.098437) scale(0.1 -0.1)">
     <use xlink:href="#DejaVuSans-79"/>
     <use xlink:href="#DejaVuSans-31" transform="translate(59.179688 0)"/>
    </g>
   </g>
   <g id="text_9">
    <!-- m1 -->
    <g transform="translate(256.5 210.098437) scale(0.1 -0.1)">
     <use xlink:href="#DejaVuSans-6d"/>
     <use xlink:href="#DejaVuSans-31" transform="translate(97.412109 0)"/>
    </g>
   </g>
   <g id="text_10">
    <!-- y2 -->
    <g transform="translate(328.5 282.098437) scale(0.1 -0.1)">
     <use xlink:href="#DejaVuSans-79"/>
     <use xlink:href="#DejaVuSans-32" transform="translate(59.179688 0)"/>
    </g>
   </g>
   <g id="text_11">
    <!-- m2 -->
    <g transform="translate(400.5 282.098437) scale(0.1 -0.1)">
     <use xlink:href="#DejaVuSans-6d"/>
     <use xlink:href="#DejaVuSans-32" transform="translate(97.412109 0)"/>
    </g>
   </g>
   <g id="text_12">
    <!-- x0 -->
    <g transform="translate(580.5 12.098437) scale(0.1 -0.1)">
     <use xlink:href="#DejaVuSans-78"/>
     <use xlink:href="#DejaVuSans-30" transform="translate(59.179688 0)"/>
    </g>
   </g>
   <g id="text_13">
    <!-- y0 -->
    <g transform="translate(544.5 66.098437) scale(0.1 -0.1)">
     <use xlink:href="#DejaVuSans-79"/>
     <use xlink:href="#DejaVuSans-30" transform="translate(59.179688 0)"/>
    </g>
   </g>
   <g id="text_14">
    <!-- m0 -->
    <g transform="translate(616.5 66.098437) scale(0.1 -0.1)">
     <use xlink:href="#DejaVuSans-6d"/>
     <use xlink:href="#DejaVuSans-30" transform="translate(97.412109 0)"/>
    </g>
   </g>
   <g id="text_15">
    <!-- x1 -->
    <g transform="translate(688.5 12.098437) scale(0.1 -0.1)">
     <use xlink:href="#DejaVuSans-78"/>
     <use xlink:href="#DejaVuSans-31" transform="translate(59.179688 0)"/>
    </g>
   </g>
   <g id="text_16">
    <!-- x2 -->
    <g transform="translate(760.5 12.098437) scale(0.1 -0.1)">
     <use xlink:href="#DejaVuSans-78"/>
     <use xlink:href="#DejaVuSans-32" transform="translate(59.179688 0)"/>
    </g>
   </g>
   <g id="text_17">
    <!-- x1 -->
    <g transform="translate(616.5 138.098437) scale(0.1 -0.1)">
     <use xlink:href="#DejaVuSans-78"/>
     <use xlink:href="#DejaVuSans-31" transform="translate(59.179688 0)"/>
    </g>
   </g>
   <g id="text_18">
    <!-- m0 -->
    <g transform="translate(688.5 138.098437) scale(0.1 -0.1)">
     <use xlink:href="#DejaVuSans-6d"/>
     <use xlink:href="#DejaVuSans-30" transform="translate(97.412109 0)"/>
    </g>
   </g>
   <g id="text_19">
    <!-- y1 -->
    <g transform="translate(616.5 210.098437) scale(0.1 -0.1)">
     <use xlink:href="#DejaVuSans-79"/>
     <use xlink:href="#DejaVuSans-31" transform="translate(59.179688 0)"/>
    </g>
   </g>
   <g id="text_20">
    <!-- m1 -->
    <g transform="translate(688.5 210.098437) scale(0.1 -0.1)">
     <use xlink:href="#DejaVuSans-6d"/>
     <use xlink:href="#DejaVuSans-31" transform="translate(97.412109 0)"/>
    </g>
   </g>
   <g id="text_21">
    <!-- x2 -->
    <g transform="translate(688.5 282.098437) scale(0.1 -0.1)">
     <use xlink:href="#DejaVuSans-78"/>
     <use xlink:href="#DejaVuSans-32" transform="translate(59.179688 0)"/>
    </g>
   </g>
   <g id="text_22">
    <!-- m1 -->
    <g transform="translate(760.5 282.098437) scale(0.1 -0.1)">
     <use xlink:href="#DejaVuSans-6d"/>
     <use xlink:href="#DejaVuSans-31" transform="translate(97.412109 0)"/>
    </g>
   </g>
   <g id="text_23">
    <!-- y2 -->
    <g transform="translate(688.5 354.098437) scale(0.1 -0.1)">
     <use xlink:href="#DejaVuSans-79"/>
     <use xlink:href="#DejaVuSans-32" transform="translate(59.179688 0)"/>
    </g>
   </g>
   <g id="text_24">
    <!-- m2 -->
    <g transform="translate(760.5 354.098437) scale(0.1 -0.1)">
     <use xlink:href="#DejaVuSans-6d"/>
     <use xlink:href="#DejaVuSans-32" transform="translate(97.412109 0)"/>
    </g>
   </g>
   <g id="text_25">
    <!-- f0 -->
    <g transform="translate(67.058594 110.759375) scale(0.1 -0.1)">
     <defs>
      <path id="DejaVuSans-66" d="M 2375 4863 
L 2375 4384 
L 1825 4384 
Q 1516 4384 1395 4259 
Q 1275 4134 1275 3809 
L 1275 3500 
L 2222 3500 
L 2222 3053 
L 1275 3053 
L 1275 0 
L 697 0 
L 697 3053 
L 147 3053 
L 147 3500 
L 697 3500 
L 697 3744 
Q 697 4328 969 4595 
Q 1241 4863 1831 4863 
L 2375 4863 
z
" transform="scale(0.015625)"/>
     </defs>
     <use xlink:href="#DejaVuSans-66"/>
     <use xlink:href="#DejaVuSans-30" transform="translate(35.205078 0)"/>
    </g>
   </g>
   <g id="text_26">
    <!-- f1 -->
    <g transform="translate(211.058594 182.759375) scale(0.1 -0.1)">
     <use xlink:href="#DejaVuSans-66"/>
     <use xlink:href="#DejaVuSans-31" transform="translate(35.205078 0)"/>
    </g>
   </g>
   <g id="text_27">
    <!-- f2 -->
    <g transform="translate(355.058594 254.759375) scale(0.1 -0.1)">
     <use xlink:href="#DejaVuSans-66"/>
     <use xlink:href="#DejaVuSans-32" transform="translate(35.205078 0)"/>
    </g>
   </g>
   <g id="text_28">
    <!-- f0 -->
    <g transform="translate(571.058594 38.759375) scale(0.1 -0.1)">
     <use xlink:href="#DejaVuSans-66"/>
     <use xlink:href="#DejaVuSans-30" transform="translate(35.205078 0)"/>
    </g>
   </g>
   <g id="text_29">
    <!-- f1 -->
    <g transform="translate(643.058594 182.759375) scale(0.1 -0.1)">
     <use xlink:href="#DejaVuSans-66"/>
     <use xlink:href="#DejaVuSans-31" transform="translate(35.205078 0)"/>
    </g>
   </g>
   <g id="text_30">
    <!-- f2 -->
    <g transform="translate(715.058594 326.759375) scale(0.1 -0.1)">
     <use xlink:href="#DejaVuSans-66"/>
     <use xlink:href="#DejaVuSans-32" transform="translate(35.205078 0)"/>
    </g>
   </g>
   <g id="text_31">
    <g clip-path="url(#pcdbfedfe1c)">
     <!-- $\mapsto$ -->
     <g transform="translate(460.62 183.31125) scale(0.12 -0.12)">
      <defs>
       <path id="DejaVuSans-21a6" d="M 4175 1741 
L 897 1741 
L 897 663 
L 366 663 
L 366 3350 
L 897 3350 
L 897 2272 
L 4175 2272 
L 3447 3000 
L 3822 3375 
L 5050 2147 
L 5050 1866 
L 3822 638 
L 3447 1013 
L 4175 1741 
z
" transform="scale(0.015625)"/>
      </defs>
      <use xlink:href="#DejaVuSans-21a6" transform="translate(19.482422 0.265625)"/>
     </g>
    </g>
   </g>
  </g>
 </g>
 <defs>
  <clipPath id="pcdbfedfe1c">
   <rect x="0" y="0" width="792" height="360"/>
  </clipPath>
 </defs>
</svg>
