<?xml version="1.0" encoding="utf-8" standalone="no"?>
<!DOCTYPE svg PUBLIC "-//W3C//DTD SVG 1.1//EN"
  "http://www.w3.org/Graphics/SVG/1.1/DTD/svg11.dtd">
<svg xmlns:xlink="http://www.w3.org/1999/xlink" width="576pt" height="360pt" viewBox="0 0 576 360" xmlns="http://www.w3.org/2000/svg" version="1.1">
 <metadata>
  <rdf:RDF xmlns:dc="http://purl.org/dc/elements/1.1/" xmlns:cc="http://creativecommons.org/ns#" xmlns:rdf="http://www.w3.org/1999/02/22-rdf-syntax-ns#">
   <cc:Work>
    <dc:type rdf:resource="http://purl.org/dc/dcmitype/StillImage"/>
    <dc:format>image/svg+xml</dc:format>
    <dc:creator>
     <cc:Agent>
      <dc:title>Matplotlib v3.10.9, https://matplotlib.org/</dc:title>
     </cc:Agent>
    </dc:creator>
   </cc:Work>
  </rdf:RDF>
 </metadata>
 <defs>
  <style type="text/css">*{stroke-linejoin: round; stroke-linecap: butt}</style>
 </defs>
 <g id="figure_1">
  <g id="patch_1">
   <path d="M 0 360 
L 576 360 
L 576 0 
L 0 0 
z
" style="fill: #ffffff"/>
  </g>
  <g id="axes_1">
   <g id="patch_2">
    <path d="M 0 360 
L 576 360 
L 576 0 
L 0 0 
z
" clip-path="url(#p2a5f396f71)" style="fill: #ffffff; stroke: #ffffff; stroke-linejoin: miter"/>
   </g>
   <g id="patch_3">
    <path d="M 0 360 
Q 0 0 0 0 
L 576 0 
L 576 360 
z
" clip-path="url(#p2a5f396f71)" style="fill: #ffffff"/>
   </g>
   <g id="patch_4">
    <path d="M 36 0 
Q 36 162 36 162 
L 576 162 
L 576 0 
z
" clip-path="url(#p2a5f396f71)" style="fill: #ffffff"/>
   </g>
   <g id="patch_5">
    <path d="M 36 198 
Q 36 360 36 360 
L 576 360 
L 576 198 
z
" clip-path="url(#p2a5f396f71)" style="fill: #ffffff"/>
   </g>
   <g id="patch_6">
    <path d="M 108 144 
Q 108 162 108 162 
L 576 162 
L 576 144 
z
" clip-path="url(#p2a5f396f71)" style="fill: #ffffff"/>
   </g>
   <g id="patch_7">
    <path d="M 108 198 
Q 108 216 108 216 
L 576 216 
L 576 198 
z
" clip-path="url(#p2a5f396f71)" style="fill: #ffffff"/>
   </g>
   <g id="patch_8">
    <path d="M 144 108 
Q 108 108 108 144 
L 576 144 
L 576 108 
z
" clip-path="url(#p2a5f396f71)" style="fill: #ffffff"/>
   </g>
   <g id="patch_9">
    <path d="M 108 216 
Q 108 252 144 252 
L 576 252 
L 576 216 
z
" clip-path="url(#p2a5f396f71)" style="fill: #ffffff"/>
   </g>
   <g id="patch_10">
    <path d="M 126 162 
Q 126 198 126 198 
L 576 198 
L 576 162 
z
" clip-path="url(#p2a5f396f71)" style="fill: #ffffff"/>
   </g>
   <g id="patch_11">
    <path d="M 144 108 
Q 180 108 180 144 
L 576 144 
L 576 108 
z
" clip-path="url(#p2a5f396f71)" style="fill: #ffffff"/>
   </g>
   <g id="patch_12">
    <path d="M 180 216 
Q 180 252 144 252 
L 576 252 
L 576 216 
z
" clip-path="url(#p2a5f396f71)" style="fill: #ffffff"/>
   </g>
   <g id="patch_13">
    <path d="M 180 144 
Q 180 216 180 216 
L 576 216 
L 576 144 
z
" clip-path="url(#p2a5f396f71)" style="fill: #ffffff"/>
   </g>
   <g id="patch_14">
    <path d="M 324 54 
Q 324 360 324 360 
L 576 360 
L 576 54 
z
" clip-path="url(#p2a5f396f71)" style="fill: #ffffff"/>
   </g>
   <g id="patch_15">
    <path d="M 360 0 
Q 360 18 360 18 
L 576 18 
L 576 0 
z
" clip-path="url(#p2a5f396f71)" style="fill: #ffffff"/>
   </g>
   <g id="patch_16">
    <path d="M 396 54 
Q 396 72 396 72 
L 576 72 
L 576 54 
z
" clip-path="url(#p2a5f396f71)" style="fill: #ffffff"/>
   </g>
   <g id="patch_17">
    <path d="M 396 144 
Q 396 162 396 162 
L 576 162 
L 576 144 
z
" clip-path="url(#p2a5f396f71)" style="fill: #ffffff"/>
   </g>
   <g id="patch_18">
    <path d="M 396 198 
Q 396 360 396 360 
L 576 360 
L 576 198 
z
" clip-path="url(#p2a5f396f71)" style="fill: #ffffff"/>
   </g>
   <g id="patch_19">
    <path d="M 432 108 
Q 396 108 396 144 
L 576 144 
L 576 108 
z
" clip-path="url(#p2a5f396f71)" style="fill: #ffffff"/>
   </g>
   <g id="patch_20">
    <path d="M 396 72 
Q 396 108 432 108 
L 576 108 
L 576 72 
z
" clip-path="url(#p2a5f396f71)" style="fill: #ffffff"/>
   </g>
   <g id="patch_21">
    <path d="M 414 18 
Q 414 54 414 54 
L 576 54 
L 576 18 
z
" clip-path="url(#p2a5f396f71)" style="fill: #ffffff"/>
   </g>
   <g id="patch_22">
    <path d="M 432 108 
Q 468 108 468 144 
L 576 144 
L 576 108 
z
" clip-path="url(#p2a5f396f71)" style="fill: #ffffff"/>
   </g>
   <g id="patch_23">
    <path d="M 468 72 
Q 468 108 432 108 
L 576 108 
L 576 72 
z
" clip-path="url(#p2a5f396f71)" style="fill: #ffffff"/>
   </g>
   <g id="patch_24">
    <path d="M 468 0 
Q 468 72 468 72 
L 576 72 
L 576 0 
z
" clip-path="url(#p2a5f396f71)" style="fill: #ffffff"/>
   </g>
   <g id="patch_25">
    <path d="M 468 144 
Q 468 162 468 162 
L 576 162 
L 576 144 
z
" clip-path="url(#p2a5f396f71)" style="fill: #ffffff"/>
   </g>
   <g id="patch_26">
    <path d="M 468 198 
Q 468 216 468 216 
L 576 216 
L 576 198 
z
" clip-path="url(#p2a5f396f71)" style="fill: #ffffff"/>
   </g>
   <g id="patch_27">
    <path d="M 468 288 
Q 468 306 468 306 
L 576 306 
L 576 288 
z
" clip-path="url(#p2a5f396f71)" style="fill: #ffffff"/>
   </g>
   <g id="patch_28">
    <path d="M 468 342 
Q 468 360 468 360 
L 576 360 
L 576 342 
z
" clip-path="url(#p2a5f396f71)" style="fill: #ffffff"/>
   </g>
   <g id="patch_29">
    <path d="M 504 252 
Q 468 252 468 288 
L 576 288 
L 576 252 
z
" clip-path="url(#p2a5f396f71)" style="fill: #ffffff"/>
   </g>
   <g id="patch_30">
    <path d="M 468 216 
Q 468 252 504 252 
L 576 252 
L 576 216 
z
" clip-path="url(#p2a5f396f71)" style="fill: #ffffff"/>
   </g>
   <g id="patch_31">
    <path d="M 486 162 
Q 486 198 486 198 
L 576 198 
L 576 162 
z
" clip-path="url(#p2a5f396f71)" style="fill: #ffffff"/>
   </g>
   <g id="patch_32">
    <path d="M 504 252 
Q 540 252 540 288 
L 576 288 
L 576 252 
z
" clip-path="url(#p2a5f396f71)" style="fill: #ffffff"/>
   </g>
   <g id="patch_33">
    <path d="M 540 216 
Q 540 252 504 252 
L 576 252 
L 576 216 
z
" clip-path="url(#p2a5f396f71)" style="fill: #ffffff"/>
   </g>
   <g id="patch_34">
    <path d="M 540 0 
Q 540 216 540 216 
L 576 216 
L 576 0 
z
" clip-path="url(#p2a5f396f71)" style="fill: #ffffff"/>
   </g>
   <g id="patch_35">
    <path d="M 540 288 
Q 540 306 540 306 
L 576 306 
L 576 288 
z
" clip-path="url(#p2a5f396f71)" style="fill: #ffffff"/>
   </g>
   <g id="patch_36">
    <path d="M 540 342 
Q 540 360 540 360 
L 576 360 
L 576 342 
z
" clip-path="url(#p2a5f396f71)" style="fill: #ffffff"/>
   </g>
   <g id="patch_37">
    <path d="M 558 306 
Q 558 342 558 342 
L 576 342 
L 576 306 
z
" clip-path="url(#p2a5f396f71)" style="fill: #ffffff"/>
   </g>
   <g id="patch_38">
    <path d="M 396 72 
C 396 108 468 108 468 144 
" clip-path="url(#p2a5f396f71)" style="fill: none; stroke: #000000; stroke-linejoin: miter"/>
   </g>
   <g id="patch_39">
    <path d="M 468 72 
C 468 108 396 108 396 144 
" clip-path="url(#p2a5f396f71)" style="fill: none; stroke: #000000; stroke-linejoin: miter"/>
   </g>
   <g id="patch_40">
    <path d="M 468 216 
C 468 252 540 252 540 288 
" clip-path="url(#p2a5f396f71)" style="fill: none; stroke: #000000; stroke-linejoin: miter"/>
   </g>
   <g id="patch_41">
    <path d="M 540 216 
C 540 252 468 252 468 288 
" clip-path="url(#p2a5f396f71)" style="fill: none; stroke: #000000; stroke-linejoin: miter"/>
   </g>
   <g id="patch_42">
    <path d="M 36 0 
Q 36 162 36 162 
" clip-path="url(#p2a5f396f71)" style="fill: none; stroke: #000000; stroke-linejoin: miter"/>
   </g>
   <g id="patch_43">
    <path d="M 144 108 
Q 108 108 108 144 
" clip-path="url(#p2a5f396f71)" style="fill: none; stroke: #000000; stroke-linejoin: miter"/>
   </g>
   <g id="patch_44">
    <path d="M 144 108 
Q 180 108 180 144 
" clip-path="url(#p2a5f396f71)" style="fill: none; stroke: #000000; stroke-linejoin: miter"/>
   </g>
   <g id="patch_45">
    <path d="M 108 144 
Q 108 162 108 162 
" clip-path="url(#p2a5f396f71)" style="fill: none; stroke: #000000; stroke-linejoin: miter"/>
   </g>
   <g id="patch_46">
    <path d="M 180 144 
Q 180 216 180 216 
" clip-path="url(#p2a5f396f71)" style="fill: none; stroke: #000000; stroke-linejoin: miter"/>
   </g>
   <g id="patch_47">
    <path d="M 36 198 
Q 36 360 36 360 
" clip-path="url(#p2a5f396f71)" style="fill: none; stroke: #000000; stroke-linejoin: miter"/>
   </g>
   <g id="patch_48">
    <path d="M 108 198 
Q 108 216 108 216 
" clip-path="url(#p2a5f396f71)" style="fill: none; stroke: #000000; stroke-linejoin: miter"/>
   </g>
   <g id="patch_49">
    <path d="M 108 216 
Q 108 252 144 252 
" clip-path="url(#p2a5f396f71)" style="fill: none; stroke: #000000; stroke-linejoin: miter"/>
   </g>
   <g id="patch_50">
    <path d="M 180 216 
Q 180 252 144 252 
" clip-path="url(#p2a5f396f71)" style="fill: none; stroke: #000000; stroke-linejoin: miter"/>
   </g>
   <g id="patch_51">
    <path d="M 360 0 
Q 360 18 360 18 
" clip-path="url(#p2a5f396f71)" style="fill: none; stroke: #000000; stroke-linejoin: miter"/>
   </g>
   <g id="patch_52">
    <path d="M 324 54 
Q 324 360 324 360 
" clip-path="url(#p2a5f396f71)" style="fill: none; stroke: #000000; stroke-linejoin: miter"/>
   </g>
   <g id="patch_53">
    <path d="M 396 54 
Q 396 72 396 72 
" clip-path="url(#p2a5f396f71)" style="fill: none; stroke: #000000; stroke-linejoin: miter"/>
   </g>
   <g id="patch_54">
    <path d="M 468 0 
Q 468 72 468 72 
" clip-path="url(#p2a5f396f71)" style="fill: none; stroke: #000000; stroke-linejoin: miter"/>
   </g>
   <g id="patch_55">
    <path d="M 540 0 
Q 540 216 540 216 
" clip-path="url(#p2a5f396f71)" style="fill: none; stroke: #000000; stroke-linejoin: miter"/>
   </g>
   <g id="patch_56">
    <path d="M 396 144 
Q 396 162 396 162 
" clip-path="url(#p2a5f396f71)" style="fill: none; stroke: #000000; stroke-linejoin: miter"/>
   </g>
   <g id="patch_57">
    <path d="M 468 144 
Q 468 162 468 162 
" clip-path="url(#p2a5f396f71)" style="fill: none; stroke: #000000; stroke-linejoin: miter"/>
   </g>
   <g id="patch_58">
    <path d="M 396 198 
Q 396 360 396 360 
" clip-path="url(#p2a5f396f71)" style="fill: none; stroke: #000000; stroke-linejoin: miter"/>
   </g>
   <g id="patch_59">
    <path d="M 468 198 
Q 468 216 468 216 
" clip-path="url(#p2a5f396f71)" style="fill: none; stroke: #000000; stroke-linejoin: miter"/>
   </g>
   <g id="patch_60">
    <path d="M 468 288 
Q 468 306 468 306 
" clip-path="url(#p2a5f396f71)" style="fill: none; stroke: #000000; stroke-linejoin: miter"/>
   </g>
   <g id="patch_61">
    <path d="M 540 288 
Q 540 306 540 306 
" clip-path="url(#p2a5f396f71)" style="fill: none; stroke: #000000; stroke-linejoin: miter"/>
   </g>
   <g id="patch_62">
    <path d="M 468 342 
Q 468 360 468 360 
" clip-path="url(#p2a5f396f71)" style="fill: none; stroke: #000000; stroke-linejoin: miter"/>
   </g>
   <g id="patch_63">
    <path d="M 540 342 
Q 540 360 540 360 
" clip-path="url(#p2a5f396f71)" style="fill: none; stroke: #000000; stroke-linejoin: miter"/>
   </g>
   <g id="patch_64">
    <path d="M 18 198 
L 18 162 
L 126 162 
L 126 198 
z
" clip-path="url(#p2a5f396f71)" style="fill: #ffffff; stroke: #000000; stroke-linejoin: miter"/>
   </g>
   <g id="patch_65">
    <path d="M 306 54 
L 306 18 
L 414 18 
L 414 54 
z
" clip-path="url(#p2a5f396f71)" style="fill: #ffffff; stroke: #000000; stroke-linejoin: miter"/>
   </g>
   <g id="patch_66">
    <path d="M 378 198 
L 378 162 
L 486 162 
L 486 198 
z
" clip-path="url(#p2a5f396f71)" style="fill: #ffffff; stroke: #000000; stroke-linejoin: miter"/>
   </g>
   <g id="patch_67">
    <path d="M 450 342 
L 450 306 
L 558 306 
L 558 342 
z
" clip-path="url(#p2a5f396f71)" style="fill: #ffffff; stroke: #000000; stroke-linejoin: miter"/>
   </g>
   <g id="PathCollection_1">
    <defs>
     <path id="mf66b751016" d="M 0 5.152669 
C 1.366504 5.152669 2.677223 4.609751 3.643487 3.643487 
C 4.609751 2.677223 5.152669 1.366504 5.152669 0 
C 5.152669 -1.366504 4.609751 -2.677223 3.643487 -3.643487 
C 2.677223 -4.609751 1.366504 -5.152669 0 -5.152669 
C -1.366504 -5.152669 -2.677223 -4.609751 -3.643487 -3.643487 
C -4.609751 -2.677223 -5.152669 -1.366504 -5.152669 0 
C -5.152669 1.366504 -4.609751 2.677223 -3.643487 3.643487 
C -2.677223 4.609751 -1.366504 5.152669 0 5.152669 
z
" style="stroke: #ffffff"/>
    </defs>
    <g clip-path="url(#p2a5f396f71)">
     <use xlink:href="#mf66b751016" x="252" y="180" style="fill: #ffffff; stroke: #ffffff"/>
    </g>
   </g>
   <g id="text_1">
    <!-- x -->
    <g transform="translate(40.5 12.098437) scale(0.1 -0.1)">
     <defs>
      <path id="DejaVuSans-78" d="M 3513 3500 
L 2247 1797 
L 3578 0 
L 2900 0 
L 1881 1375 
L 863 0 
L 184 0 
L 1544 1831 
L 300 3500 
L 978 3500 
L 1906 2253 
L 2834 3500 
L 3513 3500 
z
" transform="scale(0.015625)"/>
     </defs>
     <use xlink:href="#DejaVuSans-78"/>
    </g>
   </g>
   <g id="text_2">
    <!-- m.d -->
    <g transform="translate(112.5 138.098437) scale(0.1 -0.1)">
     <defs>
      <path id="DejaVuSans-6d" d="M 3328 2828 
Q 3544 3216 3844 3400 
Q 4144 3584 4550 3584 
Q 5097 3584 5394 3201 
Q 5691 2819 5691 2113 
L 5691 0 
L 5113 0 
L 5113 2094 
Q 5113 2597 4934 2840 
Q 4756 3084 4391 3084 
Q 3944 3084 3684 2787 
Q 3425 2491 3425 1978 
L 3425 0 
L 2847 0 
L 2847 2094 
Q 2847 2600 2669 2842 
Q 2491 3084 2119 3084 
Q 1678 3084 1418 2786 
Q 1159 2488 1159 1978 
L 1159 0 
L 581 0 
L 581 3500 
L 1159 3500 
L 1159 2956 
Q 1356 3278 1631 3431 
Q 1906 3584 2284 3584 
Q 2666 3584 2933 3390 
Q 3200 3197 3328 2828 
z
" transform="scale(0.015625)"/>
      <path id="DejaVuSans-2e" d="M 684 794 
L 1344 794 
L 1344 0 
L 684 0 
L 684 794 
z
" transform="scale(0.015625)"/>
      <path id="DejaVuSans-64" d="M 2906 2969 
L 2906 4863 
L 3481 4863 
L 3481 0 
L 2906 0 
L 2906 525 
Q 2725 213 2448 61 
Q 2172 -91 1784 -91 
Q 1150 -91 751 415 
Q 353 922 353 1747 
Q 353 2572 751 3078 
Q 1150 3584 1784 3584 
Q 2172 3584 2448 3432 
Q 2725 3281 2906 2969 
z
M 947 1747 
Q 947 1113 1208 752 
Q 1469 391 1925 391 
Q 2381 391 2643 752 
Q 2906 1113 2906 1747 
Q 2906 2381 2643 2742 
Q 2381 3103 1925 3103 
Q 1469 3103 1208 2742 
Q 947 2381 947 1747 
z
" transform="scale(0.015625)"/>
     </defs>
     <use xlink:href="#DejaVuSans-6d"/>
     <use xlink:href="#DejaVuSans-2e" transform="translate(97.412109 0)"/>
     <use xlink:href="#DejaVuSans-64" transform="translate(129.199219 0)"/>
    </g>
   </g>
   <g id="text_3">
    <!-- m.d -->
    <g transform="translate(184.5 138.098437) scale(0.1 -0.1)">
     <use xlink:href="#DejaVuSans-6d"/>
     <use xlink:href="#DejaVuSans-2e" transform="translate(97.412109 0)"/>
     <use xlink:href="#DejaVuSans-64" transform="translate(129.199219 0)"/>
    </g>
   </g>
   <g id="text_4">
    <!-- y -->
    <g transform="translate(40.5 210.098437) scale(0.1 -0.1)">
     <defs>
      <path id="DejaVuSans-79" d="M 2059 -325 
Q 1816 -950 1584 -1140 
Q 1353 -1331 966 -1331 
L 506 -1331 
L 506 -850 
L 844 -850 
Q 1081 -850 1212 -737 
Q 1344 -625 1503 -206 
L 1606 56 
L 191 3500 
L 800 3500 
L 1894 763 
L 2988 3500 
L 3597 3500 
L 2059 -325 
z
" transform="scale(0.015625)"/>
     </defs>
     <use xlink:href="#DejaVuSans-79"/>
    </g>
   </g>
   <g id="text_5">
    <!-- m -->
    <g transform="translate(112.5 210.098437) scale(0.1 -0.1)">
     <use xlink:href="#DejaVuSans-6d"/>
    </g>
   </g>
   <g id="text_6">
    <!-- x0 -->
    <g transform="translate(364.5 12.098437) scale(0.1 -0.1)">
     <defs>
      <path id="DejaVuSans-30" d="M 2034 4250 
Q 1547 4250 1301 3770 
Q 1056 3291 1056 2328 
Q 1056 1369 1301 889 
Q 1547 409 2034 409 
Q 2525 409 2770 889 
Q 3016 1369 3016 2328 
Q 3016 3291 2770 3770 
Q 2525 4250 2034 4250 
z
M 2034 4750 
Q 2819 4750 3233 4129 
Q 3647 3509 3647 2328 
Q 3647 1150 3233 529 
Q 2819 -91 2034 -91 
Q 1250 -91 836 529 
Q 422 1150 422 2328 
Q 422 3509 836 4129 
Q 1250 4750 2034 4750 
z
" transform="scale(0.015625)"/>
     </defs>
     <use xlink:href="#DejaVuSans-78"/>
     <use xlink:href="#DejaVuSans-30" transform="translate(59.179688 0)"/>
    </g>
   </g>
   <g id="text_7">
    <!-- y0 -->
    <g transform="translate(328.5 66.098437) scale(0.1 -0.1)">
     <use xlink:href="#DejaVuSans-79"/>
     <use xlink:href="#DejaVuSans-30" transform="translate(59.179688 0)"/>
    </g>
   </g>
   <g id="text_8">
    <!-- m0 -->
    <g transform="translate(400.5 66.098437) scale(0.1 -0.1)">
     <use xlink:href="#DejaVuSans-6d"/>
     <use xlink:href="#DejaVuSans-30" transform="translate(97.412109 0)"/>
    </g>
   </g>
   <g id="text_9">
    <!-- x1 -->
    <g transform="translate(472.5 12.098437) scale(0.1 -0.1)">
     <defs>
      <path id="DejaVuSans-31" d="M 794 531 
L 1825 531 
L 1825 4091 
L 703 3866 
L 703 4441 
L 1819 4666 
L 2450 4666 
L 2450 531 
L 3481 531 
L 3481 0 
L 794 0 
L 794 531 
z
" transform="scale(0.015625)"/>
     </defs>
     <use xlink:href="#DejaVuSans-78"/>
     <use xlink:href="#DejaVuSans-31" transform="translate(59.179688 0)"/>
    </g>
   </g>
   <g id="text_10">
    <!-- x2 -->
    <g transform="translate(544.5 12.098437) scale(0.1 -0.1)">
     <defs>
      <path id="DejaVuSans-32" d="M 1228 531 
L 3431 531 
L 3431 0 
L 469 0 
L 469 531 
Q 828 903 1448 1529 
Q 2069 2156 2228 2338 
Q 2531 2678 2651 2914 
Q 2772 3150 2772 3378 
Q 2772 3750 2511 3984 
Q 2250 4219 1831 4219 
Q 1534 4219 1204 4116 
Q 875 4013 500 3803 
L 500 4441 
Q 881 4594 1212 4672 
Q 1544 4750 1819 4750 
Q 2544 4750 2975 4387 
Q 3406 4025 3406 3419 
Q 3406 3131 3298 2873 
Q 3191 2616 2906 2266 
Q 2828 2175 2409 1742 
Q 1991 1309 1228 531 
z
" transform="scale(0.015625)"/>
     </defs>
     <use xlink:href="#DejaVuSans-78"/>
     <use xlink:href="#DejaVuSans-32" transform="translate(59.179688 0)"/>
    </g>
   </g>
   <g id="text_11">
    <!-- x1 -->
    <g transform="translate(400.5 138.098437) scale(0.1 -0.1)">
     <use xlink:href="#DejaVuSans-78"/>
     <use xlink:href="#DejaVuSans-31" transform="translate(59.179688 0)"/>
    </g>
   </g>
   <g id="text_12">
    <!-- m0 -->
    <g transform="translate(472.5 138.098437) scale(0.1 -0.1)">
     <use xlink:href="#DejaVuSans-6d"/>
     <use xlink:href="#DejaVuSans-30" transform="translate(97.412109 0)"/>
    </g>
   </g>
   <g id="text_13">
    <!-- y1 -->
    <g transform="translate(400.5 210.098437) scale(0.1 -0.1)">
     <use xlink:href="#DejaVuSans-79"/>
     <use xlink:href="#DejaVuSans-31" transform="translate(59.179688 0)"/>
    </g>
   </g>
   <g id="text_14">
    <!-- m1 -->
    <g transform="translate(472.5 210.098437) scale(0.1 -0.1)">
     <use xlink:href="#DejaVuSans-6d"/>
     <use xlink:href="#DejaVuSans-31" transform="translate(97.412109 0)"/>
    </g>
   </g>
   <g id="text_15">
    <!-- x2 -->
    <g transform="translate(472.5 282.098437) scale(0.1 -0.1)">
     <use xlink:href="#DejaVuSans-78"/>
     <use xlink:href="#DejaVuSans-32" transform="translate(59.179688 0)"/>
    </g>
   </g>
   <g id="text_16">
    <!-- m1 -->
    <g transform="translate(544.5 282.098437) scale(0.1 -0.1)">
     <use xlink:href="#DejaVuSans-6d"/>
     <use xlink:href="#DejaVuSans-31" transform="translate(97.412109 0)"/>
    </g>
   </g>
   <g id="text_17">
    <!-- y2 -->
    <g transform="translate(472.5 354.098437) scale(0.1 -0.1)">
     <use xlink:href="#DejaVuSans-79"/>
     <use xlink:href="#DejaVuSans-32" transform="translate(59.179688 0)"/>
    </g>
   </g>
   <g id="text_18">
    <!-- m2 -->
    <g transform="translate(544.5 354.098437) scale(0.1 -0.1)">
     <use xlink:href="#DejaVuSans-6d"/>
     <use xlink:href="#DejaVuSans-32" transform="translate(97.412109 0)"/>
    </g>
   </g>
   <g id="text_19">
    <!-- f -->
    <g transform="translate(70.239844 182.759375) scale(0.1 -0.1)">
     <defs>
      <path id="DejaVuSans-66" d="M 2375 4863 
L 2375 4384 
L 1825 4384 
Q 1516 4384 1395 4259 
Q 1275 4134 1275 3809 
L 1275 3500 
L 2222 3500 
L 2222 3053 
L 1275 3053 
L 1275 0 
L 697 0 
L 697 3053 
L 147 3053 
L 147 3500 
L 697 3500 
L 697 3744 
Q 697 4328 969 4595 
Q 1241 4863 1831 4863 
L 2375 4863 
z
" transform="scale(0.015625)"/>
     </defs>
     <use xlink:href="#DejaVuSans-66"/>
    </g>
   </g>
   <g id="text_20">
    <!-- f0 -->
    <g transform="translate(355.058594 38.759375) scale(0.1 -0.1)">
     <use xlink:href="#DejaVuSans-66"/>
     <use xlink:href="#DejaVuSans-30" transform="translate(35.205078 0)"/>
    </g>
   </g>
   <g id="text_21">
    <!-- f1 -->
    <g transform="translate(427.058594 182.759375) scale(0.1 -0.1)">
     <use xlink:href="#DejaVuSans-66"/>
     <use xlink:href="#DejaVuSans-31" transform="translate(35.205078 0)"/>
    </g>
   </g>
   <g id="text_22">
    <!-- f2 -->
    <g transform="translate(499.058594 326.759375) scale(0.1 -0.1)">
     <use xlink:href="#DejaVuSans-66"/>
     <use xlink:href="#DejaVuSans-32" transform="translate(35.205078 0)"/>
    </g>
   </g>
   <g id="text_23">
    <g clip-path="url(#p2a5f396f71)">
     <!-- $\mapsto$ -->
     <g transform="translate(244.62 183.31125) scale(0.12 -0.12)">
      <defs>
       <path id="DejaVuSans-21a6" d="M 4175 1741 
L 897 1741 
L 897 663 
L 366 663 
L 366 3350 
L 897 3350 
L 897 2272 
L 4175 2272 
L 3447 3000 
L 3822 3375 
L 5050 2147 
L 5050 1866 
L 3822 638 
L 3447 1013 
L 4175 1741 
z
" transform="scale(0.015625)"/>
      </defs>
      <use xlink:href="#DejaVuSans-21a6" transform="translate(19.482422 0.265625)"/>
     </g>
    </g>
   </g>
  </g>
 </g>
 <defs>
  <clipPath id="p2a5f396f71">
   <rect x="0" y="0" width="576" height="360"/>
  </clipPath>
 </defs>
</svg>
