<?xml version="1.0" encoding="utf-8" standalone="no"?>
<!DOCTYPE svg PUBLIC "-//W3C//DTD SVG 1.1//EN"
  "http://www.w3.org/Graphics/SVG/1.1/DTD/svg11.dtd">
<svg xmlns:xlink="http://www.w3.org/1999/xlink" width="216pt" height="288pt" viewBox="0 0 216 288" xmlns="http://www.w3.org/2000/svg" version="1.1">
 <metadata>
  <rdf:RDF xmlns:dc="http://purl.org/dc/elements/1.1/" xmlns:cc="http://creativecommons.org/ns#" xmlns:rdf="http://www.w3.org/1999/02/22-rdf-syntax-ns#">
   <cc:Work>
    <dc:type rdf:resource="http://purl.org/dc/dcmitype/StillImage"/>
    <dc:format>image/svg+xml</dc:format>
    <dc:creator>
     <cc:Agent>
      <dc:title>Matplotlib v3.10.9, https://matplotlib.org/</dc:title>
     </cc:Agent>
    </dc:creator>
   </cc:Work>
  </rdf:RDF>
 </metadata>
 <defs>
  <style type="text/css">*{stroke-linejoin: round; stroke-linecap: butt}</style>
 </defs>
 <g id="figure_1">
  <g id="patch_1">
   <path d="M 0 288 
L 216 288 
L 216 0 
L 0 0 
z
" style="fill: #ffffff"/>
  </g>
  <g id="axes_1">
   <g id="patch_2">
    <path d="M 0 288 
L 216 288 
L 216 0 
L 0 0 
z
" clip-path="url(#pad45738eb0)" style="fill: #ffffff; stroke: #ffffff; stroke-linejoin: miter"/>
   </g>
   <g id="patch_3">
    <path d="M 0 288 
Q 0 0 0 0 
L 216 0 
L 216 288 
z
" clip-path="url(#pad45738eb0)" style="fill: #ffffff"/>
   </g>
   <g id="patch_4">
    <path d="M 36 0 
Q 36 18 36 18 
L 216 18 
L 216 0 
z
" clip-path="url(#pad45738eb0)" style="fill: #ffffff"/>
   </g>
   <g id="patch_5">
    <path d="M 36 54 
Q 36 162 36 162 
L 216 162 
L 216 54 
z
" clip-path="url(#pad45738eb0)" style="fill: #ffffff"/>
   </g>
   <g id="patch_6">
    <path d="M 36 198 
Q 36 288 36 288 
L 216 288 
L 216 198 
z
" clip-path="url(#pad45738eb0)" style="fill: #ffffff"/>
   </g>
   <g id="patch_7">
    <path d="M 108 0 
Q 108 18 108 18 
L 216 18 
L 216 0 
z
" clip-path="url(#pad45738eb0)" style="fill: #ffffff"/>
   </g>
   <g id="patch_8">
    <path d="M 108 54 
Q 108 72 108 72 
L 216 72 
L 216 54 
z
" clip-path="url(#pad45738eb0)" style="fill: #ffffff"/>
   </g>
   <g id="patch_9">
    <path d="M 108 144 
Q 108 162 108 162 
L 216 162 
L 216 144 
z
" clip-path="url(#pad45738eb0)" style="fill: #ffffff"/>
   </g>
   <g id="patch_10">
    <path d="M 108 198 
Q 108 216 108 216 
L 216 216 
L 216 198 
z
" clip-path="url(#pad45738eb0)" style="fill: #ffffff"/>
   </g>
   <g id="patch_11">
    <path d="M 144 108 
Q 108 108 108 144 
L 216 144 
L 216 108 
z
" clip-path="url(#pad45738eb0)" style="fill: #ffffff"/>
   </g>
   <g id="patch_12">
    <path d="M 108 72 
Q 108 108 144 108 
L 216 108 
L 216 72 
z
" clip-path="url(#pad45738eb0)" style="fill: #ffffff"/>
   </g>
   <g id="patch_13">
    <path d="M 144 252 
Q 108 252 108 288 
L 216 288 
L 216 252 
z
" clip-path="url(#pad45738eb0)" style="fill: #ffffff"/>
   </g>
   <g id="patch_14">
    <path d="M 108 216 
Q 108 252 144 252 
L 216 252 
L 216 216 
z
" clip-path="url(#pad45738eb0)" style="fill: #ffffff"/>
   </g>
   <g id="patch_15">
    <path d="M 126 18 
Q 126 54 126 54 
L 216 54 
L 216 18 
z
" clip-path="url(#pad45738eb0)" style="fill: #ffffff"/>
   </g>
   <g id="patch_16">
    <path d="M 126 162 
Q 126 198 126 198 
L 216 198 
L 216 162 
z
" clip-path="url(#pad45738eb0)" style="fill: #ffffff"/>
   </g>
   <g id="patch_17">
    <path d="M 144 108 
Q 180 108 180 144 
L 216 144 
L 216 108 
z
" clip-path="url(#pad45738eb0)" style="fill: #ffffff"/>
   </g>
   <g id="patch_18">
    <path d="M 180 72 
Q 180 108 144 108 
L 216 108 
L 216 72 
z
" clip-path="url(#pad45738eb0)" style="fill: #ffffff"/>
   </g>
   <g id="patch_19">
    <path d="M 144 252 
Q 180 252 180 288 
L 216 288 
L 216 252 
z
" clip-path="url(#pad45738eb0)" style="fill: #ffffff"/>
   </g>
   <g id="patch_20">
    <path d="M 180 216 
Q 180 252 144 252 
L 216 252 
L 216 216 
z
" clip-path="url(#pad45738eb0)" style="fill: #ffffff"/>
   </g>
   <g id="patch_21">
    <path d="M 180 0 
Q 180 72 180 72 
L 216 72 
L 216 0 
z
" clip-path="url(#pad45738eb0)" style="fill: #ffffff"/>
   </g>
   <g id="patch_22">
    <path d="M 180 144 
Q 180 216 180 216 
L 216 216 
L 216 144 
z
" clip-path="url(#pad45738eb0)" style="fill: #ffffff"/>
   </g>
   <g id="patch_23">
    <path d="M 108 72 
C 108 108 180 108 180 144 
" clip-path="url(#pad45738eb0)" style="fill: none; stroke: #000000; stroke-linejoin: miter"/>
   </g>
   <g id="patch_24">
    <path d="M 180 72 
C 180 108 108 108 108 144 
" clip-path="url(#pad45738eb0)" style="fill: none; stroke: #000000; stroke-linejoin: miter"/>
   </g>
   <g id="patch_25">
    <path d="M 108 216 
C 108 252 180 252 180 288 
" clip-path="url(#pad45738eb0)" style="fill: none; stroke: #000000; stroke-linejoin: miter"/>
   </g>
   <g id="patch_26">
    <path d="M 180 216 
C 180 252 108 252 108 288 
" clip-path="url(#pad45738eb0)" style="fill: none; stroke: #000000; stroke-linejoin: miter"/>
   </g>
   <g id="patch_27">
    <path d="M 36 0 
Q 36 18 36 18 
" clip-path="url(#pad45738eb0)" style="fill: none; stroke: #000000; stroke-linejoin: miter"/>
   </g>
   <g id="patch_28">
    <path d="M 108 0 
Q 108 18 108 18 
" clip-path="url(#pad45738eb0)" style="fill: none; stroke: #000000; stroke-linejoin: miter"/>
   </g>
   <g id="patch_29">
    <path d="M 36 54 
Q 36 162 36 162 
" clip-path="url(#pad45738eb0)" style="fill: none; stroke: #000000; stroke-linejoin: miter"/>
   </g>
   <g id="patch_30">
    <path d="M 108 54 
Q 108 72 108 72 
" clip-path="url(#pad45738eb0)" style="fill: none; stroke: #000000; stroke-linejoin: miter"/>
   </g>
   <g id="patch_31">
    <path d="M 180 0 
Q 180 72 180 72 
" clip-path="url(#pad45738eb0)" style="fill: none; stroke: #000000; stroke-linejoin: miter"/>
   </g>
   <g id="patch_32">
    <path d="M 108 144 
Q 108 162 108 162 
" clip-path="url(#pad45738eb0)" style="fill: none; stroke: #000000; stroke-linejoin: miter"/>
   </g>
   <g id="patch_33">
    <path d="M 180 144 
Q 180 216 180 216 
" clip-path="url(#pad45738eb0)" style="fill: none; stroke: #000000; stroke-linejoin: miter"/>
   </g>
   <g id="patch_34">
    <path d="M 36 198 
Q 36 288 36 288 
" clip-path="url(#pad45738eb0)" style="fill: none; stroke: #000000; stroke-linejoin: miter"/>
   </g>
   <g id="patch_35">
    <path d="M 108 198 
Q 108 216 108 216 
" clip-path="url(#pad45738eb0)" style="fill: none; stroke: #000000; stroke-linejoin: miter"/>
   </g>
   <g id="patch_36">
    <path d="M 18 54 
L 18 18 
L 126 18 
L 126 54 
z
" clip-path="url(#pad45738eb0)" style="fill: #ffffff; stroke: #000000; stroke-linejoin: miter"/>
   </g>
   <g id="patch_37">
    <path d="M 18 198 
L 18 162 
L 126 162 
L 126 198 
z
" clip-path="url(#pad45738eb0)" style="fill: #ffffff; stroke: #000000; stroke-linejoin: miter"/>
   </g>
   <g id="text_1">
    <!-- x0 -->
    <g transform="translate(40.5 12.098437) scale(0.1 -0.1)">
     <defs>
      <path id="DejaVuSans-78" d="M 3513 3500 
L 2247 1797 
L 3578 0 
L 2900 0 
L 1881 1375 
L 863 0 
L 184 0 
L 1544 1831 
L 300 3500 
L 978 3500 
L 1906 2253 
L 2834 3500 
L 3513 3500 
z
" transform="scale(0.015625)"/>
      <path id="DejaVuSans-30" d="M 2034 4250 
Q 1547 4250 1301 3770 
Q 1056 3291 1056 2328 
Q 1056 1369 1301 889 
Q 1547 409 2034 409 
Q 2525 409 2770 889 
Q 3016 1369 3016 2328 
Q 3016 3291 2770 3770 
Q 2525 4250 2034 4250 
z
M 2034 4750 
Q 2819 4750 3233 4129 
Q 3647 3509 3647 2328 
Q 3647 1150 3233 529 
Q 2819 -91 2034 -91 
Q 1250 -91 836 529 
Q 422 1150 422 2328 
Q 422 3509 836 4129 
Q 1250 4750 2034 4750 
z
" transform="scale(0.015625)"/>
     </defs>
     <use xlink:href="#DejaVuSans-78"/>
     <use xlink:href="#DejaVuSans-30" transform="translate(59.179688 0)"/>
    </g>
   </g>
   <g id="text_2">
    <!-- m0 -->
    <g transform="translate(112.5 12.098437) scale(0.1 -0.1)">
     <defs>
      <path id="DejaVuSans-6d" d="M 3328 2828 
Q 3544 3216 3844 3400 
Q 4144 3584 4550 3584 
Q 5097 3584 5394 3201 
Q 5691 2819 5691 2113 
L 5691 0 
L 5113 0 
L 5113 2094 
Q 5113 2597 4934 2840 
Q 4756 3084 4391 3084 
Q 3944 3084 3684 2787 
Q 3425 2491 3425 1978 
L 3425 0 
L 2847 0 
L 2847 2094 
Q 2847 2600 2669 2842 
Q 2491 3084 2119 3084 
Q 1678 3084 1418 2786 
Q 1159 2488 1159 1978 
L 1159 0 
L 581 0 
L 581 3500 
L 1159 3500 
L 1159 2956 
Q 1356 3278 1631 3431 
Q 1906 3584 2284 3584 
Q 2666 3584 2933 3390 
Q 3200 3197 3328 2828 
z
" transform="scale(0.015625)"/>
     </defs>
     <use xlink:href="#DejaVuSans-6d"/>
     <use xlink:href="#DejaVuSans-30" transform="translate(97.412109 0)"/>
    </g>
   </g>
   <g id="text_3">
    <!-- y0 -->
    <g transform="translate(40.5 66.098437) scale(0.1 -0.1)">
     <defs>
      <path id="DejaVuSans-79" d="M 2059 -325 
Q 1816 -950 1584 -1140 
Q 1353 -1331 966 -1331 
L 506 -1331 
L 506 -850 
L 844 -850 
Q 1081 -850 1212 -737 
Q 1344 -625 1503 -206 
L 1606 56 
L 191 3500 
L 800 3500 
L 1894 763 
L 2988 3500 
L 3597 3500 
L 2059 -325 
z
" transform="scale(0.015625)"/>
     </defs>
     <use xlink:href="#DejaVuSans-79"/>
     <use xlink:href="#DejaVuSans-30" transform="translate(59.179688 0)"/>
    </g>
   </g>
   <g id="text_4">
    <!-- m1 -->
    <g transform="translate(112.5 66.098437) scale(0.1 -0.1)">
     <defs>
      <path id="DejaVuSans-31" d="M 794 531 
L 1825 531 
L 1825 4091 
L 703 3866 
L 703 4441 
L 1819 4666 
L 2450 4666 
L 2450 531 
L 3481 531 
L 3481 0 
L 794 0 
L 794 531 
z
" transform="scale(0.015625)"/>
     </defs>
     <use xlink:href="#DejaVuSans-6d"/>
     <use xlink:href="#DejaVuSans-31" transform="translate(97.412109 0)"/>
    </g>
   </g>
   <g id="text_5">
    <!-- n0 -->
    <g transform="translate(184.5 12.098437) scale(0.1 -0.1)">
     <defs>
      <path id="DejaVuSans-6e" d="M 3513 2113 
L 3513 0 
L 2938 0 
L 2938 2094 
Q 2938 2591 2744 2837 
Q 2550 3084 2163 3084 
Q 1697 3084 1428 2787 
Q 1159 2491 1159 1978 
L 1159 0 
L 581 0 
L 581 3500 
L 1159 3500 
L 1159 2956 
Q 1366 3272 1645 3428 
Q 1925 3584 2291 3584 
Q 2894 3584 3203 3211 
Q 3513 2838 3513 2113 
z
" transform="scale(0.015625)"/>
     </defs>
     <use xlink:href="#DejaVuSans-6e"/>
     <use xlink:href="#DejaVuSans-30" transform="translate(63.378906 0)"/>
    </g>
   </g>
   <g id="text_6">
    <!-- n0 -->
    <g transform="translate(112.5 138.098437) scale(0.1 -0.1)">
     <use xlink:href="#DejaVuSans-6e"/>
     <use xlink:href="#DejaVuSans-30" transform="translate(63.378906 0)"/>
    </g>
   </g>
   <g id="text_7">
    <!-- m1 -->
    <g transform="translate(184.5 138.098437) scale(0.1 -0.1)">
     <use xlink:href="#DejaVuSans-6d"/>
     <use xlink:href="#DejaVuSans-31" transform="translate(97.412109 0)"/>
    </g>
   </g>
   <g id="text_8">
    <!-- z0 -->
    <g transform="translate(40.5 210.098437) scale(0.1 -0.1)">
     <defs>
      <path id="DejaVuSans-7a" d="M 353 3500 
L 3084 3500 
L 3084 2975 
L 922 459 
L 3084 459 
L 3084 0 
L 275 0 
L 275 525 
L 2438 3041 
L 353 3041 
L 353 3500 
z
" transform="scale(0.015625)"/>
     </defs>
     <use xlink:href="#DejaVuSans-7a"/>
     <use xlink:href="#DejaVuSans-30" transform="translate(52.490234 0)"/>
    </g>
   </g>
   <g id="text_9">
    <!-- n1 -->
    <g transform="translate(112.5 210.098437) scale(0.1 -0.1)">
     <use xlink:href="#DejaVuSans-6e"/>
     <use xlink:href="#DejaVuSans-31" transform="translate(63.378906 0)"/>
    </g>
   </g>
   <g id="text_10">
    <!-- m1 -->
    <g transform="translate(112.5 282.098437) scale(0.1 -0.1)">
     <use xlink:href="#DejaVuSans-6d"/>
     <use xlink:href="#DejaVuSans-31" transform="translate(97.412109 0)"/>
    </g>
   </g>
   <g id="text_11">
    <!-- n1 -->
    <g transform="translate(184.5 282.098437) scale(0.1 -0.1)">
     <use xlink:href="#DejaVuSans-6e"/>
     <use xlink:href="#DejaVuSans-31" transform="translate(63.378906 0)"/>
    </g>
   </g>
   <g id="text_12">
    <!-- f0 -->
    <g transform="translate(67.058594 38.759375) scale(0.1 -0.1)">
     <defs>
      <path id="DejaVuSans-66" d="M 2375 4863 
L 2375 4384 
L 1825 4384 
Q 1516 4384 1395 4259 
Q 1275 4134 1275 3809 
L 1275 3500 
L 2222 3500 
L 2222 3053 
L 1275 3053 
L 1275 0 
L 697 0 
L 697 3053 
L 147 3053 
L 147 3500 
L 697 3500 
L 697 3744 
Q 697 4328 969 4595 
Q 1241 4863 1831 4863 
L 2375 4863 
z
" transform="scale(0.015625)"/>
     </defs>
     <use xlink:href="#DejaVuSans-66"/>
     <use xlink:href="#DejaVuSans-30" transform="translate(35.205078 0)"/>
    </g>
   </g>
   <g id="text_13">
    <!-- g0 -->
    <g transform="translate(65.644531 182.759375) scale(0.1 -0.1)">
     <defs>
      <path id="DejaVuSans-67" d="M 2906 1791 
Q 2906 2416 2648 2759 
Q 2391 3103 1925 3103 
Q 1463 3103 1205 2759 
Q 947 2416 947 1791 
Q 947 1169 1205 825 
Q 1463 481 1925 481 
Q 2391 481 2648 825 
Q 2906 1169 2906 1791 
z
M 3481 434 
Q 3481 -459 3084 -895 
Q 2688 -1331 1869 -1331 
Q 1566 -1331 1297 -1286 
Q 1028 -1241 775 -1147 
L 775 -588 
Q 1028 -725 1275 -790 
Q 1522 -856 1778 -856 
Q 2344 -856 2625 -561 
Q 2906 -266 2906 331 
L 2906 616 
Q 2728 306 2450 153 
Q 2172 0 1784 0 
Q 1141 0 747 490 
Q 353 981 353 1791 
Q 353 2603 747 3093 
Q 1141 3584 1784 3584 
Q 2172 3584 2450 3431 
Q 2728 3278 2906 2969 
L 2906 3500 
L 3481 3500 
L 3481 434 
z
" transform="scale(0.015625)"/>
     </defs>
     <use xlink:href="#DejaVuSans-67"/>
     <use xlink:href="#DejaVuSans-30" transform="translate(63.476562 0)"/>
    </g>
   </g>
  </g>
 </g>
 <defs>
  <clipPath id="pad45738eb0">
   <rect x="0" y="0" width="216" height="288"/>
  </clipPath>
 </defs>
</svg>
