<?xml version="1.0" encoding="utf-8" standalone="no"?>
<!DOCTYPE svg PUBLIC "-//W3C//DTD SVG 1.1//EN"
  "http://www.w3.org/Graphics/SVG/1.1/DTD/svg11.dtd">
<svg xmlns:xlink="http://www.w3.org/1999/xlink" width="576pt" height="288pt" viewBox="0 0 576 288" xmlns="http://www.w3.org/2000/svg" version="1.1">
 <metadata>
  <rdf:RDF xmlns:dc="http://purl.org/dc/elements/1.1/" xmlns:cc="http://creativecommons.org/ns#" xmlns:rdf="http://www.w3.org/1999/02/22-rdf-syntax-ns#">
   <cc:Work>
    <dc:type rdf:resource="http://purl.org/dc/dcmitype/StillImage"/>
    <dc:format>image/svg+xml</dc:format>
    <dc:creator>
     <cc:Agent>
      <dc:title>Matplotlib v3.10.9, https://matplotlib.org/</dc:title>
     </cc:Agent>
    </dc:creator>
   </cc:Work>
  </rdf:RDF>
 </metadata>
 <defs>
  <style type="text/css">*{stroke-linejoin: round; stroke-linecap: butt}</style>
 </defs>
 <g id="figure_1">
  <g id="patch_1">
   <path d="M 0 288 
L 576 288 
L 576 0 
L 0 0 
z
" style="fill: #ffffff"/>
  </g>
  <g id="axes_1">
   <g id="patch_2">
    <path d="M 0 288 
L 576 288 
L 576 0 
L 0 0 
z
" clip-path="url(#pbdbb571cf5)" style="fill: #ffffff; stroke: #ffffff; stroke-linejoin: miter"/>
   </g>
   <g id="patch_3">
    <path d="M 0 288 
Q 0 0 0 0 
L 576 0 
L 576 288 
z
" clip-path="url(#pbdbb571cf5)" style="fill: #ffffff"/>
   </g>
   <g id="patch_4">
    <path d="M 26.181818 0 
Q 26.181818 133.714286 26.181818 133.714286 
L 576 133.714286 
L 576 0 
z
" clip-path="url(#pbdbb571cf5)" style="fill: #ffffff"/>
   </g>
   <g id="patch_5">
    <path d="M 26.181818 154.285714 
Q 26.181818 288 26.181818 288 
L 576 288 
L 576 154.285714 
z
" clip-path="url(#pbdbb571cf5)" style="fill: #ffffff"/>
   </g>
   <g id="patch_6">
    <path d="M 78.545455 0 
Q 78.545455 133.714286 78.545455 133.714286 
L 576 133.714286 
L 576 0 
z
" clip-path="url(#pbdbb571cf5)" style="fill: #ffffff"/>
   </g>
   <g id="patch_7">
    <path d="M 78.545455 154.285714 
Q 78.545455 288 78.545455 288 
L 576 288 
L 576 154.285714 
z
" clip-path="url(#pbdbb571cf5)" style="fill: #ffffff"/>
   </g>
   <g id="patch_8">
    <path d="M 91.636364 133.714286 
Q 91.636364 154.285714 91.636364 154.285714 
L 576 154.285714 
L 576 133.714286 
z
" clip-path="url(#pbdbb571cf5)" style="fill: #ffffff"/>
   </g>
   <g id="patch_9">
    <path d="M 183.272727 0 
Q 183.272727 113.142857 183.272727 113.142857 
L 576 113.142857 
L 576 0 
z
" clip-path="url(#pbdbb571cf5)" style="fill: #ffffff"/>
   </g>
   <g id="patch_10">
    <path d="M 183.272727 133.714286 
Q 183.272727 288 183.272727 288 
L 576 288 
L 576 133.714286 
z
" clip-path="url(#pbdbb571cf5)" style="fill: #ffffff"/>
   </g>
   <g id="patch_11">
    <path d="M 235.636364 0 
Q 235.636364 61.714286 235.636364 61.714286 
L 576 61.714286 
L 576 0 
z
" clip-path="url(#pbdbb571cf5)" style="fill: #ffffff"/>
   </g>
   <g id="patch_12">
    <path d="M 235.636364 102.857143 
Q 235.636364 113.142857 235.636364 113.142857 
L 576 113.142857 
L 576 102.857143 
z
" clip-path="url(#pbdbb571cf5)" style="fill: #ffffff"/>
   </g>
   <g id="patch_13">
    <path d="M 235.636364 133.714286 
Q 235.636364 144 235.636364 144 
L 576 144 
L 576 133.714286 
z
" clip-path="url(#pbdbb571cf5)" style="fill: #ffffff"/>
   </g>
   <g id="patch_14">
    <path d="M 235.636364 185.142857 
Q 235.636364 195.428571 235.636364 195.428571 
L 576 195.428571 
L 576 185.142857 
z
" clip-path="url(#pbdbb571cf5)" style="fill: #ffffff"/>
   </g>
   <g id="patch_15">
    <path d="M 235.636364 216 
Q 235.636364 288 235.636364 288 
L 576 288 
L 576 216 
z
" clip-path="url(#pbdbb571cf5)" style="fill: #ffffff"/>
   </g>
   <g id="patch_16">
    <path d="M 261.818182 82.285714 
Q 235.636364 82.285714 235.636364 102.857143 
L 576 102.857143 
L 576 82.285714 
z
" clip-path="url(#pbdbb571cf5)" style="fill: #ffffff"/>
   </g>
   <g id="patch_17">
    <path d="M 235.636364 61.714286 
Q 235.636364 82.285714 261.818182 82.285714 
L 576 82.285714 
L 576 61.714286 
z
" clip-path="url(#pbdbb571cf5)" style="fill: #ffffff"/>
   </g>
   <g id="patch_18">
    <path d="M 261.818182 164.571429 
Q 235.636364 164.571429 235.636364 185.142857 
L 576 185.142857 
L 576 164.571429 
z
" clip-path="url(#pbdbb571cf5)" style="fill: #ffffff"/>
   </g>
   <g id="patch_19">
    <path d="M 235.636364 144 
Q 235.636364 164.571429 261.818182 164.571429 
L 576 164.571429 
L 576 144 
z
" clip-path="url(#pbdbb571cf5)" style="fill: #ffffff"/>
   </g>
   <g id="patch_20">
    <path d="M 248.727273 113.142857 
Q 248.727273 133.714286 248.727273 133.714286 
L 576 133.714286 
L 576 113.142857 
z
" clip-path="url(#pbdbb571cf5)" style="fill: #ffffff"/>
   </g>
   <g id="patch_21">
    <path d="M 261.818182 82.285714 
Q 288 82.285714 288 102.857143 
L 576 102.857143 
L 576 82.285714 
z
" clip-path="url(#pbdbb571cf5)" style="fill: #ffffff"/>
   </g>
   <g id="patch_22">
    <path d="M 288 61.714286 
Q 288 82.285714 261.818182 82.285714 
L 576 82.285714 
L 576 61.714286 
z
" clip-path="url(#pbdbb571cf5)" style="fill: #ffffff"/>
   </g>
   <g id="patch_23">
    <path d="M 261.818182 164.571429 
Q 288 164.571429 288 185.142857 
L 576 185.142857 
L 576 164.571429 
z
" clip-path="url(#pbdbb571cf5)" style="fill: #ffffff"/>
   </g>
   <g id="patch_24">
    <path d="M 288 144 
Q 288 164.571429 261.818182 164.571429 
L 576 164.571429 
L 576 144 
z
" clip-path="url(#pbdbb571cf5)" style="fill: #ffffff"/>
   </g>
   <g id="patch_25">
    <path d="M 288 0 
Q 288 61.714286 288 61.714286 
L 576 61.714286 
L 576 0 
z
" clip-path="url(#pbdbb571cf5)" style="fill: #ffffff"/>
   </g>
   <g id="patch_26">
    <path d="M 288 102.857143 
Q 288 144 288 144 
L 576 144 
L 576 102.857143 
z
" clip-path="url(#pbdbb571cf5)" style="fill: #ffffff"/>
   </g>
   <g id="patch_27">
    <path d="M 288 185.142857 
Q 288 195.428571 288 195.428571 
L 576 195.428571 
L 576 185.142857 
z
" clip-path="url(#pbdbb571cf5)" style="fill: #ffffff"/>
   </g>
   <g id="patch_28">
    <path d="M 288 216 
Q 288 288 288 288 
L 576 288 
L 576 216 
z
" clip-path="url(#pbdbb571cf5)" style="fill: #ffffff"/>
   </g>
   <g id="patch_29">
    <path d="M 301.090909 195.428571 
Q 301.090909 216 301.090909 216 
L 576 216 
L 576 195.428571 
z
" clip-path="url(#pbdbb571cf5)" style="fill: #ffffff"/>
   </g>
   <g id="patch_30">
    <path d="M 392.727273 0 
Q 392.727273 92.571429 392.727273 92.571429 
L 576 92.571429 
L 576 0 
z
" clip-path="url(#pbdbb571cf5)" style="fill: #ffffff"/>
   </g>
   <g id="patch_31">
    <path d="M 392.727273 113.142857 
Q 392.727273 288 392.727273 288 
L 576 288 
L 576 113.142857 
z
" clip-path="url(#pbdbb571cf5)" style="fill: #ffffff"/>
   </g>
   <g id="patch_32">
    <path d="M 445.090909 0 
Q 445.090909 41.142857 445.090909 41.142857 
L 576 41.142857 
L 576 0 
z
" clip-path="url(#pbdbb571cf5)" style="fill: #ffffff"/>
   </g>
   <g id="patch_33">
    <path d="M 445.090909 82.285714 
Q 445.090909 92.571429 445.090909 92.571429 
L 576 92.571429 
L 576 82.285714 
z
" clip-path="url(#pbdbb571cf5)" style="fill: #ffffff"/>
   </g>
   <g id="patch_34">
    <path d="M 445.090909 113.142857 
Q 445.090909 123.428571 445.090909 123.428571 
L 576 123.428571 
L 576 113.142857 
z
" clip-path="url(#pbdbb571cf5)" style="fill: #ffffff"/>
   </g>
   <g id="patch_35">
    <path d="M 445.090909 164.571429 
Q 445.090909 174.857143 445.090909 174.857143 
L 576 174.857143 
L 576 164.571429 
z
" clip-path="url(#pbdbb571cf5)" style="fill: #ffffff"/>
   </g>
   <g id="patch_36">
    <path d="M 445.090909 195.428571 
Q 445.090909 288 445.090909 288 
L 576 288 
L 576 195.428571 
z
" clip-path="url(#pbdbb571cf5)" style="fill: #ffffff"/>
   </g>
   <g id="patch_37">
    <path d="M 471.272727 61.714286 
Q 445.090909 61.714286 445.090909 82.285714 
L 576 82.285714 
L 576 61.714286 
z
" clip-path="url(#pbdbb571cf5)" style="fill: #ffffff"/>
   </g>
   <g id="patch_38">
    <path d="M 445.090909 41.142857 
Q 445.090909 61.714286 471.272727 61.714286 
L 576 61.714286 
L 576 41.142857 
z
" clip-path="url(#pbdbb571cf5)" style="fill: #ffffff"/>
   </g>
   <g id="patch_39">
    <path d="M 471.272727 144 
Q 445.090909 144 445.090909 164.571429 
L 576 164.571429 
L 576 144 
z
" clip-path="url(#pbdbb571cf5)" style="fill: #ffffff"/>
   </g>
   <g id="patch_40">
    <path d="M 445.090909 123.428571 
Q 445.090909 144 471.272727 144 
L 576 144 
L 576 123.428571 
z
" clip-path="url(#pbdbb571cf5)" style="fill: #ffffff"/>
   </g>
   <g id="patch_41">
    <path d="M 458.181818 92.571429 
Q 458.181818 113.142857 458.181818 113.142857 
L 576 113.142857 
L 576 92.571429 
z
" clip-path="url(#pbdbb571cf5)" style="fill: #ffffff"/>
   </g>
   <g id="patch_42">
    <path d="M 471.272727 61.714286 
Q 497.454545 61.714286 497.454545 82.285714 
L 576 82.285714 
L 576 61.714286 
z
" clip-path="url(#pbdbb571cf5)" style="fill: #ffffff"/>
   </g>
   <g id="patch_43">
    <path d="M 497.454545 41.142857 
Q 497.454545 61.714286 471.272727 61.714286 
L 576 61.714286 
L 576 41.142857 
z
" clip-path="url(#pbdbb571cf5)" style="fill: #ffffff"/>
   </g>
   <g id="patch_44">
    <path d="M 471.272727 144 
Q 497.454545 144 497.454545 164.571429 
L 576 164.571429 
L 576 144 
z
" clip-path="url(#pbdbb571cf5)" style="fill: #ffffff"/>
   </g>
   <g id="patch_45">
    <path d="M 497.454545 123.428571 
Q 497.454545 144 471.272727 144 
L 576 144 
L 576 123.428571 
z
" clip-path="url(#pbdbb571cf5)" style="fill: #ffffff"/>
   </g>
   <g id="patch_46">
    <path d="M 497.454545 82.285714 
Q 497.454545 123.428571 497.454545 123.428571 
L 576 123.428571 
L 576 82.285714 
z
" clip-path="url(#pbdbb571cf5)" style="fill: #ffffff"/>
   </g>
   <g id="patch_47">
    <path d="M 497.454545 164.571429 
Q 497.454545 174.857143 497.454545 174.857143 
L 576 174.857143 
L 576 164.571429 
z
" clip-path="url(#pbdbb571cf5)" style="fill: #ffffff"/>
   </g>
   <g id="patch_48">
    <path d="M 497.454545 195.428571 
Q 497.454545 205.714286 497.454545 205.714286 
L 576 205.714286 
L 576 195.428571 
z
" clip-path="url(#pbdbb571cf5)" style="fill: #ffffff"/>
   </g>
   <g id="patch_49">
    <path d="M 497.454545 246.857143 
Q 497.454545 257.142857 497.454545 257.142857 
L 576 257.142857 
L 576 246.857143 
z
" clip-path="url(#pbdbb571cf5)" style="fill: #ffffff"/>
   </g>
   <g id="patch_50">
    <path d="M 497.454545 277.714286 
Q 497.454545 288 497.454545 288 
L 576 288 
L 576 277.714286 
z
" clip-path="url(#pbdbb571cf5)" style="fill: #ffffff"/>
   </g>
   <g id="patch_51">
    <path d="M 523.636364 20.571429 
Q 497.454545 20.571429 497.454545 41.142857 
L 576 41.142857 
L 576 20.571429 
z
" clip-path="url(#pbdbb571cf5)" style="fill: #ffffff"/>
   </g>
   <g id="patch_52">
    <path d="M 497.454545 0 
Q 497.454545 20.571429 523.636364 20.571429 
L 576 20.571429 
L 576 0 
z
" clip-path="url(#pbdbb571cf5)" style="fill: #ffffff"/>
   </g>
   <g id="patch_53">
    <path d="M 523.636364 226.285714 
Q 497.454545 226.285714 497.454545 246.857143 
L 576 246.857143 
L 576 226.285714 
z
" clip-path="url(#pbdbb571cf5)" style="fill: #ffffff"/>
   </g>
   <g id="patch_54">
    <path d="M 497.454545 205.714286 
Q 497.454545 226.285714 523.636364 226.285714 
L 576 226.285714 
L 576 205.714286 
z
" clip-path="url(#pbdbb571cf5)" style="fill: #ffffff"/>
   </g>
   <g id="patch_55">
    <path d="M 510.545455 174.857143 
Q 510.545455 195.428571 510.545455 195.428571 
L 576 195.428571 
L 576 174.857143 
z
" clip-path="url(#pbdbb571cf5)" style="fill: #ffffff"/>
   </g>
   <g id="patch_56">
    <path d="M 523.636364 20.571429 
Q 549.818182 20.571429 549.818182 41.142857 
L 576 41.142857 
L 576 20.571429 
z
" clip-path="url(#pbdbb571cf5)" style="fill: #ffffff"/>
   </g>
   <g id="patch_57">
    <path d="M 549.818182 0 
Q 549.818182 20.571429 523.636364 20.571429 
L 576 20.571429 
L 576 0 
z
" clip-path="url(#pbdbb571cf5)" style="fill: #ffffff"/>
   </g>
   <g id="patch_58">
    <path d="M 523.636364 226.285714 
Q 549.818182 226.285714 549.818182 246.857143 
L 576 246.857143 
L 576 226.285714 
z
" clip-path="url(#pbdbb571cf5)" style="fill: #ffffff"/>
   </g>
   <g id="patch_59">
    <path d="M 549.818182 205.714286 
Q 549.818182 226.285714 523.636364 226.285714 
L 576 226.285714 
L 576 205.714286 
z
" clip-path="url(#pbdbb571cf5)" style="fill: #ffffff"/>
   </g>
   <g id="patch_60">
    <path d="M 549.818182 41.142857 
Q 549.818182 205.714286 549.818182 205.714286 
L 576 205.714286 
L 576 41.142857 
z
" clip-path="url(#pbdbb571cf5)" style="fill: #ffffff"/>
   </g>
   <g id="patch_61">
    <path d="M 549.818182 246.857143 
Q 549.818182 257.142857 549.818182 257.142857 
L 576 257.142857 
L 576 246.857143 
z
" clip-path="url(#pbdbb571cf5)" style="fill: #ffffff"/>
   </g>
   <g id="patch_62">
    <path d="M 549.818182 277.714286 
Q 549.818182 288 549.818182 288 
L 576 288 
L 576 277.714286 
z
" clip-path="url(#pbdbb571cf5)" style="fill: #ffffff"/>
   </g>
   <g id="patch_63">
    <path d="M 562.909091 257.142857 
Q 562.909091 277.714286 562.909091 277.714286 
L 576 277.714286 
L 576 257.142857 
z
" clip-path="url(#pbdbb571cf5)" style="fill: #ffffff"/>
   </g>
   <g id="patch_64">
    <path d="M 235.636364 61.714286 
C 235.636364 82.285714 288 82.285714 288 102.857143 
" clip-path="url(#pbdbb571cf5)" style="fill: none; stroke: #000000; stroke-linejoin: miter"/>
   </g>
   <g id="patch_65">
    <path d="M 288 61.714286 
C 288 82.285714 235.636364 82.285714 235.636364 102.857143 
" clip-path="url(#pbdbb571cf5)" style="fill: none; stroke: #000000; stroke-linejoin: miter"/>
   </g>
   <g id="patch_66">
    <path d="M 235.636364 144 
C 235.636364 164.571429 288 164.571429 288 185.142857 
" clip-path="url(#pbdbb571cf5)" style="fill: none; stroke: #000000; stroke-linejoin: miter"/>
   </g>
   <g id="patch_67">
    <path d="M 288 144 
C 288 164.571429 235.636364 164.571429 235.636364 185.142857 
" clip-path="url(#pbdbb571cf5)" style="fill: none; stroke: #000000; stroke-linejoin: miter"/>
   </g>
   <g id="patch_68">
    <path d="M 497.454545 0 
C 497.454545 20.571429 549.818182 20.571429 549.818182 41.142857 
" clip-path="url(#pbdbb571cf5)" style="fill: none; stroke: #000000; stroke-linejoin: miter"/>
   </g>
   <g id="patch_69">
    <path d="M 549.818182 0 
C 549.818182 20.571429 497.454545 20.571429 497.454545 41.142857 
" clip-path="url(#pbdbb571cf5)" style="fill: none; stroke: #000000; stroke-linejoin: miter"/>
   </g>
   <g id="patch_70">
    <path d="M 445.090909 41.142857 
C 445.090909 61.714286 497.454545 61.714286 497.454545 82.285714 
" clip-path="url(#pbdbb571cf5)" style="fill: none; stroke: #000000; stroke-linejoin: miter"/>
   </g>
   <g id="patch_71">
    <path d="M 497.454545 41.142857 
C 497.454545 61.714286 445.090909 61.714286 445.090909 82.285714 
" clip-path="url(#pbdbb571cf5)" style="fill: none; stroke: #000000; stroke-linejoin: miter"/>
   </g>
   <g id="patch_72">
    <path d="M 445.090909 123.428571 
C 445.090909 144 497.454545 144 497.454545 164.571429 
" clip-path="url(#pbdbb571cf5)" style="fill: none; stroke: #000000; stroke-linejoin: miter"/>
   </g>
   <g id="patch_73">
    <path d="M 497.454545 123.428571 
C 497.454545 144 445.090909 144 445.090909 164.571429 
" clip-path="url(#pbdbb571cf5)" style="fill: none; stroke: #000000; stroke-linejoin: miter"/>
   </g>
   <g id="patch_74">
    <path d="M 497.454545 205.714286 
C 497.454545 226.285714 549.818182 226.285714 549.818182 246.857143 
" clip-path="url(#pbdbb571cf5)" style="fill: none; stroke: #000000; stroke-linejoin: miter"/>
   </g>
   <g id="patch_75">
    <path d="M 549.818182 205.714286 
C 549.818182 226.285714 497.454545 226.285714 497.454545 246.857143 
" clip-path="url(#pbdbb571cf5)" style="fill: none; stroke: #000000; stroke-linejoin: miter"/>
   </g>
   <g id="patch_76">
    <path d="M 26.181818 0 
Q 26.181818 133.714286 26.181818 133.714286 
" clip-path="url(#pbdbb571cf5)" style="fill: none; stroke: #000000; stroke-linejoin: miter"/>
   </g>
   <g id="patch_77">
    <path d="M 78.545455 0 
Q 78.545455 133.714286 78.545455 133.714286 
" clip-path="url(#pbdbb571cf5)" style="fill: none; stroke: #000000; stroke-linejoin: miter"/>
   </g>
   <g id="patch_78">
    <path d="M 26.181818 154.285714 
Q 26.181818 288 26.181818 288 
" clip-path="url(#pbdbb571cf5)" style="fill: none; stroke: #000000; stroke-linejoin: miter"/>
   </g>
   <g id="patch_79">
    <path d="M 78.545455 154.285714 
Q 78.545455 288 78.545455 288 
" clip-path="url(#pbdbb571cf5)" style="fill: none; stroke: #000000; stroke-linejoin: miter"/>
   </g>
   <g id="patch_80">
    <path d="M 183.272727 0 
Q 183.272727 113.142857 183.272727 113.142857 
" clip-path="url(#pbdbb571cf5)" style="fill: none; stroke: #000000; stroke-linejoin: miter"/>
   </g>
   <g id="patch_81">
    <path d="M 235.636364 0 
Q 235.636364 61.714286 235.636364 61.714286 
" clip-path="url(#pbdbb571cf5)" style="fill: none; stroke: #000000; stroke-linejoin: miter"/>
   </g>
   <g id="patch_82">
    <path d="M 288 0 
Q 288 61.714286 288 61.714286 
" clip-path="url(#pbdbb571cf5)" style="fill: none; stroke: #000000; stroke-linejoin: miter"/>
   </g>
   <g id="patch_83">
    <path d="M 235.636364 102.857143 
Q 235.636364 113.142857 235.636364 113.142857 
" clip-path="url(#pbdbb571cf5)" style="fill: none; stroke: #000000; stroke-linejoin: miter"/>
   </g>
   <g id="patch_84">
    <path d="M 288 102.857143 
Q 288 144 288 144 
" clip-path="url(#pbdbb571cf5)" style="fill: none; stroke: #000000; stroke-linejoin: miter"/>
   </g>
   <g id="patch_85">
    <path d="M 183.272727 133.714286 
Q 183.272727 288 183.272727 288 
" clip-path="url(#pbdbb571cf5)" style="fill: none; stroke: #000000; stroke-linejoin: miter"/>
   </g>
   <g id="patch_86">
    <path d="M 235.636364 133.714286 
Q 235.636364 144 235.636364 144 
" clip-path="url(#pbdbb571cf5)" style="fill: none; stroke: #000000; stroke-linejoin: miter"/>
   </g>
   <g id="patch_87">
    <path d="M 235.636364 185.142857 
Q 235.636364 195.428571 235.636364 195.428571 
" clip-path="url(#pbdbb571cf5)" style="fill: none; stroke: #000000; stroke-linejoin: miter"/>
   </g>
   <g id="patch_88">
    <path d="M 288 185.142857 
Q 288 195.428571 288 195.428571 
" clip-path="url(#pbdbb571cf5)" style="fill: none; stroke: #000000; stroke-linejoin: miter"/>
   </g>
   <g id="patch_89">
    <path d="M 235.636364 216 
Q 235.636364 288 235.636364 288 
" clip-path="url(#pbdbb571cf5)" style="fill: none; stroke: #000000; stroke-linejoin: miter"/>
   </g>
   <g id="patch_90">
    <path d="M 288 216 
Q 288 288 288 288 
" clip-path="url(#pbdbb571cf5)" style="fill: none; stroke: #000000; stroke-linejoin: miter"/>
   </g>
   <g id="patch_91">
    <path d="M 392.727273 0 
Q 392.727273 92.571429 392.727273 92.571429 
" clip-path="url(#pbdbb571cf5)" style="fill: none; stroke: #000000; stroke-linejoin: miter"/>
   </g>
   <g id="patch_92">
    <path d="M 445.090909 0 
Q 445.090909 41.142857 445.090909 41.142857 
" clip-path="url(#pbdbb571cf5)" style="fill: none; stroke: #000000; stroke-linejoin: miter"/>
   </g>
   <g id="patch_93">
    <path d="M 549.818182 41.142857 
Q 549.818182 205.714286 549.818182 205.714286 
" clip-path="url(#pbdbb571cf5)" style="fill: none; stroke: #000000; stroke-linejoin: miter"/>
   </g>
   <g id="patch_94">
    <path d="M 445.090909 82.285714 
Q 445.090909 92.571429 445.090909 92.571429 
" clip-path="url(#pbdbb571cf5)" style="fill: none; stroke: #000000; stroke-linejoin: miter"/>
   </g>
   <g id="patch_95">
    <path d="M 497.454545 82.285714 
Q 497.454545 123.428571 497.454545 123.428571 
" clip-path="url(#pbdbb571cf5)" style="fill: none; stroke: #000000; stroke-linejoin: miter"/>
   </g>
   <g id="patch_96">
    <path d="M 392.727273 113.142857 
Q 392.727273 288 392.727273 288 
" clip-path="url(#pbdbb571cf5)" style="fill: none; stroke: #000000; stroke-linejoin: miter"/>
   </g>
   <g id="patch_97">
    <path d="M 445.090909 113.142857 
Q 445.090909 123.428571 445.090909 123.428571 
" clip-path="url(#pbdbb571cf5)" style="fill: none; stroke: #000000; stroke-linejoin: miter"/>
   </g>
   <g id="patch_98">
    <path d="M 445.090909 164.571429 
Q 445.090909 174.857143 445.090909 174.857143 
" clip-path="url(#pbdbb571cf5)" style="fill: none; stroke: #000000; stroke-linejoin: miter"/>
   </g>
   <g id="patch_99">
    <path d="M 497.454545 164.571429 
Q 497.454545 174.857143 497.454545 174.857143 
" clip-path="url(#pbdbb571cf5)" style="fill: none; stroke: #000000; stroke-linejoin: miter"/>
   </g>
   <g id="patch_100">
    <path d="M 445.090909 195.428571 
Q 445.090909 288 445.090909 288 
" clip-path="url(#pbdbb571cf5)" style="fill: none; stroke: #000000; stroke-linejoin: miter"/>
   </g>
   <g id="patch_101">
    <path d="M 497.454545 195.428571 
Q 497.454545 205.714286 497.454545 205.714286 
" clip-path="url(#pbdbb571cf5)" style="fill: none; stroke: #000000; stroke-linejoin: miter"/>
   </g>
   <g id="patch_102">
    <path d="M 497.454545 246.857143 
Q 497.454545 257.142857 497.454545 257.142857 
" clip-path="url(#pbdbb571cf5)" style="fill: none; stroke: #000000; stroke-linejoin: miter"/>
   </g>
   <g id="patch_103">
    <path d="M 549.818182 246.857143 
Q 549.818182 257.142857 549.818182 257.142857 
" clip-path="url(#pbdbb571cf5)" style="fill: none; stroke: #000000; stroke-linejoin: miter"/>
   </g>
   <g id="patch_104">
    <path d="M 497.454545 277.714286 
Q 497.454545 288 497.454545 288 
" clip-path="url(#pbdbb571cf5)" style="fill: none; stroke: #000000; stroke-linejoin: miter"/>
   </g>
   <g id="patch_105">
    <path d="M 549.818182 277.714286 
Q 549.818182 288 549.818182 288 
" clip-path="url(#pbdbb571cf5)" style="fill: none; stroke: #000000; stroke-linejoin: miter"/>
   </g>
   <g id="patch_106">
    <path d="M 13.090909 154.285714 
L 13.090909 133.714286 
L 91.636364 133.714286 
L 91.636364 154.285714 
z
" clip-path="url(#pbdbb571cf5)" style="fill: #ffffff; stroke: #000000; stroke-linejoin: miter"/>
   </g>
   <g id="patch_107">
    <path d="M 170.181818 133.714286 
L 170.181818 113.142857 
L 248.727273 113.142857 
L 248.727273 133.714286 
z
" clip-path="url(#pbdbb571cf5)" style="fill: #ffffff; stroke: #000000; stroke-linejoin: miter"/>
   </g>
   <g id="patch_108">
    <path d="M 222.545455 216 
L 222.545455 195.428571 
L 301.090909 195.428571 
L 301.090909 216 
z
" clip-path="url(#pbdbb571cf5)" style="fill: #ffffff; stroke: #000000; stroke-linejoin: miter"/>
   </g>
   <g id="patch_109">
    <path d="M 379.636364 113.142857 
L 379.636364 92.571429 
L 458.181818 92.571429 
L 458.181818 113.142857 
z
" clip-path="url(#pbdbb571cf5)" style="fill: #ffffff; stroke: #000000; stroke-linejoin: miter"/>
   </g>
   <g id="patch_110">
    <path d="M 432 195.428571 
L 432 174.857143 
L 510.545455 174.857143 
L 510.545455 195.428571 
z
" clip-path="url(#pbdbb571cf5)" style="fill: #ffffff; stroke: #000000; stroke-linejoin: miter"/>
   </g>
   <g id="patch_111">
    <path d="M 484.363636 277.714286 
L 484.363636 257.142857 
L 562.909091 257.142857 
L 562.909091 277.714286 
z
" clip-path="url(#pbdbb571cf5)" style="fill: #ffffff; stroke: #000000; stroke-linejoin: miter"/>
   </g>
   <g id="PathCollection_1">
    <defs>
     <path id="C0_0_01ec529ced" d="M 0 4.759202 
C 1.262155 4.759202 2.472785 4.257742 3.365264 3.365264 
C 4.257742 2.472785 4.759202 1.262155 4.759202 -0 
C 4.759202 -1.262155 4.257742 -2.472785 3.365264 -3.365264 
C 2.472785 -4.257742 1.262155 -4.759202 0 -4.759202 
C -1.262155 -4.759202 -2.472785 -4.257742 -3.365264 -3.365264 
C -4.257742 -2.472785 -4.759202 -1.262155 -4.759202 0 
C -4.759202 1.262155 -4.257742 2.472785 -3.365264 3.365264 
C -2.472785 4.257742 -1.262155 4.759202 0 4.759202 
z
"/>
    </defs>
    <g clip-path="url(#pbdbb571cf5)">
     <use xlink:href="#C0_0_01ec529ced" x="130.909091" y="144" style="fill: #ffffff; stroke: #ffffff"/>
    </g>
    <g clip-path="url(#pbdbb571cf5)">
     <use xlink:href="#C0_0_01ec529ced" x="340.363636" y="144" style="fill: #ffffff; stroke: #ffffff"/>
    </g>
   </g>
   <g id="text_1">
    <!-- x0 -->
    <g transform="translate(29.454545 10.169866) scale(0.1 -0.1)">
     <defs>
      <path id="DejaVuSans-78" d="M 3513 3500 
L 2247 1797 
L 3578 0 
L 2900 0 
L 1881 1375 
L 863 0 
L 184 0 
L 1544 1831 
L 300 3500 
L 978 3500 
L 1906 2253 
L 2834 3500 
L 3513 3500 
z
" transform="scale(0.015625)"/>
      <path id="DejaVuSans-30" d="M 2034 4250 
Q 1547 4250 1301 3770 
Q 1056 3291 1056 2328 
Q 1056 1369 1301 889 
Q 1547 409 2034 409 
Q 2525 409 2770 889 
Q 3016 1369 3016 2328 
Q 3016 3291 2770 3770 
Q 2525 4250 2034 4250 
z
M 2034 4750 
Q 2819 4750 3233 4129 
Q 3647 3509 3647 2328 
Q 3647 1150 3233 529 
Q 2819 -91 2034 -91 
Q 1250 -91 836 529 
Q 422 1150 422 2328 
Q 422 3509 836 4129 
Q 1250 4750 2034 4750 
z
" transform="scale(0.015625)"/>
     </defs>
     <use xlink:href="#DejaVuSans-78"/>
     <use xlink:href="#DejaVuSans-30" transform="translate(59.179688 0)"/>
    </g>
   </g>
   <g id="text_2">
    <!-- m0 -->
    <g transform="translate(81.818182 10.169866) scale(0.1 -0.1)">
     <defs>
      <path id="DejaVuSans-6d" d="M 3328 2828 
Q 3544 3216 3844 3400 
Q 4144 3584 4550 3584 
Q 5097 3584 5394 3201 
Q 5691 2819 5691 2113 
L 5691 0 
L 5113 0 
L 5113 2094 
Q 5113 2597 4934 2840 
Q 4756 3084 4391 3084 
Q 3944 3084 3684 2787 
Q 3425 2491 3425 1978 
L 3425 0 
L 2847 0 
L 2847 2094 
Q 2847 2600 2669 2842 
Q 2491 3084 2119 3084 
Q 1678 3084 1418 2786 
Q 1159 2488 1159 1978 
L 1159 0 
L 581 0 
L 581 3500 
L 1159 3500 
L 1159 2956 
Q 1356 3278 1631 3431 
Q 1906 3584 2284 3584 
Q 2666 3584 2933 3390 
Q 3200 3197 3328 2828 
z
" transform="scale(0.015625)"/>
     </defs>
     <use xlink:href="#DejaVuSans-6d"/>
     <use xlink:href="#DejaVuSans-30" transform="translate(97.412109 0)"/>
    </g>
   </g>
   <g id="text_3">
    <!-- y0 -->
    <g transform="translate(29.454545 164.45558) scale(0.1 -0.1)">
     <defs>
      <path id="DejaVuSans-79" d="M 2059 -325 
Q 1816 -950 1584 -1140 
Q 1353 -1331 966 -1331 
L 506 -1331 
L 506 -850 
L 844 -850 
Q 1081 -850 1212 -737 
Q 1344 -625 1503 -206 
L 1606 56 
L 191 3500 
L 800 3500 
L 1894 763 
L 2988 3500 
L 3597 3500 
L 2059 -325 
z
" transform="scale(0.015625)"/>
     </defs>
     <use xlink:href="#DejaVuSans-79"/>
     <use xlink:href="#DejaVuSans-30" transform="translate(59.179688 0)"/>
    </g>
   </g>
   <g id="text_4">
    <!-- m1 -->
    <g transform="translate(81.818182 164.45558) scale(0.1 -0.1)">
     <defs>
      <path id="DejaVuSans-31" d="M 794 531 
L 1825 531 
L 1825 4091 
L 703 3866 
L 703 4441 
L 1819 4666 
L 2450 4666 
L 2450 531 
L 3481 531 
L 3481 0 
L 794 0 
L 794 531 
z
" transform="scale(0.015625)"/>
     </defs>
     <use xlink:href="#DejaVuSans-6d"/>
     <use xlink:href="#DejaVuSans-31" transform="translate(97.412109 0)"/>
    </g>
   </g>
   <g id="text_5">
    <!-- x0 -->
    <g transform="translate(186.545455 10.169866) scale(0.1 -0.1)">
     <use xlink:href="#DejaVuSans-78"/>
     <use xlink:href="#DejaVuSans-30" transform="translate(59.179688 0)"/>
    </g>
   </g>
   <g id="text_6">
    <!-- x1 -->
    <g transform="translate(238.909091 10.169866) scale(0.1 -0.1)">
     <use xlink:href="#DejaVuSans-78"/>
     <use xlink:href="#DejaVuSans-31" transform="translate(59.179688 0)"/>
    </g>
   </g>
   <g id="text_7">
    <!-- m0 -->
    <g transform="translate(291.272727 10.169866) scale(0.1 -0.1)">
     <use xlink:href="#DejaVuSans-6d"/>
     <use xlink:href="#DejaVuSans-30" transform="translate(97.412109 0)"/>
    </g>
   </g>
   <g id="text_8">
    <!-- m0 -->
    <g transform="translate(238.909091 102.741295) scale(0.1 -0.1)">
     <use xlink:href="#DejaVuSans-6d"/>
     <use xlink:href="#DejaVuSans-30" transform="translate(97.412109 0)"/>
    </g>
   </g>
   <g id="text_9">
    <!-- x1 -->
    <g transform="translate(291.272727 102.741295) scale(0.1 -0.1)">
     <use xlink:href="#DejaVuSans-78"/>
     <use xlink:href="#DejaVuSans-31" transform="translate(59.179688 0)"/>
    </g>
   </g>
   <g id="text_10">
    <!-- y0 -->
    <g transform="translate(186.545455 143.884152) scale(0.1 -0.1)">
     <use xlink:href="#DejaVuSans-79"/>
     <use xlink:href="#DejaVuSans-30" transform="translate(59.179688 0)"/>
    </g>
   </g>
   <g id="text_11">
    <!-- m1 -->
    <g transform="translate(238.909091 143.884152) scale(0.1 -0.1)">
     <use xlink:href="#DejaVuSans-6d"/>
     <use xlink:href="#DejaVuSans-31" transform="translate(97.412109 0)"/>
    </g>
   </g>
   <g id="text_12">
    <!-- x1 -->
    <g transform="translate(238.909091 185.027009) scale(0.1 -0.1)">
     <use xlink:href="#DejaVuSans-78"/>
     <use xlink:href="#DejaVuSans-31" transform="translate(59.179688 0)"/>
    </g>
   </g>
   <g id="text_13">
    <!-- m1 -->
    <g transform="translate(291.272727 185.027009) scale(0.1 -0.1)">
     <use xlink:href="#DejaVuSans-6d"/>
     <use xlink:href="#DejaVuSans-31" transform="translate(97.412109 0)"/>
    </g>
   </g>
   <g id="text_14">
    <!-- y1 -->
    <g transform="translate(238.909091 226.169866) scale(0.1 -0.1)">
     <use xlink:href="#DejaVuSans-79"/>
     <use xlink:href="#DejaVuSans-31" transform="translate(59.179688 0)"/>
    </g>
   </g>
   <g id="text_15">
    <!-- m2 -->
    <g transform="translate(291.272727 226.169866) scale(0.1 -0.1)">
     <defs>
      <path id="DejaVuSans-32" d="M 1228 531 
L 3431 531 
L 3431 0 
L 469 0 
L 469 531 
Q 828 903 1448 1529 
Q 2069 2156 2228 2338 
Q 2531 2678 2651 2914 
Q 2772 3150 2772 3378 
Q 2772 3750 2511 3984 
Q 2250 4219 1831 4219 
Q 1534 4219 1204 4116 
Q 875 4013 500 3803 
L 500 4441 
Q 881 4594 1212 4672 
Q 1544 4750 1819 4750 
Q 2544 4750 2975 4387 
Q 3406 4025 3406 3419 
Q 3406 3131 3298 2873 
Q 3191 2616 2906 2266 
Q 2828 2175 2409 1742 
Q 1991 1309 1228 531 
z
" transform="scale(0.015625)"/>
     </defs>
     <use xlink:href="#DejaVuSans-6d"/>
     <use xlink:href="#DejaVuSans-32" transform="translate(97.412109 0)"/>
    </g>
   </g>
   <g id="text_16">
    <!-- x0 -->
    <g transform="translate(396 10.169866) scale(0.1 -0.1)">
     <use xlink:href="#DejaVuSans-78"/>
     <use xlink:href="#DejaVuSans-30" transform="translate(59.179688 0)"/>
    </g>
   </g>
   <g id="text_17">
    <!-- x1 -->
    <g transform="translate(448.363636 10.169866) scale(0.1 -0.1)">
     <use xlink:href="#DejaVuSans-78"/>
     <use xlink:href="#DejaVuSans-31" transform="translate(59.179688 0)"/>
    </g>
   </g>
   <g id="text_18">
    <!-- x2 -->
    <g transform="translate(500.727273 10.169866) scale(0.1 -0.1)">
     <use xlink:href="#DejaVuSans-78"/>
     <use xlink:href="#DejaVuSans-32" transform="translate(59.179688 0)"/>
    </g>
   </g>
   <g id="text_19">
    <!-- m0 -->
    <g transform="translate(553.090909 10.169866) scale(0.1 -0.1)">
     <use xlink:href="#DejaVuSans-6d"/>
     <use xlink:href="#DejaVuSans-30" transform="translate(97.412109 0)"/>
    </g>
   </g>
   <g id="text_20">
    <!-- m0 -->
    <g transform="translate(500.727273 41.027009) scale(0.1 -0.1)">
     <use xlink:href="#DejaVuSans-6d"/>
     <use xlink:href="#DejaVuSans-30" transform="translate(97.412109 0)"/>
    </g>
   </g>
   <g id="text_21">
    <!-- x2 -->
    <g transform="translate(553.090909 41.027009) scale(0.1 -0.1)">
     <use xlink:href="#DejaVuSans-78"/>
     <use xlink:href="#DejaVuSans-32" transform="translate(59.179688 0)"/>
    </g>
   </g>
   <g id="text_22">
    <!-- m0 -->
    <g transform="translate(448.363636 82.169866) scale(0.1 -0.1)">
     <use xlink:href="#DejaVuSans-6d"/>
     <use xlink:href="#DejaVuSans-30" transform="translate(97.412109 0)"/>
    </g>
   </g>
   <g id="text_23">
    <!-- x1 -->
    <g transform="translate(500.727273 82.169866) scale(0.1 -0.1)">
     <use xlink:href="#DejaVuSans-78"/>
     <use xlink:href="#DejaVuSans-31" transform="translate(59.179688 0)"/>
    </g>
   </g>
   <g id="text_24">
    <!-- y0 -->
    <g transform="translate(396 123.312723) scale(0.1 -0.1)">
     <use xlink:href="#DejaVuSans-79"/>
     <use xlink:href="#DejaVuSans-30" transform="translate(59.179688 0)"/>
    </g>
   </g>
   <g id="text_25">
    <!-- m1 -->
    <g transform="translate(448.363636 123.312723) scale(0.1 -0.1)">
     <use xlink:href="#DejaVuSans-6d"/>
     <use xlink:href="#DejaVuSans-31" transform="translate(97.412109 0)"/>
    </g>
   </g>
   <g id="text_26">
    <!-- x1 -->
    <g transform="translate(448.363636 164.45558) scale(0.1 -0.1)">
     <use xlink:href="#DejaVuSans-78"/>
     <use xlink:href="#DejaVuSans-31" transform="translate(59.179688 0)"/>
    </g>
   </g>
   <g id="text_27">
    <!-- m1 -->
    <g transform="translate(500.727273 164.45558) scale(0.1 -0.1)">
     <use xlink:href="#DejaVuSans-6d"/>
     <use xlink:href="#DejaVuSans-31" transform="translate(97.412109 0)"/>
    </g>
   </g>
   <g id="text_28">
    <!-- y1 -->
    <g transform="translate(448.363636 205.598438) scale(0.1 -0.1)">
     <use xlink:href="#DejaVuSans-79"/>
     <use xlink:href="#DejaVuSans-31" transform="translate(59.179688 0)"/>
    </g>
   </g>
   <g id="text_29">
    <!-- m2 -->
    <g transform="translate(500.727273 205.598438) scale(0.1 -0.1)">
     <use xlink:href="#DejaVuSans-6d"/>
     <use xlink:href="#DejaVuSans-32" transform="translate(97.412109 0)"/>
    </g>
   </g>
   <g id="text_30">
    <!-- x2 -->
    <g transform="translate(500.727273 246.741295) scale(0.1 -0.1)">
     <use xlink:href="#DejaVuSans-78"/>
     <use xlink:href="#DejaVuSans-32" transform="translate(59.179688 0)"/>
    </g>
   </g>
   <g id="text_31">
    <!-- m2 -->
    <g transform="translate(553.090909 246.741295) scale(0.1 -0.1)">
     <use xlink:href="#DejaVuSans-6d"/>
     <use xlink:href="#DejaVuSans-32" transform="translate(97.412109 0)"/>
    </g>
   </g>
   <g id="text_32">
    <!-- y2 -->
    <g transform="translate(500.727273 287.884152) scale(0.1 -0.1)">
     <use xlink:href="#DejaVuSans-79"/>
     <use xlink:href="#DejaVuSans-32" transform="translate(59.179688 0)"/>
    </g>
   </g>
   <g id="text_33">
    <!-- m3 -->
    <g transform="translate(553.090909 287.884152) scale(0.1 -0.1)">
     <defs>
      <path id="DejaVuSans-33" d="M 2597 2516 
Q 3050 2419 3304 2112 
Q 3559 1806 3559 1356 
Q 3559 666 3084 287 
Q 2609 -91 1734 -91 
Q 1441 -91 1130 -33 
Q 819 25 488 141 
L 488 750 
Q 750 597 1062 519 
Q 1375 441 1716 441 
Q 2309 441 2620 675 
Q 2931 909 2931 1356 
Q 2931 1769 2642 2001 
Q 2353 2234 1838 2234 
L 1294 2234 
L 1294 2753 
L 1863 2753 
Q 2328 2753 2575 2939 
Q 2822 3125 2822 3475 
Q 2822 3834 2567 4026 
Q 2313 4219 1838 4219 
Q 1578 4219 1281 4162 
Q 984 4106 628 3988 
L 628 4550 
Q 988 4650 1302 4700 
Q 1616 4750 1894 4750 
Q 2613 4750 3031 4423 
Q 3450 4097 3450 3541 
Q 3450 3153 3228 2886 
Q 3006 2619 2597 2516 
z
" transform="scale(0.015625)"/>
     </defs>
     <use xlink:href="#DejaVuSans-6d"/>
     <use xlink:href="#DejaVuSans-33" transform="translate(97.412109 0)"/>
    </g>
   </g>
   <g id="text_34">
    <!-- f0 -->
    <g transform="translate(47.42223 146.759375) scale(0.1 -0.1)">
     <defs>
      <path id="DejaVuSans-66" d="M 2375 4863 
L 2375 4384 
L 1825 4384 
Q 1516 4384 1395 4259 
Q 1275 4134 1275 3809 
L 1275 3500 
L 2222 3500 
L 2222 3053 
L 1275 3053 
L 1275 0 
L 697 0 
L 697 3053 
L 147 3053 
L 147 3500 
L 697 3500 
L 697 3744 
Q 697 4328 969 4595 
Q 1241 4863 1831 4863 
L 2375 4863 
z
" transform="scale(0.015625)"/>
     </defs>
     <use xlink:href="#DejaVuSans-66"/>
     <use xlink:href="#DejaVuSans-30" transform="translate(35.205078 0)"/>
    </g>
   </g>
   <g id="text_35">
    <!-- f0 -->
    <g transform="translate(204.513139 126.187946) scale(0.1 -0.1)">
     <use xlink:href="#DejaVuSans-66"/>
     <use xlink:href="#DejaVuSans-30" transform="translate(35.205078 0)"/>
    </g>
   </g>
   <g id="text_36">
    <!-- f1 -->
    <g transform="translate(256.876776 208.473661) scale(0.1 -0.1)">
     <use xlink:href="#DejaVuSans-66"/>
     <use xlink:href="#DejaVuSans-31" transform="translate(35.205078 0)"/>
    </g>
   </g>
   <g id="text_37">
    <!-- f0 -->
    <g transform="translate(413.967685 105.616518) scale(0.1 -0.1)">
     <use xlink:href="#DejaVuSans-66"/>
     <use xlink:href="#DejaVuSans-30" transform="translate(35.205078 0)"/>
    </g>
   </g>
   <g id="text_38">
    <!-- f1 -->
    <g transform="translate(466.331321 187.902232) scale(0.1 -0.1)">
     <use xlink:href="#DejaVuSans-66"/>
     <use xlink:href="#DejaVuSans-31" transform="translate(35.205078 0)"/>
    </g>
   </g>
   <g id="text_39">
    <!-- f2 -->
    <g transform="translate(518.694957 270.187946) scale(0.1 -0.1)">
     <use xlink:href="#DejaVuSans-66"/>
     <use xlink:href="#DejaVuSans-32" transform="translate(35.205078 0)"/>
    </g>
   </g>
   <g id="text_40">
    <g clip-path="url(#pbdbb571cf5)">
     <!-- , -->
     <g transform="translate(129.002216 147.31125) scale(0.12 -0.12)">
      <defs>
       <path id="DejaVuSans-2c" d="M 750 794 
L 1409 794 
L 1409 256 
L 897 -744 
L 494 -744 
L 750 256 
L 750 794 
z
" transform="scale(0.015625)"/>
      </defs>
      <use xlink:href="#DejaVuSans-2c"/>
     </g>
    </g>
   </g>
   <g id="text_41">
    <g clip-path="url(#pbdbb571cf5)">
     <!-- , -->
     <g transform="translate(338.456761 147.31125) scale(0.12 -0.12)">
      <use xlink:href="#DejaVuSans-2c"/>
     </g>
    </g>
   </g>
  </g>
 </g>
 <defs>
  <clipPath id="pbdbb571cf5">
   <rect x="0" y="0" width="576" height="288"/>
  </clipPath>
 </defs>
</svg>
