<?xml version="1.0" encoding="utf-8" standalone="no"?>
<!DOCTYPE svg PUBLIC "-//W3C//DTD SVG 1.1//EN"
  "http://www.w3.org/Graphics/SVG/1.1/DTD/svg11.dtd">
<svg xmlns:xlink="http://www.w3.org/1999/xlink" width="504pt" height="144pt" viewBox="0 0 504 144" xmlns="http://www.w3.org/2000/svg" version="1.1">
 <metadata>
  <rdf:RDF xmlns:dc="http://purl.org/dc/elements/1.1/" xmlns:cc="http://creativecommons.org/ns#" xmlns:rdf="http://www.w3.org/1999/02/22-rdf-syntax-ns#">
   <cc:Work>
    <dc:type rdf:resource="http://purl.org/dc/dcmitype/StillImage"/>
    <dc:format>image/svg+xml</dc:format>
    <dc:creator>
     <cc:Agent>
      <dc:title>Matplotlib v3.10.9, https://matplotlib.org/</dc:title>
     </cc:Agent>
    </dc:creator>
   </cc:Work>
  </rdf:RDF>
 </metadata>
 <defs>
  <style type="text/css">*{stroke-linejoin: round; stroke-linecap: butt}</style>
 </defs>
 <g id="figure_1">
  <g id="patch_1">
   <path d="M 0 144 
L 504 144 
L 504 0 
L 0 0 
z
" style="fill: #ffffff"/>
  </g>
  <g id="axes_1">
   <g id="patch_2">
    <path d="M 0 144 
L 504 144 
L 504 0 
L 0 0 
z
" clip-path="url(#pc54e416c2c)" style="fill: #ffffff; stroke: #ffffff; stroke-linejoin: miter"/>
   </g>
   <g id="patch_3">
    <path d="M 0 144 
Q 0 0 0 0 
L 504 0 
L 504 144 
z
" clip-path="url(#pc54e416c2c)" style="fill: #ffffff"/>
   </g>
   <g id="patch_4">
    <path d="M 36 0 
Q 36 90 36 90 
L 504 90 
L 504 0 
z
" clip-path="url(#pc54e416c2c)" style="fill: #ffffff"/>
   </g>
   <g id="patch_5">
    <path d="M 72 126 
Q 72 144 72 144 
L 504 144 
L 504 126 
z
" clip-path="url(#pc54e416c2c)" style="fill: #ffffff"/>
   </g>
   <g id="patch_6">
    <path d="M 108 72 
Q 108 90 108 90 
L 504 90 
L 504 72 
z
" clip-path="url(#pc54e416c2c)" style="fill: #ffffff"/>
   </g>
   <g id="patch_7">
    <path d="M 144 36 
Q 108 36 108 72 
L 504 72 
L 504 36 
z
" clip-path="url(#pc54e416c2c)" style="fill: #ffffff"/>
   </g>
   <g id="patch_8">
    <path d="M 126 90 
Q 126 126 126 126 
L 504 126 
L 504 90 
z
" clip-path="url(#pc54e416c2c)" style="fill: #ffffff"/>
   </g>
   <g id="patch_9">
    <path d="M 144 36 
Q 180 36 180 72 
L 504 72 
L 504 36 
z
" clip-path="url(#pc54e416c2c)" style="fill: #ffffff"/>
   </g>
   <g id="patch_10">
    <path d="M 180 72 
Q 180 144 180 144 
L 504 144 
L 504 72 
z
" clip-path="url(#pc54e416c2c)" style="fill: #ffffff"/>
   </g>
   <g id="patch_11">
    <path d="M 324 54 
Q 324 144 324 144 
L 504 144 
L 504 54 
z
" clip-path="url(#pc54e416c2c)" style="fill: #ffffff"/>
   </g>
   <g id="patch_12">
    <path d="M 360 0 
Q 360 18 360 18 
L 504 18 
L 504 0 
z
" clip-path="url(#pc54e416c2c)" style="fill: #ffffff"/>
   </g>
   <g id="patch_13">
    <path d="M 396 54 
Q 396 72 396 72 
L 504 72 
L 504 54 
z
" clip-path="url(#pc54e416c2c)" style="fill: #ffffff"/>
   </g>
   <g id="patch_14">
    <path d="M 396 72 
Q 396 108 432 108 
L 504 108 
L 504 72 
z
" clip-path="url(#pc54e416c2c)" style="fill: #ffffff"/>
   </g>
   <g id="patch_15">
    <path d="M 414 18 
Q 414 54 414 54 
L 504 54 
L 504 18 
z
" clip-path="url(#pc54e416c2c)" style="fill: #ffffff"/>
   </g>
   <g id="patch_16">
    <path d="M 468 72 
Q 468 108 432 108 
L 504 108 
L 504 72 
z
" clip-path="url(#pc54e416c2c)" style="fill: #ffffff"/>
   </g>
   <g id="patch_17">
    <path d="M 468 0 
Q 468 72 468 72 
L 504 72 
L 504 0 
z
" clip-path="url(#pc54e416c2c)" style="fill: #ffffff"/>
   </g>
   <g id="patch_18">
    <path d="M 36 0 
Q 36 90 36 90 
" clip-path="url(#pc54e416c2c)" style="fill: none; stroke: #000000; stroke-linejoin: miter"/>
   </g>
   <g id="patch_19">
    <path d="M 144 36 
Q 108 36 108 72 
" clip-path="url(#pc54e416c2c)" style="fill: none; stroke: #000000; stroke-linejoin: miter"/>
   </g>
   <g id="patch_20">
    <path d="M 144 36 
Q 180 36 180 72 
" clip-path="url(#pc54e416c2c)" style="fill: none; stroke: #000000; stroke-linejoin: miter"/>
   </g>
   <g id="patch_21">
    <path d="M 108 72 
Q 108 90 108 90 
" clip-path="url(#pc54e416c2c)" style="fill: none; stroke: #000000; stroke-linejoin: miter"/>
   </g>
   <g id="patch_22">
    <path d="M 180 72 
Q 180 144 180 144 
" clip-path="url(#pc54e416c2c)" style="fill: none; stroke: #000000; stroke-linejoin: miter"/>
   </g>
   <g id="patch_23">
    <path d="M 72 126 
Q 72 144 72 144 
" clip-path="url(#pc54e416c2c)" style="fill: none; stroke: #000000; stroke-linejoin: miter"/>
   </g>
   <g id="patch_24">
    <path d="M 360 0 
Q 360 18 360 18 
" clip-path="url(#pc54e416c2c)" style="fill: none; stroke: #000000; stroke-linejoin: miter"/>
   </g>
   <g id="patch_25">
    <path d="M 324 54 
Q 324 144 324 144 
" clip-path="url(#pc54e416c2c)" style="fill: none; stroke: #000000; stroke-linejoin: miter"/>
   </g>
   <g id="patch_26">
    <path d="M 396 54 
Q 396 72 396 72 
" clip-path="url(#pc54e416c2c)" style="fill: none; stroke: #000000; stroke-linejoin: miter"/>
   </g>
   <g id="patch_27">
    <path d="M 468 0 
Q 468 72 468 72 
" clip-path="url(#pc54e416c2c)" style="fill: none; stroke: #000000; stroke-linejoin: miter"/>
   </g>
   <g id="patch_28">
    <path d="M 396 72 
Q 396 108 432 108 
" clip-path="url(#pc54e416c2c)" style="fill: none; stroke: #000000; stroke-linejoin: miter"/>
   </g>
   <g id="patch_29">
    <path d="M 468 72 
Q 468 108 432 108 
" clip-path="url(#pc54e416c2c)" style="fill: none; stroke: #000000; stroke-linejoin: miter"/>
   </g>
   <g id="patch_30">
    <path d="M 18 126 
L 18 90 
L 126 90 
L 133.2 126 
z
" clip-path="url(#pc54e416c2c)" style="fill: #ffffff; stroke: #000000; stroke-linejoin: miter"/>
   </g>
   <g id="patch_31">
    <path d="M 306 54 
L 306 18 
L 421.2 18 
L 414 54 
z
" clip-path="url(#pc54e416c2c)" style="fill: #ffffff; stroke: #000000; stroke-linejoin: miter"/>
   </g>
   <g id="PathCollection_1">
    <defs>
     <path id="mdff8cb2796" d="M 0 5.324472 
C 1.412066 5.324472 2.766488 4.763452 3.76497 3.76497 
C 4.763452 2.766488 5.324472 1.412066 5.324472 0 
C 5.324472 -1.412066 4.763452 -2.766488 3.76497 -3.76497 
C 2.766488 -4.763452 1.412066 -5.324472 0 -5.324472 
C -1.412066 -5.324472 -2.766488 -4.763452 -3.76497 -3.76497 
C -4.763452 -2.766488 -5.324472 -1.412066 -5.324472 0 
C -5.324472 1.412066 -4.763452 2.766488 -3.76497 3.76497 
C -2.766488 4.763452 -1.412066 5.324472 0 5.324472 
z
" style="stroke: #ffffff"/>
    </defs>
    <g clip-path="url(#pc54e416c2c)">
     <use xlink:href="#mdff8cb2796" x="252" y="72" style="fill: #ffffff; stroke: #ffffff"/>
    </g>
   </g>
   <g id="text_1">
    <!-- x -->
    <g transform="translate(40.5 12.098437) scale(0.1 -0.1)">
     <defs>
      <path id="DejaVuSans-78" d="M 3513 3500 
L 2247 1797 
L 3578 0 
L 2900 0 
L 1881 1375 
L 863 0 
L 184 0 
L 1544 1831 
L 300 3500 
L 978 3500 
L 1906 2253 
L 2834 3500 
L 3513 3500 
z
" transform="scale(0.015625)"/>
     </defs>
     <use xlink:href="#DejaVuSans-78"/>
    </g>
   </g>
   <g id="text_2">
    <!-- y -->
    <g transform="translate(112.5 66.098438) scale(0.1 -0.1)">
     <defs>
      <path id="DejaVuSans-79" d="M 2059 -325 
Q 1816 -950 1584 -1140 
Q 1353 -1331 966 -1331 
L 506 -1331 
L 506 -850 
L 844 -850 
Q 1081 -850 1212 -737 
Q 1344 -625 1503 -206 
L 1606 56 
L 191 3500 
L 800 3500 
L 1894 763 
L 2988 3500 
L 3597 3500 
L 2059 -325 
z
" transform="scale(0.015625)"/>
     </defs>
     <use xlink:href="#DejaVuSans-79"/>
    </g>
   </g>
   <g id="text_3">
    <!-- y.r -->
    <g transform="translate(184.5 66.098438) scale(0.1 -0.1)">
     <defs>
      <path id="DejaVuSans-2e" d="M 684 794 
L 1344 794 
L 1344 0 
L 684 0 
L 684 794 
z
" transform="scale(0.015625)"/>
      <path id="DejaVuSans-72" d="M 2631 2963 
Q 2534 3019 2420 3045 
Q 2306 3072 2169 3072 
Q 1681 3072 1420 2755 
Q 1159 2438 1159 1844 
L 1159 0 
L 581 0 
L 581 3500 
L 1159 3500 
L 1159 2956 
Q 1341 3275 1631 3429 
Q 1922 3584 2338 3584 
Q 2397 3584 2469 3576 
Q 2541 3569 2628 3553 
L 2631 2963 
z
" transform="scale(0.015625)"/>
     </defs>
     <use xlink:href="#DejaVuSans-79"/>
     <use xlink:href="#DejaVuSans-2e" transform="translate(44.929688 0)"/>
     <use xlink:href="#DejaVuSans-72" transform="translate(76.716797 0)"/>
    </g>
   </g>
   <g id="text_4">
    <!-- z -->
    <g transform="translate(76.5 138.098437) scale(0.1 -0.1)">
     <defs>
      <path id="DejaVuSans-7a" d="M 353 3500 
L 3084 3500 
L 3084 2975 
L 922 459 
L 3084 459 
L 3084 0 
L 275 0 
L 275 525 
L 2438 3041 
L 353 3041 
L 353 3500 
z
" transform="scale(0.015625)"/>
     </defs>
     <use xlink:href="#DejaVuSans-7a"/>
    </g>
   </g>
   <g id="text_5">
    <!-- z -->
    <g transform="translate(364.5 12.098437) scale(0.1 -0.1)">
     <use xlink:href="#DejaVuSans-7a"/>
    </g>
   </g>
   <g id="text_6">
    <!-- x -->
    <g transform="translate(328.5 66.098438) scale(0.1 -0.1)">
     <use xlink:href="#DejaVuSans-78"/>
    </g>
   </g>
   <g id="text_7">
    <!-- y -->
    <g transform="translate(400.5 66.098438) scale(0.1 -0.1)">
     <use xlink:href="#DejaVuSans-79"/>
    </g>
   </g>
   <g id="text_8">
    <!-- y.r -->
    <g transform="translate(472.5 12.098437) scale(0.1 -0.1)">
     <use xlink:href="#DejaVuSans-79"/>
     <use xlink:href="#DejaVuSans-2e" transform="translate(44.929688 0)"/>
     <use xlink:href="#DejaVuSans-72" transform="translate(76.716797 0)"/>
    </g>
   </g>
   <g id="text_9">
    <!-- f -->
    <g transform="translate(70.239844 110.759375) scale(0.1 -0.1)">
     <defs>
      <path id="DejaVuSans-66" d="M 2375 4863 
L 2375 4384 
L 1825 4384 
Q 1516 4384 1395 4259 
Q 1275 4134 1275 3809 
L 1275 3500 
L 2222 3500 
L 2222 3053 
L 1275 3053 
L 1275 0 
L 697 0 
L 697 3053 
L 147 3053 
L 147 3500 
L 697 3500 
L 697 3744 
Q 697 4328 969 4595 
Q 1241 4863 1831 4863 
L 2375 4863 
z
" transform="scale(0.015625)"/>
     </defs>
     <use xlink:href="#DejaVuSans-66"/>
    </g>
   </g>
   <g id="text_10">
    <!-- f -->
    <g transform="translate(358.239844 38.759375) scale(0.1 -0.1)">
     <use xlink:href="#DejaVuSans-66"/>
    </g>
   </g>
   <g id="text_11">
    <g clip-path="url(#pc54e416c2c)">
     <!-- $\mapsto$ -->
     <g transform="translate(244.62 75.31125) scale(0.12 -0.12)">
      <defs>
       <path id="DejaVuSans-21a6" d="M 4175 1741 
L 897 1741 
L 897 663 
L 366 663 
L 366 3350 
L 897 3350 
L 897 2272 
L 4175 2272 
L 3447 3000 
L 3822 3375 
L 5050 2147 
L 5050 1866 
L 3822 638 
L 3447 1013 
L 4175 1741 
z
" transform="scale(0.015625)"/>
      </defs>
      <use xlink:href="#DejaVuSans-21a6" transform="translate(19.482422 0.265625)"/>
     </g>
    </g>
   </g>
  </g>
 </g>
 <defs>
  <clipPath id="pc54e416c2c">
   <rect x="0" y="0" width="504" height="144"/>
  </clipPath>
 </defs>
</svg>
