<?xml version="1.0" encoding="utf-8" standalone="no"?>
<!DOCTYPE svg PUBLIC "-//W3C//DTD SVG 1.1//EN"
  "http://www.w3.org/Graphics/SVG/1.1/DTD/svg11.dtd">
<svg xmlns:xlink="http://www.w3.org/1999/xlink" width="216pt" height="72pt" viewBox="0 0 216 72" xmlns="http://www.w3.org/2000/svg" version="1.1">
 <metadata>
  <rdf:RDF xmlns:dc="http://purl.org/dc/elements/1.1/" xmlns:cc="http://creativecommons.org/ns#" xmlns:rdf="http://www.w3.org/1999/02/22-rdf-syntax-ns#">
   <cc:Work>
    <dc:type rdf:resource="http://purl.org/dc/dcmitype/StillImage"/>
    <dc:format>image/svg+xml</dc:format>
    <dc:creator>
     <cc:Agent>
      <dc:title>Matplotlib v3.10.9, https://matplotlib.org/</dc:title>
     </cc:Agent>
    </dc:creator>
   </cc:Work>
  </rdf:RDF>
 </metadata>
 <defs>
  <style type="text/css">*{stroke-linejoin: round; stroke-linecap: butt}</style>
 </defs>
 <g id="figure_1">
  <g id="patch_1">
   <path d="M 0 72 
L 216 72 
L 216 0 
L 0 0 
z
" style="fill: #ffffff"/>
  </g>
  <g id="axes_1">
   <g id="patch_2">
    <path d="M 40.5 68.727273 
L 175.5 68.727273 
L 175.5 3.272727 
L 40.5 3.272727 
z
" clip-path="url(#pb50c65d36c)" style="fill: #ffffff; stroke: #ffffff; stroke-linejoin: miter"/>
   </g>
   <g id="patch_3">
    <path d="M 40.5 68.727273 
Q 40.5 3.272727 40.5 3.272727 
L 175.5 3.272727 
L 175.5 68.727273 
z
" clip-path="url(#pb50c65d36c)" style="fill: #ffffff"/>
   </g>
   <g id="patch_4">
    <path d="M 57.375 3.272727 
Q 57.375 36 57.375 36 
L 175.5 36 
L 175.5 3.272727 
z
" clip-path="url(#pb50c65d36c)" style="fill: #ffffff"/>
   </g>
   <g id="patch_5">
    <path d="M 57.375 36 
Q 57.375 52.363636 108 52.363636 
L 175.5 52.363636 
L 175.5 36 
z
" clip-path="url(#pb50c65d36c)" style="fill: #ffffff"/>
   </g>
   <g id="patch_6">
    <path d="M 91.125 3.272727 
Q 91.125 19.636364 108 19.636364 
L 175.5 19.636364 
L 175.5 3.272727 
z
" clip-path="url(#pb50c65d36c)" style="fill: #ffffff"/>
   </g>
   <g id="patch_7">
    <path d="M 124.875 3.272727 
Q 124.875 19.636364 108 19.636364 
L 175.5 19.636364 
L 175.5 3.272727 
z
" clip-path="url(#pb50c65d36c)" style="fill: #ffffff"/>
   </g>
   <g id="patch_8">
    <path d="M 158.625 36 
Q 158.625 52.363636 108 52.363636 
L 175.5 52.363636 
L 175.5 36 
z
" clip-path="url(#pb50c65d36c)" style="fill: #ffffff"/>
   </g>
   <g id="patch_9">
    <path d="M 158.625 3.272727 
Q 158.625 36 158.625 36 
L 175.5 36 
L 175.5 3.272727 
z
" clip-path="url(#pb50c65d36c)" style="fill: #ffffff"/>
   </g>
   <g id="patch_10">
    <path d="M 57.375 3.272727 
Q 57.375 36 57.375 36 
" clip-path="url(#pb50c65d36c)" style="fill: none; stroke: #000000; stroke-linejoin: miter"/>
   </g>
   <g id="patch_11">
    <path d="M 91.125 3.272727 
Q 91.125 19.636364 108 19.636364 
" clip-path="url(#pb50c65d36c)" style="fill: none; stroke: #000000; stroke-linejoin: miter"/>
   </g>
   <g id="patch_12">
    <path d="M 124.875 3.272727 
Q 124.875 19.636364 108 19.636364 
" clip-path="url(#pb50c65d36c)" style="fill: none; stroke: #000000; stroke-linejoin: miter"/>
   </g>
   <g id="patch_13">
    <path d="M 158.625 3.272727 
Q 158.625 36 158.625 36 
" clip-path="url(#pb50c65d36c)" style="fill: none; stroke: #000000; stroke-linejoin: miter"/>
   </g>
   <g id="patch_14">
    <path d="M 57.375 36 
Q 57.375 52.363636 108 52.363636 
" clip-path="url(#pb50c65d36c)" style="fill: none; stroke: #000000; stroke-linejoin: miter"/>
   </g>
   <g id="patch_15">
    <path d="M 158.625 36 
Q 158.625 52.363636 108 52.363636 
" clip-path="url(#pb50c65d36c)" style="fill: none; stroke: #000000; stroke-linejoin: miter"/>
   </g>
   <g id="text_1">
    <!-- a.l -->
    <g transform="translate(59.484375 12.916619) scale(0.1 -0.1)">
     <defs>
      <path id="DejaVuSans-61" d="M 2194 1759 
Q 1497 1759 1228 1600 
Q 959 1441 959 1056 
Q 959 750 1161 570 
Q 1363 391 1709 391 
Q 2188 391 2477 730 
Q 2766 1069 2766 1631 
L 2766 1759 
L 2194 1759 
z
M 3341 1997 
L 3341 0 
L 2766 0 
L 2766 531 
Q 2569 213 2275 61 
Q 1981 -91 1556 -91 
Q 1019 -91 701 211 
Q 384 513 384 1019 
Q 384 1609 779 1909 
Q 1175 2209 1959 2209 
L 2766 2209 
L 2766 2266 
Q 2766 2663 2505 2880 
Q 2244 3097 1772 3097 
Q 1472 3097 1187 3025 
Q 903 2953 641 2809 
L 641 3341 
Q 956 3463 1253 3523 
Q 1550 3584 1831 3584 
Q 2591 3584 2966 3190 
Q 3341 2797 3341 1997 
z
" transform="scale(0.015625)"/>
      <path id="DejaVuSans-2e" d="M 684 794 
L 1344 794 
L 1344 0 
L 684 0 
L 684 794 
z
" transform="scale(0.015625)"/>
      <path id="DejaVuSans-6c" d="M 603 4863 
L 1178 4863 
L 1178 0 
L 603 0 
L 603 4863 
z
" transform="scale(0.015625)"/>
     </defs>
     <use xlink:href="#DejaVuSans-61"/>
     <use xlink:href="#DejaVuSans-2e" transform="translate(61.279297 0)"/>
     <use xlink:href="#DejaVuSans-6c" transform="translate(93.066406 0)"/>
    </g>
   </g>
   <g id="text_2">
    <!-- b -->
    <g transform="translate(93.234375 12.916619) scale(0.1 -0.1)">
     <defs>
      <path id="DejaVuSans-62" d="M 3116 1747 
Q 3116 2381 2855 2742 
Q 2594 3103 2138 3103 
Q 1681 3103 1420 2742 
Q 1159 2381 1159 1747 
Q 1159 1113 1420 752 
Q 1681 391 2138 391 
Q 2594 391 2855 752 
Q 3116 1113 3116 1747 
z
M 1159 2969 
Q 1341 3281 1617 3432 
Q 1894 3584 2278 3584 
Q 2916 3584 3314 3078 
Q 3713 2572 3713 1747 
Q 3713 922 3314 415 
Q 2916 -91 2278 -91 
Q 1894 -91 1617 61 
Q 1341 213 1159 525 
L 1159 0 
L 581 0 
L 581 4863 
L 1159 4863 
L 1159 2969 
z
" transform="scale(0.015625)"/>
     </defs>
     <use xlink:href="#DejaVuSans-62"/>
    </g>
   </g>
   <g id="text_3">
    <!-- b.r -->
    <g transform="translate(126.984375 12.916619) scale(0.1 -0.1)">
     <defs>
      <path id="DejaVuSans-72" d="M 2631 2963 
Q 2534 3019 2420 3045 
Q 2306 3072 2169 3072 
Q 1681 3072 1420 2755 
Q 1159 2438 1159 1844 
L 1159 0 
L 581 0 
L 581 3500 
L 1159 3500 
L 1159 2956 
Q 1341 3275 1631 3429 
Q 1922 3584 2338 3584 
Q 2397 3584 2469 3576 
Q 2541 3569 2628 3553 
L 2631 2963 
z
" transform="scale(0.015625)"/>
     </defs>
     <use xlink:href="#DejaVuSans-62"/>
     <use xlink:href="#DejaVuSans-2e" transform="translate(63.476562 0)"/>
     <use xlink:href="#DejaVuSans-72" transform="translate(95.263672 0)"/>
    </g>
   </g>
   <g id="text_4">
    <!-- a -->
    <g transform="translate(160.734375 12.916619) scale(0.1 -0.1)">
     <use xlink:href="#DejaVuSans-61"/>
    </g>
   </g>
  </g>
 </g>
 <defs>
  <clipPath id="pb50c65d36c">
   <rect x="0" y="0" width="216" height="72"/>
  </clipPath>
 </defs>
</svg>
