<?xml version="1.0" encoding="utf-8" standalone="no"?>
<!DOCTYPE svg PUBLIC "-//W3C//DTD SVG 1.1//EN"
  "http://www.w3.org/Graphics/SVG/1.1/DTD/svg11.dtd">
<svg xmlns:xlink="http://www.w3.org/1999/xlink" width="576pt" height="216pt" viewBox="0 0 576 216" xmlns="http://www.w3.org/2000/svg" version="1.1">
 <metadata>
  <rdf:RDF xmlns:dc="http://purl.org/dc/elements/1.1/" xmlns:cc="http://creativecommons.org/ns#" xmlns:rdf="http://www.w3.org/1999/02/22-rdf-syntax-ns#">
   <cc:Work>
    <dc:type rdf:resource="http://purl.org/dc/dcmitype/StillImage"/>
    <dc:format>image/svg+xml</dc:format>
    <dc:creator>
     <cc:Agent>
      <dc:title>Matplotlib v3.10.9, https://matplotlib.org/</dc:title>
     </cc:Agent>
    </dc:creator>
   </cc:Work>
  </rdf:RDF>
 </metadata>
 <defs>
  <style type="text/css">*{stroke-linejoin: round; stroke-linecap: butt}</style>
 </defs>
 <g id="figure_1">
  <g id="patch_1">
   <path d="M 0 216 
L 576 216 
L 576 0 
L 0 0 
z
" style="fill: #ffffff"/>
  </g>
  <g id="axes_1">
   <g id="patch_2">
    <path d="M 0 216 
L 576 216 
L 576 0 
L 0 0 
z
" clip-path="url(#p2dbdca69aa)" style="fill: #ffffff; stroke: #ffffff; stroke-linejoin: miter"/>
   </g>
   <g id="patch_3">
    <path d="M 0 216 
Q 0 0 0 0 
L 576 0 
L 576 216 
z
" clip-path="url(#p2dbdca69aa)" style="fill: #ffffff"/>
   </g>
   <g id="patch_4">
    <path d="M 24 0 
Q 24 108 24 108 
L 576 108 
L 576 0 
z
" clip-path="url(#p2dbdca69aa)" style="fill: #ffffff"/>
   </g>
   <g id="patch_5">
    <path d="M 24 108 
Q 24 135 48 135 
L 576 135 
L 576 108 
z
" clip-path="url(#p2dbdca69aa)" style="fill: #ffffff"/>
   </g>
   <g id="patch_6">
    <path d="M 72 108 
Q 72 135 48 135 
L 576 135 
L 576 108 
z
" clip-path="url(#p2dbdca69aa)" style="fill: #ffffff"/>
   </g>
   <g id="patch_7">
    <path d="M 72 54 
Q 72 67.5 72 67.5 
L 576 67.5 
L 576 54 
z
" clip-path="url(#p2dbdca69aa)" style="fill: #ffffff"/>
   </g>
   <g id="patch_8">
    <path d="M 72 94.5 
Q 72 108 72 108 
L 576 108 
L 576 94.5 
z
" clip-path="url(#p2dbdca69aa)" style="fill: #ffffff"/>
   </g>
   <g id="patch_9">
    <path d="M 96 27 
Q 72 27 72 54 
L 576 54 
L 576 27 
z
" clip-path="url(#p2dbdca69aa)" style="fill: #ffffff"/>
   </g>
   <g id="patch_10">
    <path d="M 84 67.5 
Q 84 94.5 84 94.5 
L 576 94.5 
L 576 67.5 
z
" clip-path="url(#p2dbdca69aa)" style="fill: #ffffff"/>
   </g>
   <g id="patch_11">
    <path d="M 96 27 
Q 120 27 120 54 
L 576 54 
L 576 27 
z
" clip-path="url(#p2dbdca69aa)" style="fill: #ffffff"/>
   </g>
   <g id="patch_12">
    <path d="M 120 54 
Q 120 216 120 216 
L 576 216 
L 576 54 
z
" clip-path="url(#p2dbdca69aa)" style="fill: #ffffff"/>
   </g>
   <g id="patch_13">
    <path d="M 168 0 
Q 168 175.5 168 175.5 
L 576 175.5 
L 576 0 
z
" clip-path="url(#p2dbdca69aa)" style="fill: #ffffff"/>
   </g>
   <g id="patch_14">
    <path d="M 168 202.5 
Q 168 216 168 216 
L 576 216 
L 576 202.5 
z
" clip-path="url(#p2dbdca69aa)" style="fill: #ffffff"/>
   </g>
   <g id="patch_15">
    <path d="M 180 175.5 
Q 180 202.5 180 202.5 
L 576 202.5 
L 576 175.5 
z
" clip-path="url(#p2dbdca69aa)" style="fill: #ffffff"/>
   </g>
   <g id="patch_16">
    <path d="M 264 0 
Q 264 94.5 264 94.5 
L 576 94.5 
L 576 0 
z
" clip-path="url(#p2dbdca69aa)" style="fill: #ffffff"/>
   </g>
   <g id="patch_17">
    <path d="M 264 121.5 
Q 264 216 264 216 
L 576 216 
L 576 121.5 
z
" clip-path="url(#p2dbdca69aa)" style="fill: #ffffff"/>
   </g>
   <g id="patch_18">
    <path d="M 276 94.5 
Q 276 121.5 276 121.5 
L 576 121.5 
L 576 94.5 
z
" clip-path="url(#p2dbdca69aa)" style="fill: #ffffff"/>
   </g>
   <g id="patch_19">
    <path d="M 312 0 
Q 312 94.5 312 94.5 
L 576 94.5 
L 576 0 
z
" clip-path="url(#p2dbdca69aa)" style="fill: #ffffff"/>
   </g>
   <g id="patch_20">
    <path d="M 312 121.5 
Q 312 216 312 216 
L 576 216 
L 576 121.5 
z
" clip-path="url(#p2dbdca69aa)" style="fill: #ffffff"/>
   </g>
   <g id="patch_21">
    <path d="M 324 94.5 
Q 324 121.5 324 121.5 
L 576 121.5 
L 576 94.5 
z
" clip-path="url(#p2dbdca69aa)" style="fill: #ffffff"/>
   </g>
   <g id="patch_22">
    <path d="M 408 0 
Q 408 13.5 408 13.5 
L 576 13.5 
L 576 0 
z
" clip-path="url(#p2dbdca69aa)" style="fill: #ffffff"/>
   </g>
   <g id="patch_23">
    <path d="M 408 40.5 
Q 408 216 408 216 
L 576 216 
L 576 40.5 
z
" clip-path="url(#p2dbdca69aa)" style="fill: #ffffff"/>
   </g>
   <g id="patch_24">
    <path d="M 420 13.5 
Q 420 40.5 420 40.5 
L 576 40.5 
L 576 13.5 
z
" clip-path="url(#p2dbdca69aa)" style="fill: #ffffff"/>
   </g>
   <g id="patch_25">
    <path d="M 456 108 
Q 456 216 456 216 
L 576 216 
L 576 108 
z
" clip-path="url(#p2dbdca69aa)" style="fill: #ffffff"/>
   </g>
   <g id="patch_26">
    <path d="M 480 81 
Q 456 81 456 108 
L 576 108 
L 576 81 
z
" clip-path="url(#p2dbdca69aa)" style="fill: #ffffff"/>
   </g>
   <g id="patch_27">
    <path d="M 480 81 
Q 504 81 504 108 
L 576 108 
L 576 81 
z
" clip-path="url(#p2dbdca69aa)" style="fill: #ffffff"/>
   </g>
   <g id="patch_28">
    <path d="M 504 108 
Q 504 121.5 504 121.5 
L 576 121.5 
L 576 108 
z
" clip-path="url(#p2dbdca69aa)" style="fill: #ffffff"/>
   </g>
   <g id="patch_29">
    <path d="M 504 148.5 
Q 504 162 504 162 
L 576 162 
L 576 148.5 
z
" clip-path="url(#p2dbdca69aa)" style="fill: #ffffff"/>
   </g>
   <g id="patch_30">
    <path d="M 504 162 
Q 504 189 528 189 
L 576 189 
L 576 162 
z
" clip-path="url(#p2dbdca69aa)" style="fill: #ffffff"/>
   </g>
   <g id="patch_31">
    <path d="M 516 121.5 
Q 516 148.5 516 148.5 
L 576 148.5 
L 576 121.5 
z
" clip-path="url(#p2dbdca69aa)" style="fill: #ffffff"/>
   </g>
   <g id="patch_32">
    <path d="M 552 162 
Q 552 189 528 189 
L 576 189 
L 576 162 
z
" clip-path="url(#p2dbdca69aa)" style="fill: #ffffff"/>
   </g>
   <g id="patch_33">
    <path d="M 552 0 
Q 552 162 552 162 
L 576 162 
L 576 0 
z
" clip-path="url(#p2dbdca69aa)" style="fill: #ffffff"/>
   </g>
   <g id="patch_34">
    <path d="M 24 0 
Q 24 108 24 108 
" clip-path="url(#p2dbdca69aa)" style="fill: none; stroke: #000000; stroke-linejoin: miter"/>
   </g>
   <g id="patch_35">
    <path d="M 96 27 
Q 72 27 72 54 
" clip-path="url(#p2dbdca69aa)" style="fill: none; stroke: #000000; stroke-linejoin: miter"/>
   </g>
   <g id="patch_36">
    <path d="M 96 27 
Q 120 27 120 54 
" clip-path="url(#p2dbdca69aa)" style="fill: none; stroke: #000000; stroke-linejoin: miter"/>
   </g>
   <g id="patch_37">
    <path d="M 72 54 
Q 72 67.5 72 67.5 
" clip-path="url(#p2dbdca69aa)" style="fill: none; stroke: #000000; stroke-linejoin: miter"/>
   </g>
   <g id="patch_38">
    <path d="M 120 54 
Q 120 216 120 216 
" clip-path="url(#p2dbdca69aa)" style="fill: none; stroke: #000000; stroke-linejoin: miter"/>
   </g>
   <g id="patch_39">
    <path d="M 168 0 
Q 168 175.5 168 175.5 
" clip-path="url(#p2dbdca69aa)" style="fill: none; stroke: #000000; stroke-linejoin: miter"/>
   </g>
   <g id="patch_40">
    <path d="M 72 94.5 
Q 72 108 72 108 
" clip-path="url(#p2dbdca69aa)" style="fill: none; stroke: #000000; stroke-linejoin: miter"/>
   </g>
   <g id="patch_41">
    <path d="M 24 108 
Q 24 135 48 135 
" clip-path="url(#p2dbdca69aa)" style="fill: none; stroke: #000000; stroke-linejoin: miter"/>
   </g>
   <g id="patch_42">
    <path d="M 72 108 
Q 72 135 48 135 
" clip-path="url(#p2dbdca69aa)" style="fill: none; stroke: #000000; stroke-linejoin: miter"/>
   </g>
   <g id="patch_43">
    <path d="M 168 202.5 
Q 168 216 168 216 
" clip-path="url(#p2dbdca69aa)" style="fill: none; stroke: #000000; stroke-linejoin: miter"/>
   </g>
   <g id="patch_44">
    <path d="M 264 0 
Q 264 94.5 264 94.5 
" clip-path="url(#p2dbdca69aa)" style="fill: none; stroke: #000000; stroke-linejoin: miter"/>
   </g>
   <g id="patch_45">
    <path d="M 264 121.5 
Q 264 216 264 216 
" clip-path="url(#p2dbdca69aa)" style="fill: none; stroke: #000000; stroke-linejoin: miter"/>
   </g>
   <g id="patch_46">
    <path d="M 312 0 
Q 312 94.5 312 94.5 
" clip-path="url(#p2dbdca69aa)" style="fill: none; stroke: #000000; stroke-linejoin: miter"/>
   </g>
   <g id="patch_47">
    <path d="M 312 121.5 
Q 312 216 312 216 
" clip-path="url(#p2dbdca69aa)" style="fill: none; stroke: #000000; stroke-linejoin: miter"/>
   </g>
   <g id="patch_48">
    <path d="M 408 0 
Q 408 13.5 408 13.5 
" clip-path="url(#p2dbdca69aa)" style="fill: none; stroke: #000000; stroke-linejoin: miter"/>
   </g>
   <g id="patch_49">
    <path d="M 408 40.5 
Q 408 216 408 216 
" clip-path="url(#p2dbdca69aa)" style="fill: none; stroke: #000000; stroke-linejoin: miter"/>
   </g>
   <g id="patch_50">
    <path d="M 552 0 
Q 552 162 552 162 
" clip-path="url(#p2dbdca69aa)" style="fill: none; stroke: #000000; stroke-linejoin: miter"/>
   </g>
   <g id="patch_51">
    <path d="M 480 81 
Q 456 81 456 108 
" clip-path="url(#p2dbdca69aa)" style="fill: none; stroke: #000000; stroke-linejoin: miter"/>
   </g>
   <g id="patch_52">
    <path d="M 480 81 
Q 504 81 504 108 
" clip-path="url(#p2dbdca69aa)" style="fill: none; stroke: #000000; stroke-linejoin: miter"/>
   </g>
   <g id="patch_53">
    <path d="M 456 108 
Q 456 216 456 216 
" clip-path="url(#p2dbdca69aa)" style="fill: none; stroke: #000000; stroke-linejoin: miter"/>
   </g>
   <g id="patch_54">
    <path d="M 504 108 
Q 504 121.5 504 121.5 
" clip-path="url(#p2dbdca69aa)" style="fill: none; stroke: #000000; stroke-linejoin: miter"/>
   </g>
   <g id="patch_55">
    <path d="M 504 148.5 
Q 504 162 504 162 
" clip-path="url(#p2dbdca69aa)" style="fill: none; stroke: #000000; stroke-linejoin: miter"/>
   </g>
   <g id="patch_56">
    <path d="M 504 162 
Q 504 189 528 189 
" clip-path="url(#p2dbdca69aa)" style="fill: none; stroke: #000000; stroke-linejoin: miter"/>
   </g>
   <g id="patch_57">
    <path d="M 552 162 
Q 552 189 528 189 
" clip-path="url(#p2dbdca69aa)" style="fill: none; stroke: #000000; stroke-linejoin: miter"/>
   </g>
   <g id="patch_58">
    <path d="M 60 94.5 
L 54 67.5 
L 84 67.5 
L 84 94.5 
z
" clip-path="url(#p2dbdca69aa)" style="fill: #ffffff; stroke: #000000; stroke-linejoin: miter"/>
   </g>
   <g id="patch_59">
    <path d="M 156 202.5 
L 156 175.5 
L 180 175.5 
L 186 202.5 
z
" clip-path="url(#p2dbdca69aa)" style="fill: #ffffff; stroke: #000000; stroke-linejoin: miter"/>
   </g>
   <g id="patch_60">
    <path d="M 252 121.5 
L 252 94.5 
L 276 94.5 
L 282 121.5 
z
" clip-path="url(#p2dbdca69aa)" style="fill: #ffffff; stroke: #000000; stroke-linejoin: miter"/>
   </g>
   <g id="patch_61">
    <path d="M 300 121.5 
L 300 94.5 
L 324 94.5 
L 330 121.5 
z
" clip-path="url(#p2dbdca69aa)" style="fill: #ffffff; stroke: #000000; stroke-linejoin: miter"/>
   </g>
   <g id="patch_62">
    <path d="M 396 40.5 
L 396 13.5 
L 420 13.5 
L 426 40.5 
z
" clip-path="url(#p2dbdca69aa)" style="fill: #ffffff; stroke: #000000; stroke-linejoin: miter"/>
   </g>
   <g id="patch_63">
    <path d="M 492 148.5 
L 486 121.5 
L 516 121.5 
L 516 148.5 
z
" clip-path="url(#p2dbdca69aa)" style="fill: #ffffff; stroke: #000000; stroke-linejoin: miter"/>
   </g>
   <g id="PathCollection_1">
    <defs>
     <path id="C0_0_1ad403ea60" d="M 0 4.655642 
C 1.234691 4.655642 2.418978 4.165094 3.292036 3.292036 
C 4.165094 2.418978 4.655642 1.234691 4.655642 -0 
C 4.655642 -1.234691 4.165094 -2.418978 3.292036 -3.292036 
C 2.418978 -4.165094 1.234691 -4.655642 0 -4.655642 
C -1.234691 -4.655642 -2.418978 -4.165094 -3.292036 -3.292036 
C -4.165094 -2.418978 -4.655642 -1.234691 -4.655642 0 
C -4.655642 1.234691 -4.165094 2.418978 -3.292036 3.292036 
C -2.418978 4.165094 -1.234691 4.655642 0 4.655642 
z
"/>
    </defs>
    <g clip-path="url(#p2dbdca69aa)">
     <use xlink:href="#C0_0_1ad403ea60" x="216" y="108" style="fill: #ffffff; stroke: #ffffff"/>
    </g>
    <g clip-path="url(#p2dbdca69aa)">
     <use xlink:href="#C0_0_1ad403ea60" x="360" y="108" style="fill: #ffffff; stroke: #ffffff"/>
    </g>
   </g>
   <g id="text_1">
    <!-- x -->
    <g transform="translate(27 10.973437) scale(0.1 -0.1)">
     <defs>
      <path id="DejaVuSans-78" d="M 3513 3500 
L 2247 1797 
L 3578 0 
L 2900 0 
L 1881 1375 
L 863 0 
L 184 0 
L 1544 1831 
L 300 3500 
L 978 3500 
L 1906 2253 
L 2834 3500 
L 3513 3500 
z
" transform="scale(0.015625)"/>
     </defs>
     <use xlink:href="#DejaVuSans-78"/>
    </g>
   </g>
   <g id="text_2">
    <!-- y.r -->
    <g transform="translate(75 51.473437) scale(0.1 -0.1)">
     <defs>
      <path id="DejaVuSans-79" d="M 2059 -325 
Q 1816 -950 1584 -1140 
Q 1353 -1331 966 -1331 
L 506 -1331 
L 506 -850 
L 844 -850 
Q 1081 -850 1212 -737 
Q 1344 -625 1503 -206 
L 1606 56 
L 191 3500 
L 800 3500 
L 1894 763 
L 2988 3500 
L 3597 3500 
L 2059 -325 
z
" transform="scale(0.015625)"/>
      <path id="DejaVuSans-2e" d="M 684 794 
L 1344 794 
L 1344 0 
L 684 0 
L 684 794 
z
" transform="scale(0.015625)"/>
      <path id="DejaVuSans-72" d="M 2631 2963 
Q 2534 3019 2420 3045 
Q 2306 3072 2169 3072 
Q 1681 3072 1420 2755 
Q 1159 2438 1159 1844 
L 1159 0 
L 581 0 
L 581 3500 
L 1159 3500 
L 1159 2956 
Q 1341 3275 1631 3429 
Q 1922 3584 2338 3584 
Q 2397 3584 2469 3576 
Q 2541 3569 2628 3553 
L 2631 2963 
z
" transform="scale(0.015625)"/>
     </defs>
     <use xlink:href="#DejaVuSans-79"/>
     <use xlink:href="#DejaVuSans-2e" transform="translate(44.929688 0)"/>
     <use xlink:href="#DejaVuSans-72" transform="translate(76.716797 0)"/>
    </g>
   </g>
   <g id="text_3">
    <!-- y -->
    <g transform="translate(123 51.473437) scale(0.1 -0.1)">
     <use xlink:href="#DejaVuSans-79"/>
    </g>
   </g>
   <g id="text_4">
    <!-- y -->
    <g transform="translate(171 10.973437) scale(0.1 -0.1)">
     <use xlink:href="#DejaVuSans-79"/>
    </g>
   </g>
   <g id="text_5">
    <!-- x.r -->
    <g transform="translate(75 105.473438) scale(0.1 -0.1)">
     <use xlink:href="#DejaVuSans-78"/>
     <use xlink:href="#DejaVuSans-2e" transform="translate(59.179688 0)"/>
     <use xlink:href="#DejaVuSans-72" transform="translate(90.966797 0)"/>
    </g>
   </g>
   <g id="text_6">
    <!-- z -->
    <g transform="translate(171 213.473437) scale(0.1 -0.1)">
     <defs>
      <path id="DejaVuSans-7a" d="M 353 3500 
L 3084 3500 
L 3084 2975 
L 922 459 
L 3084 459 
L 3084 0 
L 275 0 
L 275 525 
L 2438 3041 
L 353 3041 
L 353 3500 
z
" transform="scale(0.015625)"/>
     </defs>
     <use xlink:href="#DejaVuSans-7a"/>
    </g>
   </g>
   <g id="text_7">
    <!-- x -->
    <g transform="translate(267 10.973437) scale(0.1 -0.1)">
     <use xlink:href="#DejaVuSans-78"/>
    </g>
   </g>
   <g id="text_8">
    <!-- y -->
    <g transform="translate(267 132.473437) scale(0.1 -0.1)">
     <use xlink:href="#DejaVuSans-79"/>
    </g>
   </g>
   <g id="text_9">
    <!-- y -->
    <g transform="translate(315 10.973437) scale(0.1 -0.1)">
     <use xlink:href="#DejaVuSans-79"/>
    </g>
   </g>
   <g id="text_10">
    <!-- z -->
    <g transform="translate(315 132.473437) scale(0.1 -0.1)">
     <use xlink:href="#DejaVuSans-7a"/>
    </g>
   </g>
   <g id="text_11">
    <!-- x -->
    <g transform="translate(411 10.973437) scale(0.1 -0.1)">
     <use xlink:href="#DejaVuSans-78"/>
    </g>
   </g>
   <g id="text_12">
    <!-- y -->
    <g transform="translate(411 51.473437) scale(0.1 -0.1)">
     <use xlink:href="#DejaVuSans-79"/>
    </g>
   </g>
   <g id="text_13">
    <!-- y -->
    <g transform="translate(555 10.973437) scale(0.1 -0.1)">
     <use xlink:href="#DejaVuSans-79"/>
    </g>
   </g>
   <g id="text_14">
    <!-- z -->
    <g transform="translate(459 105.473438) scale(0.1 -0.1)">
     <use xlink:href="#DejaVuSans-7a"/>
    </g>
   </g>
   <g id="text_15">
    <!-- z.l -->
    <g transform="translate(507 105.473438) scale(0.1 -0.1)">
     <defs>
      <path id="DejaVuSans-6c" d="M 603 4863 
L 1178 4863 
L 1178 0 
L 603 0 
L 603 4863 
z
" transform="scale(0.015625)"/>
     </defs>
     <use xlink:href="#DejaVuSans-7a"/>
     <use xlink:href="#DejaVuSans-2e" transform="translate(52.490234 0)"/>
     <use xlink:href="#DejaVuSans-6c" transform="translate(84.277344 0)"/>
    </g>
   </g>
   <g id="text_16">
    <!-- y.l -->
    <g transform="translate(507 159.473437) scale(0.1 -0.1)">
     <use xlink:href="#DejaVuSans-79"/>
     <use xlink:href="#DejaVuSans-2e" transform="translate(44.929688 0)"/>
     <use xlink:href="#DejaVuSans-6c" transform="translate(76.716797 0)"/>
    </g>
   </g>
   <g id="text_17">
    <!-- f -->
    <g transform="translate(70.239844 83.759375) scale(0.1 -0.1)">
     <defs>
      <path id="DejaVuSans-66" d="M 2375 4863 
L 2375 4384 
L 1825 4384 
Q 1516 4384 1395 4259 
Q 1275 4134 1275 3809 
L 1275 3500 
L 2222 3500 
L 2222 3053 
L 1275 3053 
L 1275 0 
L 697 0 
L 697 3053 
L 147 3053 
L 147 3500 
L 697 3500 
L 697 3744 
Q 697 4328 969 4595 
Q 1241 4863 1831 4863 
L 2375 4863 
z
" transform="scale(0.015625)"/>
     </defs>
     <use xlink:href="#DejaVuSans-66"/>
    </g>
   </g>
   <g id="text_18">
    <!-- g -->
    <g transform="translate(164.825781 191.759375) scale(0.1 -0.1)">
     <defs>
      <path id="DejaVuSans-67" d="M 2906 1791 
Q 2906 2416 2648 2759 
Q 2391 3103 1925 3103 
Q 1463 3103 1205 2759 
Q 947 2416 947 1791 
Q 947 1169 1205 825 
Q 1463 481 1925 481 
Q 2391 481 2648 825 
Q 2906 1169 2906 1791 
z
M 3481 434 
Q 3481 -459 3084 -895 
Q 2688 -1331 1869 -1331 
Q 1566 -1331 1297 -1286 
Q 1028 -1241 775 -1147 
L 775 -588 
Q 1028 -725 1275 -790 
Q 1522 -856 1778 -856 
Q 2344 -856 2625 -561 
Q 2906 -266 2906 331 
L 2906 616 
Q 2728 306 2450 153 
Q 2172 0 1784 0 
Q 1141 0 747 490 
Q 353 981 353 1791 
Q 353 2603 747 3093 
Q 1141 3584 1784 3584 
Q 2172 3584 2450 3431 
Q 2728 3278 2906 2969 
L 2906 3500 
L 3481 3500 
L 3481 434 
z
" transform="scale(0.015625)"/>
     </defs>
     <use xlink:href="#DejaVuSans-67"/>
    </g>
   </g>
   <g id="text_19">
    <!-- f -->
    <g transform="translate(262.239844 110.759375) scale(0.1 -0.1)">
     <use xlink:href="#DejaVuSans-66"/>
    </g>
   </g>
   <g id="text_20">
    <!-- g -->
    <g transform="translate(308.825781 110.759375) scale(0.1 -0.1)">
     <use xlink:href="#DejaVuSans-67"/>
    </g>
   </g>
   <g id="text_21">
    <!-- f -->
    <g transform="translate(406.239844 29.759375) scale(0.1 -0.1)">
     <use xlink:href="#DejaVuSans-66"/>
    </g>
   </g>
   <g id="text_22">
    <!-- g -->
    <g transform="translate(500.825781 137.759375) scale(0.1 -0.1)">
     <use xlink:href="#DejaVuSans-67"/>
    </g>
   </g>
   <g id="text_23">
    <g clip-path="url(#p2dbdca69aa)">
     <!-- $\mapsfrom$ -->
     <g transform="translate(208.62 111.31125) scale(0.12 -0.12)">
      <defs>
       <path id="DejaVuSans-21a4" d="M 4466 1741 
L 1188 1741 
L 1916 1013 
L 1541 638 
L 313 1866 
L 313 2147 
L 1541 3375 
L 1916 3000 
L 1188 2272 
L 4466 2272 
L 4466 3350 
L 4997 3350 
L 4997 663 
L 4466 663 
L 4466 1741 
z
" transform="scale(0.015625)"/>
      </defs>
      <use xlink:href="#DejaVuSans-21a4" transform="translate(19.482422 0.265625)"/>
     </g>
    </g>
   </g>
   <g id="text_24">
    <g clip-path="url(#p2dbdca69aa)">
     <!-- $\mapsto$ -->
     <g transform="translate(352.62 111.31125) scale(0.12 -0.12)">
      <defs>
       <path id="DejaVuSans-21a6" d="M 4175 1741 
L 897 1741 
L 897 663 
L 366 663 
L 366 3350 
L 897 3350 
L 897 2272 
L 4175 2272 
L 3447 3000 
L 3822 3375 
L 5050 2147 
L 5050 1866 
L 3822 638 
L 3447 1013 
L 4175 1741 
z
" transform="scale(0.015625)"/>
      </defs>
      <use xlink:href="#DejaVuSans-21a6" transform="translate(19.482422 0.265625)"/>
     </g>
    </g>
   </g>
  </g>
 </g>
 <defs>
  <clipPath id="p2dbdca69aa">
   <rect x="0" y="0" width="576" height="216"/>
  </clipPath>
 </defs>
</svg>
