<?xml version="1.0" encoding="utf-8" standalone="no"?>
<!DOCTYPE svg PUBLIC "-//W3C//DTD SVG 1.1//EN"
  "http://www.w3.org/Graphics/SVG/1.1/DTD/svg11.dtd">
<svg xmlns:xlink="http://www.w3.org/1999/xlink" width="369.36pt" height="360pt" viewBox="0 0 369.36 360" xmlns="http://www.w3.org/2000/svg" version="1.1">
 <metadata>
  <rdf:RDF xmlns:dc="http://purl.org/dc/elements/1.1/" xmlns:cc="http://creativecommons.org/ns#" xmlns:rdf="http://www.w3.org/1999/02/22-rdf-syntax-ns#">
   <cc:Work>
    <dc:type rdf:resource="http://purl.org/dc/dcmitype/StillImage"/>
    <dc:format>image/svg+xml</dc:format>
    <dc:creator>
     <cc:Agent>
      <dc:title>Matplotlib v3.10.9, https://matplotlib.org/</dc:title>
     </cc:Agent>
    </dc:creator>
   </cc:Work>
  </rdf:RDF>
 </metadata>
 <defs>
  <style type="text/css">*{stroke-linejoin: round; stroke-linecap: butt}</style>
 </defs>
 <g id="figure_1">
  <g id="patch_1">
   <path d="M 0 360 
L 369.36 360 
L 369.36 0 
L 0 0 
z
" style="fill: #ffffff"/>
  </g>
  <g id="axes_1">
   <g id="patch_2">
    <path d="M 30.78 330 
L 338.58 330 
L 338.58 30 
L 30.78 30 
z
" clip-path="url(#p4a161205c9)" style="fill: #ffffff; stroke: #ffffff; stroke-linejoin: miter"/>
   </g>
   <g id="patch_3">
    <path d="M 30.78 330 
Q 30.78 30 30.78 30 
L 338.58 30 
L 338.58 330 
z
" clip-path="url(#p4a161205c9)" style="fill: #ffffff"/>
   </g>
   <g id="patch_4">
    <path d="M 60.78 90 
Q 60.78 270 60.78 270 
L 338.58 270 
L 338.58 90 
z
" clip-path="url(#p4a161205c9)" style="fill: #ffffff"/>
   </g>
   <g id="patch_5">
    <path d="M 90.78 60 
Q 60.78 60 60.78 90 
L 338.58 90 
L 338.58 60 
z
" clip-path="url(#p4a161205c9)" style="fill: #ffffff"/>
   </g>
   <g id="patch_6">
    <path d="M 60.78 270 
Q 60.78 300 90.78 300 
L 338.58 300 
L 338.58 270 
z
" clip-path="url(#p4a161205c9)" style="fill: #ffffff"/>
   </g>
   <g id="patch_7">
    <path d="M 90.78 60 
Q 120.78 60 120.78 90 
L 338.58 90 
L 338.58 60 
z
" clip-path="url(#p4a161205c9)" style="fill: #ffffff"/>
   </g>
   <g id="patch_8">
    <path d="M 120.78 270 
Q 120.78 300 90.78 300 
L 338.58 300 
L 338.58 270 
z
" clip-path="url(#p4a161205c9)" style="fill: #ffffff"/>
   </g>
   <g id="patch_9">
    <path d="M 120.78 90 
Q 120.78 165 120.78 165 
L 338.58 165 
L 338.58 90 
z
" clip-path="url(#p4a161205c9)" style="fill: #ffffff"/>
   </g>
   <g id="patch_10">
    <path d="M 120.78 255 
Q 120.78 270 120.78 270 
L 338.58 270 
L 338.58 255 
z
" clip-path="url(#p4a161205c9)" style="fill: #ffffff"/>
   </g>
   <g id="patch_11">
    <path d="M 150.78 195 
Q 150.78 225 150.78 225 
L 338.58 225 
L 338.58 195 
z
" clip-path="url(#p4a161205c9)" style="fill: #ffffff"/>
   </g>
   <g id="patch_12">
    <path d="M 180.78 30 
Q 180.78 105 180.78 105 
L 338.58 105 
L 338.58 30 
z
" clip-path="url(#p4a161205c9)" style="fill: #ffffff"/>
   </g>
   <g id="patch_13">
    <path d="M 180.78 135 
Q 180.78 165 180.78 165 
L 338.58 165 
L 338.58 135 
z
" clip-path="url(#p4a161205c9)" style="fill: #ffffff"/>
   </g>
   <g id="patch_14">
    <path d="M 180.78 255 
Q 180.78 330 180.78 330 
L 338.58 330 
L 338.58 255 
z
" clip-path="url(#p4a161205c9)" style="fill: #ffffff"/>
   </g>
   <g id="patch_15">
    <path d="M 195.78 105 
Q 195.78 135 195.78 135 
L 338.58 135 
L 338.58 105 
z
" clip-path="url(#p4a161205c9)" style="fill: #ffffff"/>
   </g>
   <g id="patch_16">
    <path d="M 195.78 165 
Q 195.78 195 195.78 195 
L 338.58 195 
L 338.58 165 
z
" clip-path="url(#p4a161205c9)" style="fill: #ffffff"/>
   </g>
   <g id="patch_17">
    <path d="M 195.78 225 
Q 195.78 255 195.78 255 
L 338.58 255 
L 338.58 225 
z
" clip-path="url(#p4a161205c9)" style="fill: #ffffff"/>
   </g>
   <g id="patch_18">
    <path d="M 304.68 30 
Q 304.68 165 304.68 165 
L 338.58 165 
L 338.58 30 
z
" clip-path="url(#p4a161205c9)" style="fill: #ffffff"/>
   </g>
   <g id="patch_19">
    <path d="M 304.68 195 
Q 304.68 330 304.68 330 
L 338.58 330 
L 338.58 195 
z
" clip-path="url(#p4a161205c9)" style="fill: #ffffff"/>
   </g>
   <g id="patch_20">
    <path d="M 319.68 165 
Q 319.68 195 319.68 195 
L 338.58 195 
L 338.58 165 
z
" clip-path="url(#p4a161205c9)" style="fill: #ffffff"/>
   </g>
   <g id="patch_21">
    <path d="M 90.78 60 
Q 60.78 60 60.78 90 
" clip-path="url(#p4a161205c9)" style="fill: none; stroke: #000000; stroke-linejoin: miter"/>
   </g>
   <g id="patch_22">
    <path d="M 90.78 60 
Q 120.78 60 120.78 90 
" clip-path="url(#p4a161205c9)" style="fill: none; stroke: #000000; stroke-linejoin: miter"/>
   </g>
   <g id="patch_23">
    <path d="M 60.78 90 
Q 60.78 270 60.78 270 
" clip-path="url(#p4a161205c9)" style="fill: none; stroke: #000000; stroke-linejoin: miter"/>
   </g>
   <g id="patch_24">
    <path d="M 120.78 90 
Q 120.78 165 120.78 165 
" clip-path="url(#p4a161205c9)" style="fill: none; stroke: #000000; stroke-linejoin: miter"/>
   </g>
   <g id="patch_25">
    <path d="M 180.78 30 
Q 180.78 105 180.78 105 
" clip-path="url(#p4a161205c9)" style="fill: none; stroke: #000000; stroke-linejoin: miter"/>
   </g>
   <g id="patch_26">
    <path d="M 180.78 135 
Q 180.78 165 180.78 165 
" clip-path="url(#p4a161205c9)" style="fill: none; stroke: #000000; stroke-linejoin: miter"/>
   </g>
   <g id="patch_27">
    <path d="M 150.78 195 
Q 150.78 225 150.78 225 
" clip-path="url(#p4a161205c9)" style="fill: none; stroke: #000000; stroke-linejoin: miter"/>
   </g>
   <g id="patch_28">
    <path d="M 120.78 255 
Q 120.78 270 120.78 270 
" clip-path="url(#p4a161205c9)" style="fill: none; stroke: #000000; stroke-linejoin: miter"/>
   </g>
   <g id="patch_29">
    <path d="M 180.78 255 
Q 180.78 330 180.78 330 
" clip-path="url(#p4a161205c9)" style="fill: none; stroke: #000000; stroke-linejoin: miter"/>
   </g>
   <g id="patch_30">
    <path d="M 60.78 270 
Q 60.78 300 90.78 300 
" clip-path="url(#p4a161205c9)" style="fill: none; stroke: #000000; stroke-linejoin: miter"/>
   </g>
   <g id="patch_31">
    <path d="M 120.78 270 
Q 120.78 300 90.78 300 
" clip-path="url(#p4a161205c9)" style="fill: none; stroke: #000000; stroke-linejoin: miter"/>
   </g>
   <g id="patch_32">
    <path d="M 304.68 30 
Q 304.68 165 304.68 165 
" clip-path="url(#p4a161205c9)" style="fill: none; stroke: #000000; stroke-linejoin: miter"/>
   </g>
   <g id="patch_33">
    <path d="M 304.68 195 
Q 304.68 330 304.68 330 
" clip-path="url(#p4a161205c9)" style="fill: none; stroke: #000000; stroke-linejoin: miter"/>
   </g>
   <g id="patch_34">
    <path d="M 165.78 135 
L 165.78 105 
L 195.78 105 
L 195.78 135 
z
" clip-path="url(#p4a161205c9)" style="fill: #ffffff; stroke: #000000; stroke-linejoin: miter"/>
   </g>
   <g id="patch_35">
    <path d="M 105.78 195 
L 105.78 165 
L 195.78 165 
L 195.78 195 
z
" clip-path="url(#p4a161205c9)" style="fill: #ffffff; stroke: #000000; stroke-linejoin: miter"/>
   </g>
   <g id="patch_36">
    <path d="M 105.78 255 
L 105.78 225 
L 195.78 225 
L 195.78 255 
z
" clip-path="url(#p4a161205c9)" style="fill: #ffffff; stroke: #000000; stroke-linejoin: miter"/>
   </g>
   <g id="patch_37">
    <path d="M 289.68 195 
L 289.68 165 
L 319.68 165 
L 319.68 195 
z
" clip-path="url(#p4a161205c9)" style="fill: #ffffff; stroke: #000000; stroke-linejoin: miter"/>
   </g>
   <g id="PathCollection_1">
    <defs>
     <path id="m4c84998dff" d="M 0 5.757604 
C 1.526934 5.757604 2.991535 5.150946 4.071241 4.071241 
C 5.150946 2.991535 5.757604 1.526934 5.757604 0 
C 5.757604 -1.526934 5.150946 -2.991535 4.071241 -4.071241 
C 2.991535 -5.150946 1.526934 -5.757604 0 -5.757604 
C -1.526934 -5.757604 -2.991535 -5.150946 -4.071241 -4.071241 
C -5.150946 -2.991535 -5.757604 -1.526934 -5.757604 0 
C -5.757604 1.526934 -5.150946 2.991535 -4.071241 4.071241 
C -2.991535 5.150946 -1.526934 5.757604 0 5.757604 
z
" style="stroke: #ffffff"/>
    </defs>
    <g clip-path="url(#p4a161205c9)">
     <use xlink:href="#m4c84998dff" x="244.68" y="180" style="fill: #ffffff; stroke: #ffffff"/>
    </g>
   </g>
   <g id="text_1">
    <!-- y -->
    <g transform="translate(64.53 86.348437) scale(0.1 -0.1)">
     <defs>
      <path id="DejaVuSans-79" d="M 2059 -325 
Q 1816 -950 1584 -1140 
Q 1353 -1331 966 -1331 
L 506 -1331 
L 506 -850 
L 844 -850 
Q 1081 -850 1212 -737 
Q 1344 -625 1503 -206 
L 1606 56 
L 191 3500 
L 800 3500 
L 1894 763 
L 2988 3500 
L 3597 3500 
L 2059 -325 
z
" transform="scale(0.015625)"/>
     </defs>
     <use xlink:href="#DejaVuSans-79"/>
    </g>
   </g>
   <g id="text_2">
    <!-- y -->
    <g transform="translate(124.53 86.348437) scale(0.1 -0.1)">
     <use xlink:href="#DejaVuSans-79"/>
    </g>
   </g>
   <g id="text_3">
    <!-- x -->
    <g transform="translate(184.53 41.348437) scale(0.1 -0.1)">
     <defs>
      <path id="DejaVuSans-78" d="M 3513 3500 
L 2247 1797 
L 3578 0 
L 2900 0 
L 1881 1375 
L 863 0 
L 184 0 
L 1544 1831 
L 300 3500 
L 978 3500 
L 1906 2253 
L 2834 3500 
L 3513 3500 
z
" transform="scale(0.015625)"/>
     </defs>
     <use xlink:href="#DejaVuSans-78"/>
    </g>
   </g>
   <g id="text_4">
    <!-- (y &gt;&gt; z) -->
    <g transform="translate(184.53 146.348437) scale(0.1 -0.1)">
     <defs>
      <path id="DejaVuSans-28" d="M 1984 4856 
Q 1566 4138 1362 3434 
Q 1159 2731 1159 2009 
Q 1159 1288 1364 580 
Q 1569 -128 1984 -844 
L 1484 -844 
Q 1016 -109 783 600 
Q 550 1309 550 2009 
Q 550 2706 781 3412 
Q 1013 4119 1484 4856 
L 1984 4856 
z
" transform="scale(0.015625)"/>
      <path id="DejaVuSans-20" transform="scale(0.015625)"/>
      <path id="DejaVuSans-3e" d="M 678 3150 
L 678 3719 
L 4684 2266 
L 4684 1747 
L 678 294 
L 678 863 
L 3897 2003 
L 678 3150 
z
" transform="scale(0.015625)"/>
      <path id="DejaVuSans-7a" d="M 353 3500 
L 3084 3500 
L 3084 2975 
L 922 459 
L 3084 459 
L 3084 0 
L 275 0 
L 275 525 
L 2438 3041 
L 353 3041 
L 353 3500 
z
" transform="scale(0.015625)"/>
      <path id="DejaVuSans-29" d="M 513 4856 
L 1013 4856 
Q 1481 4119 1714 3412 
Q 1947 2706 1947 2009 
Q 1947 1309 1714 600 
Q 1481 -109 1013 -844 
L 513 -844 
Q 928 -128 1133 580 
Q 1338 1288 1338 2009 
Q 1338 2731 1133 3434 
Q 928 4138 513 4856 
z
" transform="scale(0.015625)"/>
     </defs>
     <use xlink:href="#DejaVuSans-28"/>
     <use xlink:href="#DejaVuSans-79" transform="translate(39.013672 0)"/>
     <use xlink:href="#DejaVuSans-20" transform="translate(98.193359 0)"/>
     <use xlink:href="#DejaVuSans-3e" transform="translate(129.980469 0)"/>
     <use xlink:href="#DejaVuSans-3e" transform="translate(213.769531 0)"/>
     <use xlink:href="#DejaVuSans-20" transform="translate(297.558594 0)"/>
     <use xlink:href="#DejaVuSans-7a" transform="translate(329.345703 0)"/>
     <use xlink:href="#DejaVuSans-29" transform="translate(381.835938 0)"/>
    </g>
   </g>
   <g id="text_5">
    <!-- z -->
    <g transform="translate(154.53 206.348437) scale(0.1 -0.1)">
     <use xlink:href="#DejaVuSans-7a"/>
    </g>
   </g>
   <g id="text_6">
    <!-- y -->
    <g transform="translate(124.53 266.348437) scale(0.1 -0.1)">
     <use xlink:href="#DejaVuSans-79"/>
    </g>
   </g>
   <g id="text_7">
    <!-- (y &gt;&gt; z) -->
    <g transform="translate(184.53 266.348437) scale(0.1 -0.1)">
     <use xlink:href="#DejaVuSans-28"/>
     <use xlink:href="#DejaVuSans-79" transform="translate(39.013672 0)"/>
     <use xlink:href="#DejaVuSans-20" transform="translate(98.193359 0)"/>
     <use xlink:href="#DejaVuSans-3e" transform="translate(129.980469 0)"/>
     <use xlink:href="#DejaVuSans-3e" transform="translate(213.769531 0)"/>
     <use xlink:href="#DejaVuSans-20" transform="translate(297.558594 0)"/>
     <use xlink:href="#DejaVuSans-7a" transform="translate(329.345703 0)"/>
     <use xlink:href="#DejaVuSans-29" transform="translate(381.835938 0)"/>
    </g>
   </g>
   <g id="text_8">
    <!-- x -->
    <g transform="translate(308.43 41.348437) scale(0.1 -0.1)">
     <use xlink:href="#DejaVuSans-78"/>
    </g>
   </g>
   <g id="text_9">
    <!-- (y &gt;&gt; z) -->
    <g transform="translate(308.43 206.348437) scale(0.1 -0.1)">
     <use xlink:href="#DejaVuSans-28"/>
     <use xlink:href="#DejaVuSans-79" transform="translate(39.013672 0)"/>
     <use xlink:href="#DejaVuSans-20" transform="translate(98.193359 0)"/>
     <use xlink:href="#DejaVuSans-3e" transform="translate(129.980469 0)"/>
     <use xlink:href="#DejaVuSans-3e" transform="translate(213.769531 0)"/>
     <use xlink:href="#DejaVuSans-20" transform="translate(297.558594 0)"/>
     <use xlink:href="#DejaVuSans-7a" transform="translate(329.345703 0)"/>
     <use xlink:href="#DejaVuSans-29" transform="translate(381.835938 0)"/>
    </g>
   </g>
   <g id="text_10">
    <!-- f -->
    <g transform="translate(179.019844 122.759375) scale(0.1 -0.1)">
     <defs>
      <path id="DejaVuSans-66" d="M 2375 4863 
L 2375 4384 
L 1825 4384 
Q 1516 4384 1395 4259 
Q 1275 4134 1275 3809 
L 1275 3500 
L 2222 3500 
L 2222 3053 
L 1275 3053 
L 1275 0 
L 697 0 
L 697 3053 
L 147 3053 
L 147 3500 
L 697 3500 
L 697 3744 
Q 697 4328 969 4595 
Q 1241 4863 1831 4863 
L 2375 4863 
z
" transform="scale(0.015625)"/>
     </defs>
     <use xlink:href="#DejaVuSans-66"/>
    </g>
   </g>
   <g id="text_11">
    <!-- __call__ -->
    <g transform="translate(132.188594 182.620313) scale(0.1 -0.1)">
     <defs>
      <path id="DejaVuSans-5f" d="M 3263 -1063 
L 3263 -1509 
L -63 -1509 
L -63 -1063 
L 3263 -1063 
z
" transform="scale(0.015625)"/>
      <path id="DejaVuSans-63" d="M 3122 3366 
L 3122 2828 
Q 2878 2963 2633 3030 
Q 2388 3097 2138 3097 
Q 1578 3097 1268 2742 
Q 959 2388 959 1747 
Q 959 1106 1268 751 
Q 1578 397 2138 397 
Q 2388 397 2633 464 
Q 2878 531 3122 666 
L 3122 134 
Q 2881 22 2623 -34 
Q 2366 -91 2075 -91 
Q 1284 -91 818 406 
Q 353 903 353 1747 
Q 353 2603 823 3093 
Q 1294 3584 2113 3584 
Q 2378 3584 2631 3529 
Q 2884 3475 3122 3366 
z
" transform="scale(0.015625)"/>
      <path id="DejaVuSans-61" d="M 2194 1759 
Q 1497 1759 1228 1600 
Q 959 1441 959 1056 
Q 959 750 1161 570 
Q 1363 391 1709 391 
Q 2188 391 2477 730 
Q 2766 1069 2766 1631 
L 2766 1759 
L 2194 1759 
z
M 3341 1997 
L 3341 0 
L 2766 0 
L 2766 531 
Q 2569 213 2275 61 
Q 1981 -91 1556 -91 
Q 1019 -91 701 211 
Q 384 513 384 1019 
Q 384 1609 779 1909 
Q 1175 2209 1959 2209 
L 2766 2209 
L 2766 2266 
Q 2766 2663 2505 2880 
Q 2244 3097 1772 3097 
Q 1472 3097 1187 3025 
Q 903 2953 641 2809 
L 641 3341 
Q 956 3463 1253 3523 
Q 1550 3584 1831 3584 
Q 2591 3584 2966 3190 
Q 3341 2797 3341 1997 
z
" transform="scale(0.015625)"/>
      <path id="DejaVuSans-6c" d="M 603 4863 
L 1178 4863 
L 1178 0 
L 603 0 
L 603 4863 
z
" transform="scale(0.015625)"/>
     </defs>
     <use xlink:href="#DejaVuSans-5f"/>
     <use xlink:href="#DejaVuSans-5f" transform="translate(50 0)"/>
     <use xlink:href="#DejaVuSans-63" transform="translate(100 0)"/>
     <use xlink:href="#DejaVuSans-61" transform="translate(154.980469 0)"/>
     <use xlink:href="#DejaVuSans-6c" transform="translate(216.259766 0)"/>
     <use xlink:href="#DejaVuSans-6c" transform="translate(244.042969 0)"/>
     <use xlink:href="#DejaVuSans-5f" transform="translate(271.826172 0)"/>
     <use xlink:href="#DejaVuSans-5f" transform="translate(321.826172 0)"/>
    </g>
   </g>
   <g id="text_12">
    <!-- lambda -->
    <g transform="translate(132.044062 242.759375) scale(0.1 -0.1)">
     <defs>
      <path id="DejaVuSans-6d" d="M 3328 2828 
Q 3544 3216 3844 3400 
Q 4144 3584 4550 3584 
Q 5097 3584 5394 3201 
Q 5691 2819 5691 2113 
L 5691 0 
L 5113 0 
L 5113 2094 
Q 5113 2597 4934 2840 
Q 4756 3084 4391 3084 
Q 3944 3084 3684 2787 
Q 3425 2491 3425 1978 
L 3425 0 
L 2847 0 
L 2847 2094 
Q 2847 2600 2669 2842 
Q 2491 3084 2119 3084 
Q 1678 3084 1418 2786 
Q 1159 2488 1159 1978 
L 1159 0 
L 581 0 
L 581 3500 
L 1159 3500 
L 1159 2956 
Q 1356 3278 1631 3431 
Q 1906 3584 2284 3584 
Q 2666 3584 2933 3390 
Q 3200 3197 3328 2828 
z
" transform="scale(0.015625)"/>
      <path id="DejaVuSans-62" d="M 3116 1747 
Q 3116 2381 2855 2742 
Q 2594 3103 2138 3103 
Q 1681 3103 1420 2742 
Q 1159 2381 1159 1747 
Q 1159 1113 1420 752 
Q 1681 391 2138 391 
Q 2594 391 2855 752 
Q 3116 1113 3116 1747 
z
M 1159 2969 
Q 1341 3281 1617 3432 
Q 1894 3584 2278 3584 
Q 2916 3584 3314 3078 
Q 3713 2572 3713 1747 
Q 3713 922 3314 415 
Q 2916 -91 2278 -91 
Q 1894 -91 1617 61 
Q 1341 213 1159 525 
L 1159 0 
L 581 0 
L 581 4863 
L 1159 4863 
L 1159 2969 
z
" transform="scale(0.015625)"/>
      <path id="DejaVuSans-64" d="M 2906 2969 
L 2906 4863 
L 3481 4863 
L 3481 0 
L 2906 0 
L 2906 525 
Q 2725 213 2448 61 
Q 2172 -91 1784 -91 
Q 1150 -91 751 415 
Q 353 922 353 1747 
Q 353 2572 751 3078 
Q 1150 3584 1784 3584 
Q 2172 3584 2448 3432 
Q 2725 3281 2906 2969 
z
M 947 1747 
Q 947 1113 1208 752 
Q 1469 391 1925 391 
Q 2381 391 2643 752 
Q 2906 1113 2906 1747 
Q 2906 2381 2643 2742 
Q 2381 3103 1925 3103 
Q 1469 3103 1208 2742 
Q 947 2381 947 1747 
z
" transform="scale(0.015625)"/>
     </defs>
     <use xlink:href="#DejaVuSans-6c"/>
     <use xlink:href="#DejaVuSans-61" transform="translate(27.783203 0)"/>
     <use xlink:href="#DejaVuSans-6d" transform="translate(89.0625 0)"/>
     <use xlink:href="#DejaVuSans-62" transform="translate(186.474609 0)"/>
     <use xlink:href="#DejaVuSans-64" transform="translate(249.951172 0)"/>
     <use xlink:href="#DejaVuSans-61" transform="translate(313.427734 0)"/>
    </g>
   </g>
   <g id="text_13">
    <!-- f -->
    <g transform="translate(302.919844 182.759375) scale(0.1 -0.1)">
     <use xlink:href="#DejaVuSans-66"/>
    </g>
   </g>
   <g id="text_14">
    <g clip-path="url(#p4a161205c9)">
     <!-- = -->
     <g transform="translate(239.652187 183.31125) scale(0.12 -0.12)">
      <defs>
       <path id="DejaVuSans-3d" d="M 678 2906 
L 4684 2906 
L 4684 2381 
L 678 2381 
L 678 2906 
z
M 678 1631 
L 4684 1631 
L 4684 1100 
L 678 1100 
L 678 1631 
z
" transform="scale(0.015625)"/>
      </defs>
      <use xlink:href="#DejaVuSans-3d"/>
     </g>
    </g>
   </g>
  </g>
 </g>
 <defs>
  <clipPath id="p4a161205c9">
   <rect x="0" y="15" width="369.36" height="330"/>
  </clipPath>
 </defs>
</svg>
