<?xml version="1.0" encoding="utf-8" standalone="no"?>
<!DOCTYPE svg PUBLIC "-//W3C//DTD SVG 1.1//EN"
  "http://www.w3.org/Graphics/SVG/1.1/DTD/svg11.dtd">
<svg xmlns:xlink="http://www.w3.org/1999/xlink" width="576pt" height="576pt" viewBox="0 0 576 576" xmlns="http://www.w3.org/2000/svg" version="1.1">
 <metadata>
  <rdf:RDF xmlns:dc="http://purl.org/dc/elements/1.1/" xmlns:cc="http://creativecommons.org/ns#" xmlns:rdf="http://www.w3.org/1999/02/22-rdf-syntax-ns#">
   <cc:Work>
    <dc:type rdf:resource="http://purl.org/dc/dcmitype/StillImage"/>
    <dc:format>image/svg+xml</dc:format>
    <dc:creator>
     <cc:Agent>
      <dc:title>Matplotlib v3.10.9, https://matplotlib.org/</dc:title>
     </cc:Agent>
    </dc:creator>
   </cc:Work>
  </rdf:RDF>
 </metadata>
 <defs>
  <style type="text/css">*{stroke-linejoin: round; stroke-linecap: butt}</style>
 </defs>
 <g id="figure_1">
  <g id="patch_1">
   <path d="M 0 576 
L 576 576 
L 576 0 
L 0 0 
z
" style="fill: #ffffff"/>
  </g>
  <g id="axes_1">
   <g id="patch_2">
    <path d="M 82.285714 576 
L 493.714286 576 
L 493.714286 0 
L 82.285714 0 
z
" clip-path="url(#p616c813eb8)" style="fill: #ffffff; stroke: #ffffff; stroke-linejoin: miter"/>
   </g>
   <g id="patch_3">
    <path d="M 82.285714 576 
Q 82.285714 0 82.285714 0 
L 493.714286 0 
L 493.714286 576 
z
" clip-path="url(#p616c813eb8)" style="fill: #ffffff"/>
   </g>
   <g id="patch_4">
    <path d="M 133.625383 486 
Q 133.625383 576 133.625383 576 
L 493.714286 576 
L 493.714286 486 
z
" clip-path="url(#p616c813eb8)" style="fill: #ffffff"/>
   </g>
   <g id="patch_5">
    <path d="M 159.966927 72 
Q 159.966927 144 159.966927 144 
L 493.714286 144 
L 493.714286 72 
z
" clip-path="url(#p616c813eb8)" style="fill: #ffffff"/>
   </g>
   <g id="patch_6">
    <path d="M 159.966927 216 
Q 159.966927 234 159.966927 234 
L 493.714286 234 
L 493.714286 216 
z
" clip-path="url(#p616c813eb8)" style="fill: #ffffff"/>
   </g>
   <g id="patch_7">
    <path d="M 159.966927 342 
Q 159.966927 450 159.966927 450 
L 493.714286 450 
L 493.714286 342 
z
" clip-path="url(#p616c813eb8)" style="fill: #ffffff"/>
   </g>
   <g id="patch_8">
    <path d="M 246.077433 180 
Q 159.966927 180 159.966927 216 
L 493.714286 216 
L 493.714286 180 
z
" clip-path="url(#p616c813eb8)" style="fill: #ffffff"/>
   </g>
   <g id="patch_9">
    <path d="M 159.966927 144 
Q 159.966927 180 246.077433 180 
L 493.714286 180 
L 493.714286 144 
z
" clip-path="url(#p616c813eb8)" style="fill: #ffffff"/>
   </g>
   <g id="patch_10">
    <path d="M 313.669834 36 
Q 159.966927 36 159.966927 72 
L 493.714286 72 
L 493.714286 36 
z
" clip-path="url(#p616c813eb8)" style="fill: #ffffff"/>
   </g>
   <g id="patch_11">
    <path d="M 262.646264 270 
Q 262.646264 306 262.646264 306 
L 493.714286 306 
L 493.714286 270 
z
" clip-path="url(#p616c813eb8)" style="fill: #ffffff"/>
   </g>
   <g id="patch_12">
    <path d="M 262.646264 486 
Q 262.646264 504 262.646264 504 
L 493.714286 504 
L 493.714286 486 
z
" clip-path="url(#p616c813eb8)" style="fill: #ffffff"/>
   </g>
   <g id="patch_13">
    <path d="M 275.817036 450 
Q 275.817036 486 275.817036 486 
L 493.714286 486 
L 493.714286 450 
z
" clip-path="url(#p616c813eb8)" style="fill: #ffffff"/>
   </g>
   <g id="patch_14">
    <path d="M 246.077433 180 
Q 332.18794 180 332.18794 216 
L 493.714286 216 
L 493.714286 180 
z
" clip-path="url(#p616c813eb8)" style="fill: #ffffff"/>
   </g>
   <g id="patch_15">
    <path d="M 332.18794 144 
Q 332.18794 180 246.077433 180 
L 493.714286 180 
L 493.714286 144 
z
" clip-path="url(#p616c813eb8)" style="fill: #ffffff"/>
   </g>
   <g id="patch_16">
    <path d="M 262.646264 504 
Q 262.646264 540 365.009503 540 
L 493.714286 540 
L 493.714286 504 
z
" clip-path="url(#p616c813eb8)" style="fill: #ffffff"/>
   </g>
   <g id="patch_17">
    <path d="M 332.18794 216 
Q 332.18794 234 332.18794 234 
L 493.714286 234 
L 493.714286 216 
z
" clip-path="url(#p616c813eb8)" style="fill: #ffffff"/>
   </g>
   <g id="patch_18">
    <path d="M 332.18794 342 
Q 332.18794 360 332.18794 360 
L 493.714286 360 
L 493.714286 342 
z
" clip-path="url(#p616c813eb8)" style="fill: #ffffff"/>
   </g>
   <g id="patch_19">
    <path d="M 345.358711 234 
Q 345.358711 270 345.358711 270 
L 493.714286 270 
L 493.714286 234 
z
" clip-path="url(#p616c813eb8)" style="fill: #ffffff"/>
   </g>
   <g id="patch_20">
    <path d="M 345.358711 306 
Q 345.358711 342 345.358711 342 
L 493.714286 342 
L 493.714286 306 
z
" clip-path="url(#p616c813eb8)" style="fill: #ffffff"/>
   </g>
   <g id="patch_21">
    <path d="M 368.091464 108 
Q 332.18794 108 332.18794 144 
L 493.714286 144 
L 493.714286 108 
z
" clip-path="url(#p616c813eb8)" style="fill: #ffffff"/>
   </g>
   <g id="patch_22">
    <path d="M 332.18794 360 
Q 332.18794 396 368.091464 396 
L 493.714286 396 
L 493.714286 360 
z
" clip-path="url(#p616c813eb8)" style="fill: #ffffff"/>
   </g>
   <g id="patch_23">
    <path d="M 368.091464 108 
Q 403.994988 108 403.994988 144 
L 493.714286 144 
L 493.714286 108 
z
" clip-path="url(#p616c813eb8)" style="fill: #ffffff"/>
   </g>
   <g id="patch_24">
    <path d="M 403.994988 360 
Q 403.994988 396 368.091464 396 
L 493.714286 396 
L 493.714286 360 
z
" clip-path="url(#p616c813eb8)" style="fill: #ffffff"/>
   </g>
   <g id="patch_25">
    <path d="M 313.669834 36 
Q 467.372742 36 467.372742 72 
L 493.714286 72 
L 493.714286 36 
z
" clip-path="url(#p616c813eb8)" style="fill: #ffffff"/>
   </g>
   <g id="patch_26">
    <path d="M 403.994988 144 
Q 403.994988 360 403.994988 360 
L 493.714286 360 
L 493.714286 144 
z
" clip-path="url(#p616c813eb8)" style="fill: #ffffff"/>
   </g>
   <g id="patch_27">
    <path d="M 467.372742 504 
Q 467.372742 540 365.009503 540 
L 493.714286 540 
L 493.714286 504 
z
" clip-path="url(#p616c813eb8)" style="fill: #ffffff"/>
   </g>
   <g id="patch_28">
    <path d="M 467.372742 72 
Q 467.372742 504 467.372742 504 
L 493.714286 504 
L 493.714286 72 
z
" clip-path="url(#p616c813eb8)" style="fill: #ffffff"/>
   </g>
   <g id="patch_29">
    <path d="M 159.966927 144 
C 159.966927 180 332.18794 180 332.18794 216 
" clip-path="url(#p616c813eb8)" style="fill: none; stroke: #000000; stroke-linejoin: miter"/>
   </g>
   <g id="patch_30">
    <path d="M 332.18794 144 
C 332.18794 180 159.966927 180 159.966927 216 
" clip-path="url(#p616c813eb8)" style="fill: none; stroke: #000000; stroke-linejoin: miter"/>
   </g>
   <g id="patch_31">
    <path d="M 313.669834 36 
Q 159.966927 36 159.966927 72 
" clip-path="url(#p616c813eb8)" style="fill: none; stroke: #000000; stroke-linejoin: miter"/>
   </g>
   <g id="patch_32">
    <path d="M 313.669834 36 
Q 467.372742 36 467.372742 72 
" clip-path="url(#p616c813eb8)" style="fill: none; stroke: #000000; stroke-linejoin: miter"/>
   </g>
   <g id="patch_33">
    <path d="M 159.966927 72 
Q 159.966927 144 159.966927 144 
" clip-path="url(#p616c813eb8)" style="fill: none; stroke: #000000; stroke-linejoin: miter"/>
   </g>
   <g id="patch_34">
    <path d="M 467.372742 72 
Q 467.372742 504 467.372742 504 
" clip-path="url(#p616c813eb8)" style="fill: none; stroke: #000000; stroke-linejoin: miter"/>
   </g>
   <g id="patch_35">
    <path d="M 368.091464 108 
Q 332.18794 108 332.18794 144 
" clip-path="url(#p616c813eb8)" style="fill: none; stroke: #000000; stroke-linejoin: miter"/>
   </g>
   <g id="patch_36">
    <path d="M 368.091464 108 
Q 403.994988 108 403.994988 144 
" clip-path="url(#p616c813eb8)" style="fill: none; stroke: #000000; stroke-linejoin: miter"/>
   </g>
   <g id="patch_37">
    <path d="M 403.994988 144 
Q 403.994988 360 403.994988 360 
" clip-path="url(#p616c813eb8)" style="fill: none; stroke: #000000; stroke-linejoin: miter"/>
   </g>
   <g id="patch_38">
    <path d="M 159.966927 216 
Q 159.966927 234 159.966927 234 
" clip-path="url(#p616c813eb8)" style="fill: none; stroke: #000000; stroke-linejoin: miter"/>
   </g>
   <g id="patch_39">
    <path d="M 332.18794 216 
Q 332.18794 234 332.18794 234 
" clip-path="url(#p616c813eb8)" style="fill: none; stroke: #000000; stroke-linejoin: miter"/>
   </g>
   <g id="patch_40">
    <path d="M 262.646264 270 
Q 262.646264 306 262.646264 306 
" clip-path="url(#p616c813eb8)" style="fill: none; stroke: #000000; stroke-linejoin: miter"/>
   </g>
   <g id="patch_41">
    <path d="M 159.966927 342 
Q 159.966927 450 159.966927 450 
" clip-path="url(#p616c813eb8)" style="fill: none; stroke: #000000; stroke-linejoin: miter"/>
   </g>
   <g id="patch_42">
    <path d="M 332.18794 342 
Q 332.18794 360 332.18794 360 
" clip-path="url(#p616c813eb8)" style="fill: none; stroke: #000000; stroke-linejoin: miter"/>
   </g>
   <g id="patch_43">
    <path d="M 332.18794 360 
Q 332.18794 396 368.091464 396 
" clip-path="url(#p616c813eb8)" style="fill: none; stroke: #000000; stroke-linejoin: miter"/>
   </g>
   <g id="patch_44">
    <path d="M 403.994988 360 
Q 403.994988 396 368.091464 396 
" clip-path="url(#p616c813eb8)" style="fill: none; stroke: #000000; stroke-linejoin: miter"/>
   </g>
   <g id="patch_45">
    <path d="M 133.625383 486 
Q 133.625383 576 133.625383 576 
" clip-path="url(#p616c813eb8)" style="fill: none; stroke: #000000; stroke-linejoin: miter"/>
   </g>
   <g id="patch_46">
    <path d="M 262.646264 486 
Q 262.646264 504 262.646264 504 
" clip-path="url(#p616c813eb8)" style="fill: none; stroke: #000000; stroke-linejoin: miter"/>
   </g>
   <g id="patch_47">
    <path d="M 262.646264 504 
Q 262.646264 540 365.009503 540 
" clip-path="url(#p616c813eb8)" style="fill: none; stroke: #000000; stroke-linejoin: miter"/>
   </g>
   <g id="patch_48">
    <path d="M 467.372742 504 
Q 467.372742 540 365.009503 540 
" clip-path="url(#p616c813eb8)" style="fill: none; stroke: #000000; stroke-linejoin: miter"/>
   </g>
   <g id="patch_49">
    <path d="M 146.796155 270 
L 146.796155 234 
L 345.358711 234 
L 345.358711 270 
z
" clip-path="url(#p616c813eb8)" style="fill: #ffffff; stroke: #000000; stroke-linejoin: miter"/>
   </g>
   <g id="patch_50">
    <path d="M 146.796155 342 
L 146.796155 306 
L 345.358711 306 
L 345.358711 342 
z
" clip-path="url(#p616c813eb8)" style="fill: #ffffff; stroke: #000000; stroke-linejoin: miter"/>
   </g>
   <g id="patch_51">
    <path d="M 120.454611 486 
L 120.454611 450 
L 275.817036 450 
L 275.817036 486 
z
" clip-path="url(#p616c813eb8)" style="fill: #ffffff; stroke: #000000; stroke-linejoin: miter"/>
   </g>
   <g id="text_1">
    <!-- X -->
    <g transform="translate(163.25962 66.098437) scale(0.1 -0.1)">
     <defs>
      <path id="DejaVuSans-58" d="M 403 4666 
L 1081 4666 
L 2241 2931 
L 3406 4666 
L 4084 4666 
L 2584 2425 
L 4184 0 
L 3506 0 
L 2194 1984 
L 872 0 
L 191 0 
L 1856 2491 
L 403 4666 
z
" transform="scale(0.015625)"/>
     </defs>
     <use xlink:href="#DejaVuSans-58"/>
    </g>
   </g>
   <g id="text_2">
    <!-- X -->
    <g transform="translate(470.665435 66.098437) scale(0.1 -0.1)">
     <use xlink:href="#DejaVuSans-58"/>
    </g>
   </g>
   <g id="text_3">
    <!-- (X &gt;&gt; Y) -->
    <g transform="translate(335.480633 138.098437) scale(0.1 -0.1)">
     <defs>
      <path id="DejaVuSans-28" d="M 1984 4856 
Q 1566 4138 1362 3434 
Q 1159 2731 1159 2009 
Q 1159 1288 1364 580 
Q 1569 -128 1984 -844 
L 1484 -844 
Q 1016 -109 783 600 
Q 550 1309 550 2009 
Q 550 2706 781 3412 
Q 1013 4119 1484 4856 
L 1984 4856 
z
" transform="scale(0.015625)"/>
      <path id="DejaVuSans-20" transform="scale(0.015625)"/>
      <path id="DejaVuSans-3e" d="M 678 3150 
L 678 3719 
L 4684 2266 
L 4684 1747 
L 678 294 
L 678 863 
L 3897 2003 
L 678 3150 
z
" transform="scale(0.015625)"/>
      <path id="DejaVuSans-59" d="M -13 4666 
L 666 4666 
L 1959 2747 
L 3244 4666 
L 3922 4666 
L 2272 2222 
L 2272 0 
L 1638 0 
L 1638 2222 
L -13 4666 
z
" transform="scale(0.015625)"/>
      <path id="DejaVuSans-29" d="M 513 4856 
L 1013 4856 
Q 1481 4119 1714 3412 
Q 1947 2706 1947 2009 
Q 1947 1309 1714 600 
Q 1481 -109 1013 -844 
L 513 -844 
Q 928 -128 1133 580 
Q 1338 1288 1338 2009 
Q 1338 2731 1133 3434 
Q 928 4138 513 4856 
z
" transform="scale(0.015625)"/>
     </defs>
     <use xlink:href="#DejaVuSans-28"/>
     <use xlink:href="#DejaVuSans-58" transform="translate(39.013672 0)"/>
     <use xlink:href="#DejaVuSans-20" transform="translate(107.519531 0)"/>
     <use xlink:href="#DejaVuSans-3e" transform="translate(139.306641 0)"/>
     <use xlink:href="#DejaVuSans-3e" transform="translate(223.095703 0)"/>
     <use xlink:href="#DejaVuSans-20" transform="translate(306.884766 0)"/>
     <use xlink:href="#DejaVuSans-59" transform="translate(338.671875 0)"/>
     <use xlink:href="#DejaVuSans-29" transform="translate(399.755859 0)"/>
    </g>
   </g>
   <g id="text_4">
    <!-- (X &gt;&gt; Y) -->
    <g transform="translate(407.287681 138.098437) scale(0.1 -0.1)">
     <use xlink:href="#DejaVuSans-28"/>
     <use xlink:href="#DejaVuSans-58" transform="translate(39.013672 0)"/>
     <use xlink:href="#DejaVuSans-20" transform="translate(107.519531 0)"/>
     <use xlink:href="#DejaVuSans-3e" transform="translate(139.306641 0)"/>
     <use xlink:href="#DejaVuSans-3e" transform="translate(223.095703 0)"/>
     <use xlink:href="#DejaVuSans-20" transform="translate(306.884766 0)"/>
     <use xlink:href="#DejaVuSans-59" transform="translate(338.671875 0)"/>
     <use xlink:href="#DejaVuSans-29" transform="translate(399.755859 0)"/>
    </g>
   </g>
   <g id="text_5">
    <!-- (X &gt;&gt; Y) -->
    <g transform="translate(163.25962 210.098437) scale(0.1 -0.1)">
     <use xlink:href="#DejaVuSans-28"/>
     <use xlink:href="#DejaVuSans-58" transform="translate(39.013672 0)"/>
     <use xlink:href="#DejaVuSans-20" transform="translate(107.519531 0)"/>
     <use xlink:href="#DejaVuSans-3e" transform="translate(139.306641 0)"/>
     <use xlink:href="#DejaVuSans-3e" transform="translate(223.095703 0)"/>
     <use xlink:href="#DejaVuSans-20" transform="translate(306.884766 0)"/>
     <use xlink:href="#DejaVuSans-59" transform="translate(338.671875 0)"/>
     <use xlink:href="#DejaVuSans-29" transform="translate(399.755859 0)"/>
    </g>
   </g>
   <g id="text_6">
    <!-- X -->
    <g transform="translate(335.480633 210.098437) scale(0.1 -0.1)">
     <use xlink:href="#DejaVuSans-58"/>
    </g>
   </g>
   <g id="text_7">
    <!-- Y -->
    <g transform="translate(265.938957 282.098437) scale(0.1 -0.1)">
     <use xlink:href="#DejaVuSans-59"/>
    </g>
   </g>
   <g id="text_8">
    <!-- ((X &gt;&gt; Y) &gt;&gt; Y) -->
    <g transform="translate(163.25962 354.098437) scale(0.1 -0.1)">
     <use xlink:href="#DejaVuSans-28"/>
     <use xlink:href="#DejaVuSans-28" transform="translate(39.013672 0)"/>
     <use xlink:href="#DejaVuSans-58" transform="translate(78.027344 0)"/>
     <use xlink:href="#DejaVuSans-20" transform="translate(146.533203 0)"/>
     <use xlink:href="#DejaVuSans-3e" transform="translate(178.320312 0)"/>
     <use xlink:href="#DejaVuSans-3e" transform="translate(262.109375 0)"/>
     <use xlink:href="#DejaVuSans-20" transform="translate(345.898438 0)"/>
     <use xlink:href="#DejaVuSans-59" transform="translate(377.685547 0)"/>
     <use xlink:href="#DejaVuSans-29" transform="translate(438.769531 0)"/>
     <use xlink:href="#DejaVuSans-20" transform="translate(477.783203 0)"/>
     <use xlink:href="#DejaVuSans-3e" transform="translate(509.570312 0)"/>
     <use xlink:href="#DejaVuSans-3e" transform="translate(593.359375 0)"/>
     <use xlink:href="#DejaVuSans-20" transform="translate(677.148438 0)"/>
     <use xlink:href="#DejaVuSans-59" transform="translate(708.935547 0)"/>
     <use xlink:href="#DejaVuSans-29" transform="translate(770.019531 0)"/>
    </g>
   </g>
   <g id="text_9">
    <!-- (X &gt;&gt; Y) -->
    <g transform="translate(335.480633 354.098437) scale(0.1 -0.1)">
     <use xlink:href="#DejaVuSans-28"/>
     <use xlink:href="#DejaVuSans-58" transform="translate(39.013672 0)"/>
     <use xlink:href="#DejaVuSans-20" transform="translate(107.519531 0)"/>
     <use xlink:href="#DejaVuSans-3e" transform="translate(139.306641 0)"/>
     <use xlink:href="#DejaVuSans-3e" transform="translate(223.095703 0)"/>
     <use xlink:href="#DejaVuSans-20" transform="translate(306.884766 0)"/>
     <use xlink:href="#DejaVuSans-59" transform="translate(338.671875 0)"/>
     <use xlink:href="#DejaVuSans-29" transform="translate(399.755859 0)"/>
    </g>
   </g>
   <g id="text_10">
    <!-- (X &gt;&gt; ((X &gt;&gt; Y) &gt;&gt; Y)) -->
    <g transform="translate(136.918076 498.098437) scale(0.1 -0.1)">
     <use xlink:href="#DejaVuSans-28"/>
     <use xlink:href="#DejaVuSans-58" transform="translate(39.013672 0)"/>
     <use xlink:href="#DejaVuSans-20" transform="translate(107.519531 0)"/>
     <use xlink:href="#DejaVuSans-3e" transform="translate(139.306641 0)"/>
     <use xlink:href="#DejaVuSans-3e" transform="translate(223.095703 0)"/>
     <use xlink:href="#DejaVuSans-20" transform="translate(306.884766 0)"/>
     <use xlink:href="#DejaVuSans-28" transform="translate(338.671875 0)"/>
     <use xlink:href="#DejaVuSans-28" transform="translate(377.685547 0)"/>
     <use xlink:href="#DejaVuSans-58" transform="translate(416.699219 0)"/>
     <use xlink:href="#DejaVuSans-20" transform="translate(485.205078 0)"/>
     <use xlink:href="#DejaVuSans-3e" transform="translate(516.992188 0)"/>
     <use xlink:href="#DejaVuSans-3e" transform="translate(600.78125 0)"/>
     <use xlink:href="#DejaVuSans-20" transform="translate(684.570312 0)"/>
     <use xlink:href="#DejaVuSans-59" transform="translate(716.357422 0)"/>
     <use xlink:href="#DejaVuSans-29" transform="translate(777.441406 0)"/>
     <use xlink:href="#DejaVuSans-20" transform="translate(816.455078 0)"/>
     <use xlink:href="#DejaVuSans-3e" transform="translate(848.242188 0)"/>
     <use xlink:href="#DejaVuSans-3e" transform="translate(932.03125 0)"/>
     <use xlink:href="#DejaVuSans-20" transform="translate(1015.820312 0)"/>
     <use xlink:href="#DejaVuSans-59" transform="translate(1047.607422 0)"/>
     <use xlink:href="#DejaVuSans-29" transform="translate(1108.691406 0)"/>
     <use xlink:href="#DejaVuSans-29" transform="translate(1147.705078 0)"/>
    </g>
   </g>
   <g id="text_11">
    <!-- X -->
    <g transform="translate(265.938957 498.098437) scale(0.1 -0.1)">
     <use xlink:href="#DejaVuSans-58"/>
    </g>
   </g>
   <g id="text_12">
    <!-- __call__ -->
    <g transform="translate(227.486027 254.620313) scale(0.1 -0.1)">
     <defs>
      <path id="DejaVuSans-5f" d="M 3263 -1063 
L 3263 -1509 
L -63 -1509 
L -63 -1063 
L 3263 -1063 
z
" transform="scale(0.015625)"/>
      <path id="DejaVuSans-63" d="M 3122 3366 
L 3122 2828 
Q 2878 2963 2633 3030 
Q 2388 3097 2138 3097 
Q 1578 3097 1268 2742 
Q 959 2388 959 1747 
Q 959 1106 1268 751 
Q 1578 397 2138 397 
Q 2388 397 2633 464 
Q 2878 531 3122 666 
L 3122 134 
Q 2881 22 2623 -34 
Q 2366 -91 2075 -91 
Q 1284 -91 818 406 
Q 353 903 353 1747 
Q 353 2603 823 3093 
Q 1294 3584 2113 3584 
Q 2378 3584 2631 3529 
Q 2884 3475 3122 3366 
z
" transform="scale(0.015625)"/>
      <path id="DejaVuSans-61" d="M 2194 1759 
Q 1497 1759 1228 1600 
Q 959 1441 959 1056 
Q 959 750 1161 570 
Q 1363 391 1709 391 
Q 2188 391 2477 730 
Q 2766 1069 2766 1631 
L 2766 1759 
L 2194 1759 
z
M 3341 1997 
L 3341 0 
L 2766 0 
L 2766 531 
Q 2569 213 2275 61 
Q 1981 -91 1556 -91 
Q 1019 -91 701 211 
Q 384 513 384 1019 
Q 384 1609 779 1909 
Q 1175 2209 1959 2209 
L 2766 2209 
L 2766 2266 
Q 2766 2663 2505 2880 
Q 2244 3097 1772 3097 
Q 1472 3097 1187 3025 
Q 903 2953 641 2809 
L 641 3341 
Q 956 3463 1253 3523 
Q 1550 3584 1831 3584 
Q 2591 3584 2966 3190 
Q 3341 2797 3341 1997 
z
" transform="scale(0.015625)"/>
      <path id="DejaVuSans-6c" d="M 603 4863 
L 1178 4863 
L 1178 0 
L 603 0 
L 603 4863 
z
" transform="scale(0.015625)"/>
     </defs>
     <use xlink:href="#DejaVuSans-5f"/>
     <use xlink:href="#DejaVuSans-5f" transform="translate(50 0)"/>
     <use xlink:href="#DejaVuSans-63" transform="translate(100 0)"/>
     <use xlink:href="#DejaVuSans-61" transform="translate(154.980469 0)"/>
     <use xlink:href="#DejaVuSans-6c" transform="translate(216.259766 0)"/>
     <use xlink:href="#DejaVuSans-6c" transform="translate(244.042969 0)"/>
     <use xlink:href="#DejaVuSans-5f" transform="translate(271.826172 0)"/>
     <use xlink:href="#DejaVuSans-5f" transform="translate(321.826172 0)"/>
    </g>
   </g>
   <g id="text_13">
    <!-- lambda -->
    <g transform="translate(227.341496 326.759375) scale(0.1 -0.1)">
     <defs>
      <path id="DejaVuSans-6d" d="M 3328 2828 
Q 3544 3216 3844 3400 
Q 4144 3584 4550 3584 
Q 5097 3584 5394 3201 
Q 5691 2819 5691 2113 
L 5691 0 
L 5113 0 
L 5113 2094 
Q 5113 2597 4934 2840 
Q 4756 3084 4391 3084 
Q 3944 3084 3684 2787 
Q 3425 2491 3425 1978 
L 3425 0 
L 2847 0 
L 2847 2094 
Q 2847 2600 2669 2842 
Q 2491 3084 2119 3084 
Q 1678 3084 1418 2786 
Q 1159 2488 1159 1978 
L 1159 0 
L 581 0 
L 581 3500 
L 1159 3500 
L 1159 2956 
Q 1356 3278 1631 3431 
Q 1906 3584 2284 3584 
Q 2666 3584 2933 3390 
Q 3200 3197 3328 2828 
z
" transform="scale(0.015625)"/>
      <path id="DejaVuSans-62" d="M 3116 1747 
Q 3116 2381 2855 2742 
Q 2594 3103 2138 3103 
Q 1681 3103 1420 2742 
Q 1159 2381 1159 1747 
Q 1159 1113 1420 752 
Q 1681 391 2138 391 
Q 2594 391 2855 752 
Q 3116 1113 3116 1747 
z
M 1159 2969 
Q 1341 3281 1617 3432 
Q 1894 3584 2278 3584 
Q 2916 3584 3314 3078 
Q 3713 2572 3713 1747 
Q 3713 922 3314 415 
Q 2916 -91 2278 -91 
Q 1894 -91 1617 61 
Q 1341 213 1159 525 
L 1159 0 
L 581 0 
L 581 4863 
L 1159 4863 
L 1159 2969 
z
" transform="scale(0.015625)"/>
      <path id="DejaVuSans-64" d="M 2906 2969 
L 2906 4863 
L 3481 4863 
L 3481 0 
L 2906 0 
L 2906 525 
Q 2725 213 2448 61 
Q 2172 -91 1784 -91 
Q 1150 -91 751 415 
Q 353 922 353 1747 
Q 353 2572 751 3078 
Q 1150 3584 1784 3584 
Q 2172 3584 2448 3432 
Q 2725 3281 2906 2969 
z
M 947 1747 
Q 947 1113 1208 752 
Q 1469 391 1925 391 
Q 2381 391 2643 752 
Q 2906 1113 2906 1747 
Q 2906 2381 2643 2742 
Q 2381 3103 1925 3103 
Q 1469 3103 1208 2742 
Q 947 2381 947 1747 
z
" transform="scale(0.015625)"/>
     </defs>
     <use xlink:href="#DejaVuSans-6c"/>
     <use xlink:href="#DejaVuSans-61" transform="translate(27.783203 0)"/>
     <use xlink:href="#DejaVuSans-6d" transform="translate(89.0625 0)"/>
     <use xlink:href="#DejaVuSans-62" transform="translate(186.474609 0)"/>
     <use xlink:href="#DejaVuSans-64" transform="translate(249.951172 0)"/>
     <use xlink:href="#DejaVuSans-61" transform="translate(313.427734 0)"/>
    </g>
   </g>
   <g id="text_14">
    <!-- lambda -->
    <g transform="translate(179.399886 470.759375) scale(0.1 -0.1)">
     <use xlink:href="#DejaVuSans-6c"/>
     <use xlink:href="#DejaVuSans-61" transform="translate(27.783203 0)"/>
     <use xlink:href="#DejaVuSans-6d" transform="translate(89.0625 0)"/>
     <use xlink:href="#DejaVuSans-62" transform="translate(186.474609 0)"/>
     <use xlink:href="#DejaVuSans-64" transform="translate(249.951172 0)"/>
     <use xlink:href="#DejaVuSans-61" transform="translate(313.427734 0)"/>
    </g>
   </g>
  </g>
 </g>
 <defs>
  <clipPath id="p616c813eb8">
   <rect x="0" y="0" width="576" height="576"/>
  </clipPath>
 </defs>
</svg>
