<?xml version="1.0" encoding="utf-8" standalone="no"?>
<!DOCTYPE svg PUBLIC "-//W3C//DTD SVG 1.1//EN"
  "http://www.w3.org/Graphics/SVG/1.1/DTD/svg11.dtd">
<svg xmlns:xlink="http://www.w3.org/1999/xlink" width="516.24pt" height="360pt" viewBox="0 0 516.24 360" xmlns="http://www.w3.org/2000/svg" version="1.1">
 <metadata>
  <rdf:RDF xmlns:dc="http://purl.org/dc/elements/1.1/" xmlns:cc="http://creativecommons.org/ns#" xmlns:rdf="http://www.w3.org/1999/02/22-rdf-syntax-ns#">
   <cc:Work>
    <dc:type rdf:resource="http://purl.org/dc/dcmitype/StillImage"/>
    <dc:format>image/svg+xml</dc:format>
    <dc:creator>
     <cc:Agent>
      <dc:title>Matplotlib v3.10.9, https://matplotlib.org/</dc:title>
     </cc:Agent>
    </dc:creator>
   </cc:Work>
  </rdf:RDF>
 </metadata>
 <defs>
  <style type="text/css">*{stroke-linejoin: round; stroke-linecap: butt}</style>
 </defs>
 <g id="figure_1">
  <g id="patch_1">
   <path d="M 0 360 
L 516.24 360 
L 516.24 0 
L 0 0 
z
" style="fill: #ffffff"/>
  </g>
  <g id="axes_1">
   <g id="patch_2">
    <path d="M 0 359.924718 
L 516.24 359.924718 
L 516.24 0.075282 
L 0 0.075282 
z
" clip-path="url(#pafaa585ab4)" style="fill: #ffffff; stroke: #ffffff; stroke-linejoin: miter"/>
   </g>
   <g id="patch_3">
    <path d="M 0 359.924718 
Q 0 0.075282 0 0.075282 
L 516.24 0.075282 
L 516.24 359.924718 
z
" clip-path="url(#pafaa585ab4)" style="fill: #ffffff"/>
   </g>
   <g id="patch_4">
    <path d="M 35.984944 0.075282 
Q 35.984944 305.947302 35.984944 305.947302 
L 516.24 305.947302 
L 516.24 0.075282 
z
" clip-path="url(#pafaa585ab4)" style="fill: #ffffff"/>
   </g>
   <g id="patch_5">
    <path d="M 107.954831 72.045169 
Q 107.954831 215.984944 107.954831 215.984944 
L 516.24 215.984944 
L 516.24 72.045169 
z
" clip-path="url(#pafaa585ab4)" style="fill: #ffffff"/>
   </g>
   <g id="patch_6">
    <path d="M 143.939774 36.060226 
Q 107.954831 36.060226 107.954831 72.045169 
L 516.24 72.045169 
L 516.24 36.060226 
z
" clip-path="url(#pafaa585ab4)" style="fill: #ffffff"/>
   </g>
   <g id="patch_7">
    <path d="M 107.954831 215.984944 
Q 107.954831 251.969887 143.939774 251.969887 
L 516.24 251.969887 
L 516.24 215.984944 
z
" clip-path="url(#pafaa585ab4)" style="fill: #ffffff"/>
   </g>
   <g id="patch_8">
    <path d="M 143.939774 341.932246 
Q 143.939774 359.924718 143.939774 359.924718 
L 516.24 359.924718 
L 516.24 341.932246 
z
" clip-path="url(#pafaa585ab4)" style="fill: #ffffff"/>
   </g>
   <g id="patch_9">
    <path d="M 143.939774 36.060226 
Q 179.924718 36.060226 179.924718 72.045169 
L 516.24 72.045169 
L 516.24 36.060226 
z
" clip-path="url(#pafaa585ab4)" style="fill: #ffffff"/>
   </g>
   <g id="patch_10">
    <path d="M 179.924718 215.984944 
Q 179.924718 251.969887 143.939774 251.969887 
L 516.24 251.969887 
L 516.24 215.984944 
z
" clip-path="url(#pafaa585ab4)" style="fill: #ffffff"/>
   </g>
   <g id="patch_11">
    <path d="M 179.924718 72.045169 
Q 179.924718 90.037641 179.924718 90.037641 
L 516.24 90.037641 
L 516.24 72.045169 
z
" clip-path="url(#pafaa585ab4)" style="fill: #ffffff"/>
   </g>
   <g id="patch_12">
    <path d="M 179.924718 197.992472 
Q 179.924718 215.984944 179.924718 215.984944 
L 516.24 215.984944 
L 516.24 197.992472 
z
" clip-path="url(#pafaa585ab4)" style="fill: #ffffff"/>
   </g>
   <g id="patch_13">
    <path d="M 215.909661 126.022585 
Q 215.909661 162.007528 215.909661 162.007528 
L 516.24 162.007528 
L 516.24 126.022585 
z
" clip-path="url(#pafaa585ab4)" style="fill: #ffffff"/>
   </g>
   <g id="patch_14">
    <path d="M 251.894605 0.075282 
Q 251.894605 90.037641 251.894605 90.037641 
L 516.24 90.037641 
L 516.24 0.075282 
z
" clip-path="url(#pafaa585ab4)" style="fill: #ffffff"/>
   </g>
   <g id="patch_15">
    <path d="M 251.894605 197.992472 
Q 251.894605 305.947302 251.894605 305.947302 
L 516.24 305.947302 
L 516.24 197.992472 
z
" clip-path="url(#pafaa585ab4)" style="fill: #ffffff"/>
   </g>
   <g id="patch_16">
    <path d="M 269.887077 90.037641 
Q 269.887077 126.022585 269.887077 126.022585 
L 516.24 126.022585 
L 516.24 90.037641 
z
" clip-path="url(#pafaa585ab4)" style="fill: #ffffff"/>
   </g>
   <g id="patch_17">
    <path d="M 269.887077 162.007528 
Q 269.887077 197.992472 269.887077 197.992472 
L 516.24 197.992472 
L 516.24 162.007528 
z
" clip-path="url(#pafaa585ab4)" style="fill: #ffffff"/>
   </g>
   <g id="patch_18">
    <path d="M 269.887077 305.947302 
Q 269.887077 341.932246 269.887077 341.932246 
L 516.24 341.932246 
L 516.24 305.947302 
z
" clip-path="url(#pafaa585ab4)" style="fill: #ffffff"/>
   </g>
   <g id="patch_19">
    <path d="M 408.285169 0.075282 
Q 408.285169 162.007528 408.285169 162.007528 
L 516.24 162.007528 
L 516.24 0.075282 
z
" clip-path="url(#pafaa585ab4)" style="fill: #ffffff"/>
   </g>
   <g id="patch_20">
    <path d="M 444.270113 197.992472 
Q 444.270113 359.924718 444.270113 359.924718 
L 516.24 359.924718 
L 516.24 197.992472 
z
" clip-path="url(#pafaa585ab4)" style="fill: #ffffff"/>
   </g>
   <g id="patch_21">
    <path d="M 480.255056 0.075282 
Q 480.255056 162.007528 480.255056 162.007528 
L 516.24 162.007528 
L 516.24 0.075282 
z
" clip-path="url(#pafaa585ab4)" style="fill: #ffffff"/>
   </g>
   <g id="patch_22">
    <path d="M 498.247528 162.007528 
Q 498.247528 197.992472 498.247528 197.992472 
L 516.24 197.992472 
L 516.24 162.007528 
z
" clip-path="url(#pafaa585ab4)" style="fill: #ffffff"/>
   </g>
   <g id="patch_23">
    <path d="M 35.984944 0.075282 
Q 35.984944 305.947302 35.984944 305.947302 
" clip-path="url(#pafaa585ab4)" style="fill: none; stroke: #000000; stroke-linejoin: miter"/>
   </g>
   <g id="patch_24">
    <path d="M 143.939774 36.060226 
Q 107.954831 36.060226 107.954831 72.045169 
" clip-path="url(#pafaa585ab4)" style="fill: none; stroke: #000000; stroke-linejoin: miter"/>
   </g>
   <g id="patch_25">
    <path d="M 143.939774 36.060226 
Q 179.924718 36.060226 179.924718 72.045169 
" clip-path="url(#pafaa585ab4)" style="fill: none; stroke: #000000; stroke-linejoin: miter"/>
   </g>
   <g id="patch_26">
    <path d="M 107.954831 72.045169 
Q 107.954831 215.984944 107.954831 215.984944 
" clip-path="url(#pafaa585ab4)" style="fill: none; stroke: #000000; stroke-linejoin: miter"/>
   </g>
   <g id="patch_27">
    <path d="M 179.924718 72.045169 
Q 179.924718 90.037641 179.924718 90.037641 
" clip-path="url(#pafaa585ab4)" style="fill: none; stroke: #000000; stroke-linejoin: miter"/>
   </g>
   <g id="patch_28">
    <path d="M 251.894605 0.075282 
Q 251.894605 90.037641 251.894605 90.037641 
" clip-path="url(#pafaa585ab4)" style="fill: none; stroke: #000000; stroke-linejoin: miter"/>
   </g>
   <g id="patch_29">
    <path d="M 215.909661 126.022585 
Q 215.909661 162.007528 215.909661 162.007528 
" clip-path="url(#pafaa585ab4)" style="fill: none; stroke: #000000; stroke-linejoin: miter"/>
   </g>
   <g id="patch_30">
    <path d="M 179.924718 197.992472 
Q 179.924718 215.984944 179.924718 215.984944 
" clip-path="url(#pafaa585ab4)" style="fill: none; stroke: #000000; stroke-linejoin: miter"/>
   </g>
   <g id="patch_31">
    <path d="M 251.894605 197.992472 
Q 251.894605 305.947302 251.894605 305.947302 
" clip-path="url(#pafaa585ab4)" style="fill: none; stroke: #000000; stroke-linejoin: miter"/>
   </g>
   <g id="patch_32">
    <path d="M 107.954831 215.984944 
Q 107.954831 251.969887 143.939774 251.969887 
" clip-path="url(#pafaa585ab4)" style="fill: none; stroke: #000000; stroke-linejoin: miter"/>
   </g>
   <g id="patch_33">
    <path d="M 179.924718 215.984944 
Q 179.924718 251.969887 143.939774 251.969887 
" clip-path="url(#pafaa585ab4)" style="fill: none; stroke: #000000; stroke-linejoin: miter"/>
   </g>
   <g id="patch_34">
    <path d="M 143.939774 341.932246 
Q 143.939774 359.924718 143.939774 359.924718 
" clip-path="url(#pafaa585ab4)" style="fill: none; stroke: #000000; stroke-linejoin: miter"/>
   </g>
   <g id="patch_35">
    <path d="M 408.285169 0.075282 
Q 408.285169 162.007528 408.285169 162.007528 
" clip-path="url(#pafaa585ab4)" style="fill: none; stroke: #000000; stroke-linejoin: miter"/>
   </g>
   <g id="patch_36">
    <path d="M 480.255056 0.075282 
Q 480.255056 162.007528 480.255056 162.007528 
" clip-path="url(#pafaa585ab4)" style="fill: none; stroke: #000000; stroke-linejoin: miter"/>
   </g>
   <g id="patch_37">
    <path d="M 444.270113 197.992472 
Q 444.270113 359.924718 444.270113 359.924718 
" clip-path="url(#pafaa585ab4)" style="fill: none; stroke: #000000; stroke-linejoin: miter"/>
   </g>
   <g id="patch_38">
    <path d="M 161.932246 126.022585 
L 161.932246 90.037641 
L 269.887077 90.037641 
L 269.887077 126.022585 
z
" clip-path="url(#pafaa585ab4)" style="fill: #ffffff; stroke: #000000; stroke-linejoin: miter"/>
   </g>
   <g id="patch_39">
    <path d="M 161.932246 197.992472 
L 161.932246 162.007528 
L 269.887077 162.007528 
L 269.887077 197.992472 
z
" clip-path="url(#pafaa585ab4)" style="fill: #ffffff; stroke: #000000; stroke-linejoin: miter"/>
   </g>
   <g id="patch_40">
    <path d="M 17.992472 341.932246 
L 17.992472 305.947302 
L 269.887077 305.947302 
L 269.887077 341.932246 
z
" clip-path="url(#pafaa585ab4)" style="fill: #ffffff; stroke: #000000; stroke-linejoin: miter"/>
   </g>
   <g id="patch_41">
    <path d="M 390.292698 197.992472 
L 390.292698 162.007528 
L 498.247528 162.007528 
L 498.247528 197.992472 
z
" clip-path="url(#pafaa585ab4)" style="fill: #ffffff; stroke: #000000; stroke-linejoin: miter"/>
   </g>
   <g id="PathCollection_1">
    <defs>
     <path id="ma24bbe49c6" d="M 0 5.28914 
C 1.402696 5.28914 2.748131 4.731843 3.739987 3.739987 
C 4.731843 2.748131 5.28914 1.402696 5.28914 0 
C 5.28914 -1.402696 4.731843 -2.748131 3.739987 -3.739987 
C 2.748131 -4.731843 1.402696 -5.28914 0 -5.28914 
C -1.402696 -5.28914 -2.748131 -4.731843 -3.739987 -3.739987 
C -4.731843 -2.748131 -5.28914 -1.402696 -5.28914 0 
C -5.28914 1.402696 -4.731843 2.748131 -3.739987 3.739987 
C -2.748131 4.731843 -1.402696 5.28914 0 5.28914 
z
" style="stroke: #ffffff"/>
    </defs>
    <g clip-path="url(#pafaa585ab4)">
     <use xlink:href="#ma24bbe49c6" x="336.315282" y="180" style="fill: #ffffff; stroke: #ffffff"/>
    </g>
   </g>
   <g id="text_1">
    <!-- x -->
    <g transform="translate(40.483061 12.171838) scale(0.1 -0.1)">
     <defs>
      <path id="DejaVuSans-78" d="M 3513 3500 
L 2247 1797 
L 3578 0 
L 2900 0 
L 1881 1375 
L 863 0 
L 184 0 
L 1544 1831 
L 300 3500 
L 978 3500 
L 1906 2253 
L 2834 3500 
L 3513 3500 
z
" transform="scale(0.015625)"/>
     </defs>
     <use xlink:href="#DejaVuSans-78"/>
    </g>
   </g>
   <g id="text_2">
    <!-- x -->
    <g transform="translate(112.452949 66.149253) scale(0.1 -0.1)">
     <use xlink:href="#DejaVuSans-78"/>
    </g>
   </g>
   <g id="text_3">
    <!-- x -->
    <g transform="translate(184.422836 66.149253) scale(0.1 -0.1)">
     <use xlink:href="#DejaVuSans-78"/>
    </g>
   </g>
   <g id="text_4">
    <!-- y -->
    <g transform="translate(256.392723 12.171838) scale(0.1 -0.1)">
     <defs>
      <path id="DejaVuSans-79" d="M 2059 -325 
Q 1816 -950 1584 -1140 
Q 1353 -1331 966 -1331 
L 506 -1331 
L 506 -850 
L 844 -850 
Q 1081 -850 1212 -737 
Q 1344 -625 1503 -206 
L 1606 56 
L 191 3500 
L 800 3500 
L 1894 763 
L 2988 3500 
L 3597 3500 
L 2059 -325 
z
" transform="scale(0.015625)"/>
     </defs>
     <use xlink:href="#DejaVuSans-79"/>
    </g>
   </g>
   <g id="text_5">
    <!-- z -->
    <g transform="translate(220.407779 138.11914) scale(0.1 -0.1)">
     <defs>
      <path id="DejaVuSans-7a" d="M 353 3500 
L 3084 3500 
L 3084 2975 
L 922 459 
L 3084 459 
L 3084 0 
L 275 0 
L 275 525 
L 2438 3041 
L 353 3041 
L 353 3500 
z
" transform="scale(0.015625)"/>
     </defs>
     <use xlink:href="#DejaVuSans-7a"/>
    </g>
   </g>
   <g id="text_6">
    <!-- x -->
    <g transform="translate(184.422836 210.089027) scale(0.1 -0.1)">
     <use xlink:href="#DejaVuSans-78"/>
    </g>
   </g>
   <g id="text_7">
    <!-- (x &gt;&gt; z) -->
    <g transform="translate(256.392723 210.089027) scale(0.1 -0.1)">
     <defs>
      <path id="DejaVuSans-28" d="M 1984 4856 
Q 1566 4138 1362 3434 
Q 1159 2731 1159 2009 
Q 1159 1288 1364 580 
Q 1569 -128 1984 -844 
L 1484 -844 
Q 1016 -109 783 600 
Q 550 1309 550 2009 
Q 550 2706 781 3412 
Q 1013 4119 1484 4856 
L 1984 4856 
z
" transform="scale(0.015625)"/>
      <path id="DejaVuSans-20" transform="scale(0.015625)"/>
      <path id="DejaVuSans-3e" d="M 678 3150 
L 678 3719 
L 4684 2266 
L 4684 1747 
L 678 294 
L 678 863 
L 3897 2003 
L 678 3150 
z
" transform="scale(0.015625)"/>
      <path id="DejaVuSans-29" d="M 513 4856 
L 1013 4856 
Q 1481 4119 1714 3412 
Q 1947 2706 1947 2009 
Q 1947 1309 1714 600 
Q 1481 -109 1013 -844 
L 513 -844 
Q 928 -128 1133 580 
Q 1338 1288 1338 2009 
Q 1338 2731 1133 3434 
Q 928 4138 513 4856 
z
" transform="scale(0.015625)"/>
     </defs>
     <use xlink:href="#DejaVuSans-28"/>
     <use xlink:href="#DejaVuSans-78" transform="translate(39.013672 0)"/>
     <use xlink:href="#DejaVuSans-20" transform="translate(98.193359 0)"/>
     <use xlink:href="#DejaVuSans-3e" transform="translate(129.980469 0)"/>
     <use xlink:href="#DejaVuSans-3e" transform="translate(213.769531 0)"/>
     <use xlink:href="#DejaVuSans-20" transform="translate(297.558594 0)"/>
     <use xlink:href="#DejaVuSans-7a" transform="translate(329.345703 0)"/>
     <use xlink:href="#DejaVuSans-29" transform="translate(381.835938 0)"/>
    </g>
   </g>
   <g id="text_8">
    <!-- z -->
    <g transform="translate(148.437892 354.028801) scale(0.1 -0.1)">
     <use xlink:href="#DejaVuSans-7a"/>
    </g>
   </g>
   <g id="text_9">
    <!-- x -->
    <g transform="translate(412.783287 12.171838) scale(0.1 -0.1)">
     <use xlink:href="#DejaVuSans-78"/>
    </g>
   </g>
   <g id="text_10">
    <!-- y -->
    <g transform="translate(484.753174 12.171838) scale(0.1 -0.1)">
     <use xlink:href="#DejaVuSans-79"/>
    </g>
   </g>
   <g id="text_11">
    <!-- z -->
    <g transform="translate(448.768231 210.089027) scale(0.1 -0.1)">
     <use xlink:href="#DejaVuSans-7a"/>
    </g>
   </g>
   <g id="text_12">
    <!-- g -->
    <g transform="translate(212.735442 110.789488) scale(0.1 -0.1)">
     <defs>
      <path id="DejaVuSans-67" d="M 2906 1791 
Q 2906 2416 2648 2759 
Q 2391 3103 1925 3103 
Q 1463 3103 1205 2759 
Q 947 2416 947 1791 
Q 947 1169 1205 825 
Q 1463 481 1925 481 
Q 2391 481 2648 825 
Q 2906 1169 2906 1791 
z
M 3481 434 
Q 3481 -459 3084 -895 
Q 2688 -1331 1869 -1331 
Q 1566 -1331 1297 -1286 
Q 1028 -1241 775 -1147 
L 775 -588 
Q 1028 -725 1275 -790 
Q 1522 -856 1778 -856 
Q 2344 -856 2625 -561 
Q 2906 -266 2906 331 
L 2906 616 
Q 2728 306 2450 153 
Q 2172 0 1784 0 
Q 1141 0 747 490 
Q 353 981 353 1791 
Q 353 2603 747 3093 
Q 1141 3584 1784 3584 
Q 2172 3584 2450 3431 
Q 2728 3278 2906 2969 
L 2906 3500 
L 3481 3500 
L 3481 434 
z
" transform="scale(0.015625)"/>
     </defs>
     <use xlink:href="#DejaVuSans-67"/>
    </g>
   </g>
   <g id="text_13">
    <!-- lambda -->
    <g transform="translate(197.173724 182.759375) scale(0.1 -0.1)">
     <defs>
      <path id="DejaVuSans-6c" d="M 603 4863 
L 1178 4863 
L 1178 0 
L 603 0 
L 603 4863 
z
" transform="scale(0.015625)"/>
      <path id="DejaVuSans-61" d="M 2194 1759 
Q 1497 1759 1228 1600 
Q 959 1441 959 1056 
Q 959 750 1161 570 
Q 1363 391 1709 391 
Q 2188 391 2477 730 
Q 2766 1069 2766 1631 
L 2766 1759 
L 2194 1759 
z
M 3341 1997 
L 3341 0 
L 2766 0 
L 2766 531 
Q 2569 213 2275 61 
Q 1981 -91 1556 -91 
Q 1019 -91 701 211 
Q 384 513 384 1019 
Q 384 1609 779 1909 
Q 1175 2209 1959 2209 
L 2766 2209 
L 2766 2266 
Q 2766 2663 2505 2880 
Q 2244 3097 1772 3097 
Q 1472 3097 1187 3025 
Q 903 2953 641 2809 
L 641 3341 
Q 956 3463 1253 3523 
Q 1550 3584 1831 3584 
Q 2591 3584 2966 3190 
Q 3341 2797 3341 1997 
z
" transform="scale(0.015625)"/>
      <path id="DejaVuSans-6d" d="M 3328 2828 
Q 3544 3216 3844 3400 
Q 4144 3584 4550 3584 
Q 5097 3584 5394 3201 
Q 5691 2819 5691 2113 
L 5691 0 
L 5113 0 
L 5113 2094 
Q 5113 2597 4934 2840 
Q 4756 3084 4391 3084 
Q 3944 3084 3684 2787 
Q 3425 2491 3425 1978 
L 3425 0 
L 2847 0 
L 2847 2094 
Q 2847 2600 2669 2842 
Q 2491 3084 2119 3084 
Q 1678 3084 1418 2786 
Q 1159 2488 1159 1978 
L 1159 0 
L 581 0 
L 581 3500 
L 1159 3500 
L 1159 2956 
Q 1356 3278 1631 3431 
Q 1906 3584 2284 3584 
Q 2666 3584 2933 3390 
Q 3200 3197 3328 2828 
z
" transform="scale(0.015625)"/>
      <path id="DejaVuSans-62" d="M 3116 1747 
Q 3116 2381 2855 2742 
Q 2594 3103 2138 3103 
Q 1681 3103 1420 2742 
Q 1159 2381 1159 1747 
Q 1159 1113 1420 752 
Q 1681 391 2138 391 
Q 2594 391 2855 752 
Q 3116 1113 3116 1747 
z
M 1159 2969 
Q 1341 3281 1617 3432 
Q 1894 3584 2278 3584 
Q 2916 3584 3314 3078 
Q 3713 2572 3713 1747 
Q 3713 922 3314 415 
Q 2916 -91 2278 -91 
Q 1894 -91 1617 61 
Q 1341 213 1159 525 
L 1159 0 
L 581 0 
L 581 4863 
L 1159 4863 
L 1159 2969 
z
" transform="scale(0.015625)"/>
      <path id="DejaVuSans-64" d="M 2906 2969 
L 2906 4863 
L 3481 4863 
L 3481 0 
L 2906 0 
L 2906 525 
Q 2725 213 2448 61 
Q 2172 -91 1784 -91 
Q 1150 -91 751 415 
Q 353 922 353 1747 
Q 353 2572 751 3078 
Q 1150 3584 1784 3584 
Q 2172 3584 2448 3432 
Q 2725 3281 2906 2969 
z
M 947 1747 
Q 947 1113 1208 752 
Q 1469 391 1925 391 
Q 2381 391 2643 752 
Q 2906 1113 2906 1747 
Q 2906 2381 2643 2742 
Q 2381 3103 1925 3103 
Q 1469 3103 1208 2742 
Q 947 2381 947 1747 
z
" transform="scale(0.015625)"/>
     </defs>
     <use xlink:href="#DejaVuSans-6c"/>
     <use xlink:href="#DejaVuSans-61" transform="translate(27.783203 0)"/>
     <use xlink:href="#DejaVuSans-6d" transform="translate(89.0625 0)"/>
     <use xlink:href="#DejaVuSans-62" transform="translate(186.474609 0)"/>
     <use xlink:href="#DejaVuSans-64" transform="translate(249.951172 0)"/>
     <use xlink:href="#DejaVuSans-61" transform="translate(313.427734 0)"/>
    </g>
   </g>
   <g id="text_14">
    <!-- __call__ -->
    <g transform="translate(125.348368 326.560087) scale(0.1 -0.1)">
     <defs>
      <path id="DejaVuSans-5f" d="M 3263 -1063 
L 3263 -1509 
L -63 -1509 
L -63 -1063 
L 3263 -1063 
z
" transform="scale(0.015625)"/>
      <path id="DejaVuSans-63" d="M 3122 3366 
L 3122 2828 
Q 2878 2963 2633 3030 
Q 2388 3097 2138 3097 
Q 1578 3097 1268 2742 
Q 959 2388 959 1747 
Q 959 1106 1268 751 
Q 1578 397 2138 397 
Q 2388 397 2633 464 
Q 2878 531 3122 666 
L 3122 134 
Q 2881 22 2623 -34 
Q 2366 -91 2075 -91 
Q 1284 -91 818 406 
Q 353 903 353 1747 
Q 353 2603 823 3093 
Q 1294 3584 2113 3584 
Q 2378 3584 2631 3529 
Q 2884 3475 3122 3366 
z
" transform="scale(0.015625)"/>
     </defs>
     <use xlink:href="#DejaVuSans-5f"/>
     <use xlink:href="#DejaVuSans-5f" transform="translate(50 0)"/>
     <use xlink:href="#DejaVuSans-63" transform="translate(100 0)"/>
     <use xlink:href="#DejaVuSans-61" transform="translate(154.980469 0)"/>
     <use xlink:href="#DejaVuSans-6c" transform="translate(216.259766 0)"/>
     <use xlink:href="#DejaVuSans-6c" transform="translate(244.042969 0)"/>
     <use xlink:href="#DejaVuSans-5f" transform="translate(271.826172 0)"/>
     <use xlink:href="#DejaVuSans-5f" transform="translate(321.826172 0)"/>
    </g>
   </g>
   <g id="text_15">
    <!-- g -->
    <g transform="translate(441.095894 182.759375) scale(0.1 -0.1)">
     <use xlink:href="#DejaVuSans-67"/>
    </g>
   </g>
   <g id="text_16">
    <g clip-path="url(#pafaa585ab4)">
     <!-- = -->
     <g transform="translate(331.28747 183.31125) scale(0.12 -0.12)">
      <defs>
       <path id="DejaVuSans-3d" d="M 678 2906 
L 4684 2906 
L 4684 2381 
L 678 2381 
L 678 2906 
z
M 678 1631 
L 4684 1631 
L 4684 1100 
L 678 1100 
L 678 1631 
z
" transform="scale(0.015625)"/>
      </defs>
      <use xlink:href="#DejaVuSans-3d"/>
     </g>
    </g>
   </g>
  </g>
 </g>
 <defs>
  <clipPath id="pafaa585ab4">
   <rect x="0" y="0.075282" width="516.24" height="359.849435"/>
  </clipPath>
 </defs>
</svg>
