<?xml version="1.0" encoding="utf-8" standalone="no"?>
<!DOCTYPE svg PUBLIC "-//W3C//DTD SVG 1.1//EN"
  "http://www.w3.org/Graphics/SVG/1.1/DTD/svg11.dtd">
<svg xmlns:xlink="http://www.w3.org/1999/xlink" width="690.12pt" height="576pt" viewBox="0 0 690.12 576" xmlns="http://www.w3.org/2000/svg" version="1.1">
 <metadata>
  <rdf:RDF xmlns:dc="http://purl.org/dc/elements/1.1/" xmlns:cc="http://creativecommons.org/ns#" xmlns:rdf="http://www.w3.org/1999/02/22-rdf-syntax-ns#">
   <cc:Work>
    <dc:type rdf:resource="http://purl.org/dc/dcmitype/StillImage"/>
    <dc:format>image/svg+xml</dc:format>
    <dc:creator>
     <cc:Agent>
      <dc:title>Matplotlib v3.10.9, https://matplotlib.org/</dc:title>
     </cc:Agent>
    </dc:creator>
   </cc:Work>
  </rdf:RDF>
 </metadata>
 <defs>
  <style type="text/css">*{stroke-linejoin: round; stroke-linecap: butt}</style>
 </defs>
 <g id="figure_1">
  <g id="patch_1">
   <path d="M 0 576 
L 690.12 576 
L 690.12 0 
L 0 0 
z
" style="fill: #ffffff"/>
  </g>
  <g id="axes_1">
   <g id="patch_2">
    <path d="M 0 576 
L 690.12 576 
L 690.12 0 
L 0 0 
z
" clip-path="url(#p6ce2aa5f00)" style="fill: #ffffff; stroke: #ffffff; stroke-linejoin: miter"/>
   </g>
   <g id="patch_3">
    <path d="M 0 576 
Q 0 0 0 0 
L 690.12 0 
L 690.12 576 
z
" clip-path="url(#p6ce2aa5f00)" style="fill: #ffffff"/>
   </g>
   <g id="patch_4">
    <path d="M 18 180 
Q 18 396 18 396 
L 690.12 396 
L 690.12 180 
z
" clip-path="url(#p6ce2aa5f00)" style="fill: #ffffff"/>
   </g>
   <g id="patch_5">
    <path d="M 130.68 144 
Q 18 144 18 180 
L 690.12 180 
L 690.12 144 
z
" clip-path="url(#p6ce2aa5f00)" style="fill: #ffffff"/>
   </g>
   <g id="patch_6">
    <path d="M 18 396 
Q 18 432 130.68 432 
L 690.12 432 
L 690.12 396 
z
" clip-path="url(#p6ce2aa5f00)" style="fill: #ffffff"/>
   </g>
   <g id="patch_7">
    <path d="M 76.68 252 
Q 76.68 324 76.68 324 
L 690.12 324 
L 690.12 252 
z
" clip-path="url(#p6ce2aa5f00)" style="fill: #ffffff"/>
   </g>
   <g id="patch_8">
    <path d="M 130.68 216 
Q 76.68 216 76.68 252 
L 690.12 252 
L 690.12 216 
z
" clip-path="url(#p6ce2aa5f00)" style="fill: #ffffff"/>
   </g>
   <g id="patch_9">
    <path d="M 76.68 324 
Q 76.68 360 130.68 360 
L 690.12 360 
L 690.12 324 
z
" clip-path="url(#p6ce2aa5f00)" style="fill: #ffffff"/>
   </g>
   <g id="patch_10">
    <path d="M 130.68 0 
Q 130.68 108 130.68 108 
L 690.12 108 
L 690.12 0 
z
" clip-path="url(#p6ce2aa5f00)" style="fill: #ffffff"/>
   </g>
   <g id="patch_11">
    <path d="M 130.68 108 
Q 130.68 180 130.68 180 
L 690.12 180 
L 690.12 108 
z
" clip-path="url(#p6ce2aa5f00)" style="fill: #ffffff"/>
   </g>
   <g id="patch_12">
    <path d="M 130.68 180 
Q 130.68 252 130.68 252 
L 690.12 252 
L 690.12 180 
z
" clip-path="url(#p6ce2aa5f00)" style="fill: #ffffff"/>
   </g>
   <g id="patch_13">
    <path d="M 130.68 252 
Q 130.68 270 130.68 270 
L 690.12 270 
L 690.12 252 
z
" clip-path="url(#p6ce2aa5f00)" style="fill: #ffffff"/>
   </g>
   <g id="patch_14">
    <path d="M 130.68 306 
Q 130.68 324 130.68 324 
L 690.12 324 
L 690.12 306 
z
" clip-path="url(#p6ce2aa5f00)" style="fill: #ffffff"/>
   </g>
   <g id="patch_15">
    <path d="M 130.68 324 
Q 130.68 396 130.68 396 
L 690.12 396 
L 690.12 324 
z
" clip-path="url(#p6ce2aa5f00)" style="fill: #ffffff"/>
   </g>
   <g id="patch_16">
    <path d="M 130.68 396 
Q 130.68 468 130.68 468 
L 690.12 468 
L 690.12 396 
z
" clip-path="url(#p6ce2aa5f00)" style="fill: #ffffff"/>
   </g>
   <g id="patch_17">
    <path d="M 130.68 468 
Q 130.68 576 130.68 576 
L 690.12 576 
L 690.12 468 
z
" clip-path="url(#p6ce2aa5f00)" style="fill: #ffffff"/>
   </g>
   <g id="patch_18">
    <path d="M 148.68 270 
Q 148.68 306 148.68 306 
L 690.12 306 
L 690.12 270 
z
" clip-path="url(#p6ce2aa5f00)" style="fill: #ffffff"/>
   </g>
   <g id="patch_19">
    <path d="M 130.68 216 
Q 184.68 216 184.68 252 
L 690.12 252 
L 690.12 216 
z
" clip-path="url(#p6ce2aa5f00)" style="fill: #ffffff"/>
   </g>
   <g id="patch_20">
    <path d="M 184.68 324 
Q 184.68 360 130.68 360 
L 690.12 360 
L 690.12 324 
z
" clip-path="url(#p6ce2aa5f00)" style="fill: #ffffff"/>
   </g>
   <g id="patch_21">
    <path d="M 130.68 144 
Q 220.68 144 220.68 180 
L 690.12 180 
L 690.12 144 
z
" clip-path="url(#p6ce2aa5f00)" style="fill: #ffffff"/>
   </g>
   <g id="patch_22">
    <path d="M 220.68 396 
Q 220.68 432 130.68 432 
L 690.12 432 
L 690.12 396 
z
" clip-path="url(#p6ce2aa5f00)" style="fill: #ffffff"/>
   </g>
   <g id="patch_23">
    <path d="M 184.68 252 
Q 184.68 324 184.68 324 
L 690.12 324 
L 690.12 252 
z
" clip-path="url(#p6ce2aa5f00)" style="fill: #ffffff"/>
   </g>
   <g id="patch_24">
    <path d="M 220.68 180 
Q 220.68 396 220.68 396 
L 690.12 396 
L 690.12 180 
z
" clip-path="url(#p6ce2aa5f00)" style="fill: #ffffff"/>
   </g>
   <g id="patch_25">
    <path d="M 328.68 144 
Q 328.68 216 328.68 216 
L 690.12 216 
L 690.12 144 
z
" clip-path="url(#p6ce2aa5f00)" style="fill: #ffffff"/>
   </g>
   <g id="patch_26">
    <path d="M 487.44 108 
Q 328.68 108 328.68 144 
L 690.12 144 
L 690.12 108 
z
" clip-path="url(#p6ce2aa5f00)" style="fill: #ffffff"/>
   </g>
   <g id="patch_27">
    <path d="M 328.68 216 
Q 328.68 252 487.44 252 
L 690.12 252 
L 690.12 216 
z
" clip-path="url(#p6ce2aa5f00)" style="fill: #ffffff"/>
   </g>
   <g id="patch_28">
    <path d="M 487.44 54 
Q 487.44 72 487.44 72 
L 690.12 72 
L 690.12 54 
z
" clip-path="url(#p6ce2aa5f00)" style="fill: #ffffff"/>
   </g>
   <g id="patch_29">
    <path d="M 487.44 72 
Q 487.44 144 487.44 144 
L 690.12 144 
L 690.12 72 
z
" clip-path="url(#p6ce2aa5f00)" style="fill: #ffffff"/>
   </g>
   <g id="patch_30">
    <path d="M 487.44 144 
Q 487.44 162 487.44 162 
L 690.12 162 
L 690.12 144 
z
" clip-path="url(#p6ce2aa5f00)" style="fill: #ffffff"/>
   </g>
   <g id="patch_31">
    <path d="M 487.44 198 
Q 487.44 216 487.44 216 
L 690.12 216 
L 690.12 198 
z
" clip-path="url(#p6ce2aa5f00)" style="fill: #ffffff"/>
   </g>
   <g id="patch_32">
    <path d="M 487.44 216 
Q 487.44 288 487.44 288 
L 690.12 288 
L 690.12 216 
z
" clip-path="url(#p6ce2aa5f00)" style="fill: #ffffff"/>
   </g>
   <g id="patch_33">
    <path d="M 487.44 288 
Q 487.44 522 487.44 522 
L 690.12 522 
L 690.12 288 
z
" clip-path="url(#p6ce2aa5f00)" style="fill: #ffffff"/>
   </g>
   <g id="patch_34">
    <path d="M 523.44 36 
Q 487.44 36 487.44 54 
L 690.12 54 
L 690.12 36 
z
" clip-path="url(#p6ce2aa5f00)" style="fill: #ffffff"/>
   </g>
   <g id="patch_35">
    <path d="M 505.44 162 
Q 505.44 198 505.44 198 
L 690.12 198 
L 690.12 162 
z
" clip-path="url(#p6ce2aa5f00)" style="fill: #ffffff"/>
   </g>
   <g id="patch_36">
    <path d="M 487.44 108 
Q 541.44 108 541.44 144 
L 690.12 144 
L 690.12 108 
z
" clip-path="url(#p6ce2aa5f00)" style="fill: #ffffff"/>
   </g>
   <g id="patch_37">
    <path d="M 541.44 216 
Q 541.44 252 487.44 252 
L 690.12 252 
L 690.12 216 
z
" clip-path="url(#p6ce2aa5f00)" style="fill: #ffffff"/>
   </g>
   <g id="patch_38">
    <path d="M 487.44 522 
Q 487.44 540 552.78 540 
L 690.12 540 
L 690.12 522 
z
" clip-path="url(#p6ce2aa5f00)" style="fill: #ffffff"/>
   </g>
   <g id="patch_39">
    <path d="M 523.44 0 
Q 523.44 18 523.44 18 
L 690.12 18 
L 690.12 0 
z
" clip-path="url(#p6ce2aa5f00)" style="fill: #ffffff"/>
   </g>
   <g id="patch_40">
    <path d="M 523.44 18 
Q 523.44 36 523.44 36 
L 690.12 36 
L 690.12 18 
z
" clip-path="url(#p6ce2aa5f00)" style="fill: #ffffff"/>
   </g>
   <g id="patch_41">
    <path d="M 541.44 144 
Q 541.44 216 541.44 216 
L 690.12 216 
L 690.12 144 
z
" clip-path="url(#p6ce2aa5f00)" style="fill: #ffffff"/>
   </g>
   <g id="patch_42">
    <path d="M 541.44 360 
Q 541.44 432 541.44 432 
L 690.12 432 
L 690.12 360 
z
" clip-path="url(#p6ce2aa5f00)" style="fill: #ffffff"/>
   </g>
   <g id="patch_43">
    <path d="M 552.78 540 
Q 552.78 540 552.78 558 
L 690.12 558 
L 690.12 540 
z
" clip-path="url(#p6ce2aa5f00)" style="fill: #ffffff"/>
   </g>
   <g id="patch_44">
    <path d="M 552.78 558 
Q 552.78 576 552.78 576 
L 690.12 576 
L 690.12 558 
z
" clip-path="url(#p6ce2aa5f00)" style="fill: #ffffff"/>
   </g>
   <g id="patch_45">
    <path d="M 523.44 36 
Q 618.12 36 618.12 54 
L 690.12 54 
L 690.12 36 
z
" clip-path="url(#p6ce2aa5f00)" style="fill: #ffffff"/>
   </g>
   <g id="patch_46">
    <path d="M 618.12 324 
Q 541.44 324 541.44 360 
L 690.12 360 
L 690.12 324 
z
" clip-path="url(#p6ce2aa5f00)" style="fill: #ffffff"/>
   </g>
   <g id="patch_47">
    <path d="M 541.44 432 
Q 541.44 468 618.12 468 
L 690.12 468 
L 690.12 432 
z
" clip-path="url(#p6ce2aa5f00)" style="fill: #ffffff"/>
   </g>
   <g id="patch_48">
    <path d="M 618.12 522 
Q 618.12 540 552.78 540 
L 690.12 540 
L 690.12 522 
z
" clip-path="url(#p6ce2aa5f00)" style="fill: #ffffff"/>
   </g>
   <g id="patch_49">
    <path d="M 618.12 54 
Q 618.12 288 618.12 288 
L 690.12 288 
L 690.12 54 
z
" clip-path="url(#p6ce2aa5f00)" style="fill: #ffffff"/>
   </g>
   <g id="patch_50">
    <path d="M 618.12 288 
Q 618.12 360 618.12 360 
L 690.12 360 
L 690.12 288 
z
" clip-path="url(#p6ce2aa5f00)" style="fill: #ffffff"/>
   </g>
   <g id="patch_51">
    <path d="M 618.12 360 
Q 618.12 378 618.12 378 
L 690.12 378 
L 690.12 360 
z
" clip-path="url(#p6ce2aa5f00)" style="fill: #ffffff"/>
   </g>
   <g id="patch_52">
    <path d="M 618.12 414 
Q 618.12 432 618.12 432 
L 690.12 432 
L 690.12 414 
z
" clip-path="url(#p6ce2aa5f00)" style="fill: #ffffff"/>
   </g>
   <g id="patch_53">
    <path d="M 618.12 432 
Q 618.12 504 618.12 504 
L 690.12 504 
L 690.12 432 
z
" clip-path="url(#p6ce2aa5f00)" style="fill: #ffffff"/>
   </g>
   <g id="patch_54">
    <path d="M 618.12 504 
Q 618.12 522 618.12 522 
L 690.12 522 
L 690.12 504 
z
" clip-path="url(#p6ce2aa5f00)" style="fill: #ffffff"/>
   </g>
   <g id="patch_55">
    <path d="M 636.12 378 
Q 636.12 414 636.12 414 
L 690.12 414 
L 690.12 378 
z
" clip-path="url(#p6ce2aa5f00)" style="fill: #ffffff"/>
   </g>
   <g id="patch_56">
    <path d="M 618.12 324 
Q 672.12 324 672.12 360 
L 690.12 360 
L 690.12 324 
z
" clip-path="url(#p6ce2aa5f00)" style="fill: #ffffff"/>
   </g>
   <g id="patch_57">
    <path d="M 672.12 432 
Q 672.12 468 618.12 468 
L 690.12 468 
L 690.12 432 
z
" clip-path="url(#p6ce2aa5f00)" style="fill: #ffffff"/>
   </g>
   <g id="patch_58">
    <path d="M 672.12 360 
Q 672.12 432 672.12 432 
L 690.12 432 
L 690.12 360 
z
" clip-path="url(#p6ce2aa5f00)" style="fill: #ffffff"/>
   </g>
   <g id="patch_59">
    <path d="M 130.68 144 
Q 18 144 18 180 
" clip-path="url(#p6ce2aa5f00)" style="fill: none; stroke: #000000; stroke-linejoin: miter"/>
   </g>
   <g id="patch_60">
    <path d="M 130.68 144 
Q 220.68 144 220.68 180 
" clip-path="url(#p6ce2aa5f00)" style="fill: none; stroke: #000000; stroke-linejoin: miter"/>
   </g>
   <g id="patch_61">
    <path d="M 130.68 0 
Q 130.68 108 130.68 108 
" clip-path="url(#p6ce2aa5f00)" style="fill: none; stroke: #000000; stroke-linejoin: miter"/>
   </g>
   <g id="patch_62">
    <path d="M 130.68 108 
Q 130.68 180 130.68 180 
" clip-path="url(#p6ce2aa5f00)" style="fill: none; stroke: #000000; stroke-linejoin: miter"/>
   </g>
   <g id="patch_63">
    <path d="M 18 180 
Q 18 396 18 396 
" clip-path="url(#p6ce2aa5f00)" style="fill: none; stroke: #000000; stroke-linejoin: miter"/>
   </g>
   <g id="patch_64">
    <path d="M 220.68 180 
Q 220.68 396 220.68 396 
" clip-path="url(#p6ce2aa5f00)" style="fill: none; stroke: #000000; stroke-linejoin: miter"/>
   </g>
   <g id="patch_65">
    <path d="M 130.68 216 
Q 76.68 216 76.68 252 
" clip-path="url(#p6ce2aa5f00)" style="fill: none; stroke: #000000; stroke-linejoin: miter"/>
   </g>
   <g id="patch_66">
    <path d="M 130.68 216 
Q 184.68 216 184.68 252 
" clip-path="url(#p6ce2aa5f00)" style="fill: none; stroke: #000000; stroke-linejoin: miter"/>
   </g>
   <g id="patch_67">
    <path d="M 130.68 180 
Q 130.68 252 130.68 252 
" clip-path="url(#p6ce2aa5f00)" style="fill: none; stroke: #000000; stroke-linejoin: miter"/>
   </g>
   <g id="patch_68">
    <path d="M 76.68 252 
Q 76.68 324 76.68 324 
" clip-path="url(#p6ce2aa5f00)" style="fill: none; stroke: #000000; stroke-linejoin: miter"/>
   </g>
   <g id="patch_69">
    <path d="M 130.68 252 
Q 130.68 270 130.68 270 
" clip-path="url(#p6ce2aa5f00)" style="fill: none; stroke: #000000; stroke-linejoin: miter"/>
   </g>
   <g id="patch_70">
    <path d="M 184.68 252 
Q 184.68 324 184.68 324 
" clip-path="url(#p6ce2aa5f00)" style="fill: none; stroke: #000000; stroke-linejoin: miter"/>
   </g>
   <g id="patch_71">
    <path d="M 130.68 306 
Q 130.68 324 130.68 324 
" clip-path="url(#p6ce2aa5f00)" style="fill: none; stroke: #000000; stroke-linejoin: miter"/>
   </g>
   <g id="patch_72">
    <path d="M 76.68 324 
Q 76.68 360 130.68 360 
" clip-path="url(#p6ce2aa5f00)" style="fill: none; stroke: #000000; stroke-linejoin: miter"/>
   </g>
   <g id="patch_73">
    <path d="M 130.68 324 
Q 130.68 396 130.68 396 
" clip-path="url(#p6ce2aa5f00)" style="fill: none; stroke: #000000; stroke-linejoin: miter"/>
   </g>
   <g id="patch_74">
    <path d="M 184.68 324 
Q 184.68 360 130.68 360 
" clip-path="url(#p6ce2aa5f00)" style="fill: none; stroke: #000000; stroke-linejoin: miter"/>
   </g>
   <g id="patch_75">
    <path d="M 18 396 
Q 18 432 130.68 432 
" clip-path="url(#p6ce2aa5f00)" style="fill: none; stroke: #000000; stroke-linejoin: miter"/>
   </g>
   <g id="patch_76">
    <path d="M 130.68 396 
Q 130.68 468 130.68 468 
" clip-path="url(#p6ce2aa5f00)" style="fill: none; stroke: #000000; stroke-linejoin: miter"/>
   </g>
   <g id="patch_77">
    <path d="M 220.68 396 
Q 220.68 432 130.68 432 
" clip-path="url(#p6ce2aa5f00)" style="fill: none; stroke: #000000; stroke-linejoin: miter"/>
   </g>
   <g id="patch_78">
    <path d="M 130.68 468 
Q 130.68 576 130.68 576 
" clip-path="url(#p6ce2aa5f00)" style="fill: none; stroke: #000000; stroke-linejoin: miter"/>
   </g>
   <g id="patch_79">
    <path d="M 523.44 36 
Q 487.44 36 487.44 54 
" clip-path="url(#p6ce2aa5f00)" style="fill: none; stroke: #000000; stroke-linejoin: miter"/>
   </g>
   <g id="patch_80">
    <path d="M 523.44 36 
Q 618.12 36 618.12 54 
" clip-path="url(#p6ce2aa5f00)" style="fill: none; stroke: #000000; stroke-linejoin: miter"/>
   </g>
   <g id="patch_81">
    <path d="M 523.44 0 
Q 523.44 18 523.44 18 
" clip-path="url(#p6ce2aa5f00)" style="fill: none; stroke: #000000; stroke-linejoin: miter"/>
   </g>
   <g id="patch_82">
    <path d="M 523.44 18 
Q 523.44 36 523.44 36 
" clip-path="url(#p6ce2aa5f00)" style="fill: none; stroke: #000000; stroke-linejoin: miter"/>
   </g>
   <g id="patch_83">
    <path d="M 487.44 54 
Q 487.44 72 487.44 72 
" clip-path="url(#p6ce2aa5f00)" style="fill: none; stroke: #000000; stroke-linejoin: miter"/>
   </g>
   <g id="patch_84">
    <path d="M 618.12 54 
Q 618.12 288 618.12 288 
" clip-path="url(#p6ce2aa5f00)" style="fill: none; stroke: #000000; stroke-linejoin: miter"/>
   </g>
   <g id="patch_85">
    <path d="M 487.44 108 
Q 328.68 108 328.68 144 
" clip-path="url(#p6ce2aa5f00)" style="fill: none; stroke: #000000; stroke-linejoin: miter"/>
   </g>
   <g id="patch_86">
    <path d="M 487.44 108 
Q 541.44 108 541.44 144 
" clip-path="url(#p6ce2aa5f00)" style="fill: none; stroke: #000000; stroke-linejoin: miter"/>
   </g>
   <g id="patch_87">
    <path d="M 487.44 72 
Q 487.44 144 487.44 144 
" clip-path="url(#p6ce2aa5f00)" style="fill: none; stroke: #000000; stroke-linejoin: miter"/>
   </g>
   <g id="patch_88">
    <path d="M 328.68 144 
Q 328.68 216 328.68 216 
" clip-path="url(#p6ce2aa5f00)" style="fill: none; stroke: #000000; stroke-linejoin: miter"/>
   </g>
   <g id="patch_89">
    <path d="M 487.44 144 
Q 487.44 162 487.44 162 
" clip-path="url(#p6ce2aa5f00)" style="fill: none; stroke: #000000; stroke-linejoin: miter"/>
   </g>
   <g id="patch_90">
    <path d="M 541.44 144 
Q 541.44 216 541.44 216 
" clip-path="url(#p6ce2aa5f00)" style="fill: none; stroke: #000000; stroke-linejoin: miter"/>
   </g>
   <g id="patch_91">
    <path d="M 487.44 198 
Q 487.44 216 487.44 216 
" clip-path="url(#p6ce2aa5f00)" style="fill: none; stroke: #000000; stroke-linejoin: miter"/>
   </g>
   <g id="patch_92">
    <path d="M 328.68 216 
Q 328.68 252 487.44 252 
" clip-path="url(#p6ce2aa5f00)" style="fill: none; stroke: #000000; stroke-linejoin: miter"/>
   </g>
   <g id="patch_93">
    <path d="M 487.44 216 
Q 487.44 288 487.44 288 
" clip-path="url(#p6ce2aa5f00)" style="fill: none; stroke: #000000; stroke-linejoin: miter"/>
   </g>
   <g id="patch_94">
    <path d="M 541.44 216 
Q 541.44 252 487.44 252 
" clip-path="url(#p6ce2aa5f00)" style="fill: none; stroke: #000000; stroke-linejoin: miter"/>
   </g>
   <g id="patch_95">
    <path d="M 487.44 288 
Q 487.44 522 487.44 522 
" clip-path="url(#p6ce2aa5f00)" style="fill: none; stroke: #000000; stroke-linejoin: miter"/>
   </g>
   <g id="patch_96">
    <path d="M 618.12 324 
Q 541.44 324 541.44 360 
" clip-path="url(#p6ce2aa5f00)" style="fill: none; stroke: #000000; stroke-linejoin: miter"/>
   </g>
   <g id="patch_97">
    <path d="M 618.12 324 
Q 672.12 324 672.12 360 
" clip-path="url(#p6ce2aa5f00)" style="fill: none; stroke: #000000; stroke-linejoin: miter"/>
   </g>
   <g id="patch_98">
    <path d="M 618.12 288 
Q 618.12 360 618.12 360 
" clip-path="url(#p6ce2aa5f00)" style="fill: none; stroke: #000000; stroke-linejoin: miter"/>
   </g>
   <g id="patch_99">
    <path d="M 541.44 360 
Q 541.44 432 541.44 432 
" clip-path="url(#p6ce2aa5f00)" style="fill: none; stroke: #000000; stroke-linejoin: miter"/>
   </g>
   <g id="patch_100">
    <path d="M 618.12 360 
Q 618.12 378 618.12 378 
" clip-path="url(#p6ce2aa5f00)" style="fill: none; stroke: #000000; stroke-linejoin: miter"/>
   </g>
   <g id="patch_101">
    <path d="M 672.12 360 
Q 672.12 432 672.12 432 
" clip-path="url(#p6ce2aa5f00)" style="fill: none; stroke: #000000; stroke-linejoin: miter"/>
   </g>
   <g id="patch_102">
    <path d="M 618.12 414 
Q 618.12 432 618.12 432 
" clip-path="url(#p6ce2aa5f00)" style="fill: none; stroke: #000000; stroke-linejoin: miter"/>
   </g>
   <g id="patch_103">
    <path d="M 541.44 432 
Q 541.44 468 618.12 468 
" clip-path="url(#p6ce2aa5f00)" style="fill: none; stroke: #000000; stroke-linejoin: miter"/>
   </g>
   <g id="patch_104">
    <path d="M 618.12 432 
Q 618.12 504 618.12 504 
" clip-path="url(#p6ce2aa5f00)" style="fill: none; stroke: #000000; stroke-linejoin: miter"/>
   </g>
   <g id="patch_105">
    <path d="M 672.12 432 
Q 672.12 468 618.12 468 
" clip-path="url(#p6ce2aa5f00)" style="fill: none; stroke: #000000; stroke-linejoin: miter"/>
   </g>
   <g id="patch_106">
    <path d="M 618.12 504 
Q 618.12 522 618.12 522 
" clip-path="url(#p6ce2aa5f00)" style="fill: none; stroke: #000000; stroke-linejoin: miter"/>
   </g>
   <g id="patch_107">
    <path d="M 552.78 540 
Q 552.78 540 552.78 558 
" clip-path="url(#p6ce2aa5f00)" style="fill: none; stroke: #000000; stroke-linejoin: miter"/>
   </g>
   <g id="patch_108">
    <path d="M 487.44 522 
Q 487.44 540 552.78 540 
" clip-path="url(#p6ce2aa5f00)" style="fill: none; stroke: #000000; stroke-linejoin: miter"/>
   </g>
   <g id="patch_109">
    <path d="M 618.12 522 
Q 618.12 540 552.78 540 
" clip-path="url(#p6ce2aa5f00)" style="fill: none; stroke: #000000; stroke-linejoin: miter"/>
   </g>
   <g id="patch_110">
    <path d="M 552.78 558 
Q 552.78 576 552.78 576 
" clip-path="url(#p6ce2aa5f00)" style="fill: none; stroke: #000000; stroke-linejoin: miter"/>
   </g>
   <g id="patch_111">
    <path d="M 112.68 306 
L 112.68 270 
L 148.68 270 
L 148.68 306 
z
" clip-path="url(#p6ce2aa5f00)" style="fill: #ffffff; stroke: #000000; stroke-linejoin: miter"/>
   </g>
   <g id="patch_112">
    <path d="M 469.44 198 
L 469.44 162 
L 505.44 162 
L 505.44 198 
z
" clip-path="url(#p6ce2aa5f00)" style="fill: #ffffff; stroke: #000000; stroke-linejoin: miter"/>
   </g>
   <g id="patch_113">
    <path d="M 600.12 414 
L 600.12 378 
L 636.12 378 
L 636.12 414 
z
" clip-path="url(#p6ce2aa5f00)" style="fill: #ffffff; stroke: #000000; stroke-linejoin: miter"/>
   </g>
   <g id="PathCollection_1">
    <defs>
     <path id="C0_0_5fe12861c2" d="M 0 4.92189 
C 1.3053 4.92189 2.557315 4.403289 3.480302 3.480302 
C 4.403289 2.557315 4.92189 1.3053 4.92189 -0 
C 4.92189 -1.3053 4.403289 -2.557315 3.480302 -3.480302 
C 2.557315 -4.403289 1.3053 -4.92189 0 -4.92189 
C -1.3053 -4.92189 -2.557315 -4.403289 -3.480302 -3.480302 
C -4.403289 -2.557315 -4.92189 -1.3053 -4.92189 0 
C -4.92189 1.3053 -4.403289 2.557315 -3.480302 3.480302 
C -2.557315 4.403289 -1.3053 4.92189 0 4.92189 
z
"/>
    </defs>
    <g clip-path="url(#p6ce2aa5f00)">
     <use xlink:href="#C0_0_5fe12861c2" x="274.68" y="288" style="fill: #ffffff; stroke: #ffffff"/>
    </g>
    <g clip-path="url(#p6ce2aa5f00)">
     <use xlink:href="#C0_0_5fe12861c2" x="523.44" y="36" style="fill: #e8a5a5; stroke: #e8a5a5"/>
    </g>
    <g clip-path="url(#p6ce2aa5f00)">
     <use xlink:href="#C0_0_5fe12861c2" x="552.78" y="540" style="fill: #e8a5a5; stroke: #e8a5a5"/>
    </g>
   </g>
   <g id="text_1">
    <!-- g -->
    <g transform="translate(127.505781 290.759375) scale(0.1 -0.1)">
     <defs>
      <path id="DejaVuSans-67" d="M 2906 1791 
Q 2906 2416 2648 2759 
Q 2391 3103 1925 3103 
Q 1463 3103 1205 2759 
Q 947 2416 947 1791 
Q 947 1169 1205 825 
Q 1463 481 1925 481 
Q 2391 481 2648 825 
Q 2906 1169 2906 1791 
z
M 3481 434 
Q 3481 -459 3084 -895 
Q 2688 -1331 1869 -1331 
Q 1566 -1331 1297 -1286 
Q 1028 -1241 775 -1147 
L 775 -588 
Q 1028 -725 1275 -790 
Q 1522 -856 1778 -856 
Q 2344 -856 2625 -561 
Q 2906 -266 2906 331 
L 2906 616 
Q 2728 306 2450 153 
Q 2172 0 1784 0 
Q 1141 0 747 490 
Q 353 981 353 1791 
Q 353 2603 747 3093 
Q 1141 3584 1784 3584 
Q 2172 3584 2450 3431 
Q 2728 3278 2906 2969 
L 2906 3500 
L 3481 3500 
L 3481 434 
z
" transform="scale(0.015625)"/>
     </defs>
     <use xlink:href="#DejaVuSans-67"/>
    </g>
   </g>
   <g id="text_2">
    <!-- g -->
    <g transform="translate(484.265781 182.759375) scale(0.1 -0.1)">
     <use xlink:href="#DejaVuSans-67"/>
    </g>
   </g>
   <g id="text_3">
    <!-- g -->
    <g transform="translate(614.945781 398.759375) scale(0.1 -0.1)">
     <use xlink:href="#DejaVuSans-67"/>
    </g>
   </g>
   <g id="text_4">
    <g clip-path="url(#p6ce2aa5f00)">
     <!-- = -->
     <g transform="translate(269.652187 291.31125) scale(0.12 -0.12)">
      <defs>
       <path id="DejaVuSans-3d" d="M 678 2906 
L 4684 2906 
L 4684 2381 
L 678 2381 
L 678 2906 
z
M 678 1631 
L 4684 1631 
L 4684 1100 
L 678 1100 
L 678 1631 
z
" transform="scale(0.015625)"/>
      </defs>
      <use xlink:href="#DejaVuSans-3d"/>
     </g>
    </g>
   </g>
  </g>
 </g>
 <defs>
  <clipPath id="p6ce2aa5f00">
   <rect x="0" y="0" width="690.12" height="576"/>
  </clipPath>
 </defs>
</svg>
