<?xml version="1.0" encoding="utf-8" standalone="no"?>
<!DOCTYPE svg PUBLIC "-//W3C//DTD SVG 1.1//EN"
  "http://www.w3.org/Graphics/SVG/1.1/DTD/svg11.dtd">
<svg xmlns:xlink="http://www.w3.org/1999/xlink" width="540pt" height="576pt" viewBox="0 0 540 576" xmlns="http://www.w3.org/2000/svg" version="1.1">
 <metadata>
  <rdf:RDF xmlns:dc="http://purl.org/dc/elements/1.1/" xmlns:cc="http://creativecommons.org/ns#" xmlns:rdf="http://www.w3.org/1999/02/22-rdf-syntax-ns#">
   <cc:Work>
    <dc:type rdf:resource="http://purl.org/dc/dcmitype/StillImage"/>
    <dc:format>image/svg+xml</dc:format>
    <dc:creator>
     <cc:Agent>
      <dc:title>Matplotlib v3.10.9, https://matplotlib.org/</dc:title>
     </cc:Agent>
    </dc:creator>
   </cc:Work>
  </rdf:RDF>
 </metadata>
 <defs>
  <style type="text/css">*{stroke-linejoin: round; stroke-linecap: butt}</style>
 </defs>
 <g id="figure_1">
  <g id="patch_1">
   <path d="M 0 576 
L 540 576 
L 540 0 
L 0 0 
z
" style="fill: #ffffff"/>
  </g>
  <g id="axes_1">
   <g id="patch_2">
    <path d="M 0 576 
L 540 576 
L 540 0 
L 0 0 
z
" clip-path="url(#p92beea22b9)" style="fill: #ffffff; stroke: #ffffff; stroke-linejoin: miter"/>
   </g>
   <g id="patch_3">
    <path d="M 0 576 
Q 0 0 0 0 
L 540 0 
L 540 576 
z
" clip-path="url(#p92beea22b9)" style="fill: #ffffff"/>
   </g>
   <g id="patch_4">
    <path d="M 18 180 
Q 18 396 18 396 
L 540 396 
L 540 180 
z
" clip-path="url(#p92beea22b9)" style="fill: #ffffff"/>
   </g>
   <g id="patch_5">
    <path d="M 54 252 
Q 54 324 54 324 
L 540 324 
L 540 252 
z
" clip-path="url(#p92beea22b9)" style="fill: #ffffff"/>
   </g>
   <g id="patch_6">
    <path d="M 108 144 
Q 18 144 18 180 
L 540 180 
L 540 144 
z
" clip-path="url(#p92beea22b9)" style="fill: #ffffff"/>
   </g>
   <g id="patch_7">
    <path d="M 18 396 
Q 18 432 108 432 
L 540 432 
L 540 396 
z
" clip-path="url(#p92beea22b9)" style="fill: #ffffff"/>
   </g>
   <g id="patch_8">
    <path d="M 108 216 
Q 54 216 54 252 
L 540 252 
L 540 216 
z
" clip-path="url(#p92beea22b9)" style="fill: #ffffff"/>
   </g>
   <g id="patch_9">
    <path d="M 54 324 
Q 54 360 108 360 
L 540 360 
L 540 324 
z
" clip-path="url(#p92beea22b9)" style="fill: #ffffff"/>
   </g>
   <g id="patch_10">
    <path d="M 108 0 
Q 108 108 108 108 
L 540 108 
L 540 0 
z
" clip-path="url(#p92beea22b9)" style="fill: #ffffff"/>
   </g>
   <g id="patch_11">
    <path d="M 108 108 
Q 108 180 108 180 
L 540 180 
L 540 108 
z
" clip-path="url(#p92beea22b9)" style="fill: #ffffff"/>
   </g>
   <g id="patch_12">
    <path d="M 108 180 
Q 108 252 108 252 
L 540 252 
L 540 180 
z
" clip-path="url(#p92beea22b9)" style="fill: #ffffff"/>
   </g>
   <g id="patch_13">
    <path d="M 108 252 
Q 108 270 108 270 
L 540 270 
L 540 252 
z
" clip-path="url(#p92beea22b9)" style="fill: #ffffff"/>
   </g>
   <g id="patch_14">
    <path d="M 108 306 
Q 108 324 108 324 
L 540 324 
L 540 306 
z
" clip-path="url(#p92beea22b9)" style="fill: #ffffff"/>
   </g>
   <g id="patch_15">
    <path d="M 108 324 
Q 108 396 108 396 
L 540 396 
L 540 324 
z
" clip-path="url(#p92beea22b9)" style="fill: #ffffff"/>
   </g>
   <g id="patch_16">
    <path d="M 108 396 
Q 108 468 108 468 
L 540 468 
L 540 396 
z
" clip-path="url(#p92beea22b9)" style="fill: #ffffff"/>
   </g>
   <g id="patch_17">
    <path d="M 108 468 
Q 108 576 108 576 
L 540 576 
L 540 468 
z
" clip-path="url(#p92beea22b9)" style="fill: #ffffff"/>
   </g>
   <g id="patch_18">
    <path d="M 126 270 
Q 126 306 126 306 
L 540 306 
L 540 270 
z
" clip-path="url(#p92beea22b9)" style="fill: #ffffff"/>
   </g>
   <g id="patch_19">
    <path d="M 108 216 
Q 162 216 162 252 
L 540 252 
L 540 216 
z
" clip-path="url(#p92beea22b9)" style="fill: #ffffff"/>
   </g>
   <g id="patch_20">
    <path d="M 162 324 
Q 162 360 108 360 
L 540 360 
L 540 324 
z
" clip-path="url(#p92beea22b9)" style="fill: #ffffff"/>
   </g>
   <g id="patch_21">
    <path d="M 108 144 
Q 198 144 198 180 
L 540 180 
L 540 144 
z
" clip-path="url(#p92beea22b9)" style="fill: #ffffff"/>
   </g>
   <g id="patch_22">
    <path d="M 198 396 
Q 198 432 108 432 
L 540 432 
L 540 396 
z
" clip-path="url(#p92beea22b9)" style="fill: #ffffff"/>
   </g>
   <g id="patch_23">
    <path d="M 162 252 
Q 162 324 162 324 
L 540 324 
L 540 252 
z
" clip-path="url(#p92beea22b9)" style="fill: #ffffff"/>
   </g>
   <g id="patch_24">
    <path d="M 198 180 
Q 198 396 198 396 
L 540 396 
L 540 180 
z
" clip-path="url(#p92beea22b9)" style="fill: #ffffff"/>
   </g>
   <g id="patch_25">
    <path d="M 306 144 
Q 306 216 306 216 
L 540 216 
L 540 144 
z
" clip-path="url(#p92beea22b9)" style="fill: #ffffff"/>
   </g>
   <g id="patch_26">
    <path d="M 360 108 
Q 306 108 306 144 
L 540 144 
L 540 108 
z
" clip-path="url(#p92beea22b9)" style="fill: #ffffff"/>
   </g>
   <g id="patch_27">
    <path d="M 306 216 
Q 306 252 360 252 
L 540 252 
L 540 216 
z
" clip-path="url(#p92beea22b9)" style="fill: #ffffff"/>
   </g>
   <g id="patch_28">
    <path d="M 360 54 
Q 360 72 360 72 
L 540 72 
L 540 54 
z
" clip-path="url(#p92beea22b9)" style="fill: #ffffff"/>
   </g>
   <g id="patch_29">
    <path d="M 360 72 
Q 360 144 360 144 
L 540 144 
L 540 72 
z
" clip-path="url(#p92beea22b9)" style="fill: #ffffff"/>
   </g>
   <g id="patch_30">
    <path d="M 360 144 
Q 360 162 360 162 
L 540 162 
L 540 144 
z
" clip-path="url(#p92beea22b9)" style="fill: #ffffff"/>
   </g>
   <g id="patch_31">
    <path d="M 360 198 
Q 360 216 360 216 
L 540 216 
L 540 198 
z
" clip-path="url(#p92beea22b9)" style="fill: #ffffff"/>
   </g>
   <g id="patch_32">
    <path d="M 360 216 
Q 360 288 360 288 
L 540 288 
L 540 216 
z
" clip-path="url(#p92beea22b9)" style="fill: #ffffff"/>
   </g>
   <g id="patch_33">
    <path d="M 360 288 
Q 360 522 360 522 
L 540 522 
L 540 288 
z
" clip-path="url(#p92beea22b9)" style="fill: #ffffff"/>
   </g>
   <g id="patch_34">
    <path d="M 396 36 
Q 360 36 360 54 
L 540 54 
L 540 36 
z
" clip-path="url(#p92beea22b9)" style="fill: #ffffff"/>
   </g>
   <g id="patch_35">
    <path d="M 378 162 
Q 378 198 378 198 
L 540 198 
L 540 162 
z
" clip-path="url(#p92beea22b9)" style="fill: #ffffff"/>
   </g>
   <g id="patch_36">
    <path d="M 360 108 
Q 414 108 414 144 
L 540 144 
L 540 108 
z
" clip-path="url(#p92beea22b9)" style="fill: #ffffff"/>
   </g>
   <g id="patch_37">
    <path d="M 414 216 
Q 414 252 360 252 
L 540 252 
L 540 216 
z
" clip-path="url(#p92beea22b9)" style="fill: #ffffff"/>
   </g>
   <g id="patch_38">
    <path d="M 360 522 
Q 360 540 414 540 
L 540 540 
L 540 522 
z
" clip-path="url(#p92beea22b9)" style="fill: #ffffff"/>
   </g>
   <g id="patch_39">
    <path d="M 396 0 
Q 396 18 396 18 
L 540 18 
L 540 0 
z
" clip-path="url(#p92beea22b9)" style="fill: #ffffff"/>
   </g>
   <g id="patch_40">
    <path d="M 396 18 
Q 396 36 396 36 
L 540 36 
L 540 18 
z
" clip-path="url(#p92beea22b9)" style="fill: #ffffff"/>
   </g>
   <g id="patch_41">
    <path d="M 414 144 
Q 414 216 414 216 
L 540 216 
L 540 144 
z
" clip-path="url(#p92beea22b9)" style="fill: #ffffff"/>
   </g>
   <g id="patch_42">
    <path d="M 414 360 
Q 414 432 414 432 
L 540 432 
L 540 360 
z
" clip-path="url(#p92beea22b9)" style="fill: #ffffff"/>
   </g>
   <g id="patch_43">
    <path d="M 414 540 
Q 414 540 414 558 
L 540 558 
L 540 540 
z
" clip-path="url(#p92beea22b9)" style="fill: #ffffff"/>
   </g>
   <g id="patch_44">
    <path d="M 414 558 
Q 414 576 414 576 
L 540 576 
L 540 558 
z
" clip-path="url(#p92beea22b9)" style="fill: #ffffff"/>
   </g>
   <g id="patch_45">
    <path d="M 396 36 
Q 468 36 468 54 
L 540 54 
L 540 36 
z
" clip-path="url(#p92beea22b9)" style="fill: #ffffff"/>
   </g>
   <g id="patch_46">
    <path d="M 468 324 
Q 414 324 414 360 
L 540 360 
L 540 324 
z
" clip-path="url(#p92beea22b9)" style="fill: #ffffff"/>
   </g>
   <g id="patch_47">
    <path d="M 414 432 
Q 414 468 468 468 
L 540 468 
L 540 432 
z
" clip-path="url(#p92beea22b9)" style="fill: #ffffff"/>
   </g>
   <g id="patch_48">
    <path d="M 468 522 
Q 468 540 414 540 
L 540 540 
L 540 522 
z
" clip-path="url(#p92beea22b9)" style="fill: #ffffff"/>
   </g>
   <g id="patch_49">
    <path d="M 468 54 
Q 468 288 468 288 
L 540 288 
L 540 54 
z
" clip-path="url(#p92beea22b9)" style="fill: #ffffff"/>
   </g>
   <g id="patch_50">
    <path d="M 468 288 
Q 468 360 468 360 
L 540 360 
L 540 288 
z
" clip-path="url(#p92beea22b9)" style="fill: #ffffff"/>
   </g>
   <g id="patch_51">
    <path d="M 468 360 
Q 468 378 468 378 
L 540 378 
L 540 360 
z
" clip-path="url(#p92beea22b9)" style="fill: #ffffff"/>
   </g>
   <g id="patch_52">
    <path d="M 468 414 
Q 468 432 468 432 
L 540 432 
L 540 414 
z
" clip-path="url(#p92beea22b9)" style="fill: #ffffff"/>
   </g>
   <g id="patch_53">
    <path d="M 468 432 
Q 468 504 468 504 
L 540 504 
L 540 432 
z
" clip-path="url(#p92beea22b9)" style="fill: #ffffff"/>
   </g>
   <g id="patch_54">
    <path d="M 468 504 
Q 468 522 468 522 
L 540 522 
L 540 504 
z
" clip-path="url(#p92beea22b9)" style="fill: #ffffff"/>
   </g>
   <g id="patch_55">
    <path d="M 486 378 
Q 486 414 486 414 
L 540 414 
L 540 378 
z
" clip-path="url(#p92beea22b9)" style="fill: #ffffff"/>
   </g>
   <g id="patch_56">
    <path d="M 468 324 
Q 522 324 522 360 
L 540 360 
L 540 324 
z
" clip-path="url(#p92beea22b9)" style="fill: #ffffff"/>
   </g>
   <g id="patch_57">
    <path d="M 522 432 
Q 522 468 468 468 
L 540 468 
L 540 432 
z
" clip-path="url(#p92beea22b9)" style="fill: #ffffff"/>
   </g>
   <g id="patch_58">
    <path d="M 522 360 
Q 522 432 522 432 
L 540 432 
L 540 360 
z
" clip-path="url(#p92beea22b9)" style="fill: #ffffff"/>
   </g>
   <g id="patch_59">
    <path d="M 108 144 
Q 18 144 18 180 
" clip-path="url(#p92beea22b9)" style="fill: none; stroke: #000000; stroke-linejoin: miter"/>
   </g>
   <g id="patch_60">
    <path d="M 108 144 
Q 198 144 198 180 
" clip-path="url(#p92beea22b9)" style="fill: none; stroke: #000000; stroke-linejoin: miter"/>
   </g>
   <g id="patch_61">
    <path d="M 108 0 
Q 108 108 108 108 
" clip-path="url(#p92beea22b9)" style="fill: none; stroke: #000000; stroke-linejoin: miter"/>
   </g>
   <g id="patch_62">
    <path d="M 108 108 
Q 108 180 108 180 
" clip-path="url(#p92beea22b9)" style="fill: none; stroke: #000000; stroke-linejoin: miter"/>
   </g>
   <g id="patch_63">
    <path d="M 18 180 
Q 18 396 18 396 
" clip-path="url(#p92beea22b9)" style="fill: none; stroke: #000000; stroke-linejoin: miter"/>
   </g>
   <g id="patch_64">
    <path d="M 198 180 
Q 198 396 198 396 
" clip-path="url(#p92beea22b9)" style="fill: none; stroke: #000000; stroke-linejoin: miter"/>
   </g>
   <g id="patch_65">
    <path d="M 108 216 
Q 54 216 54 252 
" clip-path="url(#p92beea22b9)" style="fill: none; stroke: #000000; stroke-linejoin: miter"/>
   </g>
   <g id="patch_66">
    <path d="M 108 216 
Q 162 216 162 252 
" clip-path="url(#p92beea22b9)" style="fill: none; stroke: #000000; stroke-linejoin: miter"/>
   </g>
   <g id="patch_67">
    <path d="M 108 180 
Q 108 252 108 252 
" clip-path="url(#p92beea22b9)" style="fill: none; stroke: #000000; stroke-linejoin: miter"/>
   </g>
   <g id="patch_68">
    <path d="M 54 252 
Q 54 324 54 324 
" clip-path="url(#p92beea22b9)" style="fill: none; stroke: #000000; stroke-linejoin: miter"/>
   </g>
   <g id="patch_69">
    <path d="M 108 252 
Q 108 270 108 270 
" clip-path="url(#p92beea22b9)" style="fill: none; stroke: #000000; stroke-linejoin: miter"/>
   </g>
   <g id="patch_70">
    <path d="M 162 252 
Q 162 324 162 324 
" clip-path="url(#p92beea22b9)" style="fill: none; stroke: #000000; stroke-linejoin: miter"/>
   </g>
   <g id="patch_71">
    <path d="M 108 306 
Q 108 324 108 324 
" clip-path="url(#p92beea22b9)" style="fill: none; stroke: #000000; stroke-linejoin: miter"/>
   </g>
   <g id="patch_72">
    <path d="M 54 324 
Q 54 360 108 360 
" clip-path="url(#p92beea22b9)" style="fill: none; stroke: #000000; stroke-linejoin: miter"/>
   </g>
   <g id="patch_73">
    <path d="M 108 324 
Q 108 396 108 396 
" clip-path="url(#p92beea22b9)" style="fill: none; stroke: #000000; stroke-linejoin: miter"/>
   </g>
   <g id="patch_74">
    <path d="M 162 324 
Q 162 360 108 360 
" clip-path="url(#p92beea22b9)" style="fill: none; stroke: #000000; stroke-linejoin: miter"/>
   </g>
   <g id="patch_75">
    <path d="M 18 396 
Q 18 432 108 432 
" clip-path="url(#p92beea22b9)" style="fill: none; stroke: #000000; stroke-linejoin: miter"/>
   </g>
   <g id="patch_76">
    <path d="M 108 396 
Q 108 468 108 468 
" clip-path="url(#p92beea22b9)" style="fill: none; stroke: #000000; stroke-linejoin: miter"/>
   </g>
   <g id="patch_77">
    <path d="M 198 396 
Q 198 432 108 432 
" clip-path="url(#p92beea22b9)" style="fill: none; stroke: #000000; stroke-linejoin: miter"/>
   </g>
   <g id="patch_78">
    <path d="M 108 468 
Q 108 576 108 576 
" clip-path="url(#p92beea22b9)" style="fill: none; stroke: #000000; stroke-linejoin: miter"/>
   </g>
   <g id="patch_79">
    <path d="M 396 36 
Q 360 36 360 54 
" clip-path="url(#p92beea22b9)" style="fill: none; stroke: #000000; stroke-linejoin: miter"/>
   </g>
   <g id="patch_80">
    <path d="M 396 36 
Q 468 36 468 54 
" clip-path="url(#p92beea22b9)" style="fill: none; stroke: #000000; stroke-linejoin: miter"/>
   </g>
   <g id="patch_81">
    <path d="M 396 0 
Q 396 18 396 18 
" clip-path="url(#p92beea22b9)" style="fill: none; stroke: #000000; stroke-linejoin: miter"/>
   </g>
   <g id="patch_82">
    <path d="M 396 18 
Q 396 36 396 36 
" clip-path="url(#p92beea22b9)" style="fill: none; stroke: #000000; stroke-linejoin: miter"/>
   </g>
   <g id="patch_83">
    <path d="M 360 54 
Q 360 72 360 72 
" clip-path="url(#p92beea22b9)" style="fill: none; stroke: #000000; stroke-linejoin: miter"/>
   </g>
   <g id="patch_84">
    <path d="M 468 54 
Q 468 288 468 288 
" clip-path="url(#p92beea22b9)" style="fill: none; stroke: #000000; stroke-linejoin: miter"/>
   </g>
   <g id="patch_85">
    <path d="M 360 108 
Q 306 108 306 144 
" clip-path="url(#p92beea22b9)" style="fill: none; stroke: #000000; stroke-linejoin: miter"/>
   </g>
   <g id="patch_86">
    <path d="M 360 108 
Q 414 108 414 144 
" clip-path="url(#p92beea22b9)" style="fill: none; stroke: #000000; stroke-linejoin: miter"/>
   </g>
   <g id="patch_87">
    <path d="M 360 72 
Q 360 144 360 144 
" clip-path="url(#p92beea22b9)" style="fill: none; stroke: #000000; stroke-linejoin: miter"/>
   </g>
   <g id="patch_88">
    <path d="M 306 144 
Q 306 216 306 216 
" clip-path="url(#p92beea22b9)" style="fill: none; stroke: #000000; stroke-linejoin: miter"/>
   </g>
   <g id="patch_89">
    <path d="M 360 144 
Q 360 162 360 162 
" clip-path="url(#p92beea22b9)" style="fill: none; stroke: #000000; stroke-linejoin: miter"/>
   </g>
   <g id="patch_90">
    <path d="M 414 144 
Q 414 216 414 216 
" clip-path="url(#p92beea22b9)" style="fill: none; stroke: #000000; stroke-linejoin: miter"/>
   </g>
   <g id="patch_91">
    <path d="M 360 198 
Q 360 216 360 216 
" clip-path="url(#p92beea22b9)" style="fill: none; stroke: #000000; stroke-linejoin: miter"/>
   </g>
   <g id="patch_92">
    <path d="M 306 216 
Q 306 252 360 252 
" clip-path="url(#p92beea22b9)" style="fill: none; stroke: #000000; stroke-linejoin: miter"/>
   </g>
   <g id="patch_93">
    <path d="M 360 216 
Q 360 288 360 288 
" clip-path="url(#p92beea22b9)" style="fill: none; stroke: #000000; stroke-linejoin: miter"/>
   </g>
   <g id="patch_94">
    <path d="M 414 216 
Q 414 252 360 252 
" clip-path="url(#p92beea22b9)" style="fill: none; stroke: #000000; stroke-linejoin: miter"/>
   </g>
   <g id="patch_95">
    <path d="M 360 288 
Q 360 522 360 522 
" clip-path="url(#p92beea22b9)" style="fill: none; stroke: #000000; stroke-linejoin: miter"/>
   </g>
   <g id="patch_96">
    <path d="M 468 324 
Q 414 324 414 360 
" clip-path="url(#p92beea22b9)" style="fill: none; stroke: #000000; stroke-linejoin: miter"/>
   </g>
   <g id="patch_97">
    <path d="M 468 324 
Q 522 324 522 360 
" clip-path="url(#p92beea22b9)" style="fill: none; stroke: #000000; stroke-linejoin: miter"/>
   </g>
   <g id="patch_98">
    <path d="M 468 288 
Q 468 360 468 360 
" clip-path="url(#p92beea22b9)" style="fill: none; stroke: #000000; stroke-linejoin: miter"/>
   </g>
   <g id="patch_99">
    <path d="M 414 360 
Q 414 432 414 432 
" clip-path="url(#p92beea22b9)" style="fill: none; stroke: #000000; stroke-linejoin: miter"/>
   </g>
   <g id="patch_100">
    <path d="M 468 360 
Q 468 378 468 378 
" clip-path="url(#p92beea22b9)" style="fill: none; stroke: #000000; stroke-linejoin: miter"/>
   </g>
   <g id="patch_101">
    <path d="M 522 360 
Q 522 432 522 432 
" clip-path="url(#p92beea22b9)" style="fill: none; stroke: #000000; stroke-linejoin: miter"/>
   </g>
   <g id="patch_102">
    <path d="M 468 414 
Q 468 432 468 432 
" clip-path="url(#p92beea22b9)" style="fill: none; stroke: #000000; stroke-linejoin: miter"/>
   </g>
   <g id="patch_103">
    <path d="M 414 432 
Q 414 468 468 468 
" clip-path="url(#p92beea22b9)" style="fill: none; stroke: #000000; stroke-linejoin: miter"/>
   </g>
   <g id="patch_104">
    <path d="M 468 432 
Q 468 504 468 504 
" clip-path="url(#p92beea22b9)" style="fill: none; stroke: #000000; stroke-linejoin: miter"/>
   </g>
   <g id="patch_105">
    <path d="M 522 432 
Q 522 468 468 468 
" clip-path="url(#p92beea22b9)" style="fill: none; stroke: #000000; stroke-linejoin: miter"/>
   </g>
   <g id="patch_106">
    <path d="M 468 504 
Q 468 522 468 522 
" clip-path="url(#p92beea22b9)" style="fill: none; stroke: #000000; stroke-linejoin: miter"/>
   </g>
   <g id="patch_107">
    <path d="M 414 540 
Q 414 540 414 558 
" clip-path="url(#p92beea22b9)" style="fill: none; stroke: #000000; stroke-linejoin: miter"/>
   </g>
   <g id="patch_108">
    <path d="M 360 522 
Q 360 540 414 540 
" clip-path="url(#p92beea22b9)" style="fill: none; stroke: #000000; stroke-linejoin: miter"/>
   </g>
   <g id="patch_109">
    <path d="M 468 522 
Q 468 540 414 540 
" clip-path="url(#p92beea22b9)" style="fill: none; stroke: #000000; stroke-linejoin: miter"/>
   </g>
   <g id="patch_110">
    <path d="M 414 558 
Q 414 576 414 576 
" clip-path="url(#p92beea22b9)" style="fill: none; stroke: #000000; stroke-linejoin: miter"/>
   </g>
   <g id="patch_111">
    <path d="M 90 306 
L 90 270 
L 126 270 
L 126 306 
z
" clip-path="url(#p92beea22b9)" style="fill: #ffffff; stroke: #000000; stroke-linejoin: miter"/>
   </g>
   <g id="patch_112">
    <path d="M 342 198 
L 342 162 
L 378 162 
L 378 198 
z
" clip-path="url(#p92beea22b9)" style="fill: #ffffff; stroke: #000000; stroke-linejoin: miter"/>
   </g>
   <g id="patch_113">
    <path d="M 450 414 
L 450 378 
L 486 378 
L 486 414 
z
" clip-path="url(#p92beea22b9)" style="fill: #ffffff; stroke: #000000; stroke-linejoin: miter"/>
   </g>
   <g id="PathCollection_1">
    <defs>
     <path id="C0_0_8c61628325" d="M 0 5.152669 
C 1.366504 5.152669 2.677223 4.609751 3.643487 3.643487 
C 4.609751 2.677223 5.152669 1.366504 5.152669 -0 
C 5.152669 -1.366504 4.609751 -2.677223 3.643487 -3.643487 
C 2.677223 -4.609751 1.366504 -5.152669 0 -5.152669 
C -1.366504 -5.152669 -2.677223 -4.609751 -3.643487 -3.643487 
C -4.609751 -2.677223 -5.152669 -1.366504 -5.152669 0 
C -5.152669 1.366504 -4.609751 2.677223 -3.643487 3.643487 
C -2.677223 4.609751 -1.366504 5.152669 0 5.152669 
z
"/>
    </defs>
    <g clip-path="url(#p92beea22b9)">
     <use xlink:href="#C0_0_8c61628325" x="396" y="36" style="stroke: #000000"/>
    </g>
    <g clip-path="url(#p92beea22b9)">
     <use xlink:href="#C0_0_8c61628325" x="414" y="540" style="stroke: #000000"/>
    </g>
    <g clip-path="url(#p92beea22b9)">
     <use xlink:href="#C0_0_8c61628325" x="252" y="288" style="fill: #ffffff; stroke: #ffffff"/>
    </g>
   </g>
   <g id="text_1">
    <!-- g -->
    <g transform="translate(104.825781 290.759375) scale(0.1 -0.1)">
     <defs>
      <path id="DejaVuSans-67" d="M 2906 1791 
Q 2906 2416 2648 2759 
Q 2391 3103 1925 3103 
Q 1463 3103 1205 2759 
Q 947 2416 947 1791 
Q 947 1169 1205 825 
Q 1463 481 1925 481 
Q 2391 481 2648 825 
Q 2906 1169 2906 1791 
z
M 3481 434 
Q 3481 -459 3084 -895 
Q 2688 -1331 1869 -1331 
Q 1566 -1331 1297 -1286 
Q 1028 -1241 775 -1147 
L 775 -588 
Q 1028 -725 1275 -790 
Q 1522 -856 1778 -856 
Q 2344 -856 2625 -561 
Q 2906 -266 2906 331 
L 2906 616 
Q 2728 306 2450 153 
Q 2172 0 1784 0 
Q 1141 0 747 490 
Q 353 981 353 1791 
Q 353 2603 747 3093 
Q 1141 3584 1784 3584 
Q 2172 3584 2450 3431 
Q 2728 3278 2906 2969 
L 2906 3500 
L 3481 3500 
L 3481 434 
z
" transform="scale(0.015625)"/>
     </defs>
     <use xlink:href="#DejaVuSans-67"/>
    </g>
   </g>
   <g id="text_2">
    <!-- g -->
    <g transform="translate(356.825781 182.759375) scale(0.1 -0.1)">
     <use xlink:href="#DejaVuSans-67"/>
    </g>
   </g>
   <g id="text_3">
    <!-- g -->
    <g transform="translate(464.825781 398.759375) scale(0.1 -0.1)">
     <use xlink:href="#DejaVuSans-67"/>
    </g>
   </g>
   <g id="text_4">
    <g clip-path="url(#p92beea22b9)">
     <!-- = -->
     <g transform="translate(246.972187 291.31125) scale(0.12 -0.12)">
      <defs>
       <path id="DejaVuSans-3d" d="M 678 2906 
L 4684 2906 
L 4684 2381 
L 678 2381 
L 678 2906 
z
M 678 1631 
L 4684 1631 
L 4684 1100 
L 678 1100 
L 678 1631 
z
" transform="scale(0.015625)"/>
      </defs>
      <use xlink:href="#DejaVuSans-3d"/>
     </g>
    </g>
   </g>
  </g>
 </g>
 <defs>
  <clipPath id="p92beea22b9">
   <rect x="0" y="0" width="540" height="576"/>
  </clipPath>
 </defs>
</svg>
