<?xml version="1.0" encoding="utf-8" standalone="no"?>
<!DOCTYPE svg PUBLIC "-//W3C//DTD SVG 1.1//EN"
  "http://www.w3.org/Graphics/SVG/1.1/DTD/svg11.dtd">
<svg xmlns:xlink="http://www.w3.org/1999/xlink" width="216.72pt" height="432pt" viewBox="0 0 216.72 432" xmlns="http://www.w3.org/2000/svg" version="1.1">
 <metadata>
  <rdf:RDF xmlns:dc="http://purl.org/dc/elements/1.1/" xmlns:cc="http://creativecommons.org/ns#" xmlns:rdf="http://www.w3.org/1999/02/22-rdf-syntax-ns#">
   <cc:Work>
    <dc:type rdf:resource="http://purl.org/dc/dcmitype/StillImage"/>
    <dc:format>image/svg+xml</dc:format>
    <dc:creator>
     <cc:Agent>
      <dc:title>Matplotlib v3.10.9, https://matplotlib.org/</dc:title>
     </cc:Agent>
    </dc:creator>
   </cc:Work>
  </rdf:RDF>
 </metadata>
 <defs>
  <style type="text/css">*{stroke-linejoin: round; stroke-linecap: butt}</style>
 </defs>
 <g id="figure_1">
  <g id="patch_1">
   <path d="M 0 432 
L 216.72 432 
L 216.72 0 
L 0 0 
z
" style="fill: #ffffff"/>
  </g>
  <g id="axes_1">
   <g id="patch_2">
    <path d="M 0 431.570292 
L 216.72 431.570292 
L 216.72 0.429708 
L 0 0.429708 
z
" clip-path="url(#peea82c1b6a)" style="fill: #ffffff; stroke: #ffffff; stroke-linejoin: miter"/>
   </g>
   <g id="patch_3">
    <path d="M 0 431.570292 
Q 0 0.429708 0 0.429708 
L 216.72 0.429708 
L 216.72 431.570292 
z
" clip-path="url(#peea82c1b6a)" style="fill: #ffffff"/>
   </g>
   <g id="patch_4">
    <path d="M 17.964191 72.286472 
Q 17.964191 359.713528 17.964191 359.713528 
L 216.72 359.713528 
L 216.72 72.286472 
z
" clip-path="url(#peea82c1b6a)" style="fill: #ffffff"/>
   </g>
   <g id="patch_5">
    <path d="M 53.892573 216 
Q 53.892573 287.856764 53.892573 287.856764 
L 216.72 287.856764 
L 216.72 216 
z
" clip-path="url(#peea82c1b6a)" style="fill: #ffffff"/>
   </g>
   <g id="patch_6">
    <path d="M 108.36 36.35809 
Q 17.964191 36.35809 17.964191 72.286472 
L 216.72 72.286472 
L 216.72 36.35809 
z
" clip-path="url(#peea82c1b6a)" style="fill: #ffffff"/>
   </g>
   <g id="patch_7">
    <path d="M 17.964191 359.713528 
Q 17.964191 395.64191 108.36 395.64191 
L 216.72 395.64191 
L 216.72 359.713528 
z
" clip-path="url(#peea82c1b6a)" style="fill: #ffffff"/>
   </g>
   <g id="patch_8">
    <path d="M 108.36 180.071618 
Q 53.892573 180.071618 53.892573 216 
L 216.72 216 
L 216.72 180.071618 
z
" clip-path="url(#peea82c1b6a)" style="fill: #ffffff"/>
   </g>
   <g id="patch_9">
    <path d="M 53.892573 287.856764 
Q 53.892573 323.785146 108.36 323.785146 
L 216.72 323.785146 
L 216.72 287.856764 
z
" clip-path="url(#peea82c1b6a)" style="fill: #ffffff"/>
   </g>
   <g id="patch_10">
    <path d="M 108.36 126.179045 
Q 108.36 144.143236 108.36 144.143236 
L 216.72 144.143236 
L 216.72 126.179045 
z
" clip-path="url(#peea82c1b6a)" style="fill: #ffffff"/>
   </g>
   <g id="patch_11">
    <path d="M 108.36 144.143236 
Q 108.36 216 108.36 216 
L 216.72 216 
L 216.72 144.143236 
z
" clip-path="url(#peea82c1b6a)" style="fill: #ffffff"/>
   </g>
   <g id="patch_12">
    <path d="M 108.36 216 
Q 108.36 233.964191 108.36 233.964191 
L 216.72 233.964191 
L 216.72 216 
z
" clip-path="url(#peea82c1b6a)" style="fill: #ffffff"/>
   </g>
   <g id="patch_13">
    <path d="M 126.324191 90.250663 
Q 126.324191 126.179045 126.324191 126.179045 
L 216.72 126.179045 
L 216.72 90.250663 
z
" clip-path="url(#peea82c1b6a)" style="fill: #ffffff"/>
   </g>
   <g id="patch_14">
    <path d="M 126.899045 233.964191 
Q 126.899045 269.892573 126.899045 269.892573 
L 216.72 269.892573 
L 216.72 233.964191 
z
" clip-path="url(#peea82c1b6a)" style="fill: #ffffff"/>
   </g>
   <g id="patch_15">
    <path d="M 108.36 180.071618 
Q 162.827427 180.071618 162.827427 216 
L 216.72 216 
L 216.72 180.071618 
z
" clip-path="url(#peea82c1b6a)" style="fill: #ffffff"/>
   </g>
   <g id="patch_16">
    <path d="M 162.827427 287.856764 
Q 162.827427 323.785146 108.36 323.785146 
L 216.72 323.785146 
L 216.72 287.856764 
z
" clip-path="url(#peea82c1b6a)" style="fill: #ffffff"/>
   </g>
   <g id="patch_17">
    <path d="M 108.36 36.35809 
Q 198.755809 36.35809 198.755809 72.286472 
L 216.72 72.286472 
L 216.72 36.35809 
z
" clip-path="url(#peea82c1b6a)" style="fill: #ffffff"/>
   </g>
   <g id="patch_18">
    <path d="M 198.755809 359.713528 
Q 198.755809 395.64191 108.36 395.64191 
L 216.72 395.64191 
L 216.72 359.713528 
z
" clip-path="url(#peea82c1b6a)" style="fill: #ffffff"/>
   </g>
   <g id="patch_19">
    <path d="M 162.827427 216 
Q 162.827427 287.856764 162.827427 287.856764 
L 216.72 287.856764 
L 216.72 216 
z
" clip-path="url(#peea82c1b6a)" style="fill: #ffffff"/>
   </g>
   <g id="patch_20">
    <path d="M 198.755809 72.286472 
Q 198.755809 359.713528 198.755809 359.713528 
L 216.72 359.713528 
L 216.72 72.286472 
z
" clip-path="url(#peea82c1b6a)" style="fill: #ffffff"/>
   </g>
   <g id="patch_21">
    <path d="M 108.36 36.35809 
Q 17.964191 36.35809 17.964191 72.286472 
" clip-path="url(#peea82c1b6a)" style="fill: none; stroke: #000000; stroke-linejoin: miter"/>
   </g>
   <g id="patch_22">
    <path d="M 108.36 36.35809 
Q 198.755809 36.35809 198.755809 72.286472 
" clip-path="url(#peea82c1b6a)" style="fill: none; stroke: #000000; stroke-linejoin: miter"/>
   </g>
   <g id="patch_23">
    <path d="M 17.964191 72.286472 
Q 17.964191 359.713528 17.964191 359.713528 
" clip-path="url(#peea82c1b6a)" style="fill: none; stroke: #000000; stroke-linejoin: miter"/>
   </g>
   <g id="patch_24">
    <path d="M 198.755809 72.286472 
Q 198.755809 359.713528 198.755809 359.713528 
" clip-path="url(#peea82c1b6a)" style="fill: none; stroke: #000000; stroke-linejoin: miter"/>
   </g>
   <g id="patch_25">
    <path d="M 108.36 126.179045 
Q 108.36 144.143236 108.36 144.143236 
" clip-path="url(#peea82c1b6a)" style="fill: none; stroke: #000000; stroke-linejoin: miter"/>
   </g>
   <g id="patch_26">
    <path d="M 108.36 180.071618 
Q 53.892573 180.071618 53.892573 216 
" clip-path="url(#peea82c1b6a)" style="fill: none; stroke: #000000; stroke-linejoin: miter"/>
   </g>
   <g id="patch_27">
    <path d="M 108.36 180.071618 
Q 162.827427 180.071618 162.827427 216 
" clip-path="url(#peea82c1b6a)" style="fill: none; stroke: #000000; stroke-linejoin: miter"/>
   </g>
   <g id="patch_28">
    <path d="M 108.36 144.143236 
Q 108.36 216 108.36 216 
" clip-path="url(#peea82c1b6a)" style="fill: none; stroke: #000000; stroke-linejoin: miter"/>
   </g>
   <g id="patch_29">
    <path d="M 53.892573 216 
Q 53.892573 287.856764 53.892573 287.856764 
" clip-path="url(#peea82c1b6a)" style="fill: none; stroke: #000000; stroke-linejoin: miter"/>
   </g>
   <g id="patch_30">
    <path d="M 108.36 216 
Q 108.36 233.964191 108.36 233.964191 
" clip-path="url(#peea82c1b6a)" style="fill: none; stroke: #000000; stroke-linejoin: miter"/>
   </g>
   <g id="patch_31">
    <path d="M 162.827427 216 
Q 162.827427 287.856764 162.827427 287.856764 
" clip-path="url(#peea82c1b6a)" style="fill: none; stroke: #000000; stroke-linejoin: miter"/>
   </g>
   <g id="patch_32">
    <path d="M 53.892573 287.856764 
Q 53.892573 323.785146 108.36 323.785146 
" clip-path="url(#peea82c1b6a)" style="fill: none; stroke: #000000; stroke-linejoin: miter"/>
   </g>
   <g id="patch_33">
    <path d="M 162.827427 287.856764 
Q 162.827427 323.785146 108.36 323.785146 
" clip-path="url(#peea82c1b6a)" style="fill: none; stroke: #000000; stroke-linejoin: miter"/>
   </g>
   <g id="patch_34">
    <path d="M 17.964191 359.713528 
Q 17.964191 395.64191 108.36 395.64191 
" clip-path="url(#peea82c1b6a)" style="fill: none; stroke: #000000; stroke-linejoin: miter"/>
   </g>
   <g id="patch_35">
    <path d="M 198.755809 359.713528 
Q 198.755809 395.64191 108.36 395.64191 
" clip-path="url(#peea82c1b6a)" style="fill: none; stroke: #000000; stroke-linejoin: miter"/>
   </g>
   <g id="patch_36">
    <path d="M 90.395809 126.179045 
L 90.395809 90.250663 
L 126.324191 90.250663 
L 126.324191 126.179045 
z
" clip-path="url(#peea82c1b6a)" style="fill: #ffffff; stroke: #000000; stroke-linejoin: miter"/>
   </g>
   <g id="patch_37">
    <path d="M 89.820955 269.892573 
L 89.820955 233.964191 
L 126.899045 233.964191 
L 126.899045 269.892573 
z
" clip-path="url(#peea82c1b6a)" style="fill: #ffffff; stroke: #000000; stroke-linejoin: miter"/>
   </g>
   <g id="text_1">
    <!-- men -->
    <g transform="translate(97.244375 110.974229) scale(0.1 -0.1)">
     <defs>
      <path id="DejaVuSans-6d" d="M 3328 2828 
Q 3544 3216 3844 3400 
Q 4144 3584 4550 3584 
Q 5097 3584 5394 3201 
Q 5691 2819 5691 2113 
L 5691 0 
L 5113 0 
L 5113 2094 
Q 5113 2597 4934 2840 
Q 4756 3084 4391 3084 
Q 3944 3084 3684 2787 
Q 3425 2491 3425 1978 
L 3425 0 
L 2847 0 
L 2847 2094 
Q 2847 2600 2669 2842 
Q 2491 3084 2119 3084 
Q 1678 3084 1418 2786 
Q 1159 2488 1159 1978 
L 1159 0 
L 581 0 
L 581 3500 
L 1159 3500 
L 1159 2956 
Q 1356 3278 1631 3431 
Q 1906 3584 2284 3584 
Q 2666 3584 2933 3390 
Q 3200 3197 3328 2828 
z
" transform="scale(0.015625)"/>
      <path id="DejaVuSans-65" d="M 3597 1894 
L 3597 1613 
L 953 1613 
Q 991 1019 1311 708 
Q 1631 397 2203 397 
Q 2534 397 2845 478 
Q 3156 559 3463 722 
L 3463 178 
Q 3153 47 2828 -22 
Q 2503 -91 2169 -91 
Q 1331 -91 842 396 
Q 353 884 353 1716 
Q 353 2575 817 3079 
Q 1281 3584 2069 3584 
Q 2775 3584 3186 3129 
Q 3597 2675 3597 1894 
z
M 3022 2063 
Q 3016 2534 2758 2815 
Q 2500 3097 2075 3097 
Q 1594 3097 1305 2825 
Q 1016 2553 972 2059 
L 3022 2063 
z
" transform="scale(0.015625)"/>
      <path id="DejaVuSans-6e" d="M 3513 2113 
L 3513 0 
L 2938 0 
L 2938 2094 
Q 2938 2591 2744 2837 
Q 2550 3084 2163 3084 
Q 1697 3084 1428 2787 
Q 1159 2491 1159 1978 
L 1159 0 
L 581 0 
L 581 3500 
L 1159 3500 
L 1159 2956 
Q 1366 3272 1645 3428 
Q 1925 3584 2291 3584 
Q 2894 3584 3203 3211 
Q 3513 2838 3513 2113 
z
" transform="scale(0.015625)"/>
     </defs>
     <use xlink:href="#DejaVuSans-6d"/>
     <use xlink:href="#DejaVuSans-65" transform="translate(97.412109 0)"/>
     <use xlink:href="#DejaVuSans-6e" transform="translate(158.935547 0)"/>
    </g>
   </g>
   <g id="text_2">
    <!-- mortal -->
    <g transform="translate(91.961562 254.687757) scale(0.1 -0.1)">
     <defs>
      <path id="DejaVuSans-6f" d="M 1959 3097 
Q 1497 3097 1228 2736 
Q 959 2375 959 1747 
Q 959 1119 1226 758 
Q 1494 397 1959 397 
Q 2419 397 2687 759 
Q 2956 1122 2956 1747 
Q 2956 2369 2687 2733 
Q 2419 3097 1959 3097 
z
M 1959 3584 
Q 2709 3584 3137 3096 
Q 3566 2609 3566 1747 
Q 3566 888 3137 398 
Q 2709 -91 1959 -91 
Q 1206 -91 779 398 
Q 353 888 353 1747 
Q 353 2609 779 3096 
Q 1206 3584 1959 3584 
z
" transform="scale(0.015625)"/>
      <path id="DejaVuSans-72" d="M 2631 2963 
Q 2534 3019 2420 3045 
Q 2306 3072 2169 3072 
Q 1681 3072 1420 2755 
Q 1159 2438 1159 1844 
L 1159 0 
L 581 0 
L 581 3500 
L 1159 3500 
L 1159 2956 
Q 1341 3275 1631 3429 
Q 1922 3584 2338 3584 
Q 2397 3584 2469 3576 
Q 2541 3569 2628 3553 
L 2631 2963 
z
" transform="scale(0.015625)"/>
      <path id="DejaVuSans-74" d="M 1172 4494 
L 1172 3500 
L 2356 3500 
L 2356 3053 
L 1172 3053 
L 1172 1153 
Q 1172 725 1289 603 
Q 1406 481 1766 481 
L 2356 481 
L 2356 0 
L 1766 0 
Q 1100 0 847 248 
Q 594 497 594 1153 
L 594 3053 
L 172 3053 
L 172 3500 
L 594 3500 
L 594 4494 
L 1172 4494 
z
" transform="scale(0.015625)"/>
      <path id="DejaVuSans-61" d="M 2194 1759 
Q 1497 1759 1228 1600 
Q 959 1441 959 1056 
Q 959 750 1161 570 
Q 1363 391 1709 391 
Q 2188 391 2477 730 
Q 2766 1069 2766 1631 
L 2766 1759 
L 2194 1759 
z
M 3341 1997 
L 3341 0 
L 2766 0 
L 2766 531 
Q 2569 213 2275 61 
Q 1981 -91 1556 -91 
Q 1019 -91 701 211 
Q 384 513 384 1019 
Q 384 1609 779 1909 
Q 1175 2209 1959 2209 
L 2766 2209 
L 2766 2266 
Q 2766 2663 2505 2880 
Q 2244 3097 1772 3097 
Q 1472 3097 1187 3025 
Q 903 2953 641 2809 
L 641 3341 
Q 956 3463 1253 3523 
Q 1550 3584 1831 3584 
Q 2591 3584 2966 3190 
Q 3341 2797 3341 1997 
z
" transform="scale(0.015625)"/>
      <path id="DejaVuSans-6c" d="M 603 4863 
L 1178 4863 
L 1178 0 
L 603 0 
L 603 4863 
z
" transform="scale(0.015625)"/>
     </defs>
     <use xlink:href="#DejaVuSans-6d"/>
     <use xlink:href="#DejaVuSans-6f" transform="translate(97.412109 0)"/>
     <use xlink:href="#DejaVuSans-72" transform="translate(158.59375 0)"/>
     <use xlink:href="#DejaVuSans-74" transform="translate(199.707031 0)"/>
     <use xlink:href="#DejaVuSans-61" transform="translate(238.916016 0)"/>
     <use xlink:href="#DejaVuSans-6c" transform="translate(300.195312 0)"/>
    </g>
   </g>
  </g>
 </g>
 <defs>
  <clipPath id="peea82c1b6a">
   <rect x="0" y="0.429708" width="216.72" height="431.140584"/>
  </clipPath>
 </defs>
</svg>
