<?xml version="1.0" encoding="utf-8" standalone="no"?>
<!DOCTYPE svg PUBLIC "-//W3C//DTD SVG 1.1//EN"
  "http://www.w3.org/Graphics/SVG/1.1/DTD/svg11.dtd">
<svg xmlns:xlink="http://www.w3.org/1999/xlink" width="360pt" height="144pt" viewBox="0 0 360 144" xmlns="http://www.w3.org/2000/svg" version="1.1">
 <metadata>
  <rdf:RDF xmlns:dc="http://purl.org/dc/elements/1.1/" xmlns:cc="http://creativecommons.org/ns#" xmlns:rdf="http://www.w3.org/1999/02/22-rdf-syntax-ns#">
   <cc:Work>
    <dc:type rdf:resource="http://purl.org/dc/dcmitype/StillImage"/>
    <dc:format>image/svg+xml</dc:format>
    <dc:creator>
     <cc:Agent>
      <dc:title>Matplotlib v3.10.9, https://matplotlib.org/</dc:title>
     </cc:Agent>
    </dc:creator>
   </cc:Work>
  </rdf:RDF>
 </metadata>
 <defs>
  <style type="text/css">*{stroke-linejoin: round; stroke-linecap: butt}</style>
 </defs>
 <g id="figure_1">
  <g id="patch_1">
   <path d="M 0 144 
L 360 144 
L 360 0 
L 0 0 
z
" style="fill: #ffffff"/>
  </g>
  <g id="axes_1">
   <g id="patch_2">
    <path d="M 0 144 
L 360 144 
L 360 0 
L 0 0 
z
" clip-path="url(#p47b61f2627)" style="fill: #ffffff; stroke: #ffffff; stroke-linejoin: miter"/>
   </g>
   <g id="patch_3">
    <path d="M 0 144 
Q 0 0 0 0 
L 360 0 
L 360 144 
z
" clip-path="url(#p47b61f2627)" style="fill: #ffffff"/>
   </g>
   <g id="patch_4">
    <path d="M 11.25 36 
Q 11.25 108 11.25 108 
L 360 108 
L 360 36 
z
" clip-path="url(#p47b61f2627)" style="fill: #ffffff"/>
   </g>
   <g id="patch_5">
    <path d="M 45 18 
Q 11.25 18 11.25 36 
L 360 36 
L 360 18 
z
" clip-path="url(#p47b61f2627)" style="fill: #ffffff"/>
   </g>
   <g id="patch_6">
    <path d="M 11.25 108 
Q 11.25 126 45 126 
L 360 126 
L 360 108 
z
" clip-path="url(#p47b61f2627)" style="fill: #ffffff"/>
   </g>
   <g id="patch_7">
    <path d="M 45 0 
Q 45 36 45 36 
L 360 36 
L 360 0 
z
" clip-path="url(#p47b61f2627)" style="fill: #ffffff"/>
   </g>
   <g id="patch_8">
    <path d="M 45 36 
Q 45 45 45 45 
L 360 45 
L 360 36 
z
" clip-path="url(#p47b61f2627)" style="fill: #ffffff"/>
   </g>
   <g id="patch_9">
    <path d="M 45 63 
Q 45 81 45 81 
L 360 81 
L 360 63 
z
" clip-path="url(#p47b61f2627)" style="fill: #ffffff"/>
   </g>
   <g id="patch_10">
    <path d="M 45 99 
Q 45 108 45 108 
L 360 108 
L 360 99 
z
" clip-path="url(#p47b61f2627)" style="fill: #ffffff"/>
   </g>
   <g id="patch_11">
    <path d="M 45 108 
Q 45 144 45 144 
L 360 144 
L 360 108 
z
" clip-path="url(#p47b61f2627)" style="fill: #ffffff"/>
   </g>
   <g id="patch_12">
    <path d="M 56.25 45 
Q 56.25 63 56.25 63 
L 360 63 
L 360 45 
z
" clip-path="url(#p47b61f2627)" style="fill: #ffffff"/>
   </g>
   <g id="patch_13">
    <path d="M 56.25 81 
Q 56.25 99 56.25 99 
L 360 99 
L 360 81 
z
" clip-path="url(#p47b61f2627)" style="fill: #ffffff"/>
   </g>
   <g id="patch_14">
    <path d="M 45 18 
Q 78.75 18 78.75 36 
L 360 36 
L 360 18 
z
" clip-path="url(#p47b61f2627)" style="fill: #ffffff"/>
   </g>
   <g id="patch_15">
    <path d="M 78.75 108 
Q 78.75 126 45 126 
L 360 126 
L 360 108 
z
" clip-path="url(#p47b61f2627)" style="fill: #ffffff"/>
   </g>
   <g id="patch_16">
    <path d="M 78.75 36 
Q 78.75 108 78.75 108 
L 360 108 
L 360 36 
z
" clip-path="url(#p47b61f2627)" style="fill: #ffffff"/>
   </g>
   <g id="patch_17">
    <path d="M 146.25 36 
Q 146.25 72 146.25 72 
L 360 72 
L 360 36 
z
" clip-path="url(#p47b61f2627)" style="fill: #ffffff"/>
   </g>
   <g id="patch_18">
    <path d="M 180 18 
Q 146.25 18 146.25 36 
L 360 36 
L 360 18 
z
" clip-path="url(#p47b61f2627)" style="fill: #ffffff"/>
   </g>
   <g id="patch_19">
    <path d="M 146.25 72 
Q 146.25 90 180 90 
L 360 90 
L 360 72 
z
" clip-path="url(#p47b61f2627)" style="fill: #ffffff"/>
   </g>
   <g id="patch_20">
    <path d="M 180 0 
Q 180 36 180 36 
L 360 36 
L 360 0 
z
" clip-path="url(#p47b61f2627)" style="fill: #ffffff"/>
   </g>
   <g id="patch_21">
    <path d="M 180 36 
Q 180 45 180 45 
L 360 45 
L 360 36 
z
" clip-path="url(#p47b61f2627)" style="fill: #ffffff"/>
   </g>
   <g id="patch_22">
    <path d="M 180 63 
Q 180 72 180 72 
L 360 72 
L 360 63 
z
" clip-path="url(#p47b61f2627)" style="fill: #ffffff"/>
   </g>
   <g id="patch_23">
    <path d="M 180 72 
Q 180 108 180 108 
L 360 108 
L 360 72 
z
" clip-path="url(#p47b61f2627)" style="fill: #ffffff"/>
   </g>
   <g id="patch_24">
    <path d="M 180 108 
Q 180 117 180 117 
L 360 117 
L 360 108 
z
" clip-path="url(#p47b61f2627)" style="fill: #ffffff"/>
   </g>
   <g id="patch_25">
    <path d="M 180 135 
Q 180 144 180 144 
L 360 144 
L 360 135 
z
" clip-path="url(#p47b61f2627)" style="fill: #ffffff"/>
   </g>
   <g id="patch_26">
    <path d="M 191.25 45 
Q 191.25 63 191.25 63 
L 360 63 
L 360 45 
z
" clip-path="url(#p47b61f2627)" style="fill: #ffffff"/>
   </g>
   <g id="patch_27">
    <path d="M 191.25 117 
Q 191.25 135 191.25 135 
L 360 135 
L 360 117 
z
" clip-path="url(#p47b61f2627)" style="fill: #ffffff"/>
   </g>
   <g id="patch_28">
    <path d="M 180 18 
Q 213.75 18 213.75 36 
L 360 36 
L 360 18 
z
" clip-path="url(#p47b61f2627)" style="fill: #ffffff"/>
   </g>
   <g id="patch_29">
    <path d="M 213.75 72 
Q 213.75 90 180 90 
L 360 90 
L 360 72 
z
" clip-path="url(#p47b61f2627)" style="fill: #ffffff"/>
   </g>
   <g id="patch_30">
    <path d="M 213.75 36 
Q 213.75 72 213.75 72 
L 360 72 
L 360 36 
z
" clip-path="url(#p47b61f2627)" style="fill: #ffffff"/>
   </g>
   <g id="patch_31">
    <path d="M 281.25 72 
Q 281.25 108 281.25 108 
L 360 108 
L 360 72 
z
" clip-path="url(#p47b61f2627)" style="fill: #ffffff"/>
   </g>
   <g id="patch_32">
    <path d="M 315 54 
Q 281.25 54 281.25 72 
L 360 72 
L 360 54 
z
" clip-path="url(#p47b61f2627)" style="fill: #ffffff"/>
   </g>
   <g id="patch_33">
    <path d="M 281.25 108 
Q 281.25 126 315 126 
L 360 126 
L 360 108 
z
" clip-path="url(#p47b61f2627)" style="fill: #ffffff"/>
   </g>
   <g id="patch_34">
    <path d="M 315 0 
Q 315 9 315 9 
L 360 9 
L 360 0 
z
" clip-path="url(#p47b61f2627)" style="fill: #ffffff"/>
   </g>
   <g id="patch_35">
    <path d="M 315 27 
Q 315 36 315 36 
L 360 36 
L 360 27 
z
" clip-path="url(#p47b61f2627)" style="fill: #ffffff"/>
   </g>
   <g id="patch_36">
    <path d="M 315 36 
Q 315 72 315 72 
L 360 72 
L 360 36 
z
" clip-path="url(#p47b61f2627)" style="fill: #ffffff"/>
   </g>
   <g id="patch_37">
    <path d="M 315 72 
Q 315 81 315 81 
L 360 81 
L 360 72 
z
" clip-path="url(#p47b61f2627)" style="fill: #ffffff"/>
   </g>
   <g id="patch_38">
    <path d="M 315 99 
Q 315 108 315 108 
L 360 108 
L 360 99 
z
" clip-path="url(#p47b61f2627)" style="fill: #ffffff"/>
   </g>
   <g id="patch_39">
    <path d="M 315 108 
Q 315 144 315 144 
L 360 144 
L 360 108 
z
" clip-path="url(#p47b61f2627)" style="fill: #ffffff"/>
   </g>
   <g id="patch_40">
    <path d="M 326.25 9 
Q 326.25 27 326.25 27 
L 360 27 
L 360 9 
z
" clip-path="url(#p47b61f2627)" style="fill: #ffffff"/>
   </g>
   <g id="patch_41">
    <path d="M 326.25 81 
Q 326.25 99 326.25 99 
L 360 99 
L 360 81 
z
" clip-path="url(#p47b61f2627)" style="fill: #ffffff"/>
   </g>
   <g id="patch_42">
    <path d="M 315 54 
Q 348.75 54 348.75 72 
L 360 72 
L 360 54 
z
" clip-path="url(#p47b61f2627)" style="fill: #ffffff"/>
   </g>
   <g id="patch_43">
    <path d="M 348.75 108 
Q 348.75 126 315 126 
L 360 126 
L 360 108 
z
" clip-path="url(#p47b61f2627)" style="fill: #ffffff"/>
   </g>
   <g id="patch_44">
    <path d="M 348.75 72 
Q 348.75 108 348.75 108 
L 360 108 
L 360 72 
z
" clip-path="url(#p47b61f2627)" style="fill: #ffffff"/>
   </g>
   <g id="patch_45">
    <path d="M 45 18 
Q 11.25 18 11.25 36 
" clip-path="url(#p47b61f2627)" style="fill: none; stroke: #000000; stroke-linejoin: miter"/>
   </g>
   <g id="patch_46">
    <path d="M 45 18 
Q 78.75 18 78.75 36 
" clip-path="url(#p47b61f2627)" style="fill: none; stroke: #000000; stroke-linejoin: miter"/>
   </g>
   <g id="patch_47">
    <path d="M 45 0 
Q 45 36 45 36 
" clip-path="url(#p47b61f2627)" style="fill: none; stroke: #000000; stroke-linejoin: miter"/>
   </g>
   <g id="patch_48">
    <path d="M 11.25 36 
Q 11.25 108 11.25 108 
" clip-path="url(#p47b61f2627)" style="fill: none; stroke: #000000; stroke-linejoin: miter"/>
   </g>
   <g id="patch_49">
    <path d="M 45 36 
Q 45 45 45 45 
" clip-path="url(#p47b61f2627)" style="fill: none; stroke: #000000; stroke-linejoin: miter"/>
   </g>
   <g id="patch_50">
    <path d="M 78.75 36 
Q 78.75 108 78.75 108 
" clip-path="url(#p47b61f2627)" style="fill: none; stroke: #000000; stroke-linejoin: miter"/>
   </g>
   <g id="patch_51">
    <path d="M 45 63 
Q 45 81 45 81 
" clip-path="url(#p47b61f2627)" style="fill: none; stroke: #000000; stroke-linejoin: miter"/>
   </g>
   <g id="patch_52">
    <path d="M 45 99 
Q 45 108 45 108 
" clip-path="url(#p47b61f2627)" style="fill: none; stroke: #000000; stroke-linejoin: miter"/>
   </g>
   <g id="patch_53">
    <path d="M 11.25 108 
Q 11.25 126 45 126 
" clip-path="url(#p47b61f2627)" style="fill: none; stroke: #000000; stroke-linejoin: miter"/>
   </g>
   <g id="patch_54">
    <path d="M 45 108 
Q 45 144 45 144 
" clip-path="url(#p47b61f2627)" style="fill: none; stroke: #000000; stroke-linejoin: miter"/>
   </g>
   <g id="patch_55">
    <path d="M 78.75 108 
Q 78.75 126 45 126 
" clip-path="url(#p47b61f2627)" style="fill: none; stroke: #000000; stroke-linejoin: miter"/>
   </g>
   <g id="patch_56">
    <path d="M 180 18 
Q 146.25 18 146.25 36 
" clip-path="url(#p47b61f2627)" style="fill: none; stroke: #000000; stroke-linejoin: miter"/>
   </g>
   <g id="patch_57">
    <path d="M 180 18 
Q 213.75 18 213.75 36 
" clip-path="url(#p47b61f2627)" style="fill: none; stroke: #000000; stroke-linejoin: miter"/>
   </g>
   <g id="patch_58">
    <path d="M 180 0 
Q 180 36 180 36 
" clip-path="url(#p47b61f2627)" style="fill: none; stroke: #000000; stroke-linejoin: miter"/>
   </g>
   <g id="patch_59">
    <path d="M 146.25 36 
Q 146.25 72 146.25 72 
" clip-path="url(#p47b61f2627)" style="fill: none; stroke: #000000; stroke-linejoin: miter"/>
   </g>
   <g id="patch_60">
    <path d="M 180 36 
Q 180 45 180 45 
" clip-path="url(#p47b61f2627)" style="fill: none; stroke: #000000; stroke-linejoin: miter"/>
   </g>
   <g id="patch_61">
    <path d="M 213.75 36 
Q 213.75 72 213.75 72 
" clip-path="url(#p47b61f2627)" style="fill: none; stroke: #000000; stroke-linejoin: miter"/>
   </g>
   <g id="patch_62">
    <path d="M 180 63 
Q 180 72 180 72 
" clip-path="url(#p47b61f2627)" style="fill: none; stroke: #000000; stroke-linejoin: miter"/>
   </g>
   <g id="patch_63">
    <path d="M 146.25 72 
Q 146.25 90 180 90 
" clip-path="url(#p47b61f2627)" style="fill: none; stroke: #000000; stroke-linejoin: miter"/>
   </g>
   <g id="patch_64">
    <path d="M 180 72 
Q 180 108 180 108 
" clip-path="url(#p47b61f2627)" style="fill: none; stroke: #000000; stroke-linejoin: miter"/>
   </g>
   <g id="patch_65">
    <path d="M 213.75 72 
Q 213.75 90 180 90 
" clip-path="url(#p47b61f2627)" style="fill: none; stroke: #000000; stroke-linejoin: miter"/>
   </g>
   <g id="patch_66">
    <path d="M 180 108 
Q 180 117 180 117 
" clip-path="url(#p47b61f2627)" style="fill: none; stroke: #000000; stroke-linejoin: miter"/>
   </g>
   <g id="patch_67">
    <path d="M 180 135 
Q 180 144 180 144 
" clip-path="url(#p47b61f2627)" style="fill: none; stroke: #000000; stroke-linejoin: miter"/>
   </g>
   <g id="patch_68">
    <path d="M 315 0 
Q 315 9 315 9 
" clip-path="url(#p47b61f2627)" style="fill: none; stroke: #000000; stroke-linejoin: miter"/>
   </g>
   <g id="patch_69">
    <path d="M 315 27 
Q 315 36 315 36 
" clip-path="url(#p47b61f2627)" style="fill: none; stroke: #000000; stroke-linejoin: miter"/>
   </g>
   <g id="patch_70">
    <path d="M 315 54 
Q 281.25 54 281.25 72 
" clip-path="url(#p47b61f2627)" style="fill: none; stroke: #000000; stroke-linejoin: miter"/>
   </g>
   <g id="patch_71">
    <path d="M 315 54 
Q 348.75 54 348.75 72 
" clip-path="url(#p47b61f2627)" style="fill: none; stroke: #000000; stroke-linejoin: miter"/>
   </g>
   <g id="patch_72">
    <path d="M 315 36 
Q 315 72 315 72 
" clip-path="url(#p47b61f2627)" style="fill: none; stroke: #000000; stroke-linejoin: miter"/>
   </g>
   <g id="patch_73">
    <path d="M 281.25 72 
Q 281.25 108 281.25 108 
" clip-path="url(#p47b61f2627)" style="fill: none; stroke: #000000; stroke-linejoin: miter"/>
   </g>
   <g id="patch_74">
    <path d="M 315 72 
Q 315 81 315 81 
" clip-path="url(#p47b61f2627)" style="fill: none; stroke: #000000; stroke-linejoin: miter"/>
   </g>
   <g id="patch_75">
    <path d="M 348.75 72 
Q 348.75 108 348.75 108 
" clip-path="url(#p47b61f2627)" style="fill: none; stroke: #000000; stroke-linejoin: miter"/>
   </g>
   <g id="patch_76">
    <path d="M 315 99 
Q 315 108 315 108 
" clip-path="url(#p47b61f2627)" style="fill: none; stroke: #000000; stroke-linejoin: miter"/>
   </g>
   <g id="patch_77">
    <path d="M 281.25 108 
Q 281.25 126 315 126 
" clip-path="url(#p47b61f2627)" style="fill: none; stroke: #000000; stroke-linejoin: miter"/>
   </g>
   <g id="patch_78">
    <path d="M 315 108 
Q 315 144 315 144 
" clip-path="url(#p47b61f2627)" style="fill: none; stroke: #000000; stroke-linejoin: miter"/>
   </g>
   <g id="patch_79">
    <path d="M 348.75 108 
Q 348.75 126 315 126 
" clip-path="url(#p47b61f2627)" style="fill: none; stroke: #000000; stroke-linejoin: miter"/>
   </g>
   <g id="patch_80">
    <path d="M 33.75 63 
L 33.75 45 
L 56.25 45 
L 56.25 63 
z
" clip-path="url(#p47b61f2627)" style="fill: #ffffff; stroke: #000000; stroke-linejoin: miter"/>
   </g>
   <g id="patch_81">
    <path d="M 33.75 99 
L 33.75 81 
L 56.25 81 
L 56.25 99 
z
" clip-path="url(#p47b61f2627)" style="fill: #ffffff; stroke: #000000; stroke-linejoin: miter"/>
   </g>
   <g id="patch_82">
    <path d="M 168.75 63 
L 168.75 45 
L 191.25 45 
L 191.25 63 
z
" clip-path="url(#p47b61f2627)" style="fill: #ffffff; stroke: #000000; stroke-linejoin: miter"/>
   </g>
   <g id="patch_83">
    <path d="M 168.75 135 
L 168.75 117 
L 191.25 117 
L 191.25 135 
z
" clip-path="url(#p47b61f2627)" style="fill: #ffffff; stroke: #000000; stroke-linejoin: miter"/>
   </g>
   <g id="patch_84">
    <path d="M 303.75 27 
L 303.75 9 
L 326.25 9 
L 326.25 27 
z
" clip-path="url(#p47b61f2627)" style="fill: #ffffff; stroke: #000000; stroke-linejoin: miter"/>
   </g>
   <g id="patch_85">
    <path d="M 303.75 99 
L 303.75 81 
L 326.25 81 
L 326.25 99 
z
" clip-path="url(#p47b61f2627)" style="fill: #ffffff; stroke: #000000; stroke-linejoin: miter"/>
   </g>
   <g id="PathCollection_1">
    <defs>
     <path id="C0_0_8c61628325" d="M 0 5.152669 
C 1.366504 5.152669 2.677223 4.609751 3.643487 3.643487 
C 4.609751 2.677223 5.152669 1.366504 5.152669 -0 
C 5.152669 -1.366504 4.609751 -2.677223 3.643487 -3.643487 
C 2.677223 -4.609751 1.366504 -5.152669 0 -5.152669 
C -1.366504 -5.152669 -2.677223 -4.609751 -3.643487 -3.643487 
C -4.609751 -2.677223 -5.152669 -1.366504 -5.152669 0 
C -5.152669 1.366504 -4.609751 2.677223 -3.643487 3.643487 
C -2.677223 4.609751 -1.366504 5.152669 0 5.152669 
z
"/>
    </defs>
    <g clip-path="url(#p47b61f2627)">
     <use xlink:href="#C0_0_8c61628325" x="247.5" y="72" style="fill: #ffffff; stroke: #ffffff"/>
    </g>
    <g clip-path="url(#p47b61f2627)">
     <use xlink:href="#C0_0_8c61628325" x="112.5" y="72" style="fill: #ffffff; stroke: #ffffff"/>
    </g>
   </g>
   <g id="text_1">
    <!-- f -->
    <g transform="translate(43.239844 56.759375) scale(0.1 -0.1)">
     <defs>
      <path id="DejaVuSans-66" d="M 2375 4863 
L 2375 4384 
L 1825 4384 
Q 1516 4384 1395 4259 
Q 1275 4134 1275 3809 
L 1275 3500 
L 2222 3500 
L 2222 3053 
L 1275 3053 
L 1275 0 
L 697 0 
L 697 3053 
L 147 3053 
L 147 3500 
L 697 3500 
L 697 3744 
Q 697 4328 969 4595 
Q 1241 4863 1831 4863 
L 2375 4863 
z
" transform="scale(0.015625)"/>
     </defs>
     <use xlink:href="#DejaVuSans-66"/>
    </g>
   </g>
   <g id="text_2">
    <!-- g -->
    <g transform="translate(41.825781 92.759375) scale(0.1 -0.1)">
     <defs>
      <path id="DejaVuSans-67" d="M 2906 1791 
Q 2906 2416 2648 2759 
Q 2391 3103 1925 3103 
Q 1463 3103 1205 2759 
Q 947 2416 947 1791 
Q 947 1169 1205 825 
Q 1463 481 1925 481 
Q 2391 481 2648 825 
Q 2906 1169 2906 1791 
z
M 3481 434 
Q 3481 -459 3084 -895 
Q 2688 -1331 1869 -1331 
Q 1566 -1331 1297 -1286 
Q 1028 -1241 775 -1147 
L 775 -588 
Q 1028 -725 1275 -790 
Q 1522 -856 1778 -856 
Q 2344 -856 2625 -561 
Q 2906 -266 2906 331 
L 2906 616 
Q 2728 306 2450 153 
Q 2172 0 1784 0 
Q 1141 0 747 490 
Q 353 981 353 1791 
Q 353 2603 747 3093 
Q 1141 3584 1784 3584 
Q 2172 3584 2450 3431 
Q 2728 3278 2906 2969 
L 2906 3500 
L 3481 3500 
L 3481 434 
z
" transform="scale(0.015625)"/>
     </defs>
     <use xlink:href="#DejaVuSans-67"/>
    </g>
   </g>
   <g id="text_3">
    <!-- f -->
    <g transform="translate(178.239844 56.759375) scale(0.1 -0.1)">
     <use xlink:href="#DejaVuSans-66"/>
    </g>
   </g>
   <g id="text_4">
    <!-- g -->
    <g transform="translate(176.825781 128.759375) scale(0.1 -0.1)">
     <use xlink:href="#DejaVuSans-67"/>
    </g>
   </g>
   <g id="text_5">
    <!-- f -->
    <g transform="translate(313.239844 20.759375) scale(0.1 -0.1)">
     <use xlink:href="#DejaVuSans-66"/>
    </g>
   </g>
   <g id="text_6">
    <!-- g -->
    <g transform="translate(311.825781 92.759375) scale(0.1 -0.1)">
     <use xlink:href="#DejaVuSans-67"/>
    </g>
   </g>
   <g id="text_7">
    <g clip-path="url(#p47b61f2627)">
     <!-- + -->
     <g transform="translate(242.472187 75.31125) scale(0.12 -0.12)">
      <defs>
       <path id="DejaVuSans-2b" d="M 2944 4013 
L 2944 2272 
L 4684 2272 
L 4684 1741 
L 2944 1741 
L 2944 0 
L 2419 0 
L 2419 1741 
L 678 1741 
L 678 2272 
L 2419 2272 
L 2419 4013 
L 2944 4013 
z
" transform="scale(0.015625)"/>
      </defs>
      <use xlink:href="#DejaVuSans-2b"/>
     </g>
    </g>
   </g>
   <g id="text_8">
    <g clip-path="url(#p47b61f2627)">
     <!-- = -->
     <g transform="translate(107.472188 75.31125) scale(0.12 -0.12)">
      <defs>
       <path id="DejaVuSans-3d" d="M 678 2906 
L 4684 2906 
L 4684 2381 
L 678 2381 
L 678 2906 
z
M 678 1631 
L 4684 1631 
L 4684 1100 
L 678 1100 
L 678 1631 
z
" transform="scale(0.015625)"/>
      </defs>
      <use xlink:href="#DejaVuSans-3d"/>
     </g>
    </g>
   </g>
  </g>
 </g>
 <defs>
  <clipPath id="p47b61f2627">
   <rect x="0" y="0" width="360" height="144"/>
  </clipPath>
 </defs>
</svg>
