<?xml version="1.0" encoding="utf-8" standalone="no"?>
<!DOCTYPE svg PUBLIC "-//W3C//DTD SVG 1.1//EN"
  "http://www.w3.org/Graphics/SVG/1.1/DTD/svg11.dtd">
<svg xmlns:xlink="http://www.w3.org/1999/xlink" width="1098pt" height="144pt" viewBox="0 0 1098 144" xmlns="http://www.w3.org/2000/svg" version="1.1">
 <metadata>
  <rdf:RDF xmlns:dc="http://purl.org/dc/elements/1.1/" xmlns:cc="http://creativecommons.org/ns#" xmlns:rdf="http://www.w3.org/1999/02/22-rdf-syntax-ns#">
   <cc:Work>
    <dc:type rdf:resource="http://purl.org/dc/dcmitype/StillImage"/>
    <dc:format>image/svg+xml</dc:format>
    <dc:creator>
     <cc:Agent>
      <dc:title>Matplotlib v3.10.9, https://matplotlib.org/</dc:title>
     </cc:Agent>
    </dc:creator>
   </cc:Work>
  </rdf:RDF>
 </metadata>
 <defs>
  <style type="text/css">*{stroke-linejoin: round; stroke-linecap: butt}</style>
 </defs>
 <g id="figure_1">
  <g id="patch_1">
   <path d="M 0 144 
L 1098 144 
L 1098 0 
L 0 0 
z
" style="fill: #ffffff"/>
  </g>
  <g id="axes_1">
   <g id="patch_2">
    <path d="M 0 144 
L 1098 144 
L 1098 0 
L 0 0 
z
" clip-path="url(#p2c373e7d62)" style="fill: #ffffff; stroke: #ffffff; stroke-linejoin: miter"/>
   </g>
   <g id="patch_3">
    <path d="M 0 144 
Q 0 0 0 0 
L 1098 0 
L 1098 144 
z
" clip-path="url(#p2c373e7d62)" style="fill: #ffffff"/>
   </g>
   <g id="patch_4">
    <path d="M 36 0 
Q 36 18 36 18 
L 1098 18 
L 1098 0 
z
" clip-path="url(#p2c373e7d62)" style="fill: #ffffff"/>
   </g>
   <g id="patch_5">
    <path d="M 36 126 
Q 36 144 36 144 
L 1098 144 
L 1098 126 
z
" clip-path="url(#p2c373e7d62)" style="fill: #ffffff"/>
   </g>
   <g id="patch_6">
    <path d="M 36 18 
Q 36 36 72 36 
L 1098 36 
L 1098 18 
z
" clip-path="url(#p2c373e7d62)" style="fill: #ffffff"/>
   </g>
   <g id="patch_7">
    <path d="M 72 108 
Q 36 108 36 126 
L 1098 126 
L 1098 108 
z
" clip-path="url(#p2c373e7d62)" style="fill: #ffffff"/>
   </g>
   <g id="patch_8">
    <path d="M 72 36 
Q 72 36 72 54 
L 1098 54 
L 1098 36 
z
" clip-path="url(#p2c373e7d62)" style="fill: #ffffff"/>
   </g>
   <g id="patch_9">
    <path d="M 72 54 
Q 72 90 72 90 
L 1098 90 
L 1098 54 
z
" clip-path="url(#p2c373e7d62)" style="fill: #ffffff"/>
   </g>
   <g id="patch_10">
    <path d="M 72 90 
Q 72 108 72 108 
L 1098 108 
L 1098 90 
z
" clip-path="url(#p2c373e7d62)" style="fill: #ffffff"/>
   </g>
   <g id="patch_11">
    <path d="M 108 18 
Q 108 36 72 36 
L 1098 36 
L 1098 18 
z
" clip-path="url(#p2c373e7d62)" style="fill: #ffffff"/>
   </g>
   <g id="patch_12">
    <path d="M 72 108 
Q 108 108 108 126 
L 1098 126 
L 1098 108 
z
" clip-path="url(#p2c373e7d62)" style="fill: #ffffff"/>
   </g>
   <g id="patch_13">
    <path d="M 108 0 
Q 108 18 108 18 
L 1098 18 
L 1098 0 
z
" clip-path="url(#p2c373e7d62)" style="fill: #ffffff"/>
   </g>
   <g id="patch_14">
    <path d="M 108 126 
Q 108 144 108 144 
L 1098 144 
L 1098 126 
z
" clip-path="url(#p2c373e7d62)" style="fill: #ffffff"/>
   </g>
   <g id="patch_15">
    <path d="M 252 0 
Q 252 144 252 144 
L 1098 144 
L 1098 0 
z
" clip-path="url(#p2c373e7d62)" style="fill: #ffffff"/>
   </g>
   <g id="patch_16">
    <path d="M 414 54 
Q 414 144 414 144 
L 1098 144 
L 1098 54 
z
" clip-path="url(#p2c373e7d62)" style="fill: #ffffff"/>
   </g>
   <g id="patch_17">
    <path d="M 450 36 
Q 414 36 414 54 
L 1098 54 
L 1098 36 
z
" clip-path="url(#p2c373e7d62)" style="fill: #ffffff"/>
   </g>
   <g id="patch_18">
    <path d="M 450 0 
Q 450 18 450 18 
L 1098 18 
L 1098 0 
z
" clip-path="url(#p2c373e7d62)" style="fill: #ffffff"/>
   </g>
   <g id="patch_19">
    <path d="M 450 18 
Q 450 36 450 36 
L 1098 36 
L 1098 18 
z
" clip-path="url(#p2c373e7d62)" style="fill: #ffffff"/>
   </g>
   <g id="patch_20">
    <path d="M 450 36 
Q 486 36 486 54 
L 1098 54 
L 1098 36 
z
" clip-path="url(#p2c373e7d62)" style="fill: #ffffff"/>
   </g>
   <g id="patch_21">
    <path d="M 486 54 
Q 486 90 486 90 
L 1098 90 
L 1098 54 
z
" clip-path="url(#p2c373e7d62)" style="fill: #ffffff"/>
   </g>
   <g id="patch_22">
    <path d="M 486 90 
Q 486 108 522 108 
L 1098 108 
L 1098 90 
z
" clip-path="url(#p2c373e7d62)" style="fill: #ffffff"/>
   </g>
   <g id="patch_23">
    <path d="M 522 108 
Q 522 108 522 126 
L 1098 126 
L 1098 108 
z
" clip-path="url(#p2c373e7d62)" style="fill: #ffffff"/>
   </g>
   <g id="patch_24">
    <path d="M 522 126 
Q 522 144 522 144 
L 1098 144 
L 1098 126 
z
" clip-path="url(#p2c373e7d62)" style="fill: #ffffff"/>
   </g>
   <g id="patch_25">
    <path d="M 558 90 
Q 558 108 522 108 
L 1098 108 
L 1098 90 
z
" clip-path="url(#p2c373e7d62)" style="fill: #ffffff"/>
   </g>
   <g id="patch_26">
    <path d="M 558 0 
Q 558 90 558 90 
L 1098 90 
L 1098 0 
z
" clip-path="url(#p2c373e7d62)" style="fill: #ffffff"/>
   </g>
   <g id="patch_27">
    <path d="M 702 0 
Q 702 18 702 18 
L 1098 18 
L 1098 0 
z
" clip-path="url(#p2c373e7d62)" style="fill: #ffffff"/>
   </g>
   <g id="patch_28">
    <path d="M 702 126 
Q 702 144 702 144 
L 1098 144 
L 1098 126 
z
" clip-path="url(#p2c373e7d62)" style="fill: #ffffff"/>
   </g>
   <g id="patch_29">
    <path d="M 702 18 
Q 702 36 738 36 
L 1098 36 
L 1098 18 
z
" clip-path="url(#p2c373e7d62)" style="fill: #ffffff"/>
   </g>
   <g id="patch_30">
    <path d="M 738 108 
Q 702 108 702 126 
L 1098 126 
L 1098 108 
z
" clip-path="url(#p2c373e7d62)" style="fill: #ffffff"/>
   </g>
   <g id="patch_31">
    <path d="M 738 36 
Q 738 36 738 54 
L 1098 54 
L 1098 36 
z
" clip-path="url(#p2c373e7d62)" style="fill: #ffffff"/>
   </g>
   <g id="patch_32">
    <path d="M 738 54 
Q 738 90 738 90 
L 1098 90 
L 1098 54 
z
" clip-path="url(#p2c373e7d62)" style="fill: #ffffff"/>
   </g>
   <g id="patch_33">
    <path d="M 738 90 
Q 738 108 738 108 
L 1098 108 
L 1098 90 
z
" clip-path="url(#p2c373e7d62)" style="fill: #ffffff"/>
   </g>
   <g id="patch_34">
    <path d="M 774 18 
Q 774 36 738 36 
L 1098 36 
L 1098 18 
z
" clip-path="url(#p2c373e7d62)" style="fill: #ffffff"/>
   </g>
   <g id="patch_35">
    <path d="M 738 108 
Q 774 108 774 126 
L 1098 126 
L 1098 108 
z
" clip-path="url(#p2c373e7d62)" style="fill: #ffffff"/>
   </g>
   <g id="patch_36">
    <path d="M 774 0 
Q 774 18 774 18 
L 1098 18 
L 1098 0 
z
" clip-path="url(#p2c373e7d62)" style="fill: #ffffff"/>
   </g>
   <g id="patch_37">
    <path d="M 774 126 
Q 774 144 774 144 
L 1098 144 
L 1098 126 
z
" clip-path="url(#p2c373e7d62)" style="fill: #ffffff"/>
   </g>
   <g id="patch_38">
    <path d="M 918 0 
Q 918 90 918 90 
L 1098 90 
L 1098 0 
z
" clip-path="url(#p2c373e7d62)" style="fill: #ffffff"/>
   </g>
   <g id="patch_39">
    <path d="M 918 90 
Q 918 108 954 108 
L 1098 108 
L 1098 90 
z
" clip-path="url(#p2c373e7d62)" style="fill: #ffffff"/>
   </g>
   <g id="patch_40">
    <path d="M 954 108 
Q 954 108 954 126 
L 1098 126 
L 1098 108 
z
" clip-path="url(#p2c373e7d62)" style="fill: #ffffff"/>
   </g>
   <g id="patch_41">
    <path d="M 954 126 
Q 954 144 954 144 
L 1098 144 
L 1098 126 
z
" clip-path="url(#p2c373e7d62)" style="fill: #ffffff"/>
   </g>
   <g id="patch_42">
    <path d="M 990 90 
Q 990 108 954 108 
L 1098 108 
L 1098 90 
z
" clip-path="url(#p2c373e7d62)" style="fill: #ffffff"/>
   </g>
   <g id="patch_43">
    <path d="M 990 54 
Q 990 90 990 90 
L 1098 90 
L 1098 54 
z
" clip-path="url(#p2c373e7d62)" style="fill: #ffffff"/>
   </g>
   <g id="patch_44">
    <path d="M 1026 36 
Q 990 36 990 54 
L 1098 54 
L 1098 36 
z
" clip-path="url(#p2c373e7d62)" style="fill: #ffffff"/>
   </g>
   <g id="patch_45">
    <path d="M 1026 0 
Q 1026 18 1026 18 
L 1098 18 
L 1098 0 
z
" clip-path="url(#p2c373e7d62)" style="fill: #ffffff"/>
   </g>
   <g id="patch_46">
    <path d="M 1026 18 
Q 1026 36 1026 36 
L 1098 36 
L 1098 18 
z
" clip-path="url(#p2c373e7d62)" style="fill: #ffffff"/>
   </g>
   <g id="patch_47">
    <path d="M 1026 36 
Q 1062 36 1062 54 
L 1098 54 
L 1098 36 
z
" clip-path="url(#p2c373e7d62)" style="fill: #ffffff"/>
   </g>
   <g id="patch_48">
    <path d="M 1062 54 
Q 1062 144 1062 144 
L 1098 144 
L 1098 54 
z
" clip-path="url(#p2c373e7d62)" style="fill: #ffffff"/>
   </g>
   <g id="patch_49">
    <path d="M 72 36 
Q 72 36 72 54 
" clip-path="url(#p2c373e7d62)" style="fill: none; stroke: #000000; stroke-linejoin: miter"/>
   </g>
   <g id="patch_50">
    <path d="M 36 0 
Q 36 18 36 18 
" clip-path="url(#p2c373e7d62)" style="fill: none; stroke: #000000; stroke-linejoin: miter"/>
   </g>
   <g id="patch_51">
    <path d="M 36 18 
Q 36 36 72 36 
" clip-path="url(#p2c373e7d62)" style="fill: none; stroke: #000000; stroke-linejoin: miter"/>
   </g>
   <g id="patch_52">
    <path d="M 108 0 
Q 108 18 108 18 
" clip-path="url(#p2c373e7d62)" style="fill: none; stroke: #000000; stroke-linejoin: miter"/>
   </g>
   <g id="patch_53">
    <path d="M 108 18 
Q 108 36 72 36 
" clip-path="url(#p2c373e7d62)" style="fill: none; stroke: #000000; stroke-linejoin: miter"/>
   </g>
   <g id="patch_54">
    <path d="M 72 54 
Q 72 90 72 90 
" clip-path="url(#p2c373e7d62)" style="fill: none; stroke: #000000; stroke-linejoin: miter"/>
   </g>
   <g id="patch_55">
    <path d="M 72 108 
Q 36 108 36 126 
" clip-path="url(#p2c373e7d62)" style="fill: none; stroke: #000000; stroke-linejoin: miter"/>
   </g>
   <g id="patch_56">
    <path d="M 72 108 
Q 108 108 108 126 
" clip-path="url(#p2c373e7d62)" style="fill: none; stroke: #000000; stroke-linejoin: miter"/>
   </g>
   <g id="patch_57">
    <path d="M 72 90 
Q 72 108 72 108 
" clip-path="url(#p2c373e7d62)" style="fill: none; stroke: #000000; stroke-linejoin: miter"/>
   </g>
   <g id="patch_58">
    <path d="M 36 126 
Q 36 144 36 144 
" clip-path="url(#p2c373e7d62)" style="fill: none; stroke: #000000; stroke-linejoin: miter"/>
   </g>
   <g id="patch_59">
    <path d="M 108 126 
Q 108 144 108 144 
" clip-path="url(#p2c373e7d62)" style="fill: none; stroke: #000000; stroke-linejoin: miter"/>
   </g>
   <g id="patch_60">
    <path d="M 252 0 
Q 252 144 252 144 
" clip-path="url(#p2c373e7d62)" style="fill: none; stroke: #000000; stroke-linejoin: miter"/>
   </g>
   <g id="patch_61">
    <path d="M 450 36 
Q 414 36 414 54 
" clip-path="url(#p2c373e7d62)" style="fill: none; stroke: #000000; stroke-linejoin: miter"/>
   </g>
   <g id="patch_62">
    <path d="M 450 36 
Q 486 36 486 54 
" clip-path="url(#p2c373e7d62)" style="fill: none; stroke: #000000; stroke-linejoin: miter"/>
   </g>
   <g id="patch_63">
    <path d="M 450 0 
Q 450 18 450 18 
" clip-path="url(#p2c373e7d62)" style="fill: none; stroke: #000000; stroke-linejoin: miter"/>
   </g>
   <g id="patch_64">
    <path d="M 450 18 
Q 450 36 450 36 
" clip-path="url(#p2c373e7d62)" style="fill: none; stroke: #000000; stroke-linejoin: miter"/>
   </g>
   <g id="patch_65">
    <path d="M 414 54 
Q 414 144 414 144 
" clip-path="url(#p2c373e7d62)" style="fill: none; stroke: #000000; stroke-linejoin: miter"/>
   </g>
   <g id="patch_66">
    <path d="M 486 54 
Q 486 90 486 90 
" clip-path="url(#p2c373e7d62)" style="fill: none; stroke: #000000; stroke-linejoin: miter"/>
   </g>
   <g id="patch_67">
    <path d="M 558 0 
Q 558 90 558 90 
" clip-path="url(#p2c373e7d62)" style="fill: none; stroke: #000000; stroke-linejoin: miter"/>
   </g>
   <g id="patch_68">
    <path d="M 522 108 
Q 522 108 522 126 
" clip-path="url(#p2c373e7d62)" style="fill: none; stroke: #000000; stroke-linejoin: miter"/>
   </g>
   <g id="patch_69">
    <path d="M 486 90 
Q 486 108 522 108 
" clip-path="url(#p2c373e7d62)" style="fill: none; stroke: #000000; stroke-linejoin: miter"/>
   </g>
   <g id="patch_70">
    <path d="M 558 90 
Q 558 108 522 108 
" clip-path="url(#p2c373e7d62)" style="fill: none; stroke: #000000; stroke-linejoin: miter"/>
   </g>
   <g id="patch_71">
    <path d="M 522 126 
Q 522 144 522 144 
" clip-path="url(#p2c373e7d62)" style="fill: none; stroke: #000000; stroke-linejoin: miter"/>
   </g>
   <g id="patch_72">
    <path d="M 738 36 
Q 738 36 738 54 
" clip-path="url(#p2c373e7d62)" style="fill: none; stroke: #000000; stroke-linejoin: miter"/>
   </g>
   <g id="patch_73">
    <path d="M 702 0 
Q 702 18 702 18 
" clip-path="url(#p2c373e7d62)" style="fill: none; stroke: #000000; stroke-linejoin: miter"/>
   </g>
   <g id="patch_74">
    <path d="M 702 18 
Q 702 36 738 36 
" clip-path="url(#p2c373e7d62)" style="fill: none; stroke: #000000; stroke-linejoin: miter"/>
   </g>
   <g id="patch_75">
    <path d="M 774 0 
Q 774 18 774 18 
" clip-path="url(#p2c373e7d62)" style="fill: none; stroke: #000000; stroke-linejoin: miter"/>
   </g>
   <g id="patch_76">
    <path d="M 774 18 
Q 774 36 738 36 
" clip-path="url(#p2c373e7d62)" style="fill: none; stroke: #000000; stroke-linejoin: miter"/>
   </g>
   <g id="patch_77">
    <path d="M 738 54 
Q 738 90 738 90 
" clip-path="url(#p2c373e7d62)" style="fill: none; stroke: #000000; stroke-linejoin: miter"/>
   </g>
   <g id="patch_78">
    <path d="M 738 108 
Q 702 108 702 126 
" clip-path="url(#p2c373e7d62)" style="fill: none; stroke: #000000; stroke-linejoin: miter"/>
   </g>
   <g id="patch_79">
    <path d="M 738 108 
Q 774 108 774 126 
" clip-path="url(#p2c373e7d62)" style="fill: none; stroke: #000000; stroke-linejoin: miter"/>
   </g>
   <g id="patch_80">
    <path d="M 738 90 
Q 738 108 738 108 
" clip-path="url(#p2c373e7d62)" style="fill: none; stroke: #000000; stroke-linejoin: miter"/>
   </g>
   <g id="patch_81">
    <path d="M 702 126 
Q 702 144 702 144 
" clip-path="url(#p2c373e7d62)" style="fill: none; stroke: #000000; stroke-linejoin: miter"/>
   </g>
   <g id="patch_82">
    <path d="M 774 126 
Q 774 144 774 144 
" clip-path="url(#p2c373e7d62)" style="fill: none; stroke: #000000; stroke-linejoin: miter"/>
   </g>
   <g id="patch_83">
    <path d="M 918 0 
Q 918 90 918 90 
" clip-path="url(#p2c373e7d62)" style="fill: none; stroke: #000000; stroke-linejoin: miter"/>
   </g>
   <g id="patch_84">
    <path d="M 1026 36 
Q 990 36 990 54 
" clip-path="url(#p2c373e7d62)" style="fill: none; stroke: #000000; stroke-linejoin: miter"/>
   </g>
   <g id="patch_85">
    <path d="M 1026 36 
Q 1062 36 1062 54 
" clip-path="url(#p2c373e7d62)" style="fill: none; stroke: #000000; stroke-linejoin: miter"/>
   </g>
   <g id="patch_86">
    <path d="M 1026 0 
Q 1026 18 1026 18 
" clip-path="url(#p2c373e7d62)" style="fill: none; stroke: #000000; stroke-linejoin: miter"/>
   </g>
   <g id="patch_87">
    <path d="M 1026 18 
Q 1026 36 1026 36 
" clip-path="url(#p2c373e7d62)" style="fill: none; stroke: #000000; stroke-linejoin: miter"/>
   </g>
   <g id="patch_88">
    <path d="M 990 54 
Q 990 90 990 90 
" clip-path="url(#p2c373e7d62)" style="fill: none; stroke: #000000; stroke-linejoin: miter"/>
   </g>
   <g id="patch_89">
    <path d="M 1062 54 
Q 1062 144 1062 144 
" clip-path="url(#p2c373e7d62)" style="fill: none; stroke: #000000; stroke-linejoin: miter"/>
   </g>
   <g id="patch_90">
    <path d="M 954 108 
Q 954 108 954 126 
" clip-path="url(#p2c373e7d62)" style="fill: none; stroke: #000000; stroke-linejoin: miter"/>
   </g>
   <g id="patch_91">
    <path d="M 918 90 
Q 918 108 954 108 
" clip-path="url(#p2c373e7d62)" style="fill: none; stroke: #000000; stroke-linejoin: miter"/>
   </g>
   <g id="patch_92">
    <path d="M 990 90 
Q 990 108 954 108 
" clip-path="url(#p2c373e7d62)" style="fill: none; stroke: #000000; stroke-linejoin: miter"/>
   </g>
   <g id="patch_93">
    <path d="M 954 126 
Q 954 144 954 144 
" clip-path="url(#p2c373e7d62)" style="fill: none; stroke: #000000; stroke-linejoin: miter"/>
   </g>
   <g id="PathCollection_1">
    <defs>
     <path id="C0_0_8d799ae115" d="M 0 4.38178 
C 1.162062 4.38178 2.276685 3.920088 3.098387 3.098387 
C 3.920088 2.276685 4.38178 1.162062 4.38178 -0 
C 4.38178 -1.162062 3.920088 -2.276685 3.098387 -3.098387 
C 2.276685 -3.920088 1.162062 -4.38178 0 -4.38178 
C -1.162062 -4.38178 -2.276685 -3.920088 -3.098387 -3.098387 
C -3.920088 -2.276685 -4.38178 -1.162062 -4.38178 0 
C -4.38178 1.162062 -3.920088 2.276685 -3.098387 3.098387 
C -2.276685 3.920088 -1.162062 4.38178 0 4.38178 
z
"/>
    </defs>
    <g clip-path="url(#p2c373e7d62)">
     <use xlink:href="#C0_0_8d799ae115" x="450" y="36" style="stroke: #000000"/>
    </g>
    <g clip-path="url(#p2c373e7d62)">
     <use xlink:href="#C0_0_8d799ae115" x="72" y="108" style="stroke: #000000"/>
    </g>
    <g clip-path="url(#p2c373e7d62)">
     <use xlink:href="#C0_0_8d799ae115" x="630" y="72" style="fill: #ffffff; stroke: #ffffff"/>
    </g>
    <g clip-path="url(#p2c373e7d62)">
     <use xlink:href="#C0_0_8d799ae115" x="1026" y="36" style="stroke: #000000"/>
    </g>
    <g clip-path="url(#p2c373e7d62)">
     <use xlink:href="#C0_0_8d799ae115" x="324" y="72" style="fill: #ffffff; stroke: #ffffff"/>
    </g>
    <g clip-path="url(#p2c373e7d62)">
     <use xlink:href="#C0_0_8d799ae115" x="180" y="72" style="fill: #ffffff; stroke: #ffffff"/>
    </g>
    <g clip-path="url(#p2c373e7d62)">
     <use xlink:href="#C0_0_8d799ae115" x="522" y="108" style="stroke: #000000"/>
    </g>
    <g clip-path="url(#p2c373e7d62)">
     <use xlink:href="#C0_0_8d799ae115" x="738" y="36" style="stroke: #000000"/>
    </g>
    <g clip-path="url(#p2c373e7d62)">
     <use xlink:href="#C0_0_8d799ae115" x="846" y="72" style="fill: #ffffff; stroke: #ffffff"/>
    </g>
    <g clip-path="url(#p2c373e7d62)">
     <use xlink:href="#C0_0_8d799ae115" x="738" y="108" style="stroke: #000000"/>
    </g>
    <g clip-path="url(#p2c373e7d62)">
     <use xlink:href="#C0_0_8d799ae115" x="72" y="36" style="stroke: #000000"/>
    </g>
    <g clip-path="url(#p2c373e7d62)">
     <use xlink:href="#C0_0_8d799ae115" x="954" y="108" style="stroke: #000000"/>
    </g>
   </g>
   <g id="text_1">
    <g clip-path="url(#p2c373e7d62)">
     <!-- = -->
     <g transform="translate(624.972188 75.31125) scale(0.12 -0.12)">
      <defs>
       <path id="DejaVuSans-3d" d="M 678 2906 
L 4684 2906 
L 4684 2381 
L 678 2381 
L 678 2906 
z
M 678 1631 
L 4684 1631 
L 4684 1100 
L 678 1100 
L 678 1631 
z
" transform="scale(0.015625)"/>
      </defs>
      <use xlink:href="#DejaVuSans-3d"/>
     </g>
    </g>
   </g>
   <g id="text_2">
    <g clip-path="url(#p2c373e7d62)">
     <!-- ,  -->
     <g transform="translate(320.18625 75.31125) scale(0.12 -0.12)">
      <defs>
       <path id="DejaVuSans-2c" d="M 750 794 
L 1409 794 
L 1409 256 
L 897 -744 
L 494 -744 
L 750 256 
L 750 794 
z
" transform="scale(0.015625)"/>
       <path id="DejaVuSans-20" transform="scale(0.015625)"/>
      </defs>
      <use xlink:href="#DejaVuSans-2c"/>
      <use xlink:href="#DejaVuSans-20" transform="translate(31.787109 0)"/>
     </g>
    </g>
   </g>
   <g id="text_3">
    <g clip-path="url(#p2c373e7d62)">
     <!-- = -->
     <g transform="translate(174.972187 75.31125) scale(0.12 -0.12)">
      <use xlink:href="#DejaVuSans-3d"/>
     </g>
    </g>
   </g>
   <g id="text_4">
    <g clip-path="url(#p2c373e7d62)">
     <!-- = -->
     <g transform="translate(840.972188 75.31125) scale(0.12 -0.12)">
      <use xlink:href="#DejaVuSans-3d"/>
     </g>
    </g>
   </g>
  </g>
 </g>
 <defs>
  <clipPath id="p2c373e7d62">
   <rect x="0" y="0" width="1098" height="144"/>
  </clipPath>
 </defs>
</svg>
