<?xml version="1.0" encoding="utf-8" standalone="no"?>
<!DOCTYPE svg PUBLIC "-//W3C//DTD SVG 1.1//EN"
  "http://www.w3.org/Graphics/SVG/1.1/DTD/svg11.dtd">
<svg xmlns:xlink="http://www.w3.org/1999/xlink" width="36pt" height="72pt" viewBox="0 0 36 72" xmlns="http://www.w3.org/2000/svg" version="1.1">
 <metadata>
  <rdf:RDF xmlns:dc="http://purl.org/dc/elements/1.1/" xmlns:cc="http://creativecommons.org/ns#" xmlns:rdf="http://www.w3.org/1999/02/22-rdf-syntax-ns#">
   <cc:Work>
    <dc:type rdf:resource="http://purl.org/dc/dcmitype/StillImage"/>
    <dc:format>image/svg+xml</dc:format>
    <dc:creator>
     <cc:Agent>
      <dc:title>Matplotlib v3.10.9, https://matplotlib.org/</dc:title>
     </cc:Agent>
    </dc:creator>
   </cc:Work>
  </rdf:RDF>
 </metadata>
 <defs>
  <style type="text/css">*{stroke-linejoin: round; stroke-linecap: butt}</style>
 </defs>
 <g id="figure_1">
  <g id="patch_1">
   <path d="M 0 72 
L 36 72 
L 36 0 
L 0 0 
z
" style="fill: #ffffff"/>
  </g>
  <g id="axes_1">
   <g id="patch_2">
    <path d="M 0 72 
L 36 72 
L 36 0 
L 0 0 
z
" clip-path="url(#p901e448f1c)" style="fill: #ffffff; stroke: #ffffff; stroke-linejoin: miter"/>
   </g>
   <g id="patch_3">
    <path d="M 0 72 
Q 0 0 0 0 
L 36 0 
L 36 72 
z
" clip-path="url(#p901e448f1c)" style="fill: #ffffff"/>
   </g>
   <g id="patch_4">
    <path d="M 18 0 
Q 18 72 18 72 
L 36 72 
L 36 0 
z
" clip-path="url(#p901e448f1c)" style="fill: #ffffff"/>
   </g>
   <g id="patch_5">
    <path d="M 18 0 
Q 18 72 18 72 
" clip-path="url(#p901e448f1c)" style="fill: none; stroke: #000000; stroke-linejoin: miter"/>
   </g>
   <g id="text_1">
    <!-- x -->
    <g transform="translate(22.5 12.098438) scale(0.1 -0.1)">
     <defs>
      <path id="DejaVuSans-78" d="M 3513 3500 
L 2247 1797 
L 3578 0 
L 2900 0 
L 1881 1375 
L 863 0 
L 184 0 
L 1544 1831 
L 300 3500 
L 978 3500 
L 1906 2253 
L 2834 3500 
L 3513 3500 
z
" transform="scale(0.015625)"/>
     </defs>
     <use xlink:href="#DejaVuSans-78"/>
    </g>
   </g>
  </g>
 </g>
 <defs>
  <clipPath id="p901e448f1c">
   <rect x="0" y="0" width="36" height="72"/>
  </clipPath>
 </defs>
</svg>
