<?xml version="1.0" encoding="utf-8" standalone="no"?>
<!DOCTYPE svg PUBLIC "-//W3C//DTD SVG 1.1//EN"
  "http://www.w3.org/Graphics/SVG/1.1/DTD/svg11.dtd">
<svg xmlns:xlink="http://www.w3.org/1999/xlink" width="576pt" height="144pt" viewBox="0 0 576 144" xmlns="http://www.w3.org/2000/svg" version="1.1">
 <metadata>
  <rdf:RDF xmlns:dc="http://purl.org/dc/elements/1.1/" xmlns:cc="http://creativecommons.org/ns#" xmlns:rdf="http://www.w3.org/1999/02/22-rdf-syntax-ns#">
   <cc:Work>
    <dc:type rdf:resource="http://purl.org/dc/dcmitype/StillImage"/>
    <dc:format>image/svg+xml</dc:format>
    <dc:creator>
     <cc:Agent>
      <dc:title>Matplotlib v3.10.9, https://matplotlib.org/</dc:title>
     </cc:Agent>
    </dc:creator>
   </cc:Work>
  </rdf:RDF>
 </metadata>
 <defs>
  <style type="text/css">*{stroke-linejoin: round; stroke-linecap: butt}</style>
 </defs>
 <g id="figure_1">
  <g id="patch_1">
   <path d="M 0 144 
L 576 144 
L 576 0 
L 0 0 
z
" style="fill: #ffffff"/>
  </g>
  <g id="axes_1">
   <g id="patch_2">
    <path d="M 0 144 
L 576 144 
L 576 0 
L 0 0 
z
" clip-path="url(#pddff8e51c2)" style="fill: #ffffff; stroke: #ffffff; stroke-linejoin: miter"/>
   </g>
   <g id="patch_3">
    <path d="M 0 144 
Q 0 0 0 0 
L 576 0 
L 576 144 
z
" clip-path="url(#pddff8e51c2)" style="fill: #ffffff"/>
   </g>
   <g id="patch_4">
    <path d="M 36 0 
Q 36 18 36 18 
L 576 18 
L 576 0 
z
" clip-path="url(#pddff8e51c2)" style="fill: #ffffff"/>
   </g>
   <g id="patch_5">
    <path d="M 36 54 
Q 36 144 36 144 
L 576 144 
L 576 54 
z
" clip-path="url(#pddff8e51c2)" style="fill: #ffffff"/>
   </g>
   <g id="patch_6">
    <path d="M 54 18 
Q 54 54 54 54 
L 576 54 
L 576 18 
z
" clip-path="url(#pddff8e51c2)" style="fill: #ffffff"/>
   </g>
   <g id="patch_7">
    <path d="M 108 0 
Q 108 90 108 90 
L 576 90 
L 576 0 
z
" clip-path="url(#pddff8e51c2)" style="fill: #ffffff"/>
   </g>
   <g id="patch_8">
    <path d="M 108 126 
Q 108 144 108 144 
L 576 144 
L 576 126 
z
" clip-path="url(#pddff8e51c2)" style="fill: #ffffff"/>
   </g>
   <g id="patch_9">
    <path d="M 126 90 
Q 126 126 126 126 
L 576 126 
L 576 90 
z
" clip-path="url(#pddff8e51c2)" style="fill: #ffffff"/>
   </g>
   <g id="patch_10">
    <path d="M 252 0 
Q 252 54 252 54 
L 576 54 
L 576 0 
z
" clip-path="url(#pddff8e51c2)" style="fill: #ffffff"/>
   </g>
   <g id="patch_11">
    <path d="M 252 90 
Q 252 144 252 144 
L 576 144 
L 576 90 
z
" clip-path="url(#pddff8e51c2)" style="fill: #ffffff"/>
   </g>
   <g id="patch_12">
    <path d="M 270 54 
Q 270 90 270 90 
L 576 90 
L 576 54 
z
" clip-path="url(#pddff8e51c2)" style="fill: #ffffff"/>
   </g>
   <g id="patch_13">
    <path d="M 324 0 
Q 324 54 324 54 
L 576 54 
L 576 0 
z
" clip-path="url(#pddff8e51c2)" style="fill: #ffffff"/>
   </g>
   <g id="patch_14">
    <path d="M 324 90 
Q 324 144 324 144 
L 576 144 
L 576 90 
z
" clip-path="url(#pddff8e51c2)" style="fill: #ffffff"/>
   </g>
   <g id="patch_15">
    <path d="M 342 54 
Q 342 90 342 90 
L 576 90 
L 576 54 
z
" clip-path="url(#pddff8e51c2)" style="fill: #ffffff"/>
   </g>
   <g id="patch_16">
    <path d="M 468 0 
Q 468 90 468 90 
L 576 90 
L 576 0 
z
" clip-path="url(#pddff8e51c2)" style="fill: #ffffff"/>
   </g>
   <g id="patch_17">
    <path d="M 468 126 
Q 468 144 468 144 
L 576 144 
L 576 126 
z
" clip-path="url(#pddff8e51c2)" style="fill: #ffffff"/>
   </g>
   <g id="patch_18">
    <path d="M 486 90 
Q 486 126 486 126 
L 576 126 
L 576 90 
z
" clip-path="url(#pddff8e51c2)" style="fill: #ffffff"/>
   </g>
   <g id="patch_19">
    <path d="M 540 0 
Q 540 18 540 18 
L 576 18 
L 576 0 
z
" clip-path="url(#pddff8e51c2)" style="fill: #ffffff"/>
   </g>
   <g id="patch_20">
    <path d="M 540 54 
Q 540 144 540 144 
L 576 144 
L 576 54 
z
" clip-path="url(#pddff8e51c2)" style="fill: #ffffff"/>
   </g>
   <g id="patch_21">
    <path d="M 558 18 
Q 558 54 558 54 
L 576 54 
L 576 18 
z
" clip-path="url(#pddff8e51c2)" style="fill: #ffffff"/>
   </g>
   <g id="patch_22">
    <path d="M 36 0 
Q 36 18 36 18 
" clip-path="url(#pddff8e51c2)" style="fill: none; stroke: #000000; stroke-linejoin: miter"/>
   </g>
   <g id="patch_23">
    <path d="M 36 54 
Q 36 144 36 144 
" clip-path="url(#pddff8e51c2)" style="fill: none; stroke: #000000; stroke-linejoin: miter"/>
   </g>
   <g id="patch_24">
    <path d="M 108 0 
Q 108 90 108 90 
" clip-path="url(#pddff8e51c2)" style="fill: none; stroke: #000000; stroke-linejoin: miter"/>
   </g>
   <g id="patch_25">
    <path d="M 108 126 
Q 108 144 108 144 
" clip-path="url(#pddff8e51c2)" style="fill: none; stroke: #000000; stroke-linejoin: miter"/>
   </g>
   <g id="patch_26">
    <path d="M 252 0 
Q 252 54 252 54 
" clip-path="url(#pddff8e51c2)" style="fill: none; stroke: #000000; stroke-linejoin: miter"/>
   </g>
   <g id="patch_27">
    <path d="M 252 90 
Q 252 144 252 144 
" clip-path="url(#pddff8e51c2)" style="fill: none; stroke: #000000; stroke-linejoin: miter"/>
   </g>
   <g id="patch_28">
    <path d="M 324 0 
Q 324 54 324 54 
" clip-path="url(#pddff8e51c2)" style="fill: none; stroke: #000000; stroke-linejoin: miter"/>
   </g>
   <g id="patch_29">
    <path d="M 324 90 
Q 324 144 324 144 
" clip-path="url(#pddff8e51c2)" style="fill: none; stroke: #000000; stroke-linejoin: miter"/>
   </g>
   <g id="patch_30">
    <path d="M 468 0 
Q 468 90 468 90 
" clip-path="url(#pddff8e51c2)" style="fill: none; stroke: #000000; stroke-linejoin: miter"/>
   </g>
   <g id="patch_31">
    <path d="M 540 0 
Q 540 18 540 18 
" clip-path="url(#pddff8e51c2)" style="fill: none; stroke: #000000; stroke-linejoin: miter"/>
   </g>
   <g id="patch_32">
    <path d="M 540 54 
Q 540 144 540 144 
" clip-path="url(#pddff8e51c2)" style="fill: none; stroke: #000000; stroke-linejoin: miter"/>
   </g>
   <g id="patch_33">
    <path d="M 468 126 
Q 468 144 468 144 
" clip-path="url(#pddff8e51c2)" style="fill: none; stroke: #000000; stroke-linejoin: miter"/>
   </g>
   <g id="patch_34">
    <path d="M 18 54 
L 18 18 
L 54 18 
L 54 54 
z
" clip-path="url(#pddff8e51c2)" style="fill: #ffffff; stroke: #000000; stroke-linejoin: miter"/>
   </g>
   <g id="patch_35">
    <path d="M 90 126 
L 90 90 
L 126 90 
L 126 126 
z
" clip-path="url(#pddff8e51c2)" style="fill: #ffffff; stroke: #000000; stroke-linejoin: miter"/>
   </g>
   <g id="patch_36">
    <path d="M 234 90 
L 234 54 
L 270 54 
L 270 90 
z
" clip-path="url(#pddff8e51c2)" style="fill: #ffffff; stroke: #000000; stroke-linejoin: miter"/>
   </g>
   <g id="patch_37">
    <path d="M 306 90 
L 306 54 
L 342 54 
L 342 90 
z
" clip-path="url(#pddff8e51c2)" style="fill: #ffffff; stroke: #000000; stroke-linejoin: miter"/>
   </g>
   <g id="patch_38">
    <path d="M 522 54 
L 522 18 
L 558 18 
L 558 54 
z
" clip-path="url(#pddff8e51c2)" style="fill: #ffffff; stroke: #000000; stroke-linejoin: miter"/>
   </g>
   <g id="patch_39">
    <path d="M 450 126 
L 450 90 
L 486 90 
L 486 126 
z
" clip-path="url(#pddff8e51c2)" style="fill: #ffffff; stroke: #000000; stroke-linejoin: miter"/>
   </g>
   <g id="PathCollection_1">
    <defs>
     <path id="C0_0_8c61628325" d="M 0 5.152669 
C 1.366504 5.152669 2.677223 4.609751 3.643487 3.643487 
C 4.609751 2.677223 5.152669 1.366504 5.152669 -0 
C 5.152669 -1.366504 4.609751 -2.677223 3.643487 -3.643487 
C 2.677223 -4.609751 1.366504 -5.152669 0 -5.152669 
C -1.366504 -5.152669 -2.677223 -4.609751 -3.643487 -3.643487 
C -4.609751 -2.677223 -5.152669 -1.366504 -5.152669 0 
C -5.152669 1.366504 -4.609751 2.677223 -3.643487 3.643487 
C -2.677223 4.609751 -1.366504 5.152669 0 5.152669 
z
"/>
    </defs>
    <g clip-path="url(#pddff8e51c2)">
     <use xlink:href="#C0_0_8c61628325" x="396" y="72" style="fill: #ffffff; stroke: #ffffff"/>
    </g>
    <g clip-path="url(#pddff8e51c2)">
     <use xlink:href="#C0_0_8c61628325" x="180" y="72" style="fill: #ffffff; stroke: #ffffff"/>
    </g>
   </g>
   <g id="text_1">
    <!-- x -->
    <g transform="translate(40.5 12.098437) scale(0.1 -0.1)">
     <defs>
      <path id="DejaVuSans-78" d="M 3513 3500 
L 2247 1797 
L 3578 0 
L 2900 0 
L 1881 1375 
L 863 0 
L 184 0 
L 1544 1831 
L 300 3500 
L 978 3500 
L 1906 2253 
L 2834 3500 
L 3513 3500 
z
" transform="scale(0.015625)"/>
     </defs>
     <use xlink:href="#DejaVuSans-78"/>
    </g>
   </g>
   <g id="text_2">
    <!-- y -->
    <g transform="translate(40.5 66.098438) scale(0.1 -0.1)">
     <defs>
      <path id="DejaVuSans-79" d="M 2059 -325 
Q 1816 -950 1584 -1140 
Q 1353 -1331 966 -1331 
L 506 -1331 
L 506 -850 
L 844 -850 
Q 1081 -850 1212 -737 
Q 1344 -625 1503 -206 
L 1606 56 
L 191 3500 
L 800 3500 
L 1894 763 
L 2988 3500 
L 3597 3500 
L 2059 -325 
z
" transform="scale(0.015625)"/>
     </defs>
     <use xlink:href="#DejaVuSans-79"/>
    </g>
   </g>
   <g id="text_3">
    <!-- y -->
    <g transform="translate(112.5 12.098437) scale(0.1 -0.1)">
     <use xlink:href="#DejaVuSans-79"/>
    </g>
   </g>
   <g id="text_4">
    <!-- z -->
    <g transform="translate(112.5 138.098437) scale(0.1 -0.1)">
     <defs>
      <path id="DejaVuSans-7a" d="M 353 3500 
L 3084 3500 
L 3084 2975 
L 922 459 
L 3084 459 
L 3084 0 
L 275 0 
L 275 525 
L 2438 3041 
L 353 3041 
L 353 3500 
z
" transform="scale(0.015625)"/>
     </defs>
     <use xlink:href="#DejaVuSans-7a"/>
    </g>
   </g>
   <g id="text_5">
    <!-- x -->
    <g transform="translate(256.5 12.098437) scale(0.1 -0.1)">
     <use xlink:href="#DejaVuSans-78"/>
    </g>
   </g>
   <g id="text_6">
    <!-- y -->
    <g transform="translate(256.5 102.098438) scale(0.1 -0.1)">
     <use xlink:href="#DejaVuSans-79"/>
    </g>
   </g>
   <g id="text_7">
    <!-- y -->
    <g transform="translate(328.5 12.098437) scale(0.1 -0.1)">
     <use xlink:href="#DejaVuSans-79"/>
    </g>
   </g>
   <g id="text_8">
    <!-- z -->
    <g transform="translate(328.5 102.098438) scale(0.1 -0.1)">
     <use xlink:href="#DejaVuSans-7a"/>
    </g>
   </g>
   <g id="text_9">
    <!-- x -->
    <g transform="translate(472.5 12.098437) scale(0.1 -0.1)">
     <use xlink:href="#DejaVuSans-78"/>
    </g>
   </g>
   <g id="text_10">
    <!-- y -->
    <g transform="translate(544.5 12.098437) scale(0.1 -0.1)">
     <use xlink:href="#DejaVuSans-79"/>
    </g>
   </g>
   <g id="text_11">
    <!-- z -->
    <g transform="translate(544.5 66.098438) scale(0.1 -0.1)">
     <use xlink:href="#DejaVuSans-7a"/>
    </g>
   </g>
   <g id="text_12">
    <!-- y -->
    <g transform="translate(472.5 138.098437) scale(0.1 -0.1)">
     <use xlink:href="#DejaVuSans-79"/>
    </g>
   </g>
   <g id="text_13">
    <!-- f -->
    <g transform="translate(34.239844 38.759375) scale(0.1 -0.1)">
     <defs>
      <path id="DejaVuSans-66" d="M 2375 4863 
L 2375 4384 
L 1825 4384 
Q 1516 4384 1395 4259 
Q 1275 4134 1275 3809 
L 1275 3500 
L 2222 3500 
L 2222 3053 
L 1275 3053 
L 1275 0 
L 697 0 
L 697 3053 
L 147 3053 
L 147 3500 
L 697 3500 
L 697 3744 
Q 697 4328 969 4595 
Q 1241 4863 1831 4863 
L 2375 4863 
z
" transform="scale(0.015625)"/>
     </defs>
     <use xlink:href="#DejaVuSans-66"/>
    </g>
   </g>
   <g id="text_14">
    <!-- g -->
    <g transform="translate(104.825781 110.759375) scale(0.1 -0.1)">
     <defs>
      <path id="DejaVuSans-67" d="M 2906 1791 
Q 2906 2416 2648 2759 
Q 2391 3103 1925 3103 
Q 1463 3103 1205 2759 
Q 947 2416 947 1791 
Q 947 1169 1205 825 
Q 1463 481 1925 481 
Q 2391 481 2648 825 
Q 2906 1169 2906 1791 
z
M 3481 434 
Q 3481 -459 3084 -895 
Q 2688 -1331 1869 -1331 
Q 1566 -1331 1297 -1286 
Q 1028 -1241 775 -1147 
L 775 -588 
Q 1028 -725 1275 -790 
Q 1522 -856 1778 -856 
Q 2344 -856 2625 -561 
Q 2906 -266 2906 331 
L 2906 616 
Q 2728 306 2450 153 
Q 2172 0 1784 0 
Q 1141 0 747 490 
Q 353 981 353 1791 
Q 353 2603 747 3093 
Q 1141 3584 1784 3584 
Q 2172 3584 2450 3431 
Q 2728 3278 2906 2969 
L 2906 3500 
L 3481 3500 
L 3481 434 
z
" transform="scale(0.015625)"/>
     </defs>
     <use xlink:href="#DejaVuSans-67"/>
    </g>
   </g>
   <g id="text_15">
    <!-- f -->
    <g transform="translate(250.239844 74.759375) scale(0.1 -0.1)">
     <use xlink:href="#DejaVuSans-66"/>
    </g>
   </g>
   <g id="text_16">
    <!-- g -->
    <g transform="translate(320.825781 74.759375) scale(0.1 -0.1)">
     <use xlink:href="#DejaVuSans-67"/>
    </g>
   </g>
   <g id="text_17">
    <!-- g -->
    <g transform="translate(536.825781 38.759375) scale(0.1 -0.1)">
     <use xlink:href="#DejaVuSans-67"/>
    </g>
   </g>
   <g id="text_18">
    <!-- f -->
    <g transform="translate(466.239844 110.759375) scale(0.1 -0.1)">
     <use xlink:href="#DejaVuSans-66"/>
    </g>
   </g>
   <g id="text_19">
    <g clip-path="url(#pddff8e51c2)">
     <!-- = -->
     <g transform="translate(390.972188 75.31125) scale(0.12 -0.12)">
      <defs>
       <path id="DejaVuSans-3d" d="M 678 2906 
L 4684 2906 
L 4684 2381 
L 678 2381 
L 678 2906 
z
M 678 1631 
L 4684 1631 
L 4684 1100 
L 678 1100 
L 678 1631 
z
" transform="scale(0.015625)"/>
      </defs>
      <use xlink:href="#DejaVuSans-3d"/>
     </g>
    </g>
   </g>
   <g id="text_20">
    <g clip-path="url(#pddff8e51c2)">
     <!-- = -->
     <g transform="translate(174.972187 75.31125) scale(0.12 -0.12)">
      <use xlink:href="#DejaVuSans-3d"/>
     </g>
    </g>
   </g>
  </g>
 </g>
 <defs>
  <clipPath id="pddff8e51c2">
   <rect x="0" y="0" width="576" height="144"/>
  </clipPath>
 </defs>
</svg>
