<?xml version="1.0" encoding="utf-8" standalone="no"?>
<!DOCTYPE svg PUBLIC "-//W3C//DTD SVG 1.1//EN"
  "http://www.w3.org/Graphics/SVG/1.1/DTD/svg11.dtd">
<svg xmlns:xlink="http://www.w3.org/1999/xlink" width="360pt" height="144pt" viewBox="0 0 360 144" xmlns="http://www.w3.org/2000/svg" version="1.1">
 <metadata>
  <rdf:RDF xmlns:dc="http://purl.org/dc/elements/1.1/" xmlns:cc="http://creativecommons.org/ns#" xmlns:rdf="http://www.w3.org/1999/02/22-rdf-syntax-ns#">
   <cc:Work>
    <dc:type rdf:resource="http://purl.org/dc/dcmitype/StillImage"/>
    <dc:format>image/svg+xml</dc:format>
    <dc:creator>
     <cc:Agent>
      <dc:title>Matplotlib v3.10.9, https://matplotlib.org/</dc:title>
     </cc:Agent>
    </dc:creator>
   </cc:Work>
  </rdf:RDF>
 </metadata>
 <defs>
  <style type="text/css">*{stroke-linejoin: round; stroke-linecap: butt}</style>
 </defs>
 <g id="figure_1">
  <g id="patch_1">
   <path d="M 0 144 
L 360 144 
L 360 0 
L 0 0 
z
" style="fill: #ffffff"/>
  </g>
  <g id="axes_1">
   <g id="patch_2">
    <path d="M 0 144 
L 360 144 
L 360 0 
L 0 0 
z
" clip-path="url(#p47b61f2627)" style="fill: #ffffff; stroke: #ffffff; stroke-linejoin: miter"/>
   </g>
   <g id="patch_3">
    <path d="M 0 144 
Q 0 0 0 0 
L 360 0 
L 360 144 
z
" clip-path="url(#p47b61f2627)" style="fill: #ffffff"/>
   </g>
   <g id="patch_4">
    <path d="M 36 0 
Q 36 18 36 18 
L 360 18 
L 360 0 
z
" clip-path="url(#p47b61f2627)" style="fill: #ffffff"/>
   </g>
   <g id="patch_5">
    <path d="M 36 54 
Q 36 90 36 90 
L 360 90 
L 360 54 
z
" clip-path="url(#p47b61f2627)" style="fill: #ffffff"/>
   </g>
   <g id="patch_6">
    <path d="M 36 126 
Q 36 144 36 144 
L 360 144 
L 360 126 
z
" clip-path="url(#p47b61f2627)" style="fill: #ffffff"/>
   </g>
   <g id="patch_7">
    <path d="M 108 0 
Q 108 18 108 18 
L 360 18 
L 360 0 
z
" clip-path="url(#p47b61f2627)" style="fill: #ffffff"/>
   </g>
   <g id="patch_8">
    <path d="M 108 54 
Q 108 90 108 90 
L 360 90 
L 360 54 
z
" clip-path="url(#p47b61f2627)" style="fill: #ffffff"/>
   </g>
   <g id="patch_9">
    <path d="M 108 126 
Q 108 144 108 144 
L 360 144 
L 360 126 
z
" clip-path="url(#p47b61f2627)" style="fill: #ffffff"/>
   </g>
   <g id="patch_10">
    <path d="M 180 0 
Q 180 18 180 18 
L 360 18 
L 360 0 
z
" clip-path="url(#p47b61f2627)" style="fill: #ffffff"/>
   </g>
   <g id="patch_11">
    <path d="M 180 54 
Q 180 90 180 90 
L 360 90 
L 360 54 
z
" clip-path="url(#p47b61f2627)" style="fill: #ffffff"/>
   </g>
   <g id="patch_12">
    <path d="M 180 126 
Q 180 144 180 144 
L 360 144 
L 360 126 
z
" clip-path="url(#p47b61f2627)" style="fill: #ffffff"/>
   </g>
   <g id="patch_13">
    <path d="M 252 0 
Q 252 18 252 18 
L 360 18 
L 360 0 
z
" clip-path="url(#p47b61f2627)" style="fill: #ffffff"/>
   </g>
   <g id="patch_14">
    <path d="M 252 54 
Q 252 90 252 90 
L 360 90 
L 360 54 
z
" clip-path="url(#p47b61f2627)" style="fill: #ffffff"/>
   </g>
   <g id="patch_15">
    <path d="M 252 126 
Q 252 144 252 144 
L 360 144 
L 360 126 
z
" clip-path="url(#p47b61f2627)" style="fill: #ffffff"/>
   </g>
   <g id="patch_16">
    <path d="M 324 0 
Q 324 18 324 18 
L 360 18 
L 360 0 
z
" clip-path="url(#p47b61f2627)" style="fill: #ffffff"/>
   </g>
   <g id="patch_17">
    <path d="M 324 54 
Q 324 90 324 90 
L 360 90 
L 360 54 
z
" clip-path="url(#p47b61f2627)" style="fill: #ffffff"/>
   </g>
   <g id="patch_18">
    <path d="M 324 126 
Q 324 144 324 144 
L 360 144 
L 360 126 
z
" clip-path="url(#p47b61f2627)" style="fill: #ffffff"/>
   </g>
   <g id="patch_19">
    <path d="M 342 18 
Q 342 54 342 54 
L 360 54 
L 360 18 
z
" clip-path="url(#p47b61f2627)" style="fill: #ffffff"/>
   </g>
   <g id="patch_20">
    <path d="M 342 90 
Q 342 126 342 126 
L 360 126 
L 360 90 
z
" clip-path="url(#p47b61f2627)" style="fill: #ffffff"/>
   </g>
   <g id="patch_21">
    <path d="M 36 0 
Q 36 18 36 18 
" clip-path="url(#p47b61f2627)" style="fill: none; stroke: #000000; stroke-linejoin: miter"/>
   </g>
   <g id="patch_22">
    <path d="M 108 0 
Q 108 18 108 18 
" clip-path="url(#p47b61f2627)" style="fill: none; stroke: #000000; stroke-linejoin: miter"/>
   </g>
   <g id="patch_23">
    <path d="M 180 0 
Q 180 18 180 18 
" clip-path="url(#p47b61f2627)" style="fill: none; stroke: #000000; stroke-linejoin: miter"/>
   </g>
   <g id="patch_24">
    <path d="M 252 0 
Q 252 18 252 18 
" clip-path="url(#p47b61f2627)" style="fill: none; stroke: #000000; stroke-linejoin: miter"/>
   </g>
   <g id="patch_25">
    <path d="M 324 0 
Q 324 18 324 18 
" clip-path="url(#p47b61f2627)" style="fill: none; stroke: #000000; stroke-linejoin: miter"/>
   </g>
   <g id="patch_26">
    <path d="M 36 54 
Q 36 90 36 90 
" clip-path="url(#p47b61f2627)" style="fill: none; stroke: #000000; stroke-linejoin: miter"/>
   </g>
   <g id="patch_27">
    <path d="M 108 54 
Q 108 90 108 90 
" clip-path="url(#p47b61f2627)" style="fill: none; stroke: #000000; stroke-linejoin: miter"/>
   </g>
   <g id="patch_28">
    <path d="M 180 54 
Q 180 90 180 90 
" clip-path="url(#p47b61f2627)" style="fill: none; stroke: #000000; stroke-linejoin: miter"/>
   </g>
   <g id="patch_29">
    <path d="M 252 54 
Q 252 90 252 90 
" clip-path="url(#p47b61f2627)" style="fill: none; stroke: #000000; stroke-linejoin: miter"/>
   </g>
   <g id="patch_30">
    <path d="M 324 54 
Q 324 90 324 90 
" clip-path="url(#p47b61f2627)" style="fill: none; stroke: #000000; stroke-linejoin: miter"/>
   </g>
   <g id="patch_31">
    <path d="M 36 126 
Q 36 144 36 144 
" clip-path="url(#p47b61f2627)" style="fill: none; stroke: #000000; stroke-linejoin: miter"/>
   </g>
   <g id="patch_32">
    <path d="M 108 126 
Q 108 144 108 144 
" clip-path="url(#p47b61f2627)" style="fill: none; stroke: #000000; stroke-linejoin: miter"/>
   </g>
   <g id="patch_33">
    <path d="M 180 126 
Q 180 144 180 144 
" clip-path="url(#p47b61f2627)" style="fill: none; stroke: #000000; stroke-linejoin: miter"/>
   </g>
   <g id="patch_34">
    <path d="M 252 126 
Q 252 144 252 144 
" clip-path="url(#p47b61f2627)" style="fill: none; stroke: #000000; stroke-linejoin: miter"/>
   </g>
   <g id="patch_35">
    <path d="M 324 126 
Q 324 144 324 144 
" clip-path="url(#p47b61f2627)" style="fill: none; stroke: #000000; stroke-linejoin: miter"/>
   </g>
   <g id="patch_36">
    <path d="M 252 18 
Q 252 54 252 54 
" clip-path="url(#p47b61f2627)" style="fill: none; stroke: #000000; stroke-linejoin: miter"/>
   </g>
   <g id="PathCollection_1">
    <defs>
     <path id="m2666cb9bb9" d="M 0 8.188406 
C 2.171591 8.188406 4.254531 7.325624 5.790078 5.790078 
C 7.325624 4.254531 8.188406 2.171591 8.188406 0 
C 8.188406 -2.171591 7.325624 -4.254531 5.790078 -5.790078 
C 4.254531 -7.325624 2.171591 -8.188406 0 -8.188406 
C -2.171591 -8.188406 -4.254531 -7.325624 -5.790078 -5.790078 
C -7.325624 -4.254531 -8.188406 -2.171591 -8.188406 0 
C -8.188406 2.171591 -7.325624 4.254531 -5.790078 5.790078 
C -4.254531 7.325624 -2.171591 8.188406 0 8.188406 
z
" style="stroke: #000000"/>
    </defs>
    <g clip-path="url(#p47b61f2627)">
     <use xlink:href="#m2666cb9bb9" x="252" y="36" style="fill: #ffffff; stroke: #000000"/>
    </g>
   </g>
   <g id="PathCollection_2">
    <defs>
     <path id="mc68145a221" d="M -8.188406 0 
L 8.188406 0 
M 0 8.188406 
L 0 -8.188406 
" style="stroke: #000000; stroke-width: 1.5"/>
    </defs>
    <g clip-path="url(#p47b61f2627)">
     <use xlink:href="#mc68145a221" x="252" y="36" style="stroke: #000000; stroke-width: 1.5"/>
    </g>
   </g>
   <g id="patch_37">
    <path d="M 324 18 
Q 324 54 324 54 
" clip-path="url(#p47b61f2627)" style="fill: none; stroke: #000000; stroke-linejoin: miter"/>
   </g>
   <g id="patch_38">
    <path d="M 324 36 
Q 252 36 252 36 
" clip-path="url(#p47b61f2627)" style="fill: none; stroke: #000000; stroke-linejoin: miter"/>
   </g>
   <g id="PathCollection_3">
    <defs>
     <path id="m1d28fb65be" d="M 0 5.790078 
C 1.535547 5.790078 3.008408 5.179999 4.094203 4.094203 
C 5.179999 3.008408 5.790078 1.535547 5.790078 0 
C 5.790078 -1.535547 5.179999 -3.008408 4.094203 -4.094203 
C 3.008408 -5.179999 1.535547 -5.790078 0 -5.790078 
C -1.535547 -5.790078 -3.008408 -5.179999 -4.094203 -4.094203 
C -5.179999 -3.008408 -5.790078 -1.535547 -5.790078 0 
C -5.790078 1.535547 -5.179999 3.008408 -4.094203 4.094203 
C -3.008408 5.179999 -1.535547 5.790078 0 5.790078 
z
" style="stroke: #000000"/>
    </defs>
    <g clip-path="url(#p47b61f2627)">
     <use xlink:href="#m1d28fb65be" x="324" y="36" style="stroke: #000000"/>
    </g>
   </g>
   <g id="patch_39">
    <path d="M 36 18 
Q 36 54 36 54 
" clip-path="url(#p47b61f2627)" style="fill: none; stroke: #000000; stroke-linejoin: miter"/>
   </g>
   <g id="patch_40">
    <path d="M 108 18 
Q 108 54 108 54 
" clip-path="url(#p47b61f2627)" style="fill: none; stroke: #000000; stroke-linejoin: miter"/>
   </g>
   <g id="patch_41">
    <path d="M 180 18 
Q 180 54 180 54 
" clip-path="url(#p47b61f2627)" style="fill: none; stroke: #000000; stroke-linejoin: miter"/>
   </g>
   <g id="patch_42">
    <path d="M 36 36 
Q 252 36 252 36 
" clip-path="url(#p47b61f2627)" style="fill: none; stroke: #000000; stroke-linejoin: miter"/>
   </g>
   <g id="PathCollection_4">
    <g clip-path="url(#p47b61f2627)">
     <use xlink:href="#m1d28fb65be" x="36" y="36" style="stroke: #000000"/>
    </g>
   </g>
   <g id="patch_43">
    <path d="M 162 126 
L 162 90 
L 198 90 
L 198 126 
z
" clip-path="url(#p47b61f2627)" style="fill: #ffffff; stroke: #000000; stroke-linejoin: miter"/>
   </g>
   <g id="patch_44">
    <path d="M 252 90 
Q 252 126 252 126 
" clip-path="url(#p47b61f2627)" style="fill: none; stroke: #000000; stroke-linejoin: miter"/>
   </g>
   <g id="patch_45">
    <path d="M 252 108 
Q 198 108 198 108 
" clip-path="url(#p47b61f2627)" style="fill: none; stroke: #000000; stroke-linejoin: miter"/>
   </g>
   <g id="PathCollection_5">
    <g clip-path="url(#p47b61f2627)">
     <use xlink:href="#m1d28fb65be" x="252" y="108" style="stroke: #000000"/>
    </g>
   </g>
   <g id="patch_46">
    <path d="M 36 90 
Q 36 126 36 126 
" clip-path="url(#p47b61f2627)" style="fill: none; stroke: #000000; stroke-linejoin: miter"/>
   </g>
   <g id="patch_47">
    <path d="M 108 90 
Q 108 126 108 126 
" clip-path="url(#p47b61f2627)" style="fill: none; stroke: #000000; stroke-linejoin: miter"/>
   </g>
   <g id="patch_48">
    <path d="M 36 108 
Q 162 108 162 108 
" clip-path="url(#p47b61f2627)" style="fill: none; stroke: #000000; stroke-linejoin: miter"/>
   </g>
   <g id="PathCollection_6">
    <g clip-path="url(#p47b61f2627)">
     <use xlink:href="#m1d28fb65be" x="36" y="108" style="stroke: #000000"/>
    </g>
   </g>
   <g id="patch_49">
    <path d="M 324 90 
Q 324 126 324 126 
" clip-path="url(#p47b61f2627)" style="fill: none; stroke: #000000; stroke-linejoin: miter"/>
   </g>
   <g id="patch_50">
    <path d="M 324 108 
Q 252 108 252 108 
" clip-path="url(#p47b61f2627)" style="fill: none; stroke: #000000; stroke-linejoin: miter"/>
   </g>
   <g id="PathCollection_7">
    <g clip-path="url(#p47b61f2627)">
     <use xlink:href="#m1d28fb65be" x="324" y="108" style="stroke: #000000"/>
    </g>
   </g>
   <g id="text_1">
    <!-- Z -->
    <g transform="translate(176.575 110.759375) scale(0.1 -0.1)">
     <defs>
      <path id="DejaVuSans-5a" d="M 359 4666 
L 4025 4666 
L 4025 4184 
L 1075 531 
L 4097 531 
L 4097 0 
L 288 0 
L 288 481 
L 3238 4134 
L 359 4134 
L 359 4666 
z
" transform="scale(0.015625)"/>
     </defs>
     <use xlink:href="#DejaVuSans-5a"/>
    </g>
   </g>
  </g>
 </g>
 <defs>
  <clipPath id="p47b61f2627">
   <rect x="0" y="0" width="360" height="144"/>
  </clipPath>
 </defs>
</svg>
