<?xml version="1.0" encoding="utf-8" standalone="no"?>
<!DOCTYPE svg PUBLIC "-//W3C//DTD SVG 1.1//EN"
  "http://www.w3.org/Graphics/SVG/1.1/DTD/svg11.dtd">
<svg xmlns:xlink="http://www.w3.org/1999/xlink" width="360pt" height="216pt" viewBox="0 0 360 216" xmlns="http://www.w3.org/2000/svg" version="1.1">
 <metadata>
  <rdf:RDF xmlns:dc="http://purl.org/dc/elements/1.1/" xmlns:cc="http://creativecommons.org/ns#" xmlns:rdf="http://www.w3.org/1999/02/22-rdf-syntax-ns#">
   <cc:Work>
    <dc:type rdf:resource="http://purl.org/dc/dcmitype/StillImage"/>
    <dc:format>image/svg+xml</dc:format>
    <dc:creator>
     <cc:Agent>
      <dc:title>Matplotlib v3.10.9, https://matplotlib.org/</dc:title>
     </cc:Agent>
    </dc:creator>
   </cc:Work>
  </rdf:RDF>
 </metadata>
 <defs>
  <style type="text/css">*{stroke-linejoin: round; stroke-linecap: butt}</style>
 </defs>
 <g id="figure_1">
  <g id="patch_1">
   <path d="M 0 216 
L 360 216 
L 360 0 
L 0 0 
z
" style="fill: #ffffff"/>
  </g>
  <g id="axes_1">
   <g id="patch_2">
    <path d="M 0 216 
L 360 216 
L 360 0 
L 0 0 
z
" clip-path="url(#pd7ae8d8837)" style="fill: #ffffff; stroke: #ffffff; stroke-linejoin: miter"/>
   </g>
   <g id="patch_3">
    <path d="M 0 216 
Q 0 0 0 0 
L 360 0 
L 360 216 
z
" clip-path="url(#pd7ae8d8837)" style="fill: #ffffff"/>
   </g>
   <g id="patch_4">
    <path d="M 18 18 
Q 18 198 18 198 
L 360 198 
L 360 18 
z
" clip-path="url(#pd7ae8d8837)" style="fill: #d3d3d3"/>
   </g>
   <g id="patch_5">
    <path d="M 54 54 
Q 54 162 54 162 
L 360 162 
L 360 54 
z
" clip-path="url(#pd7ae8d8837)" style="fill: #ffffff"/>
   </g>
   <g id="patch_6">
    <path d="M 180 18 
Q 18 18 18 18 
L 360 18 
L 360 18 
z
" clip-path="url(#pd7ae8d8837)" style="fill: #d3d3d3"/>
   </g>
   <g id="patch_7">
    <path d="M 18 198 
Q 18 198 180 198 
L 360 198 
L 360 198 
z
" clip-path="url(#pd7ae8d8837)" style="fill: #d3d3d3"/>
   </g>
   <g id="patch_8">
    <path d="M 108 126 
Q 108 162 108 162 
L 360 162 
L 360 126 
z
" clip-path="url(#pd7ae8d8837)" style="fill: #ffffff"/>
   </g>
   <g id="patch_9">
    <path d="M 180 54 
Q 54 54 54 54 
L 360 54 
L 360 54 
z
" clip-path="url(#pd7ae8d8837)" style="fill: #ffffff"/>
   </g>
   <g id="patch_10">
    <path d="M 54 162 
Q 54 162 180 162 
L 360 162 
L 360 162 
z
" clip-path="url(#pd7ae8d8837)" style="fill: #ffffff"/>
   </g>
   <g id="patch_11">
    <path d="M 144 0 
Q 144 18 144 18 
L 360 18 
L 360 0 
z
" clip-path="url(#pd7ae8d8837)" style="fill: #ffffff"/>
   </g>
   <g id="patch_12">
    <path d="M 144 198 
Q 144 216 144 216 
L 360 216 
L 360 198 
z
" clip-path="url(#pd7ae8d8837)" style="fill: #ffffff"/>
   </g>
   <g id="patch_13">
    <path d="M 180 54 
Q 180 90 180 90 
L 360 90 
L 360 54 
z
" clip-path="url(#pd7ae8d8837)" style="fill: #ffffff"/>
   </g>
   <g id="patch_14">
    <path d="M 180 126 
Q 180 162 180 162 
L 360 162 
L 360 126 
z
" clip-path="url(#pd7ae8d8837)" style="fill: #ffffff"/>
   </g>
   <g id="patch_15">
    <path d="M 216 0 
Q 216 18 216 18 
L 360 18 
L 360 0 
z
" clip-path="url(#pd7ae8d8837)" style="fill: #ffffff"/>
   </g>
   <g id="patch_16">
    <path d="M 216 198 
Q 216 216 216 216 
L 360 216 
L 360 198 
z
" clip-path="url(#pd7ae8d8837)" style="fill: #ffffff"/>
   </g>
   <g id="patch_17">
    <path d="M 180 54 
Q 306 54 306 54 
L 360 54 
L 360 54 
z
" clip-path="url(#pd7ae8d8837)" style="fill: #d3d3d3"/>
   </g>
   <g id="patch_18">
    <path d="M 306 162 
Q 306 162 180 162 
L 360 162 
L 360 162 
z
" clip-path="url(#pd7ae8d8837)" style="fill: #d3d3d3"/>
   </g>
   <g id="patch_19">
    <path d="M 252 126 
Q 252 162 252 162 
L 360 162 
L 360 126 
z
" clip-path="url(#pd7ae8d8837)" style="fill: #ffffff"/>
   </g>
   <g id="patch_20">
    <path d="M 180 18 
Q 342 18 342 18 
L 360 18 
L 360 18 
z
" clip-path="url(#pd7ae8d8837)" style="fill: #ffffff"/>
   </g>
   <g id="patch_21">
    <path d="M 342 198 
Q 342 198 180 198 
L 360 198 
L 360 198 
z
" clip-path="url(#pd7ae8d8837)" style="fill: #ffffff"/>
   </g>
   <g id="patch_22">
    <path d="M 270 90 
Q 270 126 270 126 
L 360 126 
L 360 90 
z
" clip-path="url(#pd7ae8d8837)" style="fill: #ffffff"/>
   </g>
   <g id="patch_23">
    <path d="M 306 54 
Q 306 162 306 162 
L 360 162 
L 360 54 
z
" clip-path="url(#pd7ae8d8837)" style="fill: #d3d3d3"/>
   </g>
   <g id="patch_24">
    <path d="M 342 18 
Q 342 198 342 198 
L 360 198 
L 360 18 
z
" clip-path="url(#pd7ae8d8837)" style="fill: #ffffff"/>
   </g>
   <g id="patch_25">
    <path d="M 180 18 
Q 18 18 18 18 
" clip-path="url(#pd7ae8d8837)" style="fill: none"/>
   </g>
   <g id="patch_26">
    <path d="M 180 18 
Q 342 18 342 18 
" clip-path="url(#pd7ae8d8837)" style="fill: none"/>
   </g>
   <g id="patch_27">
    <path d="M 144 0 
Q 144 18 144 18 
" clip-path="url(#pd7ae8d8837)" style="fill: none; stroke: #000000; stroke-linejoin: miter"/>
   </g>
   <g id="patch_28">
    <path d="M 216 0 
Q 216 18 216 18 
" clip-path="url(#pd7ae8d8837)" style="fill: none; stroke: #000000; stroke-linejoin: miter"/>
   </g>
   <g id="patch_29">
    <path d="M 18 18 
Q 18 198 18 198 
" clip-path="url(#pd7ae8d8837)" style="fill: none"/>
   </g>
   <g id="patch_30">
    <path d="M 342 18 
Q 342 198 342 198 
" clip-path="url(#pd7ae8d8837)" style="fill: none"/>
   </g>
   <g id="patch_31">
    <path d="M 180 54 
Q 54 54 54 54 
" clip-path="url(#pd7ae8d8837)" style="fill: none"/>
   </g>
   <g id="patch_32">
    <path d="M 180 54 
Q 306 54 306 54 
" clip-path="url(#pd7ae8d8837)" style="fill: none"/>
   </g>
   <g id="patch_33">
    <path d="M 54 54 
Q 54 162 54 162 
" clip-path="url(#pd7ae8d8837)" style="fill: none"/>
   </g>
   <g id="patch_34">
    <path d="M 180 54 
Q 180 90 180 90 
" clip-path="url(#pd7ae8d8837)" style="fill: none; stroke: #000000; stroke-linejoin: miter"/>
   </g>
   <g id="patch_35">
    <path d="M 306 54 
Q 306 162 306 162 
" clip-path="url(#pd7ae8d8837)" style="fill: none"/>
   </g>
   <g id="patch_36">
    <path d="M 108 126 
Q 108 162 108 162 
" clip-path="url(#pd7ae8d8837)" style="fill: none; stroke: #000000; stroke-linejoin: miter"/>
   </g>
   <g id="patch_37">
    <path d="M 180 126 
Q 180 162 180 162 
" clip-path="url(#pd7ae8d8837)" style="fill: none; stroke: #000000; stroke-linejoin: miter"/>
   </g>
   <g id="patch_38">
    <path d="M 252 126 
Q 252 162 252 162 
" clip-path="url(#pd7ae8d8837)" style="fill: none; stroke: #000000; stroke-linejoin: miter"/>
   </g>
   <g id="patch_39">
    <path d="M 54 162 
Q 54 162 180 162 
" clip-path="url(#pd7ae8d8837)" style="fill: none"/>
   </g>
   <g id="patch_40">
    <path d="M 306 162 
Q 306 162 180 162 
" clip-path="url(#pd7ae8d8837)" style="fill: none"/>
   </g>
   <g id="patch_41">
    <path d="M 18 198 
Q 18 198 180 198 
" clip-path="url(#pd7ae8d8837)" style="fill: none"/>
   </g>
   <g id="patch_42">
    <path d="M 342 198 
Q 342 198 180 198 
" clip-path="url(#pd7ae8d8837)" style="fill: none"/>
   </g>
   <g id="patch_43">
    <path d="M 144 198 
Q 144 216 144 216 
" clip-path="url(#pd7ae8d8837)" style="fill: none; stroke: #000000; stroke-linejoin: miter"/>
   </g>
   <g id="patch_44">
    <path d="M 216 198 
Q 216 216 216 216 
" clip-path="url(#pd7ae8d8837)" style="fill: none; stroke: #000000; stroke-linejoin: miter"/>
   </g>
   <g id="patch_45">
    <path d="M 90 126 
L 90 90 
L 270 90 
L 270 126 
z
" clip-path="url(#pd7ae8d8837)" style="fill: #ffffff; stroke: #000000; stroke-linejoin: miter"/>
   </g>
   <g id="text_1">
    <!-- x -->
    <g transform="translate(148.5 12.098437) scale(0.1 -0.1)">
     <defs>
      <path id="DejaVuSans-78" d="M 3513 3500 
L 2247 1797 
L 3578 0 
L 2900 0 
L 1881 1375 
L 863 0 
L 184 0 
L 1544 1831 
L 300 3500 
L 978 3500 
L 1906 2253 
L 2834 3500 
L 3513 3500 
z
" transform="scale(0.015625)"/>
     </defs>
     <use xlink:href="#DejaVuSans-78"/>
    </g>
   </g>
   <g id="text_2">
    <!-- x -->
    <g transform="translate(220.5 12.098437) scale(0.1 -0.1)">
     <use xlink:href="#DejaVuSans-78"/>
    </g>
   </g>
   <g id="text_3">
    <!-- x -->
    <g transform="translate(184.5 66.098437) scale(0.1 -0.1)">
     <use xlink:href="#DejaVuSans-78"/>
    </g>
   </g>
   <g id="text_4">
    <!-- y -->
    <g transform="translate(112.5 138.098437) scale(0.1 -0.1)">
     <defs>
      <path id="DejaVuSans-79" d="M 2059 -325 
Q 1816 -950 1584 -1140 
Q 1353 -1331 966 -1331 
L 506 -1331 
L 506 -850 
L 844 -850 
Q 1081 -850 1212 -737 
Q 1344 -625 1503 -206 
L 1606 56 
L 191 3500 
L 800 3500 
L 1894 763 
L 2988 3500 
L 3597 3500 
L 2059 -325 
z
" transform="scale(0.015625)"/>
     </defs>
     <use xlink:href="#DejaVuSans-79"/>
    </g>
   </g>
   <g id="text_5">
    <!-- y -->
    <g transform="translate(184.5 138.098437) scale(0.1 -0.1)">
     <use xlink:href="#DejaVuSans-79"/>
    </g>
   </g>
   <g id="text_6">
    <!-- y -->
    <g transform="translate(256.5 138.098437) scale(0.1 -0.1)">
     <use xlink:href="#DejaVuSans-79"/>
    </g>
   </g>
   <g id="text_7">
    <!-- y -->
    <g transform="translate(148.5 210.098437) scale(0.1 -0.1)">
     <use xlink:href="#DejaVuSans-79"/>
    </g>
   </g>
   <g id="text_8">
    <!-- y -->
    <g transform="translate(220.5 210.098437) scale(0.1 -0.1)">
     <use xlink:href="#DejaVuSans-79"/>
    </g>
   </g>
   <g id="text_9">
    <!-- f -->
    <g transform="translate(178.239844 110.759375) scale(0.1 -0.1)">
     <defs>
      <path id="DejaVuSans-66" d="M 2375 4863 
L 2375 4384 
L 1825 4384 
Q 1516 4384 1395 4259 
Q 1275 4134 1275 3809 
L 1275 3500 
L 2222 3500 
L 2222 3053 
L 1275 3053 
L 1275 0 
L 697 0 
L 697 3053 
L 147 3053 
L 147 3500 
L 697 3500 
L 697 3744 
Q 697 4328 969 4595 
Q 1241 4863 1831 4863 
L 2375 4863 
z
" transform="scale(0.015625)"/>
     </defs>
     <use xlink:href="#DejaVuSans-66"/>
    </g>
   </g>
  </g>
 </g>
 <defs>
  <clipPath id="pd7ae8d8837">
   <rect x="0" y="0" width="360" height="216"/>
  </clipPath>
 </defs>
</svg>
