<?xml version="1.0" encoding="utf-8" standalone="no"?>
<!DOCTYPE svg PUBLIC "-//W3C//DTD SVG 1.1//EN"
  "http://www.w3.org/Graphics/SVG/1.1/DTD/svg11.dtd">
<svg xmlns:xlink="http://www.w3.org/1999/xlink" width="360pt" height="504pt" viewBox="0 0 360 504" xmlns="http://www.w3.org/2000/svg" version="1.1">
 <metadata>
  <rdf:RDF xmlns:dc="http://purl.org/dc/elements/1.1/" xmlns:cc="http://creativecommons.org/ns#" xmlns:rdf="http://www.w3.org/1999/02/22-rdf-syntax-ns#">
   <cc:Work>
    <dc:type rdf:resource="http://purl.org/dc/dcmitype/StillImage"/>
    <dc:format>image/svg+xml</dc:format>
    <dc:creator>
     <cc:Agent>
      <dc:title>Matplotlib v3.10.9, https://matplotlib.org/</dc:title>
     </cc:Agent>
    </dc:creator>
   </cc:Work>
  </rdf:RDF>
 </metadata>
 <defs>
  <style type="text/css">*{stroke-linejoin: round; stroke-linecap: butt}</style>
 </defs>
 <g id="figure_1">
  <g id="patch_1">
   <path d="M 0 504 
L 360 504 
L 360 0 
L 0 0 
z
" style="fill: #ffffff"/>
  </g>
  <g id="axes_1">
   <g id="patch_2">
    <path d="M 0 504 
L 360 504 
L 360 0 
L 0 0 
z
" clip-path="url(#p01e0ca5f4c)" style="fill: #ffffff; stroke: #ffffff; stroke-linejoin: miter"/>
   </g>
   <g id="patch_3">
    <path d="M 0 504 
Q 0 0 0 0 
L 360 0 
L 360 504 
z
" clip-path="url(#p01e0ca5f4c)" style="fill: #ffffff"/>
   </g>
   <g id="patch_4">
    <path d="M 18 18 
Q 18 486 18 486 
L 360 486 
L 360 18 
z
" clip-path="url(#p01e0ca5f4c)" style="fill: #d3d3d3"/>
   </g>
   <g id="patch_5">
    <path d="M 36 18 
Q 18 18 18 18 
L 360 18 
L 360 18 
z
" clip-path="url(#p01e0ca5f4c)" style="fill: #d3d3d3"/>
   </g>
   <g id="patch_6">
    <path d="M 54 54 
Q 54 162 54 162 
L 360 162 
L 360 54 
z
" clip-path="url(#p01e0ca5f4c)" style="fill: #ffffff"/>
   </g>
   <g id="patch_7">
    <path d="M 54 198 
Q 54 306 54 306 
L 360 306 
L 360 198 
z
" clip-path="url(#p01e0ca5f4c)" style="fill: #ffffff"/>
   </g>
   <g id="patch_8">
    <path d="M 54 342 
Q 54 450 54 450 
L 360 450 
L 360 342 
z
" clip-path="url(#p01e0ca5f4c)" style="fill: #ffffff"/>
   </g>
   <g id="patch_9">
    <path d="M 18 486 
Q 18 486 180 486 
L 360 486 
L 360 486 
z
" clip-path="url(#p01e0ca5f4c)" style="fill: #d3d3d3"/>
   </g>
   <g id="patch_10">
    <path d="M 108 126 
Q 108 162 108 162 
L 360 162 
L 360 126 
z
" clip-path="url(#p01e0ca5f4c)" style="fill: #ffffff"/>
   </g>
   <g id="patch_11">
    <path d="M 180 54 
Q 54 54 54 54 
L 360 54 
L 360 54 
z
" clip-path="url(#p01e0ca5f4c)" style="fill: #ffffff"/>
   </g>
   <g id="patch_12">
    <path d="M 54 162 
Q 54 162 180 162 
L 360 162 
L 360 162 
z
" clip-path="url(#p01e0ca5f4c)" style="fill: #ffffff"/>
   </g>
   <g id="patch_13">
    <path d="M 180 198 
Q 54 198 54 198 
L 360 198 
L 360 198 
z
" clip-path="url(#p01e0ca5f4c)" style="fill: #ffffff"/>
   </g>
   <g id="patch_14">
    <path d="M 54 306 
Q 54 306 180 306 
L 360 306 
L 360 306 
z
" clip-path="url(#p01e0ca5f4c)" style="fill: #ffffff"/>
   </g>
   <g id="patch_15">
    <path d="M 180 342 
Q 54 342 54 342 
L 360 342 
L 360 342 
z
" clip-path="url(#p01e0ca5f4c)" style="fill: #ffffff"/>
   </g>
   <g id="patch_16">
    <path d="M 54 450 
Q 54 450 180 450 
L 360 450 
L 360 450 
z
" clip-path="url(#p01e0ca5f4c)" style="fill: #ffffff"/>
   </g>
   <g id="patch_17">
    <path d="M 144 270 
Q 144 306 144 306 
L 360 306 
L 360 270 
z
" clip-path="url(#p01e0ca5f4c)" style="fill: #ffffff"/>
   </g>
   <g id="patch_18">
    <path d="M 144 486 
Q 144 504 144 504 
L 360 504 
L 360 486 
z
" clip-path="url(#p01e0ca5f4c)" style="fill: #ffffff"/>
   </g>
   <g id="patch_19">
    <path d="M 180 0 
Q 180 18 180 18 
L 360 18 
L 360 0 
z
" clip-path="url(#p01e0ca5f4c)" style="fill: #ffffff"/>
   </g>
   <g id="patch_20">
    <path d="M 180 54 
Q 180 90 180 90 
L 360 90 
L 360 54 
z
" clip-path="url(#p01e0ca5f4c)" style="fill: #ffffff"/>
   </g>
   <g id="patch_21">
    <path d="M 180 126 
Q 180 162 180 162 
L 360 162 
L 360 126 
z
" clip-path="url(#p01e0ca5f4c)" style="fill: #ffffff"/>
   </g>
   <g id="patch_22">
    <path d="M 180 198 
Q 180 234 180 234 
L 360 234 
L 360 198 
z
" clip-path="url(#p01e0ca5f4c)" style="fill: #ffffff"/>
   </g>
   <g id="patch_23">
    <path d="M 180 342 
Q 180 378 180 378 
L 360 378 
L 360 342 
z
" clip-path="url(#p01e0ca5f4c)" style="fill: #ffffff"/>
   </g>
   <g id="patch_24">
    <path d="M 180 414 
Q 180 450 180 450 
L 360 450 
L 360 414 
z
" clip-path="url(#p01e0ca5f4c)" style="fill: #ffffff"/>
   </g>
   <g id="patch_25">
    <path d="M 36 18 
Q 342 18 342 18 
L 360 18 
L 360 18 
z
" clip-path="url(#p01e0ca5f4c)" style="fill: #ffffff"/>
   </g>
   <g id="patch_26">
    <path d="M 198 378 
Q 198 414 198 414 
L 360 414 
L 360 378 
z
" clip-path="url(#p01e0ca5f4c)" style="fill: #ffffff"/>
   </g>
   <g id="patch_27">
    <path d="M 216 270 
Q 216 306 216 306 
L 360 306 
L 360 270 
z
" clip-path="url(#p01e0ca5f4c)" style="fill: #ffffff"/>
   </g>
   <g id="patch_28">
    <path d="M 216 486 
Q 216 504 216 504 
L 360 504 
L 360 486 
z
" clip-path="url(#p01e0ca5f4c)" style="fill: #ffffff"/>
   </g>
   <g id="patch_29">
    <path d="M 234 234 
Q 234 270 234 270 
L 360 270 
L 360 234 
z
" clip-path="url(#p01e0ca5f4c)" style="fill: #ffffff"/>
   </g>
   <g id="patch_30">
    <path d="M 180 54 
Q 306 54 306 54 
L 360 54 
L 360 54 
z
" clip-path="url(#p01e0ca5f4c)" style="fill: #d3d3d3"/>
   </g>
   <g id="patch_31">
    <path d="M 306 162 
Q 306 162 180 162 
L 360 162 
L 360 162 
z
" clip-path="url(#p01e0ca5f4c)" style="fill: #d3d3d3"/>
   </g>
   <g id="patch_32">
    <path d="M 180 198 
Q 306 198 306 198 
L 360 198 
L 360 198 
z
" clip-path="url(#p01e0ca5f4c)" style="fill: #d3d3d3"/>
   </g>
   <g id="patch_33">
    <path d="M 306 306 
Q 306 306 180 306 
L 360 306 
L 360 306 
z
" clip-path="url(#p01e0ca5f4c)" style="fill: #d3d3d3"/>
   </g>
   <g id="patch_34">
    <path d="M 180 342 
Q 306 342 306 342 
L 360 342 
L 360 342 
z
" clip-path="url(#p01e0ca5f4c)" style="fill: #d3d3d3"/>
   </g>
   <g id="patch_35">
    <path d="M 306 450 
Q 306 450 180 450 
L 360 450 
L 360 450 
z
" clip-path="url(#p01e0ca5f4c)" style="fill: #d3d3d3"/>
   </g>
   <g id="patch_36">
    <path d="M 252 126 
Q 252 162 252 162 
L 360 162 
L 360 126 
z
" clip-path="url(#p01e0ca5f4c)" style="fill: #ffffff"/>
   </g>
   <g id="patch_37">
    <path d="M 342 486 
Q 342 486 180 486 
L 360 486 
L 360 486 
z
" clip-path="url(#p01e0ca5f4c)" style="fill: #ffffff"/>
   </g>
   <g id="patch_38">
    <path d="M 270 90 
Q 270 126 270 126 
L 360 126 
L 360 90 
z
" clip-path="url(#p01e0ca5f4c)" style="fill: #ffffff"/>
   </g>
   <g id="patch_39">
    <path d="M 306 54 
Q 306 162 306 162 
L 360 162 
L 360 54 
z
" clip-path="url(#p01e0ca5f4c)" style="fill: #d3d3d3"/>
   </g>
   <g id="patch_40">
    <path d="M 306 198 
Q 306 306 306 306 
L 360 306 
L 360 198 
z
" clip-path="url(#p01e0ca5f4c)" style="fill: #d3d3d3"/>
   </g>
   <g id="patch_41">
    <path d="M 306 342 
Q 306 450 306 450 
L 360 450 
L 360 342 
z
" clip-path="url(#p01e0ca5f4c)" style="fill: #d3d3d3"/>
   </g>
   <g id="patch_42">
    <path d="M 342 18 
Q 342 486 342 486 
L 360 486 
L 360 18 
z
" clip-path="url(#p01e0ca5f4c)" style="fill: #ffffff"/>
   </g>
   <g id="patch_43">
    <path d="M 36 18 
Q 18 18 18 18 
" clip-path="url(#p01e0ca5f4c)" style="fill: none"/>
   </g>
   <g id="patch_44">
    <path d="M 36 18 
Q 342 18 342 18 
" clip-path="url(#p01e0ca5f4c)" style="fill: none"/>
   </g>
   <g id="patch_45">
    <path d="M 180 0 
Q 180 18 180 18 
" clip-path="url(#p01e0ca5f4c)" style="fill: none; stroke: #000000; stroke-linejoin: miter"/>
   </g>
   <g id="patch_46">
    <path d="M 18 18 
Q 18 486 18 486 
" clip-path="url(#p01e0ca5f4c)" style="fill: none"/>
   </g>
   <g id="patch_47">
    <path d="M 342 18 
Q 342 486 342 486 
" clip-path="url(#p01e0ca5f4c)" style="fill: none"/>
   </g>
   <g id="patch_48">
    <path d="M 180 54 
Q 54 54 54 54 
" clip-path="url(#p01e0ca5f4c)" style="fill: none"/>
   </g>
   <g id="patch_49">
    <path d="M 180 54 
Q 306 54 306 54 
" clip-path="url(#p01e0ca5f4c)" style="fill: none"/>
   </g>
   <g id="patch_50">
    <path d="M 54 54 
Q 54 162 54 162 
" clip-path="url(#p01e0ca5f4c)" style="fill: none"/>
   </g>
   <g id="patch_51">
    <path d="M 180 54 
Q 180 90 180 90 
" clip-path="url(#p01e0ca5f4c)" style="fill: none; stroke: #000000; stroke-linejoin: miter"/>
   </g>
   <g id="patch_52">
    <path d="M 306 54 
Q 306 162 306 162 
" clip-path="url(#p01e0ca5f4c)" style="fill: none"/>
   </g>
   <g id="patch_53">
    <path d="M 108 126 
Q 108 162 108 162 
" clip-path="url(#p01e0ca5f4c)" style="fill: none; stroke: #000000; stroke-linejoin: miter"/>
   </g>
   <g id="patch_54">
    <path d="M 180 126 
Q 180 162 180 162 
" clip-path="url(#p01e0ca5f4c)" style="fill: none; stroke: #000000; stroke-linejoin: miter"/>
   </g>
   <g id="patch_55">
    <path d="M 252 126 
Q 252 162 252 162 
" clip-path="url(#p01e0ca5f4c)" style="fill: none; stroke: #000000; stroke-linejoin: miter"/>
   </g>
   <g id="patch_56">
    <path d="M 54 162 
Q 54 162 180 162 
" clip-path="url(#p01e0ca5f4c)" style="fill: none"/>
   </g>
   <g id="patch_57">
    <path d="M 306 162 
Q 306 162 180 162 
" clip-path="url(#p01e0ca5f4c)" style="fill: none"/>
   </g>
   <g id="patch_58">
    <path d="M 180 198 
Q 54 198 54 198 
" clip-path="url(#p01e0ca5f4c)" style="fill: none"/>
   </g>
   <g id="patch_59">
    <path d="M 180 198 
Q 306 198 306 198 
" clip-path="url(#p01e0ca5f4c)" style="fill: none"/>
   </g>
   <g id="patch_60">
    <path d="M 54 198 
Q 54 306 54 306 
" clip-path="url(#p01e0ca5f4c)" style="fill: none"/>
   </g>
   <g id="patch_61">
    <path d="M 180 198 
Q 180 234 180 234 
" clip-path="url(#p01e0ca5f4c)" style="fill: none; stroke: #000000; stroke-linejoin: miter"/>
   </g>
   <g id="patch_62">
    <path d="M 306 198 
Q 306 306 306 306 
" clip-path="url(#p01e0ca5f4c)" style="fill: none"/>
   </g>
   <g id="patch_63">
    <path d="M 144 270 
Q 144 306 144 306 
" clip-path="url(#p01e0ca5f4c)" style="fill: none; stroke: #000000; stroke-linejoin: miter"/>
   </g>
   <g id="patch_64">
    <path d="M 216 270 
Q 216 306 216 306 
" clip-path="url(#p01e0ca5f4c)" style="fill: none; stroke: #000000; stroke-linejoin: miter"/>
   </g>
   <g id="patch_65">
    <path d="M 54 306 
Q 54 306 180 306 
" clip-path="url(#p01e0ca5f4c)" style="fill: none"/>
   </g>
   <g id="patch_66">
    <path d="M 306 306 
Q 306 306 180 306 
" clip-path="url(#p01e0ca5f4c)" style="fill: none"/>
   </g>
   <g id="patch_67">
    <path d="M 180 342 
Q 54 342 54 342 
" clip-path="url(#p01e0ca5f4c)" style="fill: none"/>
   </g>
   <g id="patch_68">
    <path d="M 180 342 
Q 306 342 306 342 
" clip-path="url(#p01e0ca5f4c)" style="fill: none"/>
   </g>
   <g id="patch_69">
    <path d="M 54 342 
Q 54 450 54 450 
" clip-path="url(#p01e0ca5f4c)" style="fill: none"/>
   </g>
   <g id="patch_70">
    <path d="M 180 342 
Q 180 378 180 378 
" clip-path="url(#p01e0ca5f4c)" style="fill: none; stroke: #000000; stroke-linejoin: miter"/>
   </g>
   <g id="patch_71">
    <path d="M 306 342 
Q 306 450 306 450 
" clip-path="url(#p01e0ca5f4c)" style="fill: none"/>
   </g>
   <g id="patch_72">
    <path d="M 180 414 
Q 180 450 180 450 
" clip-path="url(#p01e0ca5f4c)" style="fill: none; stroke: #000000; stroke-linejoin: miter"/>
   </g>
   <g id="patch_73">
    <path d="M 54 450 
Q 54 450 180 450 
" clip-path="url(#p01e0ca5f4c)" style="fill: none"/>
   </g>
   <g id="patch_74">
    <path d="M 306 450 
Q 306 450 180 450 
" clip-path="url(#p01e0ca5f4c)" style="fill: none"/>
   </g>
   <g id="patch_75">
    <path d="M 18 486 
Q 18 486 180 486 
" clip-path="url(#p01e0ca5f4c)" style="fill: none"/>
   </g>
   <g id="patch_76">
    <path d="M 342 486 
Q 342 486 180 486 
" clip-path="url(#p01e0ca5f4c)" style="fill: none"/>
   </g>
   <g id="patch_77">
    <path d="M 144 486 
Q 144 504 144 504 
" clip-path="url(#p01e0ca5f4c)" style="fill: none; stroke: #000000; stroke-linejoin: miter"/>
   </g>
   <g id="patch_78">
    <path d="M 216 486 
Q 216 504 216 504 
" clip-path="url(#p01e0ca5f4c)" style="fill: none; stroke: #000000; stroke-linejoin: miter"/>
   </g>
   <g id="patch_79">
    <path d="M 90 126 
L 90 90 
L 270 90 
L 270 126 
z
" clip-path="url(#p01e0ca5f4c)" style="fill: #ffffff; stroke: #000000; stroke-linejoin: miter"/>
   </g>
   <g id="patch_80">
    <path d="M 126 270 
L 126 234 
L 234 234 
L 234 270 
z
" clip-path="url(#p01e0ca5f4c)" style="fill: #ffffff; stroke: #000000; stroke-linejoin: miter"/>
   </g>
   <g id="patch_81">
    <path d="M 162 414 
L 162 378 
L 198 378 
L 198 414 
z
" clip-path="url(#p01e0ca5f4c)" style="fill: #ffffff; stroke: #000000; stroke-linejoin: miter"/>
   </g>
   <g id="text_1">
    <!-- x -->
    <g transform="translate(184.5 12.098437) scale(0.1 -0.1)">
     <defs>
      <path id="DejaVuSans-78" d="M 3513 3500 
L 2247 1797 
L 3578 0 
L 2900 0 
L 1881 1375 
L 863 0 
L 184 0 
L 1544 1831 
L 300 3500 
L 978 3500 
L 1906 2253 
L 2834 3500 
L 3513 3500 
z
" transform="scale(0.015625)"/>
     </defs>
     <use xlink:href="#DejaVuSans-78"/>
    </g>
   </g>
   <g id="text_2">
    <!-- x -->
    <g transform="translate(184.5 66.098437) scale(0.1 -0.1)">
     <use xlink:href="#DejaVuSans-78"/>
    </g>
   </g>
   <g id="text_3">
    <!-- y -->
    <g transform="translate(112.5 138.098437) scale(0.1 -0.1)">
     <defs>
      <path id="DejaVuSans-79" d="M 2059 -325 
Q 1816 -950 1584 -1140 
Q 1353 -1331 966 -1331 
L 506 -1331 
L 506 -850 
L 844 -850 
Q 1081 -850 1212 -737 
Q 1344 -625 1503 -206 
L 1606 56 
L 191 3500 
L 800 3500 
L 1894 763 
L 2988 3500 
L 3597 3500 
L 2059 -325 
z
" transform="scale(0.015625)"/>
     </defs>
     <use xlink:href="#DejaVuSans-79"/>
    </g>
   </g>
   <g id="text_4">
    <!-- y -->
    <g transform="translate(184.5 138.098437) scale(0.1 -0.1)">
     <use xlink:href="#DejaVuSans-79"/>
    </g>
   </g>
   <g id="text_5">
    <!-- y -->
    <g transform="translate(256.5 138.098437) scale(0.1 -0.1)">
     <use xlink:href="#DejaVuSans-79"/>
    </g>
   </g>
   <g id="text_6">
    <!-- y -->
    <g transform="translate(184.5 210.098437) scale(0.1 -0.1)">
     <use xlink:href="#DejaVuSans-79"/>
    </g>
   </g>
   <g id="text_7">
    <!-- y -->
    <g transform="translate(148.5 282.098437) scale(0.1 -0.1)">
     <use xlink:href="#DejaVuSans-79"/>
    </g>
   </g>
   <g id="text_8">
    <!-- y -->
    <g transform="translate(220.5 282.098437) scale(0.1 -0.1)">
     <use xlink:href="#DejaVuSans-79"/>
    </g>
   </g>
   <g id="text_9">
    <!-- x -->
    <g transform="translate(184.5 354.098437) scale(0.1 -0.1)">
     <use xlink:href="#DejaVuSans-78"/>
    </g>
   </g>
   <g id="text_10">
    <!-- y -->
    <g transform="translate(184.5 426.098437) scale(0.1 -0.1)">
     <use xlink:href="#DejaVuSans-79"/>
    </g>
   </g>
   <g id="text_11">
    <!-- y -->
    <g transform="translate(148.5 498.098437) scale(0.1 -0.1)">
     <use xlink:href="#DejaVuSans-79"/>
    </g>
   </g>
   <g id="text_12">
    <!-- y -->
    <g transform="translate(220.5 498.098437) scale(0.1 -0.1)">
     <use xlink:href="#DejaVuSans-79"/>
    </g>
   </g>
   <g id="text_13">
    <!-- f -->
    <g transform="translate(178.239844 110.759375) scale(0.1 -0.1)">
     <defs>
      <path id="DejaVuSans-66" d="M 2375 4863 
L 2375 4384 
L 1825 4384 
Q 1516 4384 1395 4259 
Q 1275 4134 1275 3809 
L 1275 3500 
L 2222 3500 
L 2222 3053 
L 1275 3053 
L 1275 0 
L 697 0 
L 697 3053 
L 147 3053 
L 147 3500 
L 697 3500 
L 697 3744 
Q 697 4328 969 4595 
Q 1241 4863 1831 4863 
L 2375 4863 
z
" transform="scale(0.015625)"/>
     </defs>
     <use xlink:href="#DejaVuSans-66"/>
    </g>
   </g>
   <g id="text_14">
    <!-- g -->
    <g transform="translate(176.825781 254.759375) scale(0.1 -0.1)">
     <defs>
      <path id="DejaVuSans-67" d="M 2906 1791 
Q 2906 2416 2648 2759 
Q 2391 3103 1925 3103 
Q 1463 3103 1205 2759 
Q 947 2416 947 1791 
Q 947 1169 1205 825 
Q 1463 481 1925 481 
Q 2391 481 2648 825 
Q 2906 1169 2906 1791 
z
M 3481 434 
Q 3481 -459 3084 -895 
Q 2688 -1331 1869 -1331 
Q 1566 -1331 1297 -1286 
Q 1028 -1241 775 -1147 
L 775 -588 
Q 1028 -725 1275 -790 
Q 1522 -856 1778 -856 
Q 2344 -856 2625 -561 
Q 2906 -266 2906 331 
L 2906 616 
Q 2728 306 2450 153 
Q 2172 0 1784 0 
Q 1141 0 747 490 
Q 353 981 353 1791 
Q 353 2603 747 3093 
Q 1141 3584 1784 3584 
Q 2172 3584 2450 3431 
Q 2728 3278 2906 2969 
L 2906 3500 
L 3481 3500 
L 3481 434 
z
" transform="scale(0.015625)"/>
     </defs>
     <use xlink:href="#DejaVuSans-67"/>
    </g>
   </g>
   <g id="text_15">
    <!-- h -->
    <g transform="translate(176.83125 398.759375) scale(0.1 -0.1)">
     <defs>
      <path id="DejaVuSans-68" d="M 3513 2113 
L 3513 0 
L 2938 0 
L 2938 2094 
Q 2938 2591 2744 2837 
Q 2550 3084 2163 3084 
Q 1697 3084 1428 2787 
Q 1159 2491 1159 1978 
L 1159 0 
L 581 0 
L 581 4863 
L 1159 4863 
L 1159 2956 
Q 1366 3272 1645 3428 
Q 1925 3584 2291 3584 
Q 2894 3584 3203 3211 
Q 3513 2838 3513 2113 
z
" transform="scale(0.015625)"/>
     </defs>
     <use xlink:href="#DejaVuSans-68"/>
    </g>
   </g>
  </g>
 </g>
 <defs>
  <clipPath id="p01e0ca5f4c">
   <rect x="0" y="0" width="360" height="504"/>
  </clipPath>
 </defs>
</svg>
