<?xml version="1.0" encoding="utf-8" standalone="no"?>
<!DOCTYPE svg PUBLIC "-//W3C//DTD SVG 1.1//EN"
  "http://www.w3.org/Graphics/SVG/1.1/DTD/svg11.dtd">
<svg xmlns:xlink="http://www.w3.org/1999/xlink" width="360pt" height="648pt" viewBox="0 0 360 648" xmlns="http://www.w3.org/2000/svg" version="1.1">
 <defs>
  <style type="text/css">*{stroke-linejoin: round; stroke-linecap: butt}</style>
 </defs>
 <g id="figure_1">
  <g id="patch_1">
   <path d="M 0 648 
L 360 648 
L 360 0 
L 0 0 
z
" style="fill: #ffffff"/>
  </g>
  <g id="axes_1">
   <g id="patch_2">
    <path d="M 0 648 
L 360 648 
L 360 0 
L 0 0 
z
" clip-path="url(#p46509fd869)" style="fill: #ffffff; stroke: #ffffff; stroke-linejoin: miter"/>
   </g>
   <g id="patch_3">
    <path d="M 0 648 
Q 0 0 0 0 
L 360 0 
L 360 648 
z
" clip-path="url(#p46509fd869)" style="fill: #ffffff"/>
   </g>
   <g id="patch_4">
    <path d="M 18 36 
Q 18 612 18 612 
L 360 612 
L 360 36 
z
" clip-path="url(#p46509fd869)" style="fill: #d3d3d3"/>
   </g>
   <g id="patch_5">
    <path d="M 36 36 
Q 18 36 18 36 
L 360 36 
L 360 36 
z
" clip-path="url(#p46509fd869)" style="fill: #d3d3d3"/>
   </g>
   <g id="patch_6">
    <path d="M 54 90 
Q 54 198 54 198 
L 360 198 
L 360 90 
z
" clip-path="url(#p46509fd869)" style="fill: #ffffff"/>
   </g>
   <g id="patch_7">
    <path d="M 54 270 
Q 54 378 54 378 
L 360 378 
L 360 270 
z
" clip-path="url(#p46509fd869)" style="fill: #ffffff"/>
   </g>
   <g id="patch_8">
    <path d="M 54 450 
Q 54 558 54 558 
L 360 558 
L 360 450 
z
" clip-path="url(#p46509fd869)" style="fill: #ffffff"/>
   </g>
   <g id="patch_9">
    <path d="M 18 612 
Q 18 612 180 612 
L 360 612 
L 360 612 
z
" clip-path="url(#p46509fd869)" style="fill: #d3d3d3"/>
   </g>
   <g id="patch_10">
    <path d="M 108 162 
Q 108 198 108 198 
L 360 198 
L 360 162 
z
" clip-path="url(#p46509fd869)" style="fill: #ffffff"/>
   </g>
   <g id="patch_11">
    <path d="M 180 90 
Q 54 90 54 90 
L 360 90 
L 360 90 
z
" clip-path="url(#p46509fd869)" style="fill: #ffffff"/>
   </g>
   <g id="patch_12">
    <path d="M 54 198 
Q 54 198 180 198 
L 360 198 
L 360 198 
z
" clip-path="url(#p46509fd869)" style="fill: #ffffff"/>
   </g>
   <g id="patch_13">
    <path d="M 180 270 
Q 54 270 54 270 
L 360 270 
L 360 270 
z
" clip-path="url(#p46509fd869)" style="fill: #ffffff"/>
   </g>
   <g id="patch_14">
    <path d="M 54 378 
Q 54 378 180 378 
L 360 378 
L 360 378 
z
" clip-path="url(#p46509fd869)" style="fill: #ffffff"/>
   </g>
   <g id="patch_15">
    <path d="M 180 450 
Q 54 450 54 450 
L 360 450 
L 360 450 
z
" clip-path="url(#p46509fd869)" style="fill: #ffffff"/>
   </g>
   <g id="patch_16">
    <path d="M 54 558 
Q 54 558 180 558 
L 360 558 
L 360 558 
z
" clip-path="url(#p46509fd869)" style="fill: #ffffff"/>
   </g>
   <g id="patch_17">
    <path d="M 144 342 
Q 144 378 144 378 
L 360 378 
L 360 342 
z
" clip-path="url(#p46509fd869)" style="fill: #ffffff"/>
   </g>
   <g id="patch_18">
    <path d="M 144 612 
Q 144 648 144 648 
L 360 648 
L 360 612 
z
" clip-path="url(#p46509fd869)" style="fill: #ffffff"/>
   </g>
   <g id="patch_19">
    <path d="M 180 0 
Q 180 36 180 36 
L 360 36 
L 360 0 
z
" clip-path="url(#p46509fd869)" style="fill: #ffffff"/>
   </g>
   <g id="patch_20">
    <path d="M 180 90 
Q 180 126 180 126 
L 360 126 
L 360 90 
z
" clip-path="url(#p46509fd869)" style="fill: #ffffff"/>
   </g>
   <g id="patch_21">
    <path d="M 180 162 
Q 180 198 180 198 
L 360 198 
L 360 162 
z
" clip-path="url(#p46509fd869)" style="fill: #ffffff"/>
   </g>
   <g id="patch_22">
    <path d="M 180 270 
Q 180 306 180 306 
L 360 306 
L 360 270 
z
" clip-path="url(#p46509fd869)" style="fill: #ffffff"/>
   </g>
   <g id="patch_23">
    <path d="M 180 450 
Q 180 486 180 486 
L 360 486 
L 360 450 
z
" clip-path="url(#p46509fd869)" style="fill: #ffffff"/>
   </g>
   <g id="patch_24">
    <path d="M 180 522 
Q 180 558 180 558 
L 360 558 
L 360 522 
z
" clip-path="url(#p46509fd869)" style="fill: #ffffff"/>
   </g>
   <g id="patch_25">
    <path d="M 36 36 
Q 342 36 342 36 
L 360 36 
L 360 36 
z
" clip-path="url(#p46509fd869)" style="fill: #ffffff"/>
   </g>
   <g id="patch_26">
    <path d="M 198 486 
Q 198 522 198 522 
L 360 522 
L 360 486 
z
" clip-path="url(#p46509fd869)" style="fill: #ffffff"/>
   </g>
   <g id="patch_27">
    <path d="M 216 342 
Q 216 378 216 378 
L 360 378 
L 360 342 
z
" clip-path="url(#p46509fd869)" style="fill: #ffffff"/>
   </g>
   <g id="patch_28">
    <path d="M 216 612 
Q 216 648 216 648 
L 360 648 
L 360 612 
z
" clip-path="url(#p46509fd869)" style="fill: #ffffff"/>
   </g>
   <g id="patch_29">
    <path d="M 234 306 
Q 234 342 234 342 
L 360 342 
L 360 306 
z
" clip-path="url(#p46509fd869)" style="fill: #ffffff"/>
   </g>
   <g id="patch_30">
    <path d="M 180 90 
Q 306 90 306 90 
L 360 90 
L 360 90 
z
" clip-path="url(#p46509fd869)" style="fill: #d3d3d3"/>
   </g>
   <g id="patch_31">
    <path d="M 306 198 
Q 306 198 180 198 
L 360 198 
L 360 198 
z
" clip-path="url(#p46509fd869)" style="fill: #d3d3d3"/>
   </g>
   <g id="patch_32">
    <path d="M 180 270 
Q 306 270 306 270 
L 360 270 
L 360 270 
z
" clip-path="url(#p46509fd869)" style="fill: #d3d3d3"/>
   </g>
   <g id="patch_33">
    <path d="M 306 378 
Q 306 378 180 378 
L 360 378 
L 360 378 
z
" clip-path="url(#p46509fd869)" style="fill: #d3d3d3"/>
   </g>
   <g id="patch_34">
    <path d="M 180 450 
Q 306 450 306 450 
L 360 450 
L 360 450 
z
" clip-path="url(#p46509fd869)" style="fill: #d3d3d3"/>
   </g>
   <g id="patch_35">
    <path d="M 306 558 
Q 306 558 180 558 
L 360 558 
L 360 558 
z
" clip-path="url(#p46509fd869)" style="fill: #d3d3d3"/>
   </g>
   <g id="patch_36">
    <path d="M 252 162 
Q 252 198 252 198 
L 360 198 
L 360 162 
z
" clip-path="url(#p46509fd869)" style="fill: #ffffff"/>
   </g>
   <g id="patch_37">
    <path d="M 342 612 
Q 342 612 180 612 
L 360 612 
L 360 612 
z
" clip-path="url(#p46509fd869)" style="fill: #ffffff"/>
   </g>
   <g id="patch_38">
    <path d="M 270 126 
Q 270 162 270 162 
L 360 162 
L 360 126 
z
" clip-path="url(#p46509fd869)" style="fill: #ffffff"/>
   </g>
   <g id="patch_39">
    <path d="M 306 90 
Q 306 198 306 198 
L 360 198 
L 360 90 
z
" clip-path="url(#p46509fd869)" style="fill: #d3d3d3"/>
   </g>
   <g id="patch_40">
    <path d="M 306 270 
Q 306 378 306 378 
L 360 378 
L 360 270 
z
" clip-path="url(#p46509fd869)" style="fill: #d3d3d3"/>
   </g>
   <g id="patch_41">
    <path d="M 306 450 
Q 306 558 306 558 
L 360 558 
L 360 450 
z
" clip-path="url(#p46509fd869)" style="fill: #d3d3d3"/>
   </g>
   <g id="patch_42">
    <path d="M 342 36 
Q 342 612 342 612 
L 360 612 
L 360 36 
z
" clip-path="url(#p46509fd869)" style="fill: #ffffff"/>
   </g>
   <g id="patch_43">
    <path d="M 36 36 
Q 18 36 18 36 
" clip-path="url(#p46509fd869)" style="fill: none"/>
   </g>
   <g id="patch_44">
    <path d="M 36 36 
Q 342 36 342 36 
" clip-path="url(#p46509fd869)" style="fill: none"/>
   </g>
   <g id="patch_45">
    <path d="M 180 0 
Q 180 36 180 36 
" clip-path="url(#p46509fd869)" style="fill: none; stroke: #000000; stroke-linejoin: miter"/>
   </g>
   <g id="patch_46">
    <path d="M 18 36 
Q 18 612 18 612 
" clip-path="url(#p46509fd869)" style="fill: none"/>
   </g>
   <g id="patch_47">
    <path d="M 342 36 
Q 342 612 342 612 
" clip-path="url(#p46509fd869)" style="fill: none"/>
   </g>
   <g id="patch_48">
    <path d="M 180 90 
Q 54 90 54 90 
" clip-path="url(#p46509fd869)" style="fill: none"/>
   </g>
   <g id="patch_49">
    <path d="M 180 90 
Q 306 90 306 90 
" clip-path="url(#p46509fd869)" style="fill: none"/>
   </g>
   <g id="patch_50">
    <path d="M 54 90 
Q 54 198 54 198 
" clip-path="url(#p46509fd869)" style="fill: none"/>
   </g>
   <g id="patch_51">
    <path d="M 180 90 
Q 180 126 180 126 
" clip-path="url(#p46509fd869)" style="fill: none; stroke: #000000; stroke-linejoin: miter"/>
   </g>
   <g id="patch_52">
    <path d="M 306 90 
Q 306 198 306 198 
" clip-path="url(#p46509fd869)" style="fill: none"/>
   </g>
   <g id="patch_53">
    <path d="M 108 162 
Q 108 198 108 198 
" clip-path="url(#p46509fd869)" style="fill: none; stroke: #000000; stroke-linejoin: miter"/>
   </g>
   <g id="patch_54">
    <path d="M 180 162 
Q 180 198 180 198 
" clip-path="url(#p46509fd869)" style="fill: none; stroke: #000000; stroke-linejoin: miter"/>
   </g>
   <g id="patch_55">
    <path d="M 252 162 
Q 252 198 252 198 
" clip-path="url(#p46509fd869)" style="fill: none; stroke: #000000; stroke-linejoin: miter"/>
   </g>
   <g id="patch_56">
    <path d="M 54 198 
Q 54 198 180 198 
" clip-path="url(#p46509fd869)" style="fill: none"/>
   </g>
   <g id="patch_57">
    <path d="M 306 198 
Q 306 198 180 198 
" clip-path="url(#p46509fd869)" style="fill: none"/>
   </g>
   <g id="patch_58">
    <path d="M 180 270 
Q 54 270 54 270 
" clip-path="url(#p46509fd869)" style="fill: none"/>
   </g>
   <g id="patch_59">
    <path d="M 180 270 
Q 306 270 306 270 
" clip-path="url(#p46509fd869)" style="fill: none"/>
   </g>
   <g id="patch_60">
    <path d="M 54 270 
Q 54 378 54 378 
" clip-path="url(#p46509fd869)" style="fill: none"/>
   </g>
   <g id="patch_61">
    <path d="M 180 270 
Q 180 306 180 306 
" clip-path="url(#p46509fd869)" style="fill: none; stroke: #000000; stroke-linejoin: miter"/>
   </g>
   <g id="patch_62">
    <path d="M 306 270 
Q 306 378 306 378 
" clip-path="url(#p46509fd869)" style="fill: none"/>
   </g>
   <g id="patch_63">
    <path d="M 144 342 
Q 144 378 144 378 
" clip-path="url(#p46509fd869)" style="fill: none; stroke: #000000; stroke-linejoin: miter"/>
   </g>
   <g id="patch_64">
    <path d="M 216 342 
Q 216 378 216 378 
" clip-path="url(#p46509fd869)" style="fill: none; stroke: #000000; stroke-linejoin: miter"/>
   </g>
   <g id="patch_65">
    <path d="M 54 378 
Q 54 378 180 378 
" clip-path="url(#p46509fd869)" style="fill: none"/>
   </g>
   <g id="patch_66">
    <path d="M 306 378 
Q 306 378 180 378 
" clip-path="url(#p46509fd869)" style="fill: none"/>
   </g>
   <g id="patch_67">
    <path d="M 180 450 
Q 54 450 54 450 
" clip-path="url(#p46509fd869)" style="fill: none"/>
   </g>
   <g id="patch_68">
    <path d="M 180 450 
Q 306 450 306 450 
" clip-path="url(#p46509fd869)" style="fill: none"/>
   </g>
   <g id="patch_69">
    <path d="M 54 450 
Q 54 558 54 558 
" clip-path="url(#p46509fd869)" style="fill: none"/>
   </g>
   <g id="patch_70">
    <path d="M 180 450 
Q 180 486 180 486 
" clip-path="url(#p46509fd869)" style="fill: none; stroke: #000000; stroke-linejoin: miter"/>
   </g>
   <g id="patch_71">
    <path d="M 306 450 
Q 306 558 306 558 
" clip-path="url(#p46509fd869)" style="fill: none"/>
   </g>
   <g id="patch_72">
    <path d="M 180 522 
Q 180 558 180 558 
" clip-path="url(#p46509fd869)" style="fill: none; stroke: #000000; stroke-linejoin: miter"/>
   </g>
   <g id="patch_73">
    <path d="M 54 558 
Q 54 558 180 558 
" clip-path="url(#p46509fd869)" style="fill: none"/>
   </g>
   <g id="patch_74">
    <path d="M 306 558 
Q 306 558 180 558 
" clip-path="url(#p46509fd869)" style="fill: none"/>
   </g>
   <g id="patch_75">
    <path d="M 18 612 
Q 18 612 180 612 
" clip-path="url(#p46509fd869)" style="fill: none"/>
   </g>
   <g id="patch_76">
    <path d="M 342 612 
Q 342 612 180 612 
" clip-path="url(#p46509fd869)" style="fill: none"/>
   </g>
   <g id="patch_77">
    <path d="M 144 612 
Q 144 648 144 648 
" clip-path="url(#p46509fd869)" style="fill: none; stroke: #000000; stroke-linejoin: miter"/>
   </g>
   <g id="patch_78">
    <path d="M 216 612 
Q 216 648 216 648 
" clip-path="url(#p46509fd869)" style="fill: none; stroke: #000000; stroke-linejoin: miter"/>
   </g>
   <g id="patch_79">
    <path d="M 90 162 
L 90 126 
L 270 126 
L 270 162 
z
" clip-path="url(#p46509fd869)" style="fill: #ffffff; stroke: #000000; stroke-linejoin: miter"/>
   </g>
   <g id="patch_80">
    <path d="M 126 342 
L 126 306 
L 234 306 
L 234 342 
z
" clip-path="url(#p46509fd869)" style="fill: #ffffff; stroke: #000000; stroke-linejoin: miter"/>
   </g>
   <g id="patch_81">
    <path d="M 162 522 
L 162 486 
L 198 486 
L 198 522 
z
" clip-path="url(#p46509fd869)" style="fill: #ffffff; stroke: #000000; stroke-linejoin: miter"/>
   </g>
   <g id="text_1">
    <!-- x -->
    <g transform="translate(184.5 12.098438) scale(0.1 -0.1)">
     <defs>
      <path id="DejaVuSans-78" d="M 3513 3500 
L 2247 1797 
L 3578 0 
L 2900 0 
L 1881 1375 
L 863 0 
L 184 0 
L 1544 1831 
L 300 3500 
L 978 3500 
L 1906 2253 
L 2834 3500 
L 3513 3500 
z
" transform="scale(0.015625)"/>
     </defs>
     <use xlink:href="#DejaVuSans-78"/>
    </g>
   </g>
   <g id="text_2">
    <!-- x -->
    <g transform="translate(184.5 102.098438) scale(0.1 -0.1)">
     <use xlink:href="#DejaVuSans-78"/>
    </g>
   </g>
   <g id="text_3">
    <!-- y -->
    <g transform="translate(112.5 174.098437) scale(0.1 -0.1)">
     <defs>
      <path id="DejaVuSans-79" d="M 2059 -325 
Q 1816 -950 1584 -1140 
Q 1353 -1331 966 -1331 
L 506 -1331 
L 506 -850 
L 844 -850 
Q 1081 -850 1212 -737 
Q 1344 -625 1503 -206 
L 1606 56 
L 191 3500 
L 800 3500 
L 1894 763 
L 2988 3500 
L 3597 3500 
L 2059 -325 
z
" transform="scale(0.015625)"/>
     </defs>
     <use xlink:href="#DejaVuSans-79"/>
    </g>
   </g>
   <g id="text_4">
    <!-- y -->
    <g transform="translate(184.5 174.098437) scale(0.1 -0.1)">
     <use xlink:href="#DejaVuSans-79"/>
    </g>
   </g>
   <g id="text_5">
    <!-- y -->
    <g transform="translate(256.5 174.098437) scale(0.1 -0.1)">
     <use xlink:href="#DejaVuSans-79"/>
    </g>
   </g>
   <g id="text_6">
    <!-- y -->
    <g transform="translate(184.5 282.098437) scale(0.1 -0.1)">
     <use xlink:href="#DejaVuSans-79"/>
    </g>
   </g>
   <g id="text_7">
    <!-- y -->
    <g transform="translate(148.5 354.098437) scale(0.1 -0.1)">
     <use xlink:href="#DejaVuSans-79"/>
    </g>
   </g>
   <g id="text_8">
    <!-- y -->
    <g transform="translate(220.5 354.098437) scale(0.1 -0.1)">
     <use xlink:href="#DejaVuSans-79"/>
    </g>
   </g>
   <g id="text_9">
    <!-- x -->
    <g transform="translate(184.5 462.098437) scale(0.1 -0.1)">
     <use xlink:href="#DejaVuSans-78"/>
    </g>
   </g>
   <g id="text_10">
    <!-- y -->
    <g transform="translate(184.5 534.098438) scale(0.1 -0.1)">
     <use xlink:href="#DejaVuSans-79"/>
    </g>
   </g>
   <g id="text_11">
    <!-- y -->
    <g transform="translate(148.5 624.098438) scale(0.1 -0.1)">
     <use xlink:href="#DejaVuSans-79"/>
    </g>
   </g>
   <g id="text_12">
    <!-- y -->
    <g transform="translate(220.5 624.098438) scale(0.1 -0.1)">
     <use xlink:href="#DejaVuSans-79"/>
    </g>
   </g>
   <g id="text_13">
    <!-- f -->
    <g transform="translate(178.239844 146.759375) scale(0.1 -0.1)">
     <defs>
      <path id="DejaVuSans-66" d="M 2375 4863 
L 2375 4384 
L 1825 4384 
Q 1516 4384 1395 4259 
Q 1275 4134 1275 3809 
L 1275 3500 
L 2222 3500 
L 2222 3053 
L 1275 3053 
L 1275 0 
L 697 0 
L 697 3053 
L 147 3053 
L 147 3500 
L 697 3500 
L 697 3744 
Q 697 4328 969 4595 
Q 1241 4863 1831 4863 
L 2375 4863 
z
" transform="scale(0.015625)"/>
     </defs>
     <use xlink:href="#DejaVuSans-66"/>
    </g>
   </g>
   <g id="text_14">
    <!-- g -->
    <g transform="translate(176.825781 326.759375) scale(0.1 -0.1)">
     <defs>
      <path id="DejaVuSans-67" d="M 2906 1791 
Q 2906 2416 2648 2759 
Q 2391 3103 1925 3103 
Q 1463 3103 1205 2759 
Q 947 2416 947 1791 
Q 947 1169 1205 825 
Q 1463 481 1925 481 
Q 2391 481 2648 825 
Q 2906 1169 2906 1791 
z
M 3481 434 
Q 3481 -459 3084 -895 
Q 2688 -1331 1869 -1331 
Q 1566 -1331 1297 -1286 
Q 1028 -1241 775 -1147 
L 775 -588 
Q 1028 -725 1275 -790 
Q 1522 -856 1778 -856 
Q 2344 -856 2625 -561 
Q 2906 -266 2906 331 
L 2906 616 
Q 2728 306 2450 153 
Q 2172 0 1784 0 
Q 1141 0 747 490 
Q 353 981 353 1791 
Q 353 2603 747 3093 
Q 1141 3584 1784 3584 
Q 2172 3584 2450 3431 
Q 2728 3278 2906 2969 
L 2906 3500 
L 3481 3500 
L 3481 434 
z
" transform="scale(0.015625)"/>
     </defs>
     <use xlink:href="#DejaVuSans-67"/>
    </g>
   </g>
   <g id="text_15">
    <!-- h -->
    <g transform="translate(176.83125 506.759375) scale(0.1 -0.1)">
     <defs>
      <path id="DejaVuSans-68" d="M 3513 2113 
L 3513 0 
L 2938 0 
L 2938 2094 
Q 2938 2591 2744 2837 
Q 2550 3084 2163 3084 
Q 1697 3084 1428 2787 
Q 1159 2491 1159 1978 
L 1159 0 
L 581 0 
L 581 4863 
L 1159 4863 
L 1159 2956 
Q 1366 3272 1645 3428 
Q 1925 3584 2291 3584 
Q 2894 3584 3203 3211 
Q 3513 2838 3513 2113 
z
" transform="scale(0.015625)"/>
     </defs>
     <use xlink:href="#DejaVuSans-68"/>
    </g>
   </g>
  </g>
 </g>
 <defs>
  <clipPath id="p46509fd869">
   <rect x="0" y="0" width="360" height="648"/>
  </clipPath>
 </defs>
</svg>
