<?xml version="1.0" encoding="utf-8" standalone="no"?>
<!DOCTYPE svg PUBLIC "-//W3C//DTD SVG 1.1//EN"
  "http://www.w3.org/Graphics/SVG/1.1/DTD/svg11.dtd">
<svg xmlns:xlink="http://www.w3.org/1999/xlink" width="432pt" height="216pt" viewBox="0 0 432 216" xmlns="http://www.w3.org/2000/svg" version="1.1">
 <metadata>
  <rdf:RDF xmlns:dc="http://purl.org/dc/elements/1.1/" xmlns:cc="http://creativecommons.org/ns#" xmlns:rdf="http://www.w3.org/1999/02/22-rdf-syntax-ns#">
   <cc:Work>
    <dc:type rdf:resource="http://purl.org/dc/dcmitype/StillImage"/>
    <dc:format>image/svg+xml</dc:format>
    <dc:creator>
     <cc:Agent>
      <dc:title>Matplotlib v3.10.9, https://matplotlib.org/</dc:title>
     </cc:Agent>
    </dc:creator>
   </cc:Work>
  </rdf:RDF>
 </metadata>
 <defs>
  <style type="text/css">*{stroke-linejoin: round; stroke-linecap: butt}</style>
 </defs>
 <g id="figure_1">
  <g id="patch_1">
   <path d="M 0 216 
L 432 216 
L 432 0 
L 0 0 
z
" style="fill: #ffffff"/>
  </g>
  <g id="axes_1">
   <g id="patch_2">
    <path d="M 0 216 
L 432 216 
L 432 0 
L 0 0 
z
" clip-path="url(#p970dbbc4f6)" style="fill: #ffffff; stroke: #ffffff; stroke-linejoin: miter"/>
   </g>
   <g id="patch_3">
    <path d="M 0 216 
Q 0 0 0 0 
L 432 0 
L 432 216 
z
" clip-path="url(#p970dbbc4f6)" style="fill: #ffffff"/>
   </g>
   <g id="patch_4">
    <path d="M 36 0 
Q 36 90 36 90 
L 432 90 
L 432 0 
z
" clip-path="url(#p970dbbc4f6)" style="fill: #ffffff"/>
   </g>
   <g id="patch_5">
    <path d="M 36 126 
Q 36 216 36 216 
L 432 216 
L 432 126 
z
" clip-path="url(#p970dbbc4f6)" style="fill: #ffffff"/>
   </g>
   <g id="patch_6">
    <path d="M 54 0 
Q 54 90 54 90 
L 432 90 
L 432 0 
z
" clip-path="url(#p970dbbc4f6)" style="fill: #ffffff"/>
   </g>
   <g id="patch_7">
    <path d="M 54 126 
Q 54 216 54 216 
L 432 216 
L 432 126 
z
" clip-path="url(#p970dbbc4f6)" style="fill: #ffffff"/>
   </g>
   <g id="patch_8">
    <path d="M 72 90 
Q 72 126 72 126 
L 432 126 
L 432 90 
z
" clip-path="url(#p970dbbc4f6)" style="fill: #ffffff"/>
   </g>
   <g id="patch_9">
    <path d="M 198 54 
Q 198 162 198 162 
L 432 162 
L 432 54 
z
" clip-path="url(#p970dbbc4f6)" style="fill: #ffffff"/>
   </g>
   <g id="patch_10">
    <path d="M 216 54 
Q 216 162 216 162 
L 432 162 
L 432 54 
z
" clip-path="url(#p970dbbc4f6)" style="fill: #ffffff"/>
   </g>
   <g id="patch_11">
    <path d="M 288 54 
Q 288 90 288 90 
L 432 90 
L 432 54 
z
" clip-path="url(#p970dbbc4f6)" style="fill: #ffffff"/>
   </g>
   <g id="patch_12">
    <path d="M 288 126 
Q 288 162 288 162 
L 432 162 
L 432 126 
z
" clip-path="url(#p970dbbc4f6)" style="fill: #ffffff"/>
   </g>
   <g id="patch_13">
    <path d="M 306 54 
Q 306 90 306 90 
L 432 90 
L 432 54 
z
" clip-path="url(#p970dbbc4f6)" style="fill: #ffffff"/>
   </g>
   <g id="patch_14">
    <path d="M 306 126 
Q 306 162 306 162 
L 432 162 
L 432 126 
z
" clip-path="url(#p970dbbc4f6)" style="fill: #ffffff"/>
   </g>
   <g id="patch_15">
    <path d="M 324 18 
Q 324 54 324 54 
L 432 54 
L 432 18 
z
" clip-path="url(#p970dbbc4f6)" style="fill: #ffffff"/>
   </g>
   <g id="patch_16">
    <path d="M 324 162 
Q 324 198 324 198 
L 432 198 
L 432 162 
z
" clip-path="url(#p970dbbc4f6)" style="fill: #ffffff"/>
   </g>
   <g id="patch_17">
    <path d="M 378 0 
Q 378 90 378 90 
L 432 90 
L 432 0 
z
" clip-path="url(#p970dbbc4f6)" style="fill: #ffffff"/>
   </g>
   <g id="patch_18">
    <path d="M 378 126 
Q 378 216 378 216 
L 432 216 
L 432 126 
z
" clip-path="url(#p970dbbc4f6)" style="fill: #ffffff"/>
   </g>
   <g id="patch_19">
    <path d="M 396 0 
Q 396 90 396 90 
L 432 90 
L 432 0 
z
" clip-path="url(#p970dbbc4f6)" style="fill: #ffffff"/>
   </g>
   <g id="patch_20">
    <path d="M 396 126 
Q 396 216 396 216 
L 432 216 
L 432 126 
z
" clip-path="url(#p970dbbc4f6)" style="fill: #ffffff"/>
   </g>
   <g id="patch_21">
    <path d="M 414 90 
Q 414 126 414 126 
L 432 126 
L 432 90 
z
" clip-path="url(#p970dbbc4f6)" style="fill: #ffffff"/>
   </g>
   <g id="patch_22">
    <path d="M 36 0 
Q 36 90 36 90 
" clip-path="url(#p970dbbc4f6)" style="fill: none; stroke: #000000; stroke-linejoin: miter"/>
   </g>
   <g id="patch_23">
    <path d="M 54 0 
Q 54 90 54 90 
" clip-path="url(#p970dbbc4f6)" style="fill: none; stroke: #000000; stroke-linejoin: miter"/>
   </g>
   <g id="patch_24">
    <path d="M 36 126 
Q 36 216 36 216 
" clip-path="url(#p970dbbc4f6)" style="fill: none; stroke: #000000; stroke-linejoin: miter"/>
   </g>
   <g id="patch_25">
    <path d="M 54 126 
Q 54 216 54 216 
" clip-path="url(#p970dbbc4f6)" style="fill: none; stroke: #000000; stroke-linejoin: miter"/>
   </g>
   <g id="patch_26">
    <path d="M 198 54 
Q 198 162 198 162 
" clip-path="url(#p970dbbc4f6)" style="fill: none; stroke: #000000; stroke-linejoin: miter"/>
   </g>
   <g id="patch_27">
    <path d="M 216 54 
Q 216 162 216 162 
" clip-path="url(#p970dbbc4f6)" style="fill: none; stroke: #000000; stroke-linejoin: miter"/>
   </g>
   <g id="patch_28">
    <path d="M 288 54 
Q 288 90 288 90 
" clip-path="url(#p970dbbc4f6)" style="fill: none; stroke: #000000; stroke-linejoin: miter"/>
   </g>
   <g id="patch_29">
    <path d="M 306 54 
Q 306 90 306 90 
" clip-path="url(#p970dbbc4f6)" style="fill: none; stroke: #000000; stroke-linejoin: miter"/>
   </g>
   <g id="patch_30">
    <path d="M 378 0 
Q 378 90 378 90 
" clip-path="url(#p970dbbc4f6)" style="fill: none; stroke: #000000; stroke-linejoin: miter"/>
   </g>
   <g id="patch_31">
    <path d="M 396 0 
Q 396 90 396 90 
" clip-path="url(#p970dbbc4f6)" style="fill: none; stroke: #000000; stroke-linejoin: miter"/>
   </g>
   <g id="patch_32">
    <path d="M 288 126 
Q 288 162 288 162 
" clip-path="url(#p970dbbc4f6)" style="fill: none; stroke: #000000; stroke-linejoin: miter"/>
   </g>
   <g id="patch_33">
    <path d="M 306 126 
Q 306 162 306 162 
" clip-path="url(#p970dbbc4f6)" style="fill: none; stroke: #000000; stroke-linejoin: miter"/>
   </g>
   <g id="patch_34">
    <path d="M 378 126 
Q 378 216 378 216 
" clip-path="url(#p970dbbc4f6)" style="fill: none; stroke: #000000; stroke-linejoin: miter"/>
   </g>
   <g id="patch_35">
    <path d="M 396 126 
Q 396 216 396 216 
" clip-path="url(#p970dbbc4f6)" style="fill: none; stroke: #000000; stroke-linejoin: miter"/>
   </g>
   <g id="patch_36">
    <path d="M 36 90 
C 36 93.15 38.205 95.1975 41.0715 96.91425 
" clip-path="url(#p970dbbc4f6)" style="fill: none; stroke: #000000; stroke-linejoin: miter"/>
   </g>
   <g id="patch_37">
    <path d="M 48.9285 101.08575 
C 51.795 102.8025 54 104.85 54 108 
" clip-path="url(#p970dbbc4f6)" style="fill: none; stroke: #000000; stroke-linejoin: miter"/>
   </g>
   <g id="patch_38">
    <path d="M 54 90 
C 54 99 36 99 36 108 
" clip-path="url(#p970dbbc4f6)" style="fill: none; stroke: #000000; stroke-linejoin: miter"/>
   </g>
   <g id="patch_39">
    <path d="M 54 108 
C 54 111.15 51.795 113.1975 48.9285 114.91425 
" clip-path="url(#p970dbbc4f6)" style="fill: none; stroke: #000000; stroke-linejoin: miter"/>
   </g>
   <g id="patch_40">
    <path d="M 41.0715 119.08575 
C 38.205 120.8025 36 122.85 36 126 
" clip-path="url(#p970dbbc4f6)" style="fill: none; stroke: #000000; stroke-linejoin: miter"/>
   </g>
   <g id="patch_41">
    <path d="M 36 108 
C 36 117 54 117 54 126 
" clip-path="url(#p970dbbc4f6)" style="fill: none; stroke: #000000; stroke-linejoin: miter"/>
   </g>
   <g id="patch_42">
    <path d="M 198 54 
C 198 24.176624 222.176624 0 252 0 
" clip-path="url(#p970dbbc4f6)" style="fill: none; stroke: #000000; stroke-linejoin: miter"/>
   </g>
   <g id="patch_43">
    <path d="M 252 0 
C 281.823376 0 306 24.176624 306 54 
" clip-path="url(#p970dbbc4f6)" style="fill: none; stroke: #000000; stroke-linejoin: miter"/>
   </g>
   <g id="patch_44">
    <path d="M 216 54 
C 216 34.117749 232.117749 18 252 18 
" clip-path="url(#p970dbbc4f6)" style="fill: none; stroke: #000000; stroke-linejoin: miter"/>
   </g>
   <g id="patch_45">
    <path d="M 252 18 
C 271.882251 18 288 34.117749 288 54 
" clip-path="url(#p970dbbc4f6)" style="fill: none; stroke: #000000; stroke-linejoin: miter"/>
   </g>
   <g id="patch_46">
    <path d="M 288 90 
C 288 95.4 296.1 99.18 307.44 102.312 
" clip-path="url(#p970dbbc4f6)" style="fill: none; stroke: #000000; stroke-linejoin: miter"/>
   </g>
   <g id="patch_47">
    <path d="M 358.56 113.688 
C 369.9 116.82 378 120.6 378 126 
" clip-path="url(#p970dbbc4f6)" style="fill: none; stroke: #000000; stroke-linejoin: miter"/>
   </g>
   <g id="patch_48">
    <path d="M 306 90 
C 306 95.4 314.1 99.18 325.44 102.312 
" clip-path="url(#p970dbbc4f6)" style="fill: none; stroke: #000000; stroke-linejoin: miter"/>
   </g>
   <g id="patch_49">
    <path d="M 376.56 113.688 
C 387.9 116.82 396 120.6 396 126 
" clip-path="url(#p970dbbc4f6)" style="fill: none; stroke: #000000; stroke-linejoin: miter"/>
   </g>
   <g id="patch_50">
    <path d="M 378 90 
C 378 108 288 108 288 126 
" clip-path="url(#p970dbbc4f6)" style="fill: none; stroke: #000000; stroke-linejoin: miter"/>
   </g>
   <g id="patch_51">
    <path d="M 396 90 
C 396 108 306 108 306 126 
" clip-path="url(#p970dbbc4f6)" style="fill: none; stroke: #000000; stroke-linejoin: miter"/>
   </g>
   <g id="patch_52">
    <path d="M 198 162 
C 198 191.823376 222.176624 216 252 216 
" clip-path="url(#p970dbbc4f6)" style="fill: none; stroke: #000000; stroke-linejoin: miter"/>
   </g>
   <g id="patch_53">
    <path d="M 252 216 
C 281.823376 216 306 191.823376 306 162 
" clip-path="url(#p970dbbc4f6)" style="fill: none; stroke: #000000; stroke-linejoin: miter"/>
   </g>
   <g id="patch_54">
    <path d="M 216 162 
C 216 181.882251 232.117749 198 252 198 
" clip-path="url(#p970dbbc4f6)" style="fill: none; stroke: #000000; stroke-linejoin: miter"/>
   </g>
   <g id="patch_55">
    <path d="M 252 198 
C 271.882251 198 288 181.882251 288 162 
" clip-path="url(#p970dbbc4f6)" style="fill: none; stroke: #000000; stroke-linejoin: miter"/>
   </g>
   <g id="PathCollection_1">
    <defs>
     <path id="m849efe7147" d="M 0 5.531727 
C 1.467031 5.531727 2.874174 4.948869 3.911521 3.911521 
C 4.948869 2.874174 5.531727 1.467031 5.531727 0 
C 5.531727 -1.467031 4.948869 -2.874174 3.911521 -3.911521 
C 2.874174 -4.948869 1.467031 -5.531727 0 -5.531727 
C -1.467031 -5.531727 -2.874174 -4.948869 -3.911521 -3.911521 
C -4.948869 -2.874174 -5.531727 -1.467031 -5.531727 0 
C -5.531727 1.467031 -4.948869 2.874174 -3.911521 3.911521 
C -2.874174 4.948869 -1.467031 5.531727 0 5.531727 
z
" style="stroke: #ffffff"/>
    </defs>
    <g clip-path="url(#p970dbbc4f6)">
     <use xlink:href="#m849efe7147" x="126" y="108" style="fill: #ffffff; stroke: #ffffff"/>
    </g>
   </g>
   <g id="text_1">
    <g clip-path="url(#p970dbbc4f6)">
     <!-- = -->
     <g transform="translate(120.972188 111.31125) scale(0.12 -0.12)">
      <defs>
       <path id="DejaVuSans-3d" d="M 678 2906 
L 4684 2906 
L 4684 2381 
L 678 2381 
L 678 2906 
z
M 678 1631 
L 4684 1631 
L 4684 1100 
L 678 1100 
L 678 1631 
z
" transform="scale(0.015625)"/>
      </defs>
      <use xlink:href="#DejaVuSans-3d"/>
     </g>
    </g>
   </g>
  </g>
 </g>
 <defs>
  <clipPath id="p970dbbc4f6">
   <rect x="0" y="0" width="432" height="216"/>
  </clipPath>
 </defs>
</svg>
