<?xml version="1.0" encoding="utf-8" standalone="no"?>
<!DOCTYPE svg PUBLIC "-//W3C//DTD SVG 1.1//EN"
  "http://www.w3.org/Graphics/SVG/1.1/DTD/svg11.dtd">
<svg xmlns:xlink="http://www.w3.org/1999/xlink" width="144pt" height="288pt" viewBox="0 0 144 288" xmlns="http://www.w3.org/2000/svg" version="1.1">
 <metadata>
  <rdf:RDF xmlns:dc="http://purl.org/dc/elements/1.1/" xmlns:cc="http://creativecommons.org/ns#" xmlns:rdf="http://www.w3.org/1999/02/22-rdf-syntax-ns#">
   <cc:Work>
    <dc:type rdf:resource="http://purl.org/dc/dcmitype/StillImage"/>
    <dc:format>image/svg+xml</dc:format>
    <dc:creator>
     <cc:Agent>
      <dc:title>Matplotlib v3.10.9, https://matplotlib.org/</dc:title>
     </cc:Agent>
    </dc:creator>
   </cc:Work>
  </rdf:RDF>
 </metadata>
 <defs>
  <style type="text/css">*{stroke-linejoin: round; stroke-linecap: butt}</style>
 </defs>
 <g id="figure_1">
  <g id="patch_1">
   <path d="M 0 288 
L 144 288 
L 144 0 
L 0 0 
z
" style="fill: #ffffff"/>
  </g>
  <g id="axes_1">
   <g id="patch_2">
    <path d="M 0 288 
L 144 288 
L 144 0 
L 0 0 
z
" clip-path="url(#pff78231600)" style="fill: #ffffff; stroke: #ffffff; stroke-linejoin: miter"/>
   </g>
   <g id="patch_3">
    <path d="M 0 288 
Q 0 0 0 0 
L 144 0 
L 144 288 
z
" clip-path="url(#pff78231600)" style="fill: #ffffff"/>
   </g>
   <g id="patch_4">
    <path d="M 36 72 
Q 36 90 36 90 
L 144 90 
L 144 72 
z
" clip-path="url(#pff78231600)" style="fill: #ffffff"/>
   </g>
   <g id="patch_5">
    <path d="M 36 126 
Q 36 216 36 216 
L 144 216 
L 144 126 
z
" clip-path="url(#pff78231600)" style="fill: #ffffff"/>
   </g>
   <g id="patch_6">
    <path d="M 72 36 
Q 36 36 36 72 
L 144 72 
L 144 36 
z
" clip-path="url(#pff78231600)" style="fill: #ffffff"/>
   </g>
   <g id="patch_7">
    <path d="M 36 0 
Q 36 36 72 36 
L 144 36 
L 144 0 
z
" clip-path="url(#pff78231600)" style="fill: #ffffff"/>
   </g>
   <g id="patch_8">
    <path d="M 72 252 
Q 36 252 36 288 
L 144 288 
L 144 252 
z
" clip-path="url(#pff78231600)" style="fill: #ffffff"/>
   </g>
   <g id="patch_9">
    <path d="M 36 216 
Q 36 252 72 252 
L 144 252 
L 144 216 
z
" clip-path="url(#pff78231600)" style="fill: #ffffff"/>
   </g>
   <g id="patch_10">
    <path d="M 54 90 
Q 54 126 54 126 
L 144 126 
L 144 90 
z
" clip-path="url(#pff78231600)" style="fill: #ffffff"/>
   </g>
   <g id="patch_11">
    <path d="M 72 36 
Q 108 36 108 72 
L 144 72 
L 144 36 
z
" clip-path="url(#pff78231600)" style="fill: #ffffff"/>
   </g>
   <g id="patch_12">
    <path d="M 108 0 
Q 108 36 72 36 
L 144 36 
L 144 0 
z
" clip-path="url(#pff78231600)" style="fill: #ffffff"/>
   </g>
   <g id="patch_13">
    <path d="M 72 252 
Q 108 252 108 288 
L 144 288 
L 144 252 
z
" clip-path="url(#pff78231600)" style="fill: #ffffff"/>
   </g>
   <g id="patch_14">
    <path d="M 108 216 
Q 108 252 72 252 
L 144 252 
L 144 216 
z
" clip-path="url(#pff78231600)" style="fill: #ffffff"/>
   </g>
   <g id="patch_15">
    <path d="M 108 72 
Q 108 162 108 162 
L 144 162 
L 144 72 
z
" clip-path="url(#pff78231600)" style="fill: #ffffff"/>
   </g>
   <g id="patch_16">
    <path d="M 108 198 
Q 108 216 108 216 
L 144 216 
L 144 198 
z
" clip-path="url(#pff78231600)" style="fill: #ffffff"/>
   </g>
   <g id="patch_17">
    <path d="M 126 162 
Q 126 198 126 198 
L 144 198 
L 144 162 
z
" clip-path="url(#pff78231600)" style="fill: #ffffff"/>
   </g>
   <g id="patch_18">
    <path d="M 36 0 
C 36 14.4 47.52 23.04 61.344 30.528 
" clip-path="url(#pff78231600)" style="fill: none; stroke: #000000; stroke-linejoin: miter"/>
   </g>
   <g id="patch_19">
    <path d="M 82.656 41.472 
C 96.48 48.96 108 57.6 108 72 
" clip-path="url(#pff78231600)" style="fill: none; stroke: #000000; stroke-linejoin: miter"/>
   </g>
   <g id="patch_20">
    <path d="M 108 0 
C 108 36 36 36 36 72 
" clip-path="url(#pff78231600)" style="fill: none; stroke: #000000; stroke-linejoin: miter"/>
   </g>
   <g id="patch_21">
    <path d="M 36 216 
C 36 230.4 47.52 239.04 61.344 246.528 
" clip-path="url(#pff78231600)" style="fill: none; stroke: #000000; stroke-linejoin: miter"/>
   </g>
   <g id="patch_22">
    <path d="M 82.656 257.472 
C 96.48 264.96 108 273.6 108 288 
" clip-path="url(#pff78231600)" style="fill: none; stroke: #000000; stroke-linejoin: miter"/>
   </g>
   <g id="patch_23">
    <path d="M 108 216 
C 108 252 36 252 36 288 
" clip-path="url(#pff78231600)" style="fill: none; stroke: #000000; stroke-linejoin: miter"/>
   </g>
   <g id="patch_24">
    <path d="M 36 72 
Q 36 90 36 90 
" clip-path="url(#pff78231600)" style="fill: none; stroke: #000000; stroke-linejoin: miter"/>
   </g>
   <g id="patch_25">
    <path d="M 108 72 
Q 108 162 108 162 
" clip-path="url(#pff78231600)" style="fill: none; stroke: #000000; stroke-linejoin: miter"/>
   </g>
   <g id="patch_26">
    <path d="M 36 126 
Q 36 216 36 216 
" clip-path="url(#pff78231600)" style="fill: none; stroke: #000000; stroke-linejoin: miter"/>
   </g>
   <g id="patch_27">
    <path d="M 108 198 
Q 108 216 108 216 
" clip-path="url(#pff78231600)" style="fill: none; stroke: #000000; stroke-linejoin: miter"/>
   </g>
   <g id="patch_28">
    <path d="M 18 126 
L 18 90 
L 54 90 
L 54 126 
z
" clip-path="url(#pff78231600)" style="fill: #ffffff; stroke: #000000; stroke-linejoin: miter"/>
   </g>
   <g id="patch_29">
    <path d="M 90 198 
L 90 162 
L 126 162 
L 126 198 
z
" clip-path="url(#pff78231600)" style="fill: #ffffff; stroke: #000000; stroke-linejoin: miter"/>
   </g>
   <g id="text_1">
    <!-- x -->
    <g transform="translate(40.5 12.098437) scale(0.1 -0.1)">
     <defs>
      <path id="DejaVuSans-78" d="M 3513 3500 
L 2247 1797 
L 3578 0 
L 2900 0 
L 1881 1375 
L 863 0 
L 184 0 
L 1544 1831 
L 300 3500 
L 978 3500 
L 1906 2253 
L 2834 3500 
L 3513 3500 
z
" transform="scale(0.015625)"/>
     </defs>
     <use xlink:href="#DejaVuSans-78"/>
    </g>
   </g>
   <g id="text_2">
    <!-- y -->
    <g transform="translate(112.5 12.098437) scale(0.1 -0.1)">
     <defs>
      <path id="DejaVuSans-79" d="M 2059 -325 
Q 1816 -950 1584 -1140 
Q 1353 -1331 966 -1331 
L 506 -1331 
L 506 -850 
L 844 -850 
Q 1081 -850 1212 -737 
Q 1344 -625 1503 -206 
L 1606 56 
L 191 3500 
L 800 3500 
L 1894 763 
L 2988 3500 
L 3597 3500 
L 2059 -325 
z
" transform="scale(0.015625)"/>
     </defs>
     <use xlink:href="#DejaVuSans-79"/>
    </g>
   </g>
   <g id="text_3">
    <!-- y -->
    <g transform="translate(40.5 66.098437) scale(0.1 -0.1)">
     <use xlink:href="#DejaVuSans-79"/>
    </g>
   </g>
   <g id="text_4">
    <!-- x -->
    <g transform="translate(112.5 66.098437) scale(0.1 -0.1)">
     <use xlink:href="#DejaVuSans-78"/>
    </g>
   </g>
   <g id="text_5">
    <!-- y -->
    <g transform="translate(40.5 138.098437) scale(0.1 -0.1)">
     <use xlink:href="#DejaVuSans-79"/>
    </g>
   </g>
   <g id="text_6">
    <!-- x -->
    <g transform="translate(112.5 210.098437) scale(0.1 -0.1)">
     <use xlink:href="#DejaVuSans-78"/>
    </g>
   </g>
   <g id="text_7">
    <!-- x -->
    <g transform="translate(40.5 282.098437) scale(0.1 -0.1)">
     <use xlink:href="#DejaVuSans-78"/>
    </g>
   </g>
   <g id="text_8">
    <!-- y -->
    <g transform="translate(112.5 282.098437) scale(0.1 -0.1)">
     <use xlink:href="#DejaVuSans-79"/>
    </g>
   </g>
   <g id="text_9">
    <!-- Twist -->
    <g transform="translate(23.728125 110.759375) scale(0.1 -0.1)">
     <defs>
      <path id="DejaVuSans-54" d="M -19 4666 
L 3928 4666 
L 3928 4134 
L 2272 4134 
L 2272 0 
L 1638 0 
L 1638 4134 
L -19 4134 
L -19 4666 
z
" transform="scale(0.015625)"/>
      <path id="DejaVuSans-77" d="M 269 3500 
L 844 3500 
L 1563 769 
L 2278 3500 
L 2956 3500 
L 3675 769 
L 4391 3500 
L 4966 3500 
L 4050 0 
L 3372 0 
L 2619 2869 
L 1863 0 
L 1184 0 
L 269 3500 
z
" transform="scale(0.015625)"/>
      <path id="DejaVuSans-69" d="M 603 3500 
L 1178 3500 
L 1178 0 
L 603 0 
L 603 3500 
z
M 603 4863 
L 1178 4863 
L 1178 4134 
L 603 4134 
L 603 4863 
z
" transform="scale(0.015625)"/>
      <path id="DejaVuSans-73" d="M 2834 3397 
L 2834 2853 
Q 2591 2978 2328 3040 
Q 2066 3103 1784 3103 
Q 1356 3103 1142 2972 
Q 928 2841 928 2578 
Q 928 2378 1081 2264 
Q 1234 2150 1697 2047 
L 1894 2003 
Q 2506 1872 2764 1633 
Q 3022 1394 3022 966 
Q 3022 478 2636 193 
Q 2250 -91 1575 -91 
Q 1294 -91 989 -36 
Q 684 19 347 128 
L 347 722 
Q 666 556 975 473 
Q 1284 391 1588 391 
Q 1994 391 2212 530 
Q 2431 669 2431 922 
Q 2431 1156 2273 1281 
Q 2116 1406 1581 1522 
L 1381 1569 
Q 847 1681 609 1914 
Q 372 2147 372 2553 
Q 372 3047 722 3315 
Q 1072 3584 1716 3584 
Q 2034 3584 2315 3537 
Q 2597 3491 2834 3397 
z
" transform="scale(0.015625)"/>
      <path id="DejaVuSans-74" d="M 1172 4494 
L 1172 3500 
L 2356 3500 
L 2356 3053 
L 1172 3053 
L 1172 1153 
Q 1172 725 1289 603 
Q 1406 481 1766 481 
L 2356 481 
L 2356 0 
L 1766 0 
Q 1100 0 847 248 
Q 594 497 594 1153 
L 594 3053 
L 172 3053 
L 172 3500 
L 594 3500 
L 594 4494 
L 1172 4494 
z
" transform="scale(0.015625)"/>
     </defs>
     <use xlink:href="#DejaVuSans-54"/>
     <use xlink:href="#DejaVuSans-77" transform="translate(44.583984 0)"/>
     <use xlink:href="#DejaVuSans-69" transform="translate(126.371094 0)"/>
     <use xlink:href="#DejaVuSans-73" transform="translate(154.154297 0)"/>
     <use xlink:href="#DejaVuSans-74" transform="translate(206.253906 0)"/>
    </g>
   </g>
   <g id="text_10">
    <!-- Twist -->
    <g transform="translate(95.728125 182.759375) scale(0.1 -0.1)">
     <use xlink:href="#DejaVuSans-54"/>
     <use xlink:href="#DejaVuSans-77" transform="translate(44.583984 0)"/>
     <use xlink:href="#DejaVuSans-69" transform="translate(126.371094 0)"/>
     <use xlink:href="#DejaVuSans-73" transform="translate(154.154297 0)"/>
     <use xlink:href="#DejaVuSans-74" transform="translate(206.253906 0)"/>
    </g>
   </g>
  </g>
 </g>
 <defs>
  <clipPath id="pff78231600">
   <rect x="0" y="0" width="144" height="288"/>
  </clipPath>
 </defs>
</svg>
