<?xml version="1.0" encoding="utf-8" standalone="no"?>
<!DOCTYPE svg PUBLIC "-//W3C//DTD SVG 1.1//EN"
  "http://www.w3.org/Graphics/SVG/1.1/DTD/svg11.dtd">
<svg xmlns:xlink="http://www.w3.org/1999/xlink" width="234pt" height="72pt" viewBox="0 0 234 72" xmlns="http://www.w3.org/2000/svg" version="1.1">
 <metadata>
  <rdf:RDF xmlns:dc="http://purl.org/dc/elements/1.1/" xmlns:cc="http://creativecommons.org/ns#" xmlns:rdf="http://www.w3.org/1999/02/22-rdf-syntax-ns#">
   <cc:Work>
    <dc:type rdf:resource="http://purl.org/dc/dcmitype/StillImage"/>
    <dc:format>image/svg+xml</dc:format>
    <dc:creator>
     <cc:Agent>
      <dc:title>Matplotlib v3.10.9, https://matplotlib.org/</dc:title>
     </cc:Agent>
    </dc:creator>
   </cc:Work>
  </rdf:RDF>
 </metadata>
 <defs>
  <style type="text/css">*{stroke-linejoin: round; stroke-linecap: butt}</style>
 </defs>
 <g id="figure_1">
  <g id="patch_1">
   <path d="M 0 72 
L 234 72 
L 234 0 
L 0 0 
z
" style="fill: #ffffff"/>
  </g>
  <g id="axes_1">
   <g id="patch_2">
    <path d="M 0 72 
L 234 72 
L 234 0 
L 0 0 
z
" clip-path="url(#p1318e545d5)" style="fill: #ffffff; stroke: #ffffff; stroke-linejoin: miter"/>
   </g>
   <g id="patch_3">
    <path d="M 0 72 
Q 0 0 0 0 
L 234 0 
L 234 72 
z
" clip-path="url(#p1318e545d5)" style="fill: #ffffff"/>
   </g>
   <g id="patch_4">
    <path d="M 36 0 
Q 36 18 36 18 
L 234 18 
L 234 0 
z
" clip-path="url(#p1318e545d5)" style="fill: #ffffff"/>
   </g>
   <g id="patch_5">
    <path d="M 36 54 
Q 36 72 36 72 
L 234 72 
L 234 54 
z
" clip-path="url(#p1318e545d5)" style="fill: #ffffff"/>
   </g>
   <g id="patch_6">
    <path d="M 54 18 
Q 54 54 54 54 
L 234 54 
L 234 18 
z
" clip-path="url(#p1318e545d5)" style="fill: #ffffff"/>
   </g>
   <g id="patch_7">
    <path d="M 180 0 
Q 180 18 180 18 
L 234 18 
L 234 0 
z
" clip-path="url(#p1318e545d5)" style="fill: #ffffff"/>
   </g>
   <g id="patch_8">
    <path d="M 180 54 
Q 180 72 180 72 
L 234 72 
L 234 54 
z
" clip-path="url(#p1318e545d5)" style="fill: #ffffff"/>
   </g>
   <g id="patch_9">
    <path d="M 198 0 
Q 198 18 198 18 
L 234 18 
L 234 0 
z
" clip-path="url(#p1318e545d5)" style="fill: #ffffff"/>
   </g>
   <g id="patch_10">
    <path d="M 198 54 
Q 198 72 198 72 
L 234 72 
L 234 54 
z
" clip-path="url(#p1318e545d5)" style="fill: #ffffff"/>
   </g>
   <g id="patch_11">
    <path d="M 216 18 
Q 216 54 216 54 
L 234 54 
L 234 18 
z
" clip-path="url(#p1318e545d5)" style="fill: #ffffff"/>
   </g>
   <g id="patch_12">
    <path d="M 180 0 
L 180 18 
L 198 18 
L 198 0 
z
" clip-path="url(#p1318e545d5)" style="fill: #e8a5a5"/>
   </g>
   <g id="patch_13">
    <path d="M 180 54 
L 180 72 
L 198 72 
L 198 54 
z
" clip-path="url(#p1318e545d5)" style="fill: #e8a5a5"/>
   </g>
   <g id="patch_14">
    <path d="M 36 0 
Q 36 18 36 18 
" clip-path="url(#p1318e545d5)" style="fill: none; stroke: #000000; stroke-linejoin: miter"/>
   </g>
   <g id="patch_15">
    <path d="M 36 54 
Q 36 72 36 72 
" clip-path="url(#p1318e545d5)" style="fill: none; stroke: #000000; stroke-linejoin: miter"/>
   </g>
   <g id="patch_16">
    <path d="M 180 0 
Q 180 18 180 18 
" clip-path="url(#p1318e545d5)" style="fill: none; stroke: #000000; stroke-linejoin: miter"/>
   </g>
   <g id="patch_17">
    <path d="M 198 0 
Q 198 18 198 18 
" clip-path="url(#p1318e545d5)" style="fill: none; stroke: #000000; stroke-linejoin: miter"/>
   </g>
   <g id="patch_18">
    <path d="M 180 54 
Q 180 72 180 72 
" clip-path="url(#p1318e545d5)" style="fill: none; stroke: #000000; stroke-linejoin: miter"/>
   </g>
   <g id="patch_19">
    <path d="M 198 54 
Q 198 72 198 72 
" clip-path="url(#p1318e545d5)" style="fill: none; stroke: #000000; stroke-linejoin: miter"/>
   </g>
   <g id="patch_20">
    <path d="M 18 54 
L 18 18 
L 54 18 
L 54 54 
z
" clip-path="url(#p1318e545d5)" style="fill: #ffffff; stroke: #000000; stroke-linejoin: miter"/>
   </g>
   <g id="patch_21">
    <path d="M 180 18 
C 180 22.5 184.5 24.75 189 27 
L 189 27 
C 193.5 24.75 198 22.5 198 18 
z
" clip-path="url(#p1318e545d5)" style="fill: #e8a5a5"/>
   </g>
   <g id="patch_22">
    <path d="M 189 27 
C 193.5 29.25 198 31.5 198 36 
C 198 40.5 193.5 42.75 189 45 
L 189 45 
C 184.5 42.75 180 40.5 180 36 
C 180 31.5 184.5 29.25 189 27 
z
" clip-path="url(#p1318e545d5)" style="fill: #8b6363"/>
   </g>
   <g id="patch_23">
    <path d="M 189 45 
C 184.5 47.25 180 49.5 180 54 
L 198 54 
C 198 49.5 193.5 47.25 189 45 
z
" clip-path="url(#p1318e545d5)" style="fill: #e8a5a5"/>
   </g>
   <g id="patch_24">
    <path d="M 180 18 
C 180 21.15 182.205 23.1975 185.0715 24.91425 
" clip-path="url(#p1318e545d5)" style="fill: none; stroke: #000000; stroke-linejoin: miter"/>
   </g>
   <g id="patch_25">
    <path d="M 192.9285 29.08575 
C 195.795 30.8025 198 32.85 198 36 
" clip-path="url(#p1318e545d5)" style="fill: none; stroke: #000000; stroke-linejoin: miter"/>
   </g>
   <g id="patch_26">
    <path d="M 198 18 
C 198 27 180 27 180 36 
" clip-path="url(#p1318e545d5)" style="fill: none; stroke: #000000; stroke-linejoin: miter"/>
   </g>
   <g id="patch_27">
    <path d="M 198 36 
C 198 39.15 195.795 41.1975 192.9285 42.91425 
" clip-path="url(#p1318e545d5)" style="fill: none; stroke: #000000; stroke-linejoin: miter"/>
   </g>
   <g id="patch_28">
    <path d="M 185.0715 47.08575 
C 182.205 48.8025 180 50.85 180 54 
" clip-path="url(#p1318e545d5)" style="fill: none; stroke: #000000; stroke-linejoin: miter"/>
   </g>
   <g id="patch_29">
    <path d="M 180 36 
C 180 45 198 45 198 54 
" clip-path="url(#p1318e545d5)" style="fill: none; stroke: #000000; stroke-linejoin: miter"/>
   </g>
   <g id="PathCollection_1">
    <defs>
     <path id="m89f60821d5" d="M 0 6.451744 
C 1.711022 6.451744 3.352196 5.771948 4.562072 4.562072 
C 5.771948 3.352196 6.451744 1.711022 6.451744 0 
C 6.451744 -1.711022 5.771948 -3.352196 4.562072 -4.562072 
C 3.352196 -5.771948 1.711022 -6.451744 0 -6.451744 
C -1.711022 -6.451744 -3.352196 -5.771948 -4.562072 -4.562072 
C -5.771948 -3.352196 -6.451744 -1.711022 -6.451744 0 
C -6.451744 1.711022 -5.771948 3.352196 -4.562072 4.562072 
C -3.352196 5.771948 -1.711022 6.451744 0 6.451744 
z
" style="stroke: #ffffff"/>
    </defs>
    <g clip-path="url(#p1318e545d5)">
     <use xlink:href="#m89f60821d5" x="108" y="36" style="fill: #ffffff; stroke: #ffffff"/>
    </g>
   </g>
   <g id="text_1">
    <!-- Twist -->
    <g transform="translate(23.728125 38.759375) scale(0.1 -0.1)">
     <defs>
      <path id="DejaVuSans-54" d="M -19 4666 
L 3928 4666 
L 3928 4134 
L 2272 4134 
L 2272 0 
L 1638 0 
L 1638 4134 
L -19 4134 
L -19 4666 
z
" transform="scale(0.015625)"/>
      <path id="DejaVuSans-77" d="M 269 3500 
L 844 3500 
L 1563 769 
L 2278 3500 
L 2956 3500 
L 3675 769 
L 4391 3500 
L 4966 3500 
L 4050 0 
L 3372 0 
L 2619 2869 
L 1863 0 
L 1184 0 
L 269 3500 
z
" transform="scale(0.015625)"/>
      <path id="DejaVuSans-69" d="M 603 3500 
L 1178 3500 
L 1178 0 
L 603 0 
L 603 3500 
z
M 603 4863 
L 1178 4863 
L 1178 4134 
L 603 4134 
L 603 4863 
z
" transform="scale(0.015625)"/>
      <path id="DejaVuSans-73" d="M 2834 3397 
L 2834 2853 
Q 2591 2978 2328 3040 
Q 2066 3103 1784 3103 
Q 1356 3103 1142 2972 
Q 928 2841 928 2578 
Q 928 2378 1081 2264 
Q 1234 2150 1697 2047 
L 1894 2003 
Q 2506 1872 2764 1633 
Q 3022 1394 3022 966 
Q 3022 478 2636 193 
Q 2250 -91 1575 -91 
Q 1294 -91 989 -36 
Q 684 19 347 128 
L 347 722 
Q 666 556 975 473 
Q 1284 391 1588 391 
Q 1994 391 2212 530 
Q 2431 669 2431 922 
Q 2431 1156 2273 1281 
Q 2116 1406 1581 1522 
L 1381 1569 
Q 847 1681 609 1914 
Q 372 2147 372 2553 
Q 372 3047 722 3315 
Q 1072 3584 1716 3584 
Q 2034 3584 2315 3537 
Q 2597 3491 2834 3397 
z
" transform="scale(0.015625)"/>
      <path id="DejaVuSans-74" d="M 1172 4494 
L 1172 3500 
L 2356 3500 
L 2356 3053 
L 1172 3053 
L 1172 1153 
Q 1172 725 1289 603 
Q 1406 481 1766 481 
L 2356 481 
L 2356 0 
L 1766 0 
Q 1100 0 847 248 
Q 594 497 594 1153 
L 594 3053 
L 172 3053 
L 172 3500 
L 594 3500 
L 594 4494 
L 1172 4494 
z
" transform="scale(0.015625)"/>
     </defs>
     <use xlink:href="#DejaVuSans-54"/>
     <use xlink:href="#DejaVuSans-77" transform="translate(44.583984 0)"/>
     <use xlink:href="#DejaVuSans-69" transform="translate(126.371094 0)"/>
     <use xlink:href="#DejaVuSans-73" transform="translate(154.154297 0)"/>
     <use xlink:href="#DejaVuSans-74" transform="translate(206.253906 0)"/>
    </g>
   </g>
   <g id="text_2">
    <g clip-path="url(#p1318e545d5)">
     <!-- $\mapsto$ -->
     <g transform="translate(100.62 39.31125) scale(0.12 -0.12)">
      <defs>
       <path id="DejaVuSans-21a6" d="M 4175 1741 
L 897 1741 
L 897 663 
L 366 663 
L 366 3350 
L 897 3350 
L 897 2272 
L 4175 2272 
L 3447 3000 
L 3822 3375 
L 5050 2147 
L 5050 1866 
L 3822 638 
L 3447 1013 
L 4175 1741 
z
" transform="scale(0.015625)"/>
      </defs>
      <use xlink:href="#DejaVuSans-21a6" transform="translate(19.482422 0.265625)"/>
     </g>
    </g>
   </g>
  </g>
 </g>
 <defs>
  <clipPath id="p1318e545d5">
   <rect x="0" y="0" width="234" height="72"/>
  </clipPath>
 </defs>
</svg>
