<?xml version="1.0" encoding="utf-8" standalone="no"?>
<!DOCTYPE svg PUBLIC "-//W3C//DTD SVG 1.1//EN"
  "http://www.w3.org/Graphics/SVG/1.1/DTD/svg11.dtd">
<svg xmlns:xlink="http://www.w3.org/1999/xlink" width="360pt" height="288pt" viewBox="0 0 360 288" xmlns="http://www.w3.org/2000/svg" version="1.1">
 <metadata>
  <rdf:RDF xmlns:dc="http://purl.org/dc/elements/1.1/" xmlns:cc="http://creativecommons.org/ns#" xmlns:rdf="http://www.w3.org/1999/02/22-rdf-syntax-ns#">
   <cc:Work>
    <dc:type rdf:resource="http://purl.org/dc/dcmitype/StillImage"/>
    <dc:format>image/svg+xml</dc:format>
    <dc:creator>
     <cc:Agent>
      <dc:title>Matplotlib v3.10.9, https://matplotlib.org/</dc:title>
     </cc:Agent>
    </dc:creator>
   </cc:Work>
  </rdf:RDF>
 </metadata>
 <defs>
  <style type="text/css">*{stroke-linejoin: round; stroke-linecap: butt}</style>
 </defs>
 <g id="figure_1">
  <g id="patch_1">
   <path d="M 0 288 
L 360 288 
L 360 0 
L 0 0 
z
" style="fill: #ffffff"/>
  </g>
  <g id="axes_1">
   <g id="patch_2">
    <path d="M 67.5 288 
L 292.5 288 
L 292.5 0 
L 67.5 0 
z
" clip-path="url(#p2ef0fd938a)" style="fill: #ffffff; stroke: #ffffff; stroke-linejoin: miter"/>
   </g>
   <g id="patch_3">
    <path d="M 67.5 288 
Q 67.5 0 67.5 0 
L 292.5 0 
L 292.5 288 
z
" clip-path="url(#p2ef0fd938a)" style="fill: #ffffff"/>
   </g>
   <g id="patch_4">
    <path d="M 97.27766 43.2 
Q 97.27766 244.8 97.27766 244.8 
L 292.5 244.8 
L 292.5 43.2 
z
" clip-path="url(#p2ef0fd938a)" style="fill: #ffffff"/>
   </g>
   <g id="patch_5">
    <path d="M 112.16649 14.4 
Q 112.16649 43.2 112.16649 43.2 
L 292.5 43.2 
L 292.5 14.4 
z
" clip-path="url(#p2ef0fd938a)" style="fill: #ffffff"/>
   </g>
   <g id="patch_6">
    <path d="M 151.592112 273.6 
Q 151.592112 288 151.592112 288 
L 292.5 288 
L 292.5 273.6 
z
" clip-path="url(#p2ef0fd938a)" style="fill: #ffffff"/>
   </g>
   <g id="patch_7">
    <path d="M 156.83298 100.8 
Q 156.83298 187.2 156.83298 187.2 
L 292.5 187.2 
L 292.5 100.8 
z
" clip-path="url(#p2ef0fd938a)" style="fill: #ffffff"/>
   </g>
   <g id="patch_8">
    <path d="M 171.72181 72 
Q 171.72181 100.8 171.72181 100.8 
L 292.5 100.8 
L 292.5 72 
z
" clip-path="url(#p2ef0fd938a)" style="fill: #ffffff"/>
   </g>
   <g id="patch_9">
    <path d="M 205.906564 216 
Q 205.906564 244.8 205.906564 244.8 
L 292.5 244.8 
L 292.5 216 
z
" clip-path="url(#p2ef0fd938a)" style="fill: #ffffff"/>
   </g>
   <g id="patch_10">
    <path d="M 220.795394 244.8 
Q 220.795394 273.6 220.795394 273.6 
L 292.5 273.6 
L 292.5 244.8 
z
" clip-path="url(#p2ef0fd938a)" style="fill: #ffffff"/>
   </g>
   <g id="patch_11">
    <path d="M 254.980148 158.4 
Q 254.980148 187.2 254.980148 187.2 
L 292.5 187.2 
L 292.5 158.4 
z
" clip-path="url(#p2ef0fd938a)" style="fill: #ffffff"/>
   </g>
   <g id="patch_12">
    <path d="M 269.868978 129.6 
Q 269.868978 158.4 269.868978 158.4 
L 292.5 158.4 
L 292.5 129.6 
z
" clip-path="url(#p2ef0fd938a)" style="fill: #ffffff"/>
   </g>
   <g id="patch_13">
    <path d="M 269.868978 187.2 
Q 269.868978 216 269.868978 216 
L 292.5 216 
L 292.5 187.2 
z
" clip-path="url(#p2ef0fd938a)" style="fill: #ffffff"/>
   </g>
   <g id="patch_14">
    <path d="M 97.27766 43.2 
Q 97.27766 244.8 97.27766 244.8 
" clip-path="url(#p2ef0fd938a)" style="fill: none; stroke: #000000; stroke-linejoin: miter"/>
   </g>
   <g id="patch_15">
    <path d="M 156.83298 100.8 
Q 156.83298 187.2 156.83298 187.2 
" clip-path="url(#p2ef0fd938a)" style="fill: none; stroke: #000000; stroke-linejoin: miter"/>
   </g>
   <g id="patch_16">
    <path d="M 254.980148 158.4 
Q 254.980148 187.2 254.980148 187.2 
" clip-path="url(#p2ef0fd938a)" style="fill: none; stroke: #000000; stroke-linejoin: miter"/>
   </g>
   <g id="patch_17">
    <path d="M 205.906564 216 
Q 205.906564 244.8 205.906564 244.8 
" clip-path="url(#p2ef0fd938a)" style="fill: none; stroke: #000000; stroke-linejoin: miter"/>
   </g>
   <g id="patch_18">
    <path d="M 151.592112 273.6 
Q 151.592112 288 151.592112 288 
" clip-path="url(#p2ef0fd938a)" style="fill: none; stroke: #000000; stroke-linejoin: miter"/>
   </g>
   <g id="patch_19">
    <path d="M 82.38883 43.2 
L 82.38883 14.4 
L 112.16649 14.4 
L 112.16649 43.2 
z
" clip-path="url(#p2ef0fd938a)" style="fill: #ffffff; stroke: #000000; stroke-linejoin: miter"/>
   </g>
   <g id="patch_20">
    <path d="M 141.94415 100.8 
L 141.94415 72 
L 171.72181 72 
L 171.72181 100.8 
z
" clip-path="url(#p2ef0fd938a)" style="fill: #ffffff; stroke: #000000; stroke-linejoin: miter"/>
   </g>
   <g id="patch_21">
    <path d="M 240.091318 158.4 
L 240.091318 129.6 
L 269.868978 129.6 
L 269.868978 158.4 
z
" clip-path="url(#p2ef0fd938a)" style="fill: #ffffff; stroke: #000000; stroke-linejoin: miter"/>
   </g>
   <g id="patch_22">
    <path d="M 141.94415 216 
L 141.94415 187.2 
L 269.868978 187.2 
L 269.868978 216 
z
" clip-path="url(#p2ef0fd938a)" style="fill: #ffffff; stroke: #000000; stroke-linejoin: miter"/>
   </g>
   <g id="patch_23">
    <path d="M 82.38883 273.6 
L 82.38883 244.8 
L 220.795394 244.8 
L 220.795394 273.6 
z
" clip-path="url(#p2ef0fd938a)" style="fill: #ffffff; stroke: #000000; stroke-linejoin: miter"/>
   </g>
   <g id="text_1">
    <!-- N -->
    <g transform="translate(100.999868 54.398437) scale(0.1 -0.1)">
     <defs>
      <path id="DejaVuSans-4e" d="M 628 4666 
L 1478 4666 
L 3547 763 
L 3547 4666 
L 4159 4666 
L 4159 0 
L 3309 0 
L 1241 3903 
L 1241 0 
L 628 0 
L 628 4666 
z
" transform="scale(0.015625)"/>
     </defs>
     <use xlink:href="#DejaVuSans-4e"/>
    </g>
   </g>
   <g id="text_2">
    <!-- ((N &gt;&gt; S) &lt;&lt; N) -->
    <g transform="translate(160.555188 111.998437) scale(0.1 -0.1)">
     <defs>
      <path id="DejaVuSans-28" d="M 1984 4856 
Q 1566 4138 1362 3434 
Q 1159 2731 1159 2009 
Q 1159 1288 1364 580 
Q 1569 -128 1984 -844 
L 1484 -844 
Q 1016 -109 783 600 
Q 550 1309 550 2009 
Q 550 2706 781 3412 
Q 1013 4119 1484 4856 
L 1984 4856 
z
" transform="scale(0.015625)"/>
      <path id="DejaVuSans-20" transform="scale(0.015625)"/>
      <path id="DejaVuSans-3e" d="M 678 3150 
L 678 3719 
L 4684 2266 
L 4684 1747 
L 678 294 
L 678 863 
L 3897 2003 
L 678 3150 
z
" transform="scale(0.015625)"/>
      <path id="DejaVuSans-53" d="M 3425 4513 
L 3425 3897 
Q 3066 4069 2747 4153 
Q 2428 4238 2131 4238 
Q 1616 4238 1336 4038 
Q 1056 3838 1056 3469 
Q 1056 3159 1242 3001 
Q 1428 2844 1947 2747 
L 2328 2669 
Q 3034 2534 3370 2195 
Q 3706 1856 3706 1288 
Q 3706 609 3251 259 
Q 2797 -91 1919 -91 
Q 1588 -91 1214 -16 
Q 841 59 441 206 
L 441 856 
Q 825 641 1194 531 
Q 1563 422 1919 422 
Q 2459 422 2753 634 
Q 3047 847 3047 1241 
Q 3047 1584 2836 1778 
Q 2625 1972 2144 2069 
L 1759 2144 
Q 1053 2284 737 2584 
Q 422 2884 422 3419 
Q 422 4038 858 4394 
Q 1294 4750 2059 4750 
Q 2388 4750 2728 4690 
Q 3069 4631 3425 4513 
z
" transform="scale(0.015625)"/>
      <path id="DejaVuSans-29" d="M 513 4856 
L 1013 4856 
Q 1481 4119 1714 3412 
Q 1947 2706 1947 2009 
Q 1947 1309 1714 600 
Q 1481 -109 1013 -844 
L 513 -844 
Q 928 -128 1133 580 
Q 1338 1288 1338 2009 
Q 1338 2731 1133 3434 
Q 928 4138 513 4856 
z
" transform="scale(0.015625)"/>
      <path id="DejaVuSans-3c" d="M 4684 3150 
L 1459 2003 
L 4684 863 
L 4684 294 
L 678 1747 
L 678 2266 
L 4684 3719 
L 4684 3150 
z
" transform="scale(0.015625)"/>
     </defs>
     <use xlink:href="#DejaVuSans-28"/>
     <use xlink:href="#DejaVuSans-28" transform="translate(39.013672 0)"/>
     <use xlink:href="#DejaVuSans-4e" transform="translate(78.027344 0)"/>
     <use xlink:href="#DejaVuSans-20" transform="translate(152.832031 0)"/>
     <use xlink:href="#DejaVuSans-3e" transform="translate(184.619141 0)"/>
     <use xlink:href="#DejaVuSans-3e" transform="translate(268.408203 0)"/>
     <use xlink:href="#DejaVuSans-20" transform="translate(352.197266 0)"/>
     <use xlink:href="#DejaVuSans-53" transform="translate(383.984375 0)"/>
     <use xlink:href="#DejaVuSans-29" transform="translate(447.460938 0)"/>
     <use xlink:href="#DejaVuSans-20" transform="translate(486.474609 0)"/>
     <use xlink:href="#DejaVuSans-3c" transform="translate(518.261719 0)"/>
     <use xlink:href="#DejaVuSans-3c" transform="translate(602.050781 0)"/>
     <use xlink:href="#DejaVuSans-20" transform="translate(685.839844 0)"/>
     <use xlink:href="#DejaVuSans-4e" transform="translate(717.626953 0)"/>
     <use xlink:href="#DejaVuSans-29" transform="translate(792.431641 0)"/>
    </g>
   </g>
   <g id="text_3">
    <!-- N -->
    <g transform="translate(258.702356 169.598437) scale(0.1 -0.1)">
     <use xlink:href="#DejaVuSans-4e"/>
    </g>
   </g>
   <g id="text_4">
    <!-- (N &gt;&gt; S) -->
    <g transform="translate(209.628772 227.198438) scale(0.1 -0.1)">
     <use xlink:href="#DejaVuSans-28"/>
     <use xlink:href="#DejaVuSans-4e" transform="translate(39.013672 0)"/>
     <use xlink:href="#DejaVuSans-20" transform="translate(113.818359 0)"/>
     <use xlink:href="#DejaVuSans-3e" transform="translate(145.605469 0)"/>
     <use xlink:href="#DejaVuSans-3e" transform="translate(229.394531 0)"/>
     <use xlink:href="#DejaVuSans-20" transform="translate(313.183594 0)"/>
     <use xlink:href="#DejaVuSans-53" transform="translate(344.970703 0)"/>
     <use xlink:href="#DejaVuSans-29" transform="translate(408.447266 0)"/>
    </g>
   </g>
   <g id="text_5">
    <!-- S -->
    <g transform="translate(155.31432 284.798437) scale(0.1 -0.1)">
     <use xlink:href="#DejaVuSans-53"/>
    </g>
   </g>
   <g id="text_6">
    <!-- Alice -->
    <g transform="translate(85.253441 31.559375) scale(0.1 -0.1)">
     <defs>
      <path id="DejaVuSans-41" d="M 2188 4044 
L 1331 1722 
L 3047 1722 
L 2188 4044 
z
M 1831 4666 
L 2547 4666 
L 4325 0 
L 3669 0 
L 3244 1197 
L 1141 1197 
L 716 0 
L 50 0 
L 1831 4666 
z
" transform="scale(0.015625)"/>
      <path id="DejaVuSans-6c" d="M 603 4863 
L 1178 4863 
L 1178 0 
L 603 0 
L 603 4863 
z
" transform="scale(0.015625)"/>
      <path id="DejaVuSans-69" d="M 603 3500 
L 1178 3500 
L 1178 0 
L 603 0 
L 603 3500 
z
M 603 4863 
L 1178 4863 
L 1178 4134 
L 603 4134 
L 603 4863 
z
" transform="scale(0.015625)"/>
      <path id="DejaVuSans-63" d="M 3122 3366 
L 3122 2828 
Q 2878 2963 2633 3030 
Q 2388 3097 2138 3097 
Q 1578 3097 1268 2742 
Q 959 2388 959 1747 
Q 959 1106 1268 751 
Q 1578 397 2138 397 
Q 2388 397 2633 464 
Q 2878 531 3122 666 
L 3122 134 
Q 2881 22 2623 -34 
Q 2366 -91 2075 -91 
Q 1284 -91 818 406 
Q 353 903 353 1747 
Q 353 2603 823 3093 
Q 1294 3584 2113 3584 
Q 2378 3584 2631 3529 
Q 2884 3475 3122 3366 
z
" transform="scale(0.015625)"/>
      <path id="DejaVuSans-65" d="M 3597 1894 
L 3597 1613 
L 953 1613 
Q 991 1019 1311 708 
Q 1631 397 2203 397 
Q 2534 397 2845 478 
Q 3156 559 3463 722 
L 3463 178 
Q 3153 47 2828 -22 
Q 2503 -91 2169 -91 
Q 1331 -91 842 396 
Q 353 884 353 1716 
Q 353 2575 817 3079 
Q 1281 3584 2069 3584 
Q 2775 3584 3186 3129 
Q 3597 2675 3597 1894 
z
M 3022 2063 
Q 3016 2534 2758 2815 
Q 2500 3097 2075 3097 
Q 1594 3097 1305 2825 
Q 1016 2553 972 2059 
L 3022 2063 
z
" transform="scale(0.015625)"/>
     </defs>
     <use xlink:href="#DejaVuSans-41"/>
     <use xlink:href="#DejaVuSans-6c" transform="translate(68.408203 0)"/>
     <use xlink:href="#DejaVuSans-69" transform="translate(96.191406 0)"/>
     <use xlink:href="#DejaVuSans-63" transform="translate(123.974609 0)"/>
     <use xlink:href="#DejaVuSans-65" transform="translate(178.955078 0)"/>
    </g>
   </g>
   <g id="text_7">
    <!-- loves -->
    <g transform="translate(143.743918 89.159375) scale(0.1 -0.1)">
     <defs>
      <path id="DejaVuSans-6f" d="M 1959 3097 
Q 1497 3097 1228 2736 
Q 959 2375 959 1747 
Q 959 1119 1226 758 
Q 1494 397 1959 397 
Q 2419 397 2687 759 
Q 2956 1122 2956 1747 
Q 2956 2369 2687 2733 
Q 2419 3097 1959 3097 
z
M 1959 3584 
Q 2709 3584 3137 3096 
Q 3566 2609 3566 1747 
Q 3566 888 3137 398 
Q 2709 -91 1959 -91 
Q 1206 -91 779 398 
Q 353 888 353 1747 
Q 353 2609 779 3096 
Q 1206 3584 1959 3584 
z
" transform="scale(0.015625)"/>
      <path id="DejaVuSans-76" d="M 191 3500 
L 800 3500 
L 1894 563 
L 2988 3500 
L 3597 3500 
L 2284 0 
L 1503 0 
L 191 3500 
z
" transform="scale(0.015625)"/>
      <path id="DejaVuSans-73" d="M 2834 3397 
L 2834 2853 
Q 2591 2978 2328 3040 
Q 2066 3103 1784 3103 
Q 1356 3103 1142 2972 
Q 928 2841 928 2578 
Q 928 2378 1081 2264 
Q 1234 2150 1697 2047 
L 1894 2003 
Q 2506 1872 2764 1633 
Q 3022 1394 3022 966 
Q 3022 478 2636 193 
Q 2250 -91 1575 -91 
Q 1294 -91 989 -36 
Q 684 19 347 128 
L 347 722 
Q 666 556 975 473 
Q 1284 391 1588 391 
Q 1994 391 2212 530 
Q 2431 669 2431 922 
Q 2431 1156 2273 1281 
Q 2116 1406 1581 1522 
L 1381 1569 
Q 847 1681 609 1914 
Q 372 2147 372 2553 
Q 372 3047 722 3315 
Q 1072 3584 1716 3584 
Q 2034 3584 2315 3537 
Q 2597 3491 2834 3397 
z
" transform="scale(0.015625)"/>
     </defs>
     <use xlink:href="#DejaVuSans-6c"/>
     <use xlink:href="#DejaVuSans-6f" transform="translate(27.783203 0)"/>
     <use xlink:href="#DejaVuSans-76" transform="translate(88.964844 0)"/>
     <use xlink:href="#DejaVuSans-65" transform="translate(148.144531 0)"/>
     <use xlink:href="#DejaVuSans-73" transform="translate(209.667969 0)"/>
    </g>
   </g>
   <g id="text_8">
    <!-- Bob -->
    <g transform="translate(245.316086 146.759375) scale(0.1 -0.1)">
     <defs>
      <path id="DejaVuSans-42" d="M 1259 2228 
L 1259 519 
L 2272 519 
Q 2781 519 3026 730 
Q 3272 941 3272 1375 
Q 3272 1813 3026 2020 
Q 2781 2228 2272 2228 
L 1259 2228 
z
M 1259 4147 
L 1259 2741 
L 2194 2741 
Q 2656 2741 2882 2914 
Q 3109 3088 3109 3444 
Q 3109 3797 2882 3972 
Q 2656 4147 2194 4147 
L 1259 4147 
z
M 628 4666 
L 2241 4666 
Q 2963 4666 3353 4366 
Q 3744 4066 3744 3513 
Q 3744 3084 3544 2831 
Q 3344 2578 2956 2516 
Q 3422 2416 3680 2098 
Q 3938 1781 3938 1306 
Q 3938 681 3513 340 
Q 3088 0 2303 0 
L 628 0 
L 628 4666 
z
" transform="scale(0.015625)"/>
      <path id="DejaVuSans-62" d="M 3116 1747 
Q 3116 2381 2855 2742 
Q 2594 3103 2138 3103 
Q 1681 3103 1420 2742 
Q 1159 2381 1159 1747 
Q 1159 1113 1420 752 
Q 1681 391 2138 391 
Q 2594 391 2855 752 
Q 3116 1113 3116 1747 
z
M 1159 2969 
Q 1341 3281 1617 3432 
Q 1894 3584 2278 3584 
Q 2916 3584 3314 3078 
Q 3713 2572 3713 1747 
Q 3713 922 3314 415 
Q 2916 -91 2278 -91 
Q 1894 -91 1617 61 
Q 1341 213 1159 525 
L 1159 0 
L 581 0 
L 581 4863 
L 1159 4863 
L 1159 2969 
z
" transform="scale(0.015625)"/>
     </defs>
     <use xlink:href="#DejaVuSans-42"/>
     <use xlink:href="#DejaVuSans-6f" transform="translate(68.603516 0)"/>
     <use xlink:href="#DejaVuSans-62" transform="translate(129.785156 0)"/>
    </g>
   </g>
   <g id="text_9">
    <!-- &lt;&lt; -->
    <g transform="translate(197.526877 204.359375) scale(0.1 -0.1)">
     <use xlink:href="#DejaVuSans-3c"/>
     <use xlink:href="#DejaVuSans-3c" transform="translate(83.789062 0)"/>
    </g>
   </g>
   <g id="text_10">
    <!-- &gt;&gt; -->
    <g transform="translate(143.212425 261.959375) scale(0.1 -0.1)">
     <use xlink:href="#DejaVuSans-3e"/>
     <use xlink:href="#DejaVuSans-3e" transform="translate(83.789062 0)"/>
    </g>
   </g>
  </g>
 </g>
 <defs>
  <clipPath id="p2ef0fd938a">
   <rect x="0" y="0" width="360" height="288"/>
  </clipPath>
 </defs>
</svg>
