<?xml version="1.0" encoding="utf-8" standalone="no"?>
<!DOCTYPE svg PUBLIC "-//W3C//DTD SVG 1.1//EN"
  "http://www.w3.org/Graphics/SVG/1.1/DTD/svg11.dtd">
<svg xmlns:xlink="http://www.w3.org/1999/xlink" width="873.36pt" height="360pt" viewBox="0 0 873.36 360" xmlns="http://www.w3.org/2000/svg" version="1.1">
 <metadata>
  <rdf:RDF xmlns:dc="http://purl.org/dc/elements/1.1/" xmlns:cc="http://creativecommons.org/ns#" xmlns:rdf="http://www.w3.org/1999/02/22-rdf-syntax-ns#">
   <cc:Work>
    <dc:type rdf:resource="http://purl.org/dc/dcmitype/StillImage"/>
    <dc:format>image/svg+xml</dc:format>
    <dc:creator>
     <cc:Agent>
      <dc:title>Matplotlib v3.10.9, https://matplotlib.org/</dc:title>
     </cc:Agent>
    </dc:creator>
   </cc:Work>
  </rdf:RDF>
 </metadata>
 <defs>
  <style type="text/css">*{stroke-linejoin: round; stroke-linecap: butt}</style>
 </defs>
 <g id="figure_1">
  <g id="patch_1">
   <path d="M 0 360 
L 873.36 360 
L 873.36 0 
L 0 0 
z
" style="fill: #ffffff"/>
  </g>
  <g id="axes_1">
   <g id="patch_2">
    <path d="M 0 360 
L 873.36 360 
L 873.36 0 
L 0 0 
z
" clip-path="url(#p1127f76aa5)" style="fill: #ffffff; stroke: #ffffff; stroke-linejoin: miter"/>
   </g>
   <g id="patch_3">
    <path d="M 0 360 
Q 0 0 0 0 
L 873.36 0 
L 873.36 360 
z
" clip-path="url(#p1127f76aa5)" style="fill: #ffffff"/>
   </g>
   <g id="patch_4">
    <path d="M 36 0 
Q 36 90 36 90 
L 873.36 90 
L 873.36 0 
z
" clip-path="url(#p1127f76aa5)" style="fill: #ffffff"/>
   </g>
   <g id="patch_5">
    <path d="M 36 198 
Q 36 306 36 306 
L 873.36 306 
L 873.36 198 
z
" clip-path="url(#p1127f76aa5)" style="fill: #ffffff"/>
   </g>
   <g id="patch_6">
    <path d="M 72 126 
Q 72 162 72 162 
L 873.36 162 
L 873.36 126 
z
" clip-path="url(#p1127f76aa5)" style="fill: #ffffff"/>
   </g>
   <g id="patch_7">
    <path d="M 112.68 72 
Q 112.68 90 112.68 90 
L 873.36 90 
L 873.36 72 
z
" clip-path="url(#p1127f76aa5)" style="fill: #ffffff"/>
   </g>
   <g id="patch_8">
    <path d="M 112.68 198 
Q 112.68 216 112.68 216 
L 873.36 216 
L 873.36 198 
z
" clip-path="url(#p1127f76aa5)" style="fill: #ffffff"/>
   </g>
   <g id="patch_9">
    <path d="M 148.68 36 
Q 112.68 36 112.68 72 
L 873.36 72 
L 873.36 36 
z
" clip-path="url(#p1127f76aa5)" style="fill: #ffffff"/>
   </g>
   <g id="patch_10">
    <path d="M 112.68 216 
Q 112.68 252 148.68 252 
L 873.36 252 
L 873.36 216 
z
" clip-path="url(#p1127f76aa5)" style="fill: #ffffff"/>
   </g>
   <g id="patch_11">
    <path d="M 130.68 90 
Q 130.68 126 130.68 126 
L 873.36 126 
L 873.36 90 
z
" clip-path="url(#p1127f76aa5)" style="fill: #ffffff"/>
   </g>
   <g id="patch_12">
    <path d="M 130.68 162 
Q 130.68 198 130.68 198 
L 873.36 198 
L 873.36 162 
z
" clip-path="url(#p1127f76aa5)" style="fill: #ffffff"/>
   </g>
   <g id="patch_13">
    <path d="M 146.34 342 
Q 146.34 360 146.34 360 
L 873.36 360 
L 873.36 342 
z
" clip-path="url(#p1127f76aa5)" style="fill: #ffffff"/>
   </g>
   <g id="patch_14">
    <path d="M 148.68 36 
Q 184.68 36 184.68 72 
L 873.36 72 
L 873.36 36 
z
" clip-path="url(#p1127f76aa5)" style="fill: #ffffff"/>
   </g>
   <g id="patch_15">
    <path d="M 184.68 216 
Q 184.68 252 148.68 252 
L 873.36 252 
L 873.36 216 
z
" clip-path="url(#p1127f76aa5)" style="fill: #ffffff"/>
   </g>
   <g id="patch_16">
    <path d="M 184.68 72 
Q 184.68 216 184.68 216 
L 873.36 216 
L 873.36 72 
z
" clip-path="url(#p1127f76aa5)" style="fill: #ffffff"/>
   </g>
   <g id="patch_17">
    <path d="M 256.68 0 
Q 256.68 306 256.68 306 
L 873.36 306 
L 873.36 0 
z
" clip-path="url(#p1127f76aa5)" style="fill: #ffffff"/>
   </g>
   <g id="patch_18">
    <path d="M 274.68 306 
Q 274.68 342 274.68 342 
L 873.36 342 
L 873.36 306 
z
" clip-path="url(#p1127f76aa5)" style="fill: #ffffff"/>
   </g>
   <g id="patch_19">
    <path d="M 400.68 0 
Q 400.68 162 400.68 162 
L 873.36 162 
L 873.36 0 
z
" clip-path="url(#p1127f76aa5)" style="fill: #ffffff"/>
   </g>
   <g id="patch_20">
    <path d="M 436.68 198 
Q 436.68 360 436.68 360 
L 873.36 360 
L 873.36 198 
z
" clip-path="url(#p1127f76aa5)" style="fill: #ffffff"/>
   </g>
   <g id="patch_21">
    <path d="M 472.68 0 
Q 472.68 162 472.68 162 
L 873.36 162 
L 873.36 0 
z
" clip-path="url(#p1127f76aa5)" style="fill: #ffffff"/>
   </g>
   <g id="patch_22">
    <path d="M 490.68 162 
Q 490.68 198 490.68 198 
L 873.36 198 
L 873.36 162 
z
" clip-path="url(#p1127f76aa5)" style="fill: #ffffff"/>
   </g>
   <g id="patch_23">
    <path d="M 616.68 0 
Q 616.68 306 616.68 306 
L 873.36 306 
L 873.36 0 
z
" clip-path="url(#p1127f76aa5)" style="fill: #ffffff"/>
   </g>
   <g id="patch_24">
    <path d="M 688.68 72 
Q 688.68 216 688.68 216 
L 873.36 216 
L 873.36 72 
z
" clip-path="url(#p1127f76aa5)" style="fill: #ffffff"/>
   </g>
   <g id="patch_25">
    <path d="M 724.68 36 
Q 688.68 36 688.68 72 
L 873.36 72 
L 873.36 36 
z
" clip-path="url(#p1127f76aa5)" style="fill: #ffffff"/>
   </g>
   <g id="patch_26">
    <path d="M 688.68 216 
Q 688.68 252 724.68 252 
L 873.36 252 
L 873.36 216 
z
" clip-path="url(#p1127f76aa5)" style="fill: #ffffff"/>
   </g>
   <g id="patch_27">
    <path d="M 724.68 342 
Q 724.68 360 724.68 360 
L 873.36 360 
L 873.36 342 
z
" clip-path="url(#p1127f76aa5)" style="fill: #ffffff"/>
   </g>
   <g id="patch_28">
    <path d="M 724.68 36 
Q 760.68 36 760.68 72 
L 873.36 72 
L 873.36 36 
z
" clip-path="url(#p1127f76aa5)" style="fill: #ffffff"/>
   </g>
   <g id="patch_29">
    <path d="M 760.68 216 
Q 760.68 252 724.68 252 
L 873.36 252 
L 873.36 216 
z
" clip-path="url(#p1127f76aa5)" style="fill: #ffffff"/>
   </g>
   <g id="patch_30">
    <path d="M 760.68 72 
Q 760.68 90 760.68 90 
L 873.36 90 
L 873.36 72 
z
" clip-path="url(#p1127f76aa5)" style="fill: #ffffff"/>
   </g>
   <g id="patch_31">
    <path d="M 760.68 198 
Q 760.68 216 760.68 216 
L 873.36 216 
L 873.36 198 
z
" clip-path="url(#p1127f76aa5)" style="fill: #ffffff"/>
   </g>
   <g id="patch_32">
    <path d="M 796.68 126 
Q 796.68 162 796.68 162 
L 873.36 162 
L 873.36 126 
z
" clip-path="url(#p1127f76aa5)" style="fill: #ffffff"/>
   </g>
   <g id="patch_33">
    <path d="M 832.68 0 
Q 832.68 90 832.68 90 
L 873.36 90 
L 873.36 0 
z
" clip-path="url(#p1127f76aa5)" style="fill: #ffffff"/>
   </g>
   <g id="patch_34">
    <path d="M 832.68 198 
Q 832.68 306 832.68 306 
L 873.36 306 
L 873.36 198 
z
" clip-path="url(#p1127f76aa5)" style="fill: #ffffff"/>
   </g>
   <g id="patch_35">
    <path d="M 850.68 90 
Q 850.68 126 850.68 126 
L 873.36 126 
L 873.36 90 
z
" clip-path="url(#p1127f76aa5)" style="fill: #ffffff"/>
   </g>
   <g id="patch_36">
    <path d="M 850.68 162 
Q 850.68 198 850.68 198 
L 873.36 198 
L 873.36 162 
z
" clip-path="url(#p1127f76aa5)" style="fill: #ffffff"/>
   </g>
   <g id="patch_37">
    <path d="M 850.68 306 
Q 850.68 342 850.68 342 
L 873.36 342 
L 873.36 306 
z
" clip-path="url(#p1127f76aa5)" style="fill: #ffffff"/>
   </g>
   <g id="patch_38">
    <path d="M 36 0 
Q 36 90 36 90 
" clip-path="url(#p1127f76aa5)" style="fill: none; stroke: #000000; stroke-linejoin: miter"/>
   </g>
   <g id="patch_39">
    <path d="M 148.68 36 
Q 112.68 36 112.68 72 
" clip-path="url(#p1127f76aa5)" style="fill: none; stroke: #000000; stroke-linejoin: miter"/>
   </g>
   <g id="patch_40">
    <path d="M 148.68 36 
Q 184.68 36 184.68 72 
" clip-path="url(#p1127f76aa5)" style="fill: none; stroke: #000000; stroke-linejoin: miter"/>
   </g>
   <g id="patch_41">
    <path d="M 112.68 72 
Q 112.68 90 112.68 90 
" clip-path="url(#p1127f76aa5)" style="fill: none; stroke: #000000; stroke-linejoin: miter"/>
   </g>
   <g id="patch_42">
    <path d="M 184.68 72 
Q 184.68 216 184.68 216 
" clip-path="url(#p1127f76aa5)" style="fill: none; stroke: #000000; stroke-linejoin: miter"/>
   </g>
   <g id="patch_43">
    <path d="M 72 126 
Q 72 162 72 162 
" clip-path="url(#p1127f76aa5)" style="fill: none; stroke: #000000; stroke-linejoin: miter"/>
   </g>
   <g id="patch_44">
    <path d="M 36 198 
Q 36 306 36 306 
" clip-path="url(#p1127f76aa5)" style="fill: none; stroke: #000000; stroke-linejoin: miter"/>
   </g>
   <g id="patch_45">
    <path d="M 112.68 198 
Q 112.68 216 112.68 216 
" clip-path="url(#p1127f76aa5)" style="fill: none; stroke: #000000; stroke-linejoin: miter"/>
   </g>
   <g id="patch_46">
    <path d="M 112.68 216 
Q 112.68 252 148.68 252 
" clip-path="url(#p1127f76aa5)" style="fill: none; stroke: #000000; stroke-linejoin: miter"/>
   </g>
   <g id="patch_47">
    <path d="M 184.68 216 
Q 184.68 252 148.68 252 
" clip-path="url(#p1127f76aa5)" style="fill: none; stroke: #000000; stroke-linejoin: miter"/>
   </g>
   <g id="patch_48">
    <path d="M 256.68 0 
Q 256.68 306 256.68 306 
" clip-path="url(#p1127f76aa5)" style="fill: none; stroke: #000000; stroke-linejoin: miter"/>
   </g>
   <g id="patch_49">
    <path d="M 146.34 342 
Q 146.34 360 146.34 360 
" clip-path="url(#p1127f76aa5)" style="fill: none; stroke: #000000; stroke-linejoin: miter"/>
   </g>
   <g id="patch_50">
    <path d="M 400.68 0 
Q 400.68 162 400.68 162 
" clip-path="url(#p1127f76aa5)" style="fill: none; stroke: #000000; stroke-linejoin: miter"/>
   </g>
   <g id="patch_51">
    <path d="M 472.68 0 
Q 472.68 162 472.68 162 
" clip-path="url(#p1127f76aa5)" style="fill: none; stroke: #000000; stroke-linejoin: miter"/>
   </g>
   <g id="patch_52">
    <path d="M 436.68 198 
Q 436.68 360 436.68 360 
" clip-path="url(#p1127f76aa5)" style="fill: none; stroke: #000000; stroke-linejoin: miter"/>
   </g>
   <g id="patch_53">
    <path d="M 616.68 0 
Q 616.68 306 616.68 306 
" clip-path="url(#p1127f76aa5)" style="fill: none; stroke: #000000; stroke-linejoin: miter"/>
   </g>
   <g id="patch_54">
    <path d="M 724.68 36 
Q 688.68 36 688.68 72 
" clip-path="url(#p1127f76aa5)" style="fill: none; stroke: #000000; stroke-linejoin: miter"/>
   </g>
   <g id="patch_55">
    <path d="M 724.68 36 
Q 760.68 36 760.68 72 
" clip-path="url(#p1127f76aa5)" style="fill: none; stroke: #000000; stroke-linejoin: miter"/>
   </g>
   <g id="patch_56">
    <path d="M 688.68 72 
Q 688.68 216 688.68 216 
" clip-path="url(#p1127f76aa5)" style="fill: none; stroke: #000000; stroke-linejoin: miter"/>
   </g>
   <g id="patch_57">
    <path d="M 760.68 72 
Q 760.68 90 760.68 90 
" clip-path="url(#p1127f76aa5)" style="fill: none; stroke: #000000; stroke-linejoin: miter"/>
   </g>
   <g id="patch_58">
    <path d="M 832.68 0 
Q 832.68 90 832.68 90 
" clip-path="url(#p1127f76aa5)" style="fill: none; stroke: #000000; stroke-linejoin: miter"/>
   </g>
   <g id="patch_59">
    <path d="M 796.68 126 
Q 796.68 162 796.68 162 
" clip-path="url(#p1127f76aa5)" style="fill: none; stroke: #000000; stroke-linejoin: miter"/>
   </g>
   <g id="patch_60">
    <path d="M 760.68 198 
Q 760.68 216 760.68 216 
" clip-path="url(#p1127f76aa5)" style="fill: none; stroke: #000000; stroke-linejoin: miter"/>
   </g>
   <g id="patch_61">
    <path d="M 832.68 198 
Q 832.68 306 832.68 306 
" clip-path="url(#p1127f76aa5)" style="fill: none; stroke: #000000; stroke-linejoin: miter"/>
   </g>
   <g id="patch_62">
    <path d="M 688.68 216 
Q 688.68 252 724.68 252 
" clip-path="url(#p1127f76aa5)" style="fill: none; stroke: #000000; stroke-linejoin: miter"/>
   </g>
   <g id="patch_63">
    <path d="M 760.68 216 
Q 760.68 252 724.68 252 
" clip-path="url(#p1127f76aa5)" style="fill: none; stroke: #000000; stroke-linejoin: miter"/>
   </g>
   <g id="patch_64">
    <path d="M 724.68 342 
Q 724.68 360 724.68 360 
" clip-path="url(#p1127f76aa5)" style="fill: none; stroke: #000000; stroke-linejoin: miter"/>
   </g>
   <g id="patch_65">
    <path d="M 18 126 
L 18 90 
L 130.68 90 
L 130.68 126 
z
" clip-path="url(#p1127f76aa5)" style="fill: #ffffff; stroke: #000000; stroke-linejoin: miter"/>
   </g>
   <g id="patch_66">
    <path d="M 18 198 
L 18 162 
L 130.68 162 
L 130.68 198 
z
" clip-path="url(#p1127f76aa5)" style="fill: #ffffff; stroke: #000000; stroke-linejoin: miter"/>
   </g>
   <g id="patch_67">
    <path d="M 18 342 
L 18 306 
L 274.68 306 
L 274.68 342 
z
" clip-path="url(#p1127f76aa5)" style="fill: #ffffff; stroke: #000000; stroke-linejoin: miter"/>
   </g>
   <g id="patch_68">
    <path d="M 382.68 198 
L 382.68 162 
L 490.68 162 
L 490.68 198 
z
" clip-path="url(#p1127f76aa5)" style="fill: #ffffff; stroke: #000000; stroke-linejoin: miter"/>
   </g>
   <g id="patch_69">
    <path d="M 742.68 126 
L 742.68 90 
L 850.68 90 
L 850.68 126 
z
" clip-path="url(#p1127f76aa5)" style="fill: #ffffff; stroke: #000000; stroke-linejoin: miter"/>
   </g>
   <g id="patch_70">
    <path d="M 742.68 198 
L 742.68 162 
L 850.68 162 
L 850.68 198 
z
" clip-path="url(#p1127f76aa5)" style="fill: #ffffff; stroke: #000000; stroke-linejoin: miter"/>
   </g>
   <g id="patch_71">
    <path d="M 598.68 342 
L 598.68 306 
L 850.68 306 
L 850.68 342 
z
" clip-path="url(#p1127f76aa5)" style="fill: #ffffff; stroke: #000000; stroke-linejoin: miter"/>
   </g>
   <g id="PathCollection_1">
    <defs>
     <path id="C0_0_f63812d696" d="M 0 4.639504 
C 1.230411 4.639504 2.410593 4.150657 3.280625 3.280625 
C 4.150657 2.410593 4.639504 1.230411 4.639504 -0 
C 4.639504 -1.230411 4.150657 -2.410593 3.280625 -3.280625 
C 2.410593 -4.150657 1.230411 -4.639504 0 -4.639504 
C -1.230411 -4.639504 -2.410593 -4.150657 -3.280625 -3.280625 
C -4.150657 -2.410593 -4.639504 -1.230411 -4.639504 0 
C -4.639504 1.230411 -4.150657 2.410593 -3.280625 3.280625 
C -2.410593 4.150657 -1.230411 4.639504 0 4.639504 
z
"/>
    </defs>
    <g clip-path="url(#p1127f76aa5)">
     <use xlink:href="#C0_0_f63812d696" x="328.68" y="180" style="fill: #ffffff; stroke: #ffffff"/>
    </g>
    <g clip-path="url(#p1127f76aa5)">
     <use xlink:href="#C0_0_f63812d696" x="544.68" y="180" style="fill: #ffffff; stroke: #ffffff"/>
    </g>
   </g>
   <g id="text_1">
    <!-- x -->
    <g transform="translate(40.5 12.098437) scale(0.1 -0.1)">
     <defs>
      <path id="DejaVuSans-78" d="M 3513 3500 
L 2247 1797 
L 3578 0 
L 2900 0 
L 1881 1375 
L 863 0 
L 184 0 
L 1544 1831 
L 300 3500 
L 978 3500 
L 1906 2253 
L 2834 3500 
L 3513 3500 
z
" transform="scale(0.015625)"/>
     </defs>
     <use xlink:href="#DejaVuSans-78"/>
    </g>
   </g>
   <g id="text_2">
    <!-- y -->
    <g transform="translate(117.18 66.098437) scale(0.1 -0.1)">
     <defs>
      <path id="DejaVuSans-79" d="M 2059 -325 
Q 1816 -950 1584 -1140 
Q 1353 -1331 966 -1331 
L 506 -1331 
L 506 -850 
L 844 -850 
Q 1081 -850 1212 -737 
Q 1344 -625 1503 -206 
L 1606 56 
L 191 3500 
L 800 3500 
L 1894 763 
L 2988 3500 
L 3597 3500 
L 2059 -325 
z
" transform="scale(0.015625)"/>
     </defs>
     <use xlink:href="#DejaVuSans-79"/>
    </g>
   </g>
   <g id="text_3">
    <!-- y -->
    <g transform="translate(189.18 66.098437) scale(0.1 -0.1)">
     <use xlink:href="#DejaVuSans-79"/>
    </g>
   </g>
   <g id="text_4">
    <!-- z -->
    <g transform="translate(76.5 138.098437) scale(0.1 -0.1)">
     <defs>
      <path id="DejaVuSans-7a" d="M 353 3500 
L 3084 3500 
L 3084 2975 
L 922 459 
L 3084 459 
L 3084 0 
L 275 0 
L 275 525 
L 2438 3041 
L 353 3041 
L 353 3500 
z
" transform="scale(0.015625)"/>
     </defs>
     <use xlink:href="#DejaVuSans-7a"/>
    </g>
   </g>
   <g id="text_5">
    <!-- (z &lt;&lt; y) -->
    <g transform="translate(40.5 210.098437) scale(0.1 -0.1)">
     <defs>
      <path id="DejaVuSans-28" d="M 1984 4856 
Q 1566 4138 1362 3434 
Q 1159 2731 1159 2009 
Q 1159 1288 1364 580 
Q 1569 -128 1984 -844 
L 1484 -844 
Q 1016 -109 783 600 
Q 550 1309 550 2009 
Q 550 2706 781 3412 
Q 1013 4119 1484 4856 
L 1984 4856 
z
" transform="scale(0.015625)"/>
      <path id="DejaVuSans-20" transform="scale(0.015625)"/>
      <path id="DejaVuSans-3c" d="M 4684 3150 
L 1459 2003 
L 4684 863 
L 4684 294 
L 678 1747 
L 678 2266 
L 4684 3719 
L 4684 3150 
z
" transform="scale(0.015625)"/>
      <path id="DejaVuSans-29" d="M 513 4856 
L 1013 4856 
Q 1481 4119 1714 3412 
Q 1947 2706 1947 2009 
Q 1947 1309 1714 600 
Q 1481 -109 1013 -844 
L 513 -844 
Q 928 -128 1133 580 
Q 1338 1288 1338 2009 
Q 1338 2731 1133 3434 
Q 928 4138 513 4856 
z
" transform="scale(0.015625)"/>
     </defs>
     <use xlink:href="#DejaVuSans-28"/>
     <use xlink:href="#DejaVuSans-7a" transform="translate(39.013672 0)"/>
     <use xlink:href="#DejaVuSans-20" transform="translate(91.503906 0)"/>
     <use xlink:href="#DejaVuSans-3c" transform="translate(123.291016 0)"/>
     <use xlink:href="#DejaVuSans-3c" transform="translate(207.080078 0)"/>
     <use xlink:href="#DejaVuSans-20" transform="translate(290.869141 0)"/>
     <use xlink:href="#DejaVuSans-79" transform="translate(322.65625 0)"/>
     <use xlink:href="#DejaVuSans-29" transform="translate(381.835938 0)"/>
    </g>
   </g>
   <g id="text_6">
    <!-- y -->
    <g transform="translate(117.18 210.098437) scale(0.1 -0.1)">
     <use xlink:href="#DejaVuSans-79"/>
    </g>
   </g>
   <g id="text_7">
    <!-- y -->
    <g transform="translate(261.18 12.098437) scale(0.1 -0.1)">
     <use xlink:href="#DejaVuSans-79"/>
    </g>
   </g>
   <g id="text_8">
    <!-- z -->
    <g transform="translate(150.84 354.098437) scale(0.1 -0.1)">
     <use xlink:href="#DejaVuSans-7a"/>
    </g>
   </g>
   <g id="text_9">
    <!-- x -->
    <g transform="translate(405.18 12.098437) scale(0.1 -0.1)">
     <use xlink:href="#DejaVuSans-78"/>
    </g>
   </g>
   <g id="text_10">
    <!-- y -->
    <g transform="translate(477.18 12.098437) scale(0.1 -0.1)">
     <use xlink:href="#DejaVuSans-79"/>
    </g>
   </g>
   <g id="text_11">
    <!-- z -->
    <g transform="translate(441.18 210.098437) scale(0.1 -0.1)">
     <use xlink:href="#DejaVuSans-7a"/>
    </g>
   </g>
   <g id="text_12">
    <!-- x -->
    <g transform="translate(621.18 12.098437) scale(0.1 -0.1)">
     <use xlink:href="#DejaVuSans-78"/>
    </g>
   </g>
   <g id="text_13">
    <!-- x -->
    <g transform="translate(693.18 66.098437) scale(0.1 -0.1)">
     <use xlink:href="#DejaVuSans-78"/>
    </g>
   </g>
   <g id="text_14">
    <!-- x -->
    <g transform="translate(765.18 66.098437) scale(0.1 -0.1)">
     <use xlink:href="#DejaVuSans-78"/>
    </g>
   </g>
   <g id="text_15">
    <!-- y -->
    <g transform="translate(837.18 12.098437) scale(0.1 -0.1)">
     <use xlink:href="#DejaVuSans-79"/>
    </g>
   </g>
   <g id="text_16">
    <!-- z -->
    <g transform="translate(801.18 138.098437) scale(0.1 -0.1)">
     <use xlink:href="#DejaVuSans-7a"/>
    </g>
   </g>
   <g id="text_17">
    <!-- x -->
    <g transform="translate(765.18 210.098437) scale(0.1 -0.1)">
     <use xlink:href="#DejaVuSans-78"/>
    </g>
   </g>
   <g id="text_18">
    <!-- (x &gt;&gt; z) -->
    <g transform="translate(837.18 210.098437) scale(0.1 -0.1)">
     <defs>
      <path id="DejaVuSans-3e" d="M 678 3150 
L 678 3719 
L 4684 2266 
L 4684 1747 
L 678 294 
L 678 863 
L 3897 2003 
L 678 3150 
z
" transform="scale(0.015625)"/>
     </defs>
     <use xlink:href="#DejaVuSans-28"/>
     <use xlink:href="#DejaVuSans-78" transform="translate(39.013672 0)"/>
     <use xlink:href="#DejaVuSans-20" transform="translate(98.193359 0)"/>
     <use xlink:href="#DejaVuSans-3e" transform="translate(129.980469 0)"/>
     <use xlink:href="#DejaVuSans-3e" transform="translate(213.769531 0)"/>
     <use xlink:href="#DejaVuSans-20" transform="translate(297.558594 0)"/>
     <use xlink:href="#DejaVuSans-7a" transform="translate(329.345703 0)"/>
     <use xlink:href="#DejaVuSans-29" transform="translate(381.835938 0)"/>
    </g>
   </g>
   <g id="text_19">
    <!-- z -->
    <g transform="translate(729.18 354.098437) scale(0.1 -0.1)">
     <use xlink:href="#DejaVuSans-7a"/>
    </g>
   </g>
   <g id="text_20">
    <!-- g -->
    <g transform="translate(71.165781 110.759375) scale(0.1 -0.1)">
     <defs>
      <path id="DejaVuSans-67" d="M 2906 1791 
Q 2906 2416 2648 2759 
Q 2391 3103 1925 3103 
Q 1463 3103 1205 2759 
Q 947 2416 947 1791 
Q 947 1169 1205 825 
Q 1463 481 1925 481 
Q 2391 481 2648 825 
Q 2906 1169 2906 1791 
z
M 3481 434 
Q 3481 -459 3084 -895 
Q 2688 -1331 1869 -1331 
Q 1566 -1331 1297 -1286 
Q 1028 -1241 775 -1147 
L 775 -588 
Q 1028 -725 1275 -790 
Q 1522 -856 1778 -856 
Q 2344 -856 2625 -561 
Q 2906 -266 2906 331 
L 2906 616 
Q 2728 306 2450 153 
Q 2172 0 1784 0 
Q 1141 0 747 490 
Q 353 981 353 1791 
Q 353 2603 747 3093 
Q 1141 3584 1784 3584 
Q 2172 3584 2450 3431 
Q 2728 3278 2906 2969 
L 2906 3500 
L 3481 3500 
L 3481 434 
z
" transform="scale(0.015625)"/>
     </defs>
     <use xlink:href="#DejaVuSans-67"/>
    </g>
   </g>
   <g id="text_21">
    <!-- lambda -->
    <g transform="translate(55.604062 182.759375) scale(0.1 -0.1)">
     <defs>
      <path id="DejaVuSans-6c" d="M 603 4863 
L 1178 4863 
L 1178 0 
L 603 0 
L 603 4863 
z
" transform="scale(0.015625)"/>
      <path id="DejaVuSans-61" d="M 2194 1759 
Q 1497 1759 1228 1600 
Q 959 1441 959 1056 
Q 959 750 1161 570 
Q 1363 391 1709 391 
Q 2188 391 2477 730 
Q 2766 1069 2766 1631 
L 2766 1759 
L 2194 1759 
z
M 3341 1997 
L 3341 0 
L 2766 0 
L 2766 531 
Q 2569 213 2275 61 
Q 1981 -91 1556 -91 
Q 1019 -91 701 211 
Q 384 513 384 1019 
Q 384 1609 779 1909 
Q 1175 2209 1959 2209 
L 2766 2209 
L 2766 2266 
Q 2766 2663 2505 2880 
Q 2244 3097 1772 3097 
Q 1472 3097 1187 3025 
Q 903 2953 641 2809 
L 641 3341 
Q 956 3463 1253 3523 
Q 1550 3584 1831 3584 
Q 2591 3584 2966 3190 
Q 3341 2797 3341 1997 
z
" transform="scale(0.015625)"/>
      <path id="DejaVuSans-6d" d="M 3328 2828 
Q 3544 3216 3844 3400 
Q 4144 3584 4550 3584 
Q 5097 3584 5394 3201 
Q 5691 2819 5691 2113 
L 5691 0 
L 5113 0 
L 5113 2094 
Q 5113 2597 4934 2840 
Q 4756 3084 4391 3084 
Q 3944 3084 3684 2787 
Q 3425 2491 3425 1978 
L 3425 0 
L 2847 0 
L 2847 2094 
Q 2847 2600 2669 2842 
Q 2491 3084 2119 3084 
Q 1678 3084 1418 2786 
Q 1159 2488 1159 1978 
L 1159 0 
L 581 0 
L 581 3500 
L 1159 3500 
L 1159 2956 
Q 1356 3278 1631 3431 
Q 1906 3584 2284 3584 
Q 2666 3584 2933 3390 
Q 3200 3197 3328 2828 
z
" transform="scale(0.015625)"/>
      <path id="DejaVuSans-62" d="M 3116 1747 
Q 3116 2381 2855 2742 
Q 2594 3103 2138 3103 
Q 1681 3103 1420 2742 
Q 1159 2381 1159 1747 
Q 1159 1113 1420 752 
Q 1681 391 2138 391 
Q 2594 391 2855 752 
Q 3116 1113 3116 1747 
z
M 1159 2969 
Q 1341 3281 1617 3432 
Q 1894 3584 2278 3584 
Q 2916 3584 3314 3078 
Q 3713 2572 3713 1747 
Q 3713 922 3314 415 
Q 2916 -91 2278 -91 
Q 1894 -91 1617 61 
Q 1341 213 1159 525 
L 1159 0 
L 581 0 
L 581 4863 
L 1159 4863 
L 1159 2969 
z
" transform="scale(0.015625)"/>
      <path id="DejaVuSans-64" d="M 2906 2969 
L 2906 4863 
L 3481 4863 
L 3481 0 
L 2906 0 
L 2906 525 
Q 2725 213 2448 61 
Q 2172 -91 1784 -91 
Q 1150 -91 751 415 
Q 353 922 353 1747 
Q 353 2572 751 3078 
Q 1150 3584 1784 3584 
Q 2172 3584 2448 3432 
Q 2725 3281 2906 2969 
z
M 947 1747 
Q 947 1113 1208 752 
Q 1469 391 1925 391 
Q 2381 391 2643 752 
Q 2906 1113 2906 1747 
Q 2906 2381 2643 2742 
Q 2381 3103 1925 3103 
Q 1469 3103 1208 2742 
Q 947 2381 947 1747 
z
" transform="scale(0.015625)"/>
     </defs>
     <use xlink:href="#DejaVuSans-6c"/>
     <use xlink:href="#DejaVuSans-61" transform="translate(27.783203 0)"/>
     <use xlink:href="#DejaVuSans-6d" transform="translate(89.0625 0)"/>
     <use xlink:href="#DejaVuSans-62" transform="translate(186.474609 0)"/>
     <use xlink:href="#DejaVuSans-64" transform="translate(249.951172 0)"/>
     <use xlink:href="#DejaVuSans-61" transform="translate(313.427734 0)"/>
    </g>
   </g>
   <g id="text_22">
    <!-- &lt;&lt; -->
    <g transform="translate(137.960312 326.759375) scale(0.1 -0.1)">
     <use xlink:href="#DejaVuSans-3c"/>
     <use xlink:href="#DejaVuSans-3c" transform="translate(83.789062 0)"/>
    </g>
   </g>
   <g id="text_23">
    <!-- g -->
    <g transform="translate(433.505781 182.759375) scale(0.1 -0.1)">
     <use xlink:href="#DejaVuSans-67"/>
    </g>
   </g>
   <g id="text_24">
    <!-- g -->
    <g transform="translate(793.505781 110.759375) scale(0.1 -0.1)">
     <use xlink:href="#DejaVuSans-67"/>
    </g>
   </g>
   <g id="text_25">
    <!-- lambda -->
    <g transform="translate(777.944062 182.759375) scale(0.1 -0.1)">
     <use xlink:href="#DejaVuSans-6c"/>
     <use xlink:href="#DejaVuSans-61" transform="translate(27.783203 0)"/>
     <use xlink:href="#DejaVuSans-6d" transform="translate(89.0625 0)"/>
     <use xlink:href="#DejaVuSans-62" transform="translate(186.474609 0)"/>
     <use xlink:href="#DejaVuSans-64" transform="translate(249.951172 0)"/>
     <use xlink:href="#DejaVuSans-61" transform="translate(313.427734 0)"/>
    </g>
   </g>
   <g id="text_26">
    <!-- &gt;&gt; -->
    <g transform="translate(716.300312 326.759375) scale(0.1 -0.1)">
     <use xlink:href="#DejaVuSans-3e"/>
     <use xlink:href="#DejaVuSans-3e" transform="translate(83.789062 0)"/>
    </g>
   </g>
   <g id="text_27">
    <g clip-path="url(#p1127f76aa5)">
     <!-- = -->
     <g transform="translate(323.652187 183.31125) scale(0.12 -0.12)">
      <defs>
       <path id="DejaVuSans-3d" d="M 678 2906 
L 4684 2906 
L 4684 2381 
L 678 2381 
L 678 2906 
z
M 678 1631 
L 4684 1631 
L 4684 1100 
L 678 1100 
L 678 1631 
z
" transform="scale(0.015625)"/>
      </defs>
      <use xlink:href="#DejaVuSans-3d"/>
     </g>
    </g>
   </g>
   <g id="text_28">
    <g clip-path="url(#p1127f76aa5)">
     <!-- = -->
     <g transform="translate(539.652187 183.31125) scale(0.12 -0.12)">
      <use xlink:href="#DejaVuSans-3d"/>
     </g>
    </g>
   </g>
  </g>
 </g>
 <defs>
  <clipPath id="p1127f76aa5">
   <rect x="0" y="0" width="873.36" height="360"/>
  </clipPath>
 </defs>
</svg>
