<?xml version="1.0" encoding="utf-8" standalone="no"?>
<!DOCTYPE svg PUBLIC "-//W3C//DTD SVG 1.1//EN"
  "http://www.w3.org/Graphics/SVG/1.1/DTD/svg11.dtd">
<svg xmlns:xlink="http://www.w3.org/1999/xlink" width="396pt" height="720pt" viewBox="0 0 396 720" xmlns="http://www.w3.org/2000/svg" version="1.1">
 <metadata>
  <rdf:RDF xmlns:dc="http://purl.org/dc/elements/1.1/" xmlns:cc="http://creativecommons.org/ns#" xmlns:rdf="http://www.w3.org/1999/02/22-rdf-syntax-ns#">
   <cc:Work>
    <dc:type rdf:resource="http://purl.org/dc/dcmitype/StillImage"/>
    <dc:format>image/svg+xml</dc:format>
    <dc:creator>
     <cc:Agent>
      <dc:title>Matplotlib v3.10.9, https://matplotlib.org/</dc:title>
     </cc:Agent>
    </dc:creator>
   </cc:Work>
  </rdf:RDF>
 </metadata>
 <defs>
  <style type="text/css">*{stroke-linejoin: round; stroke-linecap: butt}</style>
 </defs>
 <g id="figure_1">
  <g id="patch_1">
   <path d="M 0 720 
L 396 720 
L 396 0 
L 0 0 
z
" style="fill: #ffffff"/>
  </g>
  <g id="axes_1">
   <g id="patch_2">
    <path d="M 0 720 
L 396 720 
L 396 0 
L 0 0 
z
" clip-path="url(#p5c73d92a61)" style="fill: #ffffff; stroke: #ffffff; stroke-linejoin: miter"/>
   </g>
   <g id="patch_3">
    <path d="M 0 720 
Q 0 0 0 0 
L 396 0 
L 396 720 
z
" clip-path="url(#p5c73d92a61)" style="fill: #ffffff"/>
   </g>
   <g id="patch_4">
    <path d="M 54 0 
Q 54 126 54 126 
L 396 126 
L 396 0 
z
" clip-path="url(#p5c73d92a61)" style="fill: #cccccc"/>
   </g>
   <g id="patch_5">
    <path d="M 54 162 
Q 54 342 54 342 
L 396 342 
L 396 162 
z
" clip-path="url(#p5c73d92a61)" style="fill: #cccccc"/>
   </g>
   <g id="patch_6">
    <path d="M 54 378 
Q 54 486 54 486 
L 396 486 
L 396 378 
z
" clip-path="url(#p5c73d92a61)" style="fill: #cccccc"/>
   </g>
   <g id="patch_7">
    <path d="M 54 522 
Q 54 720 54 720 
L 396 720 
L 396 522 
z
" clip-path="url(#p5c73d92a61)" style="fill: #cccccc"/>
   </g>
   <g id="patch_8">
    <path d="M 72 0 
Q 72 126 72 126 
L 396 126 
L 396 0 
z
" clip-path="url(#p5c73d92a61)" style="fill: #ffffff"/>
   </g>
   <g id="patch_9">
    <path d="M 72 162 
Q 72 342 72 342 
L 396 342 
L 396 162 
z
" clip-path="url(#p5c73d92a61)" style="fill: #ffffff"/>
   </g>
   <g id="patch_10">
    <path d="M 72 378 
Q 72 486 72 486 
L 396 486 
L 396 378 
z
" clip-path="url(#p5c73d92a61)" style="fill: #ffffff"/>
   </g>
   <g id="patch_11">
    <path d="M 72 522 
Q 72 720 72 720 
L 396 720 
L 396 522 
z
" clip-path="url(#p5c73d92a61)" style="fill: #ffffff"/>
   </g>
   <g id="patch_12">
    <path d="M 144 0 
Q 144 126 144 126 
L 396 126 
L 396 0 
z
" clip-path="url(#p5c73d92a61)" style="fill: #cccccc"/>
   </g>
   <g id="patch_13">
    <path d="M 144 162 
Q 144 270 144 270 
L 396 270 
L 396 162 
z
" clip-path="url(#p5c73d92a61)" style="fill: #cccccc"/>
   </g>
   <g id="patch_14">
    <path d="M 144 306 
Q 144 342 144 342 
L 396 342 
L 396 306 
z
" clip-path="url(#p5c73d92a61)" style="fill: #cccccc"/>
   </g>
   <g id="patch_15">
    <path d="M 144 378 
Q 144 414 144 414 
L 396 414 
L 396 378 
z
" clip-path="url(#p5c73d92a61)" style="fill: #cccccc"/>
   </g>
   <g id="patch_16">
    <path d="M 144 450 
Q 144 486 144 486 
L 396 486 
L 396 450 
z
" clip-path="url(#p5c73d92a61)" style="fill: #cccccc"/>
   </g>
   <g id="patch_17">
    <path d="M 144 522 
Q 144 558 144 558 
L 396 558 
L 396 522 
z
" clip-path="url(#p5c73d92a61)" style="fill: #cccccc"/>
   </g>
   <g id="patch_18">
    <path d="M 144 594 
Q 144 720 144 720 
L 396 720 
L 396 594 
z
" clip-path="url(#p5c73d92a61)" style="fill: #cccccc"/>
   </g>
   <g id="patch_19">
    <path d="M 162 0 
Q 162 126 162 126 
L 396 126 
L 396 0 
z
" clip-path="url(#p5c73d92a61)" style="fill: #ffffff"/>
   </g>
   <g id="patch_20">
    <path d="M 162 162 
Q 162 270 162 270 
L 396 270 
L 396 162 
z
" clip-path="url(#p5c73d92a61)" style="fill: #ffffff"/>
   </g>
   <g id="patch_21">
    <path d="M 162 306 
Q 162 342 162 342 
L 396 342 
L 396 306 
z
" clip-path="url(#p5c73d92a61)" style="fill: #ffffff"/>
   </g>
   <g id="patch_22">
    <path d="M 162 378 
Q 162 414 162 414 
L 396 414 
L 396 378 
z
" clip-path="url(#p5c73d92a61)" style="fill: #ffffff"/>
   </g>
   <g id="patch_23">
    <path d="M 162 450 
Q 162 486 162 486 
L 396 486 
L 396 450 
z
" clip-path="url(#p5c73d92a61)" style="fill: #ffffff"/>
   </g>
   <g id="patch_24">
    <path d="M 162 522 
Q 162 558 162 558 
L 396 558 
L 396 522 
z
" clip-path="url(#p5c73d92a61)" style="fill: #ffffff"/>
   </g>
   <g id="patch_25">
    <path d="M 162 594 
Q 162 720 162 720 
L 396 720 
L 396 594 
z
" clip-path="url(#p5c73d92a61)" style="fill: #ffffff"/>
   </g>
   <g id="patch_26">
    <path d="M 180 126 
Q 180 162 180 162 
L 396 162 
L 396 126 
z
" clip-path="url(#p5c73d92a61)" style="fill: #ffffff"/>
   </g>
   <g id="patch_27">
    <path d="M 180 342 
Q 180 378 180 378 
L 396 378 
L 396 342 
z
" clip-path="url(#p5c73d92a61)" style="fill: #ffffff"/>
   </g>
   <g id="patch_28">
    <path d="M 180 486 
Q 180 522 180 522 
L 396 522 
L 396 486 
z
" clip-path="url(#p5c73d92a61)" style="fill: #ffffff"/>
   </g>
   <g id="patch_29">
    <path d="M 234 90 
Q 234 198 234 198 
L 396 198 
L 396 90 
z
" clip-path="url(#p5c73d92a61)" style="fill: #cccccc"/>
   </g>
   <g id="patch_30">
    <path d="M 234 234 
Q 234 270 234 270 
L 396 270 
L 396 234 
z
" clip-path="url(#p5c73d92a61)" style="fill: #cccccc"/>
   </g>
   <g id="patch_31">
    <path d="M 234 306 
Q 234 414 234 414 
L 396 414 
L 396 306 
z
" clip-path="url(#p5c73d92a61)" style="fill: #cccccc"/>
   </g>
   <g id="patch_32">
    <path d="M 234 450 
Q 234 558 234 558 
L 396 558 
L 396 450 
z
" clip-path="url(#p5c73d92a61)" style="fill: #cccccc"/>
   </g>
   <g id="patch_33">
    <path d="M 234 594 
Q 234 630 234 630 
L 396 630 
L 396 594 
z
" clip-path="url(#p5c73d92a61)" style="fill: #cccccc"/>
   </g>
   <g id="patch_34">
    <path d="M 252 90 
Q 252 198 252 198 
L 396 198 
L 396 90 
z
" clip-path="url(#p5c73d92a61)" style="fill: #ffffff"/>
   </g>
   <g id="patch_35">
    <path d="M 252 234 
Q 252 270 252 270 
L 396 270 
L 396 234 
z
" clip-path="url(#p5c73d92a61)" style="fill: #ffffff"/>
   </g>
   <g id="patch_36">
    <path d="M 252 306 
Q 252 414 252 414 
L 396 414 
L 396 306 
z
" clip-path="url(#p5c73d92a61)" style="fill: #ffffff"/>
   </g>
   <g id="patch_37">
    <path d="M 252 450 
Q 252 558 252 558 
L 396 558 
L 396 450 
z
" clip-path="url(#p5c73d92a61)" style="fill: #ffffff"/>
   </g>
   <g id="patch_38">
    <path d="M 252 594 
Q 252 630 252 630 
L 396 630 
L 396 594 
z
" clip-path="url(#p5c73d92a61)" style="fill: #ffffff"/>
   </g>
   <g id="patch_39">
    <path d="M 270 198 
Q 270 234 270 234 
L 396 234 
L 396 198 
z
" clip-path="url(#p5c73d92a61)" style="fill: #ffffff"/>
   </g>
   <g id="patch_40">
    <path d="M 270 270 
Q 270 306 270 306 
L 396 306 
L 396 270 
z
" clip-path="url(#p5c73d92a61)" style="fill: #ffffff"/>
   </g>
   <g id="patch_41">
    <path d="M 270 414 
Q 270 450 270 450 
L 396 450 
L 396 414 
z
" clip-path="url(#p5c73d92a61)" style="fill: #ffffff"/>
   </g>
   <g id="patch_42">
    <path d="M 270 558 
Q 270 594 270 594 
L 396 594 
L 396 558 
z
" clip-path="url(#p5c73d92a61)" style="fill: #ffffff"/>
   </g>
   <g id="patch_43">
    <path d="M 324 90 
Q 324 630 324 630 
L 396 630 
L 396 90 
z
" clip-path="url(#p5c73d92a61)" style="fill: #cccccc"/>
   </g>
   <g id="patch_44">
    <path d="M 342 90 
Q 342 630 342 630 
L 396 630 
L 396 90 
z
" clip-path="url(#p5c73d92a61)" style="fill: #ffffff"/>
   </g>
   <g id="patch_45">
    <path d="M 360 54 
Q 360 90 360 90 
L 396 90 
L 396 54 
z
" clip-path="url(#p5c73d92a61)" style="fill: #ffffff"/>
   </g>
   <g id="patch_46">
    <path d="M 360 630 
Q 360 666 360 666 
L 396 666 
L 396 630 
z
" clip-path="url(#p5c73d92a61)" style="fill: #ffffff"/>
   </g>
   <g id="patch_47">
    <path d="M 54 0 
Q 54 126 54 126 
" clip-path="url(#p5c73d92a61)" style="fill: none; stroke: #000000; stroke-linejoin: miter"/>
   </g>
   <g id="patch_48">
    <path d="M 72 0 
Q 72 126 72 126 
" clip-path="url(#p5c73d92a61)" style="fill: none; stroke: #000000; stroke-linejoin: miter"/>
   </g>
   <g id="patch_49">
    <path d="M 144 0 
Q 144 126 144 126 
" clip-path="url(#p5c73d92a61)" style="fill: none; stroke: #000000; stroke-linejoin: miter"/>
   </g>
   <g id="patch_50">
    <path d="M 162 0 
Q 162 126 162 126 
" clip-path="url(#p5c73d92a61)" style="fill: none; stroke: #000000; stroke-linejoin: miter"/>
   </g>
   <g id="patch_51">
    <path d="M 234 90 
Q 234 198 234 198 
" clip-path="url(#p5c73d92a61)" style="fill: none; stroke: #000000; stroke-linejoin: miter"/>
   </g>
   <g id="patch_52">
    <path d="M 252 90 
Q 252 198 252 198 
" clip-path="url(#p5c73d92a61)" style="fill: none; stroke: #000000; stroke-linejoin: miter"/>
   </g>
   <g id="patch_53">
    <path d="M 324 90 
Q 324 630 324 630 
" clip-path="url(#p5c73d92a61)" style="fill: none; stroke: #000000; stroke-linejoin: miter"/>
   </g>
   <g id="patch_54">
    <path d="M 342 90 
Q 342 630 342 630 
" clip-path="url(#p5c73d92a61)" style="fill: none; stroke: #000000; stroke-linejoin: miter"/>
   </g>
   <g id="patch_55">
    <path d="M 54 162 
Q 54 342 54 342 
" clip-path="url(#p5c73d92a61)" style="fill: none; stroke: #000000; stroke-linejoin: miter"/>
   </g>
   <g id="patch_56">
    <path d="M 72 162 
Q 72 342 72 342 
" clip-path="url(#p5c73d92a61)" style="fill: none; stroke: #000000; stroke-linejoin: miter"/>
   </g>
   <g id="patch_57">
    <path d="M 144 162 
Q 144 270 144 270 
" clip-path="url(#p5c73d92a61)" style="fill: none; stroke: #000000; stroke-linejoin: miter"/>
   </g>
   <g id="patch_58">
    <path d="M 162 162 
Q 162 270 162 270 
" clip-path="url(#p5c73d92a61)" style="fill: none; stroke: #000000; stroke-linejoin: miter"/>
   </g>
   <g id="patch_59">
    <path d="M 234 234 
Q 234 270 234 270 
" clip-path="url(#p5c73d92a61)" style="fill: none; stroke: #000000; stroke-linejoin: miter"/>
   </g>
   <g id="patch_60">
    <path d="M 252 234 
Q 252 270 252 270 
" clip-path="url(#p5c73d92a61)" style="fill: none; stroke: #000000; stroke-linejoin: miter"/>
   </g>
   <g id="patch_61">
    <path d="M 144 306 
Q 144 342 144 342 
" clip-path="url(#p5c73d92a61)" style="fill: none; stroke: #000000; stroke-linejoin: miter"/>
   </g>
   <g id="patch_62">
    <path d="M 162 306 
Q 162 342 162 342 
" clip-path="url(#p5c73d92a61)" style="fill: none; stroke: #000000; stroke-linejoin: miter"/>
   </g>
   <g id="patch_63">
    <path d="M 234 306 
Q 234 414 234 414 
" clip-path="url(#p5c73d92a61)" style="fill: none; stroke: #000000; stroke-linejoin: miter"/>
   </g>
   <g id="patch_64">
    <path d="M 252 306 
Q 252 414 252 414 
" clip-path="url(#p5c73d92a61)" style="fill: none; stroke: #000000; stroke-linejoin: miter"/>
   </g>
   <g id="patch_65">
    <path d="M 54 378 
Q 54 486 54 486 
" clip-path="url(#p5c73d92a61)" style="fill: none; stroke: #000000; stroke-linejoin: miter"/>
   </g>
   <g id="patch_66">
    <path d="M 72 378 
Q 72 486 72 486 
" clip-path="url(#p5c73d92a61)" style="fill: none; stroke: #000000; stroke-linejoin: miter"/>
   </g>
   <g id="patch_67">
    <path d="M 144 378 
Q 144 414 144 414 
" clip-path="url(#p5c73d92a61)" style="fill: none; stroke: #000000; stroke-linejoin: miter"/>
   </g>
   <g id="patch_68">
    <path d="M 162 378 
Q 162 414 162 414 
" clip-path="url(#p5c73d92a61)" style="fill: none; stroke: #000000; stroke-linejoin: miter"/>
   </g>
   <g id="patch_69">
    <path d="M 144 450 
Q 144 486 144 486 
" clip-path="url(#p5c73d92a61)" style="fill: none; stroke: #000000; stroke-linejoin: miter"/>
   </g>
   <g id="patch_70">
    <path d="M 162 450 
Q 162 486 162 486 
" clip-path="url(#p5c73d92a61)" style="fill: none; stroke: #000000; stroke-linejoin: miter"/>
   </g>
   <g id="patch_71">
    <path d="M 234 450 
Q 234 558 234 558 
" clip-path="url(#p5c73d92a61)" style="fill: none; stroke: #000000; stroke-linejoin: miter"/>
   </g>
   <g id="patch_72">
    <path d="M 252 450 
Q 252 558 252 558 
" clip-path="url(#p5c73d92a61)" style="fill: none; stroke: #000000; stroke-linejoin: miter"/>
   </g>
   <g id="patch_73">
    <path d="M 54 522 
Q 54 720 54 720 
" clip-path="url(#p5c73d92a61)" style="fill: none; stroke: #000000; stroke-linejoin: miter"/>
   </g>
   <g id="patch_74">
    <path d="M 72 522 
Q 72 720 72 720 
" clip-path="url(#p5c73d92a61)" style="fill: none; stroke: #000000; stroke-linejoin: miter"/>
   </g>
   <g id="patch_75">
    <path d="M 144 522 
Q 144 558 144 558 
" clip-path="url(#p5c73d92a61)" style="fill: none; stroke: #000000; stroke-linejoin: miter"/>
   </g>
   <g id="patch_76">
    <path d="M 162 522 
Q 162 558 162 558 
" clip-path="url(#p5c73d92a61)" style="fill: none; stroke: #000000; stroke-linejoin: miter"/>
   </g>
   <g id="patch_77">
    <path d="M 144 594 
Q 144 720 144 720 
" clip-path="url(#p5c73d92a61)" style="fill: none; stroke: #000000; stroke-linejoin: miter"/>
   </g>
   <g id="patch_78">
    <path d="M 162 594 
Q 162 720 162 720 
" clip-path="url(#p5c73d92a61)" style="fill: none; stroke: #000000; stroke-linejoin: miter"/>
   </g>
   <g id="patch_79">
    <path d="M 234 594 
Q 234 630 234 630 
" clip-path="url(#p5c73d92a61)" style="fill: none; stroke: #000000; stroke-linejoin: miter"/>
   </g>
   <g id="patch_80">
    <path d="M 252 594 
Q 252 630 252 630 
" clip-path="url(#p5c73d92a61)" style="fill: none; stroke: #000000; stroke-linejoin: miter"/>
   </g>
   <g id="patch_81">
    <path d="M 234 90 
C 234 60.176624 258.176624 36 288 36 
C 317.823376 36 342 60.176624 342 90 
L 324 90 
C 324 70.117749 307.882251 54 288 54 
C 268.117749 54 252 70.117749 252 90 
z
" clip-path="url(#p5c73d92a61)" style="fill: #cccccc"/>
   </g>
   <g id="patch_82">
    <path d="M 234 90 
C 234 60.176624 258.176624 36 288 36 
" clip-path="url(#p5c73d92a61)" style="fill: none; stroke: #000000; stroke-linejoin: miter"/>
   </g>
   <g id="patch_83">
    <path d="M 288 36 
C 317.823376 36 342 60.176624 342 90 
" clip-path="url(#p5c73d92a61)" style="fill: none; stroke: #000000; stroke-linejoin: miter"/>
   </g>
   <g id="patch_84">
    <path d="M 252 90 
C 252 70.117749 268.117749 54 288 54 
" clip-path="url(#p5c73d92a61)" style="fill: none; stroke: #000000; stroke-linejoin: miter"/>
   </g>
   <g id="patch_85">
    <path d="M 288 54 
C 307.882251 54 324 70.117749 324 90 
" clip-path="url(#p5c73d92a61)" style="fill: none; stroke: #000000; stroke-linejoin: miter"/>
   </g>
   <g id="patch_86">
    <path d="M 36 162 
L 36 126 
L 180 126 
L 180 162 
z
" clip-path="url(#p5c73d92a61)" style="fill: #ffffff; stroke: #000000; stroke-linejoin: miter"/>
   </g>
   <g id="patch_87">
    <path d="M 234 198 
C 234 202.5 238.5 204.75 243 207 
L 243 207 
C 247.5 204.75 252 202.5 252 198 
z
" clip-path="url(#p5c73d92a61)" style="fill: #cccccc"/>
   </g>
   <g id="patch_88">
    <path d="M 243 207 
C 247.5 209.25 252 211.5 252 216 
C 252 220.5 247.5 222.75 243 225 
L 243 225 
C 238.5 222.75 234 220.5 234 216 
C 234 211.5 238.5 209.25 243 207 
z
" clip-path="url(#p5c73d92a61)" style="fill: #7a7a7a"/>
   </g>
   <g id="patch_89">
    <path d="M 243 225 
C 238.5 227.25 234 229.5 234 234 
L 252 234 
C 252 229.5 247.5 227.25 243 225 
z
" clip-path="url(#p5c73d92a61)" style="fill: #cccccc"/>
   </g>
   <g id="patch_90">
    <path d="M 234 198 
C 234 201.15 236.205 203.1975 239.0715 204.91425 
" clip-path="url(#p5c73d92a61)" style="fill: none; stroke: #000000; stroke-linejoin: miter"/>
   </g>
   <g id="patch_91">
    <path d="M 246.9285 209.08575 
C 249.795 210.8025 252 212.85 252 216 
" clip-path="url(#p5c73d92a61)" style="fill: none; stroke: #000000; stroke-linejoin: miter"/>
   </g>
   <g id="patch_92">
    <path d="M 252 198 
C 252 207 234 207 234 216 
" clip-path="url(#p5c73d92a61)" style="fill: none; stroke: #000000; stroke-linejoin: miter"/>
   </g>
   <g id="patch_93">
    <path d="M 234 216 
C 234 219.15 236.205 221.1975 239.0715 222.91425 
" clip-path="url(#p5c73d92a61)" style="fill: none; stroke: #000000; stroke-linejoin: miter"/>
   </g>
   <g id="patch_94">
    <path d="M 246.9285 227.08575 
C 249.795 228.8025 252 230.85 252 234 
" clip-path="url(#p5c73d92a61)" style="fill: none; stroke: #000000; stroke-linejoin: miter"/>
   </g>
   <g id="patch_95">
    <path d="M 252 216 
C 252 225 234 225 234 234 
" clip-path="url(#p5c73d92a61)" style="fill: none; stroke: #000000; stroke-linejoin: miter"/>
   </g>
   <g id="patch_96">
    <path d="M 144 270 
C 144 275.4 152.1 279.18 163.44 282.312 
L 181.44 282.312 
C 170.1 279.18 162 275.4 162 270 
z
" clip-path="url(#p5c73d92a61)" style="fill: #cccccc"/>
   </g>
   <g id="patch_97">
    <path d="M 214.56 293.688 
C 225.9 296.82 234 300.6 234 306 
L 252 306 
C 252 300.6 243.9 296.82 232.56 293.688 
z
" clip-path="url(#p5c73d92a61)" style="fill: #cccccc"/>
   </g>
   <g id="patch_98">
    <path d="M 234 270 
C 234 288 144 288 144 306 
L 162 306 
C 162 288 252 288 252 270 
z
" clip-path="url(#p5c73d92a61)" style="fill: #cccccc"/>
   </g>
   <g id="patch_99">
    <path d="M 144 270 
C 144 275.4 152.1 279.18 163.44 282.312 
" clip-path="url(#p5c73d92a61)" style="fill: none; stroke: #000000; stroke-linejoin: miter"/>
   </g>
   <g id="patch_100">
    <path d="M 214.56 293.688 
C 225.9 296.82 234 300.6 234 306 
" clip-path="url(#p5c73d92a61)" style="fill: none; stroke: #000000; stroke-linejoin: miter"/>
   </g>
   <g id="patch_101">
    <path d="M 162 270 
C 162 275.4 170.1 279.18 181.44 282.312 
" clip-path="url(#p5c73d92a61)" style="fill: none; stroke: #000000; stroke-linejoin: miter"/>
   </g>
   <g id="patch_102">
    <path d="M 232.56 293.688 
C 243.9 296.82 252 300.6 252 306 
" clip-path="url(#p5c73d92a61)" style="fill: none; stroke: #000000; stroke-linejoin: miter"/>
   </g>
   <g id="patch_103">
    <path d="M 234 270 
C 234 288 144 288 144 306 
" clip-path="url(#p5c73d92a61)" style="fill: none; stroke: #000000; stroke-linejoin: miter"/>
   </g>
   <g id="patch_104">
    <path d="M 252 270 
C 252 288 162 288 162 306 
" clip-path="url(#p5c73d92a61)" style="fill: none; stroke: #000000; stroke-linejoin: miter"/>
   </g>
   <g id="patch_105">
    <path d="M 54 342 
C 54 347.4 62.1 351.18 73.44 354.312 
L 91.44 354.312 
C 80.1 351.18 72 347.4 72 342 
z
" clip-path="url(#p5c73d92a61)" style="fill: #cccccc"/>
   </g>
   <g id="patch_106">
    <path d="M 124.56 365.688 
C 135.9 368.82 144 372.6 144 378 
L 162 378 
C 162 372.6 153.9 368.82 142.56 365.688 
z
" clip-path="url(#p5c73d92a61)" style="fill: #cccccc"/>
   </g>
   <g id="patch_107">
    <path d="M 144 342 
C 144 360 54 360 54 378 
L 72 378 
C 72 360 162 360 162 342 
z
" clip-path="url(#p5c73d92a61)" style="fill: #cccccc"/>
   </g>
   <g id="patch_108">
    <path d="M 54 342 
C 54 347.4 62.1 351.18 73.44 354.312 
" clip-path="url(#p5c73d92a61)" style="fill: none; stroke: #000000; stroke-linejoin: miter"/>
   </g>
   <g id="patch_109">
    <path d="M 124.56 365.688 
C 135.9 368.82 144 372.6 144 378 
" clip-path="url(#p5c73d92a61)" style="fill: none; stroke: #000000; stroke-linejoin: miter"/>
   </g>
   <g id="patch_110">
    <path d="M 72 342 
C 72 347.4 80.1 351.18 91.44 354.312 
" clip-path="url(#p5c73d92a61)" style="fill: none; stroke: #000000; stroke-linejoin: miter"/>
   </g>
   <g id="patch_111">
    <path d="M 142.56 365.688 
C 153.9 368.82 162 372.6 162 378 
" clip-path="url(#p5c73d92a61)" style="fill: none; stroke: #000000; stroke-linejoin: miter"/>
   </g>
   <g id="patch_112">
    <path d="M 144 342 
C 144 360 54 360 54 378 
" clip-path="url(#p5c73d92a61)" style="fill: none; stroke: #000000; stroke-linejoin: miter"/>
   </g>
   <g id="patch_113">
    <path d="M 162 342 
C 162 360 72 360 72 378 
" clip-path="url(#p5c73d92a61)" style="fill: none; stroke: #000000; stroke-linejoin: miter"/>
   </g>
   <g id="patch_114">
    <path d="M 126 450 
L 126 414 
L 270 414 
L 270 450 
z
" clip-path="url(#p5c73d92a61)" style="fill: #ffffff; stroke: #000000; stroke-linejoin: miter"/>
   </g>
   <g id="patch_115">
    <path d="M 54 486 
C 54 491.4 62.1 495.18 73.44 498.312 
L 91.44 498.312 
C 80.1 495.18 72 491.4 72 486 
z
" clip-path="url(#p5c73d92a61)" style="fill: #cccccc"/>
   </g>
   <g id="patch_116">
    <path d="M 124.56 509.688 
C 135.9 512.82 144 516.6 144 522 
L 162 522 
C 162 516.6 153.9 512.82 142.56 509.688 
z
" clip-path="url(#p5c73d92a61)" style="fill: #cccccc"/>
   </g>
   <g id="patch_117">
    <path d="M 144 486 
C 144 504 54 504 54 522 
L 72 522 
C 72 504 162 504 162 486 
z
" clip-path="url(#p5c73d92a61)" style="fill: #cccccc"/>
   </g>
   <g id="patch_118">
    <path d="M 54 486 
C 54 491.4 62.1 495.18 73.44 498.312 
" clip-path="url(#p5c73d92a61)" style="fill: none; stroke: #000000; stroke-linejoin: miter"/>
   </g>
   <g id="patch_119">
    <path d="M 124.56 509.688 
C 135.9 512.82 144 516.6 144 522 
" clip-path="url(#p5c73d92a61)" style="fill: none; stroke: #000000; stroke-linejoin: miter"/>
   </g>
   <g id="patch_120">
    <path d="M 72 486 
C 72 491.4 80.1 495.18 91.44 498.312 
" clip-path="url(#p5c73d92a61)" style="fill: none; stroke: #000000; stroke-linejoin: miter"/>
   </g>
   <g id="patch_121">
    <path d="M 142.56 509.688 
C 153.9 512.82 162 516.6 162 522 
" clip-path="url(#p5c73d92a61)" style="fill: none; stroke: #000000; stroke-linejoin: miter"/>
   </g>
   <g id="patch_122">
    <path d="M 144 486 
C 144 504 54 504 54 522 
" clip-path="url(#p5c73d92a61)" style="fill: none; stroke: #000000; stroke-linejoin: miter"/>
   </g>
   <g id="patch_123">
    <path d="M 162 486 
C 162 504 72 504 72 522 
" clip-path="url(#p5c73d92a61)" style="fill: none; stroke: #000000; stroke-linejoin: miter"/>
   </g>
   <g id="patch_124">
    <path d="M 144 558 
C 144 563.4 152.1 567.18 163.44 570.312 
L 181.44 570.312 
C 170.1 567.18 162 563.4 162 558 
z
" clip-path="url(#p5c73d92a61)" style="fill: #cccccc"/>
   </g>
   <g id="patch_125">
    <path d="M 214.56 581.688 
C 225.9 584.82 234 588.6 234 594 
L 252 594 
C 252 588.6 243.9 584.82 232.56 581.688 
z
" clip-path="url(#p5c73d92a61)" style="fill: #cccccc"/>
   </g>
   <g id="patch_126">
    <path d="M 234 558 
C 234 576 144 576 144 594 
L 162 594 
C 162 576 252 576 252 558 
z
" clip-path="url(#p5c73d92a61)" style="fill: #cccccc"/>
   </g>
   <g id="patch_127">
    <path d="M 144 558 
C 144 563.4 152.1 567.18 163.44 570.312 
" clip-path="url(#p5c73d92a61)" style="fill: none; stroke: #000000; stroke-linejoin: miter"/>
   </g>
   <g id="patch_128">
    <path d="M 214.56 581.688 
C 225.9 584.82 234 588.6 234 594 
" clip-path="url(#p5c73d92a61)" style="fill: none; stroke: #000000; stroke-linejoin: miter"/>
   </g>
   <g id="patch_129">
    <path d="M 162 558 
C 162 563.4 170.1 567.18 181.44 570.312 
" clip-path="url(#p5c73d92a61)" style="fill: none; stroke: #000000; stroke-linejoin: miter"/>
   </g>
   <g id="patch_130">
    <path d="M 232.56 581.688 
C 243.9 584.82 252 588.6 252 594 
" clip-path="url(#p5c73d92a61)" style="fill: none; stroke: #000000; stroke-linejoin: miter"/>
   </g>
   <g id="patch_131">
    <path d="M 234 558 
C 234 576 144 576 144 594 
" clip-path="url(#p5c73d92a61)" style="fill: none; stroke: #000000; stroke-linejoin: miter"/>
   </g>
   <g id="patch_132">
    <path d="M 252 558 
C 252 576 162 576 162 594 
" clip-path="url(#p5c73d92a61)" style="fill: none; stroke: #000000; stroke-linejoin: miter"/>
   </g>
   <g id="patch_133">
    <path d="M 234 630 
C 234 659.823376 258.176624 684 288 684 
C 317.823376 684 342 659.823376 342 630 
L 324 630 
C 324 649.882251 307.882251 666 288 666 
C 268.117749 666 252 649.882251 252 630 
z
" clip-path="url(#p5c73d92a61)" style="fill: #cccccc"/>
   </g>
   <g id="patch_134">
    <path d="M 234 630 
C 234 659.823376 258.176624 684 288 684 
" clip-path="url(#p5c73d92a61)" style="fill: none; stroke: #000000; stroke-linejoin: miter"/>
   </g>
   <g id="patch_135">
    <path d="M 288 684 
C 317.823376 684 342 659.823376 342 630 
" clip-path="url(#p5c73d92a61)" style="fill: none; stroke: #000000; stroke-linejoin: miter"/>
   </g>
   <g id="patch_136">
    <path d="M 252 630 
C 252 649.882251 268.117749 666 288 666 
" clip-path="url(#p5c73d92a61)" style="fill: none; stroke: #000000; stroke-linejoin: miter"/>
   </g>
   <g id="patch_137">
    <path d="M 288 666 
C 307.882251 666 324 649.882251 324 630 
" clip-path="url(#p5c73d92a61)" style="fill: none; stroke: #000000; stroke-linejoin: miter"/>
   </g>
   <g id="text_1">
    <!-- f -->
    <g transform="translate(106.239844 146.759375) scale(0.1 -0.1)">
     <defs>
      <path id="DejaVuSans-66" d="M 2375 4863 
L 2375 4384 
L 1825 4384 
Q 1516 4384 1395 4259 
Q 1275 4134 1275 3809 
L 1275 3500 
L 2222 3500 
L 2222 3053 
L 1275 3053 
L 1275 0 
L 697 0 
L 697 3053 
L 147 3053 
L 147 3500 
L 697 3500 
L 697 3744 
Q 697 4328 969 4595 
Q 1241 4863 1831 4863 
L 2375 4863 
z
" transform="scale(0.015625)"/>
     </defs>
     <use xlink:href="#DejaVuSans-66"/>
    </g>
   </g>
   <g id="text_2">
    <!-- g -->
    <g transform="translate(194.825781 434.759375) scale(0.1 -0.1)">
     <defs>
      <path id="DejaVuSans-67" d="M 2906 1791 
Q 2906 2416 2648 2759 
Q 2391 3103 1925 3103 
Q 1463 3103 1205 2759 
Q 947 2416 947 1791 
Q 947 1169 1205 825 
Q 1463 481 1925 481 
Q 2391 481 2648 825 
Q 2906 1169 2906 1791 
z
M 3481 434 
Q 3481 -459 3084 -895 
Q 2688 -1331 1869 -1331 
Q 1566 -1331 1297 -1286 
Q 1028 -1241 775 -1147 
L 775 -588 
Q 1028 -725 1275 -790 
Q 1522 -856 1778 -856 
Q 2344 -856 2625 -561 
Q 2906 -266 2906 331 
L 2906 616 
Q 2728 306 2450 153 
Q 2172 0 1784 0 
Q 1141 0 747 490 
Q 353 981 353 1791 
Q 353 2603 747 3093 
Q 1141 3584 1784 3584 
Q 2172 3584 2450 3431 
Q 2728 3278 2906 2969 
L 2906 3500 
L 3481 3500 
L 3481 434 
z
" transform="scale(0.015625)"/>
     </defs>
     <use xlink:href="#DejaVuSans-67"/>
    </g>
   </g>
  </g>
 </g>
 <defs>
  <clipPath id="p5c73d92a61">
   <rect x="0" y="0" width="396" height="720"/>
  </clipPath>
 </defs>
</svg>
