<?xml version="1.0" encoding="utf-8" standalone="no"?>
<!DOCTYPE svg PUBLIC "-//W3C//DTD SVG 1.1//EN"
  "http://www.w3.org/Graphics/SVG/1.1/DTD/svg11.dtd">
<svg xmlns:xlink="http://www.w3.org/1999/xlink" width="666pt" height="432pt" viewBox="0 0 666 432" xmlns="http://www.w3.org/2000/svg" version="1.1">
 <metadata>
  <rdf:RDF xmlns:dc="http://purl.org/dc/elements/1.1/" xmlns:cc="http://creativecommons.org/ns#" xmlns:rdf="http://www.w3.org/1999/02/22-rdf-syntax-ns#">
   <cc:Work>
    <dc:type rdf:resource="http://purl.org/dc/dcmitype/StillImage"/>
    <dc:format>image/svg+xml</dc:format>
    <dc:creator>
     <cc:Agent>
      <dc:title>Matplotlib v3.10.9, https://matplotlib.org/</dc:title>
     </cc:Agent>
    </dc:creator>
   </cc:Work>
  </rdf:RDF>
 </metadata>
 <defs>
  <style type="text/css">*{stroke-linejoin: round; stroke-linecap: butt}</style>
 </defs>
 <g id="figure_1">
  <g id="patch_1">
   <path d="M 0 432 
L 666 432 
L 666 0 
L 0 0 
z
" style="fill: #ffffff"/>
  </g>
  <g id="axes_1">
   <g id="patch_2">
    <path d="M 95.142857 370.285714 
L 570.857143 370.285714 
L 570.857143 61.714286 
L 95.142857 61.714286 
z
" clip-path="url(#p20534ae4a3)" style="fill: #ffffff; stroke: #ffffff; stroke-linejoin: miter"/>
   </g>
   <g id="patch_3">
    <path d="M 95.142857 370.285714 
Q 95.142857 61.714286 95.142857 61.714286 
L 570.857143 61.714286 
L 570.857143 370.285714 
z
" clip-path="url(#p20534ae4a3)" style="fill: #ffffff"/>
   </g>
   <g id="patch_4">
    <path d="M 120.857143 113.142857 
Q 120.857143 164.571429 120.857143 164.571429 
L 570.857143 164.571429 
L 570.857143 113.142857 
z
" clip-path="url(#p20534ae4a3)" style="fill: #ffffff"/>
   </g>
   <g id="patch_5">
    <path d="M 120.857143 267.428571 
Q 120.857143 318.857143 120.857143 318.857143 
L 570.857143 318.857143 
L 570.857143 267.428571 
z
" clip-path="url(#p20534ae4a3)" style="fill: #ffffff"/>
   </g>
   <g id="patch_6">
    <path d="M 146.571429 87.428571 
Q 120.857143 87.428571 120.857143 113.142857 
L 570.857143 113.142857 
L 570.857143 87.428571 
z
" clip-path="url(#p20534ae4a3)" style="fill: #ffffff"/>
   </g>
   <g id="patch_7">
    <path d="M 120.857143 164.571429 
Q 120.857143 190.285714 146.571429 190.285714 
L 570.857143 190.285714 
L 570.857143 164.571429 
z
" clip-path="url(#p20534ae4a3)" style="fill: #ffffff"/>
   </g>
   <g id="patch_8">
    <path d="M 146.571429 241.714286 
Q 120.857143 241.714286 120.857143 267.428571 
L 570.857143 267.428571 
L 570.857143 241.714286 
z
" clip-path="url(#p20534ae4a3)" style="fill: #ffffff"/>
   </g>
   <g id="patch_9">
    <path d="M 120.857143 318.857143 
Q 120.857143 344.571429 146.571429 344.571429 
L 570.857143 344.571429 
L 570.857143 318.857143 
z
" clip-path="url(#p20534ae4a3)" style="fill: #ffffff"/>
   </g>
   <g id="patch_10">
    <path d="M 146.571429 87.428571 
Q 172.285714 87.428571 172.285714 113.142857 
L 570.857143 113.142857 
L 570.857143 87.428571 
z
" clip-path="url(#p20534ae4a3)" style="fill: #ffffff"/>
   </g>
   <g id="patch_11">
    <path d="M 172.285714 164.571429 
Q 172.285714 190.285714 146.571429 190.285714 
L 570.857143 190.285714 
L 570.857143 164.571429 
z
" clip-path="url(#p20534ae4a3)" style="fill: #ffffff"/>
   </g>
   <g id="patch_12">
    <path d="M 146.571429 241.714286 
Q 172.285714 241.714286 172.285714 267.428571 
L 570.857143 267.428571 
L 570.857143 241.714286 
z
" clip-path="url(#p20534ae4a3)" style="fill: #ffffff"/>
   </g>
   <g id="patch_13">
    <path d="M 172.285714 318.857143 
Q 172.285714 344.571429 146.571429 344.571429 
L 570.857143 344.571429 
L 570.857143 318.857143 
z
" clip-path="url(#p20534ae4a3)" style="fill: #ffffff"/>
   </g>
   <g id="patch_14">
    <path d="M 198 138.857143 
Q 172.285714 138.857143 172.285714 164.571429 
L 570.857143 164.571429 
L 570.857143 138.857143 
z
" clip-path="url(#p20534ae4a3)" style="fill: #ffffff"/>
   </g>
   <g id="patch_15">
    <path d="M 172.285714 113.142857 
Q 172.285714 138.857143 198 138.857143 
L 570.857143 138.857143 
L 570.857143 113.142857 
z
" clip-path="url(#p20534ae4a3)" style="fill: #ffffff"/>
   </g>
   <g id="patch_16">
    <path d="M 198 293.142857 
Q 172.285714 293.142857 172.285714 318.857143 
L 570.857143 318.857143 
L 570.857143 293.142857 
z
" clip-path="url(#p20534ae4a3)" style="fill: #ffffff"/>
   </g>
   <g id="patch_17">
    <path d="M 172.285714 267.428571 
Q 172.285714 293.142857 198 293.142857 
L 570.857143 293.142857 
L 570.857143 267.428571 
z
" clip-path="url(#p20534ae4a3)" style="fill: #ffffff"/>
   </g>
   <g id="patch_18">
    <path d="M 198 138.857143 
Q 223.714286 138.857143 223.714286 164.571429 
L 570.857143 164.571429 
L 570.857143 138.857143 
z
" clip-path="url(#p20534ae4a3)" style="fill: #ffffff"/>
   </g>
   <g id="patch_19">
    <path d="M 223.714286 113.142857 
Q 223.714286 138.857143 198 138.857143 
L 570.857143 138.857143 
L 570.857143 113.142857 
z
" clip-path="url(#p20534ae4a3)" style="fill: #ffffff"/>
   </g>
   <g id="patch_20">
    <path d="M 198 293.142857 
Q 223.714286 293.142857 223.714286 318.857143 
L 570.857143 318.857143 
L 570.857143 293.142857 
z
" clip-path="url(#p20534ae4a3)" style="fill: #ffffff"/>
   </g>
   <g id="patch_21">
    <path d="M 223.714286 267.428571 
Q 223.714286 293.142857 198 293.142857 
L 570.857143 293.142857 
L 570.857143 267.428571 
z
" clip-path="url(#p20534ae4a3)" style="fill: #ffffff"/>
   </g>
   <g id="patch_22">
    <path d="M 223.714286 61.714286 
Q 223.714286 113.142857 223.714286 113.142857 
L 570.857143 113.142857 
L 570.857143 61.714286 
z
" clip-path="url(#p20534ae4a3)" style="fill: #ffffff"/>
   </g>
   <g id="patch_23">
    <path d="M 223.714286 164.571429 
Q 223.714286 267.428571 223.714286 267.428571 
L 570.857143 267.428571 
L 570.857143 164.571429 
z
" clip-path="url(#p20534ae4a3)" style="fill: #ffffff"/>
   </g>
   <g id="patch_24">
    <path d="M 223.714286 318.857143 
Q 223.714286 370.285714 223.714286 370.285714 
L 570.857143 370.285714 
L 570.857143 318.857143 
z
" clip-path="url(#p20534ae4a3)" style="fill: #ffffff"/>
   </g>
   <g id="patch_25">
    <path d="M 326.571429 61.714286 
Q 326.571429 370.285714 326.571429 370.285714 
L 570.857143 370.285714 
L 570.857143 61.714286 
z
" clip-path="url(#p20534ae4a3)" style="fill: #ffffff"/>
   </g>
   <g id="patch_26">
    <path d="M 442.285714 61.714286 
Q 442.285714 113.142857 442.285714 113.142857 
L 570.857143 113.142857 
L 570.857143 61.714286 
z
" clip-path="url(#p20534ae4a3)" style="fill: #ffffff"/>
   </g>
   <g id="patch_27">
    <path d="M 442.285714 164.571429 
Q 442.285714 267.428571 442.285714 267.428571 
L 570.857143 267.428571 
L 570.857143 164.571429 
z
" clip-path="url(#p20534ae4a3)" style="fill: #ffffff"/>
   </g>
   <g id="patch_28">
    <path d="M 442.285714 318.857143 
Q 442.285714 370.285714 442.285714 370.285714 
L 570.857143 370.285714 
L 570.857143 318.857143 
z
" clip-path="url(#p20534ae4a3)" style="fill: #ffffff"/>
   </g>
   <g id="patch_29">
    <path d="M 468 138.857143 
Q 442.285714 138.857143 442.285714 164.571429 
L 570.857143 164.571429 
L 570.857143 138.857143 
z
" clip-path="url(#p20534ae4a3)" style="fill: #ffffff"/>
   </g>
   <g id="patch_30">
    <path d="M 442.285714 113.142857 
Q 442.285714 138.857143 468 138.857143 
L 570.857143 138.857143 
L 570.857143 113.142857 
z
" clip-path="url(#p20534ae4a3)" style="fill: #ffffff"/>
   </g>
   <g id="patch_31">
    <path d="M 468 293.142857 
Q 442.285714 293.142857 442.285714 318.857143 
L 570.857143 318.857143 
L 570.857143 293.142857 
z
" clip-path="url(#p20534ae4a3)" style="fill: #ffffff"/>
   </g>
   <g id="patch_32">
    <path d="M 442.285714 267.428571 
Q 442.285714 293.142857 468 293.142857 
L 570.857143 293.142857 
L 570.857143 267.428571 
z
" clip-path="url(#p20534ae4a3)" style="fill: #ffffff"/>
   </g>
   <g id="patch_33">
    <path d="M 468 138.857143 
Q 493.714286 138.857143 493.714286 164.571429 
L 570.857143 164.571429 
L 570.857143 138.857143 
z
" clip-path="url(#p20534ae4a3)" style="fill: #ffffff"/>
   </g>
   <g id="patch_34">
    <path d="M 493.714286 113.142857 
Q 493.714286 138.857143 468 138.857143 
L 570.857143 138.857143 
L 570.857143 113.142857 
z
" clip-path="url(#p20534ae4a3)" style="fill: #ffffff"/>
   </g>
   <g id="patch_35">
    <path d="M 468 293.142857 
Q 493.714286 293.142857 493.714286 318.857143 
L 570.857143 318.857143 
L 570.857143 293.142857 
z
" clip-path="url(#p20534ae4a3)" style="fill: #ffffff"/>
   </g>
   <g id="patch_36">
    <path d="M 493.714286 267.428571 
Q 493.714286 293.142857 468 293.142857 
L 570.857143 293.142857 
L 570.857143 267.428571 
z
" clip-path="url(#p20534ae4a3)" style="fill: #ffffff"/>
   </g>
   <g id="patch_37">
    <path d="M 519.428571 87.428571 
Q 493.714286 87.428571 493.714286 113.142857 
L 570.857143 113.142857 
L 570.857143 87.428571 
z
" clip-path="url(#p20534ae4a3)" style="fill: #ffffff"/>
   </g>
   <g id="patch_38">
    <path d="M 493.714286 164.571429 
Q 493.714286 190.285714 519.428571 190.285714 
L 570.857143 190.285714 
L 570.857143 164.571429 
z
" clip-path="url(#p20534ae4a3)" style="fill: #ffffff"/>
   </g>
   <g id="patch_39">
    <path d="M 519.428571 241.714286 
Q 493.714286 241.714286 493.714286 267.428571 
L 570.857143 267.428571 
L 570.857143 241.714286 
z
" clip-path="url(#p20534ae4a3)" style="fill: #ffffff"/>
   </g>
   <g id="patch_40">
    <path d="M 493.714286 318.857143 
Q 493.714286 344.571429 519.428571 344.571429 
L 570.857143 344.571429 
L 570.857143 318.857143 
z
" clip-path="url(#p20534ae4a3)" style="fill: #ffffff"/>
   </g>
   <g id="patch_41">
    <path d="M 519.428571 87.428571 
Q 545.142857 87.428571 545.142857 113.142857 
L 570.857143 113.142857 
L 570.857143 87.428571 
z
" clip-path="url(#p20534ae4a3)" style="fill: #ffffff"/>
   </g>
   <g id="patch_42">
    <path d="M 545.142857 164.571429 
Q 545.142857 190.285714 519.428571 190.285714 
L 570.857143 190.285714 
L 570.857143 164.571429 
z
" clip-path="url(#p20534ae4a3)" style="fill: #ffffff"/>
   </g>
   <g id="patch_43">
    <path d="M 519.428571 241.714286 
Q 545.142857 241.714286 545.142857 267.428571 
L 570.857143 267.428571 
L 570.857143 241.714286 
z
" clip-path="url(#p20534ae4a3)" style="fill: #ffffff"/>
   </g>
   <g id="patch_44">
    <path d="M 545.142857 318.857143 
Q 545.142857 344.571429 519.428571 344.571429 
L 570.857143 344.571429 
L 570.857143 318.857143 
z
" clip-path="url(#p20534ae4a3)" style="fill: #ffffff"/>
   </g>
   <g id="patch_45">
    <path d="M 545.142857 113.142857 
Q 545.142857 164.571429 545.142857 164.571429 
L 570.857143 164.571429 
L 570.857143 113.142857 
z
" clip-path="url(#p20534ae4a3)" style="fill: #ffffff"/>
   </g>
   <g id="patch_46">
    <path d="M 545.142857 267.428571 
Q 545.142857 318.857143 545.142857 318.857143 
L 570.857143 318.857143 
L 570.857143 267.428571 
z
" clip-path="url(#p20534ae4a3)" style="fill: #ffffff"/>
   </g>
   <g id="patch_47">
    <path d="M 172.285714 113.142857 
C 172.285714 123.428571 180.514286 129.6 190.388571 134.948571 
" clip-path="url(#p20534ae4a3)" style="fill: none; stroke: #000000; stroke-linejoin: miter"/>
   </g>
   <g id="patch_48">
    <path d="M 205.611429 142.765714 
C 215.485714 148.114286 223.714286 154.285714 223.714286 164.571429 
" clip-path="url(#p20534ae4a3)" style="fill: none; stroke: #000000; stroke-linejoin: miter"/>
   </g>
   <g id="patch_49">
    <path d="M 223.714286 113.142857 
C 223.714286 138.857143 172.285714 138.857143 172.285714 164.571429 
" clip-path="url(#p20534ae4a3)" style="fill: none; stroke: #000000; stroke-linejoin: miter"/>
   </g>
   <g id="patch_50">
    <path d="M 223.714286 267.428571 
C 223.714286 277.714286 215.485714 283.885714 205.611429 289.234286 
" clip-path="url(#p20534ae4a3)" style="fill: none; stroke: #000000; stroke-linejoin: miter"/>
   </g>
   <g id="patch_51">
    <path d="M 190.388571 297.051429 
C 180.514286 302.4 172.285714 308.571429 172.285714 318.857143 
" clip-path="url(#p20534ae4a3)" style="fill: none; stroke: #000000; stroke-linejoin: miter"/>
   </g>
   <g id="patch_52">
    <path d="M 172.285714 267.428571 
C 172.285714 293.142857 223.714286 293.142857 223.714286 318.857143 
" clip-path="url(#p20534ae4a3)" style="fill: none; stroke: #000000; stroke-linejoin: miter"/>
   </g>
   <g id="patch_53">
    <path d="M 442.285714 113.142857 
C 442.285714 123.428571 450.514286 129.6 460.388571 134.948571 
" clip-path="url(#p20534ae4a3)" style="fill: none; stroke: #000000; stroke-linejoin: miter"/>
   </g>
   <g id="patch_54">
    <path d="M 475.611429 142.765714 
C 485.485714 148.114286 493.714286 154.285714 493.714286 164.571429 
" clip-path="url(#p20534ae4a3)" style="fill: none; stroke: #000000; stroke-linejoin: miter"/>
   </g>
   <g id="patch_55">
    <path d="M 493.714286 113.142857 
C 493.714286 138.857143 442.285714 138.857143 442.285714 164.571429 
" clip-path="url(#p20534ae4a3)" style="fill: none; stroke: #000000; stroke-linejoin: miter"/>
   </g>
   <g id="patch_56">
    <path d="M 493.714286 267.428571 
C 493.714286 277.714286 485.485714 283.885714 475.611429 289.234286 
" clip-path="url(#p20534ae4a3)" style="fill: none; stroke: #000000; stroke-linejoin: miter"/>
   </g>
   <g id="patch_57">
    <path d="M 460.388571 297.051429 
C 450.514286 302.4 442.285714 308.571429 442.285714 318.857143 
" clip-path="url(#p20534ae4a3)" style="fill: none; stroke: #000000; stroke-linejoin: miter"/>
   </g>
   <g id="patch_58">
    <path d="M 442.285714 267.428571 
C 442.285714 293.142857 493.714286 293.142857 493.714286 318.857143 
" clip-path="url(#p20534ae4a3)" style="fill: none; stroke: #000000; stroke-linejoin: miter"/>
   </g>
   <g id="patch_59">
    <path d="M 146.571429 87.428571 
Q 120.857143 87.428571 120.857143 113.142857 
" clip-path="url(#p20534ae4a3)" style="fill: none; stroke: #000000; stroke-linejoin: miter"/>
   </g>
   <g id="patch_60">
    <path d="M 146.571429 87.428571 
Q 172.285714 87.428571 172.285714 113.142857 
" clip-path="url(#p20534ae4a3)" style="fill: none; stroke: #000000; stroke-linejoin: miter"/>
   </g>
   <g id="patch_61">
    <path d="M 120.857143 113.142857 
Q 120.857143 164.571429 120.857143 164.571429 
" clip-path="url(#p20534ae4a3)" style="fill: none; stroke: #000000; stroke-linejoin: miter"/>
   </g>
   <g id="patch_62">
    <path d="M 223.714286 61.714286 
Q 223.714286 113.142857 223.714286 113.142857 
" clip-path="url(#p20534ae4a3)" style="fill: none; stroke: #000000; stroke-linejoin: miter"/>
   </g>
   <g id="patch_63">
    <path d="M 223.714286 164.571429 
Q 223.714286 267.428571 223.714286 267.428571 
" clip-path="url(#p20534ae4a3)" style="fill: none; stroke: #000000; stroke-linejoin: miter"/>
   </g>
   <g id="patch_64">
    <path d="M 120.857143 164.571429 
Q 120.857143 190.285714 146.571429 190.285714 
" clip-path="url(#p20534ae4a3)" style="fill: none; stroke: #000000; stroke-linejoin: miter"/>
   </g>
   <g id="patch_65">
    <path d="M 172.285714 164.571429 
Q 172.285714 190.285714 146.571429 190.285714 
" clip-path="url(#p20534ae4a3)" style="fill: none; stroke: #000000; stroke-linejoin: miter"/>
   </g>
   <g id="patch_66">
    <path d="M 146.571429 241.714286 
Q 120.857143 241.714286 120.857143 267.428571 
" clip-path="url(#p20534ae4a3)" style="fill: none; stroke: #000000; stroke-linejoin: miter"/>
   </g>
   <g id="patch_67">
    <path d="M 146.571429 241.714286 
Q 172.285714 241.714286 172.285714 267.428571 
" clip-path="url(#p20534ae4a3)" style="fill: none; stroke: #000000; stroke-linejoin: miter"/>
   </g>
   <g id="patch_68">
    <path d="M 120.857143 267.428571 
Q 120.857143 318.857143 120.857143 318.857143 
" clip-path="url(#p20534ae4a3)" style="fill: none; stroke: #000000; stroke-linejoin: miter"/>
   </g>
   <g id="patch_69">
    <path d="M 223.714286 318.857143 
Q 223.714286 370.285714 223.714286 370.285714 
" clip-path="url(#p20534ae4a3)" style="fill: none; stroke: #000000; stroke-linejoin: miter"/>
   </g>
   <g id="patch_70">
    <path d="M 120.857143 318.857143 
Q 120.857143 344.571429 146.571429 344.571429 
" clip-path="url(#p20534ae4a3)" style="fill: none; stroke: #000000; stroke-linejoin: miter"/>
   </g>
   <g id="patch_71">
    <path d="M 172.285714 318.857143 
Q 172.285714 344.571429 146.571429 344.571429 
" clip-path="url(#p20534ae4a3)" style="fill: none; stroke: #000000; stroke-linejoin: miter"/>
   </g>
   <g id="patch_72">
    <path d="M 326.571429 61.714286 
Q 326.571429 370.285714 326.571429 370.285714 
" clip-path="url(#p20534ae4a3)" style="fill: none; stroke: #000000; stroke-linejoin: miter"/>
   </g>
   <g id="patch_73">
    <path d="M 442.285714 61.714286 
Q 442.285714 113.142857 442.285714 113.142857 
" clip-path="url(#p20534ae4a3)" style="fill: none; stroke: #000000; stroke-linejoin: miter"/>
   </g>
   <g id="patch_74">
    <path d="M 519.428571 87.428571 
Q 493.714286 87.428571 493.714286 113.142857 
" clip-path="url(#p20534ae4a3)" style="fill: none; stroke: #000000; stroke-linejoin: miter"/>
   </g>
   <g id="patch_75">
    <path d="M 519.428571 87.428571 
Q 545.142857 87.428571 545.142857 113.142857 
" clip-path="url(#p20534ae4a3)" style="fill: none; stroke: #000000; stroke-linejoin: miter"/>
   </g>
   <g id="patch_76">
    <path d="M 545.142857 113.142857 
Q 545.142857 164.571429 545.142857 164.571429 
" clip-path="url(#p20534ae4a3)" style="fill: none; stroke: #000000; stroke-linejoin: miter"/>
   </g>
   <g id="patch_77">
    <path d="M 442.285714 164.571429 
Q 442.285714 267.428571 442.285714 267.428571 
" clip-path="url(#p20534ae4a3)" style="fill: none; stroke: #000000; stroke-linejoin: miter"/>
   </g>
   <g id="patch_78">
    <path d="M 493.714286 164.571429 
Q 493.714286 190.285714 519.428571 190.285714 
" clip-path="url(#p20534ae4a3)" style="fill: none; stroke: #000000; stroke-linejoin: miter"/>
   </g>
   <g id="patch_79">
    <path d="M 545.142857 164.571429 
Q 545.142857 190.285714 519.428571 190.285714 
" clip-path="url(#p20534ae4a3)" style="fill: none; stroke: #000000; stroke-linejoin: miter"/>
   </g>
   <g id="patch_80">
    <path d="M 519.428571 241.714286 
Q 493.714286 241.714286 493.714286 267.428571 
" clip-path="url(#p20534ae4a3)" style="fill: none; stroke: #000000; stroke-linejoin: miter"/>
   </g>
   <g id="patch_81">
    <path d="M 519.428571 241.714286 
Q 545.142857 241.714286 545.142857 267.428571 
" clip-path="url(#p20534ae4a3)" style="fill: none; stroke: #000000; stroke-linejoin: miter"/>
   </g>
   <g id="patch_82">
    <path d="M 545.142857 267.428571 
Q 545.142857 318.857143 545.142857 318.857143 
" clip-path="url(#p20534ae4a3)" style="fill: none; stroke: #000000; stroke-linejoin: miter"/>
   </g>
   <g id="patch_83">
    <path d="M 442.285714 318.857143 
Q 442.285714 370.285714 442.285714 370.285714 
" clip-path="url(#p20534ae4a3)" style="fill: none; stroke: #000000; stroke-linejoin: miter"/>
   </g>
   <g id="patch_84">
    <path d="M 493.714286 318.857143 
Q 493.714286 344.571429 519.428571 344.571429 
" clip-path="url(#p20534ae4a3)" style="fill: none; stroke: #000000; stroke-linejoin: miter"/>
   </g>
   <g id="patch_85">
    <path d="M 545.142857 318.857143 
Q 545.142857 344.571429 519.428571 344.571429 
" clip-path="url(#p20534ae4a3)" style="fill: none; stroke: #000000; stroke-linejoin: miter"/>
   </g>
   <g id="PathCollection_1">
    <defs>
     <path id="C0_0_c069b3fa76" d="M 0 4.967394 
C 1.317368 4.967394 2.580958 4.443998 3.512478 3.512478 
C 4.443998 2.580958 4.967394 1.317368 4.967394 -0 
C 4.967394 -1.317368 4.443998 -2.580958 3.512478 -3.512478 
C 2.580958 -4.443998 1.317368 -4.967394 0 -4.967394 
C -1.317368 -4.967394 -2.580958 -4.443998 -3.512478 -3.512478 
C -4.443998 -2.580958 -4.967394 -1.317368 -4.967394 0 
C -4.967394 1.317368 -4.443998 2.580958 -3.512478 3.512478 
C -2.580958 4.443998 -1.317368 4.967394 0 4.967394 
z
"/>
    </defs>
    <g clip-path="url(#p20534ae4a3)">
     <use xlink:href="#C0_0_c069b3fa76" x="378" y="216" style="fill: #ffffff; stroke: #ffffff"/>
    </g>
    <g clip-path="url(#p20534ae4a3)">
     <use xlink:href="#C0_0_c069b3fa76" x="275.142857" y="216" style="fill: #ffffff; stroke: #ffffff"/>
    </g>
   </g>
   <g id="text_1">
    <!-- x.r -->
    <g transform="translate(124.071429 111.098437) scale(0.1 -0.1)">
     <defs>
      <path id="DejaVuSans-78" d="M 3513 3500 
L 2247 1797 
L 3578 0 
L 2900 0 
L 1881 1375 
L 863 0 
L 184 0 
L 1544 1831 
L 300 3500 
L 978 3500 
L 1906 2253 
L 2834 3500 
L 3513 3500 
z
" transform="scale(0.015625)"/>
      <path id="DejaVuSans-2e" d="M 684 794 
L 1344 794 
L 1344 0 
L 684 0 
L 684 794 
z
" transform="scale(0.015625)"/>
      <path id="DejaVuSans-72" d="M 2631 2963 
Q 2534 3019 2420 3045 
Q 2306 3072 2169 3072 
Q 1681 3072 1420 2755 
Q 1159 2438 1159 1844 
L 1159 0 
L 581 0 
L 581 3500 
L 1159 3500 
L 1159 2956 
Q 1341 3275 1631 3429 
Q 1922 3584 2338 3584 
Q 2397 3584 2469 3576 
Q 2541 3569 2628 3553 
L 2631 2963 
z
" transform="scale(0.015625)"/>
     </defs>
     <use xlink:href="#DejaVuSans-78"/>
     <use xlink:href="#DejaVuSans-2e" transform="translate(59.179688 0)"/>
     <use xlink:href="#DejaVuSans-72" transform="translate(90.966797 0)"/>
    </g>
   </g>
   <g id="text_2">
    <!-- x -->
    <g transform="translate(175.5 111.098437) scale(0.1 -0.1)">
     <use xlink:href="#DejaVuSans-78"/>
    </g>
   </g>
   <g id="text_3">
    <!-- x -->
    <g transform="translate(226.928571 72.527009) scale(0.1 -0.1)">
     <use xlink:href="#DejaVuSans-78"/>
    </g>
   </g>
   <g id="text_4">
    <!-- x -->
    <g transform="translate(175.5 162.527009) scale(0.1 -0.1)">
     <use xlink:href="#DejaVuSans-78"/>
    </g>
   </g>
   <g id="text_5">
    <!-- x -->
    <g transform="translate(226.928571 162.527009) scale(0.1 -0.1)">
     <use xlink:href="#DejaVuSans-78"/>
    </g>
   </g>
   <g id="text_6">
    <!-- x.r -->
    <g transform="translate(124.071429 265.384152) scale(0.1 -0.1)">
     <use xlink:href="#DejaVuSans-78"/>
     <use xlink:href="#DejaVuSans-2e" transform="translate(59.179688 0)"/>
     <use xlink:href="#DejaVuSans-72" transform="translate(90.966797 0)"/>
    </g>
   </g>
   <g id="text_7">
    <!-- x -->
    <g transform="translate(175.5 265.384152) scale(0.1 -0.1)">
     <use xlink:href="#DejaVuSans-78"/>
    </g>
   </g>
   <g id="text_8">
    <!-- x -->
    <g transform="translate(175.5 316.812723) scale(0.1 -0.1)">
     <use xlink:href="#DejaVuSans-78"/>
    </g>
   </g>
   <g id="text_9">
    <!-- x -->
    <g transform="translate(226.928571 316.812723) scale(0.1 -0.1)">
     <use xlink:href="#DejaVuSans-78"/>
    </g>
   </g>
   <g id="text_10">
    <!-- x -->
    <g transform="translate(329.785714 72.527009) scale(0.1 -0.1)">
     <use xlink:href="#DejaVuSans-78"/>
    </g>
   </g>
   <g id="text_11">
    <!-- x -->
    <g transform="translate(445.5 72.527009) scale(0.1 -0.1)">
     <use xlink:href="#DejaVuSans-78"/>
    </g>
   </g>
   <g id="text_12">
    <!-- x -->
    <g transform="translate(496.928571 111.098437) scale(0.1 -0.1)">
     <use xlink:href="#DejaVuSans-78"/>
    </g>
   </g>
   <g id="text_13">
    <!-- x.r -->
    <g transform="translate(548.357143 111.098437) scale(0.1 -0.1)">
     <use xlink:href="#DejaVuSans-78"/>
     <use xlink:href="#DejaVuSans-2e" transform="translate(59.179688 0)"/>
     <use xlink:href="#DejaVuSans-72" transform="translate(90.966797 0)"/>
    </g>
   </g>
   <g id="text_14">
    <!-- x -->
    <g transform="translate(445.5 162.527009) scale(0.1 -0.1)">
     <use xlink:href="#DejaVuSans-78"/>
    </g>
   </g>
   <g id="text_15">
    <!-- x -->
    <g transform="translate(496.928571 162.527009) scale(0.1 -0.1)">
     <use xlink:href="#DejaVuSans-78"/>
    </g>
   </g>
   <g id="text_16">
    <!-- x -->
    <g transform="translate(496.928571 265.384152) scale(0.1 -0.1)">
     <use xlink:href="#DejaVuSans-78"/>
    </g>
   </g>
   <g id="text_17">
    <!-- x.r -->
    <g transform="translate(548.357143 265.384152) scale(0.1 -0.1)">
     <use xlink:href="#DejaVuSans-78"/>
     <use xlink:href="#DejaVuSans-2e" transform="translate(59.179688 0)"/>
     <use xlink:href="#DejaVuSans-72" transform="translate(90.966797 0)"/>
    </g>
   </g>
   <g id="text_18">
    <!-- x -->
    <g transform="translate(445.5 316.812723) scale(0.1 -0.1)">
     <use xlink:href="#DejaVuSans-78"/>
    </g>
   </g>
   <g id="text_19">
    <!-- x -->
    <g transform="translate(496.928571 316.812723) scale(0.1 -0.1)">
     <use xlink:href="#DejaVuSans-78"/>
    </g>
   </g>
   <g id="text_20">
    <g clip-path="url(#p20534ae4a3)">
     <!-- = -->
     <g transform="translate(372.972188 219.31125) scale(0.12 -0.12)">
      <defs>
       <path id="DejaVuSans-3d" d="M 678 2906 
L 4684 2906 
L 4684 2381 
L 678 2381 
L 678 2906 
z
M 678 1631 
L 4684 1631 
L 4684 1100 
L 678 1100 
L 678 1631 
z
" transform="scale(0.015625)"/>
      </defs>
      <use xlink:href="#DejaVuSans-3d"/>
     </g>
    </g>
   </g>
   <g id="text_21">
    <g clip-path="url(#p20534ae4a3)">
     <!-- = -->
     <g transform="translate(270.115045 219.31125) scale(0.12 -0.12)">
      <use xlink:href="#DejaVuSans-3d"/>
     </g>
    </g>
   </g>
  </g>
 </g>
 <defs>
  <clipPath id="p20534ae4a3">
   <rect x="0" y="61.714286" width="666" height="308.571429"/>
  </clipPath>
 </defs>
</svg>
