<?xml version="1.0" encoding="utf-8" standalone="no"?>
<!DOCTYPE svg PUBLIC "-//W3C//DTD SVG 1.1//EN"
  "http://www.w3.org/Graphics/SVG/1.1/DTD/svg11.dtd">
<svg xmlns:xlink="http://www.w3.org/1999/xlink" width="432pt" height="216pt" viewBox="0 0 432 216" xmlns="http://www.w3.org/2000/svg" version="1.1">
 <metadata>
  <rdf:RDF xmlns:dc="http://purl.org/dc/elements/1.1/" xmlns:cc="http://creativecommons.org/ns#" xmlns:rdf="http://www.w3.org/1999/02/22-rdf-syntax-ns#">
   <cc:Work>
    <dc:type rdf:resource="http://purl.org/dc/dcmitype/StillImage"/>
    <dc:format>image/svg+xml</dc:format>
    <dc:creator>
     <cc:Agent>
      <dc:title>Matplotlib v3.10.9, https://matplotlib.org/</dc:title>
     </cc:Agent>
    </dc:creator>
   </cc:Work>
  </rdf:RDF>
 </metadata>
 <defs>
  <style type="text/css">*{stroke-linejoin: round; stroke-linecap: butt}</style>
 </defs>
 <g id="figure_1">
  <g id="patch_1">
   <path d="M 0 216 
L 432 216 
L 432 0 
L 0 0 
z
" style="fill: #ffffff"/>
  </g>
  <g id="axes_1">
   <g id="patch_2">
    <path d="M 0 216 
L 432 216 
L 432 0 
L 0 0 
z
" clip-path="url(#p970dbbc4f6)" style="fill: #ffffff; stroke: #ffffff; stroke-linejoin: miter"/>
   </g>
   <g id="patch_3">
    <path d="M 0 216 
Q 0 0 0 0 
L 432 0 
L 432 216 
z
" clip-path="url(#p970dbbc4f6)" style="fill: #ffffff"/>
   </g>
   <g id="patch_4">
    <path d="M 36 0 
Q 36 18 36 18 
L 432 18 
L 432 0 
z
" clip-path="url(#p970dbbc4f6)" style="fill: #ffffff"/>
   </g>
   <g id="patch_5">
    <path d="M 72 54 
Q 72 90 72 90 
L 432 90 
L 432 54 
z
" clip-path="url(#p970dbbc4f6)" style="fill: #ffffff"/>
   </g>
   <g id="patch_6">
    <path d="M 108 0 
Q 108 18 108 18 
L 432 18 
L 432 0 
z
" clip-path="url(#p970dbbc4f6)" style="fill: #ffffff"/>
   </g>
   <g id="patch_7">
    <path d="M 126 18 
Q 126 54 126 54 
L 432 54 
L 432 18 
z
" clip-path="url(#p970dbbc4f6)" style="fill: #ffffff"/>
   </g>
   <g id="patch_8">
    <path d="M 144 126 
Q 144 162 144 162 
L 432 162 
L 432 126 
z
" clip-path="url(#p970dbbc4f6)" style="fill: #ffffff"/>
   </g>
   <g id="patch_9">
    <path d="M 180 0 
Q 180 18 180 18 
L 432 18 
L 432 0 
z
" clip-path="url(#p970dbbc4f6)" style="fill: #ffffff"/>
   </g>
   <g id="patch_10">
    <path d="M 216 54 
Q 216 90 216 90 
L 432 90 
L 432 54 
z
" clip-path="url(#p970dbbc4f6)" style="fill: #ffffff"/>
   </g>
   <g id="patch_11">
    <path d="M 234 90 
Q 234 126 234 126 
L 432 126 
L 432 90 
z
" clip-path="url(#p970dbbc4f6)" style="fill: #ffffff"/>
   </g>
   <g id="patch_12">
    <path d="M 252 0 
Q 252 18 252 18 
L 432 18 
L 432 0 
z
" clip-path="url(#p970dbbc4f6)" style="fill: #ffffff"/>
   </g>
   <g id="patch_13">
    <path d="M 252 198 
Q 252 216 252 216 
L 432 216 
L 432 198 
z
" clip-path="url(#p970dbbc4f6)" style="fill: #ffffff"/>
   </g>
   <g id="patch_14">
    <path d="M 270 18 
Q 270 54 270 54 
L 432 54 
L 432 18 
z
" clip-path="url(#p970dbbc4f6)" style="fill: #ffffff"/>
   </g>
   <g id="patch_15">
    <path d="M 324 0 
Q 324 90 324 90 
L 432 90 
L 432 0 
z
" clip-path="url(#p970dbbc4f6)" style="fill: #ffffff"/>
   </g>
   <g id="patch_16">
    <path d="M 360 126 
Q 360 162 360 162 
L 432 162 
L 432 126 
z
" clip-path="url(#p970dbbc4f6)" style="fill: #ffffff"/>
   </g>
   <g id="patch_17">
    <path d="M 378 162 
Q 378 198 378 198 
L 432 198 
L 432 162 
z
" clip-path="url(#p970dbbc4f6)" style="fill: #ffffff"/>
   </g>
   <g id="patch_18">
    <path d="M 396 0 
Q 396 90 396 90 
L 432 90 
L 432 0 
z
" clip-path="url(#p970dbbc4f6)" style="fill: #ffffff"/>
   </g>
   <g id="patch_19">
    <path d="M 414 90 
Q 414 126 414 126 
L 432 126 
L 432 90 
z
" clip-path="url(#p970dbbc4f6)" style="fill: #ffffff"/>
   </g>
   <g id="patch_20">
    <path d="M 36 0 
Q 36 18 36 18 
" clip-path="url(#p970dbbc4f6)" style="fill: none; stroke: #000000; stroke-linejoin: miter"/>
   </g>
   <g id="patch_21">
    <path d="M 108 0 
Q 108 18 108 18 
" clip-path="url(#p970dbbc4f6)" style="fill: none; stroke: #000000; stroke-linejoin: miter"/>
   </g>
   <g id="patch_22">
    <path d="M 72 54 
Q 72 90 72 90 
" clip-path="url(#p970dbbc4f6)" style="fill: none; stroke: #000000; stroke-linejoin: miter"/>
   </g>
   <g id="patch_23">
    <path d="M 180 0 
Q 180 18 180 18 
" clip-path="url(#p970dbbc4f6)" style="fill: none; stroke: #000000; stroke-linejoin: miter"/>
   </g>
   <g id="patch_24">
    <path d="M 252 0 
Q 252 18 252 18 
" clip-path="url(#p970dbbc4f6)" style="fill: none; stroke: #000000; stroke-linejoin: miter"/>
   </g>
   <g id="patch_25">
    <path d="M 216 54 
Q 216 90 216 90 
" clip-path="url(#p970dbbc4f6)" style="fill: none; stroke: #000000; stroke-linejoin: miter"/>
   </g>
   <g id="patch_26">
    <path d="M 324 0 
Q 324 90 324 90 
" clip-path="url(#p970dbbc4f6)" style="fill: none; stroke: #000000; stroke-linejoin: miter"/>
   </g>
   <g id="patch_27">
    <path d="M 396 0 
Q 396 90 396 90 
" clip-path="url(#p970dbbc4f6)" style="fill: none; stroke: #000000; stroke-linejoin: miter"/>
   </g>
   <g id="patch_28">
    <path d="M 144 126 
Q 144 162 144 162 
" clip-path="url(#p970dbbc4f6)" style="fill: none; stroke: #000000; stroke-linejoin: miter"/>
   </g>
   <g id="patch_29">
    <path d="M 360 126 
Q 360 162 360 162 
" clip-path="url(#p970dbbc4f6)" style="fill: none; stroke: #000000; stroke-linejoin: miter"/>
   </g>
   <g id="patch_30">
    <path d="M 252 198 
Q 252 216 252 216 
" clip-path="url(#p970dbbc4f6)" style="fill: none; stroke: #000000; stroke-linejoin: miter"/>
   </g>
   <g id="patch_31">
    <path d="M 18 54 
L 18 18 
L 126 18 
L 126 54 
z
" clip-path="url(#p970dbbc4f6)" style="fill: #ffffff; stroke: #000000; stroke-linejoin: miter"/>
   </g>
   <g id="patch_32">
    <path d="M 162 54 
L 162 18 
L 270 18 
L 270 54 
z
" clip-path="url(#p970dbbc4f6)" style="fill: #ffffff; stroke: #000000; stroke-linejoin: miter"/>
   </g>
   <g id="patch_33">
    <path d="M 54 126 
L 54 90 
L 234 90 
L 234 126 
z
" clip-path="url(#p970dbbc4f6)" style="fill: #ffffff; stroke: #000000; stroke-linejoin: miter"/>
   </g>
   <g id="patch_34">
    <path d="M 306 126 
L 306 90 
L 414 90 
L 414 126 
z
" clip-path="url(#p970dbbc4f6)" style="fill: #ffffff; stroke: #000000; stroke-linejoin: miter"/>
   </g>
   <g id="patch_35">
    <path d="M 126 198 
L 126 162 
L 378 162 
L 378 198 
z
" clip-path="url(#p970dbbc4f6)" style="fill: #ffffff; stroke: #000000; stroke-linejoin: miter"/>
   </g>
   <g id="text_1">
    <!-- x -->
    <g transform="translate(40.5 12.098437) scale(0.1 -0.1)">
     <defs>
      <path id="DejaVuSans-78" d="M 3513 3500 
L 2247 1797 
L 3578 0 
L 2900 0 
L 1881 1375 
L 863 0 
L 184 0 
L 1544 1831 
L 300 3500 
L 978 3500 
L 1906 2253 
L 2834 3500 
L 3513 3500 
z
" transform="scale(0.015625)"/>
     </defs>
     <use xlink:href="#DejaVuSans-78"/>
    </g>
   </g>
   <g id="text_2">
    <!-- x -->
    <g transform="translate(112.5 12.098437) scale(0.1 -0.1)">
     <use xlink:href="#DejaVuSans-78"/>
    </g>
   </g>
   <g id="text_3">
    <!-- x -->
    <g transform="translate(76.5 66.098437) scale(0.1 -0.1)">
     <use xlink:href="#DejaVuSans-78"/>
    </g>
   </g>
   <g id="text_4">
    <!-- x -->
    <g transform="translate(184.5 12.098437) scale(0.1 -0.1)">
     <use xlink:href="#DejaVuSans-78"/>
    </g>
   </g>
   <g id="text_5">
    <!-- x -->
    <g transform="translate(256.5 12.098437) scale(0.1 -0.1)">
     <use xlink:href="#DejaVuSans-78"/>
    </g>
   </g>
   <g id="text_6">
    <!-- x -->
    <g transform="translate(220.5 66.098437) scale(0.1 -0.1)">
     <use xlink:href="#DejaVuSans-78"/>
    </g>
   </g>
   <g id="text_7">
    <!-- x -->
    <g transform="translate(328.5 12.098437) scale(0.1 -0.1)">
     <use xlink:href="#DejaVuSans-78"/>
    </g>
   </g>
   <g id="text_8">
    <!-- x -->
    <g transform="translate(400.5 12.098437) scale(0.1 -0.1)">
     <use xlink:href="#DejaVuSans-78"/>
    </g>
   </g>
   <g id="text_9">
    <!-- x -->
    <g transform="translate(148.5 138.098437) scale(0.1 -0.1)">
     <use xlink:href="#DejaVuSans-78"/>
    </g>
   </g>
   <g id="text_10">
    <!-- x -->
    <g transform="translate(364.5 138.098437) scale(0.1 -0.1)">
     <use xlink:href="#DejaVuSans-78"/>
    </g>
   </g>
   <g id="text_11">
    <!-- x -->
    <g transform="translate(256.5 210.098437) scale(0.1 -0.1)">
     <use xlink:href="#DejaVuSans-78"/>
    </g>
   </g>
   <g id="text_12">
    <!-- f -->
    <g transform="translate(70.239844 38.759375) scale(0.1 -0.1)">
     <defs>
      <path id="DejaVuSans-66" d="M 2375 4863 
L 2375 4384 
L 1825 4384 
Q 1516 4384 1395 4259 
Q 1275 4134 1275 3809 
L 1275 3500 
L 2222 3500 
L 2222 3053 
L 1275 3053 
L 1275 0 
L 697 0 
L 697 3053 
L 147 3053 
L 147 3500 
L 697 3500 
L 697 3744 
Q 697 4328 969 4595 
Q 1241 4863 1831 4863 
L 2375 4863 
z
" transform="scale(0.015625)"/>
     </defs>
     <use xlink:href="#DejaVuSans-66"/>
    </g>
   </g>
   <g id="text_13">
    <!-- f -->
    <g transform="translate(214.239844 38.759375) scale(0.1 -0.1)">
     <use xlink:href="#DejaVuSans-66"/>
    </g>
   </g>
   <g id="text_14">
    <!-- f -->
    <g transform="translate(142.239844 110.759375) scale(0.1 -0.1)">
     <use xlink:href="#DejaVuSans-66"/>
    </g>
   </g>
   <g id="text_15">
    <!-- f -->
    <g transform="translate(358.239844 110.759375) scale(0.1 -0.1)">
     <use xlink:href="#DejaVuSans-66"/>
    </g>
   </g>
   <g id="text_16">
    <!-- f -->
    <g transform="translate(250.239844 182.759375) scale(0.1 -0.1)">
     <use xlink:href="#DejaVuSans-66"/>
    </g>
   </g>
  </g>
 </g>
 <defs>
  <clipPath id="p970dbbc4f6">
   <rect x="0" y="0" width="432" height="216"/>
  </clipPath>
 </defs>
</svg>
