<?xml version="1.0" encoding="utf-8" standalone="no"?>
<!DOCTYPE svg PUBLIC "-//W3C//DTD SVG 1.1//EN"
  "http://www.w3.org/Graphics/SVG/1.1/DTD/svg11.dtd">
<svg xmlns:xlink="http://www.w3.org/1999/xlink" width="288pt" height="216pt" viewBox="0 0 288 216" xmlns="http://www.w3.org/2000/svg" version="1.1">
 <metadata>
  <rdf:RDF xmlns:dc="http://purl.org/dc/elements/1.1/" xmlns:cc="http://creativecommons.org/ns#" xmlns:rdf="http://www.w3.org/1999/02/22-rdf-syntax-ns#">
   <cc:Work>
    <dc:type rdf:resource="http://purl.org/dc/dcmitype/StillImage"/>
    <dc:format>image/svg+xml</dc:format>
    <dc:creator>
     <cc:Agent>
      <dc:title>Matplotlib v3.10.9, https://matplotlib.org/</dc:title>
     </cc:Agent>
    </dc:creator>
   </cc:Work>
  </rdf:RDF>
 </metadata>
 <defs>
  <style type="text/css">*{stroke-linejoin: round; stroke-linecap: butt}</style>
 </defs>
 <g id="figure_1">
  <g id="patch_1">
   <path d="M 0 216 
L 288 216 
L 288 0 
L 0 0 
z
" style="fill: #ffffff"/>
  </g>
  <g id="axes_1">
   <g id="patch_2">
    <path d="M 0 216 
L 288 216 
L 288 0 
L 0 0 
z
" clip-path="url(#p0b36141c20)" style="fill: #ffffff; stroke: #ffffff; stroke-linejoin: miter"/>
   </g>
   <g id="patch_3">
    <path d="M 0 216 
Q 0 0 0 0 
L 288 0 
L 288 216 
z
" clip-path="url(#p0b36141c20)" style="fill: #ffffff"/>
   </g>
   <g id="patch_4">
    <path d="M 36 54 
Q 36 162 36 162 
L 288 162 
L 288 54 
z
" clip-path="url(#p0b36141c20)" style="fill: #ffffff"/>
   </g>
   <g id="patch_5">
    <path d="M 72 0 
Q 72 18 72 18 
L 288 18 
L 288 0 
z
" clip-path="url(#p0b36141c20)" style="fill: #ffffff"/>
   </g>
   <g id="patch_6">
    <path d="M 72 198 
Q 72 216 72 216 
L 288 216 
L 288 198 
z
" clip-path="url(#p0b36141c20)" style="fill: #ffffff"/>
   </g>
   <g id="patch_7">
    <path d="M 108 54 
Q 108 72 108 72 
L 288 72 
L 288 54 
z
" clip-path="url(#p0b36141c20)" style="fill: #ffffff"/>
   </g>
   <g id="patch_8">
    <path d="M 108 144 
Q 108 162 108 162 
L 288 162 
L 288 144 
z
" clip-path="url(#p0b36141c20)" style="fill: #ffffff"/>
   </g>
   <g id="patch_9">
    <path d="M 144 108 
Q 108 108 108 144 
L 288 144 
L 288 108 
z
" clip-path="url(#p0b36141c20)" style="fill: #ffffff"/>
   </g>
   <g id="patch_10">
    <path d="M 108 72 
Q 108 108 144 108 
L 288 108 
L 288 72 
z
" clip-path="url(#p0b36141c20)" style="fill: #ffffff"/>
   </g>
   <g id="patch_11">
    <path d="M 126 18 
Q 126 54 126 54 
L 288 54 
L 288 18 
z
" clip-path="url(#p0b36141c20)" style="fill: #ffffff"/>
   </g>
   <g id="patch_12">
    <path d="M 126 162 
Q 126 198 126 198 
L 288 198 
L 288 162 
z
" clip-path="url(#p0b36141c20)" style="fill: #ffffff"/>
   </g>
   <g id="patch_13">
    <path d="M 144 108 
Q 180 108 180 144 
L 288 144 
L 288 108 
z
" clip-path="url(#p0b36141c20)" style="fill: #ffffff"/>
   </g>
   <g id="patch_14">
    <path d="M 180 72 
Q 180 108 144 108 
L 288 108 
L 288 72 
z
" clip-path="url(#p0b36141c20)" style="fill: #ffffff"/>
   </g>
   <g id="patch_15">
    <path d="M 180 54 
Q 180 72 180 72 
L 288 72 
L 288 54 
z
" clip-path="url(#p0b36141c20)" style="fill: #ffffff"/>
   </g>
   <g id="patch_16">
    <path d="M 180 144 
Q 180 162 180 162 
L 288 162 
L 288 144 
z
" clip-path="url(#p0b36141c20)" style="fill: #ffffff"/>
   </g>
   <g id="patch_17">
    <path d="M 216 0 
Q 216 18 216 18 
L 288 18 
L 288 0 
z
" clip-path="url(#p0b36141c20)" style="fill: #ffffff"/>
   </g>
   <g id="patch_18">
    <path d="M 216 198 
Q 216 216 216 216 
L 288 216 
L 288 198 
z
" clip-path="url(#p0b36141c20)" style="fill: #ffffff"/>
   </g>
   <g id="patch_19">
    <path d="M 252 54 
Q 252 162 252 162 
L 288 162 
L 288 54 
z
" clip-path="url(#p0b36141c20)" style="fill: #ffffff"/>
   </g>
   <g id="patch_20">
    <path d="M 270 18 
Q 270 54 270 54 
L 288 54 
L 288 18 
z
" clip-path="url(#p0b36141c20)" style="fill: #ffffff"/>
   </g>
   <g id="patch_21">
    <path d="M 270 162 
Q 270 198 270 198 
L 288 198 
L 288 162 
z
" clip-path="url(#p0b36141c20)" style="fill: #ffffff"/>
   </g>
   <g id="patch_22">
    <path d="M 108 72 
C 108 108 180 108 180 144 
" clip-path="url(#p0b36141c20)" style="fill: none; stroke: #000000; stroke-linejoin: miter"/>
   </g>
   <g id="patch_23">
    <path d="M 180 72 
C 180 108 108 108 108 144 
" clip-path="url(#p0b36141c20)" style="fill: none; stroke: #000000; stroke-linejoin: miter"/>
   </g>
   <g id="patch_24">
    <path d="M 72 0 
Q 72 18 72 18 
" clip-path="url(#p0b36141c20)" style="fill: none; stroke: #000000; stroke-linejoin: miter"/>
   </g>
   <g id="patch_25">
    <path d="M 36 54 
Q 36 162 36 162 
" clip-path="url(#p0b36141c20)" style="fill: none; stroke: #000000; stroke-linejoin: miter"/>
   </g>
   <g id="patch_26">
    <path d="M 108 54 
Q 108 72 108 72 
" clip-path="url(#p0b36141c20)" style="fill: none; stroke: #000000; stroke-linejoin: miter"/>
   </g>
   <g id="patch_27">
    <path d="M 216 0 
Q 216 18 216 18 
" clip-path="url(#p0b36141c20)" style="fill: none; stroke: #000000; stroke-linejoin: miter"/>
   </g>
   <g id="patch_28">
    <path d="M 180 54 
Q 180 72 180 72 
" clip-path="url(#p0b36141c20)" style="fill: none; stroke: #000000; stroke-linejoin: miter"/>
   </g>
   <g id="patch_29">
    <path d="M 252 54 
Q 252 162 252 162 
" clip-path="url(#p0b36141c20)" style="fill: none; stroke: #000000; stroke-linejoin: miter"/>
   </g>
   <g id="patch_30">
    <path d="M 108 144 
Q 108 162 108 162 
" clip-path="url(#p0b36141c20)" style="fill: none; stroke: #000000; stroke-linejoin: miter"/>
   </g>
   <g id="patch_31">
    <path d="M 180 144 
Q 180 162 180 162 
" clip-path="url(#p0b36141c20)" style="fill: none; stroke: #000000; stroke-linejoin: miter"/>
   </g>
   <g id="patch_32">
    <path d="M 72 198 
Q 72 216 72 216 
" clip-path="url(#p0b36141c20)" style="fill: none; stroke: #000000; stroke-linejoin: miter"/>
   </g>
   <g id="patch_33">
    <path d="M 216 198 
Q 216 216 216 216 
" clip-path="url(#p0b36141c20)" style="fill: none; stroke: #000000; stroke-linejoin: miter"/>
   </g>
   <g id="patch_34">
    <path d="M 18 54 
L 18 18 
L 126 18 
L 126 54 
z
" clip-path="url(#p0b36141c20)" style="fill: #ffffff; stroke: #000000; stroke-linejoin: miter"/>
   </g>
   <g id="patch_35">
    <path d="M 162 54 
L 162 18 
L 270 18 
L 270 54 
z
" clip-path="url(#p0b36141c20)" style="fill: #ffffff; stroke: #000000; stroke-linejoin: miter"/>
   </g>
   <g id="patch_36">
    <path d="M 18 198 
L 18 162 
L 126 162 
L 126 198 
z
" clip-path="url(#p0b36141c20)" style="fill: #ffffff; stroke: #000000; stroke-linejoin: miter"/>
   </g>
   <g id="patch_37">
    <path d="M 162 198 
L 162 162 
L 270 162 
L 270 198 
z
" clip-path="url(#p0b36141c20)" style="fill: #ffffff; stroke: #000000; stroke-linejoin: miter"/>
   </g>
   <g id="text_1">
    <!-- egg -->
    <g transform="translate(76.5 12.098437) scale(0.1 -0.1)">
     <defs>
      <path id="DejaVuSans-65" d="M 3597 1894 
L 3597 1613 
L 953 1613 
Q 991 1019 1311 708 
Q 1631 397 2203 397 
Q 2534 397 2845 478 
Q 3156 559 3463 722 
L 3463 178 
Q 3153 47 2828 -22 
Q 2503 -91 2169 -91 
Q 1331 -91 842 396 
Q 353 884 353 1716 
Q 353 2575 817 3079 
Q 1281 3584 2069 3584 
Q 2775 3584 3186 3129 
Q 3597 2675 3597 1894 
z
M 3022 2063 
Q 3016 2534 2758 2815 
Q 2500 3097 2075 3097 
Q 1594 3097 1305 2825 
Q 1016 2553 972 2059 
L 3022 2063 
z
" transform="scale(0.015625)"/>
      <path id="DejaVuSans-67" d="M 2906 1791 
Q 2906 2416 2648 2759 
Q 2391 3103 1925 3103 
Q 1463 3103 1205 2759 
Q 947 2416 947 1791 
Q 947 1169 1205 825 
Q 1463 481 1925 481 
Q 2391 481 2648 825 
Q 2906 1169 2906 1791 
z
M 3481 434 
Q 3481 -459 3084 -895 
Q 2688 -1331 1869 -1331 
Q 1566 -1331 1297 -1286 
Q 1028 -1241 775 -1147 
L 775 -588 
Q 1028 -725 1275 -790 
Q 1522 -856 1778 -856 
Q 2344 -856 2625 -561 
Q 2906 -266 2906 331 
L 2906 616 
Q 2728 306 2450 153 
Q 2172 0 1784 0 
Q 1141 0 747 490 
Q 353 981 353 1791 
Q 353 2603 747 3093 
Q 1141 3584 1784 3584 
Q 2172 3584 2450 3431 
Q 2728 3278 2906 2969 
L 2906 3500 
L 3481 3500 
L 3481 434 
z
" transform="scale(0.015625)"/>
     </defs>
     <use xlink:href="#DejaVuSans-65"/>
     <use xlink:href="#DejaVuSans-67" transform="translate(61.523438 0)"/>
     <use xlink:href="#DejaVuSans-67" transform="translate(125 0)"/>
    </g>
   </g>
   <g id="text_2">
    <!-- white -->
    <g transform="translate(40.5 66.098437) scale(0.1 -0.1)">
     <defs>
      <path id="DejaVuSans-77" d="M 269 3500 
L 844 3500 
L 1563 769 
L 2278 3500 
L 2956 3500 
L 3675 769 
L 4391 3500 
L 4966 3500 
L 4050 0 
L 3372 0 
L 2619 2869 
L 1863 0 
L 1184 0 
L 269 3500 
z
" transform="scale(0.015625)"/>
      <path id="DejaVuSans-68" d="M 3513 2113 
L 3513 0 
L 2938 0 
L 2938 2094 
Q 2938 2591 2744 2837 
Q 2550 3084 2163 3084 
Q 1697 3084 1428 2787 
Q 1159 2491 1159 1978 
L 1159 0 
L 581 0 
L 581 4863 
L 1159 4863 
L 1159 2956 
Q 1366 3272 1645 3428 
Q 1925 3584 2291 3584 
Q 2894 3584 3203 3211 
Q 3513 2838 3513 2113 
z
" transform="scale(0.015625)"/>
      <path id="DejaVuSans-69" d="M 603 3500 
L 1178 3500 
L 1178 0 
L 603 0 
L 603 3500 
z
M 603 4863 
L 1178 4863 
L 1178 4134 
L 603 4134 
L 603 4863 
z
" transform="scale(0.015625)"/>
      <path id="DejaVuSans-74" d="M 1172 4494 
L 1172 3500 
L 2356 3500 
L 2356 3053 
L 1172 3053 
L 1172 1153 
Q 1172 725 1289 603 
Q 1406 481 1766 481 
L 2356 481 
L 2356 0 
L 1766 0 
Q 1100 0 847 248 
Q 594 497 594 1153 
L 594 3053 
L 172 3053 
L 172 3500 
L 594 3500 
L 594 4494 
L 1172 4494 
z
" transform="scale(0.015625)"/>
     </defs>
     <use xlink:href="#DejaVuSans-77"/>
     <use xlink:href="#DejaVuSans-68" transform="translate(81.787109 0)"/>
     <use xlink:href="#DejaVuSans-69" transform="translate(145.166016 0)"/>
     <use xlink:href="#DejaVuSans-74" transform="translate(172.949219 0)"/>
     <use xlink:href="#DejaVuSans-65" transform="translate(212.158203 0)"/>
    </g>
   </g>
   <g id="text_3">
    <!-- yolk -->
    <g transform="translate(112.5 66.098437) scale(0.1 -0.1)">
     <defs>
      <path id="DejaVuSans-79" d="M 2059 -325 
Q 1816 -950 1584 -1140 
Q 1353 -1331 966 -1331 
L 506 -1331 
L 506 -850 
L 844 -850 
Q 1081 -850 1212 -737 
Q 1344 -625 1503 -206 
L 1606 56 
L 191 3500 
L 800 3500 
L 1894 763 
L 2988 3500 
L 3597 3500 
L 2059 -325 
z
" transform="scale(0.015625)"/>
      <path id="DejaVuSans-6f" d="M 1959 3097 
Q 1497 3097 1228 2736 
Q 959 2375 959 1747 
Q 959 1119 1226 758 
Q 1494 397 1959 397 
Q 2419 397 2687 759 
Q 2956 1122 2956 1747 
Q 2956 2369 2687 2733 
Q 2419 3097 1959 3097 
z
M 1959 3584 
Q 2709 3584 3137 3096 
Q 3566 2609 3566 1747 
Q 3566 888 3137 398 
Q 2709 -91 1959 -91 
Q 1206 -91 779 398 
Q 353 888 353 1747 
Q 353 2609 779 3096 
Q 1206 3584 1959 3584 
z
" transform="scale(0.015625)"/>
      <path id="DejaVuSans-6c" d="M 603 4863 
L 1178 4863 
L 1178 0 
L 603 0 
L 603 4863 
z
" transform="scale(0.015625)"/>
      <path id="DejaVuSans-6b" d="M 581 4863 
L 1159 4863 
L 1159 1991 
L 2875 3500 
L 3609 3500 
L 1753 1863 
L 3688 0 
L 2938 0 
L 1159 1709 
L 1159 0 
L 581 0 
L 581 4863 
z
" transform="scale(0.015625)"/>
     </defs>
     <use xlink:href="#DejaVuSans-79"/>
     <use xlink:href="#DejaVuSans-6f" transform="translate(59.179688 0)"/>
     <use xlink:href="#DejaVuSans-6c" transform="translate(120.361328 0)"/>
     <use xlink:href="#DejaVuSans-6b" transform="translate(148.144531 0)"/>
    </g>
   </g>
   <g id="text_4">
    <!-- egg -->
    <g transform="translate(220.5 12.098437) scale(0.1 -0.1)">
     <use xlink:href="#DejaVuSans-65"/>
     <use xlink:href="#DejaVuSans-67" transform="translate(61.523438 0)"/>
     <use xlink:href="#DejaVuSans-67" transform="translate(125 0)"/>
    </g>
   </g>
   <g id="text_5">
    <!-- white -->
    <g transform="translate(184.5 66.098437) scale(0.1 -0.1)">
     <use xlink:href="#DejaVuSans-77"/>
     <use xlink:href="#DejaVuSans-68" transform="translate(81.787109 0)"/>
     <use xlink:href="#DejaVuSans-69" transform="translate(145.166016 0)"/>
     <use xlink:href="#DejaVuSans-74" transform="translate(172.949219 0)"/>
     <use xlink:href="#DejaVuSans-65" transform="translate(212.158203 0)"/>
    </g>
   </g>
   <g id="text_6">
    <!-- yolk -->
    <g transform="translate(256.5 66.098437) scale(0.1 -0.1)">
     <use xlink:href="#DejaVuSans-79"/>
     <use xlink:href="#DejaVuSans-6f" transform="translate(59.179688 0)"/>
     <use xlink:href="#DejaVuSans-6c" transform="translate(120.361328 0)"/>
     <use xlink:href="#DejaVuSans-6b" transform="translate(148.144531 0)"/>
    </g>
   </g>
   <g id="text_7">
    <!-- white -->
    <g transform="translate(112.5 138.098437) scale(0.1 -0.1)">
     <use xlink:href="#DejaVuSans-77"/>
     <use xlink:href="#DejaVuSans-68" transform="translate(81.787109 0)"/>
     <use xlink:href="#DejaVuSans-69" transform="translate(145.166016 0)"/>
     <use xlink:href="#DejaVuSans-74" transform="translate(172.949219 0)"/>
     <use xlink:href="#DejaVuSans-65" transform="translate(212.158203 0)"/>
    </g>
   </g>
   <g id="text_8">
    <!-- yolk -->
    <g transform="translate(184.5 138.098437) scale(0.1 -0.1)">
     <use xlink:href="#DejaVuSans-79"/>
     <use xlink:href="#DejaVuSans-6f" transform="translate(59.179688 0)"/>
     <use xlink:href="#DejaVuSans-6c" transform="translate(120.361328 0)"/>
     <use xlink:href="#DejaVuSans-6b" transform="translate(148.144531 0)"/>
    </g>
   </g>
   <g id="text_9">
    <!-- white -->
    <g transform="translate(76.5 210.098437) scale(0.1 -0.1)">
     <use xlink:href="#DejaVuSans-77"/>
     <use xlink:href="#DejaVuSans-68" transform="translate(81.787109 0)"/>
     <use xlink:href="#DejaVuSans-69" transform="translate(145.166016 0)"/>
     <use xlink:href="#DejaVuSans-74" transform="translate(172.949219 0)"/>
     <use xlink:href="#DejaVuSans-65" transform="translate(212.158203 0)"/>
    </g>
   </g>
   <g id="text_10">
    <!-- yolk -->
    <g transform="translate(220.5 210.098437) scale(0.1 -0.1)">
     <use xlink:href="#DejaVuSans-79"/>
     <use xlink:href="#DejaVuSans-6f" transform="translate(59.179688 0)"/>
     <use xlink:href="#DejaVuSans-6c" transform="translate(120.361328 0)"/>
     <use xlink:href="#DejaVuSans-6b" transform="translate(148.144531 0)"/>
    </g>
   </g>
   <g id="text_11">
    <!-- crack -->
    <g transform="translate(58.486719 38.759375) scale(0.1 -0.1)">
     <defs>
      <path id="DejaVuSans-63" d="M 3122 3366 
L 3122 2828 
Q 2878 2963 2633 3030 
Q 2388 3097 2138 3097 
Q 1578 3097 1268 2742 
Q 959 2388 959 1747 
Q 959 1106 1268 751 
Q 1578 397 2138 397 
Q 2388 397 2633 464 
Q 2878 531 3122 666 
L 3122 134 
Q 2881 22 2623 -34 
Q 2366 -91 2075 -91 
Q 1284 -91 818 406 
Q 353 903 353 1747 
Q 353 2603 823 3093 
Q 1294 3584 2113 3584 
Q 2378 3584 2631 3529 
Q 2884 3475 3122 3366 
z
" transform="scale(0.015625)"/>
      <path id="DejaVuSans-72" d="M 2631 2963 
Q 2534 3019 2420 3045 
Q 2306 3072 2169 3072 
Q 1681 3072 1420 2755 
Q 1159 2438 1159 1844 
L 1159 0 
L 581 0 
L 581 3500 
L 1159 3500 
L 1159 2956 
Q 1341 3275 1631 3429 
Q 1922 3584 2338 3584 
Q 2397 3584 2469 3576 
Q 2541 3569 2628 3553 
L 2631 2963 
z
" transform="scale(0.015625)"/>
      <path id="DejaVuSans-61" d="M 2194 1759 
Q 1497 1759 1228 1600 
Q 959 1441 959 1056 
Q 959 750 1161 570 
Q 1363 391 1709 391 
Q 2188 391 2477 730 
Q 2766 1069 2766 1631 
L 2766 1759 
L 2194 1759 
z
M 3341 1997 
L 3341 0 
L 2766 0 
L 2766 531 
Q 2569 213 2275 61 
Q 1981 -91 1556 -91 
Q 1019 -91 701 211 
Q 384 513 384 1019 
Q 384 1609 779 1909 
Q 1175 2209 1959 2209 
L 2766 2209 
L 2766 2266 
Q 2766 2663 2505 2880 
Q 2244 3097 1772 3097 
Q 1472 3097 1187 3025 
Q 903 2953 641 2809 
L 641 3341 
Q 956 3463 1253 3523 
Q 1550 3584 1831 3584 
Q 2591 3584 2966 3190 
Q 3341 2797 3341 1997 
z
" transform="scale(0.015625)"/>
     </defs>
     <use xlink:href="#DejaVuSans-63"/>
     <use xlink:href="#DejaVuSans-72" transform="translate(54.980469 0)"/>
     <use xlink:href="#DejaVuSans-61" transform="translate(96.09375 0)"/>
     <use xlink:href="#DejaVuSans-63" transform="translate(157.373047 0)"/>
     <use xlink:href="#DejaVuSans-6b" transform="translate(212.353516 0)"/>
    </g>
   </g>
   <g id="text_12">
    <!-- crack -->
    <g transform="translate(202.486719 38.759375) scale(0.1 -0.1)">
     <use xlink:href="#DejaVuSans-63"/>
     <use xlink:href="#DejaVuSans-72" transform="translate(54.980469 0)"/>
     <use xlink:href="#DejaVuSans-61" transform="translate(96.09375 0)"/>
     <use xlink:href="#DejaVuSans-63" transform="translate(157.373047 0)"/>
     <use xlink:href="#DejaVuSans-6b" transform="translate(212.353516 0)"/>
    </g>
   </g>
   <g id="text_13">
    <!-- merge -->
    <g transform="translate(55.834375 182.759375) scale(0.1 -0.1)">
     <defs>
      <path id="DejaVuSans-6d" d="M 3328 2828 
Q 3544 3216 3844 3400 
Q 4144 3584 4550 3584 
Q 5097 3584 5394 3201 
Q 5691 2819 5691 2113 
L 5691 0 
L 5113 0 
L 5113 2094 
Q 5113 2597 4934 2840 
Q 4756 3084 4391 3084 
Q 3944 3084 3684 2787 
Q 3425 2491 3425 1978 
L 3425 0 
L 2847 0 
L 2847 2094 
Q 2847 2600 2669 2842 
Q 2491 3084 2119 3084 
Q 1678 3084 1418 2786 
Q 1159 2488 1159 1978 
L 1159 0 
L 581 0 
L 581 3500 
L 1159 3500 
L 1159 2956 
Q 1356 3278 1631 3431 
Q 1906 3584 2284 3584 
Q 2666 3584 2933 3390 
Q 3200 3197 3328 2828 
z
" transform="scale(0.015625)"/>
     </defs>
     <use xlink:href="#DejaVuSans-6d"/>
     <use xlink:href="#DejaVuSans-65" transform="translate(97.412109 0)"/>
     <use xlink:href="#DejaVuSans-72" transform="translate(158.935547 0)"/>
     <use xlink:href="#DejaVuSans-67" transform="translate(198.298828 0)"/>
     <use xlink:href="#DejaVuSans-65" transform="translate(261.775391 0)"/>
    </g>
   </g>
   <g id="text_14">
    <!-- merge -->
    <g transform="translate(199.834375 182.759375) scale(0.1 -0.1)">
     <use xlink:href="#DejaVuSans-6d"/>
     <use xlink:href="#DejaVuSans-65" transform="translate(97.412109 0)"/>
     <use xlink:href="#DejaVuSans-72" transform="translate(158.935547 0)"/>
     <use xlink:href="#DejaVuSans-67" transform="translate(198.298828 0)"/>
     <use xlink:href="#DejaVuSans-65" transform="translate(261.775391 0)"/>
    </g>
   </g>
  </g>
 </g>
 <defs>
  <clipPath id="p0b36141c20">
   <rect x="0" y="0" width="288" height="216"/>
  </clipPath>
 </defs>
</svg>
