<?xml version="1.0" encoding="UTF-8" standalone="no"?>
<!DOCTYPE svg PUBLIC "-//W3C//DTD SVG 1.1//EN"
 "http://www.w3.org/Graphics/SVG/1.1/DTD/svg11.dtd">
<!-- Generated by graphviz version 2.43.0 (0)
 -->
<!-- Title: cmap Pages: 1 -->
<svg width="99pt" height="295pt"
 viewBox="2.88 2.88 96.38 291.88" xmlns="http://www.w3.org/2000/svg" xmlns:xlink="http://www.w3.org/1999/xlink">
<g id="graph0" class="graph" transform="scale(1 1) rotate(0) translate(6.88 287.88)">
<title>cmap</title>
<polygon fill="white" stroke="transparent" points="-4,4 -4,-285 89.5,-285 89.5,4 -4,4"/>
<!-- v0&#45;&#45;v1 -->
<g id="edge3" class="edge">
<title>v0:n&#45;&#45;v1:s</title>
<path fill="none" stroke="black" stroke-width="1.4" d="M51,-227.5C51,-231.52 57.32,-229.5 60,-226.5 60,-226.5 60,-126.5 60,-126.5 55.44,-121.62 45,-118.82 45,-125.5"/>
<text text-anchor="middle" x="63" y="-174.8" font-family="Times,serif" font-size="9.00">y</text>
</g>
<!-- v0&#45;&#45;v1 -->
<g id="edge4" class="edge">
<title>v0:s&#45;&#45;v1:n</title>
<path fill="none" stroke="black" stroke-width="1.4" d="M42,-200C42,-178.87 30,-175.13 30,-154"/>
<text text-anchor="middle" x="40.5" y="-174.8" font-family="Times,serif" font-size="9.00">z</text>
</g>
<!-- v1&#45;&#45;v2 -->
<g id="edge5" class="edge">
<title>v1:s&#45;&#45;v2:n</title>
<path fill="none" stroke="black" stroke-width="1.4" d="M15,-127C15,-103.52 41,-104.48 41,-81"/>
<text text-anchor="middle" x="52.5" y="-101.8" font-family="Times,serif" font-size="9.00">(y &gt;&gt; z)</text>
</g>
<!-- v2&#45;&#45;output -->
<g id="edge6" class="edge">
<title>v2:s&#45;&#45;output:n</title>
<path fill="none" stroke="black" stroke-width="1.4" d="M57,-54C57,-33.56 57,-28.44 57,-8"/>
<text text-anchor="middle" x="59.5" y="-28.8" font-family="Times,serif" font-size="9.00">z</text>
</g>
<!-- input&#45;&#45;v0 -->
<g id="edge1" class="edge">
<title>input:s&#45;&#45;v0:n</title>
<path fill="none" stroke="black" stroke-width="1.4" d="M68,-273C68,-247.31 33,-252.69 33,-227"/>
<text text-anchor="middle" x="60" y="-247.8" font-family="Times,serif" font-size="9.00">x</text>
</g>
<!-- input&#45;&#45;v2 -->
<g id="edge2" class="edge">
<title>input:s&#45;&#45;v2:n</title>
<path fill="none" stroke="black" stroke-width="1.4" d="M76,-273C76,-195.66 80.82,-176.04 74,-99 73.28,-90.92 71,-89.11 71,-81"/>
<text text-anchor="middle" x="80" y="-174.8" font-family="Times,serif" font-size="9.00">y</text>
</g>
<!-- v0 -->
<g id="node1" class="node">
<title>v0</title>
<polygon fill="none" stroke="black" points="24,-199.5 24,-226.5 60,-226.5 60,-199.5 24,-199.5"/>
<text text-anchor="start" x="39.5" y="-209.9" font-family="Helvetica,sans-Serif" font-size="12.00">f</text>
</g>
<!-- v1 -->
<g id="node2" class="node">
<title>v1</title>
<polygon fill="none" stroke="black" points="0,-126.5 0,-153.5 60,-153.5 60,-126.5 0,-126.5"/>
<text text-anchor="start" x="7" y="-136.9" font-family="Helvetica,sans-Serif" font-size="12.00">lambda</text>
</g>
<!-- v2 -->
<g id="node3" class="node">
<title>v2</title>
<polygon fill="none" stroke="black" points="27,-53.5 27,-80.5 86,-80.5 86,-53.5 27,-53.5"/>
<text text-anchor="start" x="34" y="-63.9" font-family="Helvetica,sans-Serif" font-size="12.00">__call__</text>
</g>
<!-- input -->
<g id="node4" class="node">
<title>input</title>
</g>
<!-- output -->
<g id="node5" class="node">
<title>output</title>
</g>
</g>
</svg>
