<?xml version="1.0" encoding="UTF-8" standalone="no"?>
<!DOCTYPE svg PUBLIC "-//W3C//DTD SVG 1.1//EN"
 "http://www.w3.org/Graphics/SVG/1.1/DTD/svg11.dtd">
<!-- Generated by graphviz version 12.2.1 (0)
 -->
<!-- Title: cmap Pages: 1 -->
<svg width="115pt" height="296pt"
 viewBox="2.88 2.88 112.39 293.13" xmlns="http://www.w3.org/2000/svg" xmlns:xlink="http://www.w3.org/1999/xlink">
<g id="graph0" class="graph" transform="scale(1 1) rotate(0) translate(6.88 289.13)">
<title>cmap</title>
<polygon fill="white" stroke="none" points="-4,4 -4,-286.25 105.51,-286.25 105.51,4 -4,4"/>
<!-- v0&#45;&#45;v1 -->
<g id="edge3" class="edge">
<title>v0:n&#45;&#45;v1:s</title>
<path fill="none" stroke="black" stroke-width="1.4" d="M50.88,-228.75C50.88,-232.77 44.56,-230.75 41.88,-227.75 33.95,-218.89 41.86,-212.89 41.88,-201 41.9,-168.44 19.83,-151.59 42,-127.75 46.08,-123.36 55.44,-120.76 55.44,-126.75"/>
<text text-anchor="middle" x="41.75" y="-174.45" font-family="Times,serif" font-size="9.00">x</text>
</g>
<!-- v0&#45;&#45;v1 -->
<g id="edge4" class="edge">
<title>v0:s&#45;&#45;v1:n</title>
<path fill="none" stroke="black" stroke-width="1.4" d="M59.88,-201C59.88,-179.95 68.88,-175.55 68.88,-154.5"/>
<text text-anchor="middle" x="67.84" y="-174.45" font-family="Times,serif" font-size="9.00">z</text>
</g>
<!-- v1&#45;&#45;v2 -->
<g id="edge5" class="edge">
<title>v1:s&#45;&#45;v2:n</title>
<path fill="none" stroke="black" stroke-width="1.4" d="M82.31,-127.75C82.31,-101.2 44.81,-107.8 44.81,-81.25"/>
<text text-anchor="middle" x="86.88" y="-101.2" font-family="Times,serif" font-size="9.00">(x &gt;&gt; z)</text>
</g>
<!-- v2&#45;&#45;output -->
<g id="edge6" class="edge">
<title>v2:s&#45;&#45;output:n</title>
<path fill="none" stroke="black" stroke-width="1.4" d="M29.88,-54.5C29.88,-33.83 29.88,-28.67 29.88,-8"/>
<text text-anchor="middle" x="31.75" y="-27.95" font-family="Times,serif" font-size="9.00">z</text>
</g>
<!-- input&#45;&#45;v0 -->
<g id="edge2" class="edge">
<title>input:s&#45;&#45;v0:n</title>
<path fill="none" stroke="black" stroke-width="1.4" d="M33.88,-274.25C33.88,-248.38 68.88,-253.62 68.88,-227.75"/>
<text text-anchor="middle" x="61.74" y="-247.7" font-family="Times,serif" font-size="9.00">y</text>
</g>
<!-- input&#45;&#45;v2 -->
<g id="edge1" class="edge">
<title>input:s&#45;&#45;v2:n</title>
<path fill="none" stroke="black" stroke-width="1.4" d="M25.88,-274.25C25.88,-188.33 14.94,-167.17 14.94,-81.25"/>
<text text-anchor="middle" x="23.16" y="-174.45" font-family="Times,serif" font-size="9.00">x</text>
</g>
<!-- v0 -->
<g id="node1" class="node">
<title>v0</title>
<g id="a_node1_0"><a xlink:title="dom 0: x (up, up)">
</a>
</g>
<g id="a_node1_1"><a xlink:title="dom 1: y (up, up)">
</a>
</g>
<polygon fill="none" stroke="black" points="41.88,-201 41.88,-227.75 77.88,-227.75 77.88,-201 41.88,-201"/>
<text text-anchor="start" x="58.38" y="-209.35" font-family="Helvetica,sans-Serif" font-size="12.00">f</text>
<g id="a_node1_2"><a xlink:title="cod 0: z (down, down)">
</a>
</g>
</g>
<!-- v1 -->
<g id="node2" class="node">
<title>v1</title>
<g id="a_node2_3"><a xlink:title="dom 0: z (up, up)">
</a>
</g>
<polygon fill="none" stroke="black" points="42,-127.75 42,-154.5 95.75,-154.5 95.75,-127.75 42,-127.75"/>
<text text-anchor="start" x="49" y="-136.1" font-family="Helvetica,sans-Serif" font-size="12.00">lambda</text>
<g id="a_node2_4"><a xlink:title="cod 0: x (down, down)">
</a>
</g>
<g id="a_node2_5"><a xlink:title="cod 1: (x &gt;&gt; z) (down, down)">
</a>
</g>
</g>
<!-- v2 -->
<g id="node3" class="node">
<title>v2</title>
<g id="a_node3_6"><a xlink:title="dom 0: x (up, up)">
</a>
</g>
<g id="a_node3_7"><a xlink:title="dom 1: (x &gt;&gt; z) (up, up)">
</a>
</g>
<polygon fill="none" stroke="black" points="0,-54.5 0,-81.25 59.75,-81.25 59.75,-54.5 0,-54.5"/>
<text text-anchor="start" x="7" y="-62.85" font-family="Helvetica,sans-Serif" font-size="12.00">__call__</text>
<g id="a_node3_8"><a xlink:title="cod 0: z (down, down)">
</a>
</g>
</g>
<!-- input -->
<g id="node4" class="node">
<title>input</title>
<g id="a_node4_9"><a xlink:title="input 0: x">
</a>
</g>
<g id="a_node4_10"><a xlink:title="input 1: y">
</a>
</g>
</g>
<!-- output -->
<g id="node5" class="node">
<title>output</title>
<g id="a_node5_11"><a xlink:title="output 0: z">
</a>
</g>
</g>
</g>
</svg>
