<?xml version="1.0" encoding="UTF-8" standalone="no"?>
<!DOCTYPE svg PUBLIC "-//W3C//DTD SVG 1.1//EN"
 "http://www.w3.org/Graphics/SVG/1.1/DTD/svg11.dtd">
<!-- Generated by graphviz version 2.43.0 (0)
 -->
<!-- Title: cmap Pages: 1 -->
<svg width="119pt" height="295pt"
 viewBox="2.88 2.88 116.38 291.88" xmlns="http://www.w3.org/2000/svg" xmlns:xlink="http://www.w3.org/1999/xlink">
<g id="graph0" class="graph" transform="scale(1 1) rotate(0) translate(6.88 287.88)">
<title>cmap</title>
<polygon fill="white" stroke="transparent" points="-4,4 -4,-285 109.5,-285 109.5,4 -4,4"/>
<!-- v0&#45;&#45;v1 -->
<g id="edge3" class="edge">
<title>v0:n&#45;&#45;v1:s</title>
<path fill="none" stroke="black" stroke-width="1.4" d="M40.5,-227.5C40.5,-231.52 34.18,-229.5 31.5,-226.5 23.65,-217.72 31.5,-211.78 31.5,-200 31.5,-167.33 9.18,-150.35 31.5,-126.5 36.06,-121.62 46.5,-118.82 46.5,-125.5"/>
<text text-anchor="middle" x="31.5" y="-174.8" font-family="Times,serif" font-size="9.00">x</text>
</g>
<!-- v0&#45;&#45;v1 -->
<g id="edge4" class="edge">
<title>v0:s&#45;&#45;v1:n</title>
<path fill="none" stroke="black" stroke-width="1.4" d="M49.5,-200C49.5,-178.87 61.5,-175.13 61.5,-154"/>
<text text-anchor="middle" x="60" y="-174.8" font-family="Times,serif" font-size="9.00">z</text>
</g>
<!-- v1&#45;&#45;v2 -->
<g id="edge5" class="edge">
<title>v1:s&#45;&#45;v2:n</title>
<path fill="none" stroke="black" stroke-width="1.4" d="M76.5,-127C76.5,-102.1 44.5,-105.9 44.5,-81"/>
<text text-anchor="middle" x="86" y="-101.8" font-family="Times,serif" font-size="9.00">(x &gt;&gt; z)</text>
</g>
<!-- v2&#45;&#45;output -->
<g id="edge6" class="edge">
<title>v2:s&#45;&#45;output:n</title>
<path fill="none" stroke="black" stroke-width="1.4" d="M30.5,-54C30.5,-33.56 30.5,-28.44 30.5,-8"/>
<text text-anchor="middle" x="33" y="-28.8" font-family="Times,serif" font-size="9.00">z</text>
</g>
<!-- input&#45;&#45;v0 -->
<g id="edge2" class="edge">
<title>input:s&#45;&#45;v0:n</title>
<path fill="none" stroke="black" stroke-width="1.4" d="M29.5,-273C29.5,-248.83 58.5,-251.17 58.5,-227"/>
<text text-anchor="middle" x="52.5" y="-247.8" font-family="Times,serif" font-size="9.00">y</text>
</g>
<!-- input&#45;&#45;v2 -->
<g id="edge1" class="edge">
<title>input:s&#45;&#45;v2:n</title>
<path fill="none" stroke="black" stroke-width="1.4" d="M21.5,-273C21.5,-232.49 18.01,-222.48 16.5,-182 14.82,-137.13 14.5,-125.9 14.5,-81"/>
<text text-anchor="middle" x="19.5" y="-174.8" font-family="Times,serif" font-size="9.00">x</text>
</g>
<!-- v0 -->
<g id="node1" class="node">
<title>v0</title>
<polygon fill="none" stroke="black" points="31.5,-199.5 31.5,-226.5 67.5,-226.5 67.5,-199.5 31.5,-199.5"/>
<text text-anchor="start" x="47" y="-209.9" font-family="Helvetica,sans-Serif" font-size="12.00">f</text>
</g>
<!-- v1 -->
<g id="node2" class="node">
<title>v1</title>
<polygon fill="none" stroke="black" points="31.5,-126.5 31.5,-153.5 91.5,-153.5 91.5,-126.5 31.5,-126.5"/>
<text text-anchor="start" x="38.5" y="-136.9" font-family="Helvetica,sans-Serif" font-size="12.00">lambda</text>
</g>
<!-- v2 -->
<g id="node3" class="node">
<title>v2</title>
<polygon fill="none" stroke="black" points="0.5,-53.5 0.5,-80.5 59.5,-80.5 59.5,-53.5 0.5,-53.5"/>
<text text-anchor="start" x="7.5" y="-63.9" font-family="Helvetica,sans-Serif" font-size="12.00">__call__</text>
</g>
<!-- input -->
<g id="node4" class="node">
<title>input</title>
</g>
<!-- output -->
<g id="node5" class="node">
<title>output</title>
</g>
</g>
</svg>
