<?xml version="1.0" encoding="UTF-8" standalone="no"?>
<!DOCTYPE svg PUBLIC "-//W3C//DTD SVG 1.1//EN"
 "http://www.w3.org/Graphics/SVG/1.1/DTD/svg11.dtd">
<!-- Generated by graphviz version 12.2.1 (0)
 -->
<!-- Title: cmap Pages: 1 -->
<svg width="52pt" height="150pt"
 viewBox="2.88 2.88 49.34 146.63" xmlns="http://www.w3.org/2000/svg" xmlns:xlink="http://www.w3.org/1999/xlink">
<g id="graph0" class="graph" transform="scale(1 1) rotate(0) translate(6.88 142.63)">
<title>cmap</title>
<polygon fill="white" stroke="none" points="-4,4 -4,-139.75 42.46,-139.75 42.46,4 -4,4"/>
<!-- v0&#45;&#45;output -->
<g id="edge2" class="edge">
<title>v0:n&#45;&#45;output:n</title>
<path fill="none" stroke="black" stroke-width="1.4" d="M11.46,-82.25C11.46,-86.27 5.14,-84.25 2.46,-81.25 -5.6,-72.25 11.46,-18.82 11.46,-8"/>
<text text-anchor="middle" x="16.66" y="-19.83" font-family="Times,serif" font-size="9.00">x.r</text>
<text text-anchor="middle" x="15.63" y="-94.4" font-family="Times,serif" font-size="9.00">x</text>
</g>
<!-- v0&#45;&#45;output -->
<g id="edge3" class="edge">
<title>v0:s&#45;&#45;output:n</title>
<path fill="none" stroke="black" stroke-width="1.4" d="M20.46,-54.5C20.46,-33.83 19.46,-28.67 19.46,-8"/>
<text text-anchor="middle" x="22.01" y="-27.95" font-family="Times,serif" font-size="9.00">z</text>
</g>
<!-- input&#45;&#45;v0 -->
<g id="edge1" class="edge">
<title>input:s&#45;&#45;v0:n</title>
<path fill="none" stroke="black" stroke-width="1.4" d="M29.46,-127.75C29.46,-107.08 29.46,-101.92 29.46,-81.25"/>
<text text-anchor="middle" x="31.71" y="-101.2" font-family="Times,serif" font-size="9.00">y</text>
</g>
<!-- v0 -->
<g id="node1" class="node">
<title>v0</title>
<g id="a_node1_0"><a xlink:title="dom 0: x (up, up)">
</a>
</g>
<g id="a_node1_1"><a xlink:title="dom 1: y (up, up)">
</a>
</g>
<polygon fill="none" stroke="black" points="2.46,-54.5 2.46,-81.25 38.46,-81.25 38.46,-54.5 2.46,-54.5"/>
<text text-anchor="start" x="18.96" y="-62.85" font-family="Helvetica,sans-Serif" font-size="12.00">f</text>
<g id="a_node1_2"><a xlink:title="cod 0: z (down, down)">
</a>
</g>
</g>
<!-- input -->
<g id="node2" class="node">
<title>input</title>
<g id="a_node2_3"><a xlink:title="input 0: y">
</a>
</g>
</g>
<!-- output -->
<g id="node3" class="node">
<title>output</title>
<g id="a_node3_4"><a xlink:title="output 0: x.r">
</a>
</g>
<g id="a_node3_5"><a xlink:title="output 1: z">
</a>
</g>
</g>
</g>
</svg>
