<?xml version="1.0" encoding="UTF-8" standalone="no"?>
<!DOCTYPE svg PUBLIC "-//W3C//DTD SVG 1.1//EN"
 "http://www.w3.org/Graphics/SVG/1.1/DTD/svg11.dtd">
<!-- Generated by graphviz version 2.43.0 (0)
 -->
<!-- Title: cmap Pages: 1 -->
<svg width="52pt" height="149pt"
 viewBox="2.88 2.88 49.34 145.88" xmlns="http://www.w3.org/2000/svg" xmlns:xlink="http://www.w3.org/1999/xlink">
<g id="graph0" class="graph" transform="scale(1 1) rotate(0) translate(6.88 141.88)">
<title>cmap</title>
<polygon fill="white" stroke="transparent" points="-4,4 -4,-139 42.46,-139 42.46,4 -4,4"/>
<!-- v0&#45;&#45;output -->
<g id="edge2" class="edge">
<title>v0:n&#45;&#45;output:n</title>
<path fill="none" stroke="black" stroke-width="1.4" d="M11.46,-81.5C11.46,-85.52 5.15,-83.5 2.46,-80.5 -5.6,-71.49 11.46,-18.52 11.46,-8"/>
<text text-anchor="middle" x="16.62" y="-20.94" font-family="Times,serif" font-size="9.00">x.r</text>
<text text-anchor="middle" x="15.64" y="-94.75" font-family="Times,serif" font-size="9.00">x</text>
</g>
<!-- v0&#45;&#45;output -->
<g id="edge3" class="edge">
<title>v0:s&#45;&#45;output:n</title>
<path fill="none" stroke="black" stroke-width="1.4" d="M20.46,-54C20.46,-33.55 19.46,-28.45 19.46,-8"/>
<text text-anchor="middle" x="21.96" y="-28.8" font-family="Times,serif" font-size="9.00">z</text>
</g>
<!-- input&#45;&#45;v0 -->
<g id="edge1" class="edge">
<title>input:s&#45;&#45;v0:n</title>
<path fill="none" stroke="black" stroke-width="1.4" d="M29.46,-127C29.46,-106.56 29.46,-101.44 29.46,-81"/>
<text text-anchor="middle" x="32.46" y="-101.8" font-family="Times,serif" font-size="9.00">y</text>
</g>
<!-- v0 -->
<g id="node1" class="node">
<title>v0</title>
<polygon fill="none" stroke="black" points="2.46,-53.5 2.46,-80.5 38.46,-80.5 38.46,-53.5 2.46,-53.5"/>
<text text-anchor="start" x="17.96" y="-63.9" font-family="Helvetica,sans-Serif" font-size="12.00">f</text>
</g>
<!-- input -->
<g id="node2" class="node">
<title>input</title>
</g>
<!-- output -->
<g id="node3" class="node">
<title>output</title>
</g>
</g>
</svg>
