<?xml version="1.0" encoding="UTF-8" standalone="no"?>
<!DOCTYPE svg PUBLIC "-//W3C//DTD SVG 1.1//EN"
 "http://www.w3.org/Graphics/SVG/1.1/DTD/svg11.dtd">
<!-- Generated by graphviz version 12.2.1 (0)
 -->
<!-- Title: cmap Pages: 1 -->
<svg width="83pt" height="320pt"
 viewBox="2.88 2.88 79.88 317.38" xmlns="http://www.w3.org/2000/svg" xmlns:xlink="http://www.w3.org/1999/xlink">
<g id="graph0" class="graph" transform="scale(1 1) rotate(0) translate(6.88 313.38)">
<title>cmap</title>
<polygon fill="white" stroke="none" points="-4,4 -4,-310.5 73,-310.5 73,4 -4,4"/>
<!-- v0&#45;&#45;v1 -->
<g id="edge4" class="edge">
<title>v0:s&#45;&#45;v1:n</title>
<path fill="none" stroke="black" stroke-width="1.4" d="M27,-176.5C27,-154.78 42,-151.72 42,-130"/>
<text text-anchor="middle" x="39.02" y="-149.95" font-family="Times,serif" font-size="9.00">z</text>
</g>
<!-- v0&#45;&#45;output -->
<g id="edge5" class="edge">
<title>v0:s&#45;&#45;output:n</title>
<path fill="none" stroke="black" stroke-width="1.4" d="M9,-176.5C9,-107.23 15,-90.02 15,-20.75"/>
<text text-anchor="middle" x="16.12" y="-95.33" font-family="Times,serif" font-size="9.00">x</text>
</g>
<!-- v1&#45;&#45;output -->
<g id="edge6" class="edge">
<title>v1:s&#45;&#45;output:n</title>
<path fill="none" stroke="black" stroke-width="1.4" d="M51,-67.25C51,-45.5 35.75,-42.5 35.75,-20.75"/>
<text text-anchor="middle" x="47.94" y="-40.7" font-family="Times,serif" font-size="9.00">z</text>
</g>
<!-- input&#45;&#45;v0 -->
<g id="edge1" class="edge">
<title>input:s&#45;&#45;v0:n</title>
<path fill="none" stroke="black" stroke-width="1.4" d="M22.25,-285.75C22.25,-277.04 17.06,-276.07 14.5,-267.75 10.7,-255.42 9,-252.15 9,-239.25"/>
<text text-anchor="middle" x="16.75" y="-259.2" font-family="Times,serif" font-size="9.00">x</text>
</g>
<!-- input&#45;&#45;v0 -->
<g id="edge2" class="edge">
<title>input:s&#45;&#45;v0:n</title>
<path fill="none" stroke="black" stroke-width="1.4" d="M37,-285.75C37,-264.61 27,-260.39 27,-239.25"/>
<text text-anchor="middle" x="36.02" y="-259.2" font-family="Times,serif" font-size="9.00">y</text>
</g>
<!-- input&#45;&#45;v1 -->
<g id="edge3" class="edge">
<title>input:s&#45;&#45;v1:n</title>
<path fill="none" stroke="black" stroke-width="1.4" d="M51.75,-285.75C51.75,-216.43 60,-199.32 60,-130"/>
<text text-anchor="middle" x="60.32" y="-204.57" font-family="Times,serif" font-size="9.00">z</text>
</g>
<!-- v0 -->
<g id="node1" class="node">
<title>v0</title>
<g id="a_node1_0"><a xlink:title="dom 0: x (up, up)">
<text text-anchor="start" x="5.62" y="-225.22" font-family="Helvetica,sans-Serif" font-size="12.00">3</text>
</a>
</g>
<g id="a_node1_1"><a xlink:title="dom 1: y (up, up)">
<text text-anchor="start" x="23.62" y="-225.22" font-family="Helvetica,sans-Serif" font-size="12.00">4</text>
</a>
</g>
<polygon fill="none" stroke="black" points="0,-194.5 0,-221.25 36,-221.25 36,-194.5 0,-194.5"/>
<text text-anchor="start" x="16.5" y="-202.85" font-family="Helvetica,sans-Serif" font-size="12.00">f</text>
<g id="a_node1_2"><a xlink:title="cod 0: x (down, down)">
<text text-anchor="start" x="5.62" y="-180.47" font-family="Helvetica,sans-Serif" font-size="12.00">6</text>
</a>
</g>
<g id="a_node1_3"><a xlink:title="cod 1: z (down, down)">
<text text-anchor="start" x="23.62" y="-180.47" font-family="Helvetica,sans-Serif" font-size="12.00">5</text>
</a>
</g>
</g>
<!-- v1 -->
<g id="node2" class="node">
<title>v1</title>
<g id="a_node2_4"><a xlink:title="dom 0: z (up, up)">
<text text-anchor="start" x="38.62" y="-115.97" font-family="Helvetica,sans-Serif" font-size="12.00">7</text>
</a>
</g>
<g id="a_node2_5"><a xlink:title="dom 1: z (up, up)">
<text text-anchor="start" x="56.62" y="-115.97" font-family="Helvetica,sans-Serif" font-size="12.00">8</text>
</a>
</g>
<polygon fill="none" stroke="black" points="33,-85.25 33,-112 69,-112 69,-85.25 33,-85.25"/>
<text text-anchor="start" x="47.62" y="-93.6" font-family="Helvetica,sans-Serif" font-size="12.00">g</text>
<g id="a_node2_6"><a xlink:title="cod 0: z (down, down)">
<text text-anchor="start" x="47.62" y="-71.22" font-family="Helvetica,sans-Serif" font-size="12.00">9</text>
</a>
</g>
</g>
<!-- input -->
<g id="node3" class="node">
<title>input</title>
<g id="a_node3_7"><a xlink:title="input 0: x">
<text text-anchor="start" x="18.88" y="-291.1" font-family="Helvetica,sans-Serif" font-size="12.00">0</text>
</a>
</g>
<g id="a_node3_8"><a xlink:title="input 1: y">
<text text-anchor="start" x="33.62" y="-291.1" font-family="Helvetica,sans-Serif" font-size="12.00">1</text>
</a>
</g>
<g id="a_node3_9"><a xlink:title="input 2: z">
<text text-anchor="start" x="48.38" y="-291.1" font-family="Helvetica,sans-Serif" font-size="12.00">2</text>
</a>
</g>
</g>
<!-- output -->
<g id="node4" class="node">
<title>output</title>
<g id="a_node4_10"><a xlink:title="output 0: x">
<text text-anchor="start" x="8.25" y="-5.35" font-family="Helvetica,sans-Serif" font-size="12.00">10</text>
</a>
</g>
<g id="a_node4_11"><a xlink:title="output 1: z">
<text text-anchor="start" x="29.75" y="-5.35" font-family="Helvetica,sans-Serif" font-size="12.00">11</text>
</a>
</g>
</g>
</g>
</svg>
