<?xml version="1.0" encoding="UTF-8" standalone="no"?>
<!DOCTYPE svg PUBLIC "-//W3C//DTD SVG 1.1//EN"
 "http://www.w3.org/Graphics/SVG/1.1/DTD/svg11.dtd">
<!-- Generated by graphviz version 2.43.0 (0)
 -->
<!-- Title: cmap Pages: 1 -->
<svg width="83pt" height="320pt"
 viewBox="2.88 2.88 79.88 316.88" xmlns="http://www.w3.org/2000/svg" xmlns:xlink="http://www.w3.org/1999/xlink">
<g id="graph0" class="graph" transform="scale(1 1) rotate(0) translate(6.88 312.88)">
<title>cmap</title>
<polygon fill="white" stroke="transparent" points="-4,4 -4,-310 73,-310 73,4 -4,4"/>
<!-- v0&#45;&#45;v1 -->
<g id="edge4" class="edge">
<title>v0:s&#45;&#45;v1:n</title>
<path fill="none" stroke="black" stroke-width="1.4" d="M27,-176C27,-154.5 42,-151.5 42,-130"/>
<text text-anchor="middle" x="39.5" y="-150.8" font-family="Times,serif" font-size="9.00">z</text>
</g>
<!-- v0&#45;&#45;output -->
<g id="edge5" class="edge">
<title>v0:s&#45;&#45;output:n</title>
<path fill="none" stroke="black" stroke-width="1.4" d="M9,-176C9,-107.06 15,-89.94 15,-21"/>
<text text-anchor="middle" x="17" y="-96.3" font-family="Times,serif" font-size="9.00">x</text>
</g>
<!-- v1&#45;&#45;output -->
<g id="edge6" class="edge">
<title>v1:s&#45;&#45;output:n</title>
<path fill="none" stroke="black" stroke-width="1.4" d="M51,-67C51,-45.87 39,-42.13 39,-21"/>
<text text-anchor="middle" x="49.5" y="-41.8" font-family="Times,serif" font-size="9.00">z</text>
</g>
<!-- input&#45;&#45;v0 -->
<g id="edge1" class="edge">
<title>input:s&#45;&#45;v0:n</title>
<path fill="none" stroke="black" stroke-width="1.4" d="M22,-285C22,-276.06 15.67,-275.54 13,-267 9.25,-255 9,-251.57 9,-239"/>
<text text-anchor="middle" x="16" y="-259.8" font-family="Times,serif" font-size="9.00">x</text>
</g>
<!-- input&#45;&#45;v0 -->
<g id="edge2" class="edge">
<title>input:s&#45;&#45;v0:n</title>
<path fill="none" stroke="black" stroke-width="1.4" d="M38,-285C38,-263.98 27,-260.02 27,-239"/>
<text text-anchor="middle" x="37" y="-259.8" font-family="Times,serif" font-size="9.00">y</text>
</g>
<!-- input&#45;&#45;v1 -->
<g id="edge3" class="edge">
<title>input:s&#45;&#45;v1:n</title>
<path fill="none" stroke="black" stroke-width="1.4" d="M54,-285C54,-216.06 60,-198.94 60,-130"/>
<text text-anchor="middle" x="60.5" y="-205.3" font-family="Times,serif" font-size="9.00">z</text>
</g>
<!-- v0 -->
<g id="node1" class="node">
<title>v0</title>
<text text-anchor="start" x="5" y="-226.4" font-family="Helvetica,sans-Serif" font-size="12.00">3</text>
<text text-anchor="start" x="23" y="-226.4" font-family="Helvetica,sans-Serif" font-size="12.00">4</text>
<polygon fill="none" stroke="black" points="0,-193.5 0,-220.5 36,-220.5 36,-193.5 0,-193.5"/>
<text text-anchor="start" x="15.5" y="-203.9" font-family="Helvetica,sans-Serif" font-size="12.00">f</text>
<text text-anchor="start" x="5" y="-181.4" font-family="Helvetica,sans-Serif" font-size="12.00">6</text>
<text text-anchor="start" x="23" y="-181.4" font-family="Helvetica,sans-Serif" font-size="12.00">5</text>
</g>
<!-- v1 -->
<g id="node2" class="node">
<title>v1</title>
<text text-anchor="start" x="38" y="-117.4" font-family="Helvetica,sans-Serif" font-size="12.00">7</text>
<text text-anchor="start" x="56" y="-117.4" font-family="Helvetica,sans-Serif" font-size="12.00">8</text>
<polygon fill="none" stroke="black" points="33,-84.5 33,-111.5 69,-111.5 69,-84.5 33,-84.5"/>
<text text-anchor="start" x="47" y="-94.9" font-family="Helvetica,sans-Serif" font-size="12.00">g</text>
<text text-anchor="start" x="47" y="-72.4" font-family="Helvetica,sans-Serif" font-size="12.00">9</text>
</g>
<!-- input -->
<g id="node3" class="node">
<title>input</title>
<text text-anchor="start" x="18" y="-291.9" font-family="Helvetica,sans-Serif" font-size="12.00">0</text>
<text text-anchor="start" x="34" y="-291.9" font-family="Helvetica,sans-Serif" font-size="12.00">1</text>
<text text-anchor="start" x="50" y="-291.9" font-family="Helvetica,sans-Serif" font-size="12.00">2</text>
</g>
<!-- output -->
<g id="node4" class="node">
<title>output</title>
<text text-anchor="start" x="7" y="-6.9" font-family="Helvetica,sans-Serif" font-size="12.00">10</text>
<text text-anchor="start" x="31" y="-6.9" font-family="Helvetica,sans-Serif" font-size="12.00">11</text>
</g>
</g>
</svg>
