<?xml version="1.0" encoding="utf-8" standalone="no"?>
<!DOCTYPE svg PUBLIC "-//W3C//DTD SVG 1.1//EN"
  "http://www.w3.org/Graphics/SVG/1.1/DTD/svg11.dtd">
<svg xmlns:xlink="http://www.w3.org/1999/xlink" width="460.8pt" height="345.6pt" viewBox="0 0 460.8 345.6" xmlns="http://www.w3.org/2000/svg" version="1.1">
 <metadata>
  <rdf:RDF xmlns:dc="http://purl.org/dc/elements/1.1/" xmlns:cc="http://creativecommons.org/ns#" xmlns:rdf="http://www.w3.org/1999/02/22-rdf-syntax-ns#">
   <cc:Work>
    <dc:type rdf:resource="http://purl.org/dc/dcmitype/StillImage"/>
    <dc:date>2026-07-22T18:29:57.727546</dc:date>
    <dc:format>image/svg+xml</dc:format>
    <dc:creator>
     <cc:Agent>
      <dc:title>Matplotlib v3.10.9, https://matplotlib.org/</dc:title>
     </cc:Agent>
    </dc:creator>
   </cc:Work>
  </rdf:RDF>
 </metadata>
 <defs>
  <style type="text/css">*{stroke-linejoin: round; stroke-linecap: butt}</style>
 </defs>
 <g id="figure_1">
  <g id="patch_1">
   <path d="M 0 345.6 
L 460.8 345.6 
L 460.8 0 
L 0 0 
z
" style="fill: #ffffff"/>
  </g>
  <g id="axes_1">
   <g id="patch_2">
    <path d="M 57.6 307.584 
L 414.72 307.584 
L 414.72 41.472 
L 57.6 41.472 
z
" style="fill: #ffffff"/>
   </g>
   <g id="LineCollection_1">
    <path d="M 124.877037 107.883018 
L 192.468083 183.010077 
" clip-path="url(#p01e68351b7)" style="fill: none; stroke: #000000"/>
    <path d="M 124.877037 107.883018 
L 88.589752 64.564364 
" clip-path="url(#p01e68351b7)" style="fill: none; stroke: #000000"/>
    <path d="M 98.373414 257.1624 
L 88.589752 284.491636 
" clip-path="url(#p01e68351b7)" style="fill: none; stroke: #000000"/>
    <path d="M 98.373414 257.1624 
L 155.575521 210.500986 
" clip-path="url(#p01e68351b7)" style="fill: none; stroke: #000000"/>
    <path d="M 346.336516 256.608506 
L 383.730248 284.491636 
" clip-path="url(#p01e68351b7)" style="fill: none; stroke: #000000"/>
    <path d="M 346.336516 256.608506 
L 229.360645 210.500986 
" clip-path="url(#p01e68351b7)" style="fill: none; stroke: #000000"/>
    <path d="M 192.468083 196.755532 
L 155.575521 210.500986 
" clip-path="url(#p01e68351b7)" style="fill: none; stroke: #000000"/>
    <path d="M 192.468083 196.755532 
L 229.360645 210.500986 
" clip-path="url(#p01e68351b7)" style="fill: none; stroke: #000000"/>
    <path d="M 192.468083 196.755532 
L 192.468083 183.010077 
" clip-path="url(#p01e68351b7)" style="fill: none; stroke: #000000"/>
   </g>
   <g id="matplotlib.axis_1">
    <g id="xtick_1"/>
    <g id="xtick_2"/>
    <g id="xtick_3"/>
    <g id="xtick_4"/>
    <g id="xtick_5"/>
    <g id="xtick_6"/>
   </g>
   <g id="matplotlib.axis_2">
    <g id="ytick_1"/>
    <g id="ytick_2"/>
    <g id="ytick_3"/>
    <g id="ytick_4"/>
    <g id="ytick_5"/>
   </g>
   <g id="PathCollection_1">
    <path d="M 124.877037 116.543272 
C 127.173763 116.543272 129.376731 115.630773 131.000761 114.006743 
C 132.624792 112.382712 133.537291 110.179745 133.537291 107.883018 
C 133.537291 105.586292 132.624792 103.383325 131.000761 101.759294 
C 129.376731 100.135263 127.173763 99.222764 124.877037 99.222764 
C 122.580311 99.222764 120.377343 100.135263 118.753313 101.759294 
C 117.129282 103.383325 116.216783 105.586292 116.216783 107.883018 
C 116.216783 110.179745 117.129282 112.382712 118.753313 114.006743 
C 120.377343 115.630773 122.580311 116.543272 124.877037 116.543272 
z
" clip-path="url(#p01e68351b7)" style="fill: #ffffff; stroke: #000000"/>
    <path d="M 98.373414 265.822654 
C 100.67014 265.822654 102.873107 264.910155 104.497138 263.286125 
C 106.121169 261.662094 107.033668 259.459127 107.033668 257.1624 
C 107.033668 254.865674 106.121169 252.662707 104.497138 251.038676 
C 102.873107 249.414645 100.67014 248.502146 98.373414 248.502146 
C 96.076687 248.502146 93.87372 249.414645 92.249689 251.038676 
C 90.625659 252.662707 89.71316 254.865674 89.71316 257.1624 
C 89.71316 259.459127 90.625659 261.662094 92.249689 263.286125 
C 93.87372 264.910155 96.076687 265.822654 98.373414 265.822654 
z
" clip-path="url(#p01e68351b7)" style="fill: #ffffff; stroke: #000000"/>
    <path d="M 346.336516 265.26876 
C 348.633242 265.26876 350.836209 264.356261 352.46024 262.73223 
C 354.084271 261.108199 354.99677 258.905232 354.99677 256.608506 
C 354.99677 254.31178 354.084271 252.108812 352.46024 250.484781 
C 350.836209 248.860751 348.633242 247.948252 346.336516 247.948252 
C 344.03979 247.948252 341.836822 248.860751 340.212791 250.484781 
C 338.588761 252.108812 337.676262 254.31178 337.676262 256.608506 
C 337.676262 258.905232 338.588761 261.108199 340.212791 262.73223 
C 341.836822 264.356261 344.03979 265.26876 346.336516 265.26876 
z
" clip-path="url(#p01e68351b7)" style="fill: #ffffff; stroke: #000000"/>
    <path d="M 88.589752 64.564364 
C 88.589752 64.564364 88.589752 64.564364 88.589752 64.564364 
C 88.589752 64.564364 88.589752 64.564364 88.589752 64.564364 
C 88.589752 64.564364 88.589752 64.564364 88.589752 64.564364 
C 88.589752 64.564364 88.589752 64.564364 88.589752 64.564364 
C 88.589752 64.564364 88.589752 64.564364 88.589752 64.564364 
C 88.589752 64.564364 88.589752 64.564364 88.589752 64.564364 
C 88.589752 64.564364 88.589752 64.564364 88.589752 64.564364 
C 88.589752 64.564364 88.589752 64.564364 88.589752 64.564364 
z
" clip-path="url(#p01e68351b7)" style="fill: #ffffff; stroke: #000000"/>
    <path d="M 192.468083 205.415786 
C 194.76481 205.415786 196.967777 204.503287 198.591808 202.879256 
C 200.215838 201.255225 201.128337 199.052258 201.128337 196.755532 
C 201.128337 194.458805 200.215838 192.255838 198.591808 190.631807 
C 196.967777 189.007777 194.76481 188.095278 192.468083 188.095278 
C 190.171357 188.095278 187.96839 189.007777 186.344359 190.631807 
C 184.720328 192.255838 183.807829 194.458805 183.807829 196.755532 
C 183.807829 199.052258 184.720328 201.255225 186.344359 202.879256 
C 187.96839 204.503287 190.171357 205.415786 192.468083 205.415786 
z
" clip-path="url(#p01e68351b7)" style="fill: #ffffff; stroke: #000000"/>
    <path d="M 192.468083 183.010077 
C 192.468083 183.010077 192.468083 183.010077 192.468083 183.010077 
C 192.468083 183.010077 192.468083 183.010077 192.468083 183.010077 
C 192.468083 183.010077 192.468083 183.010077 192.468083 183.010077 
C 192.468083 183.010077 192.468083 183.010077 192.468083 183.010077 
C 192.468083 183.010077 192.468083 183.010077 192.468083 183.010077 
C 192.468083 183.010077 192.468083 183.010077 192.468083 183.010077 
C 192.468083 183.010077 192.468083 183.010077 192.468083 183.010077 
C 192.468083 183.010077 192.468083 183.010077 192.468083 183.010077 
z
" clip-path="url(#p01e68351b7)" style="fill: #ffffff; stroke: #000000"/>
    <path d="M 155.575521 210.500986 
C 155.575521 210.500986 155.575521 210.500986 155.575521 210.500986 
C 155.575521 210.500986 155.575521 210.500986 155.575521 210.500986 
C 155.575521 210.500986 155.575521 210.500986 155.575521 210.500986 
C 155.575521 210.500986 155.575521 210.500986 155.575521 210.500986 
C 155.575521 210.500986 155.575521 210.500986 155.575521 210.500986 
C 155.575521 210.500986 155.575521 210.500986 155.575521 210.500986 
C 155.575521 210.500986 155.575521 210.500986 155.575521 210.500986 
C 155.575521 210.500986 155.575521 210.500986 155.575521 210.500986 
z
" clip-path="url(#p01e68351b7)" style="fill: #ffffff; stroke: #000000"/>
    <path d="M 229.360645 210.500986 
C 229.360645 210.500986 229.360645 210.500986 229.360645 210.500986 
C 229.360645 210.500986 229.360645 210.500986 229.360645 210.500986 
C 229.360645 210.500986 229.360645 210.500986 229.360645 210.500986 
C 229.360645 210.500986 229.360645 210.500986 229.360645 210.500986 
C 229.360645 210.500986 229.360645 210.500986 229.360645 210.500986 
C 229.360645 210.500986 229.360645 210.500986 229.360645 210.500986 
C 229.360645 210.500986 229.360645 210.500986 229.360645 210.500986 
C 229.360645 210.500986 229.360645 210.500986 229.360645 210.500986 
z
" clip-path="url(#p01e68351b7)" style="fill: #ffffff; stroke: #000000"/>
    <path d="M 88.589752 284.491636 
C 88.589752 284.491636 88.589752 284.491636 88.589752 284.491636 
C 88.589752 284.491636 88.589752 284.491636 88.589752 284.491636 
C 88.589752 284.491636 88.589752 284.491636 88.589752 284.491636 
C 88.589752 284.491636 88.589752 284.491636 88.589752 284.491636 
C 88.589752 284.491636 88.589752 284.491636 88.589752 284.491636 
C 88.589752 284.491636 88.589752 284.491636 88.589752 284.491636 
C 88.589752 284.491636 88.589752 284.491636 88.589752 284.491636 
C 88.589752 284.491636 88.589752 284.491636 88.589752 284.491636 
z
" clip-path="url(#p01e68351b7)" style="fill: #ffffff; stroke: #000000"/>
    <path d="M 383.730248 284.491636 
C 383.730248 284.491636 383.730248 284.491636 383.730248 284.491636 
C 383.730248 284.491636 383.730248 284.491636 383.730248 284.491636 
C 383.730248 284.491636 383.730248 284.491636 383.730248 284.491636 
C 383.730248 284.491636 383.730248 284.491636 383.730248 284.491636 
C 383.730248 284.491636 383.730248 284.491636 383.730248 284.491636 
C 383.730248 284.491636 383.730248 284.491636 383.730248 284.491636 
C 383.730248 284.491636 383.730248 284.491636 383.730248 284.491636 
C 383.730248 284.491636 383.730248 284.491636 383.730248 284.491636 
z
" clip-path="url(#p01e68351b7)" style="fill: #ffffff; stroke: #000000"/>
   </g>
   <g id="patch_3">
    <path d="M 57.6 307.584 
L 57.6 41.472 
" style="fill: none; stroke: #000000; stroke-width: 0.8; stroke-linejoin: miter; stroke-linecap: square"/>
   </g>
   <g id="patch_4">
    <path d="M 414.72 307.584 
L 414.72 41.472 
" style="fill: none; stroke: #000000; stroke-width: 0.8; stroke-linejoin: miter; stroke-linecap: square"/>
   </g>
   <g id="patch_5">
    <path d="M 57.6 307.584 
L 414.72 307.584 
" style="fill: none; stroke: #000000; stroke-width: 0.8; stroke-linejoin: miter; stroke-linecap: square"/>
   </g>
   <g id="patch_6">
    <path d="M 57.6 41.472 
L 414.72 41.472 
" style="fill: none; stroke: #000000; stroke-width: 0.8; stroke-linejoin: miter; stroke-linecap: square"/>
   </g>
   <g id="text_1">
    <g clip-path="url(#p01e68351b7)">
     <!-- x -->
     <g transform="translate(121.325787 111.194268) scale(0.12 -0.12)">
      <defs>
       <path id="DejaVuSans-78" d="M 3513 3500 
L 2247 1797 
L 3578 0 
L 2900 0 
L 1881 1375 
L 863 0 
L 184 0 
L 1544 1831 
L 300 3500 
L 978 3500 
L 1906 2253 
L 2834 3500 
L 3513 3500 
z
" transform="scale(0.015625)"/>
      </defs>
      <use xlink:href="#DejaVuSans-78"/>
     </g>
    </g>
   </g>
   <g id="text_2">
    <g clip-path="url(#p01e68351b7)">
     <!-- y -->
     <g transform="translate(94.822164 260.47365) scale(0.12 -0.12)">
      <defs>
       <path id="DejaVuSans-79" d="M 2059 -325 
Q 1816 -950 1584 -1140 
Q 1353 -1331 966 -1331 
L 506 -1331 
L 506 -850 
L 844 -850 
Q 1081 -850 1212 -737 
Q 1344 -625 1503 -206 
L 1606 56 
L 191 3500 
L 800 3500 
L 1894 763 
L 2988 3500 
L 3597 3500 
L 2059 -325 
z
" transform="scale(0.015625)"/>
      </defs>
      <use xlink:href="#DejaVuSans-79"/>
     </g>
    </g>
   </g>
   <g id="text_3">
    <g clip-path="url(#p01e68351b7)">
     <!-- z -->
     <g transform="translate(343.187453 259.919756) scale(0.12 -0.12)">
      <defs>
       <path id="DejaVuSans-7a" d="M 353 3500 
L 3084 3500 
L 3084 2975 
L 922 459 
L 3084 459 
L 3084 0 
L 275 0 
L 275 525 
L 2438 3041 
L 353 3041 
L 353 3500 
z
" transform="scale(0.015625)"/>
      </defs>
      <use xlink:href="#DejaVuSans-7a"/>
     </g>
    </g>
   </g>
   <g id="text_4">
    <g clip-path="url(#p01e68351b7)">
     <!-- f -->
     <g transform="translate(190.355896 200.066782) scale(0.12 -0.12)">
      <defs>
       <path id="DejaVuSans-66" d="M 2375 4863 
L 2375 4384 
L 1825 4384 
Q 1516 4384 1395 4259 
Q 1275 4134 1275 3809 
L 1275 3500 
L 2222 3500 
L 2222 3053 
L 1275 3053 
L 1275 0 
L 697 0 
L 697 3053 
L 147 3053 
L 147 3500 
L 697 3500 
L 697 3744 
Q 697 4328 969 4595 
Q 1241 4863 1831 4863 
L 2375 4863 
z
" transform="scale(0.015625)"/>
      </defs>
      <use xlink:href="#DejaVuSans-66"/>
     </g>
    </g>
   </g>
  </g>
 </g>
 <defs>
  <clipPath id="p01e68351b7">
   <rect x="57.6" y="41.472" width="357.12" height="266.112"/>
  </clipPath>
 </defs>
</svg>
