<?xml version="1.0" encoding="utf-8" standalone="no"?>
<!DOCTYPE svg PUBLIC "-//W3C//DTD SVG 1.1//EN"
  "http://www.w3.org/Graphics/SVG/1.1/DTD/svg11.dtd">
<svg xmlns:xlink="http://www.w3.org/1999/xlink" width="460.8pt" height="345.6pt" viewBox="0 0 460.8 345.6" xmlns="http://www.w3.org/2000/svg" version="1.1">
 <metadata>
  <rdf:RDF xmlns:dc="http://purl.org/dc/elements/1.1/" xmlns:cc="http://creativecommons.org/ns#" xmlns:rdf="http://www.w3.org/1999/02/22-rdf-syntax-ns#">
   <cc:Work>
    <dc:type rdf:resource="http://purl.org/dc/dcmitype/StillImage"/>
    <dc:date>2026-07-23T11:47:12.551557</dc:date>
    <dc:format>image/svg+xml</dc:format>
    <dc:creator>
     <cc:Agent>
      <dc:title>Matplotlib v3.10.9, https://matplotlib.org/</dc:title>
     </cc:Agent>
    </dc:creator>
   </cc:Work>
  </rdf:RDF>
 </metadata>
 <defs>
  <style type="text/css">*{stroke-linejoin: round; stroke-linecap: butt}</style>
 </defs>
 <g id="figure_1">
  <g id="patch_1">
   <path d="M 0 345.6 
L 460.8 345.6 
L 460.8 0 
L 0 0 
z
" style="fill: #ffffff"/>
  </g>
  <g id="axes_1">
   <g id="patch_2">
    <path d="M 57.6 307.584 
L 414.72 307.584 
L 414.72 41.472 
L 57.6 41.472 
z
" style="fill: #ffffff"/>
   </g>
   <g id="LineCollection_1">
    <path d="M 246.295074 156.226228 
L 182.78924 204.408186 
" clip-path="url(#p3d8c2b2442)" style="fill: none; stroke: #000000"/>
    <path d="M 246.295074 156.226228 
L 383.730248 284.491636 
" clip-path="url(#p3d8c2b2442)" style="fill: none; stroke: #000000"/>
    <path d="M 246.295074 156.226228 
L 88.589752 64.564364 
" clip-path="url(#p3d8c2b2442)" style="fill: none; stroke: #000000"/>
    <path d="M 246.295074 156.226228 
L 236.16 64.564364 
" clip-path="url(#p3d8c2b2442)" style="fill: none; stroke: #000000"/>
    <path d="M 94.925988 262.004713 
L 88.589752 284.491636 
" clip-path="url(#p3d8c2b2442)" style="fill: none; stroke: #000000"/>
    <path d="M 94.925988 262.004713 
L 164.342959 231.899095 
" clip-path="url(#p3d8c2b2442)" style="fill: none; stroke: #000000"/>
    <path d="M 230.258951 263.970386 
L 236.16 284.491636 
" clip-path="url(#p3d8c2b2442)" style="fill: none; stroke: #000000"/>
    <path d="M 230.258951 263.970386 
L 201.235521 231.899095 
" clip-path="url(#p3d8c2b2442)" style="fill: none; stroke: #000000"/>
    <path d="M 182.78924 218.153641 
L 164.342959 231.899095 
" clip-path="url(#p3d8c2b2442)" style="fill: none; stroke: #000000"/>
    <path d="M 182.78924 218.153641 
L 201.235521 231.899095 
" clip-path="url(#p3d8c2b2442)" style="fill: none; stroke: #000000"/>
    <path d="M 182.78924 218.153641 
L 182.78924 204.408186 
" clip-path="url(#p3d8c2b2442)" style="fill: none; stroke: #000000"/>
   </g>
   <g id="matplotlib.axis_1">
    <g id="xtick_1"/>
    <g id="xtick_2"/>
    <g id="xtick_3"/>
    <g id="xtick_4"/>
    <g id="xtick_5"/>
   </g>
   <g id="matplotlib.axis_2">
    <g id="ytick_1"/>
    <g id="ytick_2"/>
    <g id="ytick_3"/>
    <g id="ytick_4"/>
    <g id="ytick_5"/>
   </g>
   <g id="PathCollection_1">
    <path d="M 246.295074 164.886482 
C 248.5918 164.886482 250.794768 163.973983 252.418798 162.349953 
C 254.042829 160.725922 254.955328 158.522955 254.955328 156.226228 
C 254.955328 153.929502 254.042829 151.726535 252.418798 150.102504 
C 250.794768 148.478473 248.5918 147.565974 246.295074 147.565974 
C 243.998348 147.565974 241.79538 148.478473 240.17135 150.102504 
C 238.547319 151.726535 237.63482 153.929502 237.63482 156.226228 
C 237.63482 158.522955 238.547319 160.725922 240.17135 162.349953 
C 241.79538 163.973983 243.998348 164.886482 246.295074 164.886482 
z
" clip-path="url(#p3d8c2b2442)" style="fill: #ffffff; stroke: #000000"/>
    <path d="M 94.925988 270.664967 
C 97.222715 270.664967 99.425682 269.752468 101.049713 268.128438 
C 102.673743 266.504407 103.586242 264.301439 103.586242 262.004713 
C 103.586242 259.707987 102.673743 257.50502 101.049713 255.880989 
C 99.425682 254.256958 97.222715 253.344459 94.925988 253.344459 
C 92.629262 253.344459 90.426295 254.256958 88.802264 255.880989 
C 87.178233 257.50502 86.265734 259.707987 86.265734 262.004713 
C 86.265734 264.301439 87.178233 266.504407 88.802264 268.128438 
C 90.426295 269.752468 92.629262 270.664967 94.925988 270.664967 
z
" clip-path="url(#p3d8c2b2442)" style="fill: #ffffff; stroke: #000000"/>
    <path d="M 230.258951 272.63064 
C 232.555677 272.63064 234.758645 271.718141 236.382675 270.094111 
C 238.006706 268.47008 238.919205 266.267113 238.919205 263.970386 
C 238.919205 261.67366 238.006706 259.470693 236.382675 257.846662 
C 234.758645 256.222631 232.555677 255.310132 230.258951 255.310132 
C 227.962225 255.310132 225.759257 256.222631 224.135227 257.846662 
C 222.511196 259.470693 221.598697 261.67366 221.598697 263.970386 
C 221.598697 266.267113 222.511196 268.47008 224.135227 270.094111 
C 225.759257 271.718141 227.962225 272.63064 230.258951 272.63064 
z
" clip-path="url(#p3d8c2b2442)" style="fill: #ffffff; stroke: #000000"/>
    <path d="M 88.589752 64.564364 
C 88.589752 64.564364 88.589752 64.564364 88.589752 64.564364 
C 88.589752 64.564364 88.589752 64.564364 88.589752 64.564364 
C 88.589752 64.564364 88.589752 64.564364 88.589752 64.564364 
C 88.589752 64.564364 88.589752 64.564364 88.589752 64.564364 
C 88.589752 64.564364 88.589752 64.564364 88.589752 64.564364 
C 88.589752 64.564364 88.589752 64.564364 88.589752 64.564364 
C 88.589752 64.564364 88.589752 64.564364 88.589752 64.564364 
C 88.589752 64.564364 88.589752 64.564364 88.589752 64.564364 
z
" clip-path="url(#p3d8c2b2442)" style="fill: #ffffff; stroke: #000000"/>
    <path d="M 236.16 64.564364 
C 236.16 64.564364 236.16 64.564364 236.16 64.564364 
C 236.16 64.564364 236.16 64.564364 236.16 64.564364 
C 236.16 64.564364 236.16 64.564364 236.16 64.564364 
C 236.16 64.564364 236.16 64.564364 236.16 64.564364 
C 236.16 64.564364 236.16 64.564364 236.16 64.564364 
C 236.16 64.564364 236.16 64.564364 236.16 64.564364 
C 236.16 64.564364 236.16 64.564364 236.16 64.564364 
C 236.16 64.564364 236.16 64.564364 236.16 64.564364 
z
" clip-path="url(#p3d8c2b2442)" style="fill: #ffffff; stroke: #000000"/>
    <path d="M 182.78924 226.813895 
C 185.085966 226.813895 187.288933 225.901396 188.912964 224.277365 
C 190.536995 222.653334 191.449494 220.450367 191.449494 218.153641 
C 191.449494 215.856914 190.536995 213.653947 188.912964 212.029916 
C 187.288933 210.405886 185.085966 209.493387 182.78924 209.493387 
C 180.492514 209.493387 178.289546 210.405886 176.665515 212.029916 
C 175.041485 213.653947 174.128986 215.856914 174.128986 218.153641 
C 174.128986 220.450367 175.041485 222.653334 176.665515 224.277365 
C 178.289546 225.901396 180.492514 226.813895 182.78924 226.813895 
z
" clip-path="url(#p3d8c2b2442)" style="fill: #ffffff; stroke: #000000"/>
    <path d="M 182.78924 204.408186 
C 182.78924 204.408186 182.78924 204.408186 182.78924 204.408186 
C 182.78924 204.408186 182.78924 204.408186 182.78924 204.408186 
C 182.78924 204.408186 182.78924 204.408186 182.78924 204.408186 
C 182.78924 204.408186 182.78924 204.408186 182.78924 204.408186 
C 182.78924 204.408186 182.78924 204.408186 182.78924 204.408186 
C 182.78924 204.408186 182.78924 204.408186 182.78924 204.408186 
C 182.78924 204.408186 182.78924 204.408186 182.78924 204.408186 
C 182.78924 204.408186 182.78924 204.408186 182.78924 204.408186 
z
" clip-path="url(#p3d8c2b2442)" style="fill: #ffffff; stroke: #000000"/>
    <path d="M 164.342959 231.899095 
C 164.342959 231.899095 164.342959 231.899095 164.342959 231.899095 
C 164.342959 231.899095 164.342959 231.899095 164.342959 231.899095 
C 164.342959 231.899095 164.342959 231.899095 164.342959 231.899095 
C 164.342959 231.899095 164.342959 231.899095 164.342959 231.899095 
C 164.342959 231.899095 164.342959 231.899095 164.342959 231.899095 
C 164.342959 231.899095 164.342959 231.899095 164.342959 231.899095 
C 164.342959 231.899095 164.342959 231.899095 164.342959 231.899095 
C 164.342959 231.899095 164.342959 231.899095 164.342959 231.899095 
z
" clip-path="url(#p3d8c2b2442)" style="fill: #ffffff; stroke: #000000"/>
    <path d="M 201.235521 231.899095 
C 201.235521 231.899095 201.235521 231.899095 201.235521 231.899095 
C 201.235521 231.899095 201.235521 231.899095 201.235521 231.899095 
C 201.235521 231.899095 201.235521 231.899095 201.235521 231.899095 
C 201.235521 231.899095 201.235521 231.899095 201.235521 231.899095 
C 201.235521 231.899095 201.235521 231.899095 201.235521 231.899095 
C 201.235521 231.899095 201.235521 231.899095 201.235521 231.899095 
C 201.235521 231.899095 201.235521 231.899095 201.235521 231.899095 
C 201.235521 231.899095 201.235521 231.899095 201.235521 231.899095 
z
" clip-path="url(#p3d8c2b2442)" style="fill: #ffffff; stroke: #000000"/>
    <path d="M 88.589752 284.491636 
C 88.589752 284.491636 88.589752 284.491636 88.589752 284.491636 
C 88.589752 284.491636 88.589752 284.491636 88.589752 284.491636 
C 88.589752 284.491636 88.589752 284.491636 88.589752 284.491636 
C 88.589752 284.491636 88.589752 284.491636 88.589752 284.491636 
C 88.589752 284.491636 88.589752 284.491636 88.589752 284.491636 
C 88.589752 284.491636 88.589752 284.491636 88.589752 284.491636 
C 88.589752 284.491636 88.589752 284.491636 88.589752 284.491636 
C 88.589752 284.491636 88.589752 284.491636 88.589752 284.491636 
z
" clip-path="url(#p3d8c2b2442)" style="fill: #ffffff; stroke: #000000"/>
    <path d="M 236.16 284.491636 
C 236.16 284.491636 236.16 284.491636 236.16 284.491636 
C 236.16 284.491636 236.16 284.491636 236.16 284.491636 
C 236.16 284.491636 236.16 284.491636 236.16 284.491636 
C 236.16 284.491636 236.16 284.491636 236.16 284.491636 
C 236.16 284.491636 236.16 284.491636 236.16 284.491636 
C 236.16 284.491636 236.16 284.491636 236.16 284.491636 
C 236.16 284.491636 236.16 284.491636 236.16 284.491636 
C 236.16 284.491636 236.16 284.491636 236.16 284.491636 
z
" clip-path="url(#p3d8c2b2442)" style="fill: #ffffff; stroke: #000000"/>
    <path d="M 383.730248 284.491636 
C 383.730248 284.491636 383.730248 284.491636 383.730248 284.491636 
C 383.730248 284.491636 383.730248 284.491636 383.730248 284.491636 
C 383.730248 284.491636 383.730248 284.491636 383.730248 284.491636 
C 383.730248 284.491636 383.730248 284.491636 383.730248 284.491636 
C 383.730248 284.491636 383.730248 284.491636 383.730248 284.491636 
C 383.730248 284.491636 383.730248 284.491636 383.730248 284.491636 
C 383.730248 284.491636 383.730248 284.491636 383.730248 284.491636 
C 383.730248 284.491636 383.730248 284.491636 383.730248 284.491636 
z
" clip-path="url(#p3d8c2b2442)" style="fill: #ffffff; stroke: #000000"/>
   </g>
   <g id="patch_3">
    <path d="M 57.6 307.584 
L 57.6 41.472 
" style="fill: none; stroke: #000000; stroke-width: 0.8; stroke-linejoin: miter; stroke-linecap: square"/>
   </g>
   <g id="patch_4">
    <path d="M 414.72 307.584 
L 414.72 41.472 
" style="fill: none; stroke: #000000; stroke-width: 0.8; stroke-linejoin: miter; stroke-linecap: square"/>
   </g>
   <g id="patch_5">
    <path d="M 57.6 307.584 
L 414.72 307.584 
" style="fill: none; stroke: #000000; stroke-width: 0.8; stroke-linejoin: miter; stroke-linecap: square"/>
   </g>
   <g id="patch_6">
    <path d="M 57.6 41.472 
L 414.72 41.472 
" style="fill: none; stroke: #000000; stroke-width: 0.8; stroke-linejoin: miter; stroke-linecap: square"/>
   </g>
   <g id="text_1">
    <g clip-path="url(#p3d8c2b2442)">
     <!-- x -->
     <g transform="translate(242.743824 159.537478) scale(0.12 -0.12)">
      <defs>
       <path id="DejaVuSans-78" d="M 3513 3500 
L 2247 1797 
L 3578 0 
L 2900 0 
L 1881 1375 
L 863 0 
L 184 0 
L 1544 1831 
L 300 3500 
L 978 3500 
L 1906 2253 
L 2834 3500 
L 3513 3500 
z
" transform="scale(0.015625)"/>
      </defs>
      <use xlink:href="#DejaVuSans-78"/>
     </g>
    </g>
   </g>
   <g id="text_2">
    <g clip-path="url(#p3d8c2b2442)">
     <!-- y -->
     <g transform="translate(91.374738 265.315963) scale(0.12 -0.12)">
      <defs>
       <path id="DejaVuSans-79" d="M 2059 -325 
Q 1816 -950 1584 -1140 
Q 1353 -1331 966 -1331 
L 506 -1331 
L 506 -850 
L 844 -850 
Q 1081 -850 1212 -737 
Q 1344 -625 1503 -206 
L 1606 56 
L 191 3500 
L 800 3500 
L 1894 763 
L 2988 3500 
L 3597 3500 
L 2059 -325 
z
" transform="scale(0.015625)"/>
      </defs>
      <use xlink:href="#DejaVuSans-79"/>
     </g>
    </g>
   </g>
   <g id="text_3">
    <g clip-path="url(#p3d8c2b2442)">
     <!-- z -->
     <g transform="translate(227.109889 267.281636) scale(0.12 -0.12)">
      <defs>
       <path id="DejaVuSans-7a" d="M 353 3500 
L 3084 3500 
L 3084 2975 
L 922 459 
L 3084 459 
L 3084 0 
L 275 0 
L 275 525 
L 2438 3041 
L 353 3041 
L 353 3500 
z
" transform="scale(0.015625)"/>
      </defs>
      <use xlink:href="#DejaVuSans-7a"/>
     </g>
    </g>
   </g>
   <g id="text_4">
    <g clip-path="url(#p3d8c2b2442)">
     <!-- f -->
     <g transform="translate(180.677052 221.464891) scale(0.12 -0.12)">
      <defs>
       <path id="DejaVuSans-66" d="M 2375 4863 
L 2375 4384 
L 1825 4384 
Q 1516 4384 1395 4259 
Q 1275 4134 1275 3809 
L 1275 3500 
L 2222 3500 
L 2222 3053 
L 1275 3053 
L 1275 0 
L 697 0 
L 697 3053 
L 147 3053 
L 147 3500 
L 697 3500 
L 697 3744 
Q 697 4328 969 4595 
Q 1241 4863 1831 4863 
L 2375 4863 
z
" transform="scale(0.015625)"/>
      </defs>
      <use xlink:href="#DejaVuSans-66"/>
     </g>
    </g>
   </g>
  </g>
 </g>
 <defs>
  <clipPath id="p3d8c2b2442">
   <rect x="57.6" y="41.472" width="357.12" height="266.112"/>
  </clipPath>
 </defs>
</svg>
