<?xml version="1.0" encoding="utf-8" standalone="no"?>
<!DOCTYPE svg PUBLIC "-//W3C//DTD SVG 1.1//EN"
  "http://www.w3.org/Graphics/SVG/1.1/DTD/svg11.dtd">
<svg xmlns:xlink="http://www.w3.org/1999/xlink" width="792pt" height="144pt" viewBox="0 0 792 144" xmlns="http://www.w3.org/2000/svg" version="1.1">
 <metadata>
  <rdf:RDF xmlns:dc="http://purl.org/dc/elements/1.1/" xmlns:cc="http://creativecommons.org/ns#" xmlns:rdf="http://www.w3.org/1999/02/22-rdf-syntax-ns#">
   <cc:Work>
    <dc:type rdf:resource="http://purl.org/dc/dcmitype/StillImage"/>
    <dc:format>image/svg+xml</dc:format>
    <dc:creator>
     <cc:Agent>
      <dc:title>Matplotlib v3.10.9, https://matplotlib.org/</dc:title>
     </cc:Agent>
    </dc:creator>
   </cc:Work>
  </rdf:RDF>
 </metadata>
 <defs>
  <style type="text/css">*{stroke-linejoin: round; stroke-linecap: butt}</style>
 </defs>
 <g id="figure_1">
  <g id="patch_1">
   <path d="M 0 144 
L 792 144 
L 792 0 
L 0 0 
z
" style="fill: #ffffff"/>
  </g>
  <g id="axes_1">
   <g id="patch_2">
    <path d="M 0 144 
L 792 144 
L 792 0 
L 0 0 
z
" clip-path="url(#p1a20b4f450)" style="fill: #ffffff; stroke: #ffffff; stroke-linejoin: miter"/>
   </g>
   <g id="patch_3">
    <path d="M 0 144 
Q 0 0 0 0 
L 792 0 
L 792 144 
z
" clip-path="url(#p1a20b4f450)" style="fill: #ffffff"/>
   </g>
   <g id="patch_4">
    <path d="M 72 36 
Q 36 36 36 72 
L 792 72 
L 792 36 
z
" clip-path="url(#p1a20b4f450)" style="fill: #ffffff"/>
   </g>
   <g id="patch_5">
    <path d="M 72 108 
Q 36 108 36 144 
L 792 144 
L 792 108 
z
" clip-path="url(#p1a20b4f450)" style="fill: #ffffff"/>
   </g>
   <g id="patch_6">
    <path d="M 36 72 
Q 36 108 72 108 
L 792 108 
L 792 72 
z
" clip-path="url(#p1a20b4f450)" style="fill: #ffffff"/>
   </g>
   <g id="patch_7">
    <path d="M 72 36 
Q 108 36 108 72 
L 792 72 
L 792 36 
z
" clip-path="url(#p1a20b4f450)" style="fill: #ffffff"/>
   </g>
   <g id="patch_8">
    <path d="M 72 108 
Q 108 108 108 144 
L 792 144 
L 792 108 
z
" clip-path="url(#p1a20b4f450)" style="fill: #ffffff"/>
   </g>
   <g id="patch_9">
    <path d="M 108 72 
Q 108 108 72 108 
L 792 108 
L 792 72 
z
" clip-path="url(#p1a20b4f450)" style="fill: #ffffff"/>
   </g>
   <g id="patch_10">
    <path d="M 252 108 
Q 252 144 252 144 
L 792 144 
L 792 108 
z
" clip-path="url(#p1a20b4f450)" style="fill: #ffffff"/>
   </g>
   <g id="patch_11">
    <path d="M 288 72 
Q 252 72 252 108 
L 792 108 
L 792 72 
z
" clip-path="url(#p1a20b4f450)" style="fill: #ffffff"/>
   </g>
   <g id="patch_12">
    <path d="M 288 72 
Q 324 72 324 108 
L 792 108 
L 792 72 
z
" clip-path="url(#p1a20b4f450)" style="fill: #ffffff"/>
   </g>
   <g id="patch_13">
    <path d="M 324 108 
Q 324 144 324 144 
L 792 144 
L 792 108 
z
" clip-path="url(#p1a20b4f450)" style="fill: #ffffff"/>
   </g>
   <g id="patch_14">
    <path d="M 504 36 
Q 468 36 468 72 
L 792 72 
L 792 36 
z
" clip-path="url(#p1a20b4f450)" style="fill: #ffffff"/>
   </g>
   <g id="patch_15">
    <path d="M 468 0 
Q 468 36 504 36 
L 792 36 
L 792 0 
z
" clip-path="url(#p1a20b4f450)" style="fill: #ffffff"/>
   </g>
   <g id="patch_16">
    <path d="M 468 72 
Q 468 108 504 108 
L 792 108 
L 792 72 
z
" clip-path="url(#p1a20b4f450)" style="fill: #ffffff"/>
   </g>
   <g id="patch_17">
    <path d="M 504 36 
Q 540 36 540 72 
L 792 72 
L 792 36 
z
" clip-path="url(#p1a20b4f450)" style="fill: #ffffff"/>
   </g>
   <g id="patch_18">
    <path d="M 540 0 
Q 540 36 504 36 
L 792 36 
L 792 0 
z
" clip-path="url(#p1a20b4f450)" style="fill: #ffffff"/>
   </g>
   <g id="patch_19">
    <path d="M 540 72 
Q 540 108 504 108 
L 792 108 
L 792 72 
z
" clip-path="url(#p1a20b4f450)" style="fill: #ffffff"/>
   </g>
   <g id="patch_20">
    <path d="M 684 0 
Q 684 36 684 36 
L 792 36 
L 792 0 
z
" clip-path="url(#p1a20b4f450)" style="fill: #ffffff"/>
   </g>
   <g id="patch_21">
    <path d="M 684 36 
Q 684 72 720 72 
L 792 72 
L 792 36 
z
" clip-path="url(#p1a20b4f450)" style="fill: #ffffff"/>
   </g>
   <g id="patch_22">
    <path d="M 756 36 
Q 756 72 720 72 
L 792 72 
L 792 36 
z
" clip-path="url(#p1a20b4f450)" style="fill: #ffffff"/>
   </g>
   <g id="patch_23">
    <path d="M 756 0 
Q 756 36 756 36 
L 792 36 
L 792 0 
z
" clip-path="url(#p1a20b4f450)" style="fill: #ffffff"/>
   </g>
   <g id="patch_24">
    <path d="M 36 72 
C 36 108 108 108 108 144 
" clip-path="url(#p1a20b4f450)" style="fill: none; stroke: #000000; stroke-linejoin: miter"/>
   </g>
   <g id="patch_25">
    <path d="M 108 72 
C 108 108 36 108 36 144 
" clip-path="url(#p1a20b4f450)" style="fill: none; stroke: #000000; stroke-linejoin: miter"/>
   </g>
   <g id="patch_26">
    <path d="M 468 0 
C 468 36 540 36 540 72 
" clip-path="url(#p1a20b4f450)" style="fill: none; stroke: #000000; stroke-linejoin: miter"/>
   </g>
   <g id="patch_27">
    <path d="M 540 0 
C 540 36 468 36 468 72 
" clip-path="url(#p1a20b4f450)" style="fill: none; stroke: #000000; stroke-linejoin: miter"/>
   </g>
   <g id="patch_28">
    <path d="M 72 36 
Q 36 36 36 72 
" clip-path="url(#p1a20b4f450)" style="fill: none; stroke: #000000; stroke-linejoin: miter"/>
   </g>
   <g id="patch_29">
    <path d="M 72 36 
Q 108 36 108 72 
" clip-path="url(#p1a20b4f450)" style="fill: none; stroke: #000000; stroke-linejoin: miter"/>
   </g>
   <g id="patch_30">
    <path d="M 288 72 
Q 252 72 252 108 
" clip-path="url(#p1a20b4f450)" style="fill: none; stroke: #000000; stroke-linejoin: miter"/>
   </g>
   <g id="patch_31">
    <path d="M 288 72 
Q 324 72 324 108 
" clip-path="url(#p1a20b4f450)" style="fill: none; stroke: #000000; stroke-linejoin: miter"/>
   </g>
   <g id="patch_32">
    <path d="M 252 108 
Q 252 144 252 144 
" clip-path="url(#p1a20b4f450)" style="fill: none; stroke: #000000; stroke-linejoin: miter"/>
   </g>
   <g id="patch_33">
    <path d="M 324 108 
Q 324 144 324 144 
" clip-path="url(#p1a20b4f450)" style="fill: none; stroke: #000000; stroke-linejoin: miter"/>
   </g>
   <g id="patch_34">
    <path d="M 468 72 
Q 468 108 504 108 
" clip-path="url(#p1a20b4f450)" style="fill: none; stroke: #000000; stroke-linejoin: miter"/>
   </g>
   <g id="patch_35">
    <path d="M 540 72 
Q 540 108 504 108 
" clip-path="url(#p1a20b4f450)" style="fill: none; stroke: #000000; stroke-linejoin: miter"/>
   </g>
   <g id="patch_36">
    <path d="M 684 0 
Q 684 36 684 36 
" clip-path="url(#p1a20b4f450)" style="fill: none; stroke: #000000; stroke-linejoin: miter"/>
   </g>
   <g id="patch_37">
    <path d="M 684 36 
Q 684 72 720 72 
" clip-path="url(#p1a20b4f450)" style="fill: none; stroke: #000000; stroke-linejoin: miter"/>
   </g>
   <g id="patch_38">
    <path d="M 756 0 
Q 756 36 756 36 
" clip-path="url(#p1a20b4f450)" style="fill: none; stroke: #000000; stroke-linejoin: miter"/>
   </g>
   <g id="patch_39">
    <path d="M 756 36 
Q 756 72 720 72 
" clip-path="url(#p1a20b4f450)" style="fill: none; stroke: #000000; stroke-linejoin: miter"/>
   </g>
   <g id="PathCollection_1">
    <defs>
     <path id="C0_0_01ec529ced" d="M 0 4.759202 
C 1.262155 4.759202 2.472785 4.257742 3.365264 3.365264 
C 4.257742 2.472785 4.759202 1.262155 4.759202 -0 
C 4.759202 -1.262155 4.257742 -2.472785 3.365264 -3.365264 
C 2.472785 -4.257742 1.262155 -4.759202 0 -4.759202 
C -1.262155 -4.759202 -2.472785 -4.257742 -3.365264 -3.365264 
C -4.257742 -2.472785 -4.759202 -1.262155 -4.759202 0 
C -4.759202 1.262155 -4.257742 2.472785 -3.365264 3.365264 
C -2.472785 4.257742 -1.262155 4.759202 0 4.759202 
z
"/>
    </defs>
    <g clip-path="url(#p1a20b4f450)">
     <use xlink:href="#C0_0_01ec529ced" x="612" y="72" style="fill: #ffffff; stroke: #ffffff"/>
    </g>
    <g clip-path="url(#p1a20b4f450)">
     <use xlink:href="#C0_0_01ec529ced" x="396" y="72" style="fill: #ffffff; stroke: #ffffff"/>
    </g>
    <g clip-path="url(#p1a20b4f450)">
     <use xlink:href="#C0_0_01ec529ced" x="180" y="72" style="fill: #ffffff; stroke: #ffffff"/>
    </g>
   </g>
   <g id="text_1">
    <!-- x -->
    <g transform="translate(40.5 66.098438) scale(0.1 -0.1)">
     <defs>
      <path id="DejaVuSans-78" d="M 3513 3500 
L 2247 1797 
L 3578 0 
L 2900 0 
L 1881 1375 
L 863 0 
L 184 0 
L 1544 1831 
L 300 3500 
L 978 3500 
L 1906 2253 
L 2834 3500 
L 3513 3500 
z
" transform="scale(0.015625)"/>
     </defs>
     <use xlink:href="#DejaVuSans-78"/>
    </g>
   </g>
   <g id="text_2">
    <!-- x.r -->
    <g transform="translate(112.5 66.098438) scale(0.1 -0.1)">
     <defs>
      <path id="DejaVuSans-2e" d="M 684 794 
L 1344 794 
L 1344 0 
L 684 0 
L 684 794 
z
" transform="scale(0.015625)"/>
      <path id="DejaVuSans-72" d="M 2631 2963 
Q 2534 3019 2420 3045 
Q 2306 3072 2169 3072 
Q 1681 3072 1420 2755 
Q 1159 2438 1159 1844 
L 1159 0 
L 581 0 
L 581 3500 
L 1159 3500 
L 1159 2956 
Q 1341 3275 1631 3429 
Q 1922 3584 2338 3584 
Q 2397 3584 2469 3576 
Q 2541 3569 2628 3553 
L 2631 2963 
z
" transform="scale(0.015625)"/>
     </defs>
     <use xlink:href="#DejaVuSans-78"/>
     <use xlink:href="#DejaVuSans-2e" transform="translate(59.179688 0)"/>
     <use xlink:href="#DejaVuSans-72" transform="translate(90.966797 0)"/>
    </g>
   </g>
   <g id="text_3">
    <!-- x.r -->
    <g transform="translate(40.5 138.098437) scale(0.1 -0.1)">
     <use xlink:href="#DejaVuSans-78"/>
     <use xlink:href="#DejaVuSans-2e" transform="translate(59.179688 0)"/>
     <use xlink:href="#DejaVuSans-72" transform="translate(90.966797 0)"/>
    </g>
   </g>
   <g id="text_4">
    <!-- x -->
    <g transform="translate(112.5 138.098437) scale(0.1 -0.1)">
     <use xlink:href="#DejaVuSans-78"/>
    </g>
   </g>
   <g id="text_5">
    <!-- x.r -->
    <g transform="translate(256.5 102.098438) scale(0.1 -0.1)">
     <use xlink:href="#DejaVuSans-78"/>
     <use xlink:href="#DejaVuSans-2e" transform="translate(59.179688 0)"/>
     <use xlink:href="#DejaVuSans-72" transform="translate(90.966797 0)"/>
    </g>
   </g>
   <g id="text_6">
    <!-- x -->
    <g transform="translate(328.5 102.098438) scale(0.1 -0.1)">
     <use xlink:href="#DejaVuSans-78"/>
    </g>
   </g>
   <g id="text_7">
    <!-- x -->
    <g transform="translate(472.5 12.098437) scale(0.1 -0.1)">
     <use xlink:href="#DejaVuSans-78"/>
    </g>
   </g>
   <g id="text_8">
    <!-- x.r -->
    <g transform="translate(544.5 12.098437) scale(0.1 -0.1)">
     <use xlink:href="#DejaVuSans-78"/>
     <use xlink:href="#DejaVuSans-2e" transform="translate(59.179688 0)"/>
     <use xlink:href="#DejaVuSans-72" transform="translate(90.966797 0)"/>
    </g>
   </g>
   <g id="text_9">
    <!-- x.r -->
    <g transform="translate(472.5 66.098438) scale(0.1 -0.1)">
     <use xlink:href="#DejaVuSans-78"/>
     <use xlink:href="#DejaVuSans-2e" transform="translate(59.179688 0)"/>
     <use xlink:href="#DejaVuSans-72" transform="translate(90.966797 0)"/>
    </g>
   </g>
   <g id="text_10">
    <!-- x -->
    <g transform="translate(544.5 66.098438) scale(0.1 -0.1)">
     <use xlink:href="#DejaVuSans-78"/>
    </g>
   </g>
   <g id="text_11">
    <!-- x -->
    <g transform="translate(688.5 12.098437) scale(0.1 -0.1)">
     <use xlink:href="#DejaVuSans-78"/>
    </g>
   </g>
   <g id="text_12">
    <!-- x.r -->
    <g transform="translate(760.5 12.098437) scale(0.1 -0.1)">
     <use xlink:href="#DejaVuSans-78"/>
     <use xlink:href="#DejaVuSans-2e" transform="translate(59.179688 0)"/>
     <use xlink:href="#DejaVuSans-72" transform="translate(90.966797 0)"/>
    </g>
   </g>
   <g id="text_13">
    <g clip-path="url(#p1a20b4f450)">
     <!-- = -->
     <g transform="translate(606.972188 75.31125) scale(0.12 -0.12)">
      <defs>
       <path id="DejaVuSans-3d" d="M 678 2906 
L 4684 2906 
L 4684 2381 
L 678 2381 
L 678 2906 
z
M 678 1631 
L 4684 1631 
L 4684 1100 
L 678 1100 
L 678 1631 
z
" transform="scale(0.015625)"/>
      </defs>
      <use xlink:href="#DejaVuSans-3d"/>
     </g>
    </g>
   </g>
   <g id="text_14">
    <g clip-path="url(#p1a20b4f450)">
     <!-- = -->
     <g transform="translate(174.972187 75.31125) scale(0.12 -0.12)">
      <use xlink:href="#DejaVuSans-3d"/>
     </g>
    </g>
   </g>
  </g>
 </g>
 <defs>
  <clipPath id="p1a20b4f450">
   <rect x="0" y="0" width="792" height="144"/>
  </clipPath>
 </defs>
</svg>
