<?xml version="1.0" encoding="utf-8" standalone="no"?>
<!DOCTYPE svg PUBLIC "-//W3C//DTD SVG 1.1//EN"
  "http://www.w3.org/Graphics/SVG/1.1/DTD/svg11.dtd">
<svg xmlns:xlink="http://www.w3.org/1999/xlink" width="216pt" height="432pt" viewBox="0 0 216 432" xmlns="http://www.w3.org/2000/svg" version="1.1">
 <metadata>
  <rdf:RDF xmlns:dc="http://purl.org/dc/elements/1.1/" xmlns:cc="http://creativecommons.org/ns#" xmlns:rdf="http://www.w3.org/1999/02/22-rdf-syntax-ns#">
   <cc:Work>
    <dc:type rdf:resource="http://purl.org/dc/dcmitype/StillImage"/>
    <dc:format>image/svg+xml</dc:format>
    <dc:creator>
     <cc:Agent>
      <dc:title>Matplotlib v3.10.9, https://matplotlib.org/</dc:title>
     </cc:Agent>
    </dc:creator>
   </cc:Work>
  </rdf:RDF>
 </metadata>
 <defs>
  <style type="text/css">*{stroke-linejoin: round; stroke-linecap: butt}</style>
 </defs>
 <g id="figure_1">
  <g id="patch_1">
   <path d="M 0 432 
L 216 432 
L 216 0 
L 0 0 
z
" style="fill: #ffffff"/>
  </g>
  <g id="axes_1">
   <g id="patch_2">
    <path d="M 0 432 
L 216 432 
L 216 0 
L 0 0 
z
" clip-path="url(#pbcdb291954)" style="fill: #ffffff; stroke: #ffffff; stroke-linejoin: miter"/>
   </g>
   <g id="patch_3">
    <path d="M 0 432 
Q 0 0 0 0 
L 216 0 
L 216 432 
z
" clip-path="url(#pbcdb291954)" style="fill: #ffffff"/>
   </g>
   <g id="patch_4">
    <path d="M 54 64.8 
Q 54 108 54 108 
L 216 108 
L 216 64.8 
z
" clip-path="url(#pbcdb291954)" style="fill: #ffffff"/>
   </g>
   <g id="patch_5">
    <path d="M 54 151.2 
Q 54 194.4 54 194.4 
L 216 194.4 
L 216 151.2 
z
" clip-path="url(#pbcdb291954)" style="fill: #ffffff"/>
   </g>
   <g id="patch_6">
    <path d="M 54 237.6 
Q 54 280.8 54 280.8 
L 216 280.8 
L 216 237.6 
z
" clip-path="url(#pbcdb291954)" style="fill: #ffffff"/>
   </g>
   <g id="patch_7">
    <path d="M 54 324 
Q 54 432 54 432 
L 216 432 
L 216 324 
z
" clip-path="url(#pbcdb291954)" style="fill: #ffffff"/>
   </g>
   <g id="patch_8">
    <path d="M 81 280.8 
Q 81 324 81 324 
L 216 324 
L 216 280.8 
z
" clip-path="url(#pbcdb291954)" style="fill: #ffffff"/>
   </g>
   <g id="patch_9">
    <path d="M 162 64.8 
Q 162 108 162 108 
L 216 108 
L 216 64.8 
z
" clip-path="url(#pbcdb291954)" style="fill: #ffffff"/>
   </g>
   <g id="patch_10">
    <path d="M 162 151.2 
Q 162 194.4 162 194.4 
L 216 194.4 
L 216 151.2 
z
" clip-path="url(#pbcdb291954)" style="fill: #ffffff"/>
   </g>
   <g id="patch_11">
    <path d="M 162 237.6 
Q 162 367.2 162 367.2 
L 216 367.2 
L 216 237.6 
z
" clip-path="url(#pbcdb291954)" style="fill: #ffffff"/>
   </g>
   <g id="patch_12">
    <path d="M 189 21.6 
Q 189 64.8 189 64.8 
L 216 64.8 
L 216 21.6 
z
" clip-path="url(#pbcdb291954)" style="fill: #ffffff"/>
   </g>
   <g id="patch_13">
    <path d="M 189 108 
Q 189 151.2 189 151.2 
L 216 151.2 
L 216 108 
z
" clip-path="url(#pbcdb291954)" style="fill: #ffffff"/>
   </g>
   <g id="patch_14">
    <path d="M 189 194.4 
Q 189 237.6 189 237.6 
L 216 237.6 
L 216 194.4 
z
" clip-path="url(#pbcdb291954)" style="fill: #ffffff"/>
   </g>
   <g id="patch_15">
    <path d="M 189 367.2 
Q 189 410.4 189 410.4 
L 216 410.4 
L 216 367.2 
z
" clip-path="url(#pbcdb291954)" style="fill: #ffffff"/>
   </g>
   <g id="patch_16">
    <path d="M 54 64.8 
Q 54 108 54 108 
" clip-path="url(#pbcdb291954)" style="fill: none; stroke: #000000; stroke-linejoin: miter"/>
   </g>
   <g id="patch_17">
    <path d="M 162 64.8 
Q 162 108 162 108 
" clip-path="url(#pbcdb291954)" style="fill: none; stroke: #000000; stroke-linejoin: miter"/>
   </g>
   <g id="patch_18">
    <path d="M 54 151.2 
Q 54 194.4 54 194.4 
" clip-path="url(#pbcdb291954)" style="fill: none; stroke: #000000; stroke-linejoin: miter"/>
   </g>
   <g id="patch_19">
    <path d="M 162 151.2 
Q 162 194.4 162 194.4 
" clip-path="url(#pbcdb291954)" style="fill: none; stroke: #000000; stroke-linejoin: miter"/>
   </g>
   <g id="patch_20">
    <path d="M 54 237.6 
Q 54 280.8 54 280.8 
" clip-path="url(#pbcdb291954)" style="fill: none; stroke: #000000; stroke-linejoin: miter"/>
   </g>
   <g id="patch_21">
    <path d="M 162 237.6 
Q 162 367.2 162 367.2 
" clip-path="url(#pbcdb291954)" style="fill: none; stroke: #000000; stroke-linejoin: miter"/>
   </g>
   <g id="patch_22">
    <path d="M 54 324 
Q 54 432 54 432 
" clip-path="url(#pbcdb291954)" style="fill: none; stroke: #000000; stroke-linejoin: miter"/>
   </g>
   <g id="patch_23">
    <path d="M 27 64.8 
L 81 64.8 
L 54 21.6 
z
" clip-path="url(#pbcdb291954)" style="fill: #ffffff; stroke: #000000; stroke-linejoin: miter"/>
   </g>
   <g id="patch_24">
    <path d="M 135 64.8 
L 189 64.8 
L 162 21.6 
z
" clip-path="url(#pbcdb291954)" style="fill: #ffffff; stroke: #000000; stroke-linejoin: miter"/>
   </g>
   <g id="patch_25">
    <path d="M 162 108 
Q 162 151.2 162 151.2 
" clip-path="url(#pbcdb291954)" style="fill: none; stroke: #000000; stroke-linejoin: miter"/>
   </g>
   <g id="PathCollection_1">
    <defs>
     <path id="m2666cb9bb9" d="M 0 8.188406 
C 2.171591 8.188406 4.254531 7.325624 5.790078 5.790078 
C 7.325624 4.254531 8.188406 2.171591 8.188406 0 
C 8.188406 -2.171591 7.325624 -4.254531 5.790078 -5.790078 
C 4.254531 -7.325624 2.171591 -8.188406 0 -8.188406 
C -2.171591 -8.188406 -4.254531 -7.325624 -5.790078 -5.790078 
C -7.325624 -4.254531 -8.188406 -2.171591 -8.188406 0 
C -8.188406 2.171591 -7.325624 4.254531 -5.790078 5.790078 
C -4.254531 7.325624 -2.171591 8.188406 0 8.188406 
z
" style="stroke: #000000"/>
    </defs>
    <g clip-path="url(#pbcdb291954)">
     <use xlink:href="#m2666cb9bb9" x="162" y="129.6" style="fill: #ffffff; stroke: #000000"/>
    </g>
   </g>
   <g id="PathCollection_2">
    <defs>
     <path id="mc68145a221" d="M -8.188406 0 
L 8.188406 0 
M 0 8.188406 
L 0 -8.188406 
" style="stroke: #000000; stroke-width: 1.5"/>
    </defs>
    <g clip-path="url(#pbcdb291954)">
     <use xlink:href="#mc68145a221" x="162" y="129.6" style="stroke: #000000; stroke-width: 1.5"/>
    </g>
   </g>
   <g id="patch_26">
    <path d="M 54 108 
Q 54 151.2 54 151.2 
" clip-path="url(#pbcdb291954)" style="fill: none; stroke: #000000; stroke-linejoin: miter"/>
   </g>
   <g id="patch_27">
    <path d="M 54 129.6 
Q 162 129.6 162 129.6 
" clip-path="url(#pbcdb291954)" style="fill: none; stroke: #000000; stroke-linejoin: miter"/>
   </g>
   <g id="PathCollection_3">
    <defs>
     <path id="m1d28fb65be" d="M 0 5.790078 
C 1.535547 5.790078 3.008408 5.179999 4.094203 4.094203 
C 5.179999 3.008408 5.790078 1.535547 5.790078 0 
C 5.790078 -1.535547 5.179999 -3.008408 4.094203 -4.094203 
C 3.008408 -5.179999 1.535547 -5.790078 0 -5.790078 
C -1.535547 -5.790078 -3.008408 -5.179999 -4.094203 -4.094203 
C -5.179999 -3.008408 -5.790078 -1.535547 -5.790078 0 
C -5.790078 1.535547 -5.179999 3.008408 -4.094203 4.094203 
C -3.008408 5.179999 -1.535547 5.790078 0 5.790078 
z
" style="stroke: #000000"/>
    </defs>
    <g clip-path="url(#pbcdb291954)">
     <use xlink:href="#m1d28fb65be" x="54" y="129.6" style="stroke: #000000"/>
    </g>
   </g>
   <g id="patch_28">
    <path d="M 135 237.6 
L 135 194.4 
L 189 194.4 
L 189 237.6 
z
" clip-path="url(#pbcdb291954)" style="fill: #ffffff; stroke: #000000; stroke-linejoin: miter"/>
   </g>
   <g id="patch_29">
    <path d="M 54 194.4 
Q 54 237.6 54 237.6 
" clip-path="url(#pbcdb291954)" style="fill: none; stroke: #000000; stroke-linejoin: miter"/>
   </g>
   <g id="patch_30">
    <path d="M 54 216 
Q 135 216 135 216 
" clip-path="url(#pbcdb291954)" style="fill: none; stroke: #000000; stroke-linejoin: miter"/>
   </g>
   <g id="PathCollection_4">
    <g clip-path="url(#pbcdb291954)">
     <use xlink:href="#m1d28fb65be" x="54" y="216" style="stroke: #000000"/>
    </g>
   </g>
   <g id="patch_31">
    <path d="M 27 324 
L 27 280.8 
L 81 280.8 
L 81 324 
z
" clip-path="url(#pbcdb291954)" style="fill: #ffffff; stroke: #000000; stroke-linejoin: miter"/>
   </g>
   <g id="patch_32">
    <path d="M 37.8 311.04 
Q 37.8 293.76 54 293.76 
" clip-path="url(#pbcdb291954)" style="fill: none; stroke: #000000; stroke-linejoin: miter"/>
   </g>
   <g id="patch_33">
    <path d="M 54 293.76 
Q 70.2 293.76 70.2 311.04 
" clip-path="url(#pbcdb291954)" style="fill: none; stroke: #000000; stroke-linejoin: miter"/>
   </g>
   <g id="patch_34">
    <path d="M 60.035416 286.898335 
L 60.459027 289.609444 
L 59.452951 289.448472 
L 54.052951 311.048472 
L 53.947049 311.031528 
L 59.347049 289.431528 
L 58.340973 289.270556 
z
" clip-path="url(#pbcdb291954)" style="stroke: #000000; stroke-linejoin: miter"/>
   </g>
   <g id="patch_35">
    <path d="M 135 367.2 
Q 135 367.2 189 367.2 
" clip-path="url(#pbcdb291954)" style="fill: none; stroke: #000000; stroke-linejoin: miter"/>
   </g>
   <g id="patch_36">
    <path d="M 145.8 375.84 
Q 145.8 375.84 178.2 375.84 
" clip-path="url(#pbcdb291954)" style="fill: none; stroke: #000000; stroke-linejoin: miter"/>
   </g>
   <g id="patch_37">
    <path d="M 156.6 384.48 
Q 156.6 384.48 167.4 384.48 
" clip-path="url(#pbcdb291954)" style="fill: none; stroke: #000000; stroke-linejoin: miter"/>
   </g>
   <g id="text_1">
    <!-- qubit -->
    <g transform="translate(60.75 77.798437) scale(0.1 -0.1)">
     <defs>
      <path id="DejaVuSans-71" d="M 947 1747 
Q 947 1113 1208 752 
Q 1469 391 1925 391 
Q 2381 391 2643 752 
Q 2906 1113 2906 1747 
Q 2906 2381 2643 2742 
Q 2381 3103 1925 3103 
Q 1469 3103 1208 2742 
Q 947 2381 947 1747 
z
M 2906 525 
Q 2725 213 2448 61 
Q 2172 -91 1784 -91 
Q 1150 -91 751 415 
Q 353 922 353 1747 
Q 353 2572 751 3078 
Q 1150 3584 1784 3584 
Q 2172 3584 2448 3432 
Q 2725 3281 2906 2969 
L 2906 3500 
L 3481 3500 
L 3481 -1331 
L 2906 -1331 
L 2906 525 
z
" transform="scale(0.015625)"/>
      <path id="DejaVuSans-75" d="M 544 1381 
L 544 3500 
L 1119 3500 
L 1119 1403 
Q 1119 906 1312 657 
Q 1506 409 1894 409 
Q 2359 409 2629 706 
Q 2900 1003 2900 1516 
L 2900 3500 
L 3475 3500 
L 3475 0 
L 2900 0 
L 2900 538 
Q 2691 219 2414 64 
Q 2138 -91 1772 -91 
Q 1169 -91 856 284 
Q 544 659 544 1381 
z
M 1991 3584 
L 1991 3584 
z
" transform="scale(0.015625)"/>
      <path id="DejaVuSans-62" d="M 3116 1747 
Q 3116 2381 2855 2742 
Q 2594 3103 2138 3103 
Q 1681 3103 1420 2742 
Q 1159 2381 1159 1747 
Q 1159 1113 1420 752 
Q 1681 391 2138 391 
Q 2594 391 2855 752 
Q 3116 1113 3116 1747 
z
M 1159 2969 
Q 1341 3281 1617 3432 
Q 1894 3584 2278 3584 
Q 2916 3584 3314 3078 
Q 3713 2572 3713 1747 
Q 3713 922 3314 415 
Q 2916 -91 2278 -91 
Q 1894 -91 1617 61 
Q 1341 213 1159 525 
L 1159 0 
L 581 0 
L 581 4863 
L 1159 4863 
L 1159 2969 
z
" transform="scale(0.015625)"/>
      <path id="DejaVuSans-69" d="M 603 3500 
L 1178 3500 
L 1178 0 
L 603 0 
L 603 3500 
z
M 603 4863 
L 1178 4863 
L 1178 4134 
L 603 4134 
L 603 4863 
z
" transform="scale(0.015625)"/>
      <path id="DejaVuSans-74" d="M 1172 4494 
L 1172 3500 
L 2356 3500 
L 2356 3053 
L 1172 3053 
L 1172 1153 
Q 1172 725 1289 603 
Q 1406 481 1766 481 
L 2356 481 
L 2356 0 
L 1766 0 
Q 1100 0 847 248 
Q 594 497 594 1153 
L 594 3053 
L 172 3053 
L 172 3500 
L 594 3500 
L 594 4494 
L 1172 4494 
z
" transform="scale(0.015625)"/>
     </defs>
     <use xlink:href="#DejaVuSans-71"/>
     <use xlink:href="#DejaVuSans-75" transform="translate(63.476562 0)"/>
     <use xlink:href="#DejaVuSans-62" transform="translate(126.855469 0)"/>
     <use xlink:href="#DejaVuSans-69" transform="translate(190.332031 0)"/>
     <use xlink:href="#DejaVuSans-74" transform="translate(218.115234 0)"/>
    </g>
   </g>
   <g id="text_2">
    <!-- qubit -->
    <g transform="translate(168.75 77.798437) scale(0.1 -0.1)">
     <use xlink:href="#DejaVuSans-71"/>
     <use xlink:href="#DejaVuSans-75" transform="translate(63.476562 0)"/>
     <use xlink:href="#DejaVuSans-62" transform="translate(126.855469 0)"/>
     <use xlink:href="#DejaVuSans-69" transform="translate(190.332031 0)"/>
     <use xlink:href="#DejaVuSans-74" transform="translate(218.115234 0)"/>
    </g>
   </g>
   <g id="text_3">
    <!-- qubit -->
    <g transform="translate(60.75 164.198437) scale(0.1 -0.1)">
     <use xlink:href="#DejaVuSans-71"/>
     <use xlink:href="#DejaVuSans-75" transform="translate(63.476562 0)"/>
     <use xlink:href="#DejaVuSans-62" transform="translate(126.855469 0)"/>
     <use xlink:href="#DejaVuSans-69" transform="translate(190.332031 0)"/>
     <use xlink:href="#DejaVuSans-74" transform="translate(218.115234 0)"/>
    </g>
   </g>
   <g id="text_4">
    <!-- qubit -->
    <g transform="translate(168.75 164.198437) scale(0.1 -0.1)">
     <use xlink:href="#DejaVuSans-71"/>
     <use xlink:href="#DejaVuSans-75" transform="translate(63.476562 0)"/>
     <use xlink:href="#DejaVuSans-62" transform="translate(126.855469 0)"/>
     <use xlink:href="#DejaVuSans-69" transform="translate(190.332031 0)"/>
     <use xlink:href="#DejaVuSans-74" transform="translate(218.115234 0)"/>
    </g>
   </g>
   <g id="text_5">
    <!-- qubit -->
    <g transform="translate(60.75 250.598437) scale(0.1 -0.1)">
     <use xlink:href="#DejaVuSans-71"/>
     <use xlink:href="#DejaVuSans-75" transform="translate(63.476562 0)"/>
     <use xlink:href="#DejaVuSans-62" transform="translate(126.855469 0)"/>
     <use xlink:href="#DejaVuSans-69" transform="translate(190.332031 0)"/>
     <use xlink:href="#DejaVuSans-74" transform="translate(218.115234 0)"/>
    </g>
   </g>
   <g id="text_6">
    <!-- qubit -->
    <g transform="translate(168.75 250.598437) scale(0.1 -0.1)">
     <use xlink:href="#DejaVuSans-71"/>
     <use xlink:href="#DejaVuSans-75" transform="translate(63.476562 0)"/>
     <use xlink:href="#DejaVuSans-62" transform="translate(126.855469 0)"/>
     <use xlink:href="#DejaVuSans-69" transform="translate(190.332031 0)"/>
     <use xlink:href="#DejaVuSans-74" transform="translate(218.115234 0)"/>
    </g>
   </g>
   <g id="text_7">
    <!-- bit -->
    <g transform="translate(60.75 336.998438) scale(0.1 -0.1)">
     <use xlink:href="#DejaVuSans-62"/>
     <use xlink:href="#DejaVuSans-69" transform="translate(63.476562 0)"/>
     <use xlink:href="#DejaVuSans-74" transform="translate(91.259766 0)"/>
    </g>
   </g>
   <g id="text_8">
    <!-- 0 -->
    <g transform="translate(50.81875 50.279375) scale(0.1 -0.1)">
     <defs>
      <path id="DejaVuSans-30" d="M 2034 4250 
Q 1547 4250 1301 3770 
Q 1056 3291 1056 2328 
Q 1056 1369 1301 889 
Q 1547 409 2034 409 
Q 2525 409 2770 889 
Q 3016 1369 3016 2328 
Q 3016 3291 2770 3770 
Q 2525 4250 2034 4250 
z
M 2034 4750 
Q 2819 4750 3233 4129 
Q 3647 3509 3647 2328 
Q 3647 1150 3233 529 
Q 2819 -91 2034 -91 
Q 1250 -91 836 529 
Q 422 1150 422 2328 
Q 422 3509 836 4129 
Q 1250 4750 2034 4750 
z
" transform="scale(0.015625)"/>
     </defs>
     <use xlink:href="#DejaVuSans-30"/>
    </g>
   </g>
   <g id="text_9">
    <!-- 0 -->
    <g transform="translate(158.81875 50.279375) scale(0.1 -0.1)">
     <use xlink:href="#DejaVuSans-30"/>
    </g>
   </g>
   <g id="text_10">
    <!-- Rz(0.25) -->
    <g transform="translate(140.867188 218.759375) scale(0.1 -0.1)">
     <defs>
      <path id="DejaVuSans-52" d="M 2841 2188 
Q 3044 2119 3236 1894 
Q 3428 1669 3622 1275 
L 4263 0 
L 3584 0 
L 2988 1197 
Q 2756 1666 2539 1819 
Q 2322 1972 1947 1972 
L 1259 1972 
L 1259 0 
L 628 0 
L 628 4666 
L 2053 4666 
Q 2853 4666 3247 4331 
Q 3641 3997 3641 3322 
Q 3641 2881 3436 2590 
Q 3231 2300 2841 2188 
z
M 1259 4147 
L 1259 2491 
L 2053 2491 
Q 2509 2491 2742 2702 
Q 2975 2913 2975 3322 
Q 2975 3731 2742 3939 
Q 2509 4147 2053 4147 
L 1259 4147 
z
" transform="scale(0.015625)"/>
      <path id="DejaVuSans-7a" d="M 353 3500 
L 3084 3500 
L 3084 2975 
L 922 459 
L 3084 459 
L 3084 0 
L 275 0 
L 275 525 
L 2438 3041 
L 353 3041 
L 353 3500 
z
" transform="scale(0.015625)"/>
      <path id="DejaVuSans-28" d="M 1984 4856 
Q 1566 4138 1362 3434 
Q 1159 2731 1159 2009 
Q 1159 1288 1364 580 
Q 1569 -128 1984 -844 
L 1484 -844 
Q 1016 -109 783 600 
Q 550 1309 550 2009 
Q 550 2706 781 3412 
Q 1013 4119 1484 4856 
L 1984 4856 
z
" transform="scale(0.015625)"/>
      <path id="DejaVuSans-2e" d="M 684 794 
L 1344 794 
L 1344 0 
L 684 0 
L 684 794 
z
" transform="scale(0.015625)"/>
      <path id="DejaVuSans-32" d="M 1228 531 
L 3431 531 
L 3431 0 
L 469 0 
L 469 531 
Q 828 903 1448 1529 
Q 2069 2156 2228 2338 
Q 2531 2678 2651 2914 
Q 2772 3150 2772 3378 
Q 2772 3750 2511 3984 
Q 2250 4219 1831 4219 
Q 1534 4219 1204 4116 
Q 875 4013 500 3803 
L 500 4441 
Q 881 4594 1212 4672 
Q 1544 4750 1819 4750 
Q 2544 4750 2975 4387 
Q 3406 4025 3406 3419 
Q 3406 3131 3298 2873 
Q 3191 2616 2906 2266 
Q 2828 2175 2409 1742 
Q 1991 1309 1228 531 
z
" transform="scale(0.015625)"/>
      <path id="DejaVuSans-35" d="M 691 4666 
L 3169 4666 
L 3169 4134 
L 1269 4134 
L 1269 2991 
Q 1406 3038 1543 3061 
Q 1681 3084 1819 3084 
Q 2600 3084 3056 2656 
Q 3513 2228 3513 1497 
Q 3513 744 3044 326 
Q 2575 -91 1722 -91 
Q 1428 -91 1123 -41 
Q 819 9 494 109 
L 494 744 
Q 775 591 1075 516 
Q 1375 441 1709 441 
Q 2250 441 2565 725 
Q 2881 1009 2881 1497 
Q 2881 1984 2565 2268 
Q 2250 2553 1709 2553 
Q 1456 2553 1204 2497 
Q 953 2441 691 2322 
L 691 4666 
z
" transform="scale(0.015625)"/>
      <path id="DejaVuSans-29" d="M 513 4856 
L 1013 4856 
Q 1481 4119 1714 3412 
Q 1947 2706 1947 2009 
Q 1947 1309 1714 600 
Q 1481 -109 1013 -844 
L 513 -844 
Q 928 -128 1133 580 
Q 1338 1288 1338 2009 
Q 1338 2731 1133 3434 
Q 928 4138 513 4856 
z
" transform="scale(0.015625)"/>
     </defs>
     <use xlink:href="#DejaVuSans-52"/>
     <use xlink:href="#DejaVuSans-7a" transform="translate(69.482422 0)"/>
     <use xlink:href="#DejaVuSans-28" transform="translate(121.972656 0)"/>
     <use xlink:href="#DejaVuSans-30" transform="translate(160.986328 0)"/>
     <use xlink:href="#DejaVuSans-2e" transform="translate(224.609375 0)"/>
     <use xlink:href="#DejaVuSans-32" transform="translate(256.396484 0)"/>
     <use xlink:href="#DejaVuSans-35" transform="translate(320.019531 0)"/>
     <use xlink:href="#DejaVuSans-29" transform="translate(383.642578 0)"/>
    </g>
   </g>
  </g>
 </g>
 <defs>
  <clipPath id="pbcdb291954">
   <rect x="0" y="0" width="216" height="432"/>
  </clipPath>
 </defs>
</svg>
