<?xml version="1.0" encoding="utf-8" standalone="no"?>
<!DOCTYPE svg PUBLIC "-//W3C//DTD SVG 1.1//EN"
  "http://www.w3.org/Graphics/SVG/1.1/DTD/svg11.dtd">
<svg xmlns:xlink="http://www.w3.org/1999/xlink" width="877.5pt" height="576pt" viewBox="0 0 877.5 576" xmlns="http://www.w3.org/2000/svg" version="1.1">
 <metadata>
  <rdf:RDF xmlns:dc="http://purl.org/dc/elements/1.1/" xmlns:cc="http://creativecommons.org/ns#" xmlns:rdf="http://www.w3.org/1999/02/22-rdf-syntax-ns#">
   <cc:Work>
    <dc:type rdf:resource="http://purl.org/dc/dcmitype/StillImage"/>
    <dc:format>image/svg+xml</dc:format>
    <dc:creator>
     <cc:Agent>
      <dc:title>Matplotlib v3.10.9, https://matplotlib.org/</dc:title>
     </cc:Agent>
    </dc:creator>
   </cc:Work>
  </rdf:RDF>
 </metadata>
 <defs>
  <style type="text/css">*{stroke-linejoin: round; stroke-linecap: butt}</style>
 </defs>
 <g id="figure_1">
  <g id="patch_1">
   <path d="M 0 576 
L 877.5 576 
L 877.5 0 
L 0 0 
z
" style="fill: #ffffff"/>
  </g>
  <g id="axes_1">
   <g id="patch_2">
    <path d="M 0 576 
L 877.5 576 
L 877.5 0 
L 0 0 
z
" clip-path="url(#p1b53ec1bbe)" style="fill: #ffffff; stroke: #ffffff; stroke-linejoin: miter"/>
   </g>
   <g id="patch_3">
    <path d="M 0 576 
Q 0 0 0 0 
L 877.5 0 
L 877.5 576 
z
" clip-path="url(#p1b53ec1bbe)" style="fill: #ffffff"/>
   </g>
   <g id="patch_4">
    <path d="M 36 162 
Q 36 324 36 324 
L 877.5 324 
L 877.5 162 
z
" clip-path="url(#p1b53ec1bbe)" style="fill: #ffffff"/>
   </g>
   <g id="patch_5">
    <path d="M 36 324 
Q 36 360 72 360 
L 877.5 360 
L 877.5 324 
z
" clip-path="url(#p1b53ec1bbe)" style="fill: #ffffff"/>
   </g>
   <g id="patch_6">
    <path d="M 54 126 
Q 54 162 54 162 
L 877.5 162 
L 877.5 126 
z
" clip-path="url(#p1b53ec1bbe)" style="fill: #ffffff"/>
   </g>
   <g id="patch_7">
    <path d="M 108 324 
Q 108 360 72 360 
L 877.5 360 
L 877.5 324 
z
" clip-path="url(#p1b53ec1bbe)" style="fill: #ffffff"/>
   </g>
   <g id="patch_8">
    <path d="M 108 234 
Q 108 324 108 324 
L 877.5 324 
L 877.5 234 
z
" clip-path="url(#p1b53ec1bbe)" style="fill: #ffffff"/>
   </g>
   <g id="patch_9">
    <path d="M 180 234 
Q 180 576 180 576 
L 877.5 576 
L 877.5 234 
z
" clip-path="url(#p1b53ec1bbe)" style="fill: #ffffff"/>
   </g>
   <g id="patch_10">
    <path d="M 252 234 
Q 252 396 252 396 
L 877.5 396 
L 877.5 234 
z
" clip-path="url(#p1b53ec1bbe)" style="fill: #ffffff"/>
   </g>
   <g id="patch_11">
    <path d="M 252 396 
Q 252 432 288 432 
L 877.5 432 
L 877.5 396 
z
" clip-path="url(#p1b53ec1bbe)" style="fill: #ffffff"/>
   </g>
   <g id="patch_12">
    <path d="M 270 198 
Q 270 234 270 234 
L 877.5 234 
L 877.5 198 
z
" clip-path="url(#p1b53ec1bbe)" style="fill: #ffffff"/>
   </g>
   <g id="patch_13">
    <path d="M 324 396 
Q 324 432 288 432 
L 877.5 432 
L 877.5 396 
z
" clip-path="url(#p1b53ec1bbe)" style="fill: #ffffff"/>
   </g>
   <g id="patch_14">
    <path d="M 324 306 
Q 324 396 324 396 
L 877.5 396 
L 877.5 306 
z
" clip-path="url(#p1b53ec1bbe)" style="fill: #ffffff"/>
   </g>
   <g id="patch_15">
    <path d="M 342 270 
Q 342 306 342 306 
L 877.5 306 
L 877.5 270 
z
" clip-path="url(#p1b53ec1bbe)" style="fill: #ffffff"/>
   </g>
   <g id="patch_16">
    <path d="M 468 54 
Q 468 234 468 234 
L 877.5 234 
L 877.5 54 
z
" clip-path="url(#p1b53ec1bbe)" style="fill: #ffffff"/>
   </g>
   <g id="patch_17">
    <path d="M 468 270 
Q 468 306 468 306 
L 877.5 306 
L 877.5 270 
z
" clip-path="url(#p1b53ec1bbe)" style="fill: #ffffff"/>
   </g>
   <g id="patch_18">
    <path d="M 468 342 
Q 468 378 468 378 
L 877.5 378 
L 877.5 342 
z
" clip-path="url(#p1b53ec1bbe)" style="fill: #ffffff"/>
   </g>
   <g id="patch_19">
    <path d="M 486 18 
Q 486 54 486 54 
L 877.5 54 
L 877.5 18 
z
" clip-path="url(#p1b53ec1bbe)" style="fill: #ffffff"/>
   </g>
   <g id="patch_20">
    <path d="M 486 306 
Q 486 342 486 342 
L 877.5 342 
L 877.5 306 
z
" clip-path="url(#p1b53ec1bbe)" style="fill: #ffffff"/>
   </g>
   <g id="patch_21">
    <path d="M 562.5 306 
Q 562.5 342 562.5 342 
L 877.5 342 
L 877.5 306 
z
" clip-path="url(#p1b53ec1bbe)" style="fill: #ffffff"/>
   </g>
   <g id="patch_22">
    <path d="M 616.5 54 
Q 616.5 90 616.5 90 
L 877.5 90 
L 877.5 54 
z
" clip-path="url(#p1b53ec1bbe)" style="fill: #ffffff"/>
   </g>
   <g id="patch_23">
    <path d="M 616.5 126 
Q 616.5 162 616.5 162 
L 877.5 162 
L 877.5 126 
z
" clip-path="url(#p1b53ec1bbe)" style="fill: #ffffff"/>
   </g>
   <g id="patch_24">
    <path d="M 616.5 198 
Q 616.5 234 616.5 234 
L 877.5 234 
L 877.5 198 
z
" clip-path="url(#p1b53ec1bbe)" style="fill: #ffffff"/>
   </g>
   <g id="patch_25">
    <path d="M 616.5 270 
Q 616.5 378 616.5 378 
L 877.5 378 
L 877.5 270 
z
" clip-path="url(#p1b53ec1bbe)" style="fill: #ffffff"/>
   </g>
   <g id="patch_26">
    <path d="M 634.5 90 
Q 634.5 126 634.5 126 
L 877.5 126 
L 877.5 90 
z
" clip-path="url(#p1b53ec1bbe)" style="fill: #ffffff"/>
   </g>
   <g id="patch_27">
    <path d="M 634.5 234 
Q 634.5 270 634.5 270 
L 877.5 270 
L 877.5 234 
z
" clip-path="url(#p1b53ec1bbe)" style="fill: #ffffff"/>
   </g>
   <g id="patch_28">
    <path d="M 634.5 378 
Q 634.5 414 634.5 414 
L 877.5 414 
L 877.5 378 
z
" clip-path="url(#p1b53ec1bbe)" style="fill: #ffffff"/>
   </g>
   <g id="patch_29">
    <path d="M 688.5 54 
Q 688.5 90 688.5 90 
L 877.5 90 
L 877.5 54 
z
" clip-path="url(#p1b53ec1bbe)" style="fill: #ffffff"/>
   </g>
   <g id="patch_30">
    <path d="M 688.5 126 
Q 688.5 162 688.5 162 
L 877.5 162 
L 877.5 126 
z
" clip-path="url(#p1b53ec1bbe)" style="fill: #ffffff"/>
   </g>
   <g id="patch_31">
    <path d="M 688.5 198 
Q 688.5 378 688.5 378 
L 877.5 378 
L 877.5 198 
z
" clip-path="url(#p1b53ec1bbe)" style="fill: #ffffff"/>
   </g>
   <g id="patch_32">
    <path d="M 688.5 414 
Q 688.5 450 688.5 450 
L 877.5 450 
L 877.5 414 
z
" clip-path="url(#p1b53ec1bbe)" style="fill: #ffffff"/>
   </g>
   <g id="patch_33">
    <path d="M 688.5 486 
Q 688.5 522 688.5 522 
L 877.5 522 
L 877.5 486 
z
" clip-path="url(#p1b53ec1bbe)" style="fill: #ffffff"/>
   </g>
   <g id="patch_34">
    <path d="M 706.5 18 
Q 706.5 54 706.5 54 
L 877.5 54 
L 877.5 18 
z
" clip-path="url(#p1b53ec1bbe)" style="fill: #ffffff"/>
   </g>
   <g id="patch_35">
    <path d="M 706.5 90 
Q 706.5 126 706.5 126 
L 877.5 126 
L 877.5 90 
z
" clip-path="url(#p1b53ec1bbe)" style="fill: #ffffff"/>
   </g>
   <g id="patch_36">
    <path d="M 706.5 162 
Q 706.5 198 706.5 198 
L 877.5 198 
L 877.5 162 
z
" clip-path="url(#p1b53ec1bbe)" style="fill: #ffffff"/>
   </g>
   <g id="patch_37">
    <path d="M 706.5 450 
Q 706.5 486 706.5 486 
L 877.5 486 
L 877.5 450 
z
" clip-path="url(#p1b53ec1bbe)" style="fill: #ffffff"/>
   </g>
   <g id="patch_38">
    <path d="M 783 450 
Q 783 486 783 486 
L 877.5 486 
L 877.5 450 
z
" clip-path="url(#p1b53ec1bbe)" style="fill: #ffffff"/>
   </g>
   <g id="patch_39">
    <path d="M 837 198 
Q 837 378 837 378 
L 877.5 378 
L 877.5 198 
z
" clip-path="url(#p1b53ec1bbe)" style="fill: #ffffff"/>
   </g>
   <g id="patch_40">
    <path d="M 837 414 
Q 837 522 837 522 
L 877.5 522 
L 877.5 414 
z
" clip-path="url(#p1b53ec1bbe)" style="fill: #ffffff"/>
   </g>
   <g id="patch_41">
    <path d="M 855 162 
Q 855 198 855 198 
L 877.5 198 
L 877.5 162 
z
" clip-path="url(#p1b53ec1bbe)" style="fill: #ffffff"/>
   </g>
   <g id="patch_42">
    <path d="M 855 378 
Q 855 414 855 414 
L 877.5 414 
L 877.5 378 
z
" clip-path="url(#p1b53ec1bbe)" style="fill: #ffffff"/>
   </g>
   <g id="patch_43">
    <path d="M 855 522 
Q 855 558 855 558 
L 877.5 558 
L 877.5 522 
z
" clip-path="url(#p1b53ec1bbe)" style="fill: #ffffff"/>
   </g>
   <g id="patch_44">
    <path d="M 859.5 18 
Q 859.5 54 859.5 54 
L 877.5 54 
L 877.5 18 
z
" clip-path="url(#p1b53ec1bbe)" style="fill: #ffffff"/>
   </g>
   <g id="patch_45">
    <path d="M 36 162 
Q 36 324 36 324 
" clip-path="url(#p1b53ec1bbe)" style="fill: none; stroke: #000000; stroke-linejoin: miter"/>
   </g>
   <g id="patch_46">
    <path d="M 108 234 
Q 108 324 108 324 
" clip-path="url(#p1b53ec1bbe)" style="fill: none; stroke: #000000; stroke-linejoin: miter"/>
   </g>
   <g id="patch_47">
    <path d="M 180 234 
Q 180 576 180 576 
" clip-path="url(#p1b53ec1bbe)" style="fill: none; stroke: #000000; stroke-linejoin: miter"/>
   </g>
   <g id="patch_48">
    <path d="M 252 234 
Q 252 396 252 396 
" clip-path="url(#p1b53ec1bbe)" style="fill: none; stroke: #000000; stroke-linejoin: miter"/>
   </g>
   <g id="patch_49">
    <path d="M 324 306 
Q 324 396 324 396 
" clip-path="url(#p1b53ec1bbe)" style="fill: none; stroke: #000000; stroke-linejoin: miter"/>
   </g>
   <g id="patch_50">
    <path d="M 36 324 
Q 36 360 72 360 
" clip-path="url(#p1b53ec1bbe)" style="fill: none; stroke: #000000; stroke-linejoin: miter"/>
   </g>
   <g id="patch_51">
    <path d="M 108 324 
Q 108 360 72 360 
" clip-path="url(#p1b53ec1bbe)" style="fill: none; stroke: #000000; stroke-linejoin: miter"/>
   </g>
   <g id="patch_52">
    <path d="M 252 396 
Q 252 432 288 432 
" clip-path="url(#p1b53ec1bbe)" style="fill: none; stroke: #000000; stroke-linejoin: miter"/>
   </g>
   <g id="patch_53">
    <path d="M 324 396 
Q 324 432 288 432 
" clip-path="url(#p1b53ec1bbe)" style="fill: none; stroke: #000000; stroke-linejoin: miter"/>
   </g>
   <g id="patch_54">
    <path d="M 468 54 
Q 468 234 468 234 
" clip-path="url(#p1b53ec1bbe)" style="fill: none; stroke: #000000; stroke-linejoin: miter"/>
   </g>
   <g id="patch_55">
    <path d="M 616.5 54 
Q 616.5 90 616.5 90 
" clip-path="url(#p1b53ec1bbe)" style="fill: none; stroke: #000000; stroke-linejoin: miter"/>
   </g>
   <g id="patch_56">
    <path d="M 688.5 54 
Q 688.5 90 688.5 90 
" clip-path="url(#p1b53ec1bbe)" style="fill: none; stroke: #000000; stroke-linejoin: miter"/>
   </g>
   <g id="patch_57">
    <path d="M 616.5 126 
Q 616.5 162 616.5 162 
" clip-path="url(#p1b53ec1bbe)" style="fill: none; stroke: #000000; stroke-linejoin: miter"/>
   </g>
   <g id="patch_58">
    <path d="M 688.5 126 
Q 688.5 162 688.5 162 
" clip-path="url(#p1b53ec1bbe)" style="fill: none; stroke: #000000; stroke-linejoin: miter"/>
   </g>
   <g id="patch_59">
    <path d="M 616.5 198 
Q 616.5 234 616.5 234 
" clip-path="url(#p1b53ec1bbe)" style="fill: none; stroke: #000000; stroke-linejoin: miter"/>
   </g>
   <g id="patch_60">
    <path d="M 688.5 198 
Q 688.5 378 688.5 378 
" clip-path="url(#p1b53ec1bbe)" style="fill: none; stroke: #000000; stroke-linejoin: miter"/>
   </g>
   <g id="patch_61">
    <path d="M 837 198 
Q 837 378 837 378 
" clip-path="url(#p1b53ec1bbe)" style="fill: none; stroke: #000000; stroke-linejoin: miter"/>
   </g>
   <g id="patch_62">
    <path d="M 468 270 
Q 468 306 468 306 
" clip-path="url(#p1b53ec1bbe)" style="fill: none; stroke: #000000; stroke-linejoin: miter"/>
   </g>
   <g id="patch_63">
    <path d="M 616.5 270 
Q 616.5 378 616.5 378 
" clip-path="url(#p1b53ec1bbe)" style="fill: none; stroke: #000000; stroke-linejoin: miter"/>
   </g>
   <g id="patch_64">
    <path d="M 468 342 
Q 468 378 468 378 
" clip-path="url(#p1b53ec1bbe)" style="fill: none; stroke: #000000; stroke-linejoin: miter"/>
   </g>
   <g id="patch_65">
    <path d="M 688.5 414 
Q 688.5 450 688.5 450 
" clip-path="url(#p1b53ec1bbe)" style="fill: none; stroke: #000000; stroke-linejoin: miter"/>
   </g>
   <g id="patch_66">
    <path d="M 837 414 
Q 837 522 837 522 
" clip-path="url(#p1b53ec1bbe)" style="fill: none; stroke: #000000; stroke-linejoin: miter"/>
   </g>
   <g id="patch_67">
    <path d="M 688.5 486 
Q 688.5 522 688.5 522 
" clip-path="url(#p1b53ec1bbe)" style="fill: none; stroke: #000000; stroke-linejoin: miter"/>
   </g>
   <g id="patch_68">
    <path d="M 18 162 
L 18 126 
L 54 126 
L 54 162 
z
" clip-path="url(#p1b53ec1bbe)" style="fill: #ffffff; stroke: #000000; stroke-linejoin: miter"/>
   </g>
   <g id="patch_69">
    <path d="M 90 234 
L 90 198 
L 270 198 
L 270 234 
z
" clip-path="url(#p1b53ec1bbe)" style="fill: #ffffff; stroke: #000000; stroke-linejoin: miter"/>
   </g>
   <g id="patch_70">
    <path d="M 306 306 
L 306 270 
L 342 270 
L 342 306 
z
" clip-path="url(#p1b53ec1bbe)" style="fill: #ffffff; stroke: #000000; stroke-linejoin: miter"/>
   </g>
   <g id="patch_71">
    <path d="M 450 54 
L 486 54 
L 468 18 
z
" clip-path="url(#p1b53ec1bbe)" style="fill: #ffffff; stroke: #000000; stroke-linejoin: miter"/>
   </g>
   <g id="patch_72">
    <path d="M 598.5 54 
L 634.5 54 
L 616.5 18 
z
" clip-path="url(#p1b53ec1bbe)" style="fill: #ffffff; stroke: #000000; stroke-linejoin: miter"/>
   </g>
   <g id="patch_73">
    <path d="M 670.5 54 
L 706.5 54 
L 688.5 18 
z
" clip-path="url(#p1b53ec1bbe)" style="fill: #ffffff; stroke: #000000; stroke-linejoin: miter"/>
   </g>
   <g id="patch_74">
    <path d="M 819 54 
L 819 18 
L 859.5 18 
L 859.5 54 
z
" clip-path="url(#p1b53ec1bbe)" style="fill: #ffffff; stroke: #000000; stroke-linejoin: miter"/>
   </g>
   <g id="patch_75">
    <path d="M 598.5 126 
L 598.5 90 
L 634.5 90 
L 634.5 126 
z
" clip-path="url(#p1b53ec1bbe)" style="fill: #ffffff; stroke: #000000; stroke-linejoin: miter"/>
   </g>
   <g id="patch_76">
    <path d="M 670.5 126 
L 670.5 90 
L 706.5 90 
L 706.5 126 
z
" clip-path="url(#p1b53ec1bbe)" style="fill: #ffffff; stroke: #000000; stroke-linejoin: miter"/>
   </g>
   <g id="patch_77">
    <path d="M 688.5 162 
Q 688.5 198 688.5 198 
" clip-path="url(#p1b53ec1bbe)" style="fill: none; stroke: #000000; stroke-linejoin: miter"/>
   </g>
   <g id="PathCollection_1">
    <defs>
     <path id="ma9b8730740" d="M 0 6.549809 
C 1.73703 6.549809 3.403149 5.85968 4.631414 4.631414 
C 5.85968 3.403149 6.549809 1.73703 6.549809 0 
C 6.549809 -1.73703 5.85968 -3.403149 4.631414 -4.631414 
C 3.403149 -5.85968 1.73703 -6.549809 0 -6.549809 
C -1.73703 -6.549809 -3.403149 -5.85968 -4.631414 -4.631414 
C -5.85968 -3.403149 -6.549809 -1.73703 -6.549809 0 
C -6.549809 1.73703 -5.85968 3.403149 -4.631414 4.631414 
C -3.403149 5.85968 -1.73703 6.549809 0 6.549809 
z
" style="stroke: #000000"/>
    </defs>
    <g clip-path="url(#p1b53ec1bbe)">
     <use xlink:href="#ma9b8730740" x="688.5" y="180" style="fill: #ffffff; stroke: #000000"/>
    </g>
   </g>
   <g id="PathCollection_2">
    <defs>
     <path id="m0371c3cb18" d="M -6.549809 0 
L 6.549809 0 
M 0 6.549809 
L 0 -6.549809 
" style="stroke: #000000; stroke-width: 1.5"/>
    </defs>
    <g clip-path="url(#p1b53ec1bbe)">
     <use xlink:href="#m0371c3cb18" x="688.5" y="180" style="stroke: #000000; stroke-width: 1.5"/>
    </g>
   </g>
   <g id="patch_78">
    <path d="M 616.5 162 
Q 616.5 198 616.5 198 
" clip-path="url(#p1b53ec1bbe)" style="fill: none; stroke: #000000; stroke-linejoin: miter"/>
   </g>
   <g id="patch_79">
    <path d="M 616.5 180 
Q 688.5 180 688.5 180 
" clip-path="url(#p1b53ec1bbe)" style="fill: none; stroke: #000000; stroke-linejoin: miter"/>
   </g>
   <g id="PathCollection_3">
    <defs>
     <path id="m53ad4522fd" d="M 0 4.631414 
C 1.228265 4.631414 2.40639 4.143419 3.274905 3.274905 
C 4.143419 2.40639 4.631414 1.228265 4.631414 0 
C 4.631414 -1.228265 4.143419 -2.40639 3.274905 -3.274905 
C 2.40639 -4.143419 1.228265 -4.631414 0 -4.631414 
C -1.228265 -4.631414 -2.40639 -4.143419 -3.274905 -3.274905 
C -4.143419 -2.40639 -4.631414 -1.228265 -4.631414 0 
C -4.631414 1.228265 -4.143419 2.40639 -3.274905 3.274905 
C -2.40639 4.143419 -1.228265 4.631414 0 4.631414 
z
" style="stroke: #000000"/>
    </defs>
    <g clip-path="url(#p1b53ec1bbe)">
     <use xlink:href="#m53ad4522fd" x="616.5" y="180" style="stroke: #000000"/>
    </g>
   </g>
   <g id="patch_80">
    <path d="M 819 198 
L 855 198 
L 837 162 
z
" clip-path="url(#p1b53ec1bbe)" style="fill: #ffffff; stroke: #000000; stroke-linejoin: miter"/>
   </g>
   <g id="patch_81">
    <path d="M 616.5 234 
Q 616.5 270 616.5 270 
" clip-path="url(#p1b53ec1bbe)" style="fill: none; stroke: #000000; stroke-linejoin: miter"/>
   </g>
   <g id="PathCollection_4">
    <g clip-path="url(#p1b53ec1bbe)">
     <use xlink:href="#ma9b8730740" x="616.5" y="252" style="fill: #ffffff; stroke: #000000"/>
    </g>
   </g>
   <g id="PathCollection_5">
    <g clip-path="url(#p1b53ec1bbe)">
     <use xlink:href="#m0371c3cb18" x="616.5" y="252" style="stroke: #000000; stroke-width: 1.5"/>
    </g>
   </g>
   <g id="patch_82">
    <path d="M 468 234 
Q 468 270 468 270 
" clip-path="url(#p1b53ec1bbe)" style="fill: none; stroke: #000000; stroke-linejoin: miter"/>
   </g>
   <g id="patch_83">
    <path d="M 468 252 
Q 616.5 252 616.5 252 
" clip-path="url(#p1b53ec1bbe)" style="fill: none; stroke: #000000; stroke-linejoin: miter"/>
   </g>
   <g id="PathCollection_6">
    <g clip-path="url(#p1b53ec1bbe)">
     <use xlink:href="#m53ad4522fd" x="468" y="252" style="stroke: #000000"/>
    </g>
   </g>
   <g id="patch_84">
    <path d="M 450 342 
L 450 306 
L 486 306 
L 486 342 
z
" clip-path="url(#p1b53ec1bbe)" style="fill: #ffffff; stroke: #000000; stroke-linejoin: miter"/>
   </g>
   <g id="patch_85">
    <path d="M 522 342 
L 522 306 
L 562.5 306 
L 562.5 342 
z
" clip-path="url(#p1b53ec1bbe)" style="fill: #ffffff; stroke: #000000; stroke-linejoin: miter"/>
   </g>
   <g id="patch_86">
    <path d="M 450 378 
L 486 378 
L 468 414 
z
" clip-path="url(#p1b53ec1bbe)" style="fill: #ffffff; stroke: #000000; stroke-linejoin: miter"/>
   </g>
   <g id="patch_87">
    <path d="M 598.5 378 
L 634.5 378 
L 616.5 414 
z
" clip-path="url(#p1b53ec1bbe)" style="fill: #ffffff; stroke: #000000; stroke-linejoin: miter"/>
   </g>
   <g id="patch_88">
    <path d="M 837 378 
Q 837 414 837 414 
" clip-path="url(#p1b53ec1bbe)" style="fill: none; stroke: #000000; stroke-linejoin: miter"/>
   </g>
   <g id="PathCollection_7">
    <g clip-path="url(#p1b53ec1bbe)">
     <use xlink:href="#ma9b8730740" x="837" y="396" style="fill: #ffffff; stroke: #000000"/>
    </g>
   </g>
   <g id="PathCollection_8">
    <g clip-path="url(#p1b53ec1bbe)">
     <use xlink:href="#m0371c3cb18" x="837" y="396" style="stroke: #000000; stroke-width: 1.5"/>
    </g>
   </g>
   <g id="patch_89">
    <path d="M 688.5 378 
Q 688.5 414 688.5 414 
" clip-path="url(#p1b53ec1bbe)" style="fill: none; stroke: #000000; stroke-linejoin: miter"/>
   </g>
   <g id="patch_90">
    <path d="M 688.5 396 
Q 837 396 837 396 
" clip-path="url(#p1b53ec1bbe)" style="fill: none; stroke: #000000; stroke-linejoin: miter"/>
   </g>
   <g id="PathCollection_9">
    <g clip-path="url(#p1b53ec1bbe)">
     <use xlink:href="#m53ad4522fd" x="688.5" y="396" style="stroke: #000000"/>
    </g>
   </g>
   <g id="patch_91">
    <path d="M 670.5 486 
L 670.5 450 
L 706.5 450 
L 706.5 486 
z
" clip-path="url(#p1b53ec1bbe)" style="fill: #ffffff; stroke: #000000; stroke-linejoin: miter"/>
   </g>
   <g id="patch_92">
    <path d="M 742.5 486 
L 742.5 450 
L 783 450 
L 783 486 
z
" clip-path="url(#p1b53ec1bbe)" style="fill: #ffffff; stroke: #000000; stroke-linejoin: miter"/>
   </g>
   <g id="patch_93">
    <path d="M 670.5 522 
L 706.5 522 
L 688.5 558 
z
" clip-path="url(#p1b53ec1bbe)" style="fill: #ffffff; stroke: #000000; stroke-linejoin: miter"/>
   </g>
   <g id="patch_94">
    <path d="M 819 522 
L 855 522 
L 837 558 
z
" clip-path="url(#p1b53ec1bbe)" style="fill: #ffffff; stroke: #000000; stroke-linejoin: miter"/>
   </g>
   <g id="PathCollection_10">
    <defs>
     <path id="m81a9d38fee" d="M 0 4.631414 
C 1.228265 4.631414 2.40639 4.143419 3.274905 3.274905 
C 4.143419 2.40639 4.631414 1.228265 4.631414 0 
C 4.631414 -1.228265 4.143419 -2.40639 3.274905 -3.274905 
C 2.40639 -4.143419 1.228265 -4.631414 0 -4.631414 
C -1.228265 -4.631414 -2.40639 -4.143419 -3.274905 -3.274905 
C -4.143419 -2.40639 -4.631414 -1.228265 -4.631414 0 
C -4.631414 1.228265 -4.143419 2.40639 -3.274905 3.274905 
C -2.40639 4.143419 -1.228265 4.631414 0 4.631414 
z
" style="stroke: #ffffff"/>
    </defs>
    <g clip-path="url(#p1b53ec1bbe)">
     <use xlink:href="#m81a9d38fee" x="396" y="288" style="fill: #ffffff; stroke: #ffffff"/>
    </g>
   </g>
   <g id="text_1">
    <!-- n -->
    <g transform="translate(40.5 174.098437) scale(0.1 -0.1)">
     <defs>
      <path id="DejaVuSans-6e" d="M 3513 2113 
L 3513 0 
L 2938 0 
L 2938 2094 
Q 2938 2591 2744 2837 
Q 2550 3084 2163 3084 
Q 1697 3084 1428 2787 
Q 1159 2491 1159 1978 
L 1159 0 
L 581 0 
L 581 3500 
L 1159 3500 
L 1159 2956 
Q 1366 3272 1645 3428 
Q 1925 3584 2291 3584 
Q 2894 3584 3203 3211 
Q 3513 2838 3513 2113 
z
" transform="scale(0.015625)"/>
     </defs>
     <use xlink:href="#DejaVuSans-6e"/>
    </g>
   </g>
   <g id="text_2">
    <!-- n.r -->
    <g transform="translate(112.5 246.098437) scale(0.1 -0.1)">
     <defs>
      <path id="DejaVuSans-2e" d="M 684 794 
L 1344 794 
L 1344 0 
L 684 0 
L 684 794 
z
" transform="scale(0.015625)"/>
      <path id="DejaVuSans-72" d="M 2631 2963 
Q 2534 3019 2420 3045 
Q 2306 3072 2169 3072 
Q 1681 3072 1420 2755 
Q 1159 2438 1159 1844 
L 1159 0 
L 581 0 
L 581 3500 
L 1159 3500 
L 1159 2956 
Q 1341 3275 1631 3429 
Q 1922 3584 2338 3584 
Q 2397 3584 2469 3576 
Q 2541 3569 2628 3553 
L 2631 2963 
z
" transform="scale(0.015625)"/>
     </defs>
     <use xlink:href="#DejaVuSans-6e"/>
     <use xlink:href="#DejaVuSans-2e" transform="translate(63.378906 0)"/>
     <use xlink:href="#DejaVuSans-72" transform="translate(95.166016 0)"/>
    </g>
   </g>
   <g id="text_3">
    <!-- s -->
    <g transform="translate(184.5 246.098437) scale(0.1 -0.1)">
     <defs>
      <path id="DejaVuSans-73" d="M 2834 3397 
L 2834 2853 
Q 2591 2978 2328 3040 
Q 2066 3103 1784 3103 
Q 1356 3103 1142 2972 
Q 928 2841 928 2578 
Q 928 2378 1081 2264 
Q 1234 2150 1697 2047 
L 1894 2003 
Q 2506 1872 2764 1633 
Q 3022 1394 3022 966 
Q 3022 478 2636 193 
Q 2250 -91 1575 -91 
Q 1294 -91 989 -36 
Q 684 19 347 128 
L 347 722 
Q 666 556 975 473 
Q 1284 391 1588 391 
Q 1994 391 2212 530 
Q 2431 669 2431 922 
Q 2431 1156 2273 1281 
Q 2116 1406 1581 1522 
L 1381 1569 
Q 847 1681 609 1914 
Q 372 2147 372 2553 
Q 372 3047 722 3315 
Q 1072 3584 1716 3584 
Q 2034 3584 2315 3537 
Q 2597 3491 2834 3397 
z
" transform="scale(0.015625)"/>
     </defs>
     <use xlink:href="#DejaVuSans-73"/>
    </g>
   </g>
   <g id="text_4">
    <!-- n.l -->
    <g transform="translate(256.5 246.098437) scale(0.1 -0.1)">
     <defs>
      <path id="DejaVuSans-6c" d="M 603 4863 
L 1178 4863 
L 1178 0 
L 603 0 
L 603 4863 
z
" transform="scale(0.015625)"/>
     </defs>
     <use xlink:href="#DejaVuSans-6e"/>
     <use xlink:href="#DejaVuSans-2e" transform="translate(63.378906 0)"/>
     <use xlink:href="#DejaVuSans-6c" transform="translate(95.166016 0)"/>
    </g>
   </g>
   <g id="text_5">
    <!-- n -->
    <g transform="translate(328.5 318.098437) scale(0.1 -0.1)">
     <use xlink:href="#DejaVuSans-6e"/>
    </g>
   </g>
   <g id="text_6">
    <!-- qubit -->
    <g transform="translate(472.5 66.098437) scale(0.1 -0.1)">
     <defs>
      <path id="DejaVuSans-71" d="M 947 1747 
Q 947 1113 1208 752 
Q 1469 391 1925 391 
Q 2381 391 2643 752 
Q 2906 1113 2906 1747 
Q 2906 2381 2643 2742 
Q 2381 3103 1925 3103 
Q 1469 3103 1208 2742 
Q 947 2381 947 1747 
z
M 2906 525 
Q 2725 213 2448 61 
Q 2172 -91 1784 -91 
Q 1150 -91 751 415 
Q 353 922 353 1747 
Q 353 2572 751 3078 
Q 1150 3584 1784 3584 
Q 2172 3584 2448 3432 
Q 2725 3281 2906 2969 
L 2906 3500 
L 3481 3500 
L 3481 -1331 
L 2906 -1331 
L 2906 525 
z
" transform="scale(0.015625)"/>
      <path id="DejaVuSans-75" d="M 544 1381 
L 544 3500 
L 1119 3500 
L 1119 1403 
Q 1119 906 1312 657 
Q 1506 409 1894 409 
Q 2359 409 2629 706 
Q 2900 1003 2900 1516 
L 2900 3500 
L 3475 3500 
L 3475 0 
L 2900 0 
L 2900 538 
Q 2691 219 2414 64 
Q 2138 -91 1772 -91 
Q 1169 -91 856 284 
Q 544 659 544 1381 
z
M 1991 3584 
L 1991 3584 
z
" transform="scale(0.015625)"/>
      <path id="DejaVuSans-62" d="M 3116 1747 
Q 3116 2381 2855 2742 
Q 2594 3103 2138 3103 
Q 1681 3103 1420 2742 
Q 1159 2381 1159 1747 
Q 1159 1113 1420 752 
Q 1681 391 2138 391 
Q 2594 391 2855 752 
Q 3116 1113 3116 1747 
z
M 1159 2969 
Q 1341 3281 1617 3432 
Q 1894 3584 2278 3584 
Q 2916 3584 3314 3078 
Q 3713 2572 3713 1747 
Q 3713 922 3314 415 
Q 2916 -91 2278 -91 
Q 1894 -91 1617 61 
Q 1341 213 1159 525 
L 1159 0 
L 581 0 
L 581 4863 
L 1159 4863 
L 1159 2969 
z
" transform="scale(0.015625)"/>
      <path id="DejaVuSans-69" d="M 603 3500 
L 1178 3500 
L 1178 0 
L 603 0 
L 603 3500 
z
M 603 4863 
L 1178 4863 
L 1178 4134 
L 603 4134 
L 603 4863 
z
" transform="scale(0.015625)"/>
      <path id="DejaVuSans-74" d="M 1172 4494 
L 1172 3500 
L 2356 3500 
L 2356 3053 
L 1172 3053 
L 1172 1153 
Q 1172 725 1289 603 
Q 1406 481 1766 481 
L 2356 481 
L 2356 0 
L 1766 0 
Q 1100 0 847 248 
Q 594 497 594 1153 
L 594 3053 
L 172 3053 
L 172 3500 
L 594 3500 
L 594 4494 
L 1172 4494 
z
" transform="scale(0.015625)"/>
     </defs>
     <use xlink:href="#DejaVuSans-71"/>
     <use xlink:href="#DejaVuSans-75" transform="translate(63.476562 0)"/>
     <use xlink:href="#DejaVuSans-62" transform="translate(126.855469 0)"/>
     <use xlink:href="#DejaVuSans-69" transform="translate(190.332031 0)"/>
     <use xlink:href="#DejaVuSans-74" transform="translate(218.115234 0)"/>
    </g>
   </g>
   <g id="text_7">
    <!-- qubit -->
    <g transform="translate(621 66.098437) scale(0.1 -0.1)">
     <use xlink:href="#DejaVuSans-71"/>
     <use xlink:href="#DejaVuSans-75" transform="translate(63.476562 0)"/>
     <use xlink:href="#DejaVuSans-62" transform="translate(126.855469 0)"/>
     <use xlink:href="#DejaVuSans-69" transform="translate(190.332031 0)"/>
     <use xlink:href="#DejaVuSans-74" transform="translate(218.115234 0)"/>
    </g>
   </g>
   <g id="text_8">
    <!-- qubit -->
    <g transform="translate(693 66.098437) scale(0.1 -0.1)">
     <use xlink:href="#DejaVuSans-71"/>
     <use xlink:href="#DejaVuSans-75" transform="translate(63.476562 0)"/>
     <use xlink:href="#DejaVuSans-62" transform="translate(126.855469 0)"/>
     <use xlink:href="#DejaVuSans-69" transform="translate(190.332031 0)"/>
     <use xlink:href="#DejaVuSans-74" transform="translate(218.115234 0)"/>
    </g>
   </g>
   <g id="text_9">
    <!-- qubit -->
    <g transform="translate(621 138.098437) scale(0.1 -0.1)">
     <use xlink:href="#DejaVuSans-71"/>
     <use xlink:href="#DejaVuSans-75" transform="translate(63.476562 0)"/>
     <use xlink:href="#DejaVuSans-62" transform="translate(126.855469 0)"/>
     <use xlink:href="#DejaVuSans-69" transform="translate(190.332031 0)"/>
     <use xlink:href="#DejaVuSans-74" transform="translate(218.115234 0)"/>
    </g>
   </g>
   <g id="text_10">
    <!-- qubit -->
    <g transform="translate(693 138.098437) scale(0.1 -0.1)">
     <use xlink:href="#DejaVuSans-71"/>
     <use xlink:href="#DejaVuSans-75" transform="translate(63.476562 0)"/>
     <use xlink:href="#DejaVuSans-62" transform="translate(126.855469 0)"/>
     <use xlink:href="#DejaVuSans-69" transform="translate(190.332031 0)"/>
     <use xlink:href="#DejaVuSans-74" transform="translate(218.115234 0)"/>
    </g>
   </g>
   <g id="text_11">
    <!-- qubit -->
    <g transform="translate(621 210.098437) scale(0.1 -0.1)">
     <use xlink:href="#DejaVuSans-71"/>
     <use xlink:href="#DejaVuSans-75" transform="translate(63.476562 0)"/>
     <use xlink:href="#DejaVuSans-62" transform="translate(126.855469 0)"/>
     <use xlink:href="#DejaVuSans-69" transform="translate(190.332031 0)"/>
     <use xlink:href="#DejaVuSans-74" transform="translate(218.115234 0)"/>
    </g>
   </g>
   <g id="text_12">
    <!-- qubit -->
    <g transform="translate(693 210.098437) scale(0.1 -0.1)">
     <use xlink:href="#DejaVuSans-71"/>
     <use xlink:href="#DejaVuSans-75" transform="translate(63.476562 0)"/>
     <use xlink:href="#DejaVuSans-62" transform="translate(126.855469 0)"/>
     <use xlink:href="#DejaVuSans-69" transform="translate(190.332031 0)"/>
     <use xlink:href="#DejaVuSans-74" transform="translate(218.115234 0)"/>
    </g>
   </g>
   <g id="text_13">
    <!-- qubit -->
    <g transform="translate(841.5 210.098437) scale(0.1 -0.1)">
     <use xlink:href="#DejaVuSans-71"/>
     <use xlink:href="#DejaVuSans-75" transform="translate(63.476562 0)"/>
     <use xlink:href="#DejaVuSans-62" transform="translate(126.855469 0)"/>
     <use xlink:href="#DejaVuSans-69" transform="translate(190.332031 0)"/>
     <use xlink:href="#DejaVuSans-74" transform="translate(218.115234 0)"/>
    </g>
   </g>
   <g id="text_14">
    <!-- qubit -->
    <g transform="translate(472.5 282.098437) scale(0.1 -0.1)">
     <use xlink:href="#DejaVuSans-71"/>
     <use xlink:href="#DejaVuSans-75" transform="translate(63.476562 0)"/>
     <use xlink:href="#DejaVuSans-62" transform="translate(126.855469 0)"/>
     <use xlink:href="#DejaVuSans-69" transform="translate(190.332031 0)"/>
     <use xlink:href="#DejaVuSans-74" transform="translate(218.115234 0)"/>
    </g>
   </g>
   <g id="text_15">
    <!-- qubit -->
    <g transform="translate(621 282.098437) scale(0.1 -0.1)">
     <use xlink:href="#DejaVuSans-71"/>
     <use xlink:href="#DejaVuSans-75" transform="translate(63.476562 0)"/>
     <use xlink:href="#DejaVuSans-62" transform="translate(126.855469 0)"/>
     <use xlink:href="#DejaVuSans-69" transform="translate(190.332031 0)"/>
     <use xlink:href="#DejaVuSans-74" transform="translate(218.115234 0)"/>
    </g>
   </g>
   <g id="text_16">
    <!-- qubit -->
    <g transform="translate(472.5 354.098437) scale(0.1 -0.1)">
     <use xlink:href="#DejaVuSans-71"/>
     <use xlink:href="#DejaVuSans-75" transform="translate(63.476562 0)"/>
     <use xlink:href="#DejaVuSans-62" transform="translate(126.855469 0)"/>
     <use xlink:href="#DejaVuSans-69" transform="translate(190.332031 0)"/>
     <use xlink:href="#DejaVuSans-74" transform="translate(218.115234 0)"/>
    </g>
   </g>
   <g id="text_17">
    <!-- qubit -->
    <g transform="translate(693 426.098437) scale(0.1 -0.1)">
     <use xlink:href="#DejaVuSans-71"/>
     <use xlink:href="#DejaVuSans-75" transform="translate(63.476562 0)"/>
     <use xlink:href="#DejaVuSans-62" transform="translate(126.855469 0)"/>
     <use xlink:href="#DejaVuSans-69" transform="translate(190.332031 0)"/>
     <use xlink:href="#DejaVuSans-74" transform="translate(218.115234 0)"/>
    </g>
   </g>
   <g id="text_18">
    <!-- qubit -->
    <g transform="translate(841.5 426.098437) scale(0.1 -0.1)">
     <use xlink:href="#DejaVuSans-71"/>
     <use xlink:href="#DejaVuSans-75" transform="translate(63.476562 0)"/>
     <use xlink:href="#DejaVuSans-62" transform="translate(126.855469 0)"/>
     <use xlink:href="#DejaVuSans-69" transform="translate(190.332031 0)"/>
     <use xlink:href="#DejaVuSans-74" transform="translate(218.115234 0)"/>
    </g>
   </g>
   <g id="text_19">
    <!-- qubit -->
    <g transform="translate(693 498.098437) scale(0.1 -0.1)">
     <use xlink:href="#DejaVuSans-71"/>
     <use xlink:href="#DejaVuSans-75" transform="translate(63.476562 0)"/>
     <use xlink:href="#DejaVuSans-62" transform="translate(126.855469 0)"/>
     <use xlink:href="#DejaVuSans-69" transform="translate(190.332031 0)"/>
     <use xlink:href="#DejaVuSans-74" transform="translate(218.115234 0)"/>
    </g>
   </g>
   <g id="text_20">
    <!-- Alice -->
    <g transform="translate(23.975781 146.759375) scale(0.1 -0.1)">
     <defs>
      <path id="DejaVuSans-41" d="M 2188 4044 
L 1331 1722 
L 3047 1722 
L 2188 4044 
z
M 1831 4666 
L 2547 4666 
L 4325 0 
L 3669 0 
L 3244 1197 
L 1141 1197 
L 716 0 
L 50 0 
L 1831 4666 
z
" transform="scale(0.015625)"/>
      <path id="DejaVuSans-63" d="M 3122 3366 
L 3122 2828 
Q 2878 2963 2633 3030 
Q 2388 3097 2138 3097 
Q 1578 3097 1268 2742 
Q 959 2388 959 1747 
Q 959 1106 1268 751 
Q 1578 397 2138 397 
Q 2388 397 2633 464 
Q 2878 531 3122 666 
L 3122 134 
Q 2881 22 2623 -34 
Q 2366 -91 2075 -91 
Q 1284 -91 818 406 
Q 353 903 353 1747 
Q 353 2603 823 3093 
Q 1294 3584 2113 3584 
Q 2378 3584 2631 3529 
Q 2884 3475 3122 3366 
z
" transform="scale(0.015625)"/>
      <path id="DejaVuSans-65" d="M 3597 1894 
L 3597 1613 
L 953 1613 
Q 991 1019 1311 708 
Q 1631 397 2203 397 
Q 2534 397 2845 478 
Q 3156 559 3463 722 
L 3463 178 
Q 3153 47 2828 -22 
Q 2503 -91 2169 -91 
Q 1331 -91 842 396 
Q 353 884 353 1716 
Q 353 2575 817 3079 
Q 1281 3584 2069 3584 
Q 2775 3584 3186 3129 
Q 3597 2675 3597 1894 
z
M 3022 2063 
Q 3016 2534 2758 2815 
Q 2500 3097 2075 3097 
Q 1594 3097 1305 2825 
Q 1016 2553 972 2059 
L 3022 2063 
z
" transform="scale(0.015625)"/>
     </defs>
     <use xlink:href="#DejaVuSans-41"/>
     <use xlink:href="#DejaVuSans-6c" transform="translate(68.408203 0)"/>
     <use xlink:href="#DejaVuSans-69" transform="translate(96.191406 0)"/>
     <use xlink:href="#DejaVuSans-63" transform="translate(123.974609 0)"/>
     <use xlink:href="#DejaVuSans-65" transform="translate(178.955078 0)"/>
    </g>
   </g>
   <g id="text_21">
    <!-- loves -->
    <g transform="translate(166.910937 218.759375) scale(0.1 -0.1)">
     <defs>
      <path id="DejaVuSans-6f" d="M 1959 3097 
Q 1497 3097 1228 2736 
Q 959 2375 959 1747 
Q 959 1119 1226 758 
Q 1494 397 1959 397 
Q 2419 397 2687 759 
Q 2956 1122 2956 1747 
Q 2956 2369 2687 2733 
Q 2419 3097 1959 3097 
z
M 1959 3584 
Q 2709 3584 3137 3096 
Q 3566 2609 3566 1747 
Q 3566 888 3137 398 
Q 2709 -91 1959 -91 
Q 1206 -91 779 398 
Q 353 888 353 1747 
Q 353 2609 779 3096 
Q 1206 3584 1959 3584 
z
" transform="scale(0.015625)"/>
      <path id="DejaVuSans-76" d="M 191 3500 
L 800 3500 
L 1894 563 
L 2988 3500 
L 3597 3500 
L 2284 0 
L 1503 0 
L 191 3500 
z
" transform="scale(0.015625)"/>
     </defs>
     <use xlink:href="#DejaVuSans-6c"/>
     <use xlink:href="#DejaVuSans-6f" transform="translate(27.783203 0)"/>
     <use xlink:href="#DejaVuSans-76" transform="translate(88.964844 0)"/>
     <use xlink:href="#DejaVuSans-65" transform="translate(148.144531 0)"/>
     <use xlink:href="#DejaVuSans-73" transform="translate(209.667969 0)"/>
    </g>
   </g>
   <g id="text_22">
    <!-- Bob -->
    <g transform="translate(314.335938 290.759375) scale(0.1 -0.1)">
     <defs>
      <path id="DejaVuSans-42" d="M 1259 2228 
L 1259 519 
L 2272 519 
Q 2781 519 3026 730 
Q 3272 941 3272 1375 
Q 3272 1813 3026 2020 
Q 2781 2228 2272 2228 
L 1259 2228 
z
M 1259 4147 
L 1259 2741 
L 2194 2741 
Q 2656 2741 2882 2914 
Q 3109 3088 3109 3444 
Q 3109 3797 2882 3972 
Q 2656 4147 2194 4147 
L 1259 4147 
z
M 628 4666 
L 2241 4666 
Q 2963 4666 3353 4366 
Q 3744 4066 3744 3513 
Q 3744 3084 3544 2831 
Q 3344 2578 2956 2516 
Q 3422 2416 3680 2098 
Q 3938 1781 3938 1306 
Q 3938 681 3513 340 
Q 3088 0 2303 0 
L 628 0 
L 628 4666 
z
" transform="scale(0.015625)"/>
     </defs>
     <use xlink:href="#DejaVuSans-42"/>
     <use xlink:href="#DejaVuSans-6f" transform="translate(68.603516 0)"/>
     <use xlink:href="#DejaVuSans-62" transform="translate(129.785156 0)"/>
    </g>
   </g>
   <g id="text_23">
    <!-- 0 -->
    <g transform="translate(464.81875 42.359375) scale(0.1 -0.1)">
     <defs>
      <path id="DejaVuSans-30" d="M 2034 4250 
Q 1547 4250 1301 3770 
Q 1056 3291 1056 2328 
Q 1056 1369 1301 889 
Q 1547 409 2034 409 
Q 2525 409 2770 889 
Q 3016 1369 3016 2328 
Q 3016 3291 2770 3770 
Q 2525 4250 2034 4250 
z
M 2034 4750 
Q 2819 4750 3233 4129 
Q 3647 3509 3647 2328 
Q 3647 1150 3233 529 
Q 2819 -91 2034 -91 
Q 1250 -91 836 529 
Q 422 1150 422 2328 
Q 422 3509 836 4129 
Q 1250 4750 2034 4750 
z
" transform="scale(0.015625)"/>
     </defs>
     <use xlink:href="#DejaVuSans-30"/>
    </g>
   </g>
   <g id="text_24">
    <!-- 0 -->
    <g transform="translate(613.31875 42.359375) scale(0.1 -0.1)">
     <use xlink:href="#DejaVuSans-30"/>
    </g>
   </g>
   <g id="text_25">
    <!-- 0 -->
    <g transform="translate(685.31875 42.359375) scale(0.1 -0.1)">
     <use xlink:href="#DejaVuSans-30"/>
    </g>
   </g>
   <g id="text_26">
    <!-- sqrt(2) -->
    <g transform="translate(822.372656 38.759375) scale(0.1 -0.1)">
     <defs>
      <path id="DejaVuSans-28" d="M 1984 4856 
Q 1566 4138 1362 3434 
Q 1159 2731 1159 2009 
Q 1159 1288 1364 580 
Q 1569 -128 1984 -844 
L 1484 -844 
Q 1016 -109 783 600 
Q 550 1309 550 2009 
Q 550 2706 781 3412 
Q 1013 4119 1484 4856 
L 1984 4856 
z
" transform="scale(0.015625)"/>
      <path id="DejaVuSans-32" d="M 1228 531 
L 3431 531 
L 3431 0 
L 469 0 
L 469 531 
Q 828 903 1448 1529 
Q 2069 2156 2228 2338 
Q 2531 2678 2651 2914 
Q 2772 3150 2772 3378 
Q 2772 3750 2511 3984 
Q 2250 4219 1831 4219 
Q 1534 4219 1204 4116 
Q 875 4013 500 3803 
L 500 4441 
Q 881 4594 1212 4672 
Q 1544 4750 1819 4750 
Q 2544 4750 2975 4387 
Q 3406 4025 3406 3419 
Q 3406 3131 3298 2873 
Q 3191 2616 2906 2266 
Q 2828 2175 2409 1742 
Q 1991 1309 1228 531 
z
" transform="scale(0.015625)"/>
      <path id="DejaVuSans-29" d="M 513 4856 
L 1013 4856 
Q 1481 4119 1714 3412 
Q 1947 2706 1947 2009 
Q 1947 1309 1714 600 
Q 1481 -109 1013 -844 
L 513 -844 
Q 928 -128 1133 580 
Q 1338 1288 1338 2009 
Q 1338 2731 1133 3434 
Q 928 4138 513 4856 
z
" transform="scale(0.015625)"/>
     </defs>
     <use xlink:href="#DejaVuSans-73"/>
     <use xlink:href="#DejaVuSans-71" transform="translate(52.099609 0)"/>
     <use xlink:href="#DejaVuSans-72" transform="translate(115.576172 0)"/>
     <use xlink:href="#DejaVuSans-74" transform="translate(156.689453 0)"/>
     <use xlink:href="#DejaVuSans-28" transform="translate(195.898438 0)"/>
     <use xlink:href="#DejaVuSans-32" transform="translate(234.912109 0)"/>
     <use xlink:href="#DejaVuSans-29" transform="translate(298.535156 0)"/>
    </g>
   </g>
   <g id="text_27">
    <!-- H -->
    <g transform="translate(612.739844 110.759375) scale(0.1 -0.1)">
     <defs>
      <path id="DejaVuSans-48" d="M 628 4666 
L 1259 4666 
L 1259 2753 
L 3553 2753 
L 3553 4666 
L 4184 4666 
L 4184 0 
L 3553 0 
L 3553 2222 
L 1259 2222 
L 1259 0 
L 628 0 
L 628 4666 
z
" transform="scale(0.015625)"/>
     </defs>
     <use xlink:href="#DejaVuSans-48"/>
    </g>
   </g>
   <g id="text_28">
    <!-- X -->
    <g transform="translate(685.075 110.759375) scale(0.1 -0.1)">
     <defs>
      <path id="DejaVuSans-58" d="M 403 4666 
L 1081 4666 
L 2241 2931 
L 3406 4666 
L 4084 4666 
L 2584 2425 
L 4184 0 
L 3506 0 
L 2194 1984 
L 872 0 
L 191 0 
L 1856 2491 
L 403 4666 
z
" transform="scale(0.015625)"/>
     </defs>
     <use xlink:href="#DejaVuSans-58"/>
    </g>
   </g>
   <g id="text_29">
    <!-- 1 -->
    <g transform="translate(833.81875 186.359375) scale(0.1 -0.1)">
     <defs>
      <path id="DejaVuSans-31" d="M 794 531 
L 1825 531 
L 1825 4091 
L 703 3866 
L 703 4441 
L 1819 4666 
L 2450 4666 
L 2450 531 
L 3481 531 
L 3481 0 
L 794 0 
L 794 531 
z
" transform="scale(0.015625)"/>
     </defs>
     <use xlink:href="#DejaVuSans-31"/>
    </g>
   </g>
   <g id="text_30">
    <!-- H -->
    <g transform="translate(464.239844 326.759375) scale(0.1 -0.1)">
     <use xlink:href="#DejaVuSans-48"/>
    </g>
   </g>
   <g id="text_31">
    <!-- sqrt(2) -->
    <g transform="translate(525.372656 326.759375) scale(0.1 -0.1)">
     <use xlink:href="#DejaVuSans-73"/>
     <use xlink:href="#DejaVuSans-71" transform="translate(52.099609 0)"/>
     <use xlink:href="#DejaVuSans-72" transform="translate(115.576172 0)"/>
     <use xlink:href="#DejaVuSans-74" transform="translate(156.689453 0)"/>
     <use xlink:href="#DejaVuSans-28" transform="translate(195.898438 0)"/>
     <use xlink:href="#DejaVuSans-32" transform="translate(234.912109 0)"/>
     <use xlink:href="#DejaVuSans-29" transform="translate(298.535156 0)"/>
    </g>
   </g>
   <g id="text_32">
    <!-- 0 -->
    <g transform="translate(464.81875 398.759375) scale(0.1 -0.1)">
     <use xlink:href="#DejaVuSans-30"/>
    </g>
   </g>
   <g id="text_33">
    <!-- 0 -->
    <g transform="translate(613.31875 398.759375) scale(0.1 -0.1)">
     <use xlink:href="#DejaVuSans-30"/>
    </g>
   </g>
   <g id="text_34">
    <!-- H -->
    <g transform="translate(684.739844 470.759375) scale(0.1 -0.1)">
     <use xlink:href="#DejaVuSans-48"/>
    </g>
   </g>
   <g id="text_35">
    <!-- sqrt(2) -->
    <g transform="translate(745.872656 470.759375) scale(0.1 -0.1)">
     <use xlink:href="#DejaVuSans-73"/>
     <use xlink:href="#DejaVuSans-71" transform="translate(52.099609 0)"/>
     <use xlink:href="#DejaVuSans-72" transform="translate(115.576172 0)"/>
     <use xlink:href="#DejaVuSans-74" transform="translate(156.689453 0)"/>
     <use xlink:href="#DejaVuSans-28" transform="translate(195.898438 0)"/>
     <use xlink:href="#DejaVuSans-32" transform="translate(234.912109 0)"/>
     <use xlink:href="#DejaVuSans-29" transform="translate(298.535156 0)"/>
    </g>
   </g>
   <g id="text_36">
    <!-- 0 -->
    <g transform="translate(685.31875 542.759375) scale(0.1 -0.1)">
     <use xlink:href="#DejaVuSans-30"/>
    </g>
   </g>
   <g id="text_37">
    <!-- 0 -->
    <g transform="translate(833.81875 542.759375) scale(0.1 -0.1)">
     <use xlink:href="#DejaVuSans-30"/>
    </g>
   </g>
   <g id="text_38">
    <g clip-path="url(#p1b53ec1bbe)">
     <!-- $\mapsto$ -->
     <g transform="translate(388.62 291.31125) scale(0.12 -0.12)">
      <defs>
       <path id="DejaVuSans-21a6" d="M 4175 1741 
L 897 1741 
L 897 663 
L 366 663 
L 366 3350 
L 897 3350 
L 897 2272 
L 4175 2272 
L 3447 3000 
L 3822 3375 
L 5050 2147 
L 5050 1866 
L 3822 638 
L 3447 1013 
L 4175 1741 
z
" transform="scale(0.015625)"/>
      </defs>
      <use xlink:href="#DejaVuSans-21a6" transform="translate(19.482422 0.265625)"/>
     </g>
    </g>
   </g>
  </g>
 </g>
 <defs>
  <clipPath id="p1b53ec1bbe">
   <rect x="0" y="0" width="877.5" height="576"/>
  </clipPath>
 </defs>
</svg>
