<?xml version="1.0" encoding="utf-8" standalone="no"?>
<!DOCTYPE svg PUBLIC "-//W3C//DTD SVG 1.1//EN"
  "http://www.w3.org/Graphics/SVG/1.1/DTD/svg11.dtd">
<svg xmlns:xlink="http://www.w3.org/1999/xlink" width="504pt" height="144pt" viewBox="0 0 504 144" xmlns="http://www.w3.org/2000/svg" version="1.1">
 <metadata>
  <rdf:RDF xmlns:dc="http://purl.org/dc/elements/1.1/" xmlns:cc="http://creativecommons.org/ns#" xmlns:rdf="http://www.w3.org/1999/02/22-rdf-syntax-ns#">
   <cc:Work>
    <dc:type rdf:resource="http://purl.org/dc/dcmitype/StillImage"/>
    <dc:format>image/svg+xml</dc:format>
    <dc:creator>
     <cc:Agent>
      <dc:title>Matplotlib v3.10.9, https://matplotlib.org/</dc:title>
     </cc:Agent>
    </dc:creator>
   </cc:Work>
  </rdf:RDF>
 </metadata>
 <defs>
  <style type="text/css">*{stroke-linejoin: round; stroke-linecap: butt}</style>
 </defs>
 <g id="figure_1">
  <g id="patch_1">
   <path d="M 0 144 
L 504 144 
L 504 0 
L 0 0 
z
" style="fill: #ffffff"/>
  </g>
  <g id="axes_1">
   <g id="patch_2">
    <path d="M 0 144 
L 504 144 
L 504 0 
L 0 0 
z
" clip-path="url(#pc54e416c2c)" style="fill: #ffffff; stroke: #ffffff; stroke-linejoin: miter"/>
   </g>
   <g id="patch_3">
    <path d="M 0 144 
Q 0 0 0 0 
L 504 0 
L 504 144 
z
" clip-path="url(#pc54e416c2c)" style="fill: #ffffff"/>
   </g>
   <g id="patch_4">
    <path d="M 36 72 
Q 36 144 36 144 
L 504 144 
L 504 72 
z
" clip-path="url(#pc54e416c2c)" style="fill: #ffffff"/>
   </g>
   <g id="patch_5">
    <path d="M 72 36 
Q 36 36 36 72 
L 504 72 
L 504 36 
z
" clip-path="url(#pc54e416c2c)" style="fill: #ffffff"/>
   </g>
   <g id="patch_6">
    <path d="M 36 0 
Q 36 36 72 36 
L 504 36 
L 504 0 
z
" clip-path="url(#pc54e416c2c)" style="fill: #ffffff"/>
   </g>
   <g id="patch_7">
    <path d="M 72 36 
Q 108 36 108 72 
L 504 72 
L 504 36 
z
" clip-path="url(#pc54e416c2c)" style="fill: #ffffff"/>
   </g>
   <g id="patch_8">
    <path d="M 108 0 
Q 108 36 72 36 
L 504 36 
L 504 0 
z
" clip-path="url(#pc54e416c2c)" style="fill: #ffffff"/>
   </g>
   <g id="patch_9">
    <path d="M 144 108 
Q 108 108 108 144 
L 504 144 
L 504 108 
z
" clip-path="url(#pc54e416c2c)" style="fill: #ffffff"/>
   </g>
   <g id="patch_10">
    <path d="M 108 72 
Q 108 108 144 108 
L 504 108 
L 504 72 
z
" clip-path="url(#pc54e416c2c)" style="fill: #ffffff"/>
   </g>
   <g id="patch_11">
    <path d="M 144 108 
Q 180 108 180 144 
L 504 144 
L 504 108 
z
" clip-path="url(#pc54e416c2c)" style="fill: #ffffff"/>
   </g>
   <g id="patch_12">
    <path d="M 180 72 
Q 180 108 144 108 
L 504 108 
L 504 72 
z
" clip-path="url(#pc54e416c2c)" style="fill: #ffffff"/>
   </g>
   <g id="patch_13">
    <path d="M 180 0 
Q 180 72 180 72 
L 504 72 
L 504 0 
z
" clip-path="url(#pc54e416c2c)" style="fill: #ffffff"/>
   </g>
   <g id="patch_14">
    <path d="M 324 0 
Q 324 72 324 72 
L 504 72 
L 504 0 
z
" clip-path="url(#pc54e416c2c)" style="fill: #ffffff"/>
   </g>
   <g id="patch_15">
    <path d="M 360 108 
Q 324 108 324 144 
L 504 144 
L 504 108 
z
" clip-path="url(#pc54e416c2c)" style="fill: #ffffff"/>
   </g>
   <g id="patch_16">
    <path d="M 324 72 
Q 324 108 360 108 
L 504 108 
L 504 72 
z
" clip-path="url(#pc54e416c2c)" style="fill: #ffffff"/>
   </g>
   <g id="patch_17">
    <path d="M 360 108 
Q 396 108 396 144 
L 504 144 
L 504 108 
z
" clip-path="url(#pc54e416c2c)" style="fill: #ffffff"/>
   </g>
   <g id="patch_18">
    <path d="M 396 72 
Q 396 108 360 108 
L 504 108 
L 504 72 
z
" clip-path="url(#pc54e416c2c)" style="fill: #ffffff"/>
   </g>
   <g id="patch_19">
    <path d="M 432 36 
Q 396 36 396 72 
L 504 72 
L 504 36 
z
" clip-path="url(#pc54e416c2c)" style="fill: #ffffff"/>
   </g>
   <g id="patch_20">
    <path d="M 396 0 
Q 396 36 432 36 
L 504 36 
L 504 0 
z
" clip-path="url(#pc54e416c2c)" style="fill: #ffffff"/>
   </g>
   <g id="patch_21">
    <path d="M 432 36 
Q 468 36 468 72 
L 504 72 
L 504 36 
z
" clip-path="url(#pc54e416c2c)" style="fill: #ffffff"/>
   </g>
   <g id="patch_22">
    <path d="M 468 0 
Q 468 36 432 36 
L 504 36 
L 504 0 
z
" clip-path="url(#pc54e416c2c)" style="fill: #ffffff"/>
   </g>
   <g id="patch_23">
    <path d="M 468 72 
Q 468 144 468 144 
L 504 144 
L 504 72 
z
" clip-path="url(#pc54e416c2c)" style="fill: #ffffff"/>
   </g>
   <g id="patch_24">
    <path d="M 36 0 
C 36 14.4 47.52 23.04 61.344 30.528 
" clip-path="url(#pc54e416c2c)" style="fill: none; stroke: #000000; stroke-linejoin: miter"/>
   </g>
   <g id="patch_25">
    <path d="M 82.656 41.472 
C 96.48 48.96 108 57.6 108 72 
" clip-path="url(#pc54e416c2c)" style="fill: none; stroke: #000000; stroke-linejoin: miter"/>
   </g>
   <g id="patch_26">
    <path d="M 108 0 
C 108 36 36 36 36 72 
" clip-path="url(#pc54e416c2c)" style="fill: none; stroke: #000000; stroke-linejoin: miter"/>
   </g>
   <g id="patch_27">
    <path d="M 108 72 
C 108 86.4 119.52 95.04 133.344 102.528 
" clip-path="url(#pc54e416c2c)" style="fill: none; stroke: #000000; stroke-linejoin: miter"/>
   </g>
   <g id="patch_28">
    <path d="M 154.656 113.472 
C 168.48 120.96 180 129.6 180 144 
" clip-path="url(#pc54e416c2c)" style="fill: none; stroke: #000000; stroke-linejoin: miter"/>
   </g>
   <g id="patch_29">
    <path d="M 180 72 
C 180 108 108 108 108 144 
" clip-path="url(#pc54e416c2c)" style="fill: none; stroke: #000000; stroke-linejoin: miter"/>
   </g>
   <g id="patch_30">
    <path d="M 396 0 
C 396 14.4 407.52 23.04 421.344 30.528 
" clip-path="url(#pc54e416c2c)" style="fill: none; stroke: #000000; stroke-linejoin: miter"/>
   </g>
   <g id="patch_31">
    <path d="M 442.656 41.472 
C 456.48 48.96 468 57.6 468 72 
" clip-path="url(#pc54e416c2c)" style="fill: none; stroke: #000000; stroke-linejoin: miter"/>
   </g>
   <g id="patch_32">
    <path d="M 468 0 
C 468 36 396 36 396 72 
" clip-path="url(#pc54e416c2c)" style="fill: none; stroke: #000000; stroke-linejoin: miter"/>
   </g>
   <g id="patch_33">
    <path d="M 324 72 
C 324 86.4 335.52 95.04 349.344 102.528 
" clip-path="url(#pc54e416c2c)" style="fill: none; stroke: #000000; stroke-linejoin: miter"/>
   </g>
   <g id="patch_34">
    <path d="M 370.656 113.472 
C 384.48 120.96 396 129.6 396 144 
" clip-path="url(#pc54e416c2c)" style="fill: none; stroke: #000000; stroke-linejoin: miter"/>
   </g>
   <g id="patch_35">
    <path d="M 396 72 
C 396 108 324 108 324 144 
" clip-path="url(#pc54e416c2c)" style="fill: none; stroke: #000000; stroke-linejoin: miter"/>
   </g>
   <g id="patch_36">
    <path d="M 36 72 
Q 36 144 36 144 
" clip-path="url(#pc54e416c2c)" style="fill: none; stroke: #000000; stroke-linejoin: miter"/>
   </g>
   <g id="patch_37">
    <path d="M 180 0 
Q 180 72 180 72 
" clip-path="url(#pc54e416c2c)" style="fill: none; stroke: #000000; stroke-linejoin: miter"/>
   </g>
   <g id="patch_38">
    <path d="M 324 0 
Q 324 72 324 72 
" clip-path="url(#pc54e416c2c)" style="fill: none; stroke: #000000; stroke-linejoin: miter"/>
   </g>
   <g id="patch_39">
    <path d="M 468 72 
Q 468 144 468 144 
" clip-path="url(#pc54e416c2c)" style="fill: none; stroke: #000000; stroke-linejoin: miter"/>
   </g>
   <g id="PathCollection_1">
    <defs>
     <path id="mdff8cb2796" d="M 0 5.324472 
C 1.412066 5.324472 2.766488 4.763452 3.76497 3.76497 
C 4.763452 2.766488 5.324472 1.412066 5.324472 0 
C 5.324472 -1.412066 4.763452 -2.766488 3.76497 -3.76497 
C 2.766488 -4.763452 1.412066 -5.324472 0 -5.324472 
C -1.412066 -5.324472 -2.766488 -4.763452 -3.76497 -3.76497 
C -4.763452 -2.766488 -5.324472 -1.412066 -5.324472 0 
C -5.324472 1.412066 -4.763452 2.766488 -3.76497 3.76497 
C -2.766488 4.763452 -1.412066 5.324472 0 5.324472 
z
" style="stroke: #ffffff"/>
    </defs>
    <g clip-path="url(#pc54e416c2c)">
     <use xlink:href="#mdff8cb2796" x="252" y="72" style="fill: #ffffff; stroke: #ffffff"/>
    </g>
   </g>
   <g id="text_1">
    <!-- x -->
    <g transform="translate(40.5 12.098437) scale(0.1 -0.1)">
     <defs>
      <path id="DejaVuSans-78" d="M 3513 3500 
L 2247 1797 
L 3578 0 
L 2900 0 
L 1881 1375 
L 863 0 
L 184 0 
L 1544 1831 
L 300 3500 
L 978 3500 
L 1906 2253 
L 2834 3500 
L 3513 3500 
z
" transform="scale(0.015625)"/>
     </defs>
     <use xlink:href="#DejaVuSans-78"/>
    </g>
   </g>
   <g id="text_2">
    <!-- y -->
    <g transform="translate(112.5 12.098437) scale(0.1 -0.1)">
     <defs>
      <path id="DejaVuSans-79" d="M 2059 -325 
Q 1816 -950 1584 -1140 
Q 1353 -1331 966 -1331 
L 506 -1331 
L 506 -850 
L 844 -850 
Q 1081 -850 1212 -737 
Q 1344 -625 1503 -206 
L 1606 56 
L 191 3500 
L 800 3500 
L 1894 763 
L 2988 3500 
L 3597 3500 
L 2059 -325 
z
" transform="scale(0.015625)"/>
     </defs>
     <use xlink:href="#DejaVuSans-79"/>
    </g>
   </g>
   <g id="text_3">
    <!-- y -->
    <g transform="translate(40.5 66.098438) scale(0.1 -0.1)">
     <use xlink:href="#DejaVuSans-79"/>
    </g>
   </g>
   <g id="text_4">
    <!-- x -->
    <g transform="translate(112.5 66.098438) scale(0.1 -0.1)">
     <use xlink:href="#DejaVuSans-78"/>
    </g>
   </g>
   <g id="text_5">
    <!-- z -->
    <g transform="translate(184.5 12.098437) scale(0.1 -0.1)">
     <defs>
      <path id="DejaVuSans-7a" d="M 353 3500 
L 3084 3500 
L 3084 2975 
L 922 459 
L 3084 459 
L 3084 0 
L 275 0 
L 275 525 
L 2438 3041 
L 353 3041 
L 353 3500 
z
" transform="scale(0.015625)"/>
     </defs>
     <use xlink:href="#DejaVuSans-7a"/>
    </g>
   </g>
   <g id="text_6">
    <!-- z -->
    <g transform="translate(112.5 138.098437) scale(0.1 -0.1)">
     <use xlink:href="#DejaVuSans-7a"/>
    </g>
   </g>
   <g id="text_7">
    <!-- x -->
    <g transform="translate(184.5 138.098437) scale(0.1 -0.1)">
     <use xlink:href="#DejaVuSans-78"/>
    </g>
   </g>
   <g id="text_8">
    <!-- x -->
    <g transform="translate(328.5 12.098437) scale(0.1 -0.1)">
     <use xlink:href="#DejaVuSans-78"/>
    </g>
   </g>
   <g id="text_9">
    <!-- y -->
    <g transform="translate(400.5 12.098437) scale(0.1 -0.1)">
     <use xlink:href="#DejaVuSans-79"/>
    </g>
   </g>
   <g id="text_10">
    <!-- z -->
    <g transform="translate(472.5 12.098437) scale(0.1 -0.1)">
     <use xlink:href="#DejaVuSans-7a"/>
    </g>
   </g>
   <g id="text_11">
    <!-- z -->
    <g transform="translate(400.5 66.098438) scale(0.1 -0.1)">
     <use xlink:href="#DejaVuSans-7a"/>
    </g>
   </g>
   <g id="text_12">
    <!-- y -->
    <g transform="translate(472.5 66.098438) scale(0.1 -0.1)">
     <use xlink:href="#DejaVuSans-79"/>
    </g>
   </g>
   <g id="text_13">
    <!-- z -->
    <g transform="translate(328.5 138.098437) scale(0.1 -0.1)">
     <use xlink:href="#DejaVuSans-7a"/>
    </g>
   </g>
   <g id="text_14">
    <!-- x -->
    <g transform="translate(400.5 138.098437) scale(0.1 -0.1)">
     <use xlink:href="#DejaVuSans-78"/>
    </g>
   </g>
  </g>
 </g>
 <defs>
  <clipPath id="pc54e416c2c">
   <rect x="0" y="0" width="504" height="144"/>
  </clipPath>
 </defs>
</svg>
