<?xml version="1.0" encoding="utf-8" standalone="no"?>
<!DOCTYPE svg PUBLIC "-//W3C//DTD SVG 1.1//EN"
  "http://www.w3.org/Graphics/SVG/1.1/DTD/svg11.dtd">
<svg xmlns:xlink="http://www.w3.org/1999/xlink" width="252pt" height="432pt" viewBox="0 0 252 432" xmlns="http://www.w3.org/2000/svg" version="1.1">
 <metadata>
  <rdf:RDF xmlns:dc="http://purl.org/dc/elements/1.1/" xmlns:cc="http://creativecommons.org/ns#" xmlns:rdf="http://www.w3.org/1999/02/22-rdf-syntax-ns#">
   <cc:Work>
    <dc:type rdf:resource="http://purl.org/dc/dcmitype/StillImage"/>
    <dc:format>image/svg+xml</dc:format>
    <dc:creator>
     <cc:Agent>
      <dc:title>Matplotlib v3.10.9, https://matplotlib.org/</dc:title>
     </cc:Agent>
    </dc:creator>
   </cc:Work>
  </rdf:RDF>
 </metadata>
 <defs>
  <style type="text/css">*{stroke-linejoin: round; stroke-linecap: butt}</style>
 </defs>
 <g id="figure_1">
  <g id="patch_1">
   <path d="M 0 432 
L 252 432 
L 252 0 
L 0 0 
z
" style="fill: #ffffff"/>
  </g>
  <g id="axes_1">
   <g id="patch_2">
    <path d="M 0 432 
L 252 432 
L 252 0 
L 0 0 
z
" clip-path="url(#pb4206ce58b)" style="fill: #ffffff; stroke: #ffffff; stroke-linejoin: miter"/>
   </g>
   <g id="patch_3">
    <path d="M 0 432 
Q 0 0 0 0 
L 252 0 
L 252 432 
z
" clip-path="url(#pb4206ce58b)" style="fill: #ffffff"/>
   </g>
   <g id="patch_4">
    <path d="M 36 270 
Q 36 288 36 288 
L 252 288 
L 252 270 
z
" clip-path="url(#pb4206ce58b)" style="fill: #ffffff"/>
   </g>
   <g id="patch_5">
    <path d="M 36 360 
Q 36 432 36 432 
L 252 432 
L 252 360 
z
" clip-path="url(#pb4206ce58b)" style="fill: #ffffff"/>
   </g>
   <g id="patch_6">
    <path d="M 72 324 
Q 36 324 36 360 
L 252 360 
L 252 324 
z
" clip-path="url(#pb4206ce58b)" style="fill: #ffffff"/>
   </g>
   <g id="patch_7">
    <path d="M 36 288 
Q 36 324 72 324 
L 252 324 
L 252 288 
z
" clip-path="url(#pb4206ce58b)" style="fill: #ffffff"/>
   </g>
   <g id="patch_8">
    <path d="M 72 72 
Q 72 234 72 234 
L 252 234 
L 252 72 
z
" clip-path="url(#pb4206ce58b)" style="fill: #ffffff"/>
   </g>
   <g id="patch_9">
    <path d="M 108 36 
Q 72 36 72 72 
L 252 72 
L 252 36 
z
" clip-path="url(#pb4206ce58b)" style="fill: #ffffff"/>
   </g>
   <g id="patch_10">
    <path d="M 72 0 
Q 72 36 108 36 
L 252 36 
L 252 0 
z
" clip-path="url(#pb4206ce58b)" style="fill: #ffffff"/>
   </g>
   <g id="patch_11">
    <path d="M 72 324 
Q 108 324 108 360 
L 252 360 
L 252 324 
z
" clip-path="url(#pb4206ce58b)" style="fill: #ffffff"/>
   </g>
   <g id="patch_12">
    <path d="M 108 288 
Q 108 324 72 324 
L 252 324 
L 252 288 
z
" clip-path="url(#pb4206ce58b)" style="fill: #ffffff"/>
   </g>
   <g id="patch_13">
    <path d="M 108 270 
Q 108 288 108 288 
L 252 288 
L 252 270 
z
" clip-path="url(#pb4206ce58b)" style="fill: #ffffff"/>
   </g>
   <g id="patch_14">
    <path d="M 108 36 
Q 144 36 144 72 
L 252 72 
L 252 36 
z
" clip-path="url(#pb4206ce58b)" style="fill: #ffffff"/>
   </g>
   <g id="patch_15">
    <path d="M 144 0 
Q 144 36 108 36 
L 252 36 
L 252 0 
z
" clip-path="url(#pb4206ce58b)" style="fill: #ffffff"/>
   </g>
   <g id="patch_16">
    <path d="M 144 396 
Q 108 396 108 432 
L 252 432 
L 252 396 
z
" clip-path="url(#pb4206ce58b)" style="fill: #ffffff"/>
   </g>
   <g id="patch_17">
    <path d="M 108 360 
Q 108 396 144 396 
L 252 396 
L 252 360 
z
" clip-path="url(#pb4206ce58b)" style="fill: #ffffff"/>
   </g>
   <g id="patch_18">
    <path d="M 126 234 
Q 126 270 126 270 
L 252 270 
L 252 234 
z
" clip-path="url(#pb4206ce58b)" style="fill: #ffffff"/>
   </g>
   <g id="patch_19">
    <path d="M 144 144 
Q 144 162 144 162 
L 252 162 
L 252 144 
z
" clip-path="url(#pb4206ce58b)" style="fill: #ffffff"/>
   </g>
   <g id="patch_20">
    <path d="M 180 108 
Q 144 108 144 144 
L 252 144 
L 252 108 
z
" clip-path="url(#pb4206ce58b)" style="fill: #ffffff"/>
   </g>
   <g id="patch_21">
    <path d="M 144 72 
Q 144 108 180 108 
L 252 108 
L 252 72 
z
" clip-path="url(#pb4206ce58b)" style="fill: #ffffff"/>
   </g>
   <g id="patch_22">
    <path d="M 144 396 
Q 180 396 180 432 
L 252 432 
L 252 396 
z
" clip-path="url(#pb4206ce58b)" style="fill: #ffffff"/>
   </g>
   <g id="patch_23">
    <path d="M 180 360 
Q 180 396 144 396 
L 252 396 
L 252 360 
z
" clip-path="url(#pb4206ce58b)" style="fill: #ffffff"/>
   </g>
   <g id="patch_24">
    <path d="M 180 198 
Q 180 360 180 360 
L 252 360 
L 252 198 
z
" clip-path="url(#pb4206ce58b)" style="fill: #ffffff"/>
   </g>
   <g id="patch_25">
    <path d="M 180 108 
Q 216 108 216 144 
L 252 144 
L 252 108 
z
" clip-path="url(#pb4206ce58b)" style="fill: #ffffff"/>
   </g>
   <g id="patch_26">
    <path d="M 216 72 
Q 216 108 180 108 
L 252 108 
L 252 72 
z
" clip-path="url(#pb4206ce58b)" style="fill: #ffffff"/>
   </g>
   <g id="patch_27">
    <path d="M 216 0 
Q 216 72 216 72 
L 252 72 
L 252 0 
z
" clip-path="url(#pb4206ce58b)" style="fill: #ffffff"/>
   </g>
   <g id="patch_28">
    <path d="M 216 144 
Q 216 162 216 162 
L 252 162 
L 252 144 
z
" clip-path="url(#pb4206ce58b)" style="fill: #ffffff"/>
   </g>
   <g id="patch_29">
    <path d="M 234 162 
Q 234 198 234 198 
L 252 198 
L 252 162 
z
" clip-path="url(#pb4206ce58b)" style="fill: #ffffff"/>
   </g>
   <g id="patch_30">
    <path d="M 72 0 
C 72 36 144 36 144 72 
" clip-path="url(#pb4206ce58b)" style="fill: none; stroke: #000000; stroke-linejoin: miter"/>
   </g>
   <g id="patch_31">
    <path d="M 144 0 
C 144 36 72 36 72 72 
" clip-path="url(#pb4206ce58b)" style="fill: none; stroke: #000000; stroke-linejoin: miter"/>
   </g>
   <g id="patch_32">
    <path d="M 144 72 
C 144 108 216 108 216 144 
" clip-path="url(#pb4206ce58b)" style="fill: none; stroke: #000000; stroke-linejoin: miter"/>
   </g>
   <g id="patch_33">
    <path d="M 216 72 
C 216 108 144 108 144 144 
" clip-path="url(#pb4206ce58b)" style="fill: none; stroke: #000000; stroke-linejoin: miter"/>
   </g>
   <g id="patch_34">
    <path d="M 36 288 
C 36 324 108 324 108 360 
" clip-path="url(#pb4206ce58b)" style="fill: none; stroke: #000000; stroke-linejoin: miter"/>
   </g>
   <g id="patch_35">
    <path d="M 108 288 
C 108 324 36 324 36 360 
" clip-path="url(#pb4206ce58b)" style="fill: none; stroke: #000000; stroke-linejoin: miter"/>
   </g>
   <g id="patch_36">
    <path d="M 108 360 
C 108 396 180 396 180 432 
" clip-path="url(#pb4206ce58b)" style="fill: none; stroke: #000000; stroke-linejoin: miter"/>
   </g>
   <g id="patch_37">
    <path d="M 180 360 
C 180 396 108 396 108 432 
" clip-path="url(#pb4206ce58b)" style="fill: none; stroke: #000000; stroke-linejoin: miter"/>
   </g>
   <g id="patch_38">
    <path d="M 72 72 
Q 72 234 72 234 
" clip-path="url(#pb4206ce58b)" style="fill: none; stroke: #000000; stroke-linejoin: miter"/>
   </g>
   <g id="patch_39">
    <path d="M 216 0 
Q 216 72 216 72 
" clip-path="url(#pb4206ce58b)" style="fill: none; stroke: #000000; stroke-linejoin: miter"/>
   </g>
   <g id="patch_40">
    <path d="M 144 144 
Q 144 162 144 162 
" clip-path="url(#pb4206ce58b)" style="fill: none; stroke: #000000; stroke-linejoin: miter"/>
   </g>
   <g id="patch_41">
    <path d="M 216 144 
Q 216 162 216 162 
" clip-path="url(#pb4206ce58b)" style="fill: none; stroke: #000000; stroke-linejoin: miter"/>
   </g>
   <g id="patch_42">
    <path d="M 180 198 
Q 180 360 180 360 
" clip-path="url(#pb4206ce58b)" style="fill: none; stroke: #000000; stroke-linejoin: miter"/>
   </g>
   <g id="patch_43">
    <path d="M 36 270 
Q 36 288 36 288 
" clip-path="url(#pb4206ce58b)" style="fill: none; stroke: #000000; stroke-linejoin: miter"/>
   </g>
   <g id="patch_44">
    <path d="M 108 270 
Q 108 288 108 288 
" clip-path="url(#pb4206ce58b)" style="fill: none; stroke: #000000; stroke-linejoin: miter"/>
   </g>
   <g id="patch_45">
    <path d="M 36 360 
Q 36 432 36 432 
" clip-path="url(#pb4206ce58b)" style="fill: none; stroke: #000000; stroke-linejoin: miter"/>
   </g>
   <g id="patch_46">
    <path d="M 126 198 
L 126 162 
L 234 162 
L 234 198 
z
" clip-path="url(#pb4206ce58b)" style="fill: #ffffff; stroke: #000000; stroke-linejoin: miter"/>
   </g>
   <g id="patch_47">
    <path d="M 18 270 
L 18 234 
L 126 234 
L 126 270 
z
" clip-path="url(#pb4206ce58b)" style="fill: #ffffff; stroke: #000000; stroke-linejoin: miter"/>
   </g>
   <g id="text_1">
    <!-- f -->
    <g transform="translate(178.239844 182.759375) scale(0.1 -0.1)">
     <defs>
      <path id="DejaVuSans-66" d="M 2375 4863 
L 2375 4384 
L 1825 4384 
Q 1516 4384 1395 4259 
Q 1275 4134 1275 3809 
L 1275 3500 
L 2222 3500 
L 2222 3053 
L 1275 3053 
L 1275 0 
L 697 0 
L 697 3053 
L 147 3053 
L 147 3500 
L 697 3500 
L 697 3744 
Q 697 4328 969 4595 
Q 1241 4863 1831 4863 
L 2375 4863 
z
" transform="scale(0.015625)"/>
     </defs>
     <use xlink:href="#DejaVuSans-66"/>
    </g>
   </g>
   <g id="text_2">
    <!-- g -->
    <g transform="translate(68.825781 254.759375) scale(0.1 -0.1)">
     <defs>
      <path id="DejaVuSans-67" d="M 2906 1791 
Q 2906 2416 2648 2759 
Q 2391 3103 1925 3103 
Q 1463 3103 1205 2759 
Q 947 2416 947 1791 
Q 947 1169 1205 825 
Q 1463 481 1925 481 
Q 2391 481 2648 825 
Q 2906 1169 2906 1791 
z
M 3481 434 
Q 3481 -459 3084 -895 
Q 2688 -1331 1869 -1331 
Q 1566 -1331 1297 -1286 
Q 1028 -1241 775 -1147 
L 775 -588 
Q 1028 -725 1275 -790 
Q 1522 -856 1778 -856 
Q 2344 -856 2625 -561 
Q 2906 -266 2906 331 
L 2906 616 
Q 2728 306 2450 153 
Q 2172 0 1784 0 
Q 1141 0 747 490 
Q 353 981 353 1791 
Q 353 2603 747 3093 
Q 1141 3584 1784 3584 
Q 2172 3584 2450 3431 
Q 2728 3278 2906 2969 
L 2906 3500 
L 3481 3500 
L 3481 434 
z
" transform="scale(0.015625)"/>
     </defs>
     <use xlink:href="#DejaVuSans-67"/>
    </g>
   </g>
  </g>
 </g>
 <defs>
  <clipPath id="pb4206ce58b">
   <rect x="0" y="0" width="252" height="432"/>
  </clipPath>
 </defs>
</svg>
