<?xml version="1.0" encoding="utf-8" standalone="no"?>
<!DOCTYPE svg PUBLIC "-//W3C//DTD SVG 1.1//EN"
  "http://www.w3.org/Graphics/SVG/1.1/DTD/svg11.dtd">
<svg xmlns:xlink="http://www.w3.org/1999/xlink" width="360pt" height="144pt" viewBox="0 0 360 144" xmlns="http://www.w3.org/2000/svg" version="1.1">
 <metadata>
  <rdf:RDF xmlns:dc="http://purl.org/dc/elements/1.1/" xmlns:cc="http://creativecommons.org/ns#" xmlns:rdf="http://www.w3.org/1999/02/22-rdf-syntax-ns#">
   <cc:Work>
    <dc:type rdf:resource="http://purl.org/dc/dcmitype/StillImage"/>
    <dc:format>image/svg+xml</dc:format>
    <dc:creator>
     <cc:Agent>
      <dc:title>Matplotlib v3.10.9, https://matplotlib.org/</dc:title>
     </cc:Agent>
    </dc:creator>
   </cc:Work>
  </rdf:RDF>
 </metadata>
 <defs>
  <style type="text/css">*{stroke-linejoin: round; stroke-linecap: butt}</style>
 </defs>
 <g id="figure_1">
  <g id="patch_1">
   <path d="M 0 144 
L 360 144 
L 360 0 
L 0 0 
z
" style="fill: #ffffff"/>
  </g>
  <g id="axes_1">
   <g id="patch_2">
    <path d="M 0 144 
L 360 144 
L 360 0 
L 0 0 
z
" clip-path="url(#p47b61f2627)" style="fill: #ffffff; stroke: #ffffff; stroke-linejoin: miter"/>
   </g>
   <g id="patch_3">
    <path d="M 0 144 
Q 0 0 0 0 
L 360 0 
L 360 144 
z
" clip-path="url(#p47b61f2627)" style="fill: #ffffff"/>
   </g>
   <g id="patch_4">
    <path d="M 25.714286 72 
Q 25.714286 144 25.714286 144 
L 360 144 
L 360 72 
z
" clip-path="url(#p47b61f2627)" style="fill: #ffffff"/>
   </g>
   <g id="patch_5">
    <path d="M 51.428571 36 
Q 25.714286 36 25.714286 72 
L 360 72 
L 360 36 
z
" clip-path="url(#p47b61f2627)" style="fill: #ffffff"/>
   </g>
   <g id="patch_6">
    <path d="M 25.714286 0 
Q 25.714286 36 51.428571 36 
L 360 36 
L 360 0 
z
" clip-path="url(#p47b61f2627)" style="fill: #ffffff"/>
   </g>
   <g id="patch_7">
    <path d="M 51.428571 36 
Q 77.142857 36 77.142857 72 
L 360 72 
L 360 36 
z
" clip-path="url(#p47b61f2627)" style="fill: #ffffff"/>
   </g>
   <g id="patch_8">
    <path d="M 77.142857 0 
Q 77.142857 36 51.428571 36 
L 360 36 
L 360 0 
z
" clip-path="url(#p47b61f2627)" style="fill: #ffffff"/>
   </g>
   <g id="patch_9">
    <path d="M 102.857143 108 
Q 77.142857 108 77.142857 144 
L 360 144 
L 360 108 
z
" clip-path="url(#p47b61f2627)" style="fill: #ffffff"/>
   </g>
   <g id="patch_10">
    <path d="M 77.142857 72 
Q 77.142857 108 102.857143 108 
L 360 108 
L 360 72 
z
" clip-path="url(#p47b61f2627)" style="fill: #ffffff"/>
   </g>
   <g id="patch_11">
    <path d="M 102.857143 108 
Q 128.571429 108 128.571429 144 
L 360 144 
L 360 108 
z
" clip-path="url(#p47b61f2627)" style="fill: #ffffff"/>
   </g>
   <g id="patch_12">
    <path d="M 128.571429 72 
Q 128.571429 108 102.857143 108 
L 360 108 
L 360 72 
z
" clip-path="url(#p47b61f2627)" style="fill: #ffffff"/>
   </g>
   <g id="patch_13">
    <path d="M 128.571429 0 
Q 128.571429 72 128.571429 72 
L 360 72 
L 360 0 
z
" clip-path="url(#p47b61f2627)" style="fill: #ffffff"/>
   </g>
   <g id="patch_14">
    <path d="M 231.428571 0 
Q 231.428571 72 231.428571 72 
L 360 72 
L 360 0 
z
" clip-path="url(#p47b61f2627)" style="fill: #ffffff"/>
   </g>
   <g id="patch_15">
    <path d="M 257.142857 108 
Q 231.428571 108 231.428571 144 
L 360 144 
L 360 108 
z
" clip-path="url(#p47b61f2627)" style="fill: #ffffff"/>
   </g>
   <g id="patch_16">
    <path d="M 231.428571 72 
Q 231.428571 108 257.142857 108 
L 360 108 
L 360 72 
z
" clip-path="url(#p47b61f2627)" style="fill: #ffffff"/>
   </g>
   <g id="patch_17">
    <path d="M 257.142857 108 
Q 282.857143 108 282.857143 144 
L 360 144 
L 360 108 
z
" clip-path="url(#p47b61f2627)" style="fill: #ffffff"/>
   </g>
   <g id="patch_18">
    <path d="M 282.857143 72 
Q 282.857143 108 257.142857 108 
L 360 108 
L 360 72 
z
" clip-path="url(#p47b61f2627)" style="fill: #ffffff"/>
   </g>
   <g id="patch_19">
    <path d="M 308.571429 36 
Q 282.857143 36 282.857143 72 
L 360 72 
L 360 36 
z
" clip-path="url(#p47b61f2627)" style="fill: #ffffff"/>
   </g>
   <g id="patch_20">
    <path d="M 282.857143 0 
Q 282.857143 36 308.571429 36 
L 360 36 
L 360 0 
z
" clip-path="url(#p47b61f2627)" style="fill: #ffffff"/>
   </g>
   <g id="patch_21">
    <path d="M 308.571429 36 
Q 334.285714 36 334.285714 72 
L 360 72 
L 360 36 
z
" clip-path="url(#p47b61f2627)" style="fill: #ffffff"/>
   </g>
   <g id="patch_22">
    <path d="M 334.285714 0 
Q 334.285714 36 308.571429 36 
L 360 36 
L 360 0 
z
" clip-path="url(#p47b61f2627)" style="fill: #ffffff"/>
   </g>
   <g id="patch_23">
    <path d="M 334.285714 72 
Q 334.285714 144 334.285714 144 
L 360 144 
L 360 72 
z
" clip-path="url(#p47b61f2627)" style="fill: #ffffff"/>
   </g>
   <g id="patch_24">
    <path d="M 25.714286 0 
C 25.714286 36 77.142857 36 77.142857 72 
" clip-path="url(#p47b61f2627)" style="fill: none; stroke: #000000; stroke-linejoin: miter"/>
   </g>
   <g id="patch_25">
    <path d="M 77.142857 0 
C 77.142857 36 25.714286 36 25.714286 72 
" clip-path="url(#p47b61f2627)" style="fill: none; stroke: #000000; stroke-linejoin: miter"/>
   </g>
   <g id="patch_26">
    <path d="M 77.142857 72 
C 77.142857 108 128.571429 108 128.571429 144 
" clip-path="url(#p47b61f2627)" style="fill: none; stroke: #000000; stroke-linejoin: miter"/>
   </g>
   <g id="patch_27">
    <path d="M 128.571429 72 
C 128.571429 108 77.142857 108 77.142857 144 
" clip-path="url(#p47b61f2627)" style="fill: none; stroke: #000000; stroke-linejoin: miter"/>
   </g>
   <g id="patch_28">
    <path d="M 282.857143 0 
C 282.857143 36 334.285714 36 334.285714 72 
" clip-path="url(#p47b61f2627)" style="fill: none; stroke: #000000; stroke-linejoin: miter"/>
   </g>
   <g id="patch_29">
    <path d="M 334.285714 0 
C 334.285714 36 282.857143 36 282.857143 72 
" clip-path="url(#p47b61f2627)" style="fill: none; stroke: #000000; stroke-linejoin: miter"/>
   </g>
   <g id="patch_30">
    <path d="M 231.428571 72 
C 231.428571 108 282.857143 108 282.857143 144 
" clip-path="url(#p47b61f2627)" style="fill: none; stroke: #000000; stroke-linejoin: miter"/>
   </g>
   <g id="patch_31">
    <path d="M 282.857143 72 
C 282.857143 108 231.428571 108 231.428571 144 
" clip-path="url(#p47b61f2627)" style="fill: none; stroke: #000000; stroke-linejoin: miter"/>
   </g>
   <g id="patch_32">
    <path d="M 25.714286 72 
Q 25.714286 144 25.714286 144 
" clip-path="url(#p47b61f2627)" style="fill: none; stroke: #000000; stroke-linejoin: miter"/>
   </g>
   <g id="patch_33">
    <path d="M 128.571429 0 
Q 128.571429 72 128.571429 72 
" clip-path="url(#p47b61f2627)" style="fill: none; stroke: #000000; stroke-linejoin: miter"/>
   </g>
   <g id="patch_34">
    <path d="M 231.428571 0 
Q 231.428571 72 231.428571 72 
" clip-path="url(#p47b61f2627)" style="fill: none; stroke: #000000; stroke-linejoin: miter"/>
   </g>
   <g id="patch_35">
    <path d="M 334.285714 72 
Q 334.285714 144 334.285714 144 
" clip-path="url(#p47b61f2627)" style="fill: none; stroke: #000000; stroke-linejoin: miter"/>
   </g>
   <g id="PathCollection_1">
    <defs>
     <path id="mdff8cb2796" d="M 0 5.324472 
C 1.412066 5.324472 2.766488 4.763452 3.76497 3.76497 
C 4.763452 2.766488 5.324472 1.412066 5.324472 0 
C 5.324472 -1.412066 4.763452 -2.766488 3.76497 -3.76497 
C 2.766488 -4.763452 1.412066 -5.324472 0 -5.324472 
C -1.412066 -5.324472 -2.766488 -4.763452 -3.76497 -3.76497 
C -4.763452 -2.766488 -5.324472 -1.412066 -5.324472 0 
C -5.324472 1.412066 -4.763452 2.766488 -3.76497 3.76497 
C -2.766488 4.763452 -1.412066 5.324472 0 5.324472 
z
" style="stroke: #ffffff"/>
    </defs>
    <g clip-path="url(#p47b61f2627)">
     <use xlink:href="#mdff8cb2796" x="180" y="72" style="fill: #ffffff; stroke: #ffffff"/>
    </g>
   </g>
   <g id="text_1">
    <!-- x -->
    <g transform="translate(28.928571 12.098437) scale(0.1 -0.1)">
     <defs>
      <path id="DejaVuSans-78" d="M 3513 3500 
L 2247 1797 
L 3578 0 
L 2900 0 
L 1881 1375 
L 863 0 
L 184 0 
L 1544 1831 
L 300 3500 
L 978 3500 
L 1906 2253 
L 2834 3500 
L 3513 3500 
z
" transform="scale(0.015625)"/>
     </defs>
     <use xlink:href="#DejaVuSans-78"/>
    </g>
   </g>
   <g id="text_2">
    <!-- y -->
    <g transform="translate(80.357143 12.098437) scale(0.1 -0.1)">
     <defs>
      <path id="DejaVuSans-79" d="M 2059 -325 
Q 1816 -950 1584 -1140 
Q 1353 -1331 966 -1331 
L 506 -1331 
L 506 -850 
L 844 -850 
Q 1081 -850 1212 -737 
Q 1344 -625 1503 -206 
L 1606 56 
L 191 3500 
L 800 3500 
L 1894 763 
L 2988 3500 
L 3597 3500 
L 2059 -325 
z
" transform="scale(0.015625)"/>
     </defs>
     <use xlink:href="#DejaVuSans-79"/>
    </g>
   </g>
   <g id="text_3">
    <!-- y -->
    <g transform="translate(28.928571 66.098438) scale(0.1 -0.1)">
     <use xlink:href="#DejaVuSans-79"/>
    </g>
   </g>
   <g id="text_4">
    <!-- x -->
    <g transform="translate(80.357143 66.098438) scale(0.1 -0.1)">
     <use xlink:href="#DejaVuSans-78"/>
    </g>
   </g>
   <g id="text_5">
    <!-- z -->
    <g transform="translate(131.785714 12.098437) scale(0.1 -0.1)">
     <defs>
      <path id="DejaVuSans-7a" d="M 353 3500 
L 3084 3500 
L 3084 2975 
L 922 459 
L 3084 459 
L 3084 0 
L 275 0 
L 275 525 
L 2438 3041 
L 353 3041 
L 353 3500 
z
" transform="scale(0.015625)"/>
     </defs>
     <use xlink:href="#DejaVuSans-7a"/>
    </g>
   </g>
   <g id="text_6">
    <!-- z -->
    <g transform="translate(80.357143 138.098437) scale(0.1 -0.1)">
     <use xlink:href="#DejaVuSans-7a"/>
    </g>
   </g>
   <g id="text_7">
    <!-- x -->
    <g transform="translate(131.785714 138.098437) scale(0.1 -0.1)">
     <use xlink:href="#DejaVuSans-78"/>
    </g>
   </g>
   <g id="text_8">
    <!-- x -->
    <g transform="translate(234.642857 12.098437) scale(0.1 -0.1)">
     <use xlink:href="#DejaVuSans-78"/>
    </g>
   </g>
   <g id="text_9">
    <!-- y -->
    <g transform="translate(286.071429 12.098437) scale(0.1 -0.1)">
     <use xlink:href="#DejaVuSans-79"/>
    </g>
   </g>
   <g id="text_10">
    <!-- z -->
    <g transform="translate(337.5 12.098437) scale(0.1 -0.1)">
     <use xlink:href="#DejaVuSans-7a"/>
    </g>
   </g>
   <g id="text_11">
    <!-- z -->
    <g transform="translate(286.071429 66.098438) scale(0.1 -0.1)">
     <use xlink:href="#DejaVuSans-7a"/>
    </g>
   </g>
   <g id="text_12">
    <!-- y -->
    <g transform="translate(337.5 66.098438) scale(0.1 -0.1)">
     <use xlink:href="#DejaVuSans-79"/>
    </g>
   </g>
   <g id="text_13">
    <!-- z -->
    <g transform="translate(234.642857 138.098437) scale(0.1 -0.1)">
     <use xlink:href="#DejaVuSans-7a"/>
    </g>
   </g>
   <g id="text_14">
    <!-- x -->
    <g transform="translate(286.071429 138.098437) scale(0.1 -0.1)">
     <use xlink:href="#DejaVuSans-78"/>
    </g>
   </g>
  </g>
 </g>
 <defs>
  <clipPath id="p47b61f2627">
   <rect x="0" y="0" width="360" height="144"/>
  </clipPath>
 </defs>
</svg>
