<?xml version="1.0" encoding="utf-8" standalone="no"?>
<!DOCTYPE svg PUBLIC "-//W3C//DTD SVG 1.1//EN"
  "http://www.w3.org/Graphics/SVG/1.1/DTD/svg11.dtd">
<svg xmlns:xlink="http://www.w3.org/1999/xlink" width="216pt" height="144pt" viewBox="0 0 216 144" xmlns="http://www.w3.org/2000/svg" version="1.1">
 <metadata>
  <rdf:RDF xmlns:dc="http://purl.org/dc/elements/1.1/" xmlns:cc="http://creativecommons.org/ns#" xmlns:rdf="http://www.w3.org/1999/02/22-rdf-syntax-ns#">
   <cc:Work>
    <dc:type rdf:resource="http://purl.org/dc/dcmitype/StillImage"/>
    <dc:format>image/svg+xml</dc:format>
    <dc:creator>
     <cc:Agent>
      <dc:title>Matplotlib v3.10.9, https://matplotlib.org/</dc:title>
     </cc:Agent>
    </dc:creator>
   </cc:Work>
  </rdf:RDF>
 </metadata>
 <defs>
  <style type="text/css">*{stroke-linejoin: round; stroke-linecap: butt}</style>
 </defs>
 <g id="figure_1">
  <g id="patch_1">
   <path d="M 0 144 
L 216 144 
L 216 0 
L 0 0 
z
" style="fill: #ffffff"/>
  </g>
  <g id="axes_1">
   <g id="patch_2">
    <path d="M 0 144 
L 216 144 
L 216 0 
L 0 0 
z
" clip-path="url(#p73fb16c204)" style="fill: #ffffff; stroke: #ffffff; stroke-linejoin: miter"/>
   </g>
   <g id="patch_3">
    <path d="M 0 144 
Q 0 0 0 0 
L 216 0 
L 216 144 
z
" clip-path="url(#p73fb16c204)" style="fill: #ffffff"/>
   </g>
   <g id="patch_4">
    <path d="M 45.473684 36 
Q 22.736842 36 22.736842 72 
L 216 72 
L 216 36 
z
" clip-path="url(#p73fb16c204)" style="fill: #ffffff"/>
   </g>
   <g id="patch_5">
    <path d="M 22.736842 0 
Q 22.736842 36 45.473684 36 
L 216 36 
L 216 0 
z
" clip-path="url(#p73fb16c204)" style="fill: #ffffff"/>
   </g>
   <g id="patch_6">
    <path d="M 45.473684 108 
Q 22.736842 108 22.736842 144 
L 216 144 
L 216 108 
z
" clip-path="url(#p73fb16c204)" style="fill: #ffffff"/>
   </g>
   <g id="patch_7">
    <path d="M 22.736842 72 
Q 22.736842 108 45.473684 108 
L 216 108 
L 216 72 
z
" clip-path="url(#p73fb16c204)" style="fill: #ffffff"/>
   </g>
   <g id="patch_8">
    <path d="M 45.473684 36 
Q 68.210526 36 68.210526 72 
L 216 72 
L 216 36 
z
" clip-path="url(#p73fb16c204)" style="fill: #ffffff"/>
   </g>
   <g id="patch_9">
    <path d="M 68.210526 0 
Q 68.210526 36 45.473684 36 
L 216 36 
L 216 0 
z
" clip-path="url(#p73fb16c204)" style="fill: #ffffff"/>
   </g>
   <g id="patch_10">
    <path d="M 45.473684 108 
Q 68.210526 108 68.210526 144 
L 216 144 
L 216 108 
z
" clip-path="url(#p73fb16c204)" style="fill: #ffffff"/>
   </g>
   <g id="patch_11">
    <path d="M 68.210526 72 
Q 68.210526 108 45.473684 108 
L 216 108 
L 216 72 
z
" clip-path="url(#p73fb16c204)" style="fill: #ffffff"/>
   </g>
   <g id="patch_12">
    <path d="M 159.157895 0 
Q 159.157895 144 159.157895 144 
L 216 144 
L 216 0 
z
" clip-path="url(#p73fb16c204)" style="fill: #ffffff"/>
   </g>
   <g id="patch_13">
    <path d="M 204.631579 0 
Q 204.631579 144 204.631579 144 
L 216 144 
L 216 0 
z
" clip-path="url(#p73fb16c204)" style="fill: #ffffff"/>
   </g>
   <g id="patch_14">
    <path d="M 22.736842 0 
C 22.736842 36 68.210526 36 68.210526 72 
" clip-path="url(#p73fb16c204)" style="fill: none; stroke: #000000; stroke-linejoin: miter"/>
   </g>
   <g id="patch_15">
    <path d="M 68.210526 0 
C 68.210526 36 22.736842 36 22.736842 72 
" clip-path="url(#p73fb16c204)" style="fill: none; stroke: #000000; stroke-linejoin: miter"/>
   </g>
   <g id="patch_16">
    <path d="M 22.736842 72 
C 22.736842 108 68.210526 108 68.210526 144 
" clip-path="url(#p73fb16c204)" style="fill: none; stroke: #000000; stroke-linejoin: miter"/>
   </g>
   <g id="patch_17">
    <path d="M 68.210526 72 
C 68.210526 108 22.736842 108 22.736842 144 
" clip-path="url(#p73fb16c204)" style="fill: none; stroke: #000000; stroke-linejoin: miter"/>
   </g>
   <g id="patch_18">
    <path d="M 159.157895 0 
Q 159.157895 144 159.157895 144 
" clip-path="url(#p73fb16c204)" style="fill: none; stroke: #000000; stroke-linejoin: miter"/>
   </g>
   <g id="patch_19">
    <path d="M 204.631579 0 
Q 204.631579 144 204.631579 144 
" clip-path="url(#p73fb16c204)" style="fill: none; stroke: #000000; stroke-linejoin: miter"/>
   </g>
   <g id="PathCollection_1">
    <defs>
     <path id="m4b6c72a8ef" d="M 0 5.867282 
C 1.556021 5.867282 3.048522 5.249068 4.148795 4.148795 
C 5.249068 3.048522 5.867282 1.556021 5.867282 0 
C 5.867282 -1.556021 5.249068 -3.048522 4.148795 -4.148795 
C 3.048522 -5.249068 1.556021 -5.867282 0 -5.867282 
C -1.556021 -5.867282 -3.048522 -5.249068 -4.148795 -4.148795 
C -5.249068 -3.048522 -5.867282 -1.556021 -5.867282 0 
C -5.867282 1.556021 -5.249068 3.048522 -4.148795 4.148795 
C -3.048522 5.249068 -1.556021 5.867282 0 5.867282 
z
" style="stroke: #ffffff"/>
    </defs>
    <g clip-path="url(#p73fb16c204)">
     <use xlink:href="#m4b6c72a8ef" x="113.684211" y="72" style="fill: #ffffff; stroke: #ffffff"/>
    </g>
   </g>
   <g id="text_1">
    <!-- x -->
    <g transform="translate(25.578947 12.098437) scale(0.1 -0.1)">
     <defs>
      <path id="DejaVuSans-78" d="M 3513 3500 
L 2247 1797 
L 3578 0 
L 2900 0 
L 1881 1375 
L 863 0 
L 184 0 
L 1544 1831 
L 300 3500 
L 978 3500 
L 1906 2253 
L 2834 3500 
L 3513 3500 
z
" transform="scale(0.015625)"/>
     </defs>
     <use xlink:href="#DejaVuSans-78"/>
    </g>
   </g>
   <g id="text_2">
    <!-- y -->
    <g transform="translate(71.052632 12.098437) scale(0.1 -0.1)">
     <defs>
      <path id="DejaVuSans-79" d="M 2059 -325 
Q 1816 -950 1584 -1140 
Q 1353 -1331 966 -1331 
L 506 -1331 
L 506 -850 
L 844 -850 
Q 1081 -850 1212 -737 
Q 1344 -625 1503 -206 
L 1606 56 
L 191 3500 
L 800 3500 
L 1894 763 
L 2988 3500 
L 3597 3500 
L 2059 -325 
z
" transform="scale(0.015625)"/>
     </defs>
     <use xlink:href="#DejaVuSans-79"/>
    </g>
   </g>
   <g id="text_3">
    <!-- y -->
    <g transform="translate(25.578947 66.098438) scale(0.1 -0.1)">
     <use xlink:href="#DejaVuSans-79"/>
    </g>
   </g>
   <g id="text_4">
    <!-- x -->
    <g transform="translate(71.052632 66.098438) scale(0.1 -0.1)">
     <use xlink:href="#DejaVuSans-78"/>
    </g>
   </g>
   <g id="text_5">
    <!-- x -->
    <g transform="translate(25.578947 138.098437) scale(0.1 -0.1)">
     <use xlink:href="#DejaVuSans-78"/>
    </g>
   </g>
   <g id="text_6">
    <!-- y -->
    <g transform="translate(71.052632 138.098437) scale(0.1 -0.1)">
     <use xlink:href="#DejaVuSans-79"/>
    </g>
   </g>
   <g id="text_7">
    <!-- x -->
    <g transform="translate(162 12.098437) scale(0.1 -0.1)">
     <use xlink:href="#DejaVuSans-78"/>
    </g>
   </g>
   <g id="text_8">
    <!-- y -->
    <g transform="translate(207.473684 12.098437) scale(0.1 -0.1)">
     <use xlink:href="#DejaVuSans-79"/>
    </g>
   </g>
   <g id="text_9">
    <g clip-path="url(#p73fb16c204)">
     <!-- = -->
     <g transform="translate(108.656398 75.31125) scale(0.12 -0.12)">
      <defs>
       <path id="DejaVuSans-3d" d="M 678 2906 
L 4684 2906 
L 4684 2381 
L 678 2381 
L 678 2906 
z
M 678 1631 
L 4684 1631 
L 4684 1100 
L 678 1100 
L 678 1631 
z
" transform="scale(0.015625)"/>
      </defs>
      <use xlink:href="#DejaVuSans-3d"/>
     </g>
    </g>
   </g>
  </g>
 </g>
 <defs>
  <clipPath id="p73fb16c204">
   <rect x="0" y="0" width="216" height="144"/>
  </clipPath>
 </defs>
</svg>
