<?xml version="1.0" encoding="utf-8" standalone="no"?>
<!DOCTYPE svg PUBLIC "-//W3C//DTD SVG 1.1//EN"
  "http://www.w3.org/Graphics/SVG/1.1/DTD/svg11.dtd">
<svg xmlns:xlink="http://www.w3.org/1999/xlink" width="216pt" height="144pt" viewBox="0 0 216 144" xmlns="http://www.w3.org/2000/svg" version="1.1">
 <metadata>
  <rdf:RDF xmlns:dc="http://purl.org/dc/elements/1.1/" xmlns:cc="http://creativecommons.org/ns#" xmlns:rdf="http://www.w3.org/1999/02/22-rdf-syntax-ns#">
   <cc:Work>
    <dc:type rdf:resource="http://purl.org/dc/dcmitype/StillImage"/>
    <dc:format>image/svg+xml</dc:format>
    <dc:creator>
     <cc:Agent>
      <dc:title>Matplotlib v3.10.9, https://matplotlib.org/</dc:title>
     </cc:Agent>
    </dc:creator>
   </cc:Work>
  </rdf:RDF>
 </metadata>
 <defs>
  <style type="text/css">*{stroke-linejoin: round; stroke-linecap: butt}</style>
 </defs>
 <g id="figure_1">
  <g id="patch_1">
   <path d="M 0 144 
L 216 144 
L 216 0 
L 0 0 
z
" style="fill: #ffffff"/>
  </g>
  <g id="axes_1">
   <g id="patch_2">
    <path d="M 0 144 
L 216 144 
L 216 0 
L 0 0 
z
" clip-path="url(#p73fb16c204)" style="fill: #ffffff; stroke: #ffffff; stroke-linejoin: miter"/>
   </g>
   <g id="patch_3">
    <path d="M 0 144 
Q 0 0 0 0 
L 216 0 
L 216 144 
z
" clip-path="url(#p73fb16c204)" style="fill: #ffffff"/>
   </g>
   <g id="patch_4">
    <path d="M 15.428571 48 
Q 15.428571 96 15.428571 96 
L 216 96 
L 216 48 
z
" clip-path="url(#p73fb16c204)" style="fill: #ffffff"/>
   </g>
   <g id="patch_5">
    <path d="M 30.857143 24 
Q 15.428571 24 15.428571 48 
L 216 48 
L 216 24 
z
" clip-path="url(#p73fb16c204)" style="fill: #ffffff"/>
   </g>
   <g id="patch_6">
    <path d="M 15.428571 0 
Q 15.428571 24 30.857143 24 
L 216 24 
L 216 0 
z
" clip-path="url(#p73fb16c204)" style="fill: #ffffff"/>
   </g>
   <g id="patch_7">
    <path d="M 30.857143 120 
Q 15.428571 120 15.428571 144 
L 216 144 
L 216 120 
z
" clip-path="url(#p73fb16c204)" style="fill: #ffffff"/>
   </g>
   <g id="patch_8">
    <path d="M 15.428571 96 
Q 15.428571 120 30.857143 120 
L 216 120 
L 216 96 
z
" clip-path="url(#p73fb16c204)" style="fill: #ffffff"/>
   </g>
   <g id="patch_9">
    <path d="M 30.857143 24 
Q 46.285714 24 46.285714 48 
L 216 48 
L 216 24 
z
" clip-path="url(#p73fb16c204)" style="fill: #ffffff"/>
   </g>
   <g id="patch_10">
    <path d="M 46.285714 0 
Q 46.285714 24 30.857143 24 
L 216 24 
L 216 0 
z
" clip-path="url(#p73fb16c204)" style="fill: #ffffff"/>
   </g>
   <g id="patch_11">
    <path d="M 30.857143 120 
Q 46.285714 120 46.285714 144 
L 216 144 
L 216 120 
z
" clip-path="url(#p73fb16c204)" style="fill: #ffffff"/>
   </g>
   <g id="patch_12">
    <path d="M 46.285714 96 
Q 46.285714 120 30.857143 120 
L 216 120 
L 216 96 
z
" clip-path="url(#p73fb16c204)" style="fill: #ffffff"/>
   </g>
   <g id="patch_13">
    <path d="M 61.714286 72 
Q 46.285714 72 46.285714 96 
L 216 96 
L 216 72 
z
" clip-path="url(#p73fb16c204)" style="fill: #ffffff"/>
   </g>
   <g id="patch_14">
    <path d="M 46.285714 48 
Q 46.285714 72 61.714286 72 
L 216 72 
L 216 48 
z
" clip-path="url(#p73fb16c204)" style="fill: #ffffff"/>
   </g>
   <g id="patch_15">
    <path d="M 61.714286 72 
Q 77.142857 72 77.142857 96 
L 216 96 
L 216 72 
z
" clip-path="url(#p73fb16c204)" style="fill: #ffffff"/>
   </g>
   <g id="patch_16">
    <path d="M 77.142857 48 
Q 77.142857 72 61.714286 72 
L 216 72 
L 216 48 
z
" clip-path="url(#p73fb16c204)" style="fill: #ffffff"/>
   </g>
   <g id="patch_17">
    <path d="M 77.142857 0 
Q 77.142857 48 77.142857 48 
L 216 48 
L 216 0 
z
" clip-path="url(#p73fb16c204)" style="fill: #ffffff"/>
   </g>
   <g id="patch_18">
    <path d="M 77.142857 96 
Q 77.142857 144 77.142857 144 
L 216 144 
L 216 96 
z
" clip-path="url(#p73fb16c204)" style="fill: #ffffff"/>
   </g>
   <g id="patch_19">
    <path d="M 138.857143 0 
Q 138.857143 48 138.857143 48 
L 216 48 
L 216 0 
z
" clip-path="url(#p73fb16c204)" style="fill: #ffffff"/>
   </g>
   <g id="patch_20">
    <path d="M 138.857143 96 
Q 138.857143 144 138.857143 144 
L 216 144 
L 216 96 
z
" clip-path="url(#p73fb16c204)" style="fill: #ffffff"/>
   </g>
   <g id="patch_21">
    <path d="M 154.285714 72 
Q 138.857143 72 138.857143 96 
L 216 96 
L 216 72 
z
" clip-path="url(#p73fb16c204)" style="fill: #ffffff"/>
   </g>
   <g id="patch_22">
    <path d="M 138.857143 48 
Q 138.857143 72 154.285714 72 
L 216 72 
L 216 48 
z
" clip-path="url(#p73fb16c204)" style="fill: #ffffff"/>
   </g>
   <g id="patch_23">
    <path d="M 154.285714 72 
Q 169.714286 72 169.714286 96 
L 216 96 
L 216 72 
z
" clip-path="url(#p73fb16c204)" style="fill: #ffffff"/>
   </g>
   <g id="patch_24">
    <path d="M 169.714286 48 
Q 169.714286 72 154.285714 72 
L 216 72 
L 216 48 
z
" clip-path="url(#p73fb16c204)" style="fill: #ffffff"/>
   </g>
   <g id="patch_25">
    <path d="M 185.142857 24 
Q 169.714286 24 169.714286 48 
L 216 48 
L 216 24 
z
" clip-path="url(#p73fb16c204)" style="fill: #ffffff"/>
   </g>
   <g id="patch_26">
    <path d="M 169.714286 0 
Q 169.714286 24 185.142857 24 
L 216 24 
L 216 0 
z
" clip-path="url(#p73fb16c204)" style="fill: #ffffff"/>
   </g>
   <g id="patch_27">
    <path d="M 185.142857 120 
Q 169.714286 120 169.714286 144 
L 216 144 
L 216 120 
z
" clip-path="url(#p73fb16c204)" style="fill: #ffffff"/>
   </g>
   <g id="patch_28">
    <path d="M 169.714286 96 
Q 169.714286 120 185.142857 120 
L 216 120 
L 216 96 
z
" clip-path="url(#p73fb16c204)" style="fill: #ffffff"/>
   </g>
   <g id="patch_29">
    <path d="M 185.142857 24 
Q 200.571429 24 200.571429 48 
L 216 48 
L 216 24 
z
" clip-path="url(#p73fb16c204)" style="fill: #ffffff"/>
   </g>
   <g id="patch_30">
    <path d="M 200.571429 0 
Q 200.571429 24 185.142857 24 
L 216 24 
L 216 0 
z
" clip-path="url(#p73fb16c204)" style="fill: #ffffff"/>
   </g>
   <g id="patch_31">
    <path d="M 185.142857 120 
Q 200.571429 120 200.571429 144 
L 216 144 
L 216 120 
z
" clip-path="url(#p73fb16c204)" style="fill: #ffffff"/>
   </g>
   <g id="patch_32">
    <path d="M 200.571429 96 
Q 200.571429 120 185.142857 120 
L 216 120 
L 216 96 
z
" clip-path="url(#p73fb16c204)" style="fill: #ffffff"/>
   </g>
   <g id="patch_33">
    <path d="M 200.571429 48 
Q 200.571429 96 200.571429 96 
L 216 96 
L 216 48 
z
" clip-path="url(#p73fb16c204)" style="fill: #ffffff"/>
   </g>
   <g id="patch_34">
    <path d="M 15.428571 0 
C 15.428571 24 46.285714 24 46.285714 48 
" clip-path="url(#p73fb16c204)" style="fill: none; stroke: #000000; stroke-linejoin: miter"/>
   </g>
   <g id="patch_35">
    <path d="M 46.285714 0 
C 46.285714 24 15.428571 24 15.428571 48 
" clip-path="url(#p73fb16c204)" style="fill: none; stroke: #000000; stroke-linejoin: miter"/>
   </g>
   <g id="patch_36">
    <path d="M 46.285714 48 
C 46.285714 72 77.142857 72 77.142857 96 
" clip-path="url(#p73fb16c204)" style="fill: none; stroke: #000000; stroke-linejoin: miter"/>
   </g>
   <g id="patch_37">
    <path d="M 77.142857 48 
C 77.142857 72 46.285714 72 46.285714 96 
" clip-path="url(#p73fb16c204)" style="fill: none; stroke: #000000; stroke-linejoin: miter"/>
   </g>
   <g id="patch_38">
    <path d="M 15.428571 96 
C 15.428571 120 46.285714 120 46.285714 144 
" clip-path="url(#p73fb16c204)" style="fill: none; stroke: #000000; stroke-linejoin: miter"/>
   </g>
   <g id="patch_39">
    <path d="M 46.285714 96 
C 46.285714 120 15.428571 120 15.428571 144 
" clip-path="url(#p73fb16c204)" style="fill: none; stroke: #000000; stroke-linejoin: miter"/>
   </g>
   <g id="patch_40">
    <path d="M 169.714286 0 
C 169.714286 24 200.571429 24 200.571429 48 
" clip-path="url(#p73fb16c204)" style="fill: none; stroke: #000000; stroke-linejoin: miter"/>
   </g>
   <g id="patch_41">
    <path d="M 200.571429 0 
C 200.571429 24 169.714286 24 169.714286 48 
" clip-path="url(#p73fb16c204)" style="fill: none; stroke: #000000; stroke-linejoin: miter"/>
   </g>
   <g id="patch_42">
    <path d="M 138.857143 48 
C 138.857143 72 169.714286 72 169.714286 96 
" clip-path="url(#p73fb16c204)" style="fill: none; stroke: #000000; stroke-linejoin: miter"/>
   </g>
   <g id="patch_43">
    <path d="M 169.714286 48 
C 169.714286 72 138.857143 72 138.857143 96 
" clip-path="url(#p73fb16c204)" style="fill: none; stroke: #000000; stroke-linejoin: miter"/>
   </g>
   <g id="patch_44">
    <path d="M 169.714286 96 
C 169.714286 120 200.571429 120 200.571429 144 
" clip-path="url(#p73fb16c204)" style="fill: none; stroke: #000000; stroke-linejoin: miter"/>
   </g>
   <g id="patch_45">
    <path d="M 200.571429 96 
C 200.571429 120 169.714286 120 169.714286 144 
" clip-path="url(#p73fb16c204)" style="fill: none; stroke: #000000; stroke-linejoin: miter"/>
   </g>
   <g id="patch_46">
    <path d="M 15.428571 48 
Q 15.428571 96 15.428571 96 
" clip-path="url(#p73fb16c204)" style="fill: none; stroke: #000000; stroke-linejoin: miter"/>
   </g>
   <g id="patch_47">
    <path d="M 77.142857 0 
Q 77.142857 48 77.142857 48 
" clip-path="url(#p73fb16c204)" style="fill: none; stroke: #000000; stroke-linejoin: miter"/>
   </g>
   <g id="patch_48">
    <path d="M 77.142857 96 
Q 77.142857 144 77.142857 144 
" clip-path="url(#p73fb16c204)" style="fill: none; stroke: #000000; stroke-linejoin: miter"/>
   </g>
   <g id="patch_49">
    <path d="M 138.857143 0 
Q 138.857143 48 138.857143 48 
" clip-path="url(#p73fb16c204)" style="fill: none; stroke: #000000; stroke-linejoin: miter"/>
   </g>
   <g id="patch_50">
    <path d="M 200.571429 48 
Q 200.571429 96 200.571429 96 
" clip-path="url(#p73fb16c204)" style="fill: none; stroke: #000000; stroke-linejoin: miter"/>
   </g>
   <g id="patch_51">
    <path d="M 138.857143 96 
Q 138.857143 144 138.857143 144 
" clip-path="url(#p73fb16c204)" style="fill: none; stroke: #000000; stroke-linejoin: miter"/>
   </g>
   <g id="PathCollection_1">
    <defs>
     <path id="mdff8cb2796" d="M 0 5.324472 
C 1.412066 5.324472 2.766488 4.763452 3.76497 3.76497 
C 4.763452 2.766488 5.324472 1.412066 5.324472 0 
C 5.324472 -1.412066 4.763452 -2.766488 3.76497 -3.76497 
C 2.766488 -4.763452 1.412066 -5.324472 0 -5.324472 
C -1.412066 -5.324472 -2.766488 -4.763452 -3.76497 -3.76497 
C -4.763452 -2.766488 -5.324472 -1.412066 -5.324472 0 
C -5.324472 1.412066 -4.763452 2.766488 -3.76497 3.76497 
C -2.766488 4.763452 -1.412066 5.324472 0 5.324472 
z
" style="stroke: #ffffff"/>
    </defs>
    <g clip-path="url(#p73fb16c204)">
     <use xlink:href="#mdff8cb2796" x="108" y="72" style="fill: #ffffff; stroke: #ffffff"/>
    </g>
   </g>
   <g id="text_1">
    <!-- x -->
    <g transform="translate(17.357143 10.598437) scale(0.1 -0.1)">
     <defs>
      <path id="DejaVuSans-78" d="M 3513 3500 
L 2247 1797 
L 3578 0 
L 2900 0 
L 1881 1375 
L 863 0 
L 184 0 
L 1544 1831 
L 300 3500 
L 978 3500 
L 1906 2253 
L 2834 3500 
L 3513 3500 
z
" transform="scale(0.015625)"/>
     </defs>
     <use xlink:href="#DejaVuSans-78"/>
    </g>
   </g>
   <g id="text_2">
    <!-- y -->
    <g transform="translate(48.214286 10.598437) scale(0.1 -0.1)">
     <defs>
      <path id="DejaVuSans-79" d="M 2059 -325 
Q 1816 -950 1584 -1140 
Q 1353 -1331 966 -1331 
L 506 -1331 
L 506 -850 
L 844 -850 
Q 1081 -850 1212 -737 
Q 1344 -625 1503 -206 
L 1606 56 
L 191 3500 
L 800 3500 
L 1894 763 
L 2988 3500 
L 3597 3500 
L 2059 -325 
z
" transform="scale(0.015625)"/>
     </defs>
     <use xlink:href="#DejaVuSans-79"/>
    </g>
   </g>
   <g id="text_3">
    <!-- y -->
    <g transform="translate(17.357143 46.598438) scale(0.1 -0.1)">
     <use xlink:href="#DejaVuSans-79"/>
    </g>
   </g>
   <g id="text_4">
    <!-- x -->
    <g transform="translate(48.214286 46.598438) scale(0.1 -0.1)">
     <use xlink:href="#DejaVuSans-78"/>
    </g>
   </g>
   <g id="text_5">
    <!-- z -->
    <g transform="translate(79.071429 10.598437) scale(0.1 -0.1)">
     <defs>
      <path id="DejaVuSans-7a" d="M 353 3500 
L 3084 3500 
L 3084 2975 
L 922 459 
L 3084 459 
L 3084 0 
L 275 0 
L 275 525 
L 2438 3041 
L 353 3041 
L 353 3500 
z
" transform="scale(0.015625)"/>
     </defs>
     <use xlink:href="#DejaVuSans-7a"/>
    </g>
   </g>
   <g id="text_6">
    <!-- z -->
    <g transform="translate(48.214286 94.598438) scale(0.1 -0.1)">
     <use xlink:href="#DejaVuSans-7a"/>
    </g>
   </g>
   <g id="text_7">
    <!-- x -->
    <g transform="translate(79.071429 94.598438) scale(0.1 -0.1)">
     <use xlink:href="#DejaVuSans-78"/>
    </g>
   </g>
   <g id="text_8">
    <!-- z -->
    <g transform="translate(17.357143 142.598437) scale(0.1 -0.1)">
     <use xlink:href="#DejaVuSans-7a"/>
    </g>
   </g>
   <g id="text_9">
    <!-- y -->
    <g transform="translate(48.214286 142.598437) scale(0.1 -0.1)">
     <use xlink:href="#DejaVuSans-79"/>
    </g>
   </g>
   <g id="text_10">
    <!-- x -->
    <g transform="translate(140.785714 10.598437) scale(0.1 -0.1)">
     <use xlink:href="#DejaVuSans-78"/>
    </g>
   </g>
   <g id="text_11">
    <!-- y -->
    <g transform="translate(171.642857 10.598437) scale(0.1 -0.1)">
     <use xlink:href="#DejaVuSans-79"/>
    </g>
   </g>
   <g id="text_12">
    <!-- z -->
    <g transform="translate(202.5 10.598437) scale(0.1 -0.1)">
     <use xlink:href="#DejaVuSans-7a"/>
    </g>
   </g>
   <g id="text_13">
    <!-- z -->
    <g transform="translate(171.642857 46.598438) scale(0.1 -0.1)">
     <use xlink:href="#DejaVuSans-7a"/>
    </g>
   </g>
   <g id="text_14">
    <!-- y -->
    <g transform="translate(202.5 46.598438) scale(0.1 -0.1)">
     <use xlink:href="#DejaVuSans-79"/>
    </g>
   </g>
   <g id="text_15">
    <!-- z -->
    <g transform="translate(140.785714 94.598438) scale(0.1 -0.1)">
     <use xlink:href="#DejaVuSans-7a"/>
    </g>
   </g>
   <g id="text_16">
    <!-- x -->
    <g transform="translate(171.642857 94.598438) scale(0.1 -0.1)">
     <use xlink:href="#DejaVuSans-78"/>
    </g>
   </g>
   <g id="text_17">
    <!-- y -->
    <g transform="translate(171.642857 142.598437) scale(0.1 -0.1)">
     <use xlink:href="#DejaVuSans-79"/>
    </g>
   </g>
   <g id="text_18">
    <!-- x -->
    <g transform="translate(202.5 142.598437) scale(0.1 -0.1)">
     <use xlink:href="#DejaVuSans-78"/>
    </g>
   </g>
   <g id="text_19">
    <g clip-path="url(#p73fb16c204)">
     <!-- = -->
     <g transform="translate(102.972187 75.31125) scale(0.12 -0.12)">
      <defs>
       <path id="DejaVuSans-3d" d="M 678 2906 
L 4684 2906 
L 4684 2381 
L 678 2381 
L 678 2906 
z
M 678 1631 
L 4684 1631 
L 4684 1100 
L 678 1100 
L 678 1631 
z
" transform="scale(0.015625)"/>
      </defs>
      <use xlink:href="#DejaVuSans-3d"/>
     </g>
    </g>
   </g>
  </g>
 </g>
 <defs>
  <clipPath id="p73fb16c204">
   <rect x="0" y="0" width="216" height="144"/>
  </clipPath>
 </defs>
</svg>
