<?xml version="1.0" encoding="utf-8" standalone="no"?>
<!DOCTYPE svg PUBLIC "-//W3C//DTD SVG 1.1//EN"
  "http://www.w3.org/Graphics/SVG/1.1/DTD/svg11.dtd">
<svg xmlns:xlink="http://www.w3.org/1999/xlink" width="360pt" height="360pt" viewBox="0 0 360 360" xmlns="http://www.w3.org/2000/svg" version="1.1">
 <metadata>
  <rdf:RDF xmlns:dc="http://purl.org/dc/elements/1.1/" xmlns:cc="http://creativecommons.org/ns#" xmlns:rdf="http://www.w3.org/1999/02/22-rdf-syntax-ns#">
   <cc:Work>
    <dc:type rdf:resource="http://purl.org/dc/dcmitype/StillImage"/>
    <dc:format>image/svg+xml</dc:format>
    <dc:creator>
     <cc:Agent>
      <dc:title>Matplotlib v3.10.9, https://matplotlib.org/</dc:title>
     </cc:Agent>
    </dc:creator>
   </cc:Work>
  </rdf:RDF>
 </metadata>
 <defs>
  <style type="text/css">*{stroke-linejoin: round; stroke-linecap: butt}</style>
 </defs>
 <g id="figure_1">
  <g id="patch_1">
   <path d="M 0 360 
L 360 360 
L 360 0 
L 0 0 
z
" style="fill: #ffffff"/>
  </g>
  <g id="axes_1">
   <g id="patch_2">
    <path d="M 0 360 
L 360 360 
L 360 0 
L 0 0 
z
" clip-path="url(#p90874ca47f)" style="fill: #ffffff; stroke: #ffffff; stroke-linejoin: miter"/>
   </g>
   <g id="patch_3">
    <path d="M 0 360 
Q 0 0 0 0 
L 360 0 
L 360 360 
z
" clip-path="url(#p90874ca47f)" style="fill: #ffffff"/>
   </g>
   <g id="patch_4">
    <path d="M 18 72 
Q 18 288 18 288 
L 360 288 
L 360 72 
z
" clip-path="url(#p90874ca47f)" style="fill: #ffffff"/>
   </g>
   <g id="patch_5">
    <path d="M 54 90 
Q 54 198 54 198 
L 360 198 
L 360 90 
z
" clip-path="url(#p90874ca47f)" style="fill: #ffffff"/>
   </g>
   <g id="patch_6">
    <path d="M 72 0 
Q 72 72 72 72 
L 360 72 
L 360 0 
z
" clip-path="url(#p90874ca47f)" style="fill: #ffffff"/>
   </g>
   <g id="patch_7">
    <path d="M 72 72 
Q 72 90 72 90 
L 360 90 
L 360 72 
z
" clip-path="url(#p90874ca47f)" style="fill: #ffffff"/>
   </g>
   <g id="patch_8">
    <path d="M 180 36 
Q 18 36 18 72 
L 360 72 
L 360 36 
z
" clip-path="url(#p90874ca47f)" style="fill: #ffffff"/>
   </g>
   <g id="patch_9">
    <path d="M 18 288 
Q 18 324 180 324 
L 360 324 
L 360 288 
z
" clip-path="url(#p90874ca47f)" style="fill: #ffffff"/>
   </g>
   <g id="patch_10">
    <path d="M 108 162 
Q 108 198 108 198 
L 360 198 
L 360 162 
z
" clip-path="url(#p90874ca47f)" style="fill: #ffffff"/>
   </g>
   <g id="patch_11">
    <path d="M 180 90 
Q 54 90 54 90 
L 360 90 
L 360 90 
z
" clip-path="url(#p90874ca47f)" style="fill: #ffffff"/>
   </g>
   <g id="patch_12">
    <path d="M 54 198 
Q 54 198 180 198 
L 360 198 
L 360 198 
z
" clip-path="url(#p90874ca47f)" style="fill: #ffffff"/>
   </g>
   <g id="patch_13">
    <path d="M 144 270 
Q 144 288 144 288 
L 360 288 
L 360 270 
z
" clip-path="url(#p90874ca47f)" style="fill: #ffffff"/>
   </g>
   <g id="patch_14">
    <path d="M 144 288 
Q 144 360 144 360 
L 360 360 
L 360 288 
z
" clip-path="url(#p90874ca47f)" style="fill: #ffffff"/>
   </g>
   <g id="patch_15">
    <path d="M 180 0 
Q 180 72 180 72 
L 360 72 
L 360 0 
z
" clip-path="url(#p90874ca47f)" style="fill: #ffffff"/>
   </g>
   <g id="patch_16">
    <path d="M 180 72 
Q 180 90 180 90 
L 360 90 
L 360 72 
z
" clip-path="url(#p90874ca47f)" style="fill: #ffffff"/>
   </g>
   <g id="patch_17">
    <path d="M 180 90 
Q 180 126 180 126 
L 360 126 
L 360 90 
z
" clip-path="url(#p90874ca47f)" style="fill: #ffffff"/>
   </g>
   <g id="patch_18">
    <path d="M 180 162 
Q 180 198 180 198 
L 360 198 
L 360 162 
z
" clip-path="url(#p90874ca47f)" style="fill: #ffffff"/>
   </g>
   <g id="patch_19">
    <path d="M 180 198 
Q 180 234 180 234 
L 360 234 
L 360 198 
z
" clip-path="url(#p90874ca47f)" style="fill: #ffffff"/>
   </g>
   <g id="patch_20">
    <path d="M 216 270 
Q 216 288 216 288 
L 360 288 
L 360 270 
z
" clip-path="url(#p90874ca47f)" style="fill: #ffffff"/>
   </g>
   <g id="patch_21">
    <path d="M 216 288 
Q 216 360 216 360 
L 360 360 
L 360 288 
z
" clip-path="url(#p90874ca47f)" style="fill: #ffffff"/>
   </g>
   <g id="patch_22">
    <path d="M 234 234 
Q 234 270 234 270 
L 360 270 
L 360 234 
z
" clip-path="url(#p90874ca47f)" style="fill: #ffffff"/>
   </g>
   <g id="patch_23">
    <path d="M 180 90 
Q 306 90 306 90 
L 360 90 
L 360 90 
z
" clip-path="url(#p90874ca47f)" style="fill: #ffffff"/>
   </g>
   <g id="patch_24">
    <path d="M 306 198 
Q 306 198 180 198 
L 360 198 
L 360 198 
z
" clip-path="url(#p90874ca47f)" style="fill: #ffffff"/>
   </g>
   <g id="patch_25">
    <path d="M 252 0 
Q 252 72 252 72 
L 360 72 
L 360 0 
z
" clip-path="url(#p90874ca47f)" style="fill: #ffffff"/>
   </g>
   <g id="patch_26">
    <path d="M 252 72 
Q 252 90 252 90 
L 360 90 
L 360 72 
z
" clip-path="url(#p90874ca47f)" style="fill: #ffffff"/>
   </g>
   <g id="patch_27">
    <path d="M 252 162 
Q 252 198 252 198 
L 360 198 
L 360 162 
z
" clip-path="url(#p90874ca47f)" style="fill: #ffffff"/>
   </g>
   <g id="patch_28">
    <path d="M 180 36 
Q 342 36 342 72 
L 360 72 
L 360 36 
z
" clip-path="url(#p90874ca47f)" style="fill: #ffffff"/>
   </g>
   <g id="patch_29">
    <path d="M 342 288 
Q 342 324 180 324 
L 360 324 
L 360 288 
z
" clip-path="url(#p90874ca47f)" style="fill: #ffffff"/>
   </g>
   <g id="patch_30">
    <path d="M 270 126 
Q 270 162 270 162 
L 360 162 
L 360 126 
z
" clip-path="url(#p90874ca47f)" style="fill: #ffffff"/>
   </g>
   <g id="patch_31">
    <path d="M 306 90 
Q 306 198 306 198 
L 360 198 
L 360 90 
z
" clip-path="url(#p90874ca47f)" style="fill: #ffffff"/>
   </g>
   <g id="patch_32">
    <path d="M 342 72 
Q 342 288 342 288 
L 360 288 
L 360 72 
z
" clip-path="url(#p90874ca47f)" style="fill: #ffffff"/>
   </g>
   <g id="patch_33">
    <path d="M 180 36 
Q 18 36 18 72 
" clip-path="url(#p90874ca47f)" style="fill: none; stroke: #000000; stroke-linejoin: miter"/>
   </g>
   <g id="patch_34">
    <path d="M 180 36 
Q 342 36 342 72 
" clip-path="url(#p90874ca47f)" style="fill: none; stroke: #000000; stroke-linejoin: miter"/>
   </g>
   <g id="patch_35">
    <path d="M 72 0 
Q 72 72 72 72 
" clip-path="url(#p90874ca47f)" style="fill: none; stroke: #000000; stroke-linejoin: miter"/>
   </g>
   <g id="patch_36">
    <path d="M 180 0 
Q 180 72 180 72 
" clip-path="url(#p90874ca47f)" style="fill: none; stroke: #000000; stroke-linejoin: miter"/>
   </g>
   <g id="patch_37">
    <path d="M 252 0 
Q 252 72 252 72 
" clip-path="url(#p90874ca47f)" style="fill: none; stroke: #000000; stroke-linejoin: miter"/>
   </g>
   <g id="patch_38">
    <path d="M 18 72 
Q 18 288 18 288 
" clip-path="url(#p90874ca47f)" style="fill: none; stroke: #000000; stroke-linejoin: miter"/>
   </g>
   <g id="patch_39">
    <path d="M 72 72 
Q 72 90 72 90 
" clip-path="url(#p90874ca47f)" style="fill: none; stroke: #000000; stroke-linejoin: miter"/>
   </g>
   <g id="patch_40">
    <path d="M 180 72 
Q 180 90 180 90 
" clip-path="url(#p90874ca47f)" style="fill: none; stroke: #000000; stroke-linejoin: miter"/>
   </g>
   <g id="patch_41">
    <path d="M 252 72 
Q 252 90 252 90 
" clip-path="url(#p90874ca47f)" style="fill: none; stroke: #000000; stroke-linejoin: miter"/>
   </g>
   <g id="patch_42">
    <path d="M 342 72 
Q 342 288 342 288 
" clip-path="url(#p90874ca47f)" style="fill: none; stroke: #000000; stroke-linejoin: miter"/>
   </g>
   <g id="patch_43">
    <path d="M 180 90 
Q 54 90 54 90 
" clip-path="url(#p90874ca47f)" style="fill: none"/>
   </g>
   <g id="patch_44">
    <path d="M 180 90 
Q 306 90 306 90 
" clip-path="url(#p90874ca47f)" style="fill: none"/>
   </g>
   <g id="patch_45">
    <path d="M 54 90 
Q 54 198 54 198 
" clip-path="url(#p90874ca47f)" style="fill: none"/>
   </g>
   <g id="patch_46">
    <path d="M 180 90 
Q 180 126 180 126 
" clip-path="url(#p90874ca47f)" style="fill: none; stroke: #000000; stroke-linejoin: miter"/>
   </g>
   <g id="patch_47">
    <path d="M 306 90 
Q 306 198 306 198 
" clip-path="url(#p90874ca47f)" style="fill: none"/>
   </g>
   <g id="patch_48">
    <path d="M 108 162 
Q 108 198 108 198 
" clip-path="url(#p90874ca47f)" style="fill: none; stroke: #000000; stroke-linejoin: miter"/>
   </g>
   <g id="patch_49">
    <path d="M 180 162 
Q 180 198 180 198 
" clip-path="url(#p90874ca47f)" style="fill: none; stroke: #000000; stroke-linejoin: miter"/>
   </g>
   <g id="patch_50">
    <path d="M 252 162 
Q 252 198 252 198 
" clip-path="url(#p90874ca47f)" style="fill: none; stroke: #000000; stroke-linejoin: miter"/>
   </g>
   <g id="patch_51">
    <path d="M 54 198 
Q 54 198 180 198 
" clip-path="url(#p90874ca47f)" style="fill: none"/>
   </g>
   <g id="patch_52">
    <path d="M 306 198 
Q 306 198 180 198 
" clip-path="url(#p90874ca47f)" style="fill: none"/>
   </g>
   <g id="patch_53">
    <path d="M 180 198 
Q 180 234 180 234 
" clip-path="url(#p90874ca47f)" style="fill: none; stroke: #000000; stroke-linejoin: miter"/>
   </g>
   <g id="patch_54">
    <path d="M 144 270 
Q 144 288 144 288 
" clip-path="url(#p90874ca47f)" style="fill: none; stroke: #000000; stroke-linejoin: miter"/>
   </g>
   <g id="patch_55">
    <path d="M 216 270 
Q 216 288 216 288 
" clip-path="url(#p90874ca47f)" style="fill: none; stroke: #000000; stroke-linejoin: miter"/>
   </g>
   <g id="patch_56">
    <path d="M 18 288 
Q 18 324 180 324 
" clip-path="url(#p90874ca47f)" style="fill: none; stroke: #000000; stroke-linejoin: miter"/>
   </g>
   <g id="patch_57">
    <path d="M 144 288 
Q 144 360 144 360 
" clip-path="url(#p90874ca47f)" style="fill: none; stroke: #000000; stroke-linejoin: miter"/>
   </g>
   <g id="patch_58">
    <path d="M 216 288 
Q 216 360 216 360 
" clip-path="url(#p90874ca47f)" style="fill: none; stroke: #000000; stroke-linejoin: miter"/>
   </g>
   <g id="patch_59">
    <path d="M 342 288 
Q 342 324 180 324 
" clip-path="url(#p90874ca47f)" style="fill: none; stroke: #000000; stroke-linejoin: miter"/>
   </g>
   <g id="patch_60">
    <path d="M 90 162 
L 90 126 
L 270 126 
L 270 162 
z
" clip-path="url(#p90874ca47f)" style="fill: #ffffff; stroke: #000000; stroke-linejoin: miter"/>
   </g>
   <g id="patch_61">
    <path d="M 126 270 
L 126 234 
L 234 234 
L 234 270 
z
" clip-path="url(#p90874ca47f)" style="fill: #ffffff; stroke: #000000; stroke-linejoin: miter"/>
   </g>
   <g id="text_1">
    <!-- x -->
    <g transform="translate(76.5 12.098437) scale(0.1 -0.1)">
     <defs>
      <path id="DejaVuSans-78" d="M 3513 3500 
L 2247 1797 
L 3578 0 
L 2900 0 
L 1881 1375 
L 863 0 
L 184 0 
L 1544 1831 
L 300 3500 
L 978 3500 
L 1906 2253 
L 2834 3500 
L 3513 3500 
z
" transform="scale(0.015625)"/>
     </defs>
     <use xlink:href="#DejaVuSans-78"/>
    </g>
   </g>
   <g id="text_2">
    <!-- x -->
    <g transform="translate(184.5 12.098437) scale(0.1 -0.1)">
     <use xlink:href="#DejaVuSans-78"/>
    </g>
   </g>
   <g id="text_3">
    <!-- x -->
    <g transform="translate(256.5 12.098437) scale(0.1 -0.1)">
     <use xlink:href="#DejaVuSans-78"/>
    </g>
   </g>
   <g id="text_4">
    <!-- x -->
    <g transform="translate(76.5 66.098437) scale(0.1 -0.1)">
     <use xlink:href="#DejaVuSans-78"/>
    </g>
   </g>
   <g id="text_5">
    <!-- x -->
    <g transform="translate(184.5 66.098437) scale(0.1 -0.1)">
     <use xlink:href="#DejaVuSans-78"/>
    </g>
   </g>
   <g id="text_6">
    <!-- x -->
    <g transform="translate(256.5 66.098437) scale(0.1 -0.1)">
     <use xlink:href="#DejaVuSans-78"/>
    </g>
   </g>
   <g id="text_7">
    <!-- x -->
    <g transform="translate(184.5 102.098437) scale(0.1 -0.1)">
     <use xlink:href="#DejaVuSans-78"/>
    </g>
   </g>
   <g id="text_8">
    <!-- y -->
    <g transform="translate(112.5 174.098437) scale(0.1 -0.1)">
     <defs>
      <path id="DejaVuSans-79" d="M 2059 -325 
Q 1816 -950 1584 -1140 
Q 1353 -1331 966 -1331 
L 506 -1331 
L 506 -850 
L 844 -850 
Q 1081 -850 1212 -737 
Q 1344 -625 1503 -206 
L 1606 56 
L 191 3500 
L 800 3500 
L 1894 763 
L 2988 3500 
L 3597 3500 
L 2059 -325 
z
" transform="scale(0.015625)"/>
     </defs>
     <use xlink:href="#DejaVuSans-79"/>
    </g>
   </g>
   <g id="text_9">
    <!-- y -->
    <g transform="translate(184.5 174.098437) scale(0.1 -0.1)">
     <use xlink:href="#DejaVuSans-79"/>
    </g>
   </g>
   <g id="text_10">
    <!-- y -->
    <g transform="translate(256.5 174.098437) scale(0.1 -0.1)">
     <use xlink:href="#DejaVuSans-79"/>
    </g>
   </g>
   <g id="text_11">
    <!-- y -->
    <g transform="translate(184.5 210.098437) scale(0.1 -0.1)">
     <use xlink:href="#DejaVuSans-79"/>
    </g>
   </g>
   <g id="text_12">
    <!-- y -->
    <g transform="translate(148.5 282.098437) scale(0.1 -0.1)">
     <use xlink:href="#DejaVuSans-79"/>
    </g>
   </g>
   <g id="text_13">
    <!-- y -->
    <g transform="translate(220.5 282.098437) scale(0.1 -0.1)">
     <use xlink:href="#DejaVuSans-79"/>
    </g>
   </g>
   <g id="text_14">
    <!-- y -->
    <g transform="translate(148.5 354.098437) scale(0.1 -0.1)">
     <use xlink:href="#DejaVuSans-79"/>
    </g>
   </g>
   <g id="text_15">
    <!-- y -->
    <g transform="translate(220.5 354.098437) scale(0.1 -0.1)">
     <use xlink:href="#DejaVuSans-79"/>
    </g>
   </g>
   <g id="text_16">
    <!-- f -->
    <g transform="translate(178.239844 146.759375) scale(0.1 -0.1)">
     <defs>
      <path id="DejaVuSans-66" d="M 2375 4863 
L 2375 4384 
L 1825 4384 
Q 1516 4384 1395 4259 
Q 1275 4134 1275 3809 
L 1275 3500 
L 2222 3500 
L 2222 3053 
L 1275 3053 
L 1275 0 
L 697 0 
L 697 3053 
L 147 3053 
L 147 3500 
L 697 3500 
L 697 3744 
Q 697 4328 969 4595 
Q 1241 4863 1831 4863 
L 2375 4863 
z
" transform="scale(0.015625)"/>
     </defs>
     <use xlink:href="#DejaVuSans-66"/>
    </g>
   </g>
   <g id="text_17">
    <!-- g -->
    <g transform="translate(176.825781 254.759375) scale(0.1 -0.1)">
     <defs>
      <path id="DejaVuSans-67" d="M 2906 1791 
Q 2906 2416 2648 2759 
Q 2391 3103 1925 3103 
Q 1463 3103 1205 2759 
Q 947 2416 947 1791 
Q 947 1169 1205 825 
Q 1463 481 1925 481 
Q 2391 481 2648 825 
Q 2906 1169 2906 1791 
z
M 3481 434 
Q 3481 -459 3084 -895 
Q 2688 -1331 1869 -1331 
Q 1566 -1331 1297 -1286 
Q 1028 -1241 775 -1147 
L 775 -588 
Q 1028 -725 1275 -790 
Q 1522 -856 1778 -856 
Q 2344 -856 2625 -561 
Q 2906 -266 2906 331 
L 2906 616 
Q 2728 306 2450 153 
Q 2172 0 1784 0 
Q 1141 0 747 490 
Q 353 981 353 1791 
Q 353 2603 747 3093 
Q 1141 3584 1784 3584 
Q 2172 3584 2450 3431 
Q 2728 3278 2906 2969 
L 2906 3500 
L 3481 3500 
L 3481 434 
z
" transform="scale(0.015625)"/>
     </defs>
     <use xlink:href="#DejaVuSans-67"/>
    </g>
   </g>
  </g>
 </g>
 <defs>
  <clipPath id="p90874ca47f">
   <rect x="0" y="0" width="360" height="360"/>
  </clipPath>
 </defs>
</svg>
