<?xml version="1.0" encoding="utf-8" standalone="no"?>
<!DOCTYPE svg PUBLIC "-//W3C//DTD SVG 1.1//EN"
  "http://www.w3.org/Graphics/SVG/1.1/DTD/svg11.dtd">
<svg xmlns:xlink="http://www.w3.org/1999/xlink" width="216pt" height="216pt" viewBox="0 0 216 216" xmlns="http://www.w3.org/2000/svg" version="1.1">
 <metadata>
  <rdf:RDF xmlns:dc="http://purl.org/dc/elements/1.1/" xmlns:cc="http://creativecommons.org/ns#" xmlns:rdf="http://www.w3.org/1999/02/22-rdf-syntax-ns#">
   <cc:Work>
    <dc:type rdf:resource="http://purl.org/dc/dcmitype/StillImage"/>
    <dc:format>image/svg+xml</dc:format>
    <dc:creator>
     <cc:Agent>
      <dc:title>Matplotlib v3.10.9, https://matplotlib.org/</dc:title>
     </cc:Agent>
    </dc:creator>
   </cc:Work>
  </rdf:RDF>
 </metadata>
 <defs>
  <style type="text/css">*{stroke-linejoin: round; stroke-linecap: butt}</style>
 </defs>
 <g id="figure_1">
  <g id="patch_1">
   <path d="M 0 216 
L 216 216 
L 216 0 
L 0 0 
z
" style="fill: #ffffff"/>
  </g>
  <g id="axes_1">
   <g id="patch_2">
    <path d="M 0 216 
L 216 216 
L 216 0 
L 0 0 
z
" clip-path="url(#pafddef305a)" style="fill: #ffffff; stroke: #ffffff; stroke-linejoin: miter"/>
   </g>
   <g id="patch_3">
    <path d="M 0 216 
Q 0 0 0 0 
L 216 0 
L 216 216 
z
" clip-path="url(#pafddef305a)" style="fill: #0000ff"/>
   </g>
   <g id="patch_4">
    <path d="M 18 18 
Q 18 198 18 198 
L 216 198 
L 216 18 
z
" clip-path="url(#pafddef305a)" style="fill: #d3d3d3"/>
   </g>
   <g id="patch_5">
    <path d="M 36 18 
Q 18 18 18 18 
L 216 18 
L 216 18 
z
" clip-path="url(#pafddef305a)" style="fill: #d3d3d3"/>
   </g>
   <g id="patch_6">
    <path d="M 18 198 
Q 18 198 36 198 
L 216 198 
L 216 198 
z
" clip-path="url(#pafddef305a)" style="fill: #d3d3d3"/>
   </g>
   <g id="patch_7">
    <path d="M 54 54 
Q 54 162 54 162 
L 216 162 
L 216 54 
z
" clip-path="url(#pafddef305a)" style="fill: #ff0000"/>
   </g>
   <g id="patch_8">
    <path d="M 108 54 
Q 54 54 54 54 
L 216 54 
L 216 54 
z
" clip-path="url(#pafddef305a)" style="fill: #ff0000"/>
   </g>
   <g id="patch_9">
    <path d="M 54 162 
Q 54 162 108 162 
L 216 162 
L 216 162 
z
" clip-path="url(#pafddef305a)" style="fill: #ff0000"/>
   </g>
   <g id="patch_10">
    <path d="M 108 0 
Q 108 18 108 18 
L 216 18 
L 216 0 
z
" clip-path="url(#pafddef305a)" style="fill: #ff0000"/>
   </g>
   <g id="patch_11">
    <path d="M 108 54 
Q 108 90 108 90 
L 216 90 
L 216 54 
z
" clip-path="url(#pafddef305a)" style="fill: #0000ff"/>
   </g>
   <g id="patch_12">
    <path d="M 108 126 
Q 108 162 108 162 
L 216 162 
L 216 126 
z
" clip-path="url(#pafddef305a)" style="fill: #0000ff"/>
   </g>
   <g id="patch_13">
    <path d="M 108 198 
Q 108 216 108 216 
L 216 216 
L 216 198 
z
" clip-path="url(#pafddef305a)" style="fill: #ff0000"/>
   </g>
   <g id="patch_14">
    <path d="M 36 18 
Q 198 18 198 18 
L 216 18 
L 216 18 
z
" clip-path="url(#pafddef305a)" style="fill: #ff0000"/>
   </g>
   <g id="patch_15">
    <path d="M 198 198 
Q 198 198 36 198 
L 216 198 
L 216 198 
z
" clip-path="url(#pafddef305a)" style="fill: #ff0000"/>
   </g>
   <g id="patch_16">
    <path d="M 126 90 
Q 126 126 126 126 
L 216 126 
L 216 90 
z
" clip-path="url(#pafddef305a)" style="fill: #0000ff"/>
   </g>
   <g id="patch_17">
    <path d="M 108 54 
Q 162 54 162 54 
L 216 54 
L 216 54 
z
" clip-path="url(#pafddef305a)" style="fill: #d3d3d3"/>
   </g>
   <g id="patch_18">
    <path d="M 162 162 
Q 162 162 108 162 
L 216 162 
L 216 162 
z
" clip-path="url(#pafddef305a)" style="fill: #d3d3d3"/>
   </g>
   <g id="patch_19">
    <path d="M 162 54 
Q 162 162 162 162 
L 216 162 
L 216 54 
z
" clip-path="url(#pafddef305a)" style="fill: #d3d3d3"/>
   </g>
   <g id="patch_20">
    <path d="M 198 18 
Q 198 198 198 198 
L 216 198 
L 216 18 
z
" clip-path="url(#pafddef305a)" style="fill: #ff0000"/>
   </g>
   <g id="patch_21">
    <path d="M 36 18 
Q 18 18 18 18 
" clip-path="url(#pafddef305a)" style="fill: none"/>
   </g>
   <g id="patch_22">
    <path d="M 36 18 
Q 198 18 198 18 
" clip-path="url(#pafddef305a)" style="fill: none"/>
   </g>
   <g id="patch_23">
    <path d="M 108 0 
Q 108 18 108 18 
" clip-path="url(#pafddef305a)" style="fill: none; stroke: #000000; stroke-linejoin: miter"/>
   </g>
   <g id="patch_24">
    <path d="M 18 18 
Q 18 198 18 198 
" clip-path="url(#pafddef305a)" style="fill: none"/>
   </g>
   <g id="patch_25">
    <path d="M 198 18 
Q 198 198 198 198 
" clip-path="url(#pafddef305a)" style="fill: none"/>
   </g>
   <g id="patch_26">
    <path d="M 108 54 
Q 54 54 54 54 
" clip-path="url(#pafddef305a)" style="fill: none"/>
   </g>
   <g id="patch_27">
    <path d="M 108 54 
Q 162 54 162 54 
" clip-path="url(#pafddef305a)" style="fill: none"/>
   </g>
   <g id="patch_28">
    <path d="M 54 54 
Q 54 162 54 162 
" clip-path="url(#pafddef305a)" style="fill: none"/>
   </g>
   <g id="patch_29">
    <path d="M 108 54 
Q 108 90 108 90 
" clip-path="url(#pafddef305a)" style="fill: none; stroke: #000000; stroke-linejoin: miter"/>
   </g>
   <g id="patch_30">
    <path d="M 162 54 
Q 162 162 162 162 
" clip-path="url(#pafddef305a)" style="fill: none"/>
   </g>
   <g id="patch_31">
    <path d="M 108 126 
Q 108 162 108 162 
" clip-path="url(#pafddef305a)" style="fill: none; stroke: #000000; stroke-linejoin: miter"/>
   </g>
   <g id="patch_32">
    <path d="M 54 162 
Q 54 162 108 162 
" clip-path="url(#pafddef305a)" style="fill: none"/>
   </g>
   <g id="patch_33">
    <path d="M 162 162 
Q 162 162 108 162 
" clip-path="url(#pafddef305a)" style="fill: none"/>
   </g>
   <g id="patch_34">
    <path d="M 18 198 
Q 18 198 36 198 
" clip-path="url(#pafddef305a)" style="fill: none"/>
   </g>
   <g id="patch_35">
    <path d="M 198 198 
Q 198 198 36 198 
" clip-path="url(#pafddef305a)" style="fill: none"/>
   </g>
   <g id="patch_36">
    <path d="M 108 198 
Q 108 216 108 216 
" clip-path="url(#pafddef305a)" style="fill: none; stroke: #000000; stroke-linejoin: miter"/>
   </g>
   <g id="patch_37">
    <path d="M 90 126 
L 90 90 
L 126 90 
L 126 126 
z
" clip-path="url(#pafddef305a)" style="fill: #ffffff; stroke: #000000; stroke-linejoin: miter"/>
   </g>
   <g id="text_1">
    <!-- boundary -->
    <g style="fill: #ffffff" transform="translate(112.5 12.098437) scale(0.1 -0.1)">
     <defs>
      <path id="DejaVuSans-62" d="M 3116 1747 
Q 3116 2381 2855 2742 
Q 2594 3103 2138 3103 
Q 1681 3103 1420 2742 
Q 1159 2381 1159 1747 
Q 1159 1113 1420 752 
Q 1681 391 2138 391 
Q 2594 391 2855 752 
Q 3116 1113 3116 1747 
z
M 1159 2969 
Q 1341 3281 1617 3432 
Q 1894 3584 2278 3584 
Q 2916 3584 3314 3078 
Q 3713 2572 3713 1747 
Q 3713 922 3314 415 
Q 2916 -91 2278 -91 
Q 1894 -91 1617 61 
Q 1341 213 1159 525 
L 1159 0 
L 581 0 
L 581 4863 
L 1159 4863 
L 1159 2969 
z
" transform="scale(0.015625)"/>
      <path id="DejaVuSans-6f" d="M 1959 3097 
Q 1497 3097 1228 2736 
Q 959 2375 959 1747 
Q 959 1119 1226 758 
Q 1494 397 1959 397 
Q 2419 397 2687 759 
Q 2956 1122 2956 1747 
Q 2956 2369 2687 2733 
Q 2419 3097 1959 3097 
z
M 1959 3584 
Q 2709 3584 3137 3096 
Q 3566 2609 3566 1747 
Q 3566 888 3137 398 
Q 2709 -91 1959 -91 
Q 1206 -91 779 398 
Q 353 888 353 1747 
Q 353 2609 779 3096 
Q 1206 3584 1959 3584 
z
" transform="scale(0.015625)"/>
      <path id="DejaVuSans-75" d="M 544 1381 
L 544 3500 
L 1119 3500 
L 1119 1403 
Q 1119 906 1312 657 
Q 1506 409 1894 409 
Q 2359 409 2629 706 
Q 2900 1003 2900 1516 
L 2900 3500 
L 3475 3500 
L 3475 0 
L 2900 0 
L 2900 538 
Q 2691 219 2414 64 
Q 2138 -91 1772 -91 
Q 1169 -91 856 284 
Q 544 659 544 1381 
z
M 1991 3584 
L 1991 3584 
z
" transform="scale(0.015625)"/>
      <path id="DejaVuSans-6e" d="M 3513 2113 
L 3513 0 
L 2938 0 
L 2938 2094 
Q 2938 2591 2744 2837 
Q 2550 3084 2163 3084 
Q 1697 3084 1428 2787 
Q 1159 2491 1159 1978 
L 1159 0 
L 581 0 
L 581 3500 
L 1159 3500 
L 1159 2956 
Q 1366 3272 1645 3428 
Q 1925 3584 2291 3584 
Q 2894 3584 3203 3211 
Q 3513 2838 3513 2113 
z
" transform="scale(0.015625)"/>
      <path id="DejaVuSans-64" d="M 2906 2969 
L 2906 4863 
L 3481 4863 
L 3481 0 
L 2906 0 
L 2906 525 
Q 2725 213 2448 61 
Q 2172 -91 1784 -91 
Q 1150 -91 751 415 
Q 353 922 353 1747 
Q 353 2572 751 3078 
Q 1150 3584 1784 3584 
Q 2172 3584 2448 3432 
Q 2725 3281 2906 2969 
z
M 947 1747 
Q 947 1113 1208 752 
Q 1469 391 1925 391 
Q 2381 391 2643 752 
Q 2906 1113 2906 1747 
Q 2906 2381 2643 2742 
Q 2381 3103 1925 3103 
Q 1469 3103 1208 2742 
Q 947 2381 947 1747 
z
" transform="scale(0.015625)"/>
      <path id="DejaVuSans-61" d="M 2194 1759 
Q 1497 1759 1228 1600 
Q 959 1441 959 1056 
Q 959 750 1161 570 
Q 1363 391 1709 391 
Q 2188 391 2477 730 
Q 2766 1069 2766 1631 
L 2766 1759 
L 2194 1759 
z
M 3341 1997 
L 3341 0 
L 2766 0 
L 2766 531 
Q 2569 213 2275 61 
Q 1981 -91 1556 -91 
Q 1019 -91 701 211 
Q 384 513 384 1019 
Q 384 1609 779 1909 
Q 1175 2209 1959 2209 
L 2766 2209 
L 2766 2266 
Q 2766 2663 2505 2880 
Q 2244 3097 1772 3097 
Q 1472 3097 1187 3025 
Q 903 2953 641 2809 
L 641 3341 
Q 956 3463 1253 3523 
Q 1550 3584 1831 3584 
Q 2591 3584 2966 3190 
Q 3341 2797 3341 1997 
z
" transform="scale(0.015625)"/>
      <path id="DejaVuSans-72" d="M 2631 2963 
Q 2534 3019 2420 3045 
Q 2306 3072 2169 3072 
Q 1681 3072 1420 2755 
Q 1159 2438 1159 1844 
L 1159 0 
L 581 0 
L 581 3500 
L 1159 3500 
L 1159 2956 
Q 1341 3275 1631 3429 
Q 1922 3584 2338 3584 
Q 2397 3584 2469 3576 
Q 2541 3569 2628 3553 
L 2631 2963 
z
" transform="scale(0.015625)"/>
      <path id="DejaVuSans-79" d="M 2059 -325 
Q 1816 -950 1584 -1140 
Q 1353 -1331 966 -1331 
L 506 -1331 
L 506 -850 
L 844 -850 
Q 1081 -850 1212 -737 
Q 1344 -625 1503 -206 
L 1606 56 
L 191 3500 
L 800 3500 
L 1894 763 
L 2988 3500 
L 3597 3500 
L 2059 -325 
z
" transform="scale(0.015625)"/>
     </defs>
     <use xlink:href="#DejaVuSans-62"/>
     <use xlink:href="#DejaVuSans-6f" transform="translate(63.476562 0)"/>
     <use xlink:href="#DejaVuSans-75" transform="translate(124.658203 0)"/>
     <use xlink:href="#DejaVuSans-6e" transform="translate(188.037109 0)"/>
     <use xlink:href="#DejaVuSans-64" transform="translate(251.416016 0)"/>
     <use xlink:href="#DejaVuSans-61" transform="translate(314.892578 0)"/>
     <use xlink:href="#DejaVuSans-72" transform="translate(376.171875 0)"/>
     <use xlink:href="#DejaVuSans-79" transform="translate(417.285156 0)"/>
    </g>
   </g>
   <g id="text_2">
    <!-- x -->
    <g style="fill: #ffffff" transform="translate(112.5 66.098437) scale(0.1 -0.1)">
     <defs>
      <path id="DejaVuSans-78" d="M 3513 3500 
L 2247 1797 
L 3578 0 
L 2900 0 
L 1881 1375 
L 863 0 
L 184 0 
L 1544 1831 
L 300 3500 
L 978 3500 
L 1906 2253 
L 2834 3500 
L 3513 3500 
z
" transform="scale(0.015625)"/>
     </defs>
     <use xlink:href="#DejaVuSans-78"/>
    </g>
   </g>
   <g id="text_3">
    <!-- x -->
    <g style="fill: #ffffff" transform="translate(112.5 138.098437) scale(0.1 -0.1)">
     <use xlink:href="#DejaVuSans-78"/>
    </g>
   </g>
   <g id="text_4">
    <!-- boundary -->
    <g style="fill: #ffffff" transform="translate(112.5 210.098437) scale(0.1 -0.1)">
     <use xlink:href="#DejaVuSans-62"/>
     <use xlink:href="#DejaVuSans-6f" transform="translate(63.476562 0)"/>
     <use xlink:href="#DejaVuSans-75" transform="translate(124.658203 0)"/>
     <use xlink:href="#DejaVuSans-6e" transform="translate(188.037109 0)"/>
     <use xlink:href="#DejaVuSans-64" transform="translate(251.416016 0)"/>
     <use xlink:href="#DejaVuSans-61" transform="translate(314.892578 0)"/>
     <use xlink:href="#DejaVuSans-72" transform="translate(376.171875 0)"/>
     <use xlink:href="#DejaVuSans-79" transform="translate(417.285156 0)"/>
    </g>
   </g>
   <g id="text_5">
    <!-- f -->
    <g transform="translate(106.239844 110.759375) scale(0.1 -0.1)">
     <defs>
      <path id="DejaVuSans-66" d="M 2375 4863 
L 2375 4384 
L 1825 4384 
Q 1516 4384 1395 4259 
Q 1275 4134 1275 3809 
L 1275 3500 
L 2222 3500 
L 2222 3053 
L 1275 3053 
L 1275 0 
L 697 0 
L 697 3053 
L 147 3053 
L 147 3500 
L 697 3500 
L 697 3744 
Q 697 4328 969 4595 
Q 1241 4863 1831 4863 
L 2375 4863 
z
" transform="scale(0.015625)"/>
     </defs>
     <use xlink:href="#DejaVuSans-66"/>
    </g>
   </g>
  </g>
 </g>
 <defs>
  <clipPath id="pafddef305a">
   <rect x="0" y="0" width="216" height="216"/>
  </clipPath>
 </defs>
</svg>
